<svg xmlns="http://www.w3.org/2000/svg" viewBox="0 0 1920 300"><defs><pattern id="新規パターンスウォッチ_15" data-name="新規パターンスウォッチ 15" width="75.42" height="75.42" patternTransform="matrix(1.2 0 0 1.2 66.84 90.55)" patternUnits="userSpaceOnUse"><path class="cls-1" d="M0 0h75.42v75.42H0z"/><path class="cls-2" d="M58.73-56.84L-56.84 58.73l-1.89-1.89L56.84-58.73l1.89 1.89z"/><path class="cls-1" d="M60.62-54.96L-54.96 60.61l-1.88-1.88L58.73-56.84l1.89 1.88z"/><path class="cls-2" d="M62.5-53.07L-53.07 62.5l-1.89-1.89L60.62-54.96l1.88 1.89z"/><path class="cls-1" d="M64.39-51.19L-51.19 64.39l-1.88-1.89L62.5-53.07l1.89 1.88z"/><path class="cls-2" d="M66.27-49.3L-49.3 66.27l-1.89-1.88L64.39-51.19l1.88 1.89z"/><path class="cls-1" d="M68.16-47.41L-47.41 68.16l-1.89-1.89L66.27-49.3l1.89 1.89z"/><path class="cls-2" d="M70.04-45.53L-45.53 70.04l-1.88-1.88L68.16-47.41l1.88 1.88z"/><path class="cls-1" d="M71.93-43.64L-43.65 71.93l-1.88-1.89L70.04-45.53l1.89 1.89z"/><path class="cls-2" d="M73.81-41.76L-41.76 73.81l-1.89-1.88L71.93-43.64l1.88 1.88z"/><path class="cls-1" d="M75.7-39.87L-39.87 75.7l-1.89-1.89L73.81-41.76l1.89 1.89z"/><path class="cls-2" d="M77.58-37.99L-37.99 77.58l-1.88-1.88L75.7-39.87l1.88 1.88z"/><path class="cls-1" d="M79.47-36.1L-36.1 79.47l-1.89-1.89L77.58-37.99l1.89 1.89z"/><path class="cls-2" d="M81.36-34.22L-34.22 81.35l-1.88-1.88L79.47-36.1l1.89 1.88z"/><path class="cls-1" d="M83.24-32.33L-32.33 83.24l-1.89-1.89L81.36-34.22l1.88 1.89z"/><path class="cls-2" d="M85.13-30.45L-30.45 85.13l-1.88-1.89L83.24-32.33l1.89 1.88z"/><path class="cls-1" d="M87.01-28.56L-28.56 87.01l-1.89-1.88L85.13-30.45l1.88 1.89z"/><path class="cls-2" d="M88.9-26.68L-26.68 88.9l-1.88-1.89L87.01-28.56l1.89 1.88z"/><path class="cls-1" d="M90.78-24.79L-24.79 90.78l-1.89-1.88L88.9-26.68l1.88 1.89z"/><path class="cls-2" d="M92.67-22.9L-22.9 92.67l-1.89-1.89L90.78-24.79l1.89 1.89z"/><path class="cls-1" d="M94.55-21.02L-21.02 94.55l-1.88-1.88L92.67-22.9l1.88 1.88z"/><path class="cls-2" d="M96.44-19.13L-19.13 96.44l-1.89-1.89L94.55-21.02l1.89 1.89z"/><path class="cls-1" d="M98.32-17.25L-17.25 98.32l-1.88-1.88L96.44-19.13l1.88 1.88z"/><path class="cls-2" d="M100.21-15.36L-15.36 100.21l-1.89-1.89L98.32-17.25l1.89 1.89z"/><path class="cls-1" d="M102.1-13.48L-13.48 102.09l-1.88-1.88L100.21-15.36l1.89 1.88z"/><path class="cls-2" d="M103.98-11.59L-11.59 103.98l-1.89-1.89L102.1-13.48l1.88 1.89z"/><path class="cls-1" d="M105.87-9.71L-9.71 105.87l-1.88-1.89L103.98-11.59l1.89 1.88z"/><path class="cls-2" d="M107.75-7.82L-7.82 107.75l-1.89-1.88L105.87-9.71l1.88 1.89z"/><path class="cls-1" d="M109.64-5.93L-5.93 109.64l-1.89-1.89L107.75-7.82l1.89 1.89z"/><path class="cls-2" d="M111.52-4.05L-4.05 111.52l-1.88-1.88L109.64-5.93l1.88 1.88z"/><path class="cls-1" d="M113.41-2.16L-2.16 113.41l-1.89-1.89L111.52-4.05l1.89 1.89z"/><path class="cls-2" d="M115.29-.28L-.28 115.29l-1.88-1.88L113.41-2.16l1.88 1.88z"/><path class="cls-1" d="M117.18 1.61L1.61 117.18l-1.89-1.89L115.29-.28l1.89 1.89z"/><path class="cls-2" d="M119.06 3.49L3.49 119.06l-1.88-1.88L117.18 1.61l1.88 1.88z"/><path class="cls-1" d="M120.95 5.38L5.38 120.95l-1.89-1.89L119.06 3.49l1.89 1.89z"/><path class="cls-2" d="M122.84 7.26L7.26 122.83l-1.88-1.88L120.95 5.38l1.89 1.88z"/><path class="cls-1" d="M124.72 9.15L9.15 124.72l-1.89-1.89L122.84 7.26l1.88 1.89z"/><path class="cls-2" d="M126.61 11.03L11.04 126.61l-1.89-1.89L124.72 9.15l1.89 1.88z"/><path class="cls-1" d="M128.49 12.92L12.92 128.49l-1.88-1.88L126.61 11.03l1.88 1.89z"/><path class="cls-2" d="M130.38 14.81L14.81 130.38l-1.89-1.89L128.49 12.92l1.89 1.89z"/><path class="cls-1" d="M132.26 16.69L16.69 132.26l-1.88-1.88L130.38 14.81l1.88 1.88z"/><path class="cls-2" d="M134.15 18.58L18.58 134.15l-1.89-1.89L132.26 16.69l1.89 1.89z"/><path class="cls-1" d="M136.03 20.46L20.46 136.03l-1.88-1.88L134.15 18.58l1.88 1.88z"/></pattern><style>.cls-1{fill:none}.cls-2{fill:#221714}</style></defs><g id="レイヤー_2" data-name="レイヤー 2"><g id="背景"><path fill="#5fc1c7" d="M0 0h1920v300H0z"/><path opacity=".05" fill="url(#新規パターンスウォッチ_15)" d="M0 0h1920v300H0z"/></g></g></svg>