<svg xmlns="http://www.w3.org/2000/svg" viewBox="0 0 49.68 42.54"><defs><style>.cls-1{fill:#3e3430}</style></defs><g id="レイヤー_2" data-name="レイヤー 2"><g id="レイヤー_1-2" data-name="レイヤー 1"><path class="cls-1" d="M45.77 27.13l3.87-16A1.31 1.31 0 0049.4 10a1.32 1.32 0 00-1-.5H15.21l-.79-5a1.3 1.3 0 00-.94-1.06L1.69.05A1.32 1.32 0 001 2.59l11 3.18 4.52 28.67a1.32 1.32 0 001.31 1.11h28.7a1.32 1.32 0 000-2.64H18.9l-.51-3.23 26.18-1.54a1.32 1.32 0 001.2-1.01zm-.56-8.91h-7.6l.33-6.07h8.74zm-17.47 8.27l-.62-5.64h7.71l-.28 5.24zm-.92-8.27l-.67-6.07h9.14L35 18.22zm-3.33-6.07l.68 6.07h-7.59l-1-6.07zM17 20.85h7.46l.64 5.79-7.1.42zm20.2 5.08l.27-5.08h7.11l-1.14 4.72z"/><circle class="cls-1" cx="25.67" cy="39.88" r="2.66" transform="rotate(-31.72 25.666 39.873)"/><circle class="cls-1" cx="38.73" cy="39.88" r="2.66"/></g></g></svg>