<svg xmlns="http://www.w3.org/2000/svg" viewBox="0 0 512 512" style="width:256px;height:256px"><path d="M494.364 133.438a67.062 67.062 0 00-48.804-27.219L126.243 80.918l-3.129-17.749c-5.253-29.676-28.858-52.657-58.672-57.066L24.59.187C15.09-1.209 6.25 5.359 4.838 14.845c-1.409 9.512 5.158 18.356 14.657 19.761v-.008l39.861 5.907c14.97 2.218 26.868 13.785 29.497 28.71l54.013 306.134c5.073 28.735 30.027 49.669 59.207 49.678h221.97c9.599 0 17.39-7.792 17.39-17.39 0-9.607-7.791-17.398-17.39-17.398h-221.97c-12.282.009-22.814-8.836-24.946-20.934l-5-28.349h244.879c31.243 0 58.35-21.55 65.372-52.005l23.254-100.767c1.148-5 1.721-10.06 1.721-15.086a67.069 67.069 0 00-12.989-39.66zm-197.865 96.417v82.118H224.03v-82.118h72.469zm-72.468-23.203v-88.899l72.469 5.746v83.154h-72.469zm95.654 23.203h72.469v82.118h-72.469v-82.118zm0-23.203V125.33l72.469 5.745v75.577h-72.469zm-118.846-90.741v90.74h-52.408l-16.983-96.237 69.391 5.497zm-48.315 113.944h48.315v82.118h-33.828l-14.487-82.118zm301.607 52.589c-3.981 17.278-19.385 29.53-37.125 29.53h-1.653v-82.118h50.91l-12.132 52.588zm23.254-100.776l-6.969 30.207v-5.223h-55.063v-73.736l27.921 2.208a38.044 38.044 0 0127.707 15.447 38.081 38.081 0 017.388 22.526c0 2.852-.342 5.712-.984 8.571zM215.344 450.165c-17.077 0-30.909 13.853-30.909 30.926S198.267 512 215.344 512c17.077 0 30.926-13.836 30.926-30.909s-13.849-30.926-30.926-30.926zm166.193 0c-17.073 0-30.914 13.853-30.914 30.926S364.463 512 381.537 512c17.077 0 30.922-13.836 30.922-30.909s-13.844-30.926-30.922-30.926z" fill="#4b4b4b"/></svg>