<svg xmlns="http://www.w3.org/2000/svg" viewBox="0 0 648.75 93.04"><path d="M14.14 10.5H0V.84h39.2v9.66H25.06v39.9H14.14zM48.65.84h33.67v10.08H59.57v9.24h21.49v10.08H59.57v10.08h24V50.4H48.65zm47.6 0h10.92v39.48h20.23V50.4H96.25zm39.55 43.54a6.47 6.47 0 01.49-2.52 6.11 6.11 0 013.43-3.43 6.47 6.47 0 012.52-.49 6.54 6.54 0 012.52.49 6.32 6.32 0 012.06 1.36 6.5 6.5 0 011.37 2.07 6.72 6.72 0 010 5 6.35 6.35 0 01-1.37 2.14 6.19 6.19 0 01-2.06 1.37 6.54 6.54 0 01-2.52.49 6.47 6.47 0 01-2.52-.49 6.19 6.19 0 01-3.43-3.43 6.47 6.47 0 01-.49-2.56zm22.61-18.76a51 51 0 01.8-9 26.25 26.25 0 012.87-8.26 17.23 17.23 0 015.64-6.06 18.86 18.86 0 0118.2 0 17.21 17.21 0 015.63 6.06 26.25 26.25 0 012.87 8.26 50 50 0 010 17.92 26.25 26.25 0 01-2.87 8.26 17.21 17.21 0 01-5.63 6.06 18.86 18.86 0 01-18.2 0 17.23 17.23 0 01-5.64-6.06 26.25 26.25 0 01-2.87-8.26 51 51 0 01-.8-8.92zm10.5 0c0 1.31.05 2.87.17 4.69a22.75 22.75 0 00.95 5.25 11.12 11.12 0 002.34 4.27 6.48 6.48 0 008.86 0 11.06 11.06 0 002.38-4.27 23.28 23.28 0 00.94-5.25c.12-1.82.18-3.38.18-4.69s-.06-2.87-.18-4.69a23.28 23.28 0 00-.94-5.25 11.06 11.06 0 00-2.38-4.27 6.48 6.48 0 00-8.86 0 11.12 11.12 0 00-2.37 4.27 22.75 22.75 0 00-.95 5.25c-.05 1.82-.14 3.38-.14 4.69zm35.56 13.65L223.72 22a36.72 36.72 0 002.94-3 5.77 5.77 0 001.47-3.92 4.78 4.78 0 00-1.82-4A6.75 6.75 0 00222 9.66a5.89 5.89 0 00-4.59 1.82A7.31 7.31 0 00215.6 16l-10.5-.77a17 17 0 011.61-6.69 14 14 0 013.71-4.72 15.58 15.58 0 015.42-2.88A23.21 23.21 0 01222.6 0a20.47 20.47 0 016.3.94 14.67 14.67 0 015.1 2.81 12.73 12.73 0 013.4 4.65 16.09 16.09 0 011.23 6.51 17.71 17.71 0 01-.49 4.3 14.59 14.59 0 01-1.37 3.5 15.77 15.77 0 01-2.06 2.91 35.16 35.16 0 01-2.59 2.59l-15.05 12.95h22v9.24h-34.6zm45.63-25.62a13.08 13.08 0 011.3-6A12 12 0 01255 3.4a15.63 15.63 0 015.25-2.56 25.15 25.15 0 0112.89 0 15.31 15.31 0 015.25 2.56A12.66 12.66 0 01282 7.67a12.83 12.83 0 011.33 6 11 11 0 01-2.21 6.93 11.82 11.82 0 01-6.19 4.06v.14a12.3 12.3 0 016.86 4.3 12.42 12.42 0 012.37 7.74 13.3 13.3 0 01-1.43 6.3 13.14 13.14 0 01-3.85 4.51 17.39 17.39 0 01-5.57 2.7 24.21 24.21 0 01-13.15 0 17.49 17.49 0 01-5.57-2.7 13.14 13.14 0 01-3.85-4.51 13.3 13.3 0 01-1.43-6.3 12.37 12.37 0 012.38-7.74 12.24 12.24 0 016.85-4.3v-.14a11.82 11.82 0 01-6.19-4.06 11 11 0 01-2.25-6.95zm9.67 21.7a5.89 5.89 0 001.89 4.41 7.87 7.87 0 0010.07 0 5.85 5.85 0 001.89-4.41 5.94 5.94 0 00-1.89-4.48 7.87 7.87 0 00-10.07 0 6 6 0 00-1.89 4.48zm.83-20.23a5.23 5.23 0 001.69 3.88 6.83 6.83 0 008.81 0 5.19 5.19 0 001.69-3.92 5.12 5.12 0 00-1.69-3.85 6.83 6.83 0 00-8.81 0 5.16 5.16 0 00-1.69 3.89zm66.5-5.04h-19.67l-.21 7.63a14 14 0 014.41-.56 20.48 20.48 0 016.93 1.12 15.45 15.45 0 015.44 3.25 14.67 14.67 0 013.53 5.19 17.64 17.64 0 011.26 6.82 18.67 18.67 0 01-1.44 7.47 16 16 0 01-4 5.56 17 17 0 01-6 3.47 23.13 23.13 0 01-7.53 1.19 17.89 17.89 0 01-10.78-3.15q-4.34-3.15-6-9.52l11-2.52a7.09 7.09 0 002.24 4.3 6.53 6.53 0 004.65 1.67 7 7 0 005.36-2.1 7.41 7.41 0 002-5.32 7.3 7.3 0 00-1-4 7.74 7.74 0 00-2.68-2.58 11 11 0 00-3.68-1.29 24.11 24.11 0 00-4.06-.35 28.08 28.08 0 00-5.21.49 36.76 36.76 0 00-5.08 1.33l.56-27.34h30zm27.72 27.09H337.6v-8.4h17.22zm28.56 3.29h-21.63v-8.82L382 .84h11.48v30.8h6.37v8.82h-6.37v9.94h-10.1zm0-25.9h-.14l-11 17.08h11.13zm44.94 25.9h-21.63v-8.82L426.92.84h11.48v30.8h6.37v8.82h-6.37v9.94h-10.08zm0-25.9h-.14l-11 17.08h11.13zm40.6 22.61H451.7v-8.4h17.22zm7.56-11.55a51 51 0 01.81-9 26 26 0 012.87-8.26 17.12 17.12 0 015.63-6.06 18.86 18.86 0 0118.2 0 17.23 17.23 0 015.64 6.06 26.5 26.5 0 012.87 8.26 50.58 50.58 0 010 17.92 26.5 26.5 0 01-2.87 8.26 17.23 17.23 0 01-5.63 6.1 18.86 18.86 0 01-18.2 0 17.12 17.12 0 01-5.63-6.06 26 26 0 01-2.87-8.26 51 51 0 01-.82-8.96zm10.5 0c0 1.31.06 2.87.18 4.69a22.74 22.74 0 00.94 5.25 11.14 11.14 0 002.35 4.27 6.47 6.47 0 008.85 0 10.93 10.93 0 002.38-4.27 23.29 23.29 0 00.95-5.25c.11-1.82.17-3.38.17-4.69s-.06-2.87-.17-4.69a23.29 23.29 0 00-.95-5.25 10.93 10.93 0 00-2.38-4.27 6.47 6.47 0 00-8.85 0 11.14 11.14 0 00-2.35 4.27 22.74 22.74 0 00-.94 5.25c-.16 1.82-.16 3.38-.16 4.69zm52.22-7.07c.56-.14 1.12-.26 1.68-.35a11 11 0 011.75-.14 15.68 15.68 0 016.37 1.26 14.68 14.68 0 014.9 3.43 15.45 15.45 0 013.15 5.15 17.72 17.72 0 011.12 6.33 16.15 16.15 0 01-5.35 12.32 17.78 17.78 0 01-5.88 3.45 22.24 22.24 0 01-14.53 0 17.69 17.69 0 01-5.84-3.47 16.13 16.13 0 01-3.92-5.36 16.35 16.35 0 01-1.44-7 22.31 22.31 0 01.49-4.87 25.87 25.87 0 011.3-4.1 25.21 25.21 0 011.89-3.74c.72-1.19 1.48-2.42 2.27-3.68L538 .84h12.81zm8.47 15.26a7.51 7.51 0 00-2.2-5.56 8.65 8.65 0 00-11.55 0 7.52 7.52 0 00-2.21 5.56 7.57 7.57 0 002.21 5.57 8.68 8.68 0 0011.55 0 7.57 7.57 0 002.2-5.57zm36.54-21.21l-9.94 8.75-5.95-6.86L584.49.84h9.8V50.4h-10.08zm48.09 27.86h-21.63v-8.82L630.9.84h11.48v30.8h6.37v8.82h-6.37v9.94H632.3zm0-25.9h-.14l-11 17.08h11.14zM40.47 69.2h6.25a16.46 16.46 0 00-2.57 4.65 22.19 22.19 0 00-1.06 7.27 22.25 22.25 0 001.06 7.28 16.3 16.3 0 002.57 4.6h-6.25zm21.99 6.62c-.29.05-.39.08-.72.15a39 39 0 01-4.3.75v4.33a16.72 16.72 0 015.22-.9 8 8 0 014.29 1 5 5 0 012.5 4.42 5 5 0 01-5 5.18A3.59 3.59 0 0160.77 88a9.38 9.38 0 01-.3-2.82 5 5 0 001.6-.65 9.18 9.18 0 000 1c0 2.6.72 3.68 2.49 3.68a3.28 3.28 0 003.25-3.53c0-2.45-2-4-5.19-4a16.06 16.06 0 00-5.14 1v6.25c0 1.35-.58 2-1.77 2a6.29 6.29 0 01-4-1.6 3 3 0 01-1.11-2.35 4.54 4.54 0 011.91-3.32 12.65 12.65 0 013.42-2v-4.84c-.22 0-.22 0-1 .08h-3.84v-1.65a13.79 13.79 0 002.47.17c.66 0 1.6 0 2.33-.07v-2.47a16.75 16.75 0 00-.12-2.38h1.79a15.68 15.68 0 00-.12 2.32v2.4a23.82 23.82 0 005-1.07zm-6.57 7.38c-2.4 1.2-3.76 2.55-3.76 3.75a1.92 1.92 0 001 1.5 4.44 4.44 0 002.15.72c.49 0 .56-.15.56-1.22zm13.31-4.7a20 20 0 00-4.89-4.9l1.26-1a20.72 20.72 0 014.89 4.75zm9.46-6.62a21.62 21.62 0 00-2.4.1v-1.55a18.67 18.67 0 002.48.15h12.6a16.2 16.2 0 002.41-.15V72a19.38 19.38 0 00-2.33-.1H85.5v1.5h7.15a16.24 16.24 0 002.67-.13 14.93 14.93 0 00-.1 1.9v1.48a9.09 9.09 0 00.15 1.87h-1.58v-3.9H85.5v3a16.46 16.46 0 00.12 2.45h-1.74a16 16 0 00.12-2.45v-3h-7.81v3.9h-1.58a10.65 10.65 0 00.15-1.87v-1.48a14 14 0 00-.1-1.9 15.82 15.82 0 002.65.13H84v-1.52zm-.34 16.44v1.4H76.7a13.45 13.45 0 00.14-2.12V83a20.65 20.65 0 00-.09-2.22 16.53 16.53 0 002.08.1h12.22a18.11 18.11 0 002.21-.1 19 19 0 00-.1 2.22v3.65a16.85 16.85 0 00.08 1.8 19.45 19.45 0 00-2.19-.1h-5.6V90c0 .6.51.68 3.91.68 2.88 0 4.17-.13 4.58-.48s.41-1 .44-3a5.43 5.43 0 001.5.7c0 2-.32 3-.92 3.4s-2.06.68-5.85.68c-4.51 0-5.14-.2-5.14-1.65v-2.01zm-.8-12.52a11.57 11.57 0 001.48.07h2.26a10.62 10.62 0 001.4-.07V77a7.11 7.11 0 00-1.4-.1H79a7.87 7.87 0 00-1.48.1zm0 2.4a8.05 8.05 0 001.48.1h2.26a7.82 7.82 0 001.4-.1v1.22a7.82 7.82 0 00-1.4-.1H79a8.42 8.42 0 00-1.48.1zm.8 3.87v1.78H84v-1.78zm0 3v2H84v-2zm13.36-1.2v-1.8h-6.23v1.78zm0 3.22v-2h-6.23v2zM87 75.77a7.25 7.25 0 001.48.1h2.62a6.91 6.91 0 001.41-.1V77a7 7 0 00-1.41-.1h-2.64A7.49 7.49 0 0087 77zm0 2.43a8.05 8.05 0 001.48.1h2.62a7.94 7.94 0 001.41-.1v1.22a7.86 7.86 0 00-1.41-.1h-2.64a8.42 8.42 0 00-1.48.1zm12.83-4.03a10.21 10.21 0 001.94.13h4.51a9.51 9.51 0 001.94-.13v1.6a10.94 10.94 0 00-1.74-.1h-4.71a15.07 15.07 0 00-1.94.1zm.83-3.42a9.67 9.67 0 001.87.13h3.37a9.69 9.69 0 001.86-.13v1.58a12.37 12.37 0 00-1.86-.1h-3.37a12.68 12.68 0 00-1.87.1zm.12 6.87a10.63 10.63 0 001.75.1h3.58a10 10 0 001.73-.1v1.55a13 13 0 00-1.73-.1h-3.58a12.33 12.33 0 00-1.75.1zm0 3.45a10.12 10.12 0 001.75.1h3.58a9.73 9.73 0 001.73-.1v1.55a12.32 12.32 0 00-1.73-.1h-3.58a11.69 11.69 0 00-1.75.1zm1.67 11.35h-1.57A17.19 17.19 0 00101 90v-3.4a12.73 12.73 0 00-.12-2.08 15.26 15.26 0 002 .1H106a10.34 10.34 0 001.77-.07c-.05.52-.07 1-.07 2v3.55a13.7 13.7 0 00.12 2h-1.5v-1h-3.86zm0-2.65h3.88v-3.85h-3.88zM113.9 73.1a47.38 47.38 0 01-4.75.7 5.67 5.67 0 00-.66-1.45 36.56 36.56 0 008.39-1.45 12.68 12.68 0 002.72-1.07l1 1.42-.78.23c-.87.32-3.42 1-4.44 1.29v4.63h3.21a17 17 0 002.59-.15V79a17.75 17.75 0 00-2.59-.15h-3.21v4.27h3a11.42 11.42 0 001.82-.1 15.8 15.8 0 00-.1 2.23v4.65a21.83 21.83 0 00.12 2.45h-1.62v-1.3h-7.52v1.25h-1.64a15.73 15.73 0 00.12-2.43v-4.8a18.59 18.59 0 00-.1-2.1 11 11 0 001.72.1h2.72V78.8h-2.57a15.48 15.48 0 00-2.69.15v-1.7a15.79 15.79 0 002.71.15h2.55zm-2.82 16.55h7.52v-5.2h-7.52zM125 74.07h.87c.34 0 .63 0 1.38-.08 1.36-.1 1.51-.12 4.49-.3l3.8-.25c3-.17 3.3-.2 4.1-.22h1.38a16.16 16.16 0 002.89-.28l.14 1.85a9.83 9.83 0 00-2.71.35 12 12 0 00-4.66 2.5 7.72 7.72 0 00-3 5.78 4.88 4.88 0 003.4 4.62 12 12 0 003.63.8h.25l-.32 2c-.27 0-.31-.08-.75-.15a12 12 0 01-5.24-1.93 6.1 6.1 0 01-2.69-5.1c0-2.9 1.65-5.65 4.53-7.67a15.89 15.89 0 012.31-1.33 47 47 0 01-5.34.55 76.17 76.17 0 00-8.36.83zm16.22 3.73a19.32 19.32 0 012.5 3.87l-1.24.75a17.81 17.81 0 00-2.47-4zm2.74-1.38a20.7 20.7 0 012.5 3.9l-1.22.7a19.6 19.6 0 00-2.47-3.92zM157.81 84c-1.4 3.3-2.83 4.8-4.58 4.8-2.3 0-4-2.6-4-6.1a10.62 10.62 0 012.54-6.9 10 10 0 017.83-3.32 9.21 9.21 0 016.67 2.47A8.5 8.5 0 01168.6 81a9.11 9.11 0 01-5.55 8.63 19 19 0 01-3.68 1.15 4.1 4.1 0 00-.85-1.68 14.22 14.22 0 004-1.17 7.58 7.58 0 004.29-7 6.62 6.62 0 00-3.81-6.26 6.77 6.77 0 00-2.81-.62 37.88 37.88 0 01-2.38 9.95zm-3-8.72a8.7 8.7 0 00-4 7.45c0 2.4 1 4.25 2.33 4.25 1 0 2-1.18 3-3.63a35.18 35.18 0 002.2-9.25 7.58 7.58 0 00-3.51 1.15zM190.74 82a9.06 9.06 0 00-.82.9 22.43 22.43 0 01-4.92 4.8 24.78 24.78 0 009.58 3.1 8 8 0 00-.88 1.63 24.17 24.17 0 01-10.11-3.8 28.83 28.83 0 01-9.87 3.75 6 6 0 00-.87-1.58 25.48 25.48 0 009.43-3.15 16.37 16.37 0 01-4.34-5.32 14.15 14.15 0 00-1.79.15v-1.71a15.17 15.17 0 002.42.15h9a11.45 11.45 0 002.14-.12zm-12.8-5.3a22.39 22.39 0 00-1.28-3.35c-.51 0-.9 0-2.16.06a4.38 4.38 0 00-.56-1.48 76.32 76.32 0 0011.35-.72 24.83 24.83 0 006.35-1.45l1.07 1.47a6.13 6.13 0 00-1 .23 66.89 66.89 0 01-8.29 1.42 25.57 25.57 0 011.28 3.82h2.81a21 21 0 002-4.44l1.58.57a42.86 42.86 0 01-2 3.87h2.06a24 24 0 002.77-.1 15.81 15.81 0 00-.1 1.9v1.6a8.13 8.13 0 00.12 1.55h-1.65v-3.5h-17.45v3.62h-1.65a13.44 13.44 0 00.12-1.77v-1.58c0-.65-.05-1.2-.1-1.87a22.37 22.37 0 003 .12zm5.29 0a23.79 23.79 0 00-1.29-3.7c-1.21.1-2 .17-3.8.25a24.37 24.37 0 011.35 3.42zm-3.64 5.63a13.52 13.52 0 004 4.5 19.3 19.3 0 004.8-4.5zm23.67 7.14c0 1.15.05 2.1.12 3h-1.82a25.42 25.42 0 00.15-3v-8.4c0-1.1 0-1.87.09-3a21 21 0 01-2.71 3.85l-.17-.28a4.11 4.11 0 00-.9-1.1 24.88 24.88 0 004.88-7.62 13.77 13.77 0 001.1-3.22l1.75.58a11 11 0 00-.61 1.42c-.34.88-1.11 2.6-1.84 4zm13.12.3c0 1.65-.51 2-2.69 2-.95 0-1.87 0-2.94-.15a5.42 5.42 0 00-.46-1.7 18.81 18.81 0 003.32.3c1 0 1.22-.12 1.22-.65v-12.3h-7.62a18.13 18.13 0 00-2.59.15v-1.75a17.36 17.36 0 002.52.15h7.69V73a19.32 19.32 0 00-.17-2.92h1.86a26.26 26.26 0 00-.14 2.92v2.87h1.19a14.38 14.38 0 002.3-.15v1.7c-.75-.07-1.53-.1-2.3-.1h-1.19zm-8.9-10.27a31.66 31.66 0 014.1 5.65l-1.36 1.07a25.53 25.53 0 00-4-5.82zm17.27-5.83a21.69 21.69 0 00-.1-2.39 20.41 20.41 0 002.23.07h1.79a20.88 20.88 0 002.19-.07 17.2 17.2 0 00-.08 2.44v13.7c0 1.2 0 1.85.08 2.4h-1.51v-1.25h-3.17v2.05h-1.58a20 20 0 00.15-2.65zm1.43 5.33h3.17v-6.2h-3.17zm0 8.22h3.17V80.3h-3.17zm8.46-12.9a19.37 19.37 0 00-2.33.13v-1.7a13.87 13.87 0 002.3.15h2.57v-.8a12.82 12.82 0 00-.14-2h1.79a13.43 13.43 0 00-.14 2v.8h3.44a14.21 14.21 0 002.3-.15v1.65a18.24 18.24 0 00-2.3-.13h-3.44v3.25H243a15.42 15.42 0 002.45-.15v1.68a15.16 15.16 0 00-2.35-.15h-.8v2.92h.7a14.32 14.32 0 002.37-.15v1.73a15.53 15.53 0 00-2.37-.15h-.75v7c0 1.6-.54 2-2.79 2-.39 0-.78 0-2.18-.1a4.65 4.65 0 00-.39-1.65 16.52 16.52 0 002.76.3c.92 0 1.09-.1 1.09-.65v-6.9h-6.83a17.58 17.58 0 00-2.43.15v-1.73a15 15 0 002.45.15h6.81V78.9H234a17.28 17.28 0 00-2.45.15v-1.68a15.69 15.69 0 002.45.15h3.22v-3.25zm1.87 15a22.37 22.37 0 00-3.37-4.2l1.18-.88a26.65 26.65 0 013.5 4.08zm15.2.28a18 18 0 00.15 2.8h-1.8a18.73 18.73 0 00.15-2.8V73.45c0-1.22 0-2-.1-2.75a20.76 20.76 0 002.55.1h3.46a19.68 19.68 0 002.48-.1c-.05.7-.08 1.45-.08 2.37v3.1c0 1 0 1.7.08 2.33-.66 0-1.48-.08-2.45-.08h-4.44zm0-15.58h5.43V72h-5.43zm0 3.2h5.43v-2h-5.43zm12.73 9.48c0 1 0 1.62.07 2.27-.68 0-1.48-.07-2.47-.07h-5.31v1.75h-1.5a17 17 0 00.12-2.35v-5.55c0-.9 0-1.63-.07-2.35a22.13 22.13 0 002.4.1h4.43a21.89 21.89 0 002.4-.1c-.05.7-.07 1.35-.07 2.35zm-7.71-2.7h6.33v-2.25h-6.33zm0 3.68h6.33v-2.46h-6.33zm13 2.32c0 1.65-.51 2.08-2.48 2.08-.51 0-1.82 0-2.42-.1a5.82 5.82 0 00-.44-1.6 25.62 25.62 0 002.67.25c1 0 1.19-.13 1.19-.73V78.42h-5c-1 0-1.8 0-2.45.08.05-.65.07-1.4.07-2.33v-3.1c0-.87 0-1.62-.07-2.37a19.31 19.31 0 002.47.1h4a20.86 20.86 0 002.55-.1 23.81 23.81 0 00-.12 2.75zm-7.45-16h6v-2h-6zm0 3.2h6v-2h-6zM274.36 93a15.82 15.82 0 002.57-4.64 21.78 21.78 0 001.07-7.24 21.71 21.71 0 00-1.07-7.27 16 16 0 00-2.57-4.65h6.26V93zm15.86-6.68a4 4 0 00.87 1.6 3.88 3.88 0 003.06 1.18 4.16 4.16 0 003.9-2.3 10.2 10.2 0 001-3.2 28.44 28.44 0 00.22-2.93 4.82 4.82 0 01-1 1.4 6.51 6.51 0 01-8.77.1 6.44 6.44 0 01-1.65-4.5 6.17 6.17 0 016.57-6.57 6.1 6.1 0 015.87 4.2 15.7 15.7 0 01.7 5.2c0 3.47-.7 6.3-2 8a5.89 5.89 0 01-4.99 2.3 6 6 0 01-4.07-1.35 6.43 6.43 0 01-1.7-2.48zm8.63-8.8a4.55 4.55 0 00-8.39-2.6 5.52 5.52 0 00-.63 2.63c0 2.82 1.68 4.6 4.32 4.6a4.55 4.55 0 004.7-4.63zm9.05 1.95h-2.4V77h2.4zm-2.4 11V88h2.4v2.47zm8.85-1.4a6.38 6.38 0 01-1.46-2.3A17.9 17.9 0 01312 81a15 15 0 011.41-6.8 6.39 6.39 0 019.87-1.3 6.24 6.24 0 011.45 2.3 17.55 17.55 0 01.92 5.8c0 3-.63 5.7-1.69 7.22a6.38 6.38 0 01-9.58.85zm1.41-14.95a5.08 5.08 0 00-1.09 1.88 15.88 15.88 0 00-.76 5 14.29 14.29 0 001.14 6 4.1 4.1 0 003.76 2.17 4 4 0 003-1.17 5 5 0 001.14-2 15.93 15.93 0 00.75-5 14.58 14.58 0 00-1.09-5.83 4.07 4.07 0 00-3.8-2.27 3.88 3.88 0 00-3.05 1.22zm15.73 14.95a6.23 6.23 0 01-1.45-2.3 17.63 17.63 0 01-.92-5.77 15.12 15.12 0 011.4-6.8 6 6 0 015.48-3.07 5.88 5.88 0 014.43 1.77 6.27 6.27 0 011.46 2.3 17.82 17.82 0 01.92 5.8c0 3-.63 5.7-1.7 7.22a5.87 5.87 0 01-5.14 2.63 6 6 0 01-4.48-1.78zm1.41-14.95a5.08 5.08 0 00-1.09 1.88 15.88 15.88 0 00-.75 5 14.13 14.13 0 001.14 6 4.1 4.1 0 003.8 2.12 4 4 0 003-1.17 5.09 5.09 0 001.14-2 15.93 15.93 0 00.75-5 14.58 14.58 0 00-1.09-5.83 4.08 4.08 0 00-3.81-2.27 3.89 3.89 0 00-3.09 1.27zm13.46 6.95c2.16-2.17 3.66-2.95 5.84-2.95a6.34 6.34 0 013 .73 13.5 13.5 0 012.28 1.5c2 1.5 3.28 2.05 4.66 2.05a4.52 4.52 0 001.94-.43 6.53 6.53 0 002.76-2.42l1.26 1.12a10.06 10.06 0 01-2.78 2.58 6.43 6.43 0 01-3.2.85 7.43 7.43 0 01-2.31-.4 12.19 12.19 0 01-3.37-2c-1.91-1.47-2.88-1.9-4.36-1.9a4.86 4.86 0 00-2.5.65 8.65 8.65 0 00-2 1.75zm28.13-9.72a11.31 11.31 0 002 .13H378a13.4 13.4 0 002-.13c-.14 1.53-.22 2.8-.22 4.15v12.15a15.89 15.89 0 00.2 2.82h-2.31a15.68 15.68 0 00.2-2.82V73.17h-1.27a15.63 15.63 0 00-2.11.15zm27.6 1.82a9.7 9.7 0 00-1.8 2.4 32.87 32.87 0 00-4.14 8.65 33.68 33.68 0 00-1.29 6.25h-2.3a33.57 33.57 0 012.93-10 40.92 40.92 0 014.36-7.25H392a19 19 0 00-2.75.17V71.3a17.89 17.89 0 002.77.18h7.27a20.52 20.52 0 002.82-.13zm6.91 6.3h-2.41V77H409zm-2.41 11V88H409v2.47zm8.83-1.4a6.23 6.23 0 01-1.45-2.3 17.63 17.63 0 01-.92-5.77 15.12 15.12 0 011.4-6.8 6.39 6.39 0 019.87-1.3 6.27 6.27 0 011.46 2.3 17.82 17.82 0 01.92 5.8c0 3-.63 5.7-1.7 7.22a5.87 5.87 0 01-5.14 2.63 6 6 0 01-4.44-1.78zm1.41-14.95a5.08 5.08 0 00-1.09 1.88 15.88 15.88 0 00-.75 5 14.13 14.13 0 001.14 6 4.1 4.1 0 003.76 2.17 4 4 0 003-1.17 5.09 5.09 0 001.11-2 15.93 15.93 0 00.75-5 14.58 14.58 0 00-1.09-5.83 4.08 4.08 0 00-3.81-2.27 3.89 3.89 0 00-3.02 1.22zm15.74 14.95a6.38 6.38 0 01-1.46-2.3 17.9 17.9 0 01-.92-5.77 15 15 0 011.41-6.8 6.39 6.39 0 019.87-1.3 6.24 6.24 0 011.45 2.3 17.55 17.55 0 01.92 5.8c0 3-.63 5.7-1.69 7.22a5.87 5.87 0 01-5.15 2.63 5.94 5.94 0 01-4.43-1.78zM434 74.12a5.08 5.08 0 00-1.11 1.88 15.88 15.88 0 00-.76 5 14.29 14.29 0 001.14 6 4.1 4.1 0 003.73 2.12 4 4 0 003-1.12 4.85 4.85 0 001.14-2 15.93 15.93 0 00.75-5 14.58 14.58 0 00-1.09-5.83 4.07 4.07 0 00-3.8-2.27 3.88 3.88 0 00-3 1.22zm21.24 18.53a16.83 16.83 0 01-3.37-5.38 16.88 16.88 0 010-12.3 16.91 16.91 0 013.37-5.37h2.16a15.88 15.88 0 00-3.69 5.17 16 16 0 000 12.7 15.81 15.81 0 003.69 5.18zm15.38-20a18.22 18.22 0 00-.17-2.62h2a16.24 16.24 0 00-.17 2.62V78h5.65a16.68 16.68 0 002.61-.15v1.85a18.52 18.52 0 00-2.61-.13h-5.65v10h7.46a20.51 20.51 0 002.74-.15v1.9a17.92 17.92 0 00-2.74-.18H463.8a19.58 19.58 0 00-2.88.18V89.4a21.89 21.89 0 002.88.15h6.82v-10h-5.09a18.7 18.7 0 00-2.65.13v-1.81a17.45 17.45 0 002.65.15h5.09zm17.53.95a17.64 17.64 0 00-.12-2.45 19.11 19.11 0 002.59.13h10.92a16.86 16.86 0 002.49-.13 17.38 17.38 0 00-.12 2.3v16a19.24 19.24 0 00.15 2.68h-1.77v-1.61h-12.51v1.63H488a21.25 21.25 0 00.14-2.65zm1.63 6.2h12.51v-7h-12.51zm0 9.2h12.51v-7.68h-12.51zm24.8.72a13.65 13.65 0 00.17 2.6h-1.81a17.7 17.7 0 00.14-2.6v-7.55a22.65 22.65 0 01-3.54 3.15 6.93 6.93 0 00-.82-1.37 20.42 20.42 0 004.36-3.73 17.89 17.89 0 003.06-4.75h-4.44a15.48 15.48 0 00-2 .1V74a12.51 12.51 0 001.92.1h1.45v-2.42a13.17 13.17 0 00-.14-2h1.82a10.65 10.65 0 00-.15 2v2.39h1.14a11 11 0 001.5-.07l.8.9c-.19.35-.19.35-1 2a19.09 19.09 0 01-2.21 3.3 13.71 13.71 0 003.76 3 5.45 5.45 0 00-.77 1.4 19.21 19.21 0 01-3.28-2.77zm6.07-9.47a14.33 14.33 0 00-1.94.1 19 19 0 00.09-2.2v-5a18.79 18.79 0 00-.09-2.07 18.45 18.45 0 002.3.1h6.81a16.79 16.79 0 002.18-.1 17.22 17.22 0 00-.09 2v5.22a16.87 16.87 0 00.09 2 14.37 14.37 0 00-2-.1h-1.28v9.72c.05.25.36.35 1.09.35 1.24 0 1.79-.07 2-.27s.44-1.3.47-4a4.55 4.55 0 001.45.7c-.24 3.62-.36 4.27-1 4.67a5.38 5.38 0 01-2.67.38c-1.38 0-1.89-.08-2.33-.38s-.46-.52-.46-1.17v-10h-2.16a17.22 17.22 0 01-1.11 6.47 9.79 9.79 0 01-2.35 3.7 10.17 10.17 0 01-2.71 1.9 6.93 6.93 0 00-1.17-1.35 8.27 8.27 0 003.42-2.45c1.62-2 2.3-4.25 2.4-8.22zm-.34-1.4h8.09V72.6h-8.09zm16.56-5.25a17.64 17.64 0 00-.12-2.45 19 19 0 002.59.13h10.91a16.93 16.93 0 002.5-.13 15.83 15.83 0 00-.12 2.3v16a21.21 21.21 0 00.14 2.68H551v-1.61h-12.51v1.63h-1.77a19.27 19.27 0 00.15-2.65zm1.62 6.2H551v-7h-12.51zm0 9.2H551v-7.68h-12.51zm20.81-16.52c0-.7 0-1.4-.07-1.9a12.72 12.72 0 001.58.07H564a7.19 7.19 0 001.55-.1l.85.85a2.39 2.39 0 01-.17.4c0 .08-.1.22-.2.43a41.61 41.61 0 01-2.64 5.52A8.56 8.56 0 01565 80.5a9.82 9.82 0 01.49 3.1c0 1.6-.42 2.5-1.29 2.8a5.71 5.71 0 01-1.72.22h-.83a4.3 4.3 0 00-.29-1.5 11.47 11.47 0 001.43.1c.93 0 1.27-.4 1.27-1.53a7.83 7.83 0 00-2.21-5.8 30.16 30.16 0 002.71-5.89h-3.78v17.75c0 1 .05 1.87.12 2.65h-1.74a22.25 22.25 0 00.14-2.68zm9.82 12.17a14.9 14.9 0 01-4.14 6.4 5 5 0 00-1.14-1.15 11.29 11.29 0 002.25-2.38 13.05 13.05 0 001.67-3.47zm.32-6.28a15.3 15.3 0 00-1.87.1V76.9a19.18 19.18 0 01-2 1.42 4.13 4.13 0 00-1-1.35 16.08 16.08 0 006.88-7h1.7a17.45 17.45 0 007.64 7 11.12 11.12 0 00-.92 1.5 21.57 21.57 0 01-7.52-7.07 20 20 0 01-4.8 5.47 13.37 13.37 0 001.89.1h6.09a13.34 13.34 0 001.84-.1v1.57a14.58 14.58 0 00-1.84-.1H573v3.16h4.54a14.64 14.64 0 002.3-.15v1.72a14.82 14.82 0 00-2.3-.15H573v7.3c0 1.45-.58 1.93-2.3 1.93-.56 0-1.4 0-2.13-.1a4.84 4.84 0 00-.49-1.65 17.37 17.37 0 002.48.22c.68 0 .92-.15.92-.57v-7.13h-3.42a14.59 14.59 0 00-2.09.13v-1.68a14.49 14.49 0 002.09.13h3.42v-3.13zm7 5.73a13.91 13.91 0 004 5.65 7 7 0 00-1.16 1.32 19.7 19.7 0 01-4.15-6.37zm20.28-12.32c-.27.22-.46.4-3 2.89a70.92 70.92 0 01-5.57 4.73c-.9.7-1.07.9-1.07 1.25s.19.62 2.16 2.2a72.19 72.19 0 017.76 6.82 5.76 5.76 0 00.68.63l-1.53 1.55a23.52 23.52 0 00-3.15-3.43c-1.62-1.55-2.59-2.37-6.13-5.22-1.36-1.1-1.75-1.65-1.75-2.5a2.47 2.47 0 01.7-1.68 21.27 21.27 0 012.07-1.7c3.22-2.55 6.25-5.47 7.1-6.84zm6.38 20.87a15.6 15.6 0 003.68-5.18 16 16 0 000-12.7 15.68 15.68 0 00-3.68-5.17h2.16a17.09 17.09 0 013.37 5.4 16.88 16.88 0 010 12.3 17 17 0 01-3.37 5.38z" fill="#5fc1c7" data-name="レイヤー 2"/></svg>