<svg xmlns="http://www.w3.org/2000/svg" viewBox="0 0 538.08 136.6"><path d="M12.52 9.3H0V.74h34.72V9.3H22.2v35.34h-9.68zM40.65.74h29.83v8.93H50.33v8.19h19v8.92h-19v8.93h21.26v8.93H40.65zm39.73 0h9.67v35H108v8.93H80.38zM113 39.31a5.76 5.76 0 01.44-2.23 5.37 5.37 0 011.21-1.83 5.42 5.42 0 011.79-1.25 5.9 5.9 0 014.47 0 5.49 5.49 0 013 3 5.81 5.81 0 01-1.21 6.29 5.56 5.56 0 01-1.83 1.21 6 6 0 01-4.47 0 5.42 5.42 0 01-1.82-1.21 5.56 5.56 0 01-1.21-1.83 5.8 5.8 0 01-.37-2.15zm17.56-16.62a45 45 0 01.72-7.93 23.09 23.09 0 012.54-7.32 15.08 15.08 0 015-5.36 16.66 16.66 0 0116.12 0 15.08 15.08 0 015 5.36 23.09 23.09 0 012.54 7.32 44.7 44.7 0 010 15.87 23 23 0 01-2.54 7.31 15.11 15.11 0 01-5 5.37 16.73 16.73 0 01-16.12 0 15.11 15.11 0 01-5-5.37 23 23 0 01-2.54-7.31 45.08 45.08 0 01-.72-7.94zm9.3 0c0 1.16 0 2.54.16 4.16a20.41 20.41 0 00.83 4.65 10 10 0 002.08 3.78 5.73 5.73 0 007.84 0 9.64 9.64 0 002.11-3.78 19.88 19.88 0 00.84-4.65c.1-1.62.16-3 .16-4.16s-.06-2.54-.16-4.15a19.88 19.88 0 00-.84-4.65 9.57 9.57 0 00-2.11-3.78 5.73 5.73 0 00-7.84 0 9.9 9.9 0 00-2.08 3.78 20.41 20.41 0 00-.83 4.65c-.11 1.61-.16 3-.16 4.15zm29.06 12.09L186 19.47a33.24 33.24 0 002.61-2.67 5.09 5.09 0 001.3-3.47 4.21 4.21 0 00-1.61-3.5 5.94 5.94 0 00-3.79-1.27 5.18 5.18 0 00-4.06 1.61 6.48 6.48 0 00-1.64 4l-9.3-.69a15.21 15.21 0 011.43-5.92 12.35 12.35 0 013.28-4.18A13.87 13.87 0 01179 .84a20.43 20.43 0 016-.84 18.11 18.11 0 015.58.84 13 13 0 014.53 2.48 11.21 11.21 0 013 4.12 14.18 14.18 0 011.09 5.77 15.45 15.45 0 01-.44 3.81 12.73 12.73 0 01-1.2 3.1 14.25 14.25 0 01-1.83 2.57 31.19 31.19 0 01-2.3 2.3l-13.35 11.47h19.47v8.18h-30.63zm37.99-22.69a11.53 11.53 0 011.15-5.3A10.71 10.71 0 01211.22 3 13.78 13.78 0 01215.9.74a22.36 22.36 0 0111.41 0A13.46 13.46 0 01232 3a11.15 11.15 0 013.16 3.78 11.29 11.29 0 011.18 5.3 9.8 9.8 0 01-2 6.14 10.51 10.51 0 01-5.49 3.59V22a10.88 10.88 0 016.08 3.81 11 11 0 012.1 6.85 11.78 11.78 0 01-1.27 5.58 11.6 11.6 0 01-3.41 4 15.28 15.28 0 01-4.93 2.39 21.61 21.61 0 01-11.65 0 15.28 15.28 0 01-4.93-2.39 11.6 11.6 0 01-3.41-4 11.78 11.78 0 01-1.27-5.58A10.29 10.29 0 01214.35 22v-.13a10.51 10.51 0 01-5.49-3.59 9.8 9.8 0 01-1.95-6.19zm8.56 19.22a5.26 5.26 0 001.67 3.91 7 7 0 008.93 0 5.22 5.22 0 001.67-3.91 5.29 5.29 0 00-1.67-4 7 7 0 00-8.93 0 5.32 5.32 0 00-1.67 4zm.74-17.92a4.62 4.62 0 001.49 3.47 6 6 0 007.81 0 4.62 4.62 0 001.49-3.47 4.57 4.57 0 00-1.49-3.39 6.08 6.08 0 00-7.81 0 4.57 4.57 0 00-1.49 3.39zm56.47-4.46h-17.43l-.18 6.76a12.27 12.27 0 013.9-.5 18.22 18.22 0 016.14 1 13.63 13.63 0 014.81 2.88 13.23 13.23 0 013.13 4.59 15.79 15.79 0 011.11 6.05 16.37 16.37 0 01-1.27 6.63 14.09 14.09 0 01-3.5 4.93 15.23 15.23 0 01-5.3 3.07 20.5 20.5 0 01-6.67 1.05 15.8 15.8 0 01-9.54-2.79 14.24 14.24 0 01-5.27-8.43l9.73-2.23a6.3 6.3 0 002 3.81 5.81 5.81 0 004 1.46 6.24 6.24 0 004.75-1.86 6.59 6.59 0 001.76-4.71 6.47 6.47 0 00-.9-3.57 6.7 6.7 0 00-2.35-2.23 9.87 9.87 0 00-3.26-1.15 21.76 21.76 0 00-3.59-.31 25.09 25.09 0 00-4.62.44 31.61 31.61 0 00-4.5 1.18l.5-24.25h26.54zm22.11 23.99h-15.25v-7.44h15.25zm22.86 2.92h-19.16V28L316.41.74h10.17V28h5.64v7.82h-5.64v8.8h-8.93zm0-22.94h-.12L307.79 28h9.86zM355 35.84h-19.14V28L353.78.74H364V28h5.64v7.82H364v8.8h-9zm0-22.94h-.12L345.16 28H355zm33.54 20.02h-15.25v-7.44h15.25zm4.26-10.23a45 45 0 01.72-7.93 23.09 23.09 0 012.54-7.32 15.08 15.08 0 015-5.36 16.66 16.66 0 0116.12 0 15.08 15.08 0 015 5.36 23.09 23.09 0 012.54 7.32 44.09 44.09 0 010 15.87 23 23 0 01-2.54 7.31 15.11 15.11 0 01-5 5.37 16.73 16.73 0 01-16.12 0 15.11 15.11 0 01-5-5.37 23 23 0 01-2.54-7.31 45.08 45.08 0 01-.72-7.94zm9.3 0c0 1.16.06 2.54.16 4.16a19.88 19.88 0 00.84 4.65 9.83 9.83 0 002.07 3.78 5.74 5.74 0 007.85 0 9.62 9.62 0 002.1-3.78 19.88 19.88 0 00.84-4.65c.1-1.62.16-3 .16-4.16s-.06-2.54-.16-4.15a19.88 19.88 0 00-.84-4.65 9.55 9.55 0 00-2.1-3.78 5.74 5.74 0 00-7.85 0 9.76 9.76 0 00-2.07 3.78 19.88 19.88 0 00-.84 4.65c-.1 1.61-.16 3-.16 4.15zm43.82-6.26c.5-.12 1-.23 1.49-.31A9.65 9.65 0 01449 16a13.91 13.91 0 015.64 1.11 13.22 13.22 0 014.34 3 13.52 13.52 0 012.79 4.56 15.77 15.77 0 011 5.61 14.55 14.55 0 01-1.27 6.17 14.4 14.4 0 01-3.5 4.78 15.55 15.55 0 01-5.21 3.07 19.68 19.68 0 01-12.86 0 15.61 15.61 0 01-5.18-3.07 14.26 14.26 0 01-3.47-4.74 14.55 14.55 0 01-1.28-6.17 19.85 19.85 0 01.43-4.31 22.36 22.36 0 011.15-3.69 23.43 23.43 0 011.66-3.32c.64-1.05 1.31-2.14 2-3.25l9.61-15h11.34zm7.5 13.57a6.68 6.68 0 00-1.95-5 7.65 7.65 0 00-10.23 0 6.68 6.68 0 00-1.95 5 6.71 6.71 0 001.95 4.93 7.68 7.68 0 0010.23 0 6.71 6.71 0 001.95-4.93zm29.93-18.84l-8.8 7.75-5.27-6.08L483.6.74h8.68v43.9h-8.93zm40.16 24.68h-19.16V28L522.27.74h10.17V28h5.64v7.82h-5.64v8.8h-8.93zm0-22.94h-.12L513.65 28h9.86zM135.08 69.34h7a17.94 17.94 0 00-2.88 5.2 24.86 24.86 0 00-1.2 8.15 24.78 24.78 0 001.19 8.15 18 18 0 002.88 5.21h-7zm24.64 7.42a8 8 0 00-.82.17c-2.22.47-3.53.69-4.8.84v4.84a18.66 18.66 0 015.84-1 8.92 8.92 0 014.8 1.18 5.65 5.65 0 012.8 5 5.59 5.59 0 01-5.54 5.8 4 4 0 01-4.18-3.16 10.3 10.3 0 01-.33-3.17 5.52 5.52 0 001.79-.73 9.38 9.38 0 00-.05 1.09c0 2.92.81 4.12 2.8 4.12a3.67 3.67 0 003.64-4c0-2.74-2.26-4.45-5.82-4.45a18 18 0 00-5.75 1.09v7c0 1.51-.66 2.24-2 2.24a7.07 7.07 0 01-4.48-1.79 3.42 3.42 0 01-1.25-2.63c0-1.23.68-2.44 2.15-3.73a14.43 14.43 0 013.83-2.29v-5.3c-.25 0-.25 0-1.09.08H147v-1.85a14.91 14.91 0 002.77.2c.73 0 1.79 0 2.61-.08v-2.78a18.9 18.9 0 00-.14-2.66h2a16.58 16.58 0 00-.13 2.61v2.68a26.55 26.55 0 005.54-1.2zM152.36 85c-2.69 1.34-4.21 2.85-4.21 4.2a2.14 2.14 0 001.17 1.68 5 5 0 002.41.81c.55 0 .63-.17.63-1.37zm14.91-5.27a22.5 22.5 0 00-5.49-5.48l1.42-1.1a23.39 23.39 0 015.48 5.32zm10.59-7.4a23.94 23.94 0 00-2.69.12v-1.74a21.11 21.11 0 002.77.17h14.13a18 18 0 002.68-.17v1.74a21.1 21.1 0 00-2.6-.12h-6.63V74h8a20 20 0 003-.14 16.44 16.44 0 00-.11 2.13v1.65a10.55 10.55 0 00.16 2.1h-1.76v-4.33h-9.29v3.36a17.25 17.25 0 00.14 2.75h-2a16.89 16.89 0 00.16-2.75v-3.36h-8.77v4.37h-1.76a13.39 13.39 0 00.16-2.1V76a17.38 17.38 0 00-.11-2.13 19.38 19.38 0 003 .14h7.52v-1.68zm-.38 18.43v1.57h-1.82a15.59 15.59 0 00.16-2.39v-5.17a20.59 20.59 0 00-.11-2.5 16.52 16.52 0 002.34.12h13.69a17.84 17.84 0 002.47-.12 21.12 21.12 0 00-.11 2.5v4.08c0 .9 0 1.46.08 2a21.13 21.13 0 00-2.44-.11h-6.27v1.9c0 .67.57.76 4.37.76 3.23 0 4.67-.14 5.13-.54s.46-1.11.49-3.3a7 7 0 001.68.79c0 2.21-.35 3.3-1 3.8s-2.31.76-6.54.76c-5 0-5.76-.22-5.76-1.85v-2.3zm-.9-14a12.27 12.27 0 001.66.08h2.53a11.2 11.2 0 001.57-.08v1.34a8.82 8.82 0 00-1.57-.11h-2.53a9.78 9.78 0 00-1.66.11zm0 2.69a9 9 0 001.66.11h2.53a8.6 8.6 0 001.57-.11v1.37a8.6 8.6 0 00-1.57-.11h-2.53a9.33 9.33 0 00-1.66.11zm.9 4.34v2h6.33v-2zm0 3.33v2.27h6.33v-2.3zm15-1.34v-2h-7v2zm0 3.61v-2.3h-7v2.27zm-5.3-12.69a8 8 0 001.65.11h3a7.72 7.72 0 001.58-.11v1.37a8.72 8.72 0 00-1.58-.11h-3a9.21 9.21 0 00-1.65.11zm0 2.72a8.78 8.78 0 001.65.11h3a8.65 8.65 0 001.58-.11v1.37a8.72 8.72 0 00-1.58-.11h-3a9.21 9.21 0 00-1.65.11zm14.39-4.51a11.63 11.63 0 002.18.14h5.05a10.94 10.94 0 002.17-.14v1.79a12.21 12.21 0 00-2-.11h-5.26a16.46 16.46 0 00-2.18.11zm.93-3.84a10.15 10.15 0 002.09.14h3.77a10.32 10.32 0 002.09-.14v1.77a13.84 13.84 0 00-2.09-.11h-3.77a14.08 14.08 0 00-2.09.11zm.13 7.7a11.75 11.75 0 002 .12h4a11.07 11.07 0 001.93-.12v1.74a14.26 14.26 0 00-1.93-.11h-4a13.58 13.58 0 00-2 .11zm0 3.87a12.46 12.46 0 002 .11h4a11.87 11.87 0 001.93-.11v1.73a13.5 13.5 0 00-1.93-.11h-4a12.88 12.88 0 00-2 .11zm1.88 12.71h-1.77a18 18 0 00.16-2.69v-3.83a14.6 14.6 0 00-.13-2.33 18.82 18.82 0 002.2.11h3.5a11.41 11.41 0 002-.08c0 .59-.08 1.18-.08 2.18v4a15.48 15.48 0 00.14 2.29h-1.69v-1.16h-4.31zm0-3h4.34v-4.28h-4.34zm12.85-18.67a53.6 53.6 0 01-5.33.78 6.35 6.35 0 00-.73-1.62 41.18 41.18 0 009.4-1.63 14.31 14.31 0 003-1.2l1.17 1.59-.87.26c-1 .36-3.83 1.17-5 1.45v5.18h3.58a19.41 19.41 0 002.91-.17v1.91a20.18 20.18 0 00-2.91-.17H219v4.79h3.34a14 14 0 002-.11 19.67 19.67 0 00-.1 2.49v5.2a24.24 24.24 0 00.13 2.75h-1.85v-1.4h-8.42v1.4h-1.84a16.65 16.65 0 00.13-2.72v-5.34a20.47 20.47 0 00-.1-2.35 13.53 13.53 0 001.92.11h3.05v-4.79h-2.88a18 18 0 00-3 .17v-1.91a17.15 17.15 0 003 .17h2.86zm-3.16 18.53h8.42v-5.79h-8.42zm15.51-17.41h1c.38 0 .7 0 1.55-.09 1.52-.11 1.68-.14 5-.33l4.27-.29c3.34-.19 3.69-.22 4.59-.25l1.54-.05a18 18 0 003.24-.31l.16 2.07a11 11 0 00-3 .39 13.34 13.34 0 00-5.22 2.8 8.67 8.67 0 00-3.34 6.47 5.48 5.48 0 003.8 5.18 13.68 13.68 0 004.08.9h.27l-.35 2.26c-.3 0-.36-.08-.85-.16a13.49 13.49 0 01-5.86-2.16 6.83 6.83 0 01-3-5.71c0-3.25 1.85-6.33 5.08-8.6a18 18 0 012.58-1.48 52.8 52.8 0 01-6 .61 89.5 89.5 0 00-9.37.93zm18.17 4.2a21.65 21.65 0 012.8 4.34l-1.39.84a19.42 19.42 0 00-2.77-4.45zm3.12-1.57a22.89 22.89 0 012.8 4.37l-1.36.78a22.23 22.23 0 00-2.77-4.39zm15.51 8.46c-1.57 3.69-3.18 5.37-5.13 5.37-2.58 0-4.51-2.91-4.51-6.83a11.85 11.85 0 012.85-7.73 11.2 11.2 0 018.78-3.7 10.31 10.31 0 017.5 2.75 9.49 9.49 0 012.64 6.83 10.21 10.21 0 01-6.22 9.66 20.73 20.73 0 01-4.13 1.29 4.46 4.46 0 00-.95-1.88 16 16 0 004.54-1.31 8.48 8.48 0 004.8-7.84 7.39 7.39 0 00-4.32-7 7.62 7.62 0 00-3.15-.7 43 43 0 01-2.7 11.09zm-3.34-9.78a9.77 9.77 0 00-4.43 8.35c0 2.69 1.14 4.76 2.61 4.76 1.14 0 2.23-1.32 3.4-4.06a39.57 39.57 0 002.47-10.36 8.45 8.45 0 00-4.05 1.31zm40.23 7.54a9 9 0 00-.93 1A25.12 25.12 0 01297 90a28 28 0 0010.73 3.47 8.63 8.63 0 00-1 1.82c-5-.9-8-2-11.33-4.26a32.09 32.09 0 01-11.05 4.21 7 7 0 00-1-1.77A28.74 28.74 0 00293.92 90a18.31 18.31 0 01-4.87-6 17.62 17.62 0 00-2 .17V82.3a17.36 17.36 0 002.72.17h10.11a12.89 12.89 0 002.39-.14zm-14.35-5.94a24.72 24.72 0 00-1.43-3.71h-2.42a5.15 5.15 0 00-.63-1.65 84.52 84.52 0 0012.72-.81 27.82 27.82 0 007.11-1.62l1.2 1.65a6.12 6.12 0 00-1.09.25 75.25 75.25 0 01-9.29 1.6 27.59 27.59 0 011.44 4.28h3.15a24.06 24.06 0 002.28-5l1.77.64c-.93 2-1.52 3.16-2.2 4.34H304a29.17 29.17 0 003.09-.11 17.27 17.27 0 00-.11 2.13v1.81a8.34 8.34 0 00.14 1.74h-1.85v-3.89h-19.69v4.06h-1.85a14.78 14.78 0 00.14-2v-1.75c0-.73-.06-1.34-.11-2.1a25 25 0 003.34.14zm5.93 0a27.12 27.12 0 00-1.44-4.12c-1.36.12-2.29.2-4.27.28a27 27 0 011.52 3.84zM290.9 84a15.12 15.12 0 004.54 5 21.74 21.74 0 005.38-5zm26.51 8c0 1.29 0 2.36.14 3.34h-2a29.15 29.15 0 00.16-3.39v-9.31c0-1.23 0-2.1.11-3.39a23.39 23.39 0 01-3 4.31l-.19-.31a4.3 4.3 0 00-1-1.23 27.58 27.58 0 005.37-8.54 15.76 15.76 0 001.2-3.58l1.95.64a12.64 12.64 0 00-.68 1.6c-.38 1-1.24 2.91-2.06 4.51zm14.69.34c0 1.85-.57 2.3-3 2.3-1.06 0-2.09-.06-3.29-.17a6.21 6.21 0 00-.51-1.91 20.8 20.8 0 003.72.34c1.11 0 1.36-.14 1.36-.73V78.38h-8.53a20.77 20.77 0 00-2.91.17v-2a19.74 19.74 0 002.83.17h8.61v-3.18a22.33 22.33 0 00-.19-3.28h2.09a27.11 27.11 0 00-.17 3.28v3.22h1.34a16.46 16.46 0 002.58-.17v1.9c-.85-.08-1.72-.11-2.58-.11h-1.35zm-10-11.51a35.83 35.83 0 014.59 6.33l-1.52 1.21a28.61 28.61 0 00-4.49-6.53zm19.37-6.48a24.62 24.62 0 00-.1-2.69 22.07 22.07 0 002.5.09h2a21.14 21.14 0 002.44-.09 21.82 21.82 0 00-.08 2.75v15.34c0 1.34 0 2.07.08 2.69h-1.69V91h-3.55v2.29h-1.77a22.82 22.82 0 00.16-3zm1.61 5.91h3.55v-7h-3.55zm0 9.21h3.55v-7.7h-3.55zM352.56 75a24 24 0 00-2.61.14v-1.83a14.63 14.63 0 002.58.17h2.88v-.9a15.92 15.92 0 00-.16-2.26h2a15 15 0 00-.16 2.26v.9H361a15.09 15.09 0 002.58-.17v1.85A22.72 22.72 0 00361 75h-3.86v3.64h4.81a17.46 17.46 0 002.74-.17v1.88a17.07 17.07 0 00-2.69-.15h-.9v3.28h.9a16.39 16.39 0 002.67-.17v1.93a17.93 17.93 0 00-2.67-.17h-.84v7.84c0 1.8-.6 2.21-3.12 2.21-.44 0-.87 0-2.45-.11a5 5 0 00-.43-1.84 19.77 19.77 0 003.1.33c1 0 1.22-.11 1.22-.73v-7.7h-7.66a20 20 0 00-2.72.17v-1.93a17 17 0 002.74.17h7.64V80.2h-7.64a19.57 19.57 0 00-2.74.17v-1.88a17.73 17.73 0 002.74.17h3.62V75zm2.09 16.83a25.38 25.38 0 00-3.78-4.7l1.33-1a29.33 29.33 0 013.91 4.56zm17.03.36a20.7 20.7 0 00.16 3.13h-2a21.43 21.43 0 00.16-3.13V74.1c0-1.37 0-2.19-.11-3.08a25.53 25.53 0 002.86.11h3.88a24.07 24.07 0 002.77-.11c-.05.78-.08 1.62-.08 2.66v3.47c0 1.12 0 1.9.08 2.6-.73 0-1.66-.08-2.74-.08h-5zm0-17.45h6.08V72.5h-6.08zm0 3.59h6.08v-2.27h-6.08zm14.26 10.61c0 1.06 0 1.82.08 2.54-.76 0-1.66-.08-2.77-.08h-5.95v2h-1.68a19.19 19.19 0 00.13-2.63v-6.26c0-1 0-1.82-.08-2.63a24.69 24.69 0 002.69.11h5a24.45 24.45 0 002.69-.11c-.06.79-.08 1.51-.08 2.63zm-8.64-3h7.09v-2.5h-7.09zm0 4.11h7.09v-2.76h-7.09zm14.56 2.6c0 1.85-.57 2.33-2.77 2.33-.57 0-2-.06-2.72-.11a6.47 6.47 0 00-.49-1.8 28.93 28.93 0 003 .29c1.11 0 1.33-.14 1.33-.82V79.67h-5.57c-1.14 0-2 0-2.74.08.05-.73.08-1.56.08-2.6v-3.47c0-1 0-1.82-.08-2.66a23.73 23.73 0 002.77.11h4.48A25.33 25.33 0 00392 71a27 27 0 00-.13 3.08zm-8.34-17.86h6.68V72.5h-6.68zm0 3.59h6.68v-2.32h-6.68zM397 96.05a18 18 0 002.88-5.21 24.3 24.3 0 001.2-8.15 24.34 24.34 0 00-1.2-8.15 17.94 17.94 0 00-2.88-5.2h7v26.71zM90.08 129.52a4.5 4.5 0 001 1.79 4.34 4.34 0 003.42 1.31 4.65 4.65 0 004.37-2.57 11.48 11.48 0 001.17-3.59 30.57 30.57 0 00.24-3.27 5.65 5.65 0 01-1.08 1.57 7.29 7.29 0 01-9.83.11 7.25 7.25 0 01-1.85-5c0-4.45 2.91-7.36 7.36-7.36a6.81 6.81 0 016.57 4.7 17.2 17.2 0 01.79 5.82c0 3.9-.79 7.06-2.25 8.93a6.58 6.58 0 01-5.65 2.61 6.79 6.79 0 01-4.59-1.57 7.31 7.31 0 01-1.9-2.77zm9.67-9.86a5.09 5.09 0 00-9.4-2.91 6.14 6.14 0 00-.71 2.94c0 3.16 1.88 5.15 4.84 5.15a5.1 5.1 0 005.27-5.18zm10.13 2.19h-2.69v-2.78h2.69zm-2.69 12.32v-2.78h2.69v2.78zm9.91-1.57a7.14 7.14 0 01-1.63-2.58 19.86 19.86 0 01-1-6.47 16.75 16.75 0 011.58-7.61 7.13 7.13 0 0111-1.46 7 7 0 011.63 2.58 19.76 19.76 0 011 6.49c0 3.39-.7 6.39-1.9 8.1a6.6 6.6 0 01-5.76 2.93 6.69 6.69 0 01-4.92-1.98zm1.58-16.75a5.72 5.72 0 00-1.22 2.05 17.81 17.81 0 00-.85 5.65 16 16 0 001.28 6.67 4.6 4.6 0 004.21 2.43 4.43 4.43 0 003.34-1.31 5.67 5.67 0 001.28-2.19 17.81 17.81 0 00.84-5.65 16.43 16.43 0 00-1.22-6.53 4.58 4.58 0 00-4.27-2.54 4.35 4.35 0 00-3.39 1.42zm17.63 16.75a6.88 6.88 0 01-1.63-2.58 19.86 19.86 0 01-1-6.47 16.75 16.75 0 011.58-7.61 7.13 7.13 0 0111.05-1.46 7 7 0 011.63 2.58 19.76 19.76 0 011 6.49c0 3.39-.71 6.39-1.91 8.1a6.57 6.57 0 01-5.75 2.93 6.67 6.67 0 01-4.97-1.98zm1.57-16.75a5.86 5.86 0 00-1.22 2.05 17.81 17.81 0 00-.84 5.65 16 16 0 001.27 6.67 4.61 4.61 0 004.21 2.43 4.43 4.43 0 003.34-1.31 5.55 5.55 0 001.28-2.19 17.81 17.81 0 00.84-5.65 16.26 16.26 0 00-1.22-6.53 4.56 4.56 0 00-4.26-2.54 4.36 4.36 0 00-3.4 1.42zm15.12 7.79c2.41-2.44 4.1-3.31 6.54-3.31a7.08 7.08 0 013.4.82 15.83 15.83 0 012.55 1.68c2.28 1.67 3.67 2.29 5.21 2.29a5.33 5.33 0 002.18-.47 7.34 7.34 0 003.09-2.72l1.42 1.26a11.15 11.15 0 01-3.13 2.88 7.1 7.1 0 01-3.58 1 8.27 8.27 0 01-2.58-.44 13.63 13.63 0 01-3.78-2.27c-2.15-1.65-3.23-2.13-4.89-2.13a5.5 5.5 0 00-2.8.73 9.9 9.9 0 00-2.28 2zm31.46-10.89a13 13 0 002.25.14h1.72a15.28 15.28 0 002.25-.14c-.16 1.7-.24 3.13-.24 4.64V131a18.84 18.84 0 00.21 3.17h-2.58a17.57 17.57 0 00.22-3.17v-16.21h-1.47a16.28 16.28 0 00-2.36.17zm30.91 2.04a10.86 10.86 0 00-2 2.69 37 37 0 00-4.65 9.69 37.53 37.53 0 00-1.43 7h-2.59A37.61 37.61 0 01208 123a46.11 46.11 0 014.89-8.12H204a20.37 20.37 0 00-3.07.2v-2.38a20.7 20.7 0 003.1.2h8.15a23.35 23.35 0 003.15-.14zm7.71 7.06h-2.69v-2.78h2.69zm-2.69 12.32v-2.78h2.69v2.78zm9.92-1.57a6.88 6.88 0 01-1.63-2.58 19.86 19.86 0 01-1-6.47 16.75 16.75 0 011.58-7.61 7.13 7.13 0 0111.05-1.46 6.9 6.9 0 011.63 2.58 19.76 19.76 0 011 6.49c0 3.39-.71 6.39-1.9 8.1a6.6 6.6 0 01-5.76 2.93 6.67 6.67 0 01-4.97-1.98zm1.57-16.75a5.86 5.86 0 00-1.22 2.05 17.81 17.81 0 00-.84 5.65 16 16 0 001.27 6.67 4.61 4.61 0 004.21 2.43 4.43 4.43 0 003.34-1.31 5.55 5.55 0 001.28-2.19 17.81 17.81 0 00.84-5.65 16.26 16.26 0 00-1.22-6.53 4.56 4.56 0 00-4.26-2.54 4.36 4.36 0 00-3.4 1.42zm17.63 16.75a7.14 7.14 0 01-1.63-2.58 19.86 19.86 0 01-1-6.47 16.76 16.76 0 011.57-7.61 7.14 7.14 0 0111.06-1.46 7.16 7.16 0 011.63 2.58 19.76 19.76 0 011 6.49c0 3.39-.71 6.39-1.9 8.1a6.6 6.6 0 01-5.76 2.93 6.69 6.69 0 01-4.97-1.98zm1.57-16.75a5.86 5.86 0 00-1.22 2.05 17.81 17.81 0 00-.84 5.65 15.8 15.8 0 001.28 6.67 4.6 4.6 0 004.21 2.43 4.44 4.44 0 003.34-1.31 5.53 5.53 0 001.27-2.19 17.81 17.81 0 00.85-5.65 16.24 16.24 0 00-1.23-6.53 4.55 4.55 0 00-4.26-2.54 4.37 4.37 0 00-3.4 1.42zm23.82 20.75a19.1 19.1 0 01-3.77-6 18.88 18.88 0 010-13.77 19 19 0 013.77-6h2.42a17.76 17.76 0 00-4.13 5.79 18.07 18.07 0 000 14.23 17.76 17.76 0 004.13 5.79zm17.22-22.4a19.72 19.72 0 00-.19-2.94h2.23a19 19 0 00-.19 2.94v6h6.33a17.78 17.78 0 002.93-.17v2a19.74 19.74 0 00-2.93-.14H294v11.17h8.37a23.19 23.19 0 003.06-.17v2.13a20.88 20.88 0 00-3.06-.2h-17.88a22.74 22.74 0 00-3.23.2V133a24.87 24.87 0 003.23.17h7.63V122h-5.7a19.8 19.8 0 00-3 .14v-2a18.44 18.44 0 003 .17h5.7zm19.64 1.07a20 20 0 00-.14-2.75 21.9 21.9 0 002.91.14h12.22a19.46 19.46 0 002.8-.14 17.88 17.88 0 00-.14 2.58V133a21.69 21.69 0 00.17 3h-2v-1.82h-14V136h-2a22 22 0 00.16-3zm1.82 6.94h14v-7.84h-14zm0 10.3h14v-8.59h-14zm27.79.82a14.85 14.85 0 00.19 2.91h-2a18.6 18.6 0 00.16-2.91v-8.46a26.21 26.21 0 01-4 3.53 7.63 7.63 0 00-.93-1.54 22.66 22.66 0 004.89-4.17 20.08 20.08 0 003.42-5.32h-5a15.29 15.29 0 00-2.2.11v-1.79a15.31 15.31 0 002.15.11h1.63v-2.69a15 15 0 00-.17-2.24h2a12.27 12.27 0 00-.16 2.24v2.69h1.28a11.54 11.54 0 001.68-.09l.9 1c-.22.39-.22.39-1.12 2.21a21.25 21.25 0 01-2.47 3.7 15.45 15.45 0 004.21 3.3 6.08 6.08 0 00-.87 1.57 21 21 0 01-3.66-3.11zm6.79-10.62a16.08 16.08 0 00-2.18.12 20.79 20.79 0 00.11-2.47v-5.63a20.52 20.52 0 00-.11-2.32 22.87 22.87 0 002.58.11h7.64a20.9 20.9 0 002.44-.11 18.7 18.7 0 00-.11 2.3v5.85a18.39 18.39 0 00.11 2.27 16.1 16.1 0 00-2.2-.12H355v10.89c.05.28.4.4 1.22.4 1.38 0 2-.09 2.2-.31.35-.39.49-1.46.51-4.48a4.89 4.89 0 001.64.78c-.28 4.06-.41 4.79-1.17 5.24a6.08 6.08 0 01-3 .42c-1.55 0-2.12-.09-2.61-.42s-.51-.59-.51-1.32v-11.2h-2.38a19.59 19.59 0 01-1.22 7.2 11.12 11.12 0 01-2.64 4.14 11.5 11.5 0 01-3 2.13 7.61 7.61 0 00-1.3-1.51 9.27 9.27 0 003.83-2.75c1.82-2.18 2.58-4.75 2.68-9.21zm-.38-1.56h9.07v-7h-9.07zm18.55-5.88a20 20 0 00-.14-2.75 21.9 21.9 0 002.91.14h12.22a19.46 19.46 0 002.8-.14 17.88 17.88 0 00-.14 2.58V133a21.93 21.93 0 00.16 3h-2v-1.82h-14V136h-2a21.83 21.83 0 00.17-3zm1.81 6.94h14v-7.84h-14zm0 10.3h14v-8.59h-14zM391.45 114c0-.78 0-1.56-.08-2.12a15.26 15.26 0 001.76.08h3.59a8.77 8.77 0 001.74-.11l1 1a3.53 3.53 0 01-.19.45 5.18 5.18 0 00-.22.48 46.08 46.08 0 01-3 6.18 9.51 9.51 0 011.74 3.08 11.3 11.3 0 01.54 3.47c0 1.8-.46 2.81-1.44 3.14a6.28 6.28 0 01-1.93.25h-.92a5.07 5.07 0 00-.33-1.68 12.54 12.54 0 001.61.11c1 0 1.41-.45 1.41-1.71a8.8 8.8 0 00-2.47-6.5 34.2 34.2 0 003.09-6.55h-4.23v19.85c0 1.09.05 2.1.13 3h-1.95a24.92 24.92 0 00.16-3zm11 13.64c-1.44 3.59-2.34 5-4.65 7.17a5.77 5.77 0 00-1.27-1.29 12.44 12.44 0 002.52-2.66 15 15 0 001.88-3.89zm.35-7a15 15 0 00-2.09.12V119a23.3 23.3 0 01-2.25 1.6 4.91 4.91 0 00-1.09-1.52 18 18 0 007.71-7.81H407a19.49 19.49 0 008.56 7.84 16.35 16.35 0 00-1 1.68 24.11 24.11 0 01-8.42-7.92 22.24 22.24 0 01-5.38 6.13 14.84 14.84 0 002.12.11h6.82a14.64 14.64 0 002.06-.11v1.77a14.29 14.29 0 00-2.06-.12h-2.83v3.5h5.08a15.48 15.48 0 002.58-.17v1.94a16.83 16.83 0 00-2.58-.17h-5.08v8.17c0 1.63-.65 2.16-2.58 2.16-.62 0-1.57 0-2.39-.11a5.61 5.61 0 00-.54-1.85 19.24 19.24 0 002.77.25c.76 0 1-.16 1-.64v-8h-3.83a17.69 17.69 0 00-2.33.14V124a16.21 16.21 0 002.33.14h3.83v-3.5zm7.8 6.41a15.44 15.44 0 004.51 6.33 7.83 7.83 0 00-1.31 1.49 21.94 21.94 0 01-4.64-7.14zm22.76-13.83c-.3.25-.52.45-3.34 3.25a80.89 80.89 0 01-6.25 5.29c-1 .78-1.2 1-1.2 1.4s.22.7 2.42 2.46a80.88 80.88 0 018.69 7.65 6.91 6.91 0 00.76.7l-1.71 1.74a25.77 25.77 0 00-3.5-3.84c-1.82-1.74-2.91-2.66-6.87-5.85-1.52-1.23-2-1.85-2-2.8a2.73 2.73 0 01.79-1.88 20.75 20.75 0 012.31-1.9c3.61-2.86 7-6.13 8-7.67zm7.14 23.38a17.6 17.6 0 000-25.81h2.42a18.63 18.63 0 013.77 6 18.75 18.75 0 010 13.77 18.74 18.74 0 01-3.77 6z" fill="#5fc1c7" data-name="レイヤー 2"/></svg>