<svg xmlns="http://www.w3.org/2000/svg" viewBox="0 0 799.11 65.93"><g data-name="レイヤー 2"><g data-name="レイヤー 1"><path d="M426 36.8v14.31a21.86 21.86 0 01-.68 5.47 11.49 11.49 0 01-2.62 4.79 12.78 12.78 0 01-4.36 3.19 14.87 14.87 0 01-5.22 1.31 1.74 1.74 0 01-.45.06h-.46a16.12 16.12 0 01-5.67-1 14.07 14.07 0 01-4.88-3.05 10.41 10.41 0 01-3.16-5.1 24 24 0 01-.71-6v-14a21.68 21.68 0 01.68-5.38 11.25 11.25 0 012.57-4.76 12.71 12.71 0 014.36-3.2 16.13 16.13 0 015.21-1.36 3.85 3.85 0 01.66-.06h1.11a16.38 16.38 0 015.27 1.11 13 13 0 014.48 2.94 11.32 11.32 0 013.09 4.93 20.52 20.52 0 01.82 5.82zm-20.63.12v14.36a4.91 4.91 0 00.06.74 11.22 11.22 0 00.34 2.28 4.84 4.84 0 001.08 2.05 6.58 6.58 0 004.22 2.17 1.1 1.1 0 00.37.06h.37a7 7 0 002.85-.6 5.94 5.94 0 002.34-1.74 5.8 5.8 0 001.23-2.62 16.49 16.49 0 00.25-2.91V36.63a7.79 7.79 0 00-1.71-5.07 5.93 5.93 0 00-4.9-2.11h-.4a6.92 6.92 0 00-2.54.74 7 7 0 00-2.08 1.6 6 6 0 00-1.16 2.48 13 13 0 00-.26 2.7zm28.48 20.8l14.54-13.51a30.78 30.78 0 003.53-3.79 7.56 7.56 0 001.6-4.81 6.06 6.06 0 00-1.69-4.42 6.45 6.45 0 00-9.23.43 7.75 7.75 0 00-1.6 5.07v.68h-7.58v-1.59a13.32 13.32 0 014-9.66A13 13 0 01447 22a13.81 13.81 0 0110 4 13.29 13.29 0 014.08 10 13 13 0 01-.89 4.81 17 17 0 01-2.4 4.19l-5.3 5.53-8 7.18h16.61v7.19h-27.25zm40.93-16.24a11.91 11.91 0 01-.94-.94c-.29-.33-.54-.64-.77-.94a8.46 8.46 0 01-1.31-2.6 11.17 11.17 0 01-.4-3.25 12 12 0 013.1-8.29 10.37 10.37 0 018.07-3.46 10.83 10.83 0 018.12 3.39 11.33 11.33 0 013.28 8.18 11.26 11.26 0 01-.8 4.36 10.15 10.15 0 01-2.62 3.56 10.37 10.37 0 014.62 4.51 13.67 13.67 0 011.48 6.41 12.75 12.75 0 01-4.19 9.59 14.29 14.29 0 01-19.81-.06 13.52 13.52 0 01-4.05-10v-.57a2.12 2.12 0 01.06-.52 13.08 13.08 0 011.88-5.58 8.84 8.84 0 014.28-3.71zm3.27 6a6.36 6.36 0 00-1.9 4.73 6 6 0 001.9 4.47 6.5 6.5 0 009.1 0 6.11 6.11 0 001.88-4.5 6.47 6.47 0 00-1.88-4.75 6.21 6.21 0 00-4.56-1.89 6.46 6.46 0 00-4.54 1.98zm1.52-16.82a4.3 4.3 0 00-1.37 3.08 4.49 4.49 0 001.37 3.14 4.27 4.27 0 003.13 1.31 4.21 4.21 0 003.11-1.31 4.36 4.36 0 001.28-3.14 4.35 4.35 0 00-4.39-4.39 4.6 4.6 0 00-3.13 1.35zm48.16-.66h-13.4L513 37.71c.57-.22 1.17-.43 1.8-.62a10.47 10.47 0 011.91-.4l.77-.09h.77a12.13 12.13 0 019.75 4.45 15.36 15.36 0 013.77 10.17 14.32 14.32 0 01-4.25 10.38 13.86 13.86 0 01-10.29 4.33 14.24 14.24 0 01-9.83-4 13.16 13.16 0 01-4.59-9.49l7.58-.06a7.38 7.38 0 002.14 4.36 6 6 0 004.42 1.8 6.88 6.88 0 005.21-2.14 7.25 7.25 0 002-5.33 6.63 6.63 0 00-2.08-5A7 7 0 00517 44a6.45 6.45 0 00-3.07.75 7.42 7.42 0 00-2.46 2.05l-6.78-1.94 4-22.06h19zm13.96 13.41h15.79v6.73h-15.79zm42.53-20.63h6.38v28.67h4.45v7.18h-4.45v6.27H583v-6.27h-18.16v-6.21zM583 35.61l-10.07 15.84H583zm36.56-12.83h6.38v28.67h4.45v7.18h-4.45v6.27h-7.58v-6.27h-18.18v-6.21zm-1.2 12.83l-10.09 15.84h10.09zm21.37 7.8h15.79v6.73h-15.79zm53.07-6.61v14.31a21.86 21.86 0 01-.68 5.47 11.49 11.49 0 01-2.62 4.79 12.72 12.72 0 01-4.37 3.19 14.81 14.81 0 01-5.21 1.31 1.82 1.82 0 01-.46.06H679a16.12 16.12 0 01-5.67-1 14.07 14.07 0 01-4.88-3.05 10.41 10.41 0 01-3.16-5.1 24 24 0 01-.71-6v-14a21.22 21.22 0 01.68-5.38 11.34 11.34 0 012.56-4.76 12.75 12.75 0 014.37-3.2 16.07 16.07 0 015.21-1.36 3.85 3.85 0 01.66-.06h1.11a16.38 16.38 0 015.27 1.11 12.93 12.93 0 014.47 2.94A11.23 11.23 0 01692 31a20.52 20.52 0 01.83 5.82zm-20.63.12v14.36a6.57 6.57 0 00.05.74 12 12 0 00.35 2.28 4.84 4.84 0 001.08 2.05 6.58 6.58 0 004.22 2.17 1.06 1.06 0 00.37.06h.37a7 7 0 002.85-.6 5.94 5.94 0 002.28-1.74 5.78 5.78 0 001.26-2.62 16.49 16.49 0 00.26-2.91V36.63a7.79 7.79 0 00-1.71-5.07 5.93 5.93 0 00-4.9-2.11h-.4a7.12 7.12 0 00-4.62 2.34 5.93 5.93 0 00-1.17 2.48 13.76 13.76 0 00-.25 2.7zm51.3-14.14l-9.41 14.31 2.11-.17a11.37 11.37 0 014.76 1.14 13.32 13.32 0 014 2.9 12.87 12.87 0 012.82 4.54 16.23 16.23 0 01.89 5.5 14.81 14.81 0 01-4.16 10.51 13.67 13.67 0 01-10.38 4.42 13.83 13.83 0 01-10.52-4.39 14.93 14.93 0 01-4.13-10.6 16.17 16.17 0 01.83-5.19 19 19 0 012.25-4.56l12-18.41zM709 46a6.93 6.93 0 00-2 5.07 7.73 7.73 0 001.94 5.24 6.41 6.41 0 005.06 2.27 6.64 6.64 0 005-2.12 7 7 0 002-5 7.58 7.58 0 00-2-5.26 6.52 6.52 0 00-5-2.23 6.86 6.86 0 00-5 2.03zm38.58-16h-5.3v-7.22h12.88V64.9h-7.58zm40.7-7.22h6.38v28.67h4.45v7.18h-4.45v6.27h-7.58v-6.27H768.9v-6.21zm-1.2 12.83L777 51.45h10.09zM363 45.68c2.92 3.69 5.33 8 6.12 8.83s1.45.22 1.56-.76a9.52 9.52 0 012.07-4.28c1.22-1.59 2.24-1.08 3.25-.41s6.29 4.36 7.18 5.15c2.24 1.89-.34 4.25-1.86 5.45s-8.71 4.7-10.6 4c-2.6-.94-10.31-8.82-13.79-13.21s-9.4-13.68-9.72-16.43c-.21-2 4.83-8.2 6.35-9.41s4.4-3.18 5.73-.56c.57 1.05 3 7 3.39 8.17s.67 2.24-1.14 3.07a9.87 9.87 0 01-4.65 1c-1-.12-1.77.38-1.1 1.34S360 42 363 45.68z" fill="#5fc1c7"/><path d="M354.35 11.22a4.45 4.45 0 01-.12 1.27 1.27 1.27 0 01-1.34.87 4.5 4.5 0 01-2.75-1.06 2.25 2.25 0 01-.8-1.7 3.23 3.23 0 011.25-2.22 8 8 0 012.13-1.27V4.8h-2.54a2 2 0 00-.31 0V3.12a8.72 8.72 0 001.77.14 5 5 0 00.51 0h.58v-1a10.82 10.82 0 00-.13-1.72h1.82a9.65 9.65 0 00-.09 1.63v1a15.37 15.37 0 002.81-.57l.06 1.69c-.26 0-.54.08-1.54.26-.48.09-.77.14-1.33.2v2a9.83 9.83 0 013-.42c2.43 0 4.17 1.53 4.17 3.66a3.29 3.29 0 01-3.31 3.42 2.36 2.36 0 01-2.39-1.67 5.15 5.15 0 01-.24-1.92 5.79 5.79 0 001.61-.66 5.24 5.24 0 000 .66 2.88 2.88 0 00.21 1.32 1 1 0 00.91.51 1.52 1.52 0 001.41-1.75c0-1.29-1-2.13-2.57-2.13a9.08 9.08 0 00-2.8.49zM352.7 8.8c-1.09.6-1.73 1.26-1.73 1.8a.83.83 0 00.48.69 1.73 1.73 0 00.93.33c.25 0 .32-.13.32-.63zm8.07-3a12.76 12.76 0 00-2.91-3.23l1.36-.95a12.63 12.63 0 012.89 3.08zm8.72-2.91a13.68 13.68 0 01-2.17 2.61 6.28 6.28 0 00-1.13-1.17A10.72 10.72 0 00368.82 1a2.73 2.73 0 00.32-.95l1.75.27-.51 1.05h6.71a10.77 10.77 0 001.82-.11V3a12.74 12.74 0 00-1.82-.1zm4.88 10.8a33.4 33.4 0 00-2.53-2.31 17.23 17.23 0 01-4.21 2.7 5.84 5.84 0 00-1.09-1.41 15.9 15.9 0 004-2.28A27.57 27.57 0 00368 8.68l1.06-1c1.06.63 1.54.94 2.58 1.66a5.41 5.41 0 001.26-1.92l1.56.77a9.13 9.13 0 00-.63.84 11.48 11.48 0 01-.94 1.24c.89.72 1.61 1.34 2.53 2.18zm-5.65-6.43a11.76 11.76 0 00-1.67.09V5.77a6.83 6.83 0 001.25.08h7.39a15.78 15.78 0 001.71-.06 10.24 10.24 0 00-.08 1.36 15.25 15.25 0 00.41 3.86 2 2 0 00.51 1 4.94 4.94 0 00.35-2.22 4.45 4.45 0 001.25.9c-.23 2.35-.68 3.31-1.57 3.31-.65 0-1.4-.78-1.8-1.92a14 14 0 01-.67-4.84zm.35-3.69a9 9 0 001.09.06h6.1a11 11 0 001.55-.08V5a10.53 10.53 0 00-1.55 0h-5.81a12.93 12.93 0 00-1.38.06zm18.86 9.07a9.23 9.23 0 00.09 1.44h-1.58a10.44 10.44 0 00.09-1.51v-.78h-1.15a6.59 6.59 0 00-1.37.09v-1.52a8.21 8.21 0 001.37.08h1.15v-.89h-2.12V3.88a13.8 13.8 0 001.48.05h.64V3h-1.08a13.37 13.37 0 00-1.36 0V1.56a7 7 0 001.36.09h1.08a6.9 6.9 0 00-.09-1.43H388a6.31 6.31 0 00-.09 1.43h.62a7.11 7.11 0 001.37-.09V3a12 12 0 00-1.37 0h-.62v.94h.8a10.41 10.41 0 001.32-.05v2.37a10.17 10.17 0 002.56-1.33 9 9 0 01-1.67-2.57 6.41 6.41 0 00-.64 0V.81a9 9 0 001.47.09H395a5.68 5.68 0 001-.07l.87.94c-.12.19-.2.31-.36.58a11.29 11.29 0 01-1.9 2.58 8.78 8.78 0 002.89 1.25 4.94 4.94 0 00-.82 1.42 11.16 11.16 0 01-3.11-1.69 12.63 12.63 0 01-2.89 1.72A3.42 3.42 0 00390 6.5v3.1h-2.12v.89h1.22a7.8 7.8 0 001.17-.06v1.5a5.77 5.77 0 00-1.23-.09h-1.16zm-2.23-7.47v1h.87v-1zm0 2.06v1.06h.87V7.23zm3.1-1.1v-1h-.92v1zm0 2.16V7.23h-.92v1.06zm6.81.38a6.53 6.53 0 001.27-.08v1.59a8.13 8.13 0 00-1.29-.07h-1.36v2h1.63a13.65 13.65 0 001.46-.07v1.63a8.46 8.46 0 00-1.46-.09h-4.74a8.77 8.77 0 00-1.49.09v-1.61a9.05 9.05 0 001.4.07h1.69v-2h-.93a8.79 8.79 0 00-1.36.07V8.59a8.2 8.2 0 001.38.08h.91v-.38a8.7 8.7 0 00-.08-1.44h1.66a10.12 10.12 0 00-.07 1.44v.38zm-3.24-6.33a6.55 6.55 0 001.22 1.72 5.23 5.23 0 001.25-1.72zm10.3 10.98c0-.27 0-.36-.08-.71a27.62 27.62 0 01-.38-4.48 29.83 29.83 0 01.6-5.87A10.2 10.2 0 00403 .87l1.92.21a21.47 21.47 0 00-.92 4.48 26.13 26.13 0 00-.21 3.32v.83a15.91 15.91 0 01.75-2l1.17.54a12.63 12.63 0 00-1.3 4.55 3.44 3.44 0 000 .4zm6.2-5.93a3.45 3.45 0 00-1 2.16c0 .86.8 1.31 2.32 1.31a9.9 9.9 0 003.46-.57l.15 1.9a5.89 5.89 0 00-.6.09 16.93 16.93 0 01-3 .29c-1.81 0-3-.42-3.61-1.31a2.53 2.53 0 01-.44-1.47 5 5 0 011.34-3.08zm-2.41-5a10.26 10.26 0 002.7.24 15.15 15.15 0 004-.41l.09 1.82-1 .13a25.29 25.29 0 01-3.11.18 17.22 17.22 0 01-2.62-.16zm16.94 8.83a5 5 0 01-.11 1.27 1.29 1.29 0 01-1.34.87 4.5 4.5 0 01-2.76-1.06 2.25 2.25 0 01-.8-1.7 3.25 3.25 0 011.26-2.22 7.78 7.78 0 012.12-1.27V4.8h-2.55a2 2 0 00-.31 0V3.15a8.61 8.61 0 001.76.14 4.79 4.79 0 00.51 0h.58v-1a9.73 9.73 0 00-.09-1.72h1.82a9.88 9.88 0 00-.08 1.63v1a15.55 15.55 0 002.81-.57l.05 1.69-1.54.26c-.48.09-.77.14-1.32.2v2a9.79 9.79 0 013-.42c2.43 0 4.16 1.53 4.16 3.66a3.28 3.28 0 01-3.3 3.42 2.36 2.36 0 01-2.39-1.67 5.11 5.11 0 01-.25-1.92 6 6 0 001.62-.66 5.24 5.24 0 000 .66 3 3 0 00.2 1.32 1 1 0 00.92.51 1.52 1.52 0 001.47-1.66c0-1.29-1-2.13-2.58-2.13a9 9 0 00-2.79.49zm-1.64-2.42c-1.09.6-1.74 1.26-1.74 1.8a.83.83 0 00.48.69 1.76 1.76 0 00.94.33c.24 0 .32-.13.32-.63zm8.06-3a12.76 12.76 0 00-2.91-3.23l1.37-.95a12.58 12.58 0 012.88 3.08zm7.66 6.38a12.78 12.78 0 00.09 1.84h-1.7a13.41 13.41 0 00.09-1.86V2.34c0-.8 0-1.22-.06-1.7a11.68 11.68 0 001.48.07H440a10.49 10.49 0 001.48-.07v5.24h-3.96zm0-9.47H440v-.78h-2.49zm0 2H440v-.8h-2.49zm7.37 5.93v1a10.16 10.16 0 00-1 0h-3.25v1h-1.54a12.23 12.23 0 00.07-1.45V6.92h5.79v1zm-4.24-.39h2.77v-2h-2.77zm7.52 2c0 .82-.13 1.21-.51 1.45a2.91 2.91 0 01-1.53.24c-.24 0-.4 0-1.36-.06a5.44 5.44 0 00-.4-1.59 15.4 15.4 0 001.79.14c.4 0 .48-.06.48-.39V5.83h-4.14V.64a11.27 11.27 0 001.48.07h2.77a12 12 0 001.5-.07 13.51 13.51 0 00-.07 1.69zm-4.2-9.47h2.67v-.85h-2.67zm0 2h2.67v-.8h-2.67zm11.58-2.95a18.69 18.69 0 00-.11 2.28 29 29 0 00.27 4c.25 1.56.72 2.52 1.18 2.52.22 0 .42-.23.6-.65a11.3 11.3 0 00.77-2.71 7.12 7.12 0 001.46 1.36c-.76 2.93-1.6 4.14-2.84 4.14-1 0-1.76-.73-2.35-2.17s-.86-3.68-.91-7.83a9.29 9.29 0 00-.06-1zm6.89.67a15.22 15.22 0 013.27 8.07l-1.8.71a15.75 15.75 0 00-.93-4.34 13.64 13.64 0 00-2.07-3.69zm10.4 2.72a15 15 0 01-2.33 1.26 5.81 5.81 0 00-.85-1.48 14.53 14.53 0 003.72-2.16 10.76 10.76 0 002.28-2.5h1.73a9.66 9.66 0 002.45 2.53 13.69 13.69 0 003.71 2.06 8.06 8.06 0 00-.8 1.64 14.93 14.93 0 01-2.37-1.31v1a11.41 11.41 0 00-1.34-.07h-5a11.77 11.77 0 00-1.25.06zM471.62 14a12 12 0 00.09-1.59v-3.5a12.37 12.37 0 00-.08-1.49 8.18 8.18 0 001.25.06h7.28a8.55 8.55 0 001.27-.06 10.36 10.36 0 00-.07 1.49v3.51a10 10 0 00.08 1.57h-1.73v-.76h-6.36V14zm1.73-2.23h6.36V8.94h-6.36zM479 4.63h.5a13.44 13.44 0 01-3-2.92 10.26 10.26 0 01-2.85 2.92H479zm8.38 4.67c.33-.24.9-.75 2.63-2.4 0-.92 0-.93.06-2.16a18.9 18.9 0 00-2.21.22l-.11-1.69h.48c.27 0 1.07 0 1.88-.1 0-.4.05-.59.05-1.13v-.75a3.29 3.29 0 00-.06-.66h1.9a6.6 6.6 0 00-.15 1.44v.98A.77.77 0 00492 3l.56.61a5.64 5.64 0 00-.83 1c0 .64-.05 1-.06 1a3 3 0 01.35-.29 6.62 6.62 0 014.19-1.65 4 4 0 012.84 1.24A4.43 4.43 0 01500.2 8a4.65 4.65 0 01-2.32 4.25 5.71 5.71 0 01-2.59.57 7.47 7.47 0 01-2.17-.33 5.78 5.78 0 00-.27-1.95 6.48 6.48 0 002.59.55 2.9 2.9 0 003-3.1 2.37 2.37 0 00-2.49-2.61c-1.21 0-2.63.76-4.24 2.26v1.53c0 2.14 0 3.82.12 4.48h-1.9a14.35 14.35 0 00.09-2.4V9.92A7.61 7.61 0 01490 9a4.28 4.28 0 01-.64.7 9.62 9.62 0 00-1.14 1.3zm29 3.6l-.66.07c-1.06.12-3 .23-3.94.23-2.72 0-3.9-.54-4.34-2a15.53 15.53 0 01-.26-4.1V5.65a19.53 19.53 0 00-2.69.27l-.12-1.76a4.2 4.2 0 00.43 0c.13 0 .93 0 2.37-.14v-.46a15 15 0 00-.1-2.55h2a20.13 20.13 0 00-.16 2.99l4.21-.21a16.3 16.3 0 00-.09-3h1.82a7 7 0 00-.07 1v1.92a27.84 27.84 0 002.82-.14v1.78a5.5 5.5 0 00-.83 0h-2a10 10 0 01-.38 3.17 1.78 1.78 0 01-1.78 1.13 4.67 4.67 0 01-2.08-.51v-.6a7.43 7.43 0 00-.11-1.23 4.49 4.49 0 001.91.73c.38 0 .54-.19.63-.77a14.92 14.92 0 00.13-1.88c-2.21.09-2.21.09-4.24.21v1.59c0 .78 0 2.41.07 2.71.12 1.26.74 1.58 3.12 1.58a11.46 11.46 0 004.2-.57zm7.47-10.32a19 19 0 00-2 .09V.92c.56 0 1.18.08 2 .08H533c.75 0 1.36 0 2-.08v1.75a19.37 19.37 0 00-2-.09h-4.11v1.75a38 38 0 015.23 2.76l-.83 1.5a29 29 0 00-4.4-2.59v5.86A15.94 15.94 0 00529 14h-1.9a15.84 15.84 0 00.1-2.07V2.58zm16.15.76a8.5 8.5 0 001.42.08c1.09 0 3-.13 3.93-.25-.25-.67-.88-2.25-1-2.38l1.88-.25a13.25 13.25 0 00.8 2.4 21.8 21.8 0 003.57-.89l.2 1.79c-.38.06-.54.11-1 .21-.22.06-.94.21-2.14.45.52 1 .85 1.63 1 1.9a28 28 0 001.54 2.37l-1.69.8a2.46 2.46 0 00-1-.65 7.28 7.28 0 00-2.3-.34c-2 0-3.14.61-3.14 1.68s1.07 1.51 3.05 1.51a9.89 9.89 0 004.38-1l.24 1.92a14.66 14.66 0 01-4.62.81 5.89 5.89 0 01-4-1.14 2.82 2.82 0 01-.86-2 3 3 0 011-2.23A5.46 5.46 0 01545 7a6.62 6.62 0 012.52.45 16.47 16.47 0 01-1.58-2.73 49.12 49.12 0 01-5.16.36h-.64zm18.12-1.51a18.31 18.31 0 00-.12 2.28 28.88 28.88 0 00.28 4c.25 1.56.71 2.52 1.18 2.52.22 0 .42-.23.59-.65a11.3 11.3 0 00.78-2.71 7.05 7.05 0 001.45 1.36c-.76 2.93-1.6 4.14-2.84 4.14-1 0-1.76-.73-2.34-2.17s-.86-3.68-.92-7.83a5.76 5.76 0 00-.06-1zm6.88.67a15.15 15.15 0 013.28 8.07l-1.81.71a15.39 15.39 0 00-.93-4.34 13.35 13.35 0 00-2.06-3.69zM5.25 42.88c-.43-1.46-.56-2.35-1-6.41A15.18 15.18 0 003.7 33a19.27 19.27 0 014.19.36c.49.13.72.36.72.73a2.79 2.79 0 01-.09.56 7 7 0 00-.33 2.24 23.8 23.8 0 00.69 5.41c.2.63.39.86.76.86.79 0 3.69-1.52 5.28-2.74.43-.33.49-.36.66-.36s.59.23 1.09.86a7.69 7.69 0 011.48 2.8c0 .37-.23.6-.79.76a55 55 0 00-7.69 3c-4 2-5.84 3.8-5.84 5.84s1.68 2.84 5.94 2.84a46.44 46.44 0 007.76-.72 2.13 2.13 0 01.42-.07.6.6 0 01.57.4 23.73 23.73 0 01.33 3.13.66.66 0 01-.57.76 62.85 62.85 0 01-7.22.4c-4.23 0-7-.56-8.78-1.75A5.36 5.36 0 010 53.64a7.22 7.22 0 011.32-4.19C2.48 47.73 3.73 46.64 6.5 45a3.79 3.79 0 01-1.25-2.12zm22.31-1.42c-1.78 0-1.84 0-2-.4a11.35 11.35 0 01-.56-3.17 33.59 33.59 0 004 .2c1 0 2.25 0 3.6-.13a24.29 24.29 0 00.33-3.89 17.24 17.24 0 00-.1-1.75A19.08 19.08 0 0137 33c.27.1.37.19.37.46a1.49 1.49 0 01-.23.72 8.84 8.84 0 00-.63 2.25c-.1.63-.13.76-.2 1.19a33.21 33.21 0 007.3-1.62 2 2 0 01.52-.1c.23 0 .33.16.47.82a22.84 22.84 0 01.29 2.41c0 .4-.13.46-1.12.69A81.69 81.69 0 0135.62 41 26.69 26.69 0 0133 48.46a13.6 13.6 0 014.42-2.58 12 12 0 014.29-.76A7.72 7.72 0 0147.3 47a6.59 6.59 0 011.82 4.65c0 2.44-1.16 4.42-3.63 6.07a19.16 19.16 0 01-7.83 2.71c-.52.06-1 .13-1.25.13a1 1 0 01-1-.56 9.39 9.39 0 00-2-2.71 24.92 24.92 0 007.79-1.42c2.51-.89 4-2.41 4-4.16a3.31 3.31 0 00-3.6-3.59c-3.74.04-7.9 2.35-10.6 5.88a.85.85 0 01-.59.36c-.6 0-2.88-2.08-2.88-2.61 0-.16 0-.23.37-.66a27 27 0 004.1-9.8c-.57.04-4.07.17-4.44.17zM64.43 40a50.63 50.63 0 01-7.55.82c-.53 0-.76-.1-.83-.4a15.59 15.59 0 01-.33-2.7 44.12 44.12 0 007.66-.63c-.17-.49-.33-.92-.43-1.19a13.92 13.92 0 00-1.09-2.67 19 19 0 013.89-.46c.3 0 .47.2.47.53v.46a11.64 11.64 0 00.46 2.67 30.37 30.37 0 005.77-1.81 1.45 1.45 0 01.43-.14c.17 0 .27.17.56.86a10.79 10.79 0 01.6 1.78c0 .17-.1.27-.3.37a40.6 40.6 0 01-6.14 1.85A24.45 24.45 0 0068.76 42a22.79 22.79 0 003.36-1.12l3.11-1.55s.06-.07.1-.07h.13c.13 0 .23.2.56.83a10.13 10.13 0 01.72 1.91c0 .23 0 .23-.69.59a24.22 24.22 0 01-5.61 2.21 22.75 22.75 0 004.32 4.86c1.13.82 1.16.85 1.16 1.18a6.57 6.57 0 01-1 2.08c-.56 1-.82 1.23-1.19 1.23-.19 0-.23 0-.72-.37-1.69-1.29-5.09-2.18-8.35-2.18-2.84 0-4.62 1-4.62 2.64 0 1 .79 1.85 2.21 2.38a26.3 26.3 0 007.19.76c.73 0 1.36 0 2.64-.1a8.09 8.09 0 00-1.28 2.84c-.2.69-.43.82-1.46.82a27.75 27.75 0 01-8.78-1.15c-2.8-1-4.29-2.84-4.29-5.31 0-3.54 2.91-5.68 7.73-5.68a15.66 15.66 0 017 1.27 20.89 20.89 0 01-3.8-4.49c-1.58.33-2.37.47-3.43.63-1.88.26-5.31.53-6.7.53-1.06 0-1.09 0-1.39-3.14h1.62a52.68 52.68 0 008.35-.89c-.36-.63-.85-1.78-1.22-2.71zm13.34-5.85a4.91 4.91 0 011 1.72c0 .23-.13.36-.76.83s-.89.66-1 .66-.2 0-.76-1a16.44 16.44 0 00-2-2.77c-.13-.13-.16-.2-.16-.26 0-.27 1.25-1.19 1.62-1.19s.87.54 2.06 2.02zm2.18.66a14.42 14.42 0 00-2.35-3.23c-.13-.13-.16-.2-.16-.26 0-.3 1.15-1.13 1.58-1.13s1 .56 1.88 1.75a6.73 6.73 0 011.19 1.88c0 .2-.13.37-.56.66a2.9 2.9 0 01-1.22.66c-.13.01-.23-.05-.31-.32zm14.54 3.74c.36-1 .4-1.09.66-2h-.33a18.5 18.5 0 00-2.41.14v-2.82a17.33 17.33 0 002.51.13h.89a20 20 0 00.43-2.41l3.27.36a10.68 10.68 0 00-.33 1.16c-.1.43-.14.56-.2.89h2.44a23.17 23.17 0 002.54-.1c-.06.66-.1 1.32-.1 2.21v2.44a8.77 8.77 0 001.85-.13v2H111a13.89 13.89 0 002.38-.13v3.37a11.55 11.55 0 00-2.38-.17v13.9c0 1.61-.17 2.17-.86 2.67s-1.45.63-3.37.63c-.49 0-1 0-2.14-.07a9.55 9.55 0 00-.63-3.3 20.49 20.49 0 002.94.3c.66 0 .79-.14.79-.66V43.57h-.92a7.75 7.75 0 00-1.62.13v-2.44a10.06 10.06 0 00-1.48-.07H92.08c-.23.36-.23.36-.89 1.45-.33.59-.89 1.39-1.42 2.14V57.2a24.07 24.07 0 00.17 3.6h-3.57a22.15 22.15 0 00.2-3.7v-6c0-1 0-1.22.06-3a11.86 11.86 0 01-2 2 14.41 14.41 0 00-1.28-3.46A18.18 18.18 0 0089.47 39l1.82 1.15v-1.73a14.59 14.59 0 002.47.13zm-2.48-5a4.1 4.1 0 00-.52.66 29.36 29.36 0 01-6.34 6.27 12.71 12.71 0 00-1.55-3 16.43 16.43 0 005.51-5.88zm3.11 14.92c-1.22 0-1.88 0-2.64.06a19.73 19.73 0 00.06-2.14V44a12.28 12.28 0 00-.06-1.65c.43 0 1 .07 1.81.07h7.63a25.53 25.53 0 002.6-.07 19.44 19.44 0 00-.1 2.11v1.95a18.71 18.71 0 00.1 2.14c-.46 0-1.38-.06-2.64-.06h-.79v1.25h1.09a25.07 25.07 0 002.94-.13v2.81c-.93-.07-1.45-.1-2.94-.1h-1.09v1.78h1.62a27.06 27.06 0 003-.13v2.93c-.66-.06-1.48-.13-2.34-.13h-2.31V58a18 18 0 00.2 2.87h-3.54a14.68 14.68 0 00.2-2.87v-1.23h-4a19.59 19.59 0 00-3 .17V54c.79.07 1 .07 2.14.1v-1.78l-1.52.1v-2.81a26.85 26.85 0 002.94.13h3.43v-1.25zm.62-2.21h5.52v-1.67h-5.52zm.17 7.82h2v-1.76h-2zM101 38.55v-2h-2.75c-.29 1-.46 1.49-.63 2zm11.82-1.84a15.21 15.21 0 00-2.28-.14h-3.64a6.5 6.5 0 00-1.49.14v-3.34a14.28 14.28 0 002.28.13h2.84a13.51 13.51 0 002.28-.13zm10.45 4.48a28.07 28.07 0 01-4.33 6.64 9.18 9.18 0 00-2.57-2.68 22.93 22.93 0 005.35-9.27 14.83 14.83 0 00.69-2.94l3.63.89a4.6 4.6 0 01-.3.83c-.06.2-.09.23-.33 1.06-.13.42-.26.85-.82 2.37h5.15v-2.41a31.3 31.3 0 00-.2-3.83h4a27.24 27.24 0 00-.2 3.8v2.44H140a38.94 38.94 0 004.26-.2v3.5c-1.35-.13-2.71-.2-4.19-.2h-6.7V47h5.48a29.89 29.89 0 003.92-.2v3.5a34.35 34.35 0 00-3.89-.2h-5.51v6.74H141a33.8 33.8 0 004.39-.23v3.63a33.67 33.67 0 00-4.29-.23h-19.42a37.25 37.25 0 00-4.48.23v-3.63a36.31 36.31 0 004.39.23h8.15V50.1h-4.89a32.5 32.5 0 00-3.83.2v-3.46a29.82 29.82 0 003.8.16h4.92v-5.81zm28.31-4.88a15.51 15.51 0 00-2.31.13v-3.33a21.61 21.61 0 002.78.16h3.1a20.67 20.67 0 002.77-.16v3.36a9.93 9.93 0 00-2-.16h-.36v6.24a10.3 10.3 0 001.85-.13v3.16a17.66 17.66 0 00-1.85-.1v5.91c1-.39 1.48-.59 3-1.29v3.27c-2.84 1.32-4.79 2.15-7.37 3.11a11.51 11.51 0 00-1.71.69l-.79-3.67a14 14 0 003.53-.92v-7.1h-.36a13.74 13.74 0 00-2.18.14v-3.2a15.24 15.24 0 002.24.13h.3v-6.24zm25.88 16.6a7.49 7.49 0 00-.89.76 28.31 28.31 0 01-2.34 1.82A17.14 17.14 0 00179 57.4a21.59 21.59 0 00-1.71 3.2 22.75 22.75 0 01-5.45-2.9 13.23 13.23 0 01-3.17-3.17c.07 1.09.1 1.52.1 2.37v1.75a13.28 13.28 0 00.17 2.58h-3.67a14.8 14.8 0 00.17-2.71v-1.75c0-.53 0-1.48.1-2.21-2 2.38-4 3.76-8.12 5.81a10.1 10.1 0 00-2.12-2.87c4.13-1.42 6.94-3.17 9.15-5.75h-2.54a24.88 24.88 0 00-2.51.1 15.19 15.19 0 00.1-2v-2.62a17.38 17.38 0 00-.1-2c.72.07 1.55.1 2.67.1h11.53c1.29 0 2.18 0 2.84-.1a16.08 16.08 0 00-.1 2V50a13.21 13.21 0 00.1 1.88 5.56 5.56 0 00-1.06-.06zM158.12 41a20.58 20.58 0 003.07.17h14a20.4 20.4 0 003-.17v3.21a19.67 19.67 0 00-3-.17h-14.03a19.36 19.36 0 00-3 .17zm.66-6.17a18.2 18.2 0 00-.1-2.28 18.05 18.05 0 002.51.14h13.56a23 23 0 002.58-.14 17.68 17.68 0 00-.13 2.25v3a21.36 21.36 0 00.1 2.21c-.66 0-1.32-.06-2.48-.06h-13.63c-1.12 0-1.72 0-2.48.06 0-.49.07-1 .07-2.24zm5.28.43h-2.31v2.34h2.31zm-1.32 14.06H173V47.7h-10.3zm6.4-14.06h-2.34v2.34h2.34zm.47 16.53a11.07 11.07 0 002.21 2.15 13 13 0 002.47-2.15h-4.68zm4.65-16.53h-2.41v2.34h2.41zm10.97.42a25.18 25.18 0 00-.2-3.53h3.7a19.82 19.82 0 00-.2 3.57v4.22c1.19 0 1.45 0 2.18-.1v3.27a19.26 19.26 0 00-2.18-.1v7.79c.76-.33 1.22-.53 2.8-1.26l.1 3.4c-2.08 1-4 1.82-7.62 3.27-.53.23-1 .43-1.45.66l-.7-3.7a19.62 19.62 0 003.57-1.05V43h-.69a21.34 21.34 0 00-2.51.16v-3.4a19.79 19.79 0 002.54.17h.66zm9.9 17.79c-1 0-1.32 0-2.74.1a18.46 18.46 0 00.1-2.34v-5.68a24.3 24.3 0 00-.1-2.51c.83.07 1.52.1 3 .1h11c1.45 0 2.08 0 3-.1a17.6 17.6 0 00-.13 2.51V51a18.41 18.41 0 00.13 2.54 26.47 26.47 0 00-2.67-.1h-2.45v3.66c0 .66.17.73 1.85.73 1.39 0 1.82-.1 2-.43a10.24 10.24 0 00.27-3.1 10.35 10.35 0 003.1 1.09c-.3 4.81-.92 5.41-5.61 5.41a9.85 9.85 0 01-3.8-.46c-.82-.33-1.05-.83-1.05-2.05v-4.82h-2.21a7.38 7.38 0 01-2 4.66c-1.51 1.58-3.3 2.4-7.09 3.26a9.78 9.78 0 00-1.78-3c5.31-.66 7.29-1.91 7.75-4.92zm11.72-19.14a31.34 31.34 0 003.43-.17v2.91c-1-.07-1.58-.1-3.23-.1-.43 1.06-.6 1.42-1 2.21h1.81a25.05 25.05 0 003.2-.13v3.1a30.63 30.63 0 00-3.33-.13h-13.42a22.91 22.91 0 00-2.91.1v-3c1 .07 1.52.1 2.84.1h1.25a14 14 0 00-.82-2.21 25.59 25.59 0 00-2.77.1v-2.95a24 24 0 003.4.17h3.79v-.69a8.38 8.38 0 00-.16-1.89h3.73a7.81 7.81 0 00-.17 1.85v.73zM195.72 47h10.2v-1.28h-10.2zm0 3.79h10.2v-1.44h-10.2zm7-11.58a18.13 18.13 0 00.92-2.21H198c.33.76.6 1.48.86 2.21zm25.28.53a16 16 0 00-2.31.13V37.4a28.2 28.2 0 01-2.57 5.28c2.27 3 2.9 4.49 2.9 7.13s-1.65 4-4.95 4a4.85 4.85 0 01-.59 0 6.92 6.92 0 00-.7-3.17 9.06 9.06 0 001.52.13c1 0 1.39-.46 1.39-1.55a8 8 0 00-.7-3 12.09 12.09 0 00-2.07-3.34 26.31 26.31 0 002.77-7.06h-3.53v21.55a33.17 33.17 0 00.16 3.59h-3.66a28.41 28.41 0 00.2-3.63V35.65a26.63 26.63 0 00-.14-3c.6.06 1.39.1 2.51.1h4.89a10.62 10.62 0 002-.14l1.52 2.18a3 3 0 00-.16.43 1.34 1.34 0 00-.14.26c-.16.4-.19.5-.36 1 .79.07 1.59.1 2.58.1h3.76V34.4a13.05 13.05 0 00-.2-2.48h3.76a13.47 13.47 0 00-.16 2.48v2.14h4.78a23.21 23.21 0 003.47-.16v3.53a22 22 0 00-3.4-.17h-7.53a35.39 35.39 0 01-.13 3.57h6.34a21.91 21.91 0 002.87-.14 14.57 14.57 0 00-.13 2.45c-.13 3.26-.4 7.49-.66 9.44-.53 4.42-1.68 5.51-5.65 5.51-.89 0-1.25 0-3.59-.2a11 11 0 00-.7-3.43 29.86 29.86 0 004.23.36c1.42 0 1.78-.23 2.08-1.42a50.11 50.11 0 00.82-9.5h-5.9a22.59 22.59 0 01-3 9.14 18.54 18.54 0 01-5.21 5.54 9.91 9.91 0 00-2.68-2.8 14.33 14.33 0 006.41-7.66c1.05-2.94 1.42-5.45 1.48-10.86zm30.25-1.19c.36-1 .39-1.09.66-2h-.33a18.29 18.29 0 00-2.41.14v-2.82a17.1 17.1 0 002.5.13h.9a18.34 18.34 0 00.42-2.41l3.27.36c-.13.43-.2.6-.33 1.16s-.13.56-.2.89h2.45a23.29 23.29 0 002.54-.1 20.2 20.2 0 00-.1 2.21v2.44a8.83 8.83 0 001.85-.13v2h5.19a13.81 13.81 0 002.38-.13v3.37a11.49 11.49 0 00-2.38-.17v13.9c0 1.61-.16 2.17-.85 2.67s-1.46.63-3.37.63c-.49 0-1 0-2.15-.07a9.32 9.32 0 00-.62-3.3 20.35 20.35 0 002.94.3c.66 0 .79-.14.79-.66V43.57h-.93a7.71 7.71 0 00-1.61.13v-2.44a10.2 10.2 0 00-1.49-.07h-11.58c-.24.36-.24.36-.9 1.45-.33.59-.89 1.39-1.41 2.14V57.2a25.84 25.84 0 00.16 3.6h-3.56a23.48 23.48 0 00.19-3.7v-6c0-1 0-1.22.07-3a12.25 12.25 0 01-2 2 14.44 14.44 0 00-1.29-3.46 18.13 18.13 0 006.18-7.64l1.77 1.1v-1.68a14.73 14.73 0 002.48.13zm-2.48-5a4.71 4.71 0 00-.53.66 29.33 29.33 0 01-6.33 6.27 12.71 12.71 0 00-1.56-3 16.47 16.47 0 005.52-5.88zm3.1 14.92c-1.22 0-1.88 0-2.64.06a16.93 16.93 0 00.07-2.14V44a10.54 10.54 0 00-.07-1.65c.43 0 1 .07 1.82.07h7.62a25.64 25.64 0 002.61-.07 17.17 17.17 0 00-.1 2.11v1.95a16.64 16.64 0 00.1 2.14c-.46 0-1.39-.06-2.64-.06h-.79v1.25h1.09a24.88 24.88 0 002.93-.13v2.81c-.92-.07-1.45-.1-2.93-.1h-1.09v1.78h1.61a27.25 27.25 0 003-.13v2.93c-.66-.06-1.49-.13-2.34-.13h-2.31V58a18.1 18.1 0 00.19 2.9h-3.56a14.68 14.68 0 00.2-2.87v-1.26h-4a19.59 19.59 0 00-3 .17V54c.79.07 1 .07 2.15.1v-1.78l-1.52.1v-2.81a26.85 26.85 0 002.94.13h3.43v-1.25zm.63-2.21h5.5v-1.67h-5.5zm.16 7.82h2v-1.76h-2zm5.09-15.55v-2H262c-.3 1-.46 1.49-.63 2zm11.81-1.84a15.07 15.07 0 00-2.27-.14h-3.63a6.45 6.45 0 00-1.49.14v-3.32a14.2 14.2 0 002.28.13h2.84a13.38 13.38 0 002.27-.13zm23.34 2.62a18.75 18.75 0 01-1.78 1.85 18.92 18.92 0 012.31 4.13 26.38 26.38 0 012.08 9.93c0 2.41-.56 4.09-1.55 4.82-.66.46-1.69.66-3.6.66a13 13 0 01-2.18-.17 9.18 9.18 0 00-.66-3.3 20.17 20.17 0 003.33.37c.66 0 .89-.07 1.06-.27a6.06 6.06 0 00.4-2.64 17.94 17.94 0 00-.14-2.24 31.19 31.19 0 01-3.76 3.07 38.55 38.55 0 01-5.71 3.36 10.88 10.88 0 00-2.08-2.67 34.72 34.72 0 0011-7 17.76 17.76 0 00-.62-1.91 28.83 28.83 0 01-6.11 4 10.23 10.23 0 00-1.32-2.67c.06.63.1.92.1 1.19a4 4 0 01-1.26 3.33c-.69.5-1.61.69-3.46.69h-.56a7.11 7.11 0 00-.6-3.23 8.44 8.44 0 001.39.16c1.06 0 1.32-.23 1.32-1.28a10.19 10.19 0 00-.59-3.2 10.72 10.72 0 00-2.15-3.37 36.45 36.45 0 002.87-7.13h-3.23v21.38a31 31 0 00.16 3.83H281a34 34 0 00.2-3.93V35.55a29.3 29.3 0 00-.13-2.94 16.54 16.54 0 002.25.1H288a10.89 10.89 0 002.11-.13l1.26 1.85a7.51 7.51 0 00-.63 1.68 18 18 0 002.38.13h1.62a20.87 20.87 0 00-2.35-3.73l3.37-.89a30.8 30.8 0 012.57 4.62h2.44a22.35 22.35 0 002.23-4.62l3.4.86a31.46 31.46 0 01-2.11 3.76h2.34a16.48 16.48 0 003-.16v3.4a29.54 29.54 0 00-3.13-.17h-2.81a31.66 31.66 0 001 4.86 12.23 12.23 0 002.05-3l2.99 1.83-.72.92a23.07 23.07 0 01-3.24 3.6c1.56 3.56 2.58 5.18 4.63 7.19a12.17 12.17 0 00-1.72 3.86 21.11 21.11 0 01-3.93-5.57 45.32 45.32 0 01-4.36-13.67zm-9.31-2.84a48.61 48.61 0 01-2.67 6 12.73 12.73 0 012.61 5.91 26 26 0 006.27-3.67c-.43-.72-.5-.82-1.06-1.65a30.25 30.25 0 01-4.88 2.87 10.51 10.51 0 00-1.42-2.77 18.12 18.12 0 006.33-3.83h-2.47a23.87 23.87 0 00-2.71.13z" fill="#6c8485"/></g></g></svg>