<svg xmlns="http://www.w3.org/2000/svg" viewBox="0 0 533.92 151.37"><g data-name="レイヤー 2"><g data-name="レイヤー 1"><path d="M93.18 117v16.91a25.41 25.41 0 01-.81 6.46 13.52 13.52 0 01-3.1 5.66 15.19 15.19 0 01-5.15 3.77 17.75 17.75 0 01-6.12 1.5 2.5 2.5 0 01-.54.07h-.54a19.37 19.37 0 01-6.7-1.18 16.8 16.8 0 01-5.76-3.61 12.26 12.26 0 01-3.73-6 28.29 28.29 0 01-.85-7V117a25.32 25.32 0 01.81-6.36 13.37 13.37 0 013-5.62 14.93 14.93 0 015.15-3.77A18.8 18.8 0 0175 99.58a5.12 5.12 0 01.77-.07h1.31a19 19 0 016.23 1.32 15.36 15.36 0 015.29 3.46 13.43 13.43 0 013.6 5.86 24.12 24.12 0 011 6.87zm-24.38.14v17a5.45 5.45 0 00.07.87 14 14 0 00.4 2.7 5.79 5.79 0 001.28 2.42 7.34 7.34 0 002.26 1.75 7.42 7.42 0 002.72.81 1.27 1.27 0 00.44.07h.44a8.35 8.35 0 003.37-.71 7 7 0 002.69-2.05 6.85 6.85 0 001.45-3.1 19.56 19.56 0 00.3-3.44v-16.71a9.19 9.19 0 00-2-6 7 7 0 00-5.79-2.49h-.47a8.13 8.13 0 00-3 .87 8.58 8.58 0 00-2.48 1.87 7.07 7.07 0 00-1.38 3 16.48 16.48 0 00-.3 3.2zm33.6 24.53l17.17-16a37.55 37.55 0 004.18-4.48 8.89 8.89 0 001.89-5.69 7.22 7.22 0 00-2-5.22 7.63 7.63 0 00-10.91.51 9.21 9.21 0 00-1.92 6v.81l-9-.07v-1.82a15.73 15.73 0 014.72-11.41A15.34 15.34 0 01118 99.51a16.31 16.31 0 0111.82 4.68 15.71 15.71 0 014.81 11.75 15.54 15.54 0 01-1 5.69 20.44 20.44 0 01-2.86 5l-6.27 6.53-9.49 8.49h19.66v8.48H102.4zm48.35-19.19a14.53 14.53 0 01-1.11-1.11c-.33-.39-.64-.76-.91-1.12a10.13 10.13 0 01-1.55-3 13.5 13.5 0 01-.47-3.84 14.14 14.14 0 013.67-9.79 12.24 12.24 0 019.53-4.08 12.82 12.82 0 019.6 4 13.4 13.4 0 013.87 9.66 13.21 13.21 0 01-.94 5.15 11.85 11.85 0 01-3.1 4.21 12.16 12.16 0 015.45 5.22 16 16 0 011.76 7.58 15.05 15.05 0 01-5 11.35 16.87 16.87 0 01-23.4-.07 16 16 0 01-4.79-11.82v-.67a2.77 2.77 0 01.07-.61 15.59 15.59 0 012.22-6.6 10.45 10.45 0 015.05-4.38zm3.88 7.13a7.52 7.52 0 00-2.26 5.59 7.08 7.08 0 002.26 5.29 7.67 7.67 0 0010.74 0 7.18 7.18 0 002.22-5.31 7.62 7.62 0 00-2.22-5.61 7.32 7.32 0 00-5.39-2.24 7.62 7.62 0 00-5.35 2.28zm1.78-19.86a5.1 5.1 0 00-1.62 3.63 5.34 5.34 0 001.62 3.71 5.06 5.06 0 003.7 1.55 5 5 0 003.67-1.55 5.12 5.12 0 001.52-3.71 5.16 5.16 0 00-5.19-5.18 5.44 5.44 0 00-3.7 1.55zm56.9-.88h-15.82l-1.55 9.13c.67-.27 1.38-.51 2.12-.74a13.34 13.34 0 012.26-.47c.31 0 .61-.08.91-.1s.59 0 .9 0a14.36 14.36 0 0111.52 5.31 18.18 18.18 0 014.44 12 16.91 16.91 0 01-5 12.26 16.42 16.42 0 01-12.16 5.12 16.8 16.8 0 01-11.61-4.68 15.55 15.55 0 01-5.43-11.22l9-.06a8.71 8.71 0 002.53 5.15 7.1 7.1 0 005.22 2.12 8.1 8.1 0 006.16-2.53 8.54 8.54 0 002.32-6.29 7.78 7.78 0 00-2.46-5.93 8.2 8.2 0 00-6-2.49 7.78 7.78 0 00-3.63.87 8.89 8.89 0 00-2.9 2.43l-8-2.29 4.71-26.06h22.49zm16.5 15.9h18.66v7.94h-18.66zm50.24-24.38h7.54v33.87h5.25v8.49h-5.25v7.4h-9v-7.4h-21.44v-7.34zm-1.42 15.15l-11.92 18.72h11.92zm43.17-15.15h7.54v33.87h5.25v8.49h-5.25v7.4h-8.95v-7.4H298.9v-7.34zm-1.41 15.15l-11.92 18.72h11.92zm25.25 9.23h18.65v7.94h-18.65zm62.69-7.77v16.91a25.87 25.87 0 01-.8 6.46 13.63 13.63 0 01-3.1 5.66 15.29 15.29 0 01-5.15 3.77 17.8 17.8 0 01-6.17 1.55 2.49 2.49 0 01-.53.07H392a19.32 19.32 0 01-6.7-1.18 16.61 16.61 0 01-5.76-3.61 12.28 12.28 0 01-3.74-6 28.77 28.77 0 01-.84-7V117a25.32 25.32 0 01.81-6.36 13.37 13.37 0 013-5.62 14.84 14.84 0 015.23-3.82 18.81 18.81 0 016.16-1.62 5.38 5.38 0 01.78-.07h1.31a19 19 0 016.23 1.32 15.32 15.32 0 015.28 3.46 13.45 13.45 0 013.61 5.86 24.12 24.12 0 011 6.87zm-24.37.14v17a6.82 6.82 0 00.06.87 14 14 0 00.41 2.7 5.68 5.68 0 001.28 2.42 7.3 7.3 0 002.29 1.67 7.53 7.53 0 002.73.81 1.27 1.27 0 00.44.07h.44a8.31 8.31 0 003.36-.71 6.94 6.94 0 002.7-2.05 6.83 6.83 0 001.44-3.1 18.65 18.65 0 00.31-3.44v-16.63a9.25 9.25 0 00-2-6 7 7 0 00-5.79-2.49h-.48a8.08 8.08 0 00-3 .87 8.32 8.32 0 00-2.46 1.89 7.07 7.07 0 00-1.38 2.93 16.48 16.48 0 00-.3 3.2zm60.6-16.75l-11.11 16.9 2.49-.2a13.4 13.4 0 015.63 1.35 15.63 15.63 0 014.68 3.43 15.36 15.36 0 013.33 5.35 19.19 19.19 0 011 6.5 17.53 17.53 0 01-4.91 12.43 17.23 17.23 0 01-24.68 0 17.6 17.6 0 01-4.89-12.53 19 19 0 011-6.12 22.36 22.36 0 012.66-5.39L434 100.39zm-17.07 27.47a8.24 8.24 0 00-2.39 6 9.09 9.09 0 002.29 6.19 7.57 7.57 0 006 2.63 7.84 7.84 0 005.9-2.5 8.33 8.33 0 002.39-6 9 9 0 00-2.39-6.22 7.72 7.72 0 00-6-2.64 8.16 8.16 0 00-5.8 2.54zm45.56-18.99h-6.26v-8.48H482v49.76h-8.95zm48.08-8.48h7.54v33.87h5.25v8.49h-5.25v7.4h-9v-7.4h-21.44v-7.34zm-1.42 15.15l-11.91 18.72h11.91zM18.66 127.45c3.45 4.35 6.3 9.39 7.23 10.42s1.71.26 1.85-.89a11.29 11.29 0 012.44-5.06c1.44-1.88 2.65-1.27 3.84-.49s7.43 5.16 8.48 6.09c2.65 2.23-.4 5-2.2 6.44s-10.3 5.55-12.52 4.77c-3.07-1.1-12.18-10.41-16.29-15.6S.39 117 0 113.72c-.26-2.36 5.71-9.69 7.5-11.12s5.2-3.76 6.76-.66c.68 1.23 3.53 8.25 4 9.64s.8 2.65-1.35 3.63a11.57 11.57 0 01-5.49 1.23c-1.15-.14-2.09.45-1.29 1.59s5.08 5.06 8.53 9.42z" fill="#5fc1c7"/><path d="M116.63 82.26a6.64 6.64 0 01-.17 1.87 1.87 1.87 0 01-2 1.28 6.58 6.58 0 01-4-1.56 3.26 3.26 0 01-1.17-2.49 4.72 4.72 0 011.83-3.25 11 11 0 013.12-1.87v-3.39h-3.74a4.43 4.43 0 00-.45 0v-2.46a13 13 0 002.58.19h1.61v-1.45a16.21 16.21 0 00-.13-2.53h2.67a13.49 13.49 0 00-.13 2.4v1.4a22.75 22.75 0 004.12-.83l.08 2.46-2.26.4c-.7.13-1.13.2-1.94.28v2.87A14 14 0 01121 75c3.57 0 6.11 2.24 6.11 5.37a4.81 4.81 0 01-4.85 5 3.44 3.44 0 01-3.5-2.44 7.49 7.49 0 01-.36-2.81 9.14 9.14 0 002.37-1 8.37 8.37 0 000 1A4.42 4.42 0 00121 82a1.48 1.48 0 001.35.75 2.23 2.23 0 002.16-2.44c0-1.89-1.5-3.13-3.78-3.13a13.41 13.41 0 00-4.1.73zm-2.41-3.54c-1.6.88-2.54 1.85-2.54 2.64a1.19 1.19 0 00.7 1 2.52 2.52 0 001.37.49c.36 0 .47-.2.47-.93zM126 74.28a18.4 18.4 0 00-4.27-4.76l2-1.38a18.22 18.22 0 014.27 4.51zm12.84-4.23a20.1 20.1 0 01-3.18 3.83 8.44 8.44 0 00-1.66-1.71 16 16 0 003.86-5 4 4 0 00.47-1.38l2.56.39c-.19.38-.19.38-.74 1.54H150a17 17 0 002.67-.15v2.59a23.44 23.44 0 00-2.67-.13zM146 85.89c-1.29-1.27-2.25-2.17-3.72-3.38a26.15 26.15 0 01-6.17 4 8.58 8.58 0 00-1.6-2.07 23.45 23.45 0 005.91-3.35 36 36 0 00-3.71-2.5l1.56-1.48c1.56.93 2.26 1.39 3.78 2.44a8 8 0 001.85-2.81l2.29 1.12a14.46 14.46 0 00-.92 1.23 17.18 17.18 0 01-1.39 1.83c1.3 1.05 2.37 2 3.72 3.19zm-8.29-9.43a17.15 17.15 0 00-2.45.13v-2.31a10 10 0 001.83.11h10.85a20.36 20.36 0 002.5-.09 14.72 14.72 0 00-.11 2 22.07 22.07 0 00.6 5.66 2.85 2.85 0 00.74 1.49 7.47 7.47 0 00.52-3.25 6.56 6.56 0 001.81 1.32c-.34 3.45-1 4.86-2.3 4.86-1 0-2.05-1.15-2.65-2.82a20.89 20.89 0 01-1-7.1zm.51-5.42a12.05 12.05 0 001.61.09h8.94A16.57 16.57 0 00151 71v2.2a15.12 15.12 0 00-2.26-.11h-8.52a16.46 16.46 0 00-2 .09zm27.66 13.31a13.51 13.51 0 00.13 2.12h-2.31a15.28 15.28 0 00.13-2.23V83.1h-1.68a10.19 10.19 0 00-2 .13V81a11.92 11.92 0 002 .11h1.68v-1.3h-.94c-.94 0-1.43 0-2.17.07.06-.75.08-1.48.08-2.53v-3.47c0-1.08 0-1.67-.08-2.38.59 0 1.08.07 2.17.07h.94v-1.39h-1.58a18.75 18.75 0 00-2 .09v-2.18a9.67 9.67 0 002 .14h1.58a10.49 10.49 0 00-.13-2.09h2.3a9.63 9.63 0 00-.13 2.09h.92a9.9 9.9 0 002-.14v2.18a16.74 16.74 0 00-2-.09h-.92v1.39h1.18a17.44 17.44 0 001.95-.07c0 .58-.07 1-.07 2.25V75a14.89 14.89 0 003.76-2 13.44 13.44 0 01-2.45-3.76 6.59 6.59 0 00-.94.07V67a12.71 12.71 0 002.15.14h4.74a7.59 7.59 0 001.58-.11l1.28 1.38c-.17.29-.3.46-.53.86a17 17 0 01-2.78 3.73 12.51 12.51 0 004.26 1.87 7 7 0 00-1.22 2.13 16.43 16.43 0 01-4.57-2.49A18.77 18.77 0 01170 77a5.32 5.32 0 00-1-1.68v2.12c0 1.07 0 1.82.07 2.44a18.77 18.77 0 00-2-.07h-1.13v1.3h1.79a9.92 9.92 0 001.71-.09v2.2a8.78 8.78 0 00-1.79-.13h-1.71zm-3.26-10.95v1.4h1.28v-1.4zm0 3V78h1.28v-1.59zm4.54-1.61V73.4h-1.34v1.4zm0 3.17v-1.55h-1.34V78zm10 .55a9.52 9.52 0 001.86-.11v2.34a11.63 11.63 0 00-1.9-.11h-2v3h2.39a19 19 0 002.13-.11v2.39a12.59 12.59 0 00-2.13-.13h-7a13.09 13.09 0 00-2.18.13V83.5a14.12 14.12 0 002.05.11h2.48v-3h-1.37a12.46 12.46 0 00-2 .11v-2.31a12 12 0 002 .11h1.33V78a13.81 13.81 0 00-.11-2.11h2.43a13.94 13.94 0 00-.1 2.11v.55zm-4.76-9.28a9.87 9.87 0 001.8 2.53 8.09 8.09 0 001.8-2.52zm15.1 16.11a9.6 9.6 0 00-.11-1 40.1 40.1 0 01-.55-6.58 43.31 43.31 0 01.87-8.6 13.51 13.51 0 00.32-2l2.82.31A31.77 31.77 0 00189.5 74a40.18 40.18 0 00-.32 4.86v1.21a24.31 24.31 0 011.11-2.9l1.71.79a18.53 18.53 0 00-1.9 6.67v.59zm9.09-8.69a5 5 0 00-1.51 3.17c0 1.26 1.17 1.92 3.39 1.92a14.52 14.52 0 005.08-.84l.21 2.79c-.29 0-.38 0-.87.14a26.13 26.13 0 01-4.42.41c-2.65 0-4.35-.61-5.29-1.91a3.73 3.73 0 01-.64-2.16 7.31 7.31 0 012-4.53zm-3.52-7.28a15.13 15.13 0 004 .35 23.21 23.21 0 005.81-.59l.12 2.66-1.51.2a36.44 36.44 0 01-4.57.26A24.74 24.74 0 01193 72zm24.84 12.89a6.64 6.64 0 01-.17 1.87 1.88 1.88 0 01-2 1.28 6.57 6.57 0 01-4-1.56 3.26 3.26 0 01-1.17-2.49 4.72 4.72 0 011.83-3.25 11 11 0 013.12-1.87v-3.39h-3.74a4.33 4.33 0 00-.45 0v-2.46a13 13 0 002.58.19h1.61v-1.45a16.21 16.21 0 00-.13-2.53H218a13.49 13.49 0 00-.13 2.4v1.4a22.75 22.75 0 004.12-.83l.08 2.46-2.26.4c-.7.13-1.13.2-1.94.28v2.87a14 14 0 014.35-.62c3.57 0 6.11 2.24 6.11 5.37a4.81 4.81 0 01-4.85 5A3.44 3.44 0 01220 82.9a7.49 7.49 0 01-.36-2.81 9.14 9.14 0 002.37-1 6.71 6.71 0 000 1 4.39 4.39 0 00.3 1.93 1.48 1.48 0 001.35.75 2.23 2.23 0 002.15-2.44c0-1.89-1.49-3.13-3.77-3.13a13.41 13.41 0 00-4.1.73zm-2.41-3.54c-1.6.88-2.54 1.85-2.54 2.64a1.19 1.19 0 00.7 1 2.52 2.52 0 001.37.49c.36 0 .47-.2.47-.93zm11.82-4.44a18.4 18.4 0 00-4.27-4.76l2-1.38a18.22 18.22 0 014.23 4.51zm11.24 9.39a20.31 20.31 0 00.13 2.71h-2.49a21.69 21.69 0 00.12-2.73V69.24c0-1.17 0-1.78-.08-2.49a18.34 18.34 0 002.18.09h3.77a16.74 16.74 0 002.18-.09c0 .71-.06 1.21-.06 2.07v3.63c0 1 0 1.5.06 2-.51 0-1.26-.06-2-.06h-3.85zm0-13.88h3.65v-1.15h-3.65zm0 2.86h3.65v-1.17h-3.65zm10.81 8.71c0 .64 0 1.08.06 1.5a13.21 13.21 0 00-1.51-.07h-4.77v1.48h-2.26a18.76 18.76 0 00.11-2.14v-4.71a14.26 14.26 0 00-.07-1.54 14.67 14.67 0 001.58.07h5.28a15.12 15.12 0 001.64-.07c0 .44-.06.88-.06 1.52zm-6.22-.57h4.06v-2.88h-4.06zm11 2.88c0 1.21-.19 1.79-.75 2.14a4.26 4.26 0 01-2.24.35c-.34 0-.58 0-2-.09a7.85 7.85 0 00-.6-2.33 24.11 24.11 0 002.62.2c.6 0 .71-.09.71-.58v-9h-4.12c-.71 0-1.48 0-1.94.06v-5.6c0-.84 0-1.43-.07-2.07a17.73 17.73 0 002.18.09H252a18.93 18.93 0 002.2-.09 19.13 19.13 0 00-.11 2.47zM248 69.79h3.91v-1.15H248zm0 2.86h3.91v-1.17H248zm17-4.16a25.35 25.35 0 00-.18 3.34 43.07 43.07 0 00.41 5.9c.36 2.29 1.05 3.7 1.73 3.7.32 0 .62-.33.87-1a16.54 16.54 0 001.14-4 10.28 10.28 0 002.13 2c-1.11 4.29-2.35 6.07-4.16 6.07-1.43 0-2.58-1.07-3.44-3.19s-1.25-5.31-1.33-11.41a9.52 9.52 0 00-.09-1.41zm10.09 1a22.3 22.3 0 014.81 11.84l-2.65 1a22.92 22.92 0 00-1.36-6.33 19.27 19.27 0 00-3-5.41zm15.27 3.97a21.81 21.81 0 01-3.42 1.85 8.41 8.41 0 00-1.24-2.24 21.18 21.18 0 005.45-3.17 15.25 15.25 0 003.35-3.68h2.5a14.28 14.28 0 003.58 3.72 20 20 0 005.45 3 11.82 11.82 0 00-1.18 2.42 21.56 21.56 0 01-3.48-1.94V75a16.08 16.08 0 00-1.92-.09h-7.3a16.84 16.84 0 00-1.83.09zm-1.73 12.87a19.22 19.22 0 00.12-2.33v-5.12a21.78 21.78 0 00-.1-2.18 13.91 13.91 0 001.83.09h10.68a14.48 14.48 0 001.84-.09 16.42 16.42 0 00-.1 2.18V84a13.7 13.7 0 00.13 2.31h-2.53v-1.1h-9.33v1.12zm2.54-3.27h9.33v-4.14h-9.33zm8.3-10.45h.73a19.77 19.77 0 01-4.4-4.3 15.24 15.24 0 01-4.18 4.3h7.85zm12.27 6.84a50.71 50.71 0 003.86-3.52c0-1.35 0-1.37.09-3.17a22.86 22.86 0 00-3.25.33l-.15-2.49c.34 0 .52.05.71.05.38 0 1.56-.07 2.75-.16 0-.57.07-.86.07-1.65V67.7a5.14 5.14 0 00-.09-1h2.75a10.89 10.89 0 00-.21 2.11c0 .42 0 .42-.06 1v.39a.82.82 0 00.3-.11l.81.91a9 9 0 00-1.22 1.43c0 .94-.06 1.43-.08 1.49a3.23 3.23 0 01.51-.42c2.33-1.74 4.06-2.42 6.15-2.42A5.84 5.84 0 01328.9 73a6.54 6.54 0 011.64 4.53 6.84 6.84 0 01-3.39 6.23 8.31 8.31 0 01-3.8.83 10.63 10.63 0 01-3.18-.48 8.22 8.22 0 00-.41-2.86 9.51 9.51 0 003.8.81 4.26 4.26 0 004.36-4.55 3.48 3.48 0 00-3.65-3.83c-1.77 0-3.86 1.12-6.21 3.32v2.29c0 3.15.06 5.61.17 6.58h-2.78a22 22 0 00.13-3.52v-2a12.27 12.27 0 010-1.3 7.08 7.08 0 01-.94 1A12.58 12.58 0 00313 82zm42.53 5.28l-1 .11c-1.55.17-4.37.33-5.78.33-4 0-5.72-.79-6.36-2.91-.3-1-.39-2.22-.39-6v-2.14a27.24 27.24 0 00-3.94.4l-.12-2.52h.62c.1 0 1.37-.07 3.48-.2v-.68a23.77 23.77 0 00-.14-3.74h2.86a26.19 26.19 0 00-.2 4.29l6.17-.31a26.22 26.22 0 00-.12-4.36H352a11.1 11.1 0 00-.1 1.52v2.75a39.05 39.05 0 004.14-.2v2.62a8 8 0 00-1.22-.06h-3a14.41 14.41 0 01-.56 4.66 2.59 2.59 0 01-2.6 1.65 6.81 6.81 0 01-3.06-.75v-.88a13 13 0 00-.15-1.8 6.5 6.5 0 002.79 1.08c.56 0 .79-.29.92-1.15a18.84 18.84 0 00.19-2.75c-3.24.13-3.24.13-6.21.31v2.33c0 1.15.06 3.55.11 4 .17 1.84 1.09 2.31 4.56 2.31a16.87 16.87 0 006.17-.84zm10.97-15.14a27.28 27.28 0 00-2.86.13v-2.57a26 26 0 002.86.13h13.4a26.76 26.76 0 002.86-.13v2.57a27.55 27.55 0 00-2.86-.13h-6v2.58a53 53 0 017.67 4l-1.22 2.2a42.82 42.82 0 00-6.45-3.76v8.6a23.91 23.91 0 00.15 3H370a21.89 21.89 0 00.15-3V69.59zm23.64 1.12a14 14 0 002.07.11c1.6 0 4.44-.2 5.77-.37-.37-1-1.28-3.3-1.39-3.48l2.75-.37a19.3 19.3 0 001.18 3.52 32 32 0 005.23-1.3l.3 2.62c-.56.09-.79.15-1.52.31-.32.08-1.37.3-3.14.66.77 1.47 1.26 2.39 1.48 2.79.57 1 1.51 2.44 2.26 3.48l-2.48 1.16a3.75 3.75 0 00-1.47-.94 10.38 10.38 0 00-3.37-.51c-2.91 0-4.61.9-4.61 2.47s1.57 2.22 4.48 2.22a14.33 14.33 0 006.42-1.48l.34 2.82a21.29 21.29 0 01-6.76 1.19c-2.73 0-4.85-.6-5.94-1.67a4.18 4.18 0 01-1.26-3 4.34 4.34 0 011.54-3.28c1.24-1.08 3-1.59 5.44-1.59a9.69 9.69 0 013.7.66 24.2 24.2 0 01-2.31-4 75.06 75.06 0 01-7.58.53 8.63 8.63 0 00-.94.06zm26.62-2.22a25.35 25.35 0 00-.18 3.34 43.07 43.07 0 00.41 5.9c.36 2.29 1 3.7 1.73 3.7.32 0 .62-.33.87-1a16.54 16.54 0 001.14-4 10.28 10.28 0 002.13 2c-1.11 4.29-2.35 6.07-4.16 6.07-1.43 0-2.59-1.07-3.44-3.19s-1.26-5.31-1.34-11.41a13.43 13.43 0 00-.09-1.41zm10.09 1a22.3 22.3 0 014.81 11.84l-2.65 1a22.92 22.92 0 00-1.37-6.33 19.27 19.27 0 00-3-5.41zM57.42 18.43C56.79 16.32 56.6 15 56 9.12A22.75 22.75 0 0055.16 4a28 28 0 016.1.53c.72.19 1.05.53 1.05 1.06a3.3 3.3 0 01-.14.81 10.44 10.44 0 00-.48 3.27 34.35 34.35 0 001 7.87c.29.91.58 1.25 1.1 1.25 1.16 0 5.38-2.21 7.68-4 .63-.48.72-.53 1-.53.44 0 .87.34 1.59 1.25 1.2 1.64 2.16 3.41 2.16 4.08s-.34.87-1.15 1.11a78.78 78.78 0 00-11.19 4.32c-5.86 2.88-8.5 5.52-8.5 8.49s2.42 4.17 8.62 4.17a66.64 66.64 0 0011.28-1 3.71 3.71 0 01.62-.1.87.87 0 01.82.58 33.13 33.13 0 01.48 4.56 1 1 0 01-.82 1.1 93.42 93.42 0 01-10.51.58c-6.15 0-10.23-.82-12.77-2.55a7.79 7.79 0 01-3.31-6.72A10.51 10.51 0 0151.71 28c1.68-2.5 3.5-4.08 7.53-6.48a5.54 5.54 0 01-1.82-3.09zm32.06-2.06c-2.6 0-2.69 0-3-.58a16.74 16.74 0 01-.77-4.6 52.32 52.32 0 005.81.28c1.39 0 3.27-.05 5.23-.19a35.72 35.72 0 00.48-5.66c0-.82 0-1.44-.14-2.55a29.13 29.13 0 016.1 1c.38.15.52.29.52.68a2.06 2.06 0 01-.33 1 12.69 12.69 0 00-.89 3.25c-.15.91-.2 1.1-.29 1.72a47.54 47.54 0 0010.61-2.4 3.51 3.51 0 01.77-.14c.33 0 .47.24.67 1.2a32.7 32.7 0 01.43 3.5c0 .58-.19.68-1.63 1a119.2 119.2 0 01-11.86 1.78c-1.44 5.76-2.11 7.63-3.84 10.85a19.91 19.91 0 016.43-3.75A17.44 17.44 0 01110 21.7c3.51 0 6.34 1 8.16 2.78a9.63 9.63 0 012.64 6.77c0 3.55-1.68 6.43-5.28 8.83A27.79 27.79 0 01104.17 44c-.77.1-1.54.19-1.83.19a1.39 1.39 0 01-1.34-.79 13.74 13.74 0 00-3-3.94 36.55 36.55 0 0011.33-2.06c3.65-1.3 5.76-3.51 5.76-6 0-3.27-2-5.24-5.23-5.24-5.42 0-11.47 3.36-15.36 8.5a1.23 1.23 0 01-.87.53c-.86 0-4.17-3-4.17-3.79 0-.24 0-.34.53-1 2.54-3.46 4.51-8.31 5.9-14.26-.8.04-5.89.23-6.41.23zm53.25-2.11a72.69 72.69 0 01-11 1.2c-.77 0-1.1-.15-1.2-.58a22.52 22.52 0 01-.48-3.93A63 63 0 00141.2 10c-.24-.72-.48-1.34-.63-1.73A20.14 20.14 0 00139 4.42a27.34 27.34 0 015.66-.68c.44 0 .68.29.68.77v.67a16.88 16.88 0 00.66 3.89 43.32 43.32 0 008.4-2.64 2 2 0 01.62-.19c.24 0 .39.24.82 1.25a15.27 15.27 0 01.86 2.59c0 .24-.14.38-.43.53a58.61 58.61 0 01-8.93 2.69 36.48 36.48 0 001.66 3.89 31.77 31.77 0 004.9-1.64l4.51-2.25c0-.05.1-.1.15-.1s.14.05.19.05.33.29.81 1.2a14.67 14.67 0 011.06 2.74c0 .33 0 .33-1 .86a36 36 0 01-8.16 3.22 32.73 32.73 0 006.29 7.05c1.63 1.2 1.68 1.25 1.68 1.73a9.63 9.63 0 01-1.39 3c-.82 1.4-1.2 1.78-1.73 1.78-.29 0-.34 0-1.06-.53-2.45-1.87-7.39-3.17-12.14-3.17-4.13 0-6.72 1.44-6.72 3.85 0 1.48 1.15 2.68 3.21 3.45 1.88.67 6 1.11 10.47 1.11 1 0 2-.05 3.84-.15a11.6 11.6 0 00-1.87 4.13c-.29 1-.63 1.2-2.11 1.2a40.4 40.4 0 01-12.77-1.68c-4.08-1.44-6.24-4.13-6.24-7.73 0-5.13 4.22-8.26 11.23-8.26a22.61 22.61 0 0110.08 1.83 30.14 30.14 0 01-5.52-6.53c-2.31.48-3.46.67-5 .91a95.76 95.76 0 01-9.75.77c-1.53 0-1.58-.05-2-4.56 1.06.05 1.88.05 2.36.05a76.4 76.4 0 0012.14-1.3c-.46-.94-1.2-2.62-1.73-3.96zm19.4-8.5a7.05 7.05 0 011.53 2.5c0 .33-.19.53-1.1 1.2s-1.3 1-1.54 1-.28 0-1.1-1.49a23.13 23.13 0 00-3-4c-.19-.19-.24-.29-.24-.39a4.71 4.71 0 012.36-1.73c.5-.07 1.36.75 3.09 2.91zm3.17 1A20.75 20.75 0 00161.89 2c-.19-.2-.24-.29-.24-.39 0-.43 1.68-1.63 2.3-1.63s1.39.82 2.74 2.54a9.71 9.71 0 011.73 2.74c0 .29-.2.53-.82 1a4.2 4.2 0 01-1.78 1c-.19-.06-.33-.16-.52-.54zm20.9 5.38c.53-1.48.58-1.58 1-2.88h-.48a26 26 0 00-3.5.2V5.33a25.87 25.87 0 003.65.19h1.29a26.79 26.79 0 00.63-3.5l4.75.52c-.19.63-.29.87-.48 1.68-.14.63-.19.82-.29 1.3h3.55c1.73 0 2.74 0 3.7-.14a30 30 0 00-.14 3.21v3.55a12.34 12.34 0 002.68-.19v3a14.46 14.46 0 001.54.05h6.1a20.58 20.58 0 003.45-.19v4.89a17.75 17.75 0 00-3.45-.24v20.19c0 2.35-.24 3.17-1.25 3.89s-2.11.91-4.9.91c-.72 0-1.39 0-3.12-.09a13.67 13.67 0 00-.91-4.8 30 30 0 004.27.43c1 0 1.15-.2 1.15-1V19.44h-1.34a11.57 11.57 0 00-2.35.19v-3.55a16.63 16.63 0 00-2.16-.09H182.7c-.34.53-.34.53-1.3 2.12-.48.86-1.29 2-2.06 3.12v18a37.15 37.15 0 00.24 5.23h-5.19a33.06 33.06 0 00.29-5.38v-8.74c0-1.49 0-1.78.1-4.32a18.08 18.08 0 01-2.88 2.88 21.4 21.4 0 00-1.87-5 26.41 26.41 0 008.88-11.14l2.64 1.68V12a20.81 20.81 0 003.6.19zm-3.6-7.24a6.37 6.37 0 00-.77 1 42.49 42.49 0 01-9.21 9.1 18.74 18.74 0 00-2.26-4.37c3.51-2.31 6.77-5.81 8-8.55zm4.52 21.69c-1.78 0-2.74.05-3.85.1a25.21 25.21 0 00.1-3.12v-3.5a15.71 15.71 0 00-.1-2.4c.63 0 1.44.09 2.64.09H197c2 0 2.64 0 3.8-.09a25.22 25.22 0 00-.15 3.07v2.83a24.45 24.45 0 00.15 3.12c-.68-.05-2-.1-3.84-.1h-1.16v1.83h1.59a37.55 37.55 0 004.27-.19v4.08c-1.34-.1-2.11-.15-4.27-.15h-1.59v2.59h2.36a38.41 38.41 0 004.41-.19v4.28a33.19 33.19 0 00-3.41-.2h-3.36v1.83a26 26 0 00.29 4.17h-5.18a21.87 21.87 0 00.29-4.17v-1.83h-5.81a28.59 28.59 0 00-4.37.24v-4.27c1.15.1 1.49.1 3.12.14v-2.59c-.72.05-1.3.1-2.21.15v-4.08a40.42 40.42 0 004.27.19h5v-1.83zm.91-3.21h8v-2.45h-8zm.24 11.37h2.93v-2.59h-2.93zm7.39-22.61V9.26h-4c-.44 1.49-.68 2.16-.92 2.88zm17.19-2.68a21.66 21.66 0 00-3.32-.2h-5.28a9.12 9.12 0 00-2.16.2V4.61a21.35 21.35 0 003.31.19h4.13a20.28 20.28 0 003.32-.19zM227.83 16a40.91 40.91 0 01-6.29 9.64 13.15 13.15 0 00-3.75-3.88 33.36 33.36 0 007.78-13.49 21.47 21.47 0 001-4.28l5.28 1.3a11.72 11.72 0 01-.43 1.2A13.74 13.74 0 00231 8c-.19.62-.39 1.24-1.2 3.45h7.49V8a45.27 45.27 0 00-.29-5.6h5.85a42.05 42.05 0 00-.28 5.52v3.55h9.65a60.36 60.36 0 006.19-.28v5.08c-2-.19-3.94-.28-6.1-.28h-9.74v8.44h8a46.44 46.44 0 005.71-.28v5.08a50.05 50.05 0 00-5.67-.28h-8v9.79h11.09a47.75 47.75 0 006.3-.34v5.28a50.49 50.49 0 00-6.24-.33h-28.24a56 56 0 00-6.52.33V38.4a51.2 51.2 0 006.38.34h11.86V29h-7.11a47.25 47.25 0 00-5.57.28v-5a41.13 41.13 0 005.52.24h7.16V16zm40.95-7.12a23.29 23.29 0 00-3.36.19V4.22a30.28 30.28 0 004 .24H274a29.36 29.36 0 004-.24v4.9a14.49 14.49 0 00-2.88-.24h-.53V18a13.33 13.33 0 002.69-.19v4.61a22.45 22.45 0 00-2.69-.14v8.59c1.49-.58 2.16-.86 4.42-1.87v4.7c-4.13 1.92-7 3.12-10.71 4.51a16.71 16.71 0 00-2.5 1l-1.15-5.33c.87 0 2.26-.38 5.14-1.34V22.23h-.53a19.68 19.68 0 00-3.17.19v-4.66a19.94 19.94 0 003.27.19h.43V8.88zM306.42 33a10.06 10.06 0 00-1.3 1.1 38.29 38.29 0 01-3.41 2.64 25.19 25.19 0 007 2.79 31.33 31.33 0 00-2.49 4.65 32.5 32.5 0 01-7.96-4.18 19 19 0 01-4.61-4.61c.09 1.58.14 2.21.14 3.46v2.54a20.42 20.42 0 00.24 3.74h-5.33a21.43 21.43 0 00.24-3.93v-2.56c0-.76.05-2.16.15-3.21-2.93 3.45-5.76 5.47-11.81 8.45a14.61 14.61 0 00-3.07-4.18c6-2.07 10.08-4.61 13.29-8.35h-3.69a32.93 32.93 0 00-3.65.14 21.88 21.88 0 00.14-2.88v-3.84a24.73 24.73 0 00-.14-2.88c1 .1 2.25.14 3.89.14h16.75c1.87 0 3.17 0 4.13-.14a23.43 23.43 0 00-.15 2.88v4a19.6 19.6 0 00.15 2.74 7 7 0 00-1.54-.1zm-28.13-17.35a29.87 29.87 0 004.46.24h20.35a29.63 29.63 0 004.42-.24v4.66a29.19 29.19 0 00-4.37-.24H282.7a28.66 28.66 0 00-4.41.24zm1-9a26.37 26.37 0 00-.15-3.31 27.28 27.28 0 003.65.19h19.73a34.57 34.57 0 003.74-.19 26.55 26.55 0 00-.26 3.28V11a31.67 31.67 0 00.15 3.22c-1-.05-1.92-.1-3.6-.1h-19.8c-1.63 0-2.5.05-3.6.1.05-.72.1-1.49.1-3.26zm7.68.63h-3.36v3.45h3.36zM285 27.75h15v-2.31h-15zm9.32-20.45h-3.41v3.45h3.41zm.68 24.05a16.87 16.87 0 003.22 3.12 19.71 19.71 0 003.6-3.12H295zm6.77-24h-3.5v3.45h3.5zm15.72.65a36.48 36.48 0 00-.29-5.14h5.38a28.57 28.57 0 00-.29 5.14v6.14c1.73-.05 2.11-.05 3.17-.14v4.75a28.29 28.29 0 00-3.17-.15V30c1.1-.49 1.77-.77 4.08-1.83l.14 4.94c-3 1.45-5.86 2.64-11.09 4.76-.77.33-1.49.62-2.11 1l-1-5.38a29.28 29.28 0 005.19-1.53V18.62h-1a27.31 27.31 0 00-3.65.25v-5a28.17 28.17 0 003.7.24h1zm14.4 25.87c-1.44 0-1.92 0-4 .15a27.24 27.24 0 00.15-3.41v-8.29a35.61 35.61 0 00-.15-3.65c1.2.1 2.21.15 4.37.15h16c2.12 0 3-.05 4.33-.15a24.75 24.75 0 00-.2 3.65v8a25.85 25.85 0 00.2 3.7 38.84 38.84 0 00-3.89-.15h-3.55v5.28c0 1 .23 1.06 2.68 1.06 2 0 2.64-.14 2.93-.62s.34-1.78.39-4.52a14.69 14.69 0 004.51 1.59c-.43 7-1.35 7.87-8.16 7.87-2.83 0-4.47-.19-5.52-.67s-1.54-1.2-1.54-3v-7h-3.22c-.43 3.22-1.2 4.95-2.92 6.77-2.21 2.31-4.8 3.51-10.32 4.75a14.07 14.07 0 00-2.6-4.36c7.73-1 10.61-2.79 11.28-7.16zM348.93 6a47 47 0 005-.24V10c-1.39-.09-2.3-.14-4.7-.14-.63 1.54-.87 2.07-1.44 3.22h2.64a37.26 37.26 0 004.65-.19v4.51a43.4 43.4 0 00-4.84-.19h-19.55a34.59 34.59 0 00-4.23.14v-4.44c1.49.1 2.21.15 4.13.15h1.83a21.18 21.18 0 00-1.2-3.22c-2.21 0-2.88.05-4 .14V5.76a37.34 37.34 0 004.95.24h5.52V5a11.9 11.9 0 00-.24-2.73h5.42a12 12 0 00-.24 2.68V6zm-16.18 18.39h14.83v-1.83h-14.83zm0 5.52h14.83v-2.07h-14.83zm10.13-16.85a24 24 0 001.34-3.22h-8.16c.48 1.11.87 2.16 1.25 3.22zm36.58.81a22.48 22.48 0 00-3.36.2v-3.61a40.76 40.76 0 01-3.75 7.69c3.31 4.32 4.23 6.52 4.23 10.36s-2.4 5.77-7.2 5.77a6.24 6.24 0 01-.87-.05 10.2 10.2 0 00-1-4.61 13.8 13.8 0 002.21.19c1.39 0 2-.67 2-2.26a11.82 11.82 0 00-1-4.32 17.67 17.67 0 00-3-4.84 38.35 38.35 0 004-10.28h-5.14v31.4a48.17 48.17 0 00.24 5.23h-5.32a41.4 41.4 0 00.29-5.28V7.92a40.65 40.65 0 00-.19-4.37 33 33 0 003.65.15h7.1a15.23 15.23 0 003-.2l2.21 3.17a3.19 3.19 0 00-.24.63 1.4 1.4 0 00-.2.38c-.24.58-.28.72-.52 1.39 1.15.1 2.3.15 3.74.15h5.47V6.1a18.09 18.09 0 00-.29-3.6H391a19.38 19.38 0 00-.24 3.6v3.12h7a33.35 33.35 0 005-.24v5.13a34 34 0 00-4.95-.24h-10.96c0 2.26-.05 3.7-.19 5.19h9.21a33.2 33.2 0 004.18-.19 22.46 22.46 0 00-.19 3.55c-.19 4.75-.58 10.89-1 13.73-.77 6.43-2.45 8-8.21 8-1.3 0-1.82 0-5.23-.28a16.24 16.24 0 00-1-5 41.88 41.88 0 006.14.53c2.07 0 2.6-.33 3-2.06.62-2.26 1.1-7.92 1.2-13.83h-8.6a33 33 0 01-4.36 13.3 27 27 0 01-7.59 8.06 14.59 14.59 0 00-3.89-4.08 20.76 20.76 0 009.32-11.13c1.53-4.28 2.06-7.92 2.16-15.8zm43.78-1.73c.53-1.48.58-1.58 1-2.88h-.48a26 26 0 00-3.5.2V5.33a25.78 25.78 0 003.65.19h1.29a28.58 28.58 0 00.63-3.5l4.75.52c-.19.63-.29.87-.48 1.68-.15.63-.19.82-.29 1.3h3.55c1.73 0 2.74 0 3.7-.14a30 30 0 00-.14 3.21v3.55a12.4 12.4 0 002.68-.19v3a14.46 14.46 0 001.54.05h6.1a20.58 20.58 0 003.45-.19v4.89a17.75 17.75 0 00-3.45-.24v20.19c0 2.35-.24 3.17-1.25 3.89s-2.12.91-4.9.91c-.72 0-1.39 0-3.12-.09a13.9 13.9 0 00-.91-4.8 30 30 0 004.27.43c1 0 1.15-.2 1.15-1V19.44h-1.38a11.57 11.57 0 00-2.35.19v-3.55a16.63 16.63 0 00-2.16-.09h-16.85c-.34.53-.34.53-1.3 2.12-.48.86-1.3 2-2.06 3.12v18a35.68 35.68 0 00.24 5.23h-5.19a33.06 33.06 0 00.29-5.38v-8.74c0-1.49 0-1.78.1-4.32a18.08 18.08 0 01-2.88 2.88 21.43 21.43 0 00-1.88-5A26.36 26.36 0 00416 12.72l2.63 1.68V12a21 21 0 003.61.19zm-3.6-7.24a5.8 5.8 0 00-.77 1 42.49 42.49 0 01-9.21 9.1 18.74 18.74 0 00-2.26-4.37c3.5-2.31 6.77-5.81 8-8.55zm4.51 21.69c-1.77 0-2.73.05-3.84.1a25.21 25.21 0 00.1-3.12v-3.5a15.71 15.71 0 00-.1-2.4c.63 0 1.44.09 2.64.09H434c2 0 2.64 0 3.79-.09a27.81 27.81 0 00-.14 3.07v2.83a26.92 26.92 0 00.14 3.12c-.67-.05-2-.1-3.84-.1h-1.15v1.83h1.59a37.55 37.55 0 004.27-.19v4.08c-1.35-.1-2.11-.15-4.27-.15h-1.59v2.59h2.35a38.48 38.48 0 004.42-.19v4.28a33.19 33.19 0 00-3.41-.2h-3.36v1.83a26 26 0 00.29 4.17H428a21.93 21.93 0 00.28-4.17v-1.83h-5.8a28.51 28.51 0 00-4.37.24v-4.27c1.15.1 1.48.1 3.12.14v-2.59c-.72.05-1.3.1-2.21.15v-4.08a40.42 40.42 0 004.27.19h5v-1.83zm.92-3.21h8v-2.45h-8zm.24 11.37h2.92v-2.59h-2.92zm7.39-22.61V9.26h-4c-.43 1.49-.67 2.16-.91 2.88zm17.18-2.68a21.44 21.44 0 00-3.31-.2h-5.28a9.12 9.12 0 00-2.16.2V4.61a21.27 21.27 0 003.31.19h4.13a20.06 20.06 0 003.31-.19zm33.71 3.79a29.35 29.35 0 01-2.59 2.69 27.22 27.22 0 013.36 6 38.38 38.38 0 013 14.45c0 3.5-.82 6-2.26 7-1 .67-2.44 1-5.23 1a20.54 20.54 0 01-3.17-.24 13 13 0 00-1-4.8 31.18 31.18 0 004.85.52c1 0 1.3-.09 1.54-.38a9 9 0 00.57-3.84 25.1 25.1 0 00-.19-3.26 47 47 0 01-5.47 4.46 57.1 57.1 0 01-8.31 4.9 15.63 15.63 0 00-3-3.89 50.49 50.49 0 0015.94-10.18 22.59 22.59 0 00-.87-2.78 41.59 41.59 0 01-8.88 5.8 14.48 14.48 0 00-1.88-3.91c.1.91.15 1.34.15 1.72 0 2.31-.63 3.94-1.83 4.85-1 .72-2.35 1-5 1h-.81a10.19 10.19 0 00-.87-4.7 13 13 0 002 .24c1.53 0 1.92-.34 1.92-1.87a14.67 14.67 0 00-.87-4.66c-.52-1.49-1.2-2.55-3.12-4.9a53.54 53.54 0 004.18-10.37H461v31.12a42.76 42.76 0 00.24 5.57H456a50.29 50.29 0 00.29-5.71V7.78c0-1.54-.05-2.69-.19-4.28a24 24 0 003.26.15h6.82a16.3 16.3 0 003.07-.19l1.83 2.68a11 11 0 00-.91 2.45 25.13 25.13 0 003.45.2H476a29.82 29.82 0 00-3.4-5.43l4.89-1.3a44.67 44.67 0 013.75 6.73h3.55a34.31 34.31 0 003.31-6.73l4.9 1.25a46 46 0 01-3 5.48h3.41a22.6 22.6 0 004.32-.25v5a44.76 44.76 0 00-4.56-.24h-4.08a47 47 0 001.39 7.06 16.86 16.86 0 003-4.42l4.46 2.69-1.05 1.34a32.7 32.7 0 01-4.71 5.23c2.26 5.19 3.75 7.54 6.72 10.47a18 18 0 00-2.49 5.62 31.08 31.08 0 01-5.72-8.12 65.82 65.82 0 01-6.33-19.87zm-13.54-4.13a68.66 68.66 0 01-3.89 8.69c2.5 3.7 3.22 5.28 3.8 8.59a37.51 37.51 0 009.12-5.33c-.63-1.05-.72-1.2-1.54-2.4a44.79 44.79 0 01-7.1 4.18 15 15 0 00-2.07-4c4.71-2 6.91-3.36 9.22-5.57H474a32.66 32.66 0 00-3.94.19z" fill="#6c8485"/></g></g></svg>