<svg xmlns="http://www.w3.org/2000/svg" viewBox="0 0 305.08 18.6"><path d="M0 .45h2.1V8.1h.3l8-7.65h3L4.72 8.52l9.18 9.63h-3.08l-8.42-9h-.3v9H0zM32 18.6a9.54 9.54 0 01-3.71-.7 8.88 8.88 0 01-2.95-1.9 8.63 8.63 0 01-1.93-3 9.83 9.83 0 01-.69-3.71 9.83 9.83 0 01.69-3.71 8.63 8.63 0 011.93-2.95A8.88 8.88 0 0128.26.7a10.21 10.21 0 017.43 0 8.88 8.88 0 012.92 1.94 8.63 8.63 0 011.93 2.95 9.83 9.83 0 01.68 3.71 9.83 9.83 0 01-.68 3.7 8.63 8.63 0 01-1.93 3 8.88 8.88 0 01-2.92 1.94 9.59 9.59 0 01-3.69.66zm0-2a6.77 6.77 0 002.84-.58A6.5 6.5 0 0037 14.5a7.18 7.18 0 001.44-2.34A7.93 7.93 0 0039 9.3a7.93 7.93 0 00-.51-2.86A7.18 7.18 0 0037 4.1a6.66 6.66 0 00-2.21-1.58 7.34 7.34 0 00-5.67 0 6.81 6.81 0 00-2.2 1.58 7.33 7.33 0 00-1.43 2.34A7.73 7.73 0 0025 9.3a7.73 7.73 0 00.52 2.86 7.33 7.33 0 001.43 2.34 6.64 6.64 0 002.22 1.57 6.76 6.76 0 002.83.58zM50.55.45h2.33l4 14.7H57L61.3.45h2.35L68 15.15 72.12.45h2.2l-5.2 17.7h-2.27l-4.38-15-4.4 15h-2.3zm39.27 0h2l7.52 17.7h-2.46l-1.81-4.35h-8.85l-1.82 4.35H82zm1 2.7l-3.67 8.7h7.22zM137 4.1a5.12 5.12 0 00-2-1.61 5.79 5.79 0 00-2.4-.49 6.12 6.12 0 00-2.71.6 6.82 6.82 0 00-2.14 1.61 7.41 7.41 0 00-1.4 2.35 8 8 0 00-.5 2.79 8.28 8.28 0 00.5 2.89 7.21 7.21 0 001.39 2.32 6.45 6.45 0 002.12 1.56 6.42 6.42 0 007.86-1.9l1.58 1.33a7.23 7.23 0 01-2.89 2.35 9.25 9.25 0 01-3.81.75 8.92 8.92 0 01-3.55-.7 8.73 8.73 0 01-2.86-1.95 8.82 8.82 0 01-1.9-2.94 9.78 9.78 0 01-.69-3.72 10 10 0 01.66-3.65 8.81 8.81 0 011.86-2.95 8.92 8.92 0 012.85-2A8.82 8.82 0 01132.6 0a9.49 9.49 0 013.46.65 6.36 6.36 0 012.79 2.12zM150.22.45h2.1V16.2h8.1v1.95h-10.2zm20.5 0h11.13v2h-9V8h8.43v2h-8.43v6.3h9.48v1.95h-11.61zm28.58 0h2l7.53 17.7h-2.45l-1.8-4.35h-8.88l-1.82 4.35h-2.38zm.95 2.7h-.05l-3.68 8.7h7.23zm18.9-2.7h2.65l10.25 14.7V.45h2.1v17.7h-2.65l-10.2-14.7h-.05v14.7h-2.1zm26.5 15.3l6.67-6.5c.42-.4.79-.77 1.1-1.11a7.32 7.32 0 00.79-1 3.73 3.73 0 00.46-1 4.25 4.25 0 00.15-1.14 2.94 2.94 0 00-.25-1.25 2.67 2.67 0 00-.68-.94 3.21 3.21 0 00-1-.6A3.7 3.7 0 00251.6 2a3.24 3.24 0 00-2.23.78 3.55 3.55 0 00-1.12 2L246 4.57a5.55 5.55 0 01.67-1.91 4.55 4.55 0 011.22-1.39 5.62 5.62 0 011.66-.83 6.81 6.81 0 012-.29 6.71 6.71 0 012.08.31 5.21 5.21 0 011.71.92 4.19 4.19 0 011.18 1.5 4.7 4.7 0 01.4 2.12 6 6 0 01-.28 1.9 6 6 0 01-.78 1.56 9.41 9.41 0 01-1.1 1.35q-.62.64-1.29 1.26L248 16.15v.05h9v1.95h-11.4zm21.6-6.45a20.27 20.27 0 01.25-3.13 10 10 0 01.92-3A6.36 6.36 0 01270.26 1a5.63 5.63 0 016 0 6.36 6.36 0 011.84 2.2 10.25 10.25 0 01.92 3 20.27 20.27 0 01.25 3.13 20 20 0 01-.25 3.12 10.21 10.21 0 01-.92 3 6.36 6.36 0 01-1.84 2.2 5.63 5.63 0 01-6 0 6.36 6.36 0 01-1.84-2.2 9.92 9.92 0 01-.92-3 20 20 0 01-.25-3.15zm2.1 0v1.45a15 15 0 00.19 1.61A9.74 9.74 0 00270 14a4.91 4.91 0 00.7 1.37 3.27 3.27 0 001.06 1 3.3 3.3 0 003 0 3.27 3.27 0 001.06-1 4.91 4.91 0 00.7-1.37 9.74 9.74 0 00.4-1.59 15 15 0 00.19-1.61V7.9a15 15 0 00-.19-1.61 9.74 9.74 0 00-.4-1.59 5 5 0 00-.7-1.38 3.47 3.47 0 00-1.06-1 3.31 3.31 0 00-3 0 3.47 3.47 0 00-1.06 1 5 5 0 00-.7 1.38 9.74 9.74 0 00-.4 1.59 15 15 0 00-.19 1.61c-.04.48-.06.97-.06 1.4zm33.45-5.2a5 5 0 00-2-1.61 5.82 5.82 0 00-2.42-.49 6.16 6.16 0 00-2.72.6 6.78 6.78 0 00-2.13 1.61 7.44 7.44 0 00-1.41 2.35 8 8 0 00-.5 2.79 8.28 8.28 0 00.5 2.89 7.39 7.39 0 001.39 2.32 6.39 6.39 0 002.13 1.56 6.83 6.83 0 005.64-.06 6.46 6.46 0 002.22-1.84l1.58 1.33a7.3 7.3 0 01-2.89 2.35 9.32 9.32 0 01-3.81.75 8.89 8.89 0 01-3.55-.7 8.71 8.71 0 01-4.77-4.95 9.77 9.77 0 01-.68-3.72 10 10 0 01.62-3.63A8.81 8.81 0 01298.38 0a9.49 9.49 0 013.46.65 6.28 6.28 0 012.78 2.12z" fill="#fff" data-name="レイヤー 2"/></svg>