<svg xmlns="http://www.w3.org/2000/svg" viewBox="0 0 247.73 13.39"><path d="M0 .32h1.51v5.51h.22L7.52.32H9.7L3.4 6.14l6.6 6.93H7.79L1.73 6.59h-.22v6.48H0zm25.36 13.07a7 7 0 01-2.67-.5 6.49 6.49 0 01-2.11-1.4 6.27 6.27 0 01-1.38-2.12 7.09 7.09 0 01-.5-2.67 7.14 7.14 0 01.5-2.7 6.27 6.27 0 011.38-2.1A6.49 6.49 0 0122.69.5 7.41 7.41 0 0128 .5a6.44 6.44 0 012.1 1.4A6.15 6.15 0 0131.53 4 7.14 7.14 0 0132 6.7a7.08 7.08 0 01-.49 2.67 6.15 6.15 0 01-1.39 2.12 6.44 6.44 0 01-2.1 1.4 7.06 7.06 0 01-2.66.5zm0-1.4a4.91 4.91 0 002.05-.42A4.86 4.86 0 0029 10.44a5.14 5.14 0 001-1.68 5.62 5.62 0 00.4-2.06 5.67 5.67 0 00-.4-2.07A5.14 5.14 0 0029 3a4.86 4.86 0 00-1.59-1.13 5.19 5.19 0 00-4.09 0A4.66 4.66 0 0021.73 3a5.16 5.16 0 00-1 1.68 5.95 5.95 0 000 4.13 5.16 5.16 0 001 1.68 4.66 4.66 0 001.59 1.13 4.9 4.9 0 002.04.38zM41.08.32h1.67l2.9 10.59L48.82.32h1.69l3.11 10.59 3-10.59h1.58l-3.75 12.75h-1.64l-3.15-10.8-3.17 10.8H44.8zm30.61 0h1.43l5.41 12.75h-1.76l-1.3-3.13H69.1l-1.31 3.13h-1.71zm.69 2L69.7 8.53h5.2zm37.98.68a3.78 3.78 0 00-1.42-1.16 4.22 4.22 0 00-1.77-.39 4.36 4.36 0 00-2 .44A4.64 4.64 0 00103.68 3a5.31 5.31 0 00-1 1.69 5.68 5.68 0 00-.36 2 5.85 5.85 0 00.36 2.07 5.21 5.21 0 001 1.68 4.73 4.73 0 001.53 1.12 4.58 4.58 0 002 .42 4.69 4.69 0 002.09-.46 4.8 4.8 0 001.6-1.32l1.14.95a5.25 5.25 0 01-2.08 1.69 6.71 6.71 0 01-2.75.54 6.55 6.55 0 01-2.55-.5 6.17 6.17 0 01-2.06-1.4 6.31 6.31 0 01-1.37-2.11 7.1 7.1 0 01-.5-2.68 7.11 7.11 0 01.48-2.63 6.32 6.32 0 011.34-2.13 6.44 6.44 0 012-1.42 6.37 6.37 0 012.62-.51 6.85 6.85 0 012.5.47 4.59 4.59 0 012 1.53zM122.2.32h1.51v11.34h5.84v1.41h-7.35zm17.1 0h8v1.41h-6.5v4h6.07v1.4h-6.07v4.53h6.83v1.41h-8.33zm22.92 0h1.42l5.42 12.75h-1.77L166 9.94h-6.38l-1.31 3.13h-1.71zm.68 2l-2.64 6.26h5.2zm15.95-2h1.91l7.38 10.59V.32h1.51v12.75h-1.9L180.4 2.48v10.59h-1.51zm21.42 11.02l4.8-4.68c.3-.29.57-.56.8-.8a6.45 6.45 0 00.56-.72 3.21 3.21 0 00.34-.73 3.15 3.15 0 00.1-.85 2.19 2.19 0 00-.18-.9 2 2 0 00-.49-.66 2.18 2.18 0 00-.74-.43 2.67 2.67 0 00-.91-.16A2.33 2.33 0 00203 2a2.58 2.58 0 00-.81 1.48l-1.64-.15a4.2 4.2 0 01.45-1.41 3.27 3.27 0 01.88-1 3.78 3.78 0 011.2-.61 5.06 5.06 0 011.44-.2 4.84 4.84 0 011.48.22 3.64 3.64 0 011.23.66 3.12 3.12 0 01.85 1.08 3.37 3.37 0 01.32 1.49 4.19 4.19 0 01-.21 1.37 5 5 0 01-.56 1.13 8 8 0 01-.79 1c-.29.3-.6.61-.93.91L202 11.63h6.5v1.41h-8.21zm17.89-4.64a14.8 14.8 0 01.18-2.25 7 7 0 01.66-2.14 4.32 4.32 0 011.33-1.58 4 4 0 014.3 0A4.32 4.32 0 01226 2.31a7 7 0 01.67 2.14 14.8 14.8 0 01.18 2.25 14.8 14.8 0 01-.23 2.3 6.9 6.9 0 01-.67 2.13 4.32 4.32 0 01-1.32 1.58 4 4 0 01-4.3 0 4.32 4.32 0 01-1.33-1.63 6.9 6.9 0 01-.66-2.08 14.8 14.8 0 01-.18-2.3zm1.51 0v1c0 .34.07.77.13 1.16a7.32 7.32 0 00.29 1.14 3.54 3.54 0 00.5 1 2.57 2.57 0 00.77.7 2.37 2.37 0 002.16 0 2.69 2.69 0 00.77-.7 3.83 3.83 0 00.5-1 7.32 7.32 0 00.29-1.14c.06-.39.11-.78.13-1.16s0-.73 0-1v-1c0-.34-.07-.77-.13-1.16a7.32 7.32 0 00-.29-1.14 4.18 4.18 0 00-.5-1 2.52 2.52 0 00-.77-.69 2.29 2.29 0 00-2.16 0 2.41 2.41 0 00-.77.69 3.83 3.83 0 00-.5 1 7.32 7.32 0 00-.29 1.14c-.06.39-.11.78-.13 1.16s0 .68 0 1zM246.1 3a3.73 3.73 0 00-1.43-1.16 4.14 4.14 0 00-1.76-.39 4.36 4.36 0 00-1.95.44A4.64 4.64 0 00239.42 3a5.31 5.31 0 00-1 1.69 5.68 5.68 0 00-.36 2 5.85 5.85 0 00.36 2.07 5 5 0 001 1.68 4.67 4.67 0 003.5 1.54 4.69 4.69 0 002.09-.46 4.9 4.9 0 001.6-1.32l1.13.95a5.18 5.18 0 01-2.08 1.69 7 7 0 01-5.3 0 6.38 6.38 0 01-2.06-1.4 6.46 6.46 0 01-1.37-2.11 7.1 7.1 0 01-.49-2.68 7.11 7.11 0 01.48-2.63 6.17 6.17 0 011.34-2.13A6.34 6.34 0 01242.91 0a6.84 6.84 0 012.49.47 4.56 4.56 0 012 1.53z" fill="#fff" data-name="レイヤー 2"/></svg>