<svg xmlns="http://www.w3.org/2000/svg" viewBox="0 0 23.72 16.9"><path d="M23.69.5a.87.87 0 00-.07-.17V.28l-.05-.05a.71.71 0 00-.17-.11A.75.75 0 0023 0H.69a.68.68 0 00-.46.18L.18.23v.06A.36.36 0 000 .5a.54.54 0 000 .19v15.53a.85.85 0 000 .23v.05l.09.08H23a.75.75 0 00.26 0 .69.69 0 00.17-.1.47.47 0 00.1-.1l.06-.08a1.11 1.11 0 00.07-.16 1.48 1.48 0 000-.19V.69a1.08 1.08 0 00.03-.19zM23 16.15a.6.6 0 01-.47.22.67.67 0 01-.4-.14l-.66-.55-7.72-6.43-.75.61a1.8 1.8 0 01-1.16.42 1.85 1.85 0 01-1.17-.42L10 9.25l-7.72 6.43-.66.55a.62.62 0 01-.39.14.59.59 0 01-.47-.22.6.6 0 01.07-.86l.4-.33L9 8.45 1.23 2l-.4-.33A.61.61 0 01.76.76a.61.61 0 01.86-.08l.66.55 9.2 7.69a.6.6 0 00.76 0l9.19-7.69.66-.55a.61.61 0 11.79.94l-.39.38-7.79 6.45L22.49 15l.39.33a.61.61 0 01.12.82z" fill="#5fc1c7" data-name="レイヤー 2"/></svg>