<svg xmlns="http://www.w3.org/2000/svg" viewBox="0 0 960 368.21"><defs><style>.cls-1,.cls-14,.cls-8{fill:#776a9d}.cls-1{stroke:#5359a6;stroke-width:.85px}.cls-1,.cls-2,.cls-3,.cls-4{stroke-linecap:round;stroke-linejoin:round}.cls-10,.cls-16,.cls-2{fill:#69bd83}.cls-2{stroke:#73ca9b}.cls-2,.cls-4{stroke-width:.57px}.cls-13,.cls-3,.cls-7{fill:#5fc1c7}.cls-3{stroke:#5fc1c7;stroke-width:1.13px}.cls-15,.cls-4,.cls-9{fill:#6c9bd2}.cls-4{stroke:#5c9ebc}.cls-17,.cls-5{fill:#b5d681}.cls-11,.cls-12{fill:#cacaca}.cls-12,.cls-13,.cls-14,.cls-15,.cls-16,.cls-17{fill-rule:evenodd}</style></defs><g id="レイヤー_2" data-name="レイヤー 2"><g id="文字"><path class="cls-1" d="M322 209.05a8 8 0 108 8 8 8 0 00-8-8zm0 14.81a6.81 6.81 0 116.81-6.8 6.81 6.81 0 01-6.81 6.8z"/><path class="cls-1" d="M326.06 214.85h-2.37l-.82-2.7a.61.61 0 00-.58-.43.61.61 0 00-.58.43l-.81 2.7h-2.39a.6.6 0 00-.37 1.07l1.94 1.53-.89 2.83a.57.57 0 00.23.67.53.53 0 00.34.11.58.58 0 00.37-.13l2.16-1.71 2.17 1.71a.6.6 0 00.71 0 .59.59 0 00.23-.67l-.9-2.84 1.94-1.52a.6.6 0 00-.38-1.07zm-2.83 2.58v.08l.4 1.26-1-.79a.59.59 0 00-.74 0l-1 .78.43-1.34a.62.62 0 00-.2-.66l-.91-.71h1.09a.6.6 0 00.58-.43l.37-1.23.38 1.23a.6.6 0 00.57.43h1.09l-.91.71a.59.59 0 00-.15.67zm-29.91-25.86c1.45 5.1 5.51 8.22 8.61 8.22 3.53 0 7.31-3.65 8.61-8.24a3.15 3.15 0 002.24-1.26 4.9 4.9 0 00.38-4.55 2.41 2.41 0 00-1.63-1.51c.15-.91.32-2 .43-3v-.35c.25-2.1.43-3.63-.77-5.87a10.41 10.41 0 01-.78-1.78.6.6 0 00-1-.62c-1 .89-1.78.46-3-.31a6 6 0 00-1.26-.69 15.91 15.91 0 00-7.12-.34c-3.56.6-5.45 2.22-6.54 5.6a12.87 12.87 0 000 5.47c.09.57.22 1.3.35 2a2.41 2.41 0 00-1.33 1.4 4.87 4.87 0 00.39 4.55 3.18 3.18 0 002.42 1.28zm-1.62-5.43a1.11 1.11 0 01.43-.55c.2 1 .38 1.86.39 1.93a.6.6 0 00.59.48h.12a.6.6 0 00.47-.71s-.71-3.39-1-5.14a12.31 12.31 0 010-4.92c.94-2.93 2.51-4.27 5.59-4.78a14.63 14.63 0 016.52.28 6 6 0 011 .57c.9.58 2.2 1.42 3.61.75a12.56 12.56 0 00.72 1.52c1 1.91.88 3.13.64 5.16v.35c-.11.92-.27 2-.44 3a.59.59 0 00-.51.61.6.6 0 00.32.52c-.19 1.09-.35 1.91-.38 2.05l.57.18-.19-.57.19.57.22.56c.35-.14.35-.15.77-2.55a1.27 1.27 0 01.71.71 3.72 3.72 0 01-.22 3.42 2 2 0 01-1.7.81.59.59 0 00-.62.45c-1.17 4.8-4.84 7.77-7.56 7.77s-6.5-3.19-7.6-7.94a.6.6 0 00-.68-.46.61.61 0 00-.34.17 1.94 1.94 0 01-1.4-.8 3.69 3.69 0 01-.22-3.44z"/><path class="cls-1" d="M293.94 183.86a.6.6 0 00.59-.47c.21-.95.6-2.52 1-4.07l.37.23c.24.15.47.29.59.38a.59.59 0 00.71 0s1.72-1.21 6-1.21a7.43 7.43 0 013.46.68 4.73 4.73 0 012.26 2.8.6.6 0 001.11-.46 6 6 0 00-2.81-3.4 8.49 8.49 0 00-4-.82 13.45 13.45 0 00-6.29 1.22l-.33-.21c-.34-.21-.72-.45-1-.67a.62.62 0 00-.56-.09.61.61 0 00-.38.42c-.46 1.81-1 3.81-1.22 4.94a.61.61 0 00.46.72zM312.68 221h-29.44v-3.43h.32c1.4 0 4.6-.85 5.26-3.41a30.5 30.5 0 00.42-6.28v-4.29h.13c1.07-.6 2.16-1.09 3.31-1.61.89-.4 1.81-.82 2.71-1.29l5.97 19.31a.61.61 0 00.57.43.61.61 0 00.58-.43l5.89-19.13c.93.48 1.87.89 2.79 1.29a19.43 19.43 0 016.43 3.92 7.85 7.85 0 011.29 1.83.59.59 0 00.72.28.61.61 0 00.33-.83 8.76 8.76 0 00-1.5-2.12 20.85 20.85 0 00-6.81-4.18c-1.1-.48-2.24-1-3.34-1.59a.59.59 0 00-.52 0 .58.58 0 00-.35.38l-3 9.83-.92-4.45.69-1.6.58.38a.58.58 0 00.33.1.6.6 0 00.55-.35.62.62 0 00-.25-.77l-3.19-2.11a.6.6 0 00-.63 0l-3.21 1.88a.63.63 0 00-.28.75.6.6 0 00.87.3l.55-.32.87 1.88-.91 4.44-3.09-10.07a.61.61 0 00-.87-.35c-1.07.59-2.19 1.1-3.28 1.59s-2 .9-2.94 1.42V201c0-1.57-.94-2.4-1.86-2.4s-1.86.82-1.86 2.37v2.34a1.82 1.82 0 00-1.9.52l-.12.15a1.81 1.81 0 00-1-.31 2 2 0 00-2 2h-.29a2.13 2.13 0 00-1.94 2.34v3.86c0 2.9 1.44 5 3.79 5.59v3.62h-5.85a.63.63 0 00-.63.5.6.6 0 00.6.7h36.52a.59.59 0 00.59-.6.58.58 0 00-.68-.68zm-10.82-19l1.31.86-.67 1.56h-1.18l-.77-1.65zm-1.66 10.1l1.34-6.46h.84l1.32 6.36-1.77 5.74-1.73-5.66zm-20.75-.28c0-.86 0-1.49.05-2.1s0-1.1 0-1.76.43-1.13.74-1.13a.23.23 0 01.17.07.65.65 0 01.11.37v1.14a.61.61 0 001.21 0v-2.7a.76.76 0 011.17-.73.63.63 0 01.17.43v2.09a.61.61 0 001.21 0v-2a1.28 1.28 0 01.27-.89.61.61 0 01.46-.22.56.56 0 01.55.63v1.89a.6.6 0 101.2 0v-5.99c0-.64.33-1.16.66-1.16s.65.41.65 1.19V211l-2.41-1.58a1.79 1.79 0 00-2.44.5 1.74 1.74 0 00.49 2.42l1.9 1.28a.59.59 0 00.84-.16.61.61 0 00-.16-.83l-1.91-1.29a.54.54 0 01-.24-.35.52.52 0 01.08-.4.58.58 0 01.79-.16l3 1.95a11.37 11.37 0 01-.25 1.53c-.46 1.76-2.91 2.51-4.1 2.51-2.66-.03-4.21-1.79-4.21-4.6z"/><path class="cls-2" d="M673.63 213.51l-4.47 5.33-1.72-1.93a.6.6 0 00-.86 0 .61.61 0 00-.05.86l2.18 2.46a.61.61 0 00.46.2.58.58 0 00.45-.22l4.93-5.86a.61.61 0 10-.93-.79z"/><path class="cls-2" d="M670.66 208.83a8.12 8.12 0 108.12 8.11 8.12 8.12 0 00-8.12-8.11zm0 15a6.9 6.9 0 116.9-6.9 6.9 6.9 0 01-6.9 6.91z"/><path class="cls-2" d="M669.68 207a.61.61 0 00.61-.61v-27.18a.62.62 0 00-.61-.61h-5.53V177a.61.61 0 00-.17-.43.6.6 0 00-.44-.18h-1.43V176a.81.81 0 00-.92-.92h-12.62a.76.76 0 00-.62.22.78.78 0 00-.24.62v.51h-1.48a.61.61 0 00-.61.61v1.62H640a.61.61 0 00-.61.61v38.72a.61.61 0 00.61.61h20.42a.61.61 0 000-1.22h-19.81v-37.5h5v.05a.79.79 0 00.19.65.86.86 0 00.67.25h7.13a2.15 2.15 0 00.56.54 1.28 1.28 0 00.71.2 1.8 1.8 0 00.5-.08 1.57 1.57 0 00.94-.71h6.95a.92.92 0 00.7-.26.85.85 0 00.19-.65h4.91v26.56a.61.61 0 00.62.57zm-20.76-30.53a1.48 1.48 0 010-.21h12v1.35h-12v-1.14zm11.35 3h-4.06a1 1 0 00-.94.6c0 .13-.34.21-.42.2a1 1 0 01-.25-.25 1 1 0 00-.89-.5h-6.87v-2h.87v.48a.76.76 0 00.85.85h12.69a.78.78 0 00.86-.87v-.37h.82v1.92z"/><path class="cls-2" d="M660.55 220.27h-22.47v-46h33.52v32.24a.61.61 0 00.61.61.61.61 0 00.61-.61v-32.83a.61.61 0 00-.61-.61h-34.74a.61.61 0 00-.61.61v47.2a.6.6 0 00.61.6h23.08a.61.61 0 100-1.21z"/><path class="cls-2" d="M665.33 205a.61.61 0 00-.61-.61h-15.23a.61.61 0 000 1.22h15.23a.61.61 0 00.61-.61zm-.61-5.26h-15.23a.61.61 0 100 1.22h15.23a.61.61 0 100-1.22zm0-4.61h-15.23a.62.62 0 00-.61.61.61.61 0 00.61.61h15.23a.61.61 0 00.61-.61.61.61 0 00-.61-.61zm0-4.61h-15.23a.62.62 0 00-.61.61.61.61 0 00.61.61h15.23a.61.61 0 00.61-.61.61.61 0 00-.61-.61zm0-4.6h-15.23a.61.61 0 00-.61.61.62.62 0 00.61.61h15.23a.61.61 0 00.61-.61.61.61 0 00-.61-.61zm-15.1 24.26a.61.61 0 100 1.22h10.62a.61.61 0 100-1.22zm-2.11-25.88a.61.61 0 00-.61-.61h-3.58a.61.61 0 00-.61.61v3.58a.61.61 0 00.61.61h3.58a.61.61 0 00.61-.61zm-1.22 3h-2.36v-2.36h2.36zm1.22 3.11a.61.61 0 00-.61-.61h-3.58a.61.61 0 00-.61.61V194a.61.61 0 00.61.61h3.58a.61.61 0 00.61-.61zm-1.22 3h-2.36V191h2.36zm1.22 3.12a.61.61 0 00-.61-.61h-3.58a.61.61 0 00-.61.61v3.58a.61.61 0 00.61.61h3.58a.61.61 0 00.61-.61zm-1.22 3h-2.36v-2.36h2.36zm1.22 3.11a.61.61 0 00-.61-.61h-3.58a.61.61 0 00-.61.61v3.58a.61.61 0 00.61.61h3.58a.61.61 0 00.61-.61zm-1.22 3h-2.36v-2.36h2.36zm.61 2.5h-3.58a.61.61 0 00-.61.61v3.59a.61.61 0 00.61.61h3.58a.61.61 0 00.61-.61v-3.59a.61.61 0 00-.61-.61zm-.61 3.59h-2.36v-2.36h2.36z"/><path class="cls-3" d="M133.52 200.81a.57.57 0 00-.57.58v18a.57.57 0 101.14 0v-18a.57.57 0 00-.57-.58zm-34.71 0a.58.58 0 00-.58.58v18a.58.58 0 00.58.58.57.57 0 00.57-.58v-18a.57.57 0 00-.57-.58zm21.3 5.56H112a.57.57 0 00-.57.58v12.43a.57.57 0 00.57.58.58.58 0 00.58-.58v-11.86h7v11.86a.58.58 0 101.15 0V207a.58.58 0 00-.62-.63zm16.89-11.7l-3.25-10a.58.58 0 00-.55-.4H98.84a.58.58 0 00-.55.4L95 194.77v.12a4.65 4.65 0 004.67 4.56 4.7 4.7 0 004.1-2.4 4.7 4.7 0 008.2 0 4.7 4.7 0 008.2 0 4.69 4.69 0 008.19 0 4.69 4.69 0 008.78-2.21.54.54 0 00-.14-.17zm-37.39 3.74a3.49 3.49 0 01-3.48-3.41l3.12-9.62h5.64l-1.71 9.44v.05a3.49 3.49 0 01-3.53 3.54zm8.2 0a3.51 3.51 0 01-3.53-3.42l1.73-9.58H112l-.58 9.51a3.49 3.49 0 01-3.57 3.49zm8.2 0a3.5 3.5 0 01-3.53-3.45l.58-9.55H119l.57 9.55a3.49 3.49 0 01-3.52 3.45zm8.2 0a3.5 3.5 0 01-3.53-3.46l-.57-9.51H126l1.73 9.58a3.5 3.5 0 01-3.48 3.39zm8.19 0a3.49 3.49 0 01-3.52-3.46v-.05l-1.7-9.44h5.61l3.14 9.65a3.49 3.49 0 01-3.49 3.3zM155.86 172a21.46 21.46 0 00-9.67-2 21 21 0 00-9.56 2.09c-1.87 1-3.93 2.73-3.79 5.06.19 3.13 3.63 4.86 6.33 5.73a2.88 2.88 0 01-1.58 1.56c-.45.19-.25.83.13 1a4.3 4.3 0 003.42-.26 4 4 0 001.18-1c.17-.2.29-.42.44-.62h.32c.38 0 .75.1 1.12.15a15.53 15.53 0 001.8.11 25.76 25.76 0 002.91-.13c2.94-.29 6.25-.86 8.69-2.66a5.08 5.08 0 002.27-4.06c-.03-2.33-2.08-3.97-4.01-4.97zm-13.12 11.56c-.07.05-.09 0 0 0zm10.52-1.7a23.8 23.8 0 01-9.49.75 3.61 3.61 0 00-1.31-.06c-.53.12-.64.63-1 1a3.05 3.05 0 01-2.22 1 3.84 3.84 0 001.07-1.9.54.54 0 00-.37-.64 13.47 13.47 0 01-4.07-1.88 4.66 4.66 0 01-1.94-2.57c-.47-2 1.32-3.52 2.84-4.38a18.55 18.55 0 018.33-2.12 22.19 22.19 0 019.13 1.33c1.89.74 4.53 2.2 4.56 4.55 0 2.94-3.17 4.27-5.53 4.93z"/><path class="cls-3" d="M149.87 172.81l-4.82 5.74-1.84-2.08a.66.66 0 00-1 .88l2.35 2.64a.64.64 0 00.49.22.65.65 0 00.49-.23l5.31-6.32a.66.66 0 00-.08-.93.67.67 0 00-.9.08z"/><path class="cls-4" d="M492 194.82a1.45 1.45 0 001.13-.53l2.1 1a1.55 1.55 0 000 .31 1.48 1.48 0 002.95 0 1.42 1.42 0 00-.35-.94l3-4a1.56 1.56 0 00.57.11 1.47 1.47 0 001.09-.49l2.16 1.15a1.34 1.34 0 00-.05.35 1.48 1.48 0 10.38-1l-2.15-1.14a2.2 2.2 0 000-.36 1.47 1.47 0 10-2.61.94l-3 4a1.46 1.46 0 00-1.69.43l-2.1-1a1.45 1.45 0 000-.3 1.48 1.48 0 10-1.47 1.47zm14-3.82a.77.77 0 01.77.76.78.78 0 01-.77.77.77.77 0 01-.76-.77.76.76 0 01.76-.76zm-4.67-2.48a.76.76 0 110 1.52.76.76 0 110-1.52zm-4.68 6.34a.77.77 0 110 1.53.77.77 0 010-1.53zm-4.65-2.27a.76.76 0 11-.77.76.76.76 0 01.77-.76zm5.81 5.64h-2.23a.38.38 0 00-.38.38v4.51a.38.38 0 10.76 0V199h1.46v4.13a.39.39 0 00.77 0v-4.51a.39.39 0 00-.38-.39zm9.35-3.92h-2.23a.38.38 0 00-.38.38v8.43a.38.38 0 00.76 0v-8h1.46v8a.39.39 0 00.39.38.38.38 0 00.38-.38v-8.43a.38.38 0 00-.38-.38zm-14.03 1.62h-2.23a.39.39 0 00-.38.38v6.81a.38.38 0 00.38.38.39.39 0 00.39-.38v-6.42h1.46v6.42a.38.38 0 00.76 0v-6.81a.39.39 0 00-.38-.38z"/><path class="cls-4" d="M502.48 192.48h-2.23a.38.38 0 00-.38.38v10.26a.39.39 0 00.77 0v-9.88h1.46v9.88a.38.38 0 00.76 0v-10.26a.38.38 0 00-.38-.38zm-30.31 17.1H456.3a.41.41 0 00-.41.41.41.41 0 00.41.42h15.87a.42.42 0 00.42-.42.41.41 0 00-.42-.41zm-17.52 0h-2.34a.41.41 0 00-.41.41.41.41 0 00.41.42h2.34a.41.41 0 00.41-.42.41.41 0 00-.41-.41zm17.52-4.41h-12.33a.41.41 0 00-.41.41.42.42 0 00.41.42h12.33a.42.42 0 00.42-.42.41.41 0 00-.42-.41zm-19.86.83H458a.41.41 0 00.41-.42.41.41 0 00-.41-.41h-5.71a.41.41 0 00-.41.41.41.41 0 00.43.42zm19.86-5.24h-4a.41.41 0 00-.42.41.42.42 0 00.42.42h4a.42.42 0 00.42-.42.41.41 0 00-.42-.41zm-19.86.83h14.35a.42.42 0 00.41-.42.41.41 0 00-.41-.41h-14.35a.41.41 0 00-.41.41.41.41 0 00.41.42zm19.86-5.24h-4.59a.41.41 0 00-.41.41.41.41 0 00.41.42h4.59a.42.42 0 00.42-.42.41.41 0 00-.42-.41zm-19.86.83h13.42a.42.42 0 00.42-.42.41.41 0 00-.42-.41h-13.42a.41.41 0 00-.41.41.41.41 0 00.41.42zm19.86-5.24h-15.38a.41.41 0 00-.42.41.42.42 0 00.42.42h15.38a.42.42 0 00.42-.42.41.41 0 00-.42-.41zm-19.86.83h2.63a.42.42 0 00.41-.42.41.41 0 00-.41-.41h-2.63a.41.41 0 00-.41.41.41.41 0 00.41.42z"/><path class="cls-4" d="M476.85 186.58v-.09l-6.09-6.23a.27.27 0 00-.08-.07.37.37 0 00-.18 0H448a.41.41 0 00-.41.42v37.81a.41.41 0 00.41.42h28.4a.42.42 0 00.42-.42v-31.81s.03-.02.03-.03zm-28.39 31.2v-37h21.48v5.82a.41.41 0 00.42.41h3.41a.41.41 0 00.42-.41.42.42 0 00-.42-.42h-3v-4.78l5.26 5.38v31zm60.21-8.2h-15.88a.41.41 0 00-.41.41.42.42 0 00.41.42h15.88a.41.41 0 00.41-.42.41.41 0 00-.41-.41zm-17.53 0h-2.33a.41.41 0 00-.42.41.42.42 0 00.42.42h2.33a.42.42 0 00.42-.42.41.41 0 00-.42-.41zm17.53-4.41h-12.33a.41.41 0 00-.42.41.42.42 0 00.42.42h12.33a.41.41 0 00.41-.42.41.41 0 00-.41-.41zm-19.86.83h5.7a.42.42 0 00.42-.42.41.41 0 00-.42-.41h-5.7a.41.41 0 00-.42.41.42.42 0 00.42.42z"/><path class="cls-4" d="M513.35 186.58a.09.09 0 000-.05l-6.08-6.23-.09-.07a.41.41 0 00-.19 0h-22.45a.42.42 0 00-.42.42v37.81a.42.42 0 00.42.42h28.4a.42.42 0 00.41-.42v-31.88zM485 217.78v-37h21.49v5.82a.41.41 0 00.41.41h3.42a.41.41 0 00.41-.41.41.41 0 00-.41-.42h-3v-4.78l5.25 5.38v31z"/><path class="cls-5" d="M832.61 209c-3.15.84-5.13 3.65-4.43 6.27s3.82 4.07 7 3.22 5.13-3.65 4.43-6.27-3.86-4.05-7-3.22zm1.78 6.64a2 2 0 111.77-2.51 2.19 2.19 0 01-1.77 2.53z"/><path class="cls-5" transform="rotate(-14.99 843.06 211.36)" d="M841.09 206.44h3.56v9.83h-3.56z"/><path class="cls-5" d="M847.05 210.89l-3.13.84-.34-1.07 2.58-5.28 4.52-1.21-3.63 6.72z"/><path class="cls-5" d="M846.72 209.66l-3.13.84.24 1.1 5.47 3.12 4.52-1.21-7.1-3.85z"/><path class="cls-5" d="M857.3 207.49c-1.67-6.25-7.84-10.46-15.36-10.5a16.21 16.21 0 01-1.92 2.79c.6-.06 1.21-.09 1.81-.09 6.33 0 11.5 3.41 12.86 8.5a11.07 11.07 0 01-1.9 9.31 16.56 16.56 0 01-9.28 6.25 17.82 17.82 0 01-4.61.62c-6.33 0-11.5-3.42-12.87-8.5a10.75 10.75 0 011-7.86 21.13 21.13 0 01-3.24.69 13.1 13.1 0 00-.38 7.86c1.68 6.28 7.9 10.5 15.47 10.5a20.49 20.49 0 005.31-.7 19.23 19.23 0 0010.81-7.31 13.68 13.68 0 002.3-11.56zm-17.25-16.39l-1.21-2.1c-1.3-2.27-5.38-2.5-10-.87-1.63-2.73-2.34-2.6-3.27-2.91a2.44 2.44 0 01-1.5-1.41l-1.28-2.21c1.79-1.6 2.66-3.35 2-4.44a1.24 1.24 0 00-.17-.23l-2.85-3.43c-.76-1.33-3.74-1-6.64.64s-4.64 4.11-3.87 5.43l1.54 4.18a1.23 1.23 0 00.12.26c.63 1.09 2.58 1.21 4.86.47l1.27 2.2a2.43 2.43 0 01.47 2c-.2 1-.66 1.51.89 4.29-3.73 3.21-5.58 6.86-4.27 9.13l1.21 2.08c1.71 3 8.18 2.44 14.45-1.18s9.96-8.93 8.25-11.9zm28.11 6.59l-9.93 1.47 8.17-4.36 1.76 2.89zm-5.28-8.5l-7.44 7.05 4.07-9.4 3.37 2.35zm-9.84-3.75l-1.31 9.18-2.01-9.84 3.32.66z"/><path d="M78.79 311.38v3.09a34.67 34.67 0 003.42-.78v1A54.19 54.19 0 0176.5 316l-.6.14-.24-1.25h.12a18.28 18.28 0 001.89-.19v-8.1a18.12 18.12 0 01-2.09 1 3 3 0 00-.59-1.12 15 15 0 003.91-1.92 10 10 0 002.34-2.15h1.24a10.88 10.88 0 002.69 2.3 16.12 16.12 0 003.78 1.75 4.87 4.87 0 00-.63 1.16 17.32 17.32 0 01-2.18-1.05 8.93 8.93 0 000 .94v2.73a10.64 10.64 0 000 1.08l.5-.52 1 .63a25 25 0 01-2.88 2.26 12.08 12.08 0 003.9 1.23 5.42 5.42 0 00-.6 1.17 12.36 12.36 0 01-5.28-2.43 7.53 7.53 0 01-2-2.28zm5.85-5.16h.86a14.19 14.19 0 01-3.66-2.91 13.82 13.82 0 01-3.51 2.91h2.94v-.48a4.86 4.86 0 00-.09-1.08h1.24a5.28 5.28 0 00-.07 1.08v.48zm-5.85 2.06H85v-1.1h-6.2zm0 2.16H85v-1.23h-6.2zm3.27.94a5.85 5.85 0 001.76 1.74 13.38 13.38 0 002.2-1.71h-1.27zm10.1-.6a12.67 12.67 0 00-.06-1.44 11.82 11.82 0 001.41.06h4.14a8.67 8.67 0 00-.05 1.38v3.61a12.29 12.29 0 00.06 1.44h-1.15v-.63h-3.23v.9h-1.2a9 9 0 00.08-1.57zm1.11 3.38h3.24v-3.75h-3.24zm1-10.05a9.81 9.81 0 00-.06-1.28 12.55 12.55 0 001.7.08H101a11.46 11.46 0 001.7-.08 9.29 9.29 0 00-.06 1.28v2.59a10 10 0 00.06 1.34 13.12 13.12 0 00-1.58-.06h-5.33a13.32 13.32 0 00-1.58.06 10.38 10.38 0 00.06-1.32zm1.14 2.89h6.09v-3h-6.09zm3.59 3.62a8 8 0 000-1.26h4.58a8.93 8.93 0 001.3-.06c0 .41-.06.86-.06 1.46v3.69a9.51 9.51 0 00.08 1.57h-1.2v-.9h-3.56v.9h-1.2a12.49 12.49 0 00.06-1.42zm1.09 3.54h3.57v-3.75h-3.57zm13.1-8.52c.16-.45.22-.63.37-1.16h-.25a8.15 8.15 0 00-1.22.08v-1a7.75 7.75 0 001.25.07h.46a7.51 7.51 0 00.24-1.27l1.1.15a2.22 2.22 0 00-.12.45c0 .13 0 .18-.18.67h2.43v2.06a5.07 5.07 0 00.93-.08v.89a5.65 5.65 0 00.82 0h1.8a5 5 0 001.08-.07v1.15a5.45 5.45 0 00-1.08-.07h-.19v7c0 1.08-.29 1.29-1.74 1.29h-1a3.29 3.29 0 00-.23-1.13 9.71 9.71 0 001.41.14c.35 0 .44-.08.44-.32v-7H119a3.86 3.86 0 00-.9.07v-1a7.52 7.52 0 00-1-.06h-4.16a7 7 0 00-1.24.08l-.41.69a11.64 11.64 0 01-.67 1v5.9a9.6 9.6 0 00.09 1.72h-1.31a11.66 11.66 0 00.08-1.75v-4.74a9.38 9.38 0 01-1.14 1.2 3.55 3.55 0 00-.56-1.07 8.43 8.43 0 002.25-2.43 4.89 4.89 0 00.65-1.29l.9.53v-.74a6 6 0 001.21.08zM111.7 303c-.18.21-.18.21-.57.72a13 13 0 01-2.5 2.52 3.3 3.3 0 00-.63-.94 8.17 8.17 0 002.69-2.93zm1.74 7.11c-.58 0-.94 0-1.33.05a8.31 8.31 0 000-1v-.9a7.21 7.21 0 000-.89 10.45 10.45 0 001.12.05h3c.58 0 .94 0 1.27-.05a9 9 0 000 1v.78a8.75 8.75 0 000 1c-.28 0-.75-.05-1.29-.05H116v.9h.61c.54 0 .89 0 1.35-.06v1a13.25 13.25 0 00-1.35-.06H116v1.19h.88a10.52 10.52 0 001.43-.08v1.05A12.43 12.43 0 00117 314h-1v.64a8.83 8.83 0 00.09 1.34h-1.19a8.83 8.83 0 00.09-1.34V314h-2.34a10.22 10.22 0 00-1.41.07v-1a9 9 0 001.19.06v-1.19l-.84.06v-1c.48 0 .85.06 1.35.06h2v-.92zm-.25-.82h3.3v-1h-3.3zm.19 3.81H115v-1.19h-1.59zm2.85-7.44v-1.16h-1.63c-.15.51-.23.71-.39 1.16zm5.33-1.26a4.92 4.92 0 00-1-.08h-1.62a6.06 6.06 0 00-.79.06v-1.14a5.53 5.53 0 001 .08h1.41a5.49 5.49 0 001-.08zm6.12 2.15a14.75 14.75 0 01-2 3.17 3.56 3.56 0 00-1-.8 12.08 12.08 0 002.63-4.56 4.3 4.3 0 00.33-1.41l1.29.35a8.56 8.56 0 00-.28.82c-.08.24-.33.92-.49 1.35h2.92V304a10.62 10.62 0 00-.11-1.65h1.4a10 10 0 00-.09 1.65v1.45h3.54a15.76 15.76 0 001.8-.09v1.26a16.91 16.91 0 00-1.77-.09h-3.57v3.06h2.92a12 12 0 001.68-.09v1.25a12.63 12.63 0 00-1.68-.09h-2.92v3.69h4a12.22 12.22 0 001.86-.11v1.29a14.74 14.74 0 00-1.83-.1h-9.51a15.53 15.53 0 00-1.87.1v-1.29a12.63 12.63 0 001.84.11h4.28v-3.69h-2.61a11.93 11.93 0 00-1.65.09v-1.25a11.13 11.13 0 001.63.09h2.63v-3.06zm15.18 5.69a12.18 12.18 0 00-.06-1.25 11 11 0 001.38.06h7.5a13.09 13.09 0 001.44-.06 6.74 6.74 0 00-.08 1.19v2.4h.5a9 9 0 001.18-.06v1.14a14.61 14.61 0 00-1.56-.08h-10.35a11.74 11.74 0 00-1.52.08v-1.14a8.77 8.77 0 001.12.06h.45zm2.91-3.09h1.33a10.68 10.68 0 001.2 0v1a7.56 7.56 0 00-1.18-.06h-5.28a9 9 0 00.05-1.17v-4.87a8.47 8.47 0 00-.05-1.1h5.04a8.2 8.2 0 001.38-.08V304a9.12 9.12 0 00-1.14-.06h-1.39v1.19h1a7.22 7.22 0 001 0v2.79h-1.95zm-1-4V304H143v1.19zm1.92 1.89V306H143v1.05zm-3.75.84v1.26h1.83v-1.26zm1 6.69h1.94V312H144zm3 0h2V312h-2zm3.11-9.06a8.83 8.83 0 01-1.29 1.81 3 3 0 00-.84-.72 7.48 7.48 0 001.89-3.24 4.79 4.79 0 00.22-1l1.2.24c0 .13-.07.21-.24.66 0 .13-.15.42-.46 1.21h2.71a8.47 8.47 0 001.34-.09v1.2a8.24 8.24 0 00-1.32-.07zm-.9 2.29a7.22 7.22 0 001.15.06h2.49a8.17 8.17 0 001.32-.07V309a7.53 7.53 0 00-1.3-.08h-2.33a8.54 8.54 0 00-1.33.08zm.82 6.77h2V312h-2zm13.84-11a5.28 5.28 0 00-.09-1.19H165a5.5 5.5 0 00-.09 1.17v.32h4.47a11.22 11.22 0 001.58-.09V305a12.15 12.15 0 00-1.58-.09h-3.51a11.41 11.41 0 005.64 3.08 4.74 4.74 0 00-.67 1.12 14.66 14.66 0 01-2.19-.93v6.32h1a9.3 9.3 0 001.57-.09v1.2a12.14 12.14 0 00-1.65-.09h-10.13a12.67 12.67 0 00-1.67.09v-1.2a11.11 11.11 0 001.61.09h.92v-6.39a14.69 14.69 0 01-2.07 1 3.7 3.7 0 00-.67-1 12.75 12.75 0 005.29-3.18h-3.24a11.72 11.72 0 00-1.61.07v-1.18a10.89 10.89 0 001.62.09h4.18zm0 2.44v-.9a11.74 11.74 0 01-3.4 2.88h7.97a10.52 10.52 0 01-3.51-2.88v1.53a4.47 4.47 0 00.08 1h-1.23a6.25 6.25 0 00.07-1zm-2.4 4.16h6.06V309h-6.06zm0 2.11h6.06v-1.17h-6.06zm0 2.18h6.06v-1.23h-6.06zM90.4 334a20.12 20.12 0 004.7-1.51 9 9 0 002.31-1.35l.88 1.21a5.34 5.34 0 00-.64.32 25.91 25.91 0 01-4.35 1.84 20.41 20.41 0 01-2.9.69v2.12a.46.46 0 010 .1v.17c0 1 .06 1.33.3 1.57s1.21.45 2.82.45a31 31 0 003.46-.24 9.63 9.63 0 001.53-.3l.09 1.41-.66.08a44.77 44.77 0 01-4.75.28c-1.86 0-2.85-.18-3.41-.63a2 2 0 01-.64-1.45 9.93 9.93 0 010-1.23v-6.75a9.6 9.6 0 00-.07-1.47h1.48a8.72 8.72 0 00-.09 1.48zm18.02-1.57a4.93 4.93 0 00-.06 1.1c-.06 2.53-.47 4-1.49 5.29a8.48 8.48 0 01-3.85 2.63 3.62 3.62 0 00-.83-1.22 7.1 7.1 0 002.7-1.33c1.58-1.28 2.13-2.73 2.13-5.64a3.35 3.35 0 00-.06-.83zm6-1.89a3.42 3.42 0 00-.38.63 9.16 9.16 0 01-4.35 4.38 3.68 3.68 0 00-.91-1 6.7 6.7 0 002.32-1.41 7.44 7.44 0 001.61-2.13h-8.34a15.41 15.41 0 00-1.85.07v-1.36a12.75 12.75 0 001.88.1h8a3.51 3.51 0 001.32-.1zm5.67-1.27a10.42 10.42 0 00-.06 1.41v3.67a11.48 11.48 0 00.06 1.52h-1.49a10.43 10.43 0 00.08-1.52v-3.66a8.51 8.51 0 00-.08-1.42zm6.69 0a8.36 8.36 0 00-.08 1.47v1.7a16.79 16.79 0 01-.39 4.57 5.72 5.72 0 01-2.86 3.39 12.89 12.89 0 01-2.79 1.08 3.46 3.46 0 00-.75-1.24 8 8 0 003.21-1.22 4.52 4.52 0 002.17-4c0-.64.06-1 .06-2.67v-1.6a9.44 9.44 0 00-.06-1.49zm4.66 10.17a13.68 13.68 0 004.4-1.13 11.23 11.23 0 006.07-6.67 3.86 3.86 0 001.11 1 13.09 13.09 0 01-4.63 5.78 15.3 15.3 0 01-5.63 2.25 6.82 6.82 0 00-.93.24zm1.05-9.3a20 20 0 013.69 2.85l-.91 1.12a17 17 0 00-3.66-3zm24.45 1.45a1.8 1.8 0 00-.25.62 15.41 15.41 0 01-3 5.68 14.77 14.77 0 01-5.25 3.77 2.7 2.7 0 00-.9-1.08 12.68 12.68 0 005.25-3.71 13.13 13.13 0 002.57-4.89l-4.91.08a15 15 0 01-3.55 3.87 2.85 2.85 0 00-1-.92 11.39 11.39 0 003.79-4.18 6.18 6.18 0 00.9-2.13l1.41.3a2.46 2.46 0 00-.33.59 13.9 13.9 0 01-.66 1.3 1.31 1.31 0 01.38 0h.18l3.85-.06a1.7 1.7 0 00.65-.08zm-.34-2.77a9.32 9.32 0 011.3 2l-.88.42a8.93 8.93 0 00-1.28-2.07zm1.51-.57a9.67 9.67 0 011.29 2l-.87.44a9.81 9.81 0 00-1.27-2.06zm-65.05 28.01a7.59 7.59 0 00-1.26.07v-1.18a6.5 6.5 0 001.31.09h2.21a6.08 6.08 0 001.26-.09v1.17a8.48 8.48 0 00-1.2-.06h-.6v3.36h.6a7 7 0 001-.06v1.11a6.53 6.53 0 00-1-.06h-.6V364c.56-.24.92-.42 1.85-.9v1.13a27 27 0 01-3.88 1.72l-.8.33-.33-1.28a13.71 13.71 0 002-.6v-3.81H93a5.34 5.34 0 00-1 .07v-1.14a4.94 4.94 0 001 .08h.64v-3.36zm5.52 7h-1.46v-6.93a13.85 13.85 0 00-.06-1.51 12.39 12.39 0 001.48.06h4.28a12.37 12.37 0 001.42-.06 13.85 13.85 0 00-.06 1.51v5.37c0 .74 0 1.13.06 1.58a9.62 9.62 0 00-1.44-.06h-.58v3.28c0 .26.07.3.52.3h.51c.57 0 .81-.06.89-.21a6.32 6.32 0 00.19-1.85 6 6 0 001.05.47c-.21 2.49-.33 2.62-2.35 2.62-1.62 0-1.92-.16-1.92-1.05v-3.58H100a5.28 5.28 0 01-1.15 3 6.45 6.45 0 01-3.15 2 3.61 3.61 0 00-.74-1 6.47 6.47 0 001.7-.63 3.92 3.92 0 002.23-3.36zm-.32-5.88h4.88v-1.46h-4.88zm0 2.41h4.88v-1.44h-4.88zm0 2.51h4.88v-1.52h-4.88zm11.74-6.07a12.22 12.22 0 00-.09-1.68h1.29a11.17 11.17 0 00-.08 1.69v2.15h.38a5 5 0 001.14-.08v1.16a8 8 0 00-1.17-.06h-.35v4.53c.58-.27.83-.41 1.6-.83l.07 1.11a26.13 26.13 0 01-3.86 1.82 5.08 5.08 0 00-.61.24l-.27-1.22a8.29 8.29 0 001.95-.64v-5h-.49a6.75 6.75 0 00-1.23.07v-1.19a5.48 5.48 0 001.23.09h.49zm4.8 9.67c0 .33.09.45.42.54a11.15 11.15 0 002.36.14c2 0 2.61-.09 2.85-.42a4.32 4.32 0 00.3-2 2.92 2.92 0 001.14.42c-.18 2.85-.45 3-4.47 3-3.09 0-3.72-.25-3.72-1.45v-5.42l-.2.06a9.3 9.3 0 00-1.27.48l-.32-1.18a6 6 0 001.35-.32l.44-.13v-2.22a11 11 0 00-.09-1.55h1.3a9.43 9.43 0 00-.09 1.5v2l2-.65v-2.73a9.88 9.88 0 00-.09-1.42H118a10.53 10.53 0 00-.09 1.45v2.34l2.26-.73a12.28 12.28 0 001.2-.45c-.1 1.5-.1 1.5-.15 2.52a9.86 9.86 0 01-.4 3.34 1.42 1.42 0 01-1.41.66h-.75a3.54 3.54 0 00-.27-1.11 4.69 4.69 0 001.09.13c.33 0 .41-.07.48-.54a30.31 30.31 0 00.23-3.46l-2.28.75v4a8 8 0 00.09 1.46h-1.28a10.24 10.24 0 00.09-1.49v-3.64l-2 .66zm9.99-8.9a6.52 6.52 0 001.21 0h2.48a6 6 0 001.2-.08v1.14a7.35 7.35 0 00-1.1-.06H126a10 10 0 00-1.19.06zm.42 11c0-.4.07-1 .07-1.45v-2.09a9.24 9.24 0 00-.06-1.21 5.34 5.34 0 001 .06h3.06a8.38 8.38 0 000 1.12v3.39h-1v-.63h-2v.81zm.06-8.89a6.14 6.14 0 001 .06h2a5.78 5.78 0 001-.06v1.08a5.38 5.38 0 00-1-.06h-2a5.3 5.3 0 00-1 .06zm0 2.07a6.14 6.14 0 001 .06h2a5.78 5.78 0 001-.06v1.08a5.5 5.5 0 00-1-.06h-2a5.13 5.13 0 00-1 .06zm0-6.3a5.71 5.71 0 001.13.07h1.8a5.66 5.66 0 001.12-.07V356a7.41 7.41 0 00-1.12-.06h-1.8a7.55 7.55 0 00-1.13.06zm1 11.34h2v-2h-2zm11.58.37a1.14 1.14 0 01-.41 1 2.25 2.25 0 01-1.26.22c-.34 0-.75 0-1.44-.06a3.52 3.52 0 00-.24-1.14 10.17 10.17 0 001.68.17c.5 0 .6-.08.6-.42v-10.42h-5.38v1.73a55.8 55.8 0 01-.38 7.48 9.7 9.7 0 01-.87 2.87 3 3 0 00-.91-.74 7.69 7.69 0 00.81-2.8 59.79 59.79 0 00.31-7.14 17 17 0 00-.09-2.45 11.59 11.59 0 001.5.06h4.65a10.87 10.87 0 001.49-.06 12.57 12.57 0 00-.06 1.55zm-4.95-8.11a6.36 6.36 0 00-1 .06v-1a6.79 6.79 0 001 .06h.66v-.15a5.78 5.78 0 00-.07-1.11h1.11a5.45 5.45 0 00-.08 1.13v.13h.69a6.53 6.53 0 001.05-.06v1a6.11 6.11 0 00-1.05-.06h-.69v1.44h.87a4.8 4.8 0 001-.08v1a5.73 5.73 0 00-1-.06h-2.69a5.39 5.39 0 00-1 .06v-1a4.34 4.34 0 001 .08h.84v-1.44zm1.92 3.33a8.18 8.18 0 001.05-.05 7.63 7.63 0 00-.05.95v2a7.57 7.57 0 00.05.94 8.71 8.71 0 00-1.05 0h-1.77v1h-1a7 7 0 00.06-1.17v-2.64a9.21 9.21 0 000-1 9.55 9.55 0 001 .05zm-1.77 2.82h1.84v-1.92h-1.84zm14.26-9.06a5.28 5.28 0 00-.09-1.19h1.26a5.5 5.5 0 00-.09 1.17v.32h4.47a11.22 11.22 0 001.58-.09V357a12.15 12.15 0 00-1.58-.09h-3.51A11.41 11.41 0 00155 360a4.74 4.74 0 00-.67 1.12 14.66 14.66 0 01-2.19-.93v6.32h1a9.3 9.3 0 001.57-.09v1.2a12.14 12.14 0 00-1.65-.09h-10.12a12.67 12.67 0 00-1.67.09v-1.2a11.11 11.11 0 001.61.09h.92v-6.39a14.69 14.69 0 01-2.07 1 3.7 3.7 0 00-.67-1 12.75 12.75 0 005.29-3.18h-3.24a11.72 11.72 0 00-1.56.09v-1.18a10.89 10.89 0 001.62.09h4.18zm0 2.44v-.9a11.74 11.74 0 01-3.4 2.88h7.92a10.52 10.52 0 01-3.51-2.88v1.53a4.47 4.47 0 00.08 1h-1.23a6.25 6.25 0 00.07-1zm-2.4 4.16H151V361h-6.06zm0 2.11H151v-1.17h-6.06zm0 2.18H151v-1.23h-6.06zM274.74 307a14.41 14.41 0 00.06 1.61 14.67 14.67 0 00-1.65-.06H271v4c0 .56.17.63 1.27.63a4.23 4.23 0 001.55-.18c.31-.15.4-.58.4-2.17a4.51 4.51 0 001.14.49 4.56 4.56 0 01-.49 2.36c-.35.4-1.11.58-2.6.58-2 0-2.4-.22-2.4-1.42v-3.77a11.22 11.22 0 00-.07-1.63c.48 0 .87.06 1.54.06h2.35v-3.2h-2.42a11.28 11.28 0 00-1.54.08v-1.22a10.23 10.23 0 001.54.09h2a11.72 11.72 0 001.55-.07 13.66 13.66 0 00-.06 1.51zm6.75-1.08a13.24 13.24 0 01-.48 2.9 11 11 0 01-1.52 3.27 9.85 9.85 0 001.74 1.62 8.22 8.22 0 001.94 1.15 4.26 4.26 0 00-.71 1.17 13 13 0 01-3.7-3 11.15 11.15 0 01-1.74 1.57 11.85 11.85 0 01-2.51 1.47 3.78 3.78 0 00-.7-1.09 10.17 10.17 0 004.29-2.87 10.24 10.24 0 01-1.65-4 13.9 13.9 0 01-1.07 1.68 3.09 3.09 0 00-.94-.69 12.37 12.37 0 002.55-5.42 8.47 8.47 0 00.24-1.51l1.26.24a5.44 5.44 0 00-.26.94 14.72 14.72 0 01-.4 1.52h3.75a8.64 8.64 0 001.44-.09V306a8 8 0 00-1.38-.08zm-4 0c-.15.38-.16.44-.33.81a10.26 10.26 0 001.65 4.41 9.33 9.33 0 001.19-2.64 11 11 0 00.38-2.55zm12.51-2.13a8.56 8.56 0 00-1.05-1.36l1.11-.3a12.55 12.55 0 011.15 1.66H294a7 7 0 001.14-1.66l1.19.31a11.82 11.82 0 01-1.08 1.35h2a7.61 7.61 0 001.48-.09v1.08a14.67 14.67 0 00-1.48-.07H293v1h3.71a7.54 7.54 0 001.33-.07v1a8 8 0 00-1.33-.07H293v1h4.79a9.58 9.58 0 001.48-.08v1.08a8.5 8.5 0 00-1.48-.09H293v1.76h1.79a8.86 8.86 0 001-1.5l1.14.34a12.17 12.17 0 01-.95 1.16h1.76a8.43 8.43 0 001.48-.09v1.11a10 10 0 00-1.48-.09h-10.32a10.24 10.24 0 00-1.49.09v-1.11a8.56 8.56 0 001.49.09h1.69a6.46 6.46 0 00-1-1.2l1.12-.33a9 9 0 011 1.53h1.65v-1.76h-4.45a8.92 8.92 0 00-1.49.09v-1.08a9.48 9.48 0 001.49.08h4.45v-1h-3.35a8 8 0 00-1.35.07v-1a7.73 7.73 0 001.35.07h3.35v-1H288a11 11 0 00-1.49.07v-1.08a7.72 7.72 0 001.49.09zM287.58 316a10.47 10.47 0 00.09-1.39v-1.41a7.42 7.42 0 00-.08-1.19 8.1 8.1 0 001.14.06h7.71a7.45 7.45 0 001.14-.06 7 7 0 00-.07 1.17v1.47a9.79 9.79 0 00.09 1.38h-1.23v-.67h-7.58v.64zm1.21-1.62h7.58V313h-7.58zm15.8-10.47a8.64 8.64 0 00-.11-1.53h1.34a11 11 0 00-.09 1.5v1.43h.48a7.55 7.55 0 001.2-.08v1.17a8.32 8.32 0 00-1.22-.07h-.46v2.86c.52-.16.81-.25 1.69-.58v1c-.68.29-.86.35-1.71.65v4.47c0 .9-.39 1.14-1.77 1.14h-1.13a3 3 0 00-.24-1.15 9.6 9.6 0 001.5.13c.39 0 .5-.09.5-.4v-3.77c-.53.17-.57.18-1.19.35a6.75 6.75 0 00-.76.25l-.26-1.24a12 12 0 002.21-.5v-3.19h-.87a7.9 7.9 0 00-1.2.07v-1.18a7.24 7.24 0 001.2.09h.87zm4.57.42a14.77 14.77 0 005.25-1.5l.89 1a26 26 0 01-6.14 1.47v.95c0 .58.24.64 2.75.64s2.62 0 2.74-1.87a4.27 4.27 0 001.1.42c-.14 1.29-.33 1.8-.8 2.1s-1.15.37-3.6.37c-2.76 0-3.31-.22-3.31-1.35v-2.66a9.66 9.66 0 00-.09-1.47h1.29a8.76 8.76 0 00-.08 1.41zm-1.09 5.87a9.07 9.07 0 00-.07-1.2 11.2 11.2 0 001.33.06h4.29A11.16 11.16 0 00315 309a7.68 7.68 0 00-.06 1.21v4.31A9 9 0 00315 316h-1.2v-.78h-4.62v.78H308a9 9 0 00.08-1.48zm1.11 1.38h4.62v-1.53h-4.62zm0 2.67h4.62v-1.68h-4.62zm17.82-2.63a12.39 12.39 0 01-3.91-.33 2.54 2.54 0 01-1.35-1 21.71 21.71 0 01-2.33 1.54l-.5-1.06a11 11 0 002.27-1.26v-2.21h-1a7.51 7.51 0 00-1.08.06v-1.05a6.07 6.07 0 001.18.08h.92a8.84 8.84 0 001.13-.06 8.64 8.64 0 00-.06 1.36v1.76c.58 1.05 1.32 1.29 4 1.29s5.16-.08 6.33-.21a2.3 2.3 0 00-.36 1h-2.7v.77h1a11.36 11.36 0 001.62-.09v1.12a11.77 11.77 0 00-1.64-.09h-1v1.59c0 .95-.29 1.11-2 1.11h-1.15a2.85 2.85 0 00-.35-1.09 13.05 13.05 0 001.71.12c.57 0 .68-.06.68-.38v-1.29h-5.55A12.33 12.33 0 01325 315l-.87.78a8.56 8.56 0 00-2.05-1.89l.8-.62h-2.15a12.08 12.08 0 00-1.64.09v-1.12a11.36 11.36 0 001.62.09h7.76v-.75zm-6.91-9.12a12.6 12.6 0 012.2 2l-.78.79a11.2 11.2 0 00-2.19-2.1zm5.11 1.1a5.45 5.45 0 00-.84-1.16l1.1-.25a9 9 0 01.88 1.41h1.71a9.82 9.82 0 00.95-1.38l1.11.3c-.35.46-.57.76-.84 1.08h1.32a8.91 8.91 0 001.5-.08v1a13.76 13.76 0 00-1.5-.06h-2.81a6.9 6.9 0 01-.36.72h3.59a8.43 8.43 0 00-.06 1.24v2.43a8.92 8.92 0 00.06 1.31c-.32 0-.69-.05-1.25-.05h-4.63c-.59 0-1 0-1.47.05a11.24 11.24 0 000-1.2v-2.57a7.45 7.45 0 00-.06-1.21h2.63c.19-.34.24-.45.37-.72h-2.38a14.93 14.93 0 00-1.53.06v-1a8.81 8.81 0 001.47.08zm-.49 3h5.22v-.6h-5.22zm0 1.35h5.22v-.6h-5.22zm0 1.38h5.22v-.64h-5.22zm-55.37 24.96a6 6 0 001.16.08h.85a6.72 6.72 0 001.14-.08 11.94 11.94 0 00-.06 1.61v3.1a2.14 2.14 0 001.22 1.23 7.9 7.9 0 003.38.45 47.45 47.45 0 006.14-.27 4.85 4.85 0 00-.38 1.21c-2 .08-3.22.11-4.68.11a16.13 16.13 0 01-4.18-.29 3.8 3.8 0 01-2.1-1.59 12 12 0 01-1.68 1.46c-.25.19-.3.24-.59.49l-.56-1.2a9.19 9.19 0 002.32-1.69v-3.51h-.92a5.71 5.71 0 00-1.06.07zm1.06-5.62a17.79 17.79 0 012.19 2.68l-.86.87a12.72 12.72 0 00-2.19-2.8zm4.86 3.13a6.19 6.19 0 00-1.15.08v-.39H273a6.64 6.64 0 00.07-.93v-.71a8 8 0 00-.06-.94 13.61 13.61 0 001.4.06h6.85c.59 0 1 0 1.41-.06a5.94 5.94 0 00-.06.93v.69a6.37 6.37 0 00.06 1h-1.11v.39a6 6 0 00-1.14-.08h-2.22v.9h2.45a7.57 7.57 0 001.17-.06 6.71 6.71 0 00-.05 1v2.41a6.38 6.38 0 00.05 1 11 11 0 00-1.19-.06h-2.43v.97h3.15a7 7 0 001.26-.08V339a8 8 0 00-1.29-.07h-3.12v.07a9.43 9.43 0 00.08 1.26h-1.17a10.26 10.26 0 00.09-1.25v-.13h-2.87a7.22 7.22 0 00-1.22.07v-1.05a7.36 7.36 0 001.21.08h2.88v-.95H275a9.64 9.64 0 00-1.17.06 6.88 6.88 0 00.06-1v-2.41a7.37 7.37 0 00-.06-1 7.72 7.72 0 001.17.06h2.19v-.9zm1.92-.87a2.76 2.76 0 00-.06-.69h1.16a2.56 2.56 0 00-.08.69h2.3a5.53 5.53 0 001-.06v-1h-7.41v1a5.66 5.66 0 001.11.07zm-2.26 2.58v1h2.28v-1zm0 1.76v1h2.28v-1zm3.28-.8h2.54v-1h-2.54zm0 1.76h2.54v-1h-2.54zm10.89-5.84a8.73 8.73 0 00-1.09-1.63l1.13-.29a14 14 0 011.21 1.92h1.89a12 12 0 00-1-1.87l1.16-.23a16.85 16.85 0 011 2.1h1.44a9.53 9.53 0 001.21-2.1l1.19.36a16.94 16.94 0 01-1.14 1.74h1.12a14.88 14.88 0 001.65-.06 11.08 11.08 0 00-.06 1.28v1.23a6.51 6.51 0 00.08 1.11h-1.2v-2.58h-10.19V334h-1.2a9.84 9.84 0 00.07-1.1v-1.23c0-.52 0-.76-.05-1.29a15 15 0 001.63.06zm1 5.66a12.15 12.15 0 00-1.59.06 8.58 8.58 0 00.06-1.25v-1.33a6.8 6.8 0 00-.06-1.13 10.84 10.84 0 001.37.06h5.55a10.36 10.36 0 001.33-.06 10.42 10.42 0 000 1.14v1.32a9.67 9.67 0 000 1.25 13.75 13.75 0 00-1.57-.06h-2.22c-.2.45-.48 1-.66 1.35h4.2a12.9 12.9 0 001.41-.06 10.5 10.5 0 00-.06 1.42v1.8a10.24 10.24 0 00.07 1.46h-1.2v-.62h-8.19v.6h-1.21a11.06 11.06 0 00.09-1.45v-1.79a8.17 8.17 0 00-.08-1.42 13.06 13.06 0 001.43.06h2.34a10 10 0 00.66-1.35zm-1.56 4.33h8.19v-2h-8.19zm1.13-5.28h5.95v-1.69h-5.95zm14.15-5.34a7.92 7.92 0 00-.1-1.39H305a8.23 8.23 0 00-.08 1.36v2.42h.17a4.7 4.7 0 001.08-.08v1.19a6.31 6.31 0 00-1.06-.06h-.19v7.17a13.9 13.9 0 00.08 1.68h-1.31a11.49 11.49 0 00.1-1.7v-7.15h-.31a9.2 9.2 0 00-1.28.06v-1.19a7.06 7.06 0 001.28.08h.31zm5.37 5.75a11.27 11.27 0 001.29-.06 6.25 6.25 0 00-.05.87c0 .75-.12 2.4-.21 3.13-.21 1.77-.54 2.24-1.65 2.24h-1a3.67 3.67 0 00-.23-1.13 5.2 5.2 0 001.13.14c.39 0 .54-.17.61-.63a25 25 0 00.27-3.53h-1.2a9 9 0 01-2.16 5.4 4.31 4.31 0 00-.78-.93 6.78 6.78 0 001.95-4.47h-.61a6.19 6.19 0 00-.84.05v-1.11a4.9 4.9 0 00.9.06h.64v-.81a3.64 3.64 0 00-.05-.6h1.16a7.88 7.88 0 00-.09.93v.48zm4.53-5.76a11.05 11.05 0 001.24-.06c0 .28 0 .28-.06.64-.25 3.05-.45 3.33-2.2 3.33-.39 0-.59 0-1.44-.06a4.09 4.09 0 00-.26-1.11 9.8 9.8 0 001.83.17c.41 0 .57-.09.68-.39a7.59 7.59 0 00.22-1.53h-3.09a4.34 4.34 0 01-1.45 2.05 7.8 7.8 0 01-2.18 1.29 3.42 3.42 0 00-.69-1 4.93 4.93 0 003.17-2.38h-1.41a9.38 9.38 0 00-1.46.07v-1.14a11.39 11.39 0 001.5.08h1.68a5 5 0 00.15-1.16v-.28l1.27.07c0 .15-.07.29-.16.77 0 .18-.06.31-.12.6zm.73 5.76a11.45 11.45 0 001.28-.06c0 .46 0 .46-.05.91a24.29 24.29 0 01-.42 4.4c-.21.75-.6.94-1.87.94a7.27 7.27 0 01-.75 0 3.49 3.49 0 00-.21-1.13 5.7 5.7 0 001.26.15c.43 0 .57-.15.67-.73a34 34 0 00.24-3.44h-1.44a11.16 11.16 0 01-.9 3.47 6.56 6.56 0 01-1.3 1.93 3.11 3.11 0 00-.81-.85c1.09-1 1.69-2.34 2-4.55h-.3a6.8 6.8 0 00-.89.05v-1.11a5.52 5.52 0 001 .06h.32v-1.44h1.15a6.26 6.26 0 00-.09.9v.54zm8.88-3.41a7.69 7.69 0 00-1.06-.06H320a8.25 8.25 0 00-1.12.06V331a5.66 5.66 0 001.12.07h2.21a5.76 5.76 0 001.15-.07zm-4.09 10a9.9 9.9 0 00.09-1.48v-2a8.59 8.59 0 00-.07-1.34 6.25 6.25 0 001 .06H322a7.56 7.56 0 001 0 11.87 11.87 0 000 1.26v3.25h-1v-.53h-1.77v.84zm.08-13.2a5.15 5.15 0 001.05.08H322a5.21 5.21 0 001.05-.08v1.1a7.94 7.94 0 00-1.05-.06h-1.67a7.83 7.83 0 00-1.05.06zm.05 4.22a6.64 6.64 0 001.07.06h1.45a7.23 7.23 0 001.08-.06v1.08a6.86 6.86 0 00-1.08-.06h-1.45a6.36 6.36 0 00-1.07.06zm0 2.08a6 6 0 001.07.06h1.45a6.28 6.28 0 001.08-.06v1.07a10.45 10.45 0 00-1.08-.05h-1.45a10.1 10.1 0 00-1.07.05zm.92 5.15h1.77v-2.1h-1.77zm11.65-2.35c-.21.24-.28.33-.49.59a9.66 9.66 0 01-1 1.09c.39.62.88 1.1 1.14 1.1s.4-.41.55-1.49a2.81 2.81 0 00.83.6c-.27 1.43-.6 2-1.22 2s-1.36-.56-2-1.59a12 12 0 01-2.29 1.45 5.12 5.12 0 00-.66-.84 9.63 9.63 0 002.5-1.44 7.61 7.61 0 01-.75-2.22h-2.25v1.14c.74-.18.92-.24 1.82-.51v.85c-.33.12-1 .32-1.83.54v1.55c0 .88-.33 1.15-1.41 1.15h-.94a3.09 3.09 0 00-.21-1 5.48 5.48 0 001.15.12c.35 0 .45-.09.45-.36v-1.2l-1.75.36-.23-1a14.05 14.05 0 002-.27v-1.34h-.66a7 7 0 00-1.26.09v-1.07a5.75 5.75 0 001 .06h.91v-.82a10.46 10.46 0 01-1.38.22 3.06 3.06 0 00-.36-.75 13.09 13.09 0 002-.3 4.74 4.74 0 001.62-.58l.63.69a11.35 11.35 0 01-1.58.51v1h2.1c0-.37-.09-.82-.12-1.27s0-.5-.07-.72h1.09a3 3 0 000 .55 14 14 0 00.1 1.44H331a5.76 5.76 0 001.34-.11v1.08a6 6 0 00-1.1-.07h-1.75a7.58 7.58 0 00.52 1.59 5.31 5.31 0 001.08-1.41zm-6-8.32a5.78 5.78 0 00-.75-1.19l1-.31a9.94 9.94 0 01.82 1.5h1.61a7.11 7.11 0 00.72-1.49l1.06.29a10 10 0 01-.66 1.2h.9a6 6 0 001.29-.09v1a7.84 7.84 0 00-1.29-.07h-2.41v.87h1.92a10.38 10.38 0 001.23-.06v.93a7.16 7.16 0 00-1.23-.08h-1.92v.9h2.67a5.92 5.92 0 001.35-.09v1a6.91 6.91 0 00-1.34-.08h-6.06a10 10 0 00-1.33.06v-1a7.48 7.48 0 001.33.07h2.39v-.9h-1.73a6.51 6.51 0 00-1.24.08v-.93a10.45 10.45 0 001.24.06h1.73v-.87h-2.13a7.77 7.77 0 00-1.29.07v-1a6.28 6.28 0 001.29.09zm4.31 4.56a11.78 11.78 0 011.56 1.26l-.75.6a6.86 6.86 0 00-1.52-1.35zm82.88-29.38a4.2 4.2 0 00-.33 1 13 13 0 01-3.75 6.54 14.33 14.33 0 01-4.74 2.88 3.45 3.45 0 00-.9-1.25 11.64 11.64 0 003.36-1.57 11 11 0 004.68-7H404a12.69 12.69 0 00-1.83.09v-1.42a10.52 10.52 0 001.86.1h7.14a2.88 2.88 0 001.14-.12zm4.4 8.91v1.05h-1.38a13.39 13.39 0 00.06-1.47v-7.82a11.35 11.35 0 00-.06-1.35c.46 0 .81.05 1.5.05h7.57a13.93 13.93 0 001.49-.06 9.7 9.7 0 00-.06 1.36v7.8a11.32 11.32 0 00.06 1.49h-1.38v-1.05zm7.8-8.36h-7.8v7.17h7.8zm4.68 3a16.31 16.31 0 002.07.09h8.43a11.61 11.61 0 002-.09v1.49a17.22 17.22 0 00-2-.08h-8.4a16 16 0 00-2.08.08zm25.9-3.1a3.27 3.27 0 00-.37.88 23.72 23.72 0 01-2 4.07 14.67 14.67 0 01-6.69 5.5 3.31 3.31 0 00-.88-1.11 15.14 15.14 0 003.06-1.59 10.63 10.63 0 002.55-2.31 18.88 18.88 0 00-3.29-2.34l.83-.93a21.24 21.24 0 013.24 2.25 17.93 17.93 0 001.95-4.09l-5.07.06a15.48 15.48 0 01-3.56 4 3.28 3.28 0 00-1.05-.85 13.08 13.08 0 003.81-4.28 8.85 8.85 0 00.89-2.07l1.39.38a8.84 8.84 0 00-.49 1c-.17.33-.32.58-.44.79.23 0 .23 0 4.23-.09a3.49 3.49 0 001-.1zm-.33-2.75a9.46 9.46 0 011.37 2l-.86.42a9 9 0 00-1.35-2.07zm1.5-.64a9.69 9.69 0 011.35 2l-.85.42a9.45 9.45 0 00-1.34-2zm12.62 1.86a4.17 4.17 0 00-.54.51 25.35 25.35 0 01-3.6 3.13v6.23a12.64 12.64 0 00.07 1.77h-1.53a9.53 9.53 0 00.09-1.76v-5.4a23.4 23.4 0 01-5.67 2.57 3.61 3.61 0 00-.7-1.2 21.47 21.47 0 007.81-3.89 12.19 12.19 0 002.84-2.83zm8.37 2.65a4.93 4.93 0 00-.06 1.1c-.06 2.53-.47 4-1.49 5.29a8.48 8.48 0 01-3.85 2.63 3.62 3.62 0 00-.83-1.22 7.1 7.1 0 002.7-1.33c1.58-1.28 2.13-2.73 2.13-5.64a3.35 3.35 0 00-.06-.83zm6-1.89a3.42 3.42 0 00-.38.63 9.16 9.16 0 01-4.35 4.38 3.68 3.68 0 00-.91-1 6.7 6.7 0 002.32-1.41 7.44 7.44 0 001.61-2.13H474a15.41 15.41 0 00-1.85.07v-1.36a12.75 12.75 0 001.88.1h8a3.51 3.51 0 001.32-.1zm11.71 1.05a1.8 1.8 0 00-.25.62 15.41 15.41 0 01-3 5.68 14.77 14.77 0 01-5.25 3.77 2.7 2.7 0 00-.9-1.08 12.68 12.68 0 005.25-3.71 13.13 13.13 0 002.57-4.89l-4.91.08a15 15 0 01-3.55 3.87 2.85 2.85 0 00-1-.92 11.39 11.39 0 003.79-4.18 6.18 6.18 0 00.9-2.13l1.47.34a2.46 2.46 0 00-.33.59 13.9 13.9 0 01-.66 1.3 1.31 1.31 0 01.38 0h.18l3.85-.06a1.7 1.7 0 00.65-.08zm-.34-2.77a9.32 9.32 0 011.3 2l-.88.42a8.93 8.93 0 00-1.28-2.07zm1.51-.57a9.67 9.67 0 011.29 2l-.87.44a9.81 9.81 0 00-1.27-2.06zm2.79 4.69a11 11 0 001.91.11h7.44a3.35 3.35 0 001.18-.12l.65.75a3.6 3.6 0 00-.42.94 10.15 10.15 0 01-3.62 5 13.34 13.34 0 01-3.67 1.81 4 4 0 00-.8-1.23 9.7 9.7 0 004.35-2.19 8.61 8.61 0 002.45-3.82h-7.58a14.81 14.81 0 00-1.89.07zm1.29-3.51a8.35 8.35 0 001.73.11h4.87a8.89 8.89 0 001.73-.11v1.35a13.12 13.12 0 00-1.71-.07h-4.91a13.67 13.67 0 00-1.71.07zm17.55-.13a7.91 7.91 0 00-.39 1.06 85.1 85.1 0 01-3.07 8.73 69.08 69.08 0 007-.9 28.28 28.28 0 00-2.25-3.85l1.16-.54a38.62 38.62 0 013.7 6.82l-1.27.68a16.47 16.47 0 00-.84-2l-.51.1c-1.73.36-4.67.74-8.66 1.13a7.51 7.51 0 00-1.3.18l-.18-1.49a2.64 2.64 0 00.4 0l1.29-.07a60.64 60.64 0 002.24-6A26.59 26.59 0 00517 303zm12.43-.63a8.8 8.8 0 00-.36.84 21 21 0 01-1.08 2.46v8.23a12.17 12.17 0 00.11 1.82h-1.35a14.74 14.74 0 00.1-1.85v-4.78c0-.56 0-.86.06-1.86a12.19 12.19 0 01-1.75 2.19 3.42 3.42 0 00-.68-1.08 12.33 12.33 0 003.08-4.4 8.37 8.37 0 00.64-2zm2.31 3a16 16 0 01-2.41 3.65 3.15 3.15 0 00-.83-.92 12.29 12.29 0 002.61-4 9.35 9.35 0 00.65-2.13l1.23.39c-.12.29-.17.41-.3.77-.23.63-.29.81-.48 1.24h4.57a9.32 9.32 0 001.44-.09v1.19a10.7 10.7 0 00-1.44-.08H535V308h2.85a7.8 7.8 0 001.36-.09v1.21a9.7 9.7 0 00-1.36-.09H535v2.28h2.89a8.88 8.88 0 001.37-.09v1.23a9.35 9.35 0 00-1.37-.09H535v2.13a9.34 9.34 0 00.1 1.64h-1.36a10.21 10.21 0 00.09-1.64v-8.76zm20.77 1.81c-.11.26-.17.38-.36.84l-.42 1a12.43 12.43 0 01-1.64 2.82 5.91 5.91 0 001.34 1.8 1.72 1.72 0 00.66.4c.21 0 .45-.79.63-2.13a3.65 3.65 0 001 .75c-.36 1.91-.8 2.66-1.53 2.66a2.9 2.9 0 01-1.64-1 7.73 7.73 0 01-1.2-1.61 12.87 12.87 0 01-4 2.9 3.29 3.29 0 00-.92-.91 11.24 11.24 0 004.33-3 18.45 18.45 0 01-1.24-6.18H544v2.32h2.82a6.33 6.33 0 001.11-.06c0 .36 0 .41-.09 1.34a14.44 14.44 0 01-.43 3.61c-.23.59-.6.77-1.58.77a8.74 8.74 0 01-1.45-.12 4.2 4.2 0 00-.24-1.14 8.24 8.24 0 001.66.21c.5 0 .62-.12.74-.71a25.2 25.2 0 00.19-2.88H544a22 22 0 01-.48 4 7.65 7.65 0 01-1.16 2.71 3.09 3.09 0 00-.94-.85 6.07 6.07 0 001.06-2.36 28.71 28.71 0 00.47-6.16 11.61 11.61 0 00-.09-1.83 16.43 16.43 0 001.84.07h4.41a18.56 18.56 0 00-.12-2.34h1.32a7.94 7.94 0 00-.07 1.34v1h3.2a7.75 7.75 0 001.6-.09v1.2a13.2 13.2 0 00-1.72-.07h-3a18.64 18.64 0 00.9 5.16 11.28 11.28 0 001.72-4zm-1-2.79a8.52 8.52 0 00-2-1.6l.81-.59a10.6 10.6 0 012 1.5zM441 330.2a5.34 5.34 0 00-.19 1.06c-.65 4.37-1.79 7.13-3.93 9.47a4.37 4.37 0 00-1.17-.92 11 11 0 002.68-4.29 17.56 17.56 0 001.13-5.59zm4.19-.27a19 19 0 00.66 3.57 13.7 13.7 0 003.4 6.27 4.42 4.42 0 00-1.14 1 14.65 14.65 0 01-2.52-4 23.26 23.26 0 01-1.53-5.5 5.82 5.82 0 00-.19-1zm12.89 2.13v-1.41a8 8 0 00-.06-1.53h1.39a12.71 12.71 0 00-.06 1.42v1.52h1.19a9.44 9.44 0 001.81-.11v1.35a14.24 14.24 0 00-1.78-.07h-1.23a24 24 0 01-.12 2.71 5.72 5.72 0 01-2.12 4.13 8.05 8.05 0 01-2.76 1.47 3.18 3.18 0 00-.81-1.13 6.33 6.33 0 003.12-1.69c1-1 1.29-2 1.38-4.1v-1.39h-4.33v2.14a11.41 11.41 0 00.06 1.5h-1.43a12 12 0 00.06-1.5v-2.14h-1.17a14.62 14.62 0 00-1.78.07V332a9.63 9.63 0 001.81.11h1.14v-1.61a12 12 0 00-.07-1.4h1.45a9 9 0 00-.07 1.37v1.59zm2.62-3.06a10.09 10.09 0 011.22 2l-.84.41a9.32 9.32 0 00-1.2-2.09zm1.47-.63a9.31 9.31 0 011.22 2l-.83.4a9.4 9.4 0 00-1.2-2.05zm2.39 6.04a16.31 16.31 0 002.07.09h8.43a11.61 11.61 0 002-.09v1.49a17.22 17.22 0 00-2-.08h-8.4a16 16 0 00-2.08.08zm16.74 7.01a11.26 11.26 0 00.09-1.74v-9.14a8.85 8.85 0 00-.09-1.65h1.51a12.26 12.26 0 00-.07 1.7v2.67a39.35 39.35 0 016.7 3.16l-.75 1.31a31.87 31.87 0 00-5.52-2.94 3.29 3.29 0 01-.49-.26 9.81 9.81 0 01.06 1.23v3.92a13.64 13.64 0 00.07 1.74zm5.8-11.57a11.07 11.07 0 011.47 2.18l-.88.46a10.15 10.15 0 00-1.46-2.22zm1.55-.72a10.36 10.36 0 011.45 2.13l-.87.47a11 11 0 00-1.44-2.19zm9.21-.19a3.6 3.6 0 00-.42.76 15 15 0 01-4.73 5.7 3.84 3.84 0 00-.85-1 12.06 12.06 0 004.06-4.37 5.29 5.29 0 00.62-1.56zm-1.61 5.86a10.43 10.43 0 00-1.47.09v-1.23a12.38 12.38 0 001.47.08h5.12a11.11 11.11 0 001.57-.08 6.66 6.66 0 000 1.1c0 3.09-.29 5.46-.68 6.19-.27.51-.67.68-1.68.68-.45 0-1 0-1.84-.11a5.33 5.33 0 00-.3-1.26 10.16 10.16 0 002 .24c.64 0 .75-.09.91-.87a26.35 26.35 0 00.35-4.83h-3.33a10.1 10.1 0 01-.21 1.52 8.16 8.16 0 01-4.76 5.68 3.75 3.75 0 00-.78-1 7.42 7.42 0 003.74-3.2 6.87 6.87 0 00.81-3zm4.85-6.3a5.2 5.2 0 00.58 1.28 12.31 12.31 0 004.34 4.57 5.09 5.09 0 00-.83 1.11 15.2 15.2 0 01-4.95-5.86c-.12-.24-.24-.47-.33-.62zm8.83 1.2a5.8 5.8 0 00-.09-1.27h1.29a6.91 6.91 0 00-.09 1.29v1.6h1a4.73 4.73 0 001-.07v1.18a4.9 4.9 0 00-1-.07h-.94a7.43 7.43 0 001.92 2.76 4 4 0 00-.66 1 9.11 9.11 0 01-1.41-2.36v6.84a8.52 8.52 0 00.09 1.47h-1.27a9.38 9.38 0 00.09-1.45v-3.89c0-.87 0-1.54.06-2.52a14.24 14.24 0 01-2 4.28 3.06 3.06 0 00-.78-.93 13.93 13.93 0 002.58-5.19h-1.11a4 4 0 00-.94.07v-1.18a4.65 4.65 0 001 .07h1.18zm9.36 3.48a14 14 0 001.76-.09v1.26a14.79 14.79 0 00-1.76-.09h-.63v6.08a14.55 14.55 0 00.09 1.72h-1.33a14.91 14.91 0 00.1-1.72v-6.08h-2.7c-.12 3.84-.66 5.87-2.08 7.74a3.61 3.61 0 00-.95-.84 6.19 6.19 0 001.32-2.44 24 24 0 00.62-6.57 18 18 0 00-.09-2.28h.25a15.81 15.81 0 005.85-1.41l.86 1.05c-.27.07-.27.07-1.67.54a20.23 20.23 0 01-4.08.84v2.33zm-83.82 29.44a19.52 19.52 0 004.29-4.88 2 2 0 01.12-.19h-8.28a16.08 16.08 0 00-1.87.07v-1.41a10.53 10.53 0 001.89.11h8.55a2.48 2.48 0 001-.11l.75.87a4.09 4.09 0 00-.62.83 23.05 23.05 0 01-4.93 5.62c.55.62 1.26 1.5 2.14 2.67l-1.11.92a23.21 23.21 0 00-2.88-3.69 24.47 24.47 0 00-3-2.84l1-.76a26.07 26.07 0 012.06 1.84zm8.25 1.38a11.85 11.85 0 001.94.11h8.22a10.8 10.8 0 002-.11v1.49a16.36 16.36 0 00-1.95-.08h-8.25a16.12 16.12 0 00-1.92.08zm1.52-7.17a9.74 9.74 0 001.83.11h5.46a9.26 9.26 0 001.8-.11v1.47a14.14 14.14 0 00-1.79-.07h-5.49a14.12 14.12 0 00-1.81.07zm21.87 9a7.52 7.52 0 001.45-.09V367a9.23 9.23 0 00-1.45-.07h-7.29a9.37 9.37 0 00-1.47.07v-1.27a7.7 7.7 0 001.47.09h4.41c.31-1.49.66-3.69.79-5.06h-3.82a11.64 11.64 0 00-1.43.06v-1.24a9.43 9.43 0 001.46.09h3.85a2.13 2.13 0 00.83-.11l.58.51a3.15 3.15 0 00-.28 1.23c-.33 2.33-.45 3-.74 4.52zm10.08-7.4a4.93 4.93 0 00-.06 1.1c-.06 2.53-.47 4-1.49 5.29a8.48 8.48 0 01-3.85 2.63 3.62 3.62 0 00-.83-1.22 7.1 7.1 0 002.7-1.33c1.58-1.28 2.13-2.73 2.13-5.64a3.35 3.35 0 00-.06-.83zm6-1.89a3.42 3.42 0 00-.38.63 9.16 9.16 0 01-4.35 4.38 3.68 3.68 0 00-.91-1 6.7 6.7 0 002.32-1.41 7.44 7.44 0 001.61-2.13h-8.34a15.41 15.41 0 00-1.85.07v-1.36a12.75 12.75 0 001.88.1h8a3.51 3.51 0 001.32-.1zm4.95-1.08a7.85 7.85 0 00-.09 1.32c-.12 4.16-.24 5.25-.8 6.77a9.31 9.31 0 01-2.58 3.78 3.59 3.59 0 00-1.08-1 7.21 7.21 0 002.48-3.43 20.3 20.3 0 00.66-6.32 6.71 6.71 0 00-.05-1.18zm3.81-.18a8.61 8.61 0 00-.11 1.56l-.07 8.72a6.73 6.73 0 002.64-1.74 7.4 7.4 0 001.69-2.93 5.11 5.11 0 001 1 8.55 8.55 0 01-3.09 3.93 10.64 10.64 0 01-2.11 1.08l-.48.18a2.53 2.53 0 00-.36.16l-.71-.78a3.42 3.42 0 00.11-1.18l.09-8.49v-.33a6.26 6.26 0 00-.08-1.23zm11.2-.61a8.8 8.8 0 00-.36.84 21 21 0 01-1.08 2.46v8.23a12.17 12.17 0 00.11 1.82h-1.35a14.74 14.74 0 00.1-1.85v-4.78c0-.56 0-.86.06-1.86a12.19 12.19 0 01-1.75 2.19 3.42 3.42 0 00-.68-1.08 12.33 12.33 0 003.08-4.4 8.37 8.37 0 00.64-2zm2.31 3a16 16 0 01-2.41 3.65 3.15 3.15 0 00-.83-.92 12.29 12.29 0 002.61-4 9.35 9.35 0 00.65-2.13l1.23.39c-.12.29-.17.41-.3.77-.23.63-.29.81-.48 1.24h4.57a9.32 9.32 0 001.44-.09v1.19a10.7 10.7 0 00-1.44-.08h-3.31V360H510a7.8 7.8 0 001.36-.09v1.21A9.7 9.7 0 00510 361h-2.85v2.28h2.89a8.88 8.88 0 001.37-.09v1.23a9.35 9.35 0 00-1.37-.09h-2.89v2.13a9.34 9.34 0 00.1 1.64h-1.36a10.21 10.21 0 00.09-1.64v-8.76zm20.81 1.81c-.11.26-.17.38-.36.84l-.42 1a12.43 12.43 0 01-1.64 2.82 5.91 5.91 0 001.34 1.8 1.72 1.72 0 00.66.4c.21 0 .45-.79.63-2.13a3.65 3.65 0 001 .75c-.36 1.91-.8 2.66-1.53 2.66a2.9 2.9 0 01-1.64-1 7.73 7.73 0 01-1.2-1.61 12.87 12.87 0 01-4 2.9 3.29 3.29 0 00-.84-.93 11.24 11.24 0 004.33-3 18.45 18.45 0 01-1.24-6.18h-5.09v2.32H519a6.33 6.33 0 001.11-.06c0 .36 0 .41-.09 1.34a14.44 14.44 0 01-.43 3.61c-.23.59-.6.77-1.58.77a8.74 8.74 0 01-1.45-.12 4.2 4.2 0 00-.24-1.14 8.24 8.24 0 001.66.21c.5 0 .62-.12.74-.71a25.2 25.2 0 00.19-2.88h-2.77a22 22 0 01-.48 4 7.65 7.65 0 01-1.16 2.71 3.09 3.09 0 00-.94-.85 6.07 6.07 0 001.06-2.36 28.71 28.71 0 00.47-6.16 11.61 11.61 0 00-.09-1.83 16.43 16.43 0 001.84.07h4.41a18.56 18.56 0 00-.12-2.34h1.32a7.94 7.94 0 00-.07 1.34v1h3.2a7.75 7.75 0 001.6-.09v1.2a13.2 13.2 0 00-1.72-.07h-3a18.64 18.64 0 00.9 5.16 11.28 11.28 0 001.72-4zm-1-2.79a8.52 8.52 0 00-2-1.6l.81-.59a10.6 10.6 0 012 1.5zM596 310.62a19.52 19.52 0 004.29-4.88 2 2 0 01.12-.19h-8.28a16.08 16.08 0 00-1.87.07v-1.41a10.66 10.66 0 001.89.11h8.55a2.48 2.48 0 001-.11l.75.87a4.09 4.09 0 00-.62.83 23.05 23.05 0 01-4.93 5.62c.55.62 1.26 1.5 2.14 2.67l-1.11.92a23.21 23.21 0 00-2.88-3.69 24.47 24.47 0 00-3-2.84l1-.76a26.07 26.07 0 012.06 1.84zm8.71 1.38a11.85 11.85 0 001.94.11h8.22a10.73 10.73 0 002-.11v1.49a16.36 16.36 0 00-2-.08h-8.25a16.23 16.23 0 00-1.92.08zm1.52-7.17a9.74 9.74 0 001.83.11h5.46a9.26 9.26 0 001.8-.11v1.47a14.06 14.06 0 00-1.78-.07H608a14.12 14.12 0 00-1.81.07zm22.32 9a7.64 7.64 0 001.46-.09V315a9.38 9.38 0 00-1.46-.07h-7.29a9.45 9.45 0 00-1.47.07v-1.27a7.76 7.76 0 001.47.09h4.41c.32-1.49.66-3.69.8-5.06h-3.83a11.44 11.44 0 00-1.42.06v-1.24a9.29 9.29 0 001.45.09h3.86a2.08 2.08 0 00.82-.11l.59.51a3.28 3.28 0 00-.29 1.23c-.33 2.33-.45 3-.73 4.52zm10.53-7.4a6.87 6.87 0 00-.06 1.1c-.06 2.53-.47 4-1.48 5.29a8.57 8.57 0 01-3.86 2.63 3.59 3.59 0 00-.82-1.22 7.26 7.26 0 002.7-1.33c1.57-1.28 2.13-2.73 2.13-5.64a3.35 3.35 0 00-.06-.83zm6-1.89a3.42 3.42 0 00-.38.63 9.14 9.14 0 01-4.34 4.38 3.72 3.72 0 00-.92-1 6.84 6.84 0 002.33-1.41 7.59 7.59 0 001.6-2.13H635a15.13 15.13 0 00-1.84.07v-1.36a12.59 12.59 0 001.87.1h8a3.51 3.51 0 001.32-.1zm5.4-1.08a7.85 7.85 0 00-.09 1.32c-.12 4.16-.24 5.25-.79 6.77a9.41 9.41 0 01-2.58 3.78 3.71 3.71 0 00-1.08-1 7.19 7.19 0 002.47-3.43 20 20 0 00.66-6.32 8.38 8.38 0 000-1.18zm3.81-.18a8.87 8.87 0 00-.1 1.56l-.08 8.72a6.66 6.66 0 002.64-1.74 7.54 7.54 0 001.7-2.93 4.85 4.85 0 001 1 8.68 8.68 0 01-3.09 3.93 11 11 0 01-2.12 1.08l-.48.18-.36.16-.7-.78a3.51 3.51 0 00.1-1.18l.09-8.49v-.33a6.44 6.44 0 00-.07-1.23zm14.54 8.37a6.36 6.36 0 002 1.83 11.5 11.5 0 004 1.35 4.46 4.46 0 00-.63 1.16c-3.21-.84-5-2-6.44-4.1a5.65 5.65 0 01-2.31 2.7A10.17 10.17 0 01662 316a3.75 3.75 0 00-.61-1.12 10.09 10.09 0 003.22-1 4.75 4.75 0 002.12-2.18H663a10.94 10.94 0 00-1.47.09v-1.17a6.85 6.85 0 001.42.09h4a7.54 7.54 0 00.21-1.29h-2.61a7.28 7.28 0 00-1.32.08v-1.08a7.48 7.48 0 001.32.07h2.67c0-.57.05-.72.06-1.18h-2.76a9.26 9.26 0 00-1.42.07v-1.09a8.89 8.89 0 001.42.07h2.76a4.68 4.68 0 00-.08-1.14h1.29a5.83 5.83 0 00-.08 1.14h3a9.09 9.09 0 001.44-.07v1.09a9.62 9.62 0 00-1.44-.07h-3c0 .58 0 .85-.06 1.18h2.94a7.35 7.35 0 001.31-.07v1.08a7.29 7.29 0 00-1.31-.08h-3a9 9 0 01-.2 1.29h5a7 7 0 001.43-.09v1.17a11 11 0 00-1.47-.09zm-1.49-8.35a4.86 4.86 0 00-.09-.95h1.35a4.73 4.73 0 00-.09.93v.51h4.33a13.58 13.58 0 001.55-.06 6.85 6.85 0 00-.06 1v.94a6.58 6.58 0 00.06 1.07h-1.15v-2H662.9v2h-1.17a6.58 6.58 0 00.06-1.07v-.93a7.07 7.07 0 00-.06-1 13.87 13.87 0 001.56.06h4.05zm12.03.49a8.83 8.83 0 00-.09-1.36h1.29a7.66 7.66 0 00-.09 1.36v.93h.92a8.8 8.8 0 001.35-.07v1.15a11.12 11.12 0 00-1.35-.06h-1.77v1.92h1.47a6.49 6.49 0 001.08-.06v1.23a38 38 0 01-.34 5.49c-.24 1.14-.51 1.37-1.62 1.37-.18 0-.51 0-1-.06a3.93 3.93 0 00-.21-1.14 5.5 5.5 0 001.16.15c.48 0 .57-.15.7-1.1a41.33 41.33 0 00.26-4.87h-1.53a21 21 0 01-.45 3.67 9.43 9.43 0 01-1.64 3.56 3.48 3.48 0 00-.84-.93 8.41 8.41 0 001.76-4.68c.1-1.14.16-2.48.19-4.55h-.36a6.57 6.57 0 00-1.24.08v-1.19a6.24 6.24 0 001.32.09h1.09zm4.1 4.23a10.8 10.8 0 00-.06-1.2c-.23.33-.37.53-.77 1a2.5 2.5 0 00-.84-.77 11.13 11.13 0 002.3-3.9 4.75 4.75 0 00.23-.84l1.21.27c-.06.12-.06.12-.3.69s-.29.71-.45 1.07h4.15a10.11 10.11 0 001.55-.09v1.18c-.41 0-1-.06-1.53-.06h-4.7c-.31.56-.51.89-.84 1.4h1.17a6.84 6.84 0 00-.07 1.2v.69l1.52-.47v-1A8.44 8.44 0 00686 306h1.19a6 6 0 00-.09 1.22v.76l1.62-.49a4.18 4.18 0 00.54-.18l.32-.11a2.25 2.25 0 00.4-.15v1.17c-.13 4-.21 4.32-1.47 4.32h-.8a3.68 3.68 0 00-.25-1 4.54 4.54 0 00.93.12c.26 0 .37-.12.4-.46a22.68 22.68 0 00.14-2.67l-1.8.57v2.74a8.09 8.09 0 00.06 1.26H686a10.3 10.3 0 000-1.26v-2.43l-1.52.48V314c0 .6.12.63 2.48.63 1.58 0 2-.06 2.21-.26a4.16 4.16 0 00.29-1.89 3.22 3.22 0 001.09.39c-.13 1.46-.3 2-.67 2.37s-1 .44-3 .44c-2.94 0-3.46-.2-3.46-1.32v-4.28a5.35 5.35 0 00-.92.36l-.16-1.18a6.27 6.27 0 001.08-.26zm15.45-4.3a5.75 5.75 0 00-.11-1.31h1.37a5.63 5.63 0 00-.1 1.31v.82h4.36a11 11 0 001.64-.1v1.26a12.43 12.43 0 00-1.63-.09h-4.37v2.28h2a6.74 6.74 0 001.31-.08l.75.75a7.25 7.25 0 00-.59.8 13.72 13.72 0 01-2.94 3.25 15.87 15.87 0 005.73 2.13 3.62 3.62 0 00-.63 1.2 17 17 0 01-6.06-2.61 16.4 16.4 0 01-6.12 2.57 3.82 3.82 0 00-.61-1.14 15 15 0 005.79-2.15 10.49 10.49 0 01-1.76-1.84 10.66 10.66 0 01-1.12-1.86 11.93 11.93 0 00-1.65.09v-1.2a11.7 11.7 0 001.66.09h3v-2.28h-4.16a12.54 12.54 0 00-1.63.09v-1.26a11 11 0 001.65.1h4.14zm-1.85 5.19a9.43 9.43 0 002.63 3 10.77 10.77 0 002.79-3zm13.26-4.91a8.06 8.06 0 00-.09-1.53h1.29a9.76 9.76 0 00-.09 1.52v1.39h.45a4.78 4.78 0 00.9-.06v1.14a6.27 6.27 0 00-.9-.06h-.45v2.52a12.34 12.34 0 001.2-.57l.05 1.05a13.48 13.48 0 01-1.25.6v4.82c0 .91-.33 1.14-1.66 1.14h-.89a3.76 3.76 0 00-.24-1.1 8.62 8.62 0 001.31.11c.28 0 .37-.08.37-.33v-4.14c-.37.15-.66.25-1.23.46l-.46.2-.29-1.19a7.56 7.56 0 002-.58v-3h-.79a8.68 8.68 0 00-1 .06v-1.15a5.33 5.33 0 001 .07h.78zm4.25 3.63a13.61 13.61 0 00-1.4.06v-1.05a7.11 7.11 0 001.29.08h4.34a10.28 10.28 0 001.38-2.76l1.09.34a18.46 18.46 0 01-1.4 2.42h.61a6.06 6.06 0 001.27-.09v1.06a14 14 0 00-1.41-.06h-4.08c-.07.68-.07.74-.13 1.16h4.21a10.59 10.59 0 001.66-.09v1.12a12.83 12.83 0 00-1.66-.09H716a8.85 8.85 0 01-.27 1H719a8.79 8.79 0 001.26-.06l.57.7a2.64 2.64 0 00-.33.45 12.34 12.34 0 01-1.82 2 10.63 10.63 0 003.62 1.17 6.38 6.38 0 00-.55 1.11 12.81 12.81 0 01-3.93-1.63 12.57 12.57 0 01-3.74 1.62 2.94 2.94 0 00-.61-1 10.51 10.51 0 003.43-1.28 9.21 9.21 0 01-1.74-1.75 11 11 0 01-2.92 3.9 2.7 2.7 0 00-.77-.87 8.57 8.57 0 002.16-2.39 9.78 9.78 0 001.22-3h-.42a10.13 10.13 0 00-1.5.08v-1.1a10.37 10.37 0 001.51.08h.59c.06-.44.09-.72.12-1.16zm7-4.29l-.73.17a47.77 47.77 0 01-7.77.82 2.64 2.64 0 00-.38-1h.45a26.83 26.83 0 007.63-1zm-7 3.33a6.28 6.28 0 00-1-1.86l.91-.33a7.62 7.62 0 01.91 1.8zm1.46 5a8.89 8.89 0 001.73 1.57 6.83 6.83 0 001.52-1.57zm1-5.13a7.78 7.78 0 00-.85-2l.93-.29a9.06 9.06 0 01.84 2zm-76.42 23.54a2.87 2.87 0 00-.51.16 23.78 23.78 0 01-3.26.9v2.85h3.36a8.57 8.57 0 001.77-.1v1.33a13.35 13.35 0 00-1.76-.07h-3.45a7.34 7.34 0 01-1 3.3 8 8 0 01-2.41 2.4 15 15 0 01-1.35.72 3.13 3.13 0 00-1-1.11 7.73 7.73 0 002.22-1.2 5.35 5.35 0 002.16-4.11h-3.92a13.59 13.59 0 00-1.8.07v-1.33a9 9 0 001.82.1h4v-2.64a31.17 31.17 0 01-4.35.39 3.51 3.51 0 00-.42-1.18h.9a25 25 0 006.33-.93 6.07 6.07 0 001.74-.72zm9.91 9.76h3.09a8.8 8.8 0 001.44-.07V341a9.17 9.17 0 00-1.44-.07h-7.26a10.83 10.83 0 00-1.44.06v-1.25a7.18 7.18 0 001.43.09h2.95v-5.07h-2a13.24 13.24 0 00-1.42.06v-1.22a9.13 9.13 0 001.42.09h5.45a7.76 7.76 0 001.42-.1v1.24a11.59 11.59 0 00-1.41-.06h-2.19zm9.23-7.27a17.16 17.16 0 011.48 3.39l-1.21.4a12.6 12.6 0 00-1.4-3.42zm8.5 0a5.24 5.24 0 00-.19.69 12.58 12.58 0 01-2.16 5 11.75 11.75 0 01-4.32 3.34 3.83 3.83 0 00-.86-1 9.24 9.24 0 005.67-5.83 8.31 8.31 0 00.54-2.48zm-5.4-.57a15.92 15.92 0 011.46 3.28l-1.19.41a13.43 13.43 0 00-1.38-3.35zm14.54-3a1.87 1.87 0 00-.33.59 13.9 13.9 0 01-.66 1.3 1.28 1.28 0 01.37 0h.22l3.83-.06a2.21 2.21 0 00.87-.12l.73.72a2.21 2.21 0 00-.33.78 15.55 15.55 0 01-3 5.68 14.77 14.77 0 01-5.25 3.77 3.1 3.1 0 00-.9-1.1 12.6 12.6 0 005.25-3.69 13.26 13.26 0 002.56-4.89l-4.9.08a15.06 15.06 0 01-3.56 3.87 2.77 2.77 0 00-1-.92 11.5 11.5 0 003.8-4.18 6.62 6.62 0 00.9-2.13zm141.36-24a6.1 6.1 0 001.2.08h2.67a5.79 5.79 0 001.2-.08v1.13a10.88 10.88 0 00-1.1-.05H820a10 10 0 00-1.2.06zm.52-2.07a5.64 5.64 0 001.13.08h2a5.59 5.59 0 001.12-.08V304a9.11 9.11 0 00-1.12-.06h-2a8.62 8.62 0 00-1.13.06zm.06 4.22a6.37 6.37 0 001 .06h2.13a5.65 5.65 0 001-.06v1.08a5.59 5.59 0 00-1-.06h-2.13a5.42 5.42 0 00-1 .06zm0 2.1a8.8 8.8 0 001 0h2.13a7.72 7.72 0 001 0v1.06a6.62 6.62 0 00-1-.06h-2.13a6.53 6.53 0 00-1 .06zm0 6.79a13.64 13.64 0 00.08-1.45v-2.1a11.45 11.45 0 00-.06-1.22 7.75 7.75 0 001.21.06h1.76a9 9 0 001.08 0 9.69 9.69 0 000 1.14v2.2a9.42 9.42 0 00.06 1.22h-1v-.62h-1.93v.73zm1.08-1.74h2v-2.07h-2zm5.07-3.09a11.48 11.48 0 01-1 3.77l-1-.51a7.86 7.86 0 001-3.47zm-.52-6.3c.88.32 1.23.45 1.8.69a7.89 7.89 0 00.3-1.48h-1.29a7.6 7.6 0 00-1.53.09V303a10.32 10.32 0 001.54.09h4.64a13.29 13.29 0 001.41-.06c0 .21 0 .21-.11 1.59a16.62 16.62 0 01-.54 3.73c-.25.65-.6.83-1.6.83-.36 0-.84 0-1.19-.06a3.34 3.34 0 00-.27-1.11 6.37 6.37 0 001.35.16c.54 0 .71-.15.84-.79a18.52 18.52 0 00.33-3.3h-2.52a8.21 8.21 0 01-.43 1.93c.52.27.81.42 1.54.87l-.57.87a12.73 12.73 0 00-1.35-.85 7.33 7.33 0 01-2.89 2.92 3.71 3.71 0 00-.77-.85 5.77 5.77 0 002.75-2.54c-.6-.28-1-.43-1.94-.78zm2.14 9.47c0 .33.14.39.83.39.3 0 1 0 1.12-.05.42-.07.53-.21.62-.81 0-.33.07-.75.1-1.23a3.67 3.67 0 001 .35 5.46 5.46 0 01-.44 2.13c-.25.46-.75.6-2.25.6-1.69 0-2-.17-2-1V312a7.08 7.08 0 00-.09-1.18h1.22a5.2 5.2 0 00-.08 1.09zm.12-5.46a11.51 11.51 0 012.4 2l-.81.72a8.09 8.09 0 00-2.34-2.1zm3.86 1.89a14.73 14.73 0 011.78 3.25l-.93.59a11.53 11.53 0 00-1.72-3.36zm4.12-5.89a6.52 6.52 0 001.2.07h3a7.39 7.39 0 001.2-.06v1.13a6.46 6.46 0 00-1.11-.06h-3.06a8.4 8.4 0 00-1.2.06zm.48 11.13a10.37 10.37 0 00.09-1.46v-2.07a7.83 7.83 0 00-.07-1.24 11.22 11.22 0 001.18.06H839a5.39 5.39 0 001.07 0 11.32 11.32 0 000 1.16v2.19a11.15 11.15 0 000 1.21h-1v-.58h-2.27v.78zm0-13.22a6.43 6.43 0 001.17.08H839a6.5 6.5 0 001.17-.08v1.1a8.12 8.12 0 00-1.17-.06h-2.13a8.2 8.2 0 00-1.17.06zm.06 4.26a5.77 5.77 0 001.05.06h2.25a5.4 5.4 0 001-.06v1.07a6.33 6.33 0 00-1-.06h-2.25a6.18 6.18 0 00-1.05.06zm0 2.09a6.87 6.87 0 001.05.06h2.25a6.72 6.72 0 001-.06v1.06a7.63 7.63 0 00-1-.06h-2.24a7.33 7.33 0 00-1.05.06zm1 5.16H839v-2.07h-2.2zm7.67-10.19h-1.94a11.89 11.89 0 00-1.59.09V303a11.28 11.28 0 001.59.09h4.62a11.18 11.18 0 001.59-.09v1.23a11.57 11.57 0 00-1.57-.09h-1.59v4.11H847a9.48 9.48 0 001.47-.09v1.23a9.66 9.66 0 00-1.47-.09h-1.47v5h1.86a11.51 11.51 0 001.56-.09v1.24a11.62 11.62 0 00-1.58-.09h-5.34a11.77 11.77 0 00-1.56.08v-1.2a7.63 7.63 0 001.13.06v-6a10 10 0 00-.09-1.56h1.27a10.44 10.44 0 00-.09 1.56v6h1.73z" fill="#443b38"/><path class="cls-7" d="M123.18 95a78.47 78.47 0 11-78.47 78.5A78.47 78.47 0 01123.18 95zm0 2.58a4.48 4.48 0 104.47 4.47 4.48 4.48 0 00-4.47-4.47zm0 11.17a64.72 64.72 0 1064.72 64.75 64.71 64.71 0 00-64.72-64.72z"/><path class="cls-8" d="M300.82 95a78.47 78.47 0 11-78.47 78.47A78.47 78.47 0 01300.82 95zm0 2.58a4.48 4.48 0 104.48 4.47 4.47 4.47 0 00-4.48-4.47zm0 11.17a64.72 64.72 0 1064.72 64.72 64.72 64.72 0 00-64.72-64.72z"/><path class="cls-9" d="M478.47 95A78.47 78.47 0 11400 173.5 78.47 78.47 0 01478.47 95zm0 2.58a4.48 4.48 0 104.47 4.47 4.48 4.48 0 00-4.47-4.47zm0 11.17a64.72 64.72 0 1064.72 64.72 64.71 64.71 0 00-64.72-64.72z"/><path class="cls-10" d="M656.11 95a78.47 78.47 0 11-78.47 78.47A78.47 78.47 0 01656.11 95zm0 2.58a4.48 4.48 0 104.48 4.47 4.47 4.47 0 00-4.48-4.47zm0 11.17a64.72 64.72 0 1064.72 64.72 64.72 64.72 0 00-64.72-64.72z"/><path class="cls-5" d="M833.76 95a78.47 78.47 0 11-78.47 78.47A78.47 78.47 0 01833.76 95zm0 2.58a4.48 4.48 0 104.47 4.47 4.47 4.47 0 00-4.47-4.47zm0 11.17a64.72 64.72 0 1064.71 64.72 64.71 64.71 0 00-64.71-64.72z"/><path class="cls-11" d="M87.79 28.51a1.72 1.72 0 110-3.43h3.44a1.72 1.72 0 010 3.43zm-68.74 0a1.72 1.72 0 110-3.43h3.43a1.72 1.72 0 110 3.43zm13.75 0a1.72 1.72 0 110-3.43h3.43a1.72 1.72 0 110 3.43zm13.74 0a1.72 1.72 0 010-3.43H50a1.72 1.72 0 110 3.43zm13.75 0a1.72 1.72 0 110-3.43h3.44a1.72 1.72 0 110 3.43zm13.75 0a1.72 1.72 0 110-3.43h3.44a1.72 1.72 0 110 3.43zm47.42 28.54a1.72 1.72 0 013.44 0v3.44a1.72 1.72 0 11-3.44 0v-3.44zm0 27.5a1.72 1.72 0 113.44 0V88a1.72 1.72 0 11-3.44 0v-3.45zm0-13.75a1.72 1.72 0 113.44 0v3.44a1.72 1.72 0 11-3.44 0V70.8z"/><path class="cls-12" d="M0 34.92l8.14-8.14L0 18.64v16.28z"/><path class="cls-11" d="M264.75 28.51a1.72 1.72 0 110-3.43h3.43a1.72 1.72 0 110 3.43zm-109.91 0a1.72 1.72 0 110-3.43h3.44a1.72 1.72 0 110 3.43zm13.75 0a1.72 1.72 0 110-3.43H172a1.72 1.72 0 110 3.43zm13.75 0a1.72 1.72 0 110-3.43h3.44a1.72 1.72 0 010 3.43zm13.66 0a1.72 1.72 0 010-3.43h3.44a1.72 1.72 0 110 3.43zm13.75 0a1.72 1.72 0 110-3.43h3.44a1.72 1.72 0 110 3.43zm13.75 0a1.72 1.72 0 110-3.43h3.44a1.72 1.72 0 110 3.43zm13.75 0a1.72 1.72 0 110-3.43h3.44a1.72 1.72 0 110 3.43zm13.75 0a1.72 1.72 0 110-3.43h3.43a1.72 1.72 0 110 3.43zm48.1 28.54a1.72 1.72 0 013.44 0v3.44a1.72 1.72 0 01-3.44 0v-3.44zm0 27.5a1.72 1.72 0 013.44 0V88a1.72 1.72 0 01-3.44 0v-3.45zm0-13.75a1.72 1.72 0 013.44 0v3.44a1.72 1.72 0 01-3.44 0V70.8zm177.65-13.75a1.72 1.72 0 013.44 0v3.44a1.72 1.72 0 11-3.44 0v-3.44zm0 27.5a1.72 1.72 0 113.44 0V88a1.72 1.72 0 11-3.44 0v-3.45zm0-13.75a1.72 1.72 0 113.44 0v3.44a1.72 1.72 0 11-3.44 0V70.8zm-34.3-42.29a1.72 1.72 0 110-3.43h3.44a1.72 1.72 0 110 3.43zm-109.9 0a1.72 1.72 0 110-3.43H336a1.72 1.72 0 110 3.43zm13.75 0a1.72 1.72 0 110-3.43h3.44a1.72 1.72 0 010 3.43zm13.75 0a1.72 1.72 0 110-3.43h3.43a1.72 1.72 0 110 3.43zm13.66 0a1.72 1.72 0 110-3.43h3.44a1.72 1.72 0 110 3.43zm13.75 0a1.72 1.72 0 110-3.43h3.44a1.72 1.72 0 110 3.43zm13.75 0a1.72 1.72 0 110-3.43h3.44a1.72 1.72 0 010 3.43zm13.75 0a1.72 1.72 0 110-3.43h3.43a1.72 1.72 0 110 3.43zm13.75 0a1.72 1.72 0 110-3.43h3.43a1.72 1.72 0 110 3.43zm225.68 28.54a1.72 1.72 0 013.44 0v3.44a1.72 1.72 0 11-3.44 0v-3.44zm0 27.5a1.72 1.72 0 113.44 0V88a1.72 1.72 0 11-3.44 0v-3.45zm0-13.75a1.72 1.72 0 113.44 0v3.44a1.72 1.72 0 11-3.44 0V70.8zm-34.12-42.29a1.72 1.72 0 110-3.43h3.43a1.72 1.72 0 110 3.43zm-109.91 0a1.72 1.72 0 110-3.43h3.44a1.72 1.72 0 110 3.43zm13.75 0a1.72 1.72 0 110-3.43h3.44a1.72 1.72 0 110 3.43zm13.75 0a1.72 1.72 0 110-3.43h3.44a1.72 1.72 0 010 3.43zm13.67 0a1.72 1.72 0 110-3.43H555a1.72 1.72 0 110 3.43zm13.74 0a1.72 1.72 0 110-3.43h3.44a1.72 1.72 0 110 3.43zm13.75 0a1.72 1.72 0 110-3.43h3.44a1.72 1.72 0 110 3.43zm13.75 0a1.72 1.72 0 110-3.43h3.44a1.72 1.72 0 110 3.43zm13.75 0a1.72 1.72 0 110-3.43H610a1.72 1.72 0 010 3.43zM832 57.05a1.72 1.72 0 013.44 0v3.44a1.72 1.72 0 01-3.44 0v-3.44zm0 27.5a1.72 1.72 0 013.44 0V88a1.72 1.72 0 01-3.44 0v-3.45zm0-13.75a1.72 1.72 0 013.44 0v3.44a1.72 1.72 0 01-3.44 0V70.8zm-34.31-42.29a1.72 1.72 0 010-3.43h3.44a1.72 1.72 0 110 3.43zm-109.9 0a1.72 1.72 0 110-3.43h3.44a1.72 1.72 0 110 3.43zm13.75 0a1.72 1.72 0 110-3.43H705a1.72 1.72 0 110 3.43zm13.75 0a1.72 1.72 0 110-3.43h3.43a1.72 1.72 0 110 3.43zm13.66 0a1.72 1.72 0 110-3.43h3.44a1.72 1.72 0 110 3.43zm13.75 0a1.72 1.72 0 110-3.43h3.44a1.72 1.72 0 110 3.43zm13.75 0a1.72 1.72 0 110-3.43h3.44a1.72 1.72 0 010 3.43zm13.75 0a1.72 1.72 0 110-3.43h3.43a1.72 1.72 0 110 3.43zm13.75 0a1.72 1.72 0 110-3.43h3.43a1.72 1.72 0 110 3.43zm152.73 0a1.72 1.72 0 110-3.43h3.43a1.72 1.72 0 110 3.43zm-68.74 0a1.72 1.72 0 110-3.43h3.43a1.72 1.72 0 110 3.43zm13.74 0a1.72 1.72 0 110-3.43h3.44a1.72 1.72 0 110 3.43zm13.75 0a1.72 1.72 0 110-3.43h3.44a1.72 1.72 0 110 3.43zm13.75 0a1.72 1.72 0 110-3.43h3.44a1.72 1.72 0 110 3.43zm13.75 0a1.72 1.72 0 110-3.43h3.43a1.72 1.72 0 110 3.43z"/><path class="cls-12" d="M951.86 34.92l8.14-8.14-8.14-8.14v16.28z"/><path class="cls-13" d="M123.18 4.41a21.7 21.7 0 11-21.7 21.7 21.7 21.7 0 0121.7-21.7z"/><path class="cls-7" d="M123.18 0a26.11 26.11 0 11-26.11 26.11A26.11 26.11 0 01123.18 0zm0 2.58a23.53 23.53 0 1023.53 23.53 23.52 23.52 0 00-23.53-23.53z"/><path class="cls-14" d="M300.82 4.41a21.7 21.7 0 11-21.69 21.7 21.71 21.71 0 0121.69-21.7z"/><path class="cls-8" d="M300.82 0a26.11 26.11 0 11-26.11 26.11A26.11 26.11 0 01300.82 0zm0 2.58a23.53 23.53 0 1023.53 23.53 23.53 23.53 0 00-23.53-23.53z"/><path class="cls-15" d="M478.47 4.41a21.7 21.7 0 11-21.7 21.7 21.7 21.7 0 0121.7-21.7z"/><path class="cls-9" d="M478.47 0a26.11 26.11 0 11-26.11 26.11A26.11 26.11 0 01478.47 0zm0 2.58A23.53 23.53 0 10502 26.11a23.52 23.52 0 00-23.53-23.53z"/><path class="cls-16" d="M656.11 4.41a21.7 21.7 0 11-21.69 21.7 21.7 21.7 0 0121.69-21.7z"/><path class="cls-10" d="M656.11 0A26.11 26.11 0 11630 26.11 26.11 26.11 0 01656.11 0zm0 2.58a23.53 23.53 0 1023.53 23.53 23.52 23.52 0 00-23.53-23.53z"/><path class="cls-17" d="M833.76 4.41a21.7 21.7 0 11-21.7 21.7 21.7 21.7 0 0121.7-21.7z"/><path class="cls-5" d="M833.76 0a26.11 26.11 0 11-26.11 26.11A26.12 26.12 0 01833.76 0zm0 2.58a23.53 23.53 0 1023.53 23.53 23.52 23.52 0 00-23.53-23.53z"/><path class="cls-13" d="M123.18 275.17a4.48 4.48 0 104.47 4.47 4.48 4.48 0 00-4.47-4.47z"/><path class="cls-14" d="M300.82 275.17a4.48 4.48 0 104.48 4.47 4.47 4.47 0 00-4.48-4.47z"/><path class="cls-15" d="M478.47 275.17a4.48 4.48 0 104.47 4.47 4.48 4.48 0 00-4.47-4.47z"/><path class="cls-16" d="M656.11 275.17a4.48 4.48 0 104.48 4.47 4.47 4.47 0 00-4.48-4.47z"/><path class="cls-17" d="M833.76 275.17a4.48 4.48 0 104.47 4.47 4.47 4.47 0 00-4.47-4.47z"/><path d="M129.36 30.9v3.52h-11.81V30.9h4.13v-8.82a3.23 3.23 0 01-.83.71 11.12 11.12 0 01-1.24.68 8.2 8.2 0 01-1.38.53 4.94 4.94 0 01-1.27.2v-3.64a3.39 3.39 0 001.29-.33 11.25 11.25 0 001.48-.8 13.14 13.14 0 001.27-.92 3.43 3.43 0 00.68-.71h4v13.1zm164.45 3.66a13.18 13.18 0 01.2-2.37 6.39 6.39 0 012.11-3.65 12.14 12.14 0 012.26-1.54c.79-.43 1.5-.8 2.11-1.12s1.12-.62 1.53-.89a4.07 4.07 0 00.93-.83 1.6 1.6 0 00.32-1 1.94 1.94 0 00-.7-1.49 2.92 2.92 0 00-2-.63 4 4 0 00-1.28.19 4.72 4.72 0 00-1.09.51 6 6 0 00-.93.71 7.5 7.5 0 00-.77.83l-2.5-2.86a6.82 6.82 0 011.08-.89 10.41 10.41 0 011.64-.9 12.61 12.61 0 012.1-.7 10.78 10.78 0 012.46-.27 9 9 0 012.65.36 5.69 5.69 0 012 1 4.34 4.34 0 011.22 1.57 4.71 4.71 0 01.43 2 4.18 4.18 0 01-.38 1.81 5.73 5.73 0 01-1 1.39 7.58 7.58 0 01-1.27 1.07c-.46.3-.9.56-1.32.8l-1.2.67c-.44.25-.88.52-1.32.82a13.33 13.33 0 00-1.21.94 4.15 4.15 0 00-.88.91h8.82v3.52zm187.76-9.08a4.68 4.68 0 012.92 1.73 5.37 5.37 0 011.12 3.45 5.6 5.6 0 01-.54 2.48 5.36 5.36 0 01-1.51 1.86 7.14 7.14 0 01-2.37 1.2 10.92 10.92 0 01-3.15.42 10.17 10.17 0 01-3.91-.71 7.33 7.33 0 01-2.84-2.09l2.21-2.76a5.23 5.23 0 001.81 1.48 5.82 5.82 0 002.62.53 4.47 4.47 0 002.71-.7 2.52 2.52 0 00.93-2.15 2.74 2.74 0 00-1.08-2.33 5.39 5.39 0 00-3.26-.82h-.81v-2.9h.9a4.29 4.29 0 002.79-.8 2.51 2.51 0 001-2.05 2 2 0 00-.81-1.77 3.6 3.6 0 00-2.13-.59 4.72 4.72 0 00-4.17 2.33l-2.45-2.73a4.77 4.77 0 011.17-1.21 7.86 7.86 0 011.64-.93 9.94 9.94 0 012-.61 10.69 10.69 0 012.21-.22 8.81 8.81 0 012.7.38 6.82 6.82 0 012.11 1 4.52 4.52 0 011.85 3.73 5.39 5.39 0 01-.23 1.7 4.63 4.63 0 01-.76 1.42 4.5 4.5 0 01-1.18 1.08 3.93 3.93 0 01-1.49.58zm174.32 10.78v-4.33h-8.5v-3.46L657.14 16h2.65v12.44h2.56v3.49h-2.56v4.33zm-4.6-7.82h5v-6.58l-5 6.58zM834.16 23a7.54 7.54 0 012.71.48A6.34 6.34 0 01839 24.8a6.08 6.08 0 011.41 2.09 7 7 0 01.51 2.71 6.91 6.91 0 01-.57 2.85 6.22 6.22 0 01-1.58 2.2 7.29 7.29 0 01-2.42 1.43 8.7 8.7 0 01-3 .5 8.45 8.45 0 01-4.06-1 6.65 6.65 0 01-2.72-2.58l2.24-2.33a6 6 0 002 1.8 5.13 5.13 0 002.53.67 3.6 3.6 0 002.57-.94 3.64 3.64 0 00.06-5 3.28 3.28 0 00-2.4-.93 3.79 3.79 0 00-1.79.44 3.53 3.53 0 00-1.32 1.19h-3.41a6.1 6.1 0 01.12-.65c.08-.38.17-.87.29-1.46s.24-1.25.38-2 .28-1.47.43-2.22l1.17-6h10.18v3.55h-7.32l-.84 4.63a2.37 2.37 0 011-.61 5.1 5.1 0 011.67-.23z" fill="#fff"/><path d="M87.7 149.25a1.64 1.64 0 00-.8-.57 2.79 2.79 0 00-1-.18 2.48 2.48 0 00-.54.06 1.87 1.87 0 00-.53.2 1.07 1.07 0 00-.4.36.89.89 0 00-.16.54.9.9 0 00.37.79 3.58 3.58 0 00.94.46l1.22.39a4.93 4.93 0 011.22.54 2.91 2.91 0 01.94.94 3 3 0 01.37 1.59A3.71 3.71 0 0189 156a3.23 3.23 0 01-.93 1.16 3.75 3.75 0 01-1.35.69 5.71 5.71 0 01-1.62.23 5.8 5.8 0 01-2-.34 5 5 0 01-1.71-1.09l1.72-1.95a2.48 2.48 0 00.94.79 2.58 2.58 0 001.17.28 2.46 2.46 0 00.6-.07 1.86 1.86 0 00.54-.22 1.12 1.12 0 00.39-.36.94.94 0 00.15-.53 1 1 0 00-.38-.81 3.46 3.46 0 00-1-.5c-.38-.14-.79-.28-1.24-.42a5.8 5.8 0 01-1.24-.56 2.91 2.91 0 01-1-.93 2.66 2.66 0 01-.38-1.52 3.31 3.31 0 011.28-2.75 4 4 0 011.34-.7 5.52 5.52 0 011.57-.23 6 6 0 011.8.27 4.13 4.13 0 011.56.92zm6.85-.56h-3.14v-2.21h8.69v2.21H97v9.12h-2.45zm8.11-2.21h7.47v2.3h-5v2.12h4.76v2.3h-4.76v2.3h5.32v2.31h-7.75zm10.93 0h4.08a7.67 7.67 0 011.62.16 3.72 3.72 0 011.32.55 2.75 2.75 0 01.9 1.06 3.73 3.73 0 01.34 1.67 4 4 0 01-.31 1.66 2.81 2.81 0 01-.86 1.08 3.44 3.44 0 01-1.29.56 6.8 6.8 0 01-1.61.17H116v4.42h-2.42zm2.42 4.8h1.62a3.18 3.18 0 00.62-.06 1.81 1.81 0 00.55-.22 1 1 0 00.38-.42 1.29 1.29 0 00.15-.66 1.16 1.16 0 00-.19-.7 1.31 1.31 0 00-.5-.4 2.08 2.08 0 00-.67-.19H116zm13.84.86a6.49 6.49 0 01.45-2.46 5.3 5.3 0 011.23-1.88 5.38 5.38 0 011.88-1.19 6.49 6.49 0 012.37-.42 6.58 6.58 0 012.38.42 5.48 5.48 0 011.84 1.19 5.58 5.58 0 011.23 1.88 7.12 7.12 0 010 4.93 5.68 5.68 0 01-1.23 1.88 5.48 5.48 0 01-1.88 1.19 6.58 6.58 0 01-2.38.42 6.49 6.49 0 01-2.37-.42 5.27 5.27 0 01-3.11-3.07 6.51 6.51 0 01-.41-2.47zm2.52 0a4.28 4.28 0 00.24 1.47 3.33 3.33 0 00.69 1.15 3.07 3.07 0 001.08.76 3.79 3.79 0 002.81 0 3.07 3.07 0 001.08-.76 3.33 3.33 0 00.69-1.15 4.56 4.56 0 000-2.92 3.28 3.28 0 00-.69-1.16 3.07 3.07 0 00-1.08-.76 3.79 3.79 0 00-2.81 0 3.07 3.07 0 00-1.08.76 3.28 3.28 0 00-.69 1.16 4.28 4.28 0 00-.24 1.45zm12.23-5.66h3.29l4.67 7.87v-7.87H155v11.33h-3.16l-4.8-8.07v8.07h-2.44zm13.98 0h7.47v2.3H161v2.12h4.77v2.3H161v2.3h5.33v2.31h-7.75zm105.21 2.77a1.64 1.64 0 00-.8-.57 2.79 2.79 0 00-.95-.18 2.48 2.48 0 00-.54.06 1.87 1.87 0 00-.53.2 1.19 1.19 0 00-.41.36 1 1 0 00-.15.54.9.9 0 00.37.79 3.58 3.58 0 00.94.46c.38.13.78.26 1.22.39a4.93 4.93 0 011.22.54 3 3 0 01.94.94 3.07 3.07 0 01.37 1.59 3.86 3.86 0 01-.34 1.65 3.23 3.23 0 01-.93 1.16 3.75 3.75 0 01-1.35.69 5.71 5.71 0 01-1.62.23 5.9 5.9 0 01-2-.34 4.92 4.92 0 01-1.7-1.09l1.72-1.95a2.48 2.48 0 00.94.79 2.58 2.58 0 001.17.28 2.46 2.46 0 00.6-.07 1.86 1.86 0 00.54-.22 1.12 1.12 0 00.39-.36.94.94 0 00.15-.53 1 1 0 00-.38-.81 3.46 3.46 0 00-1-.5c-.38-.14-.79-.28-1.24-.42a5.8 5.8 0 01-1.24-.56 3 3 0 01-1-.93 2.74 2.74 0 01-.38-1.52 3.52 3.52 0 01.35-1.6 3.63 3.63 0 01.93-1.15 4.13 4.13 0 011.35-.7 5.45 5.45 0 011.56-.23 6.06 6.06 0 011.81.27 4.21 4.21 0 011.56.92zm6.85-.56h-3.14v-2.21h8.69v2.21h-3.13v9.12h-2.42zm8.11-2.21h7.47v2.3h-5.05v2.12h4.77v2.3h-4.77v2.3h5.33v2.31h-7.75zm10.93 0h4.08a7.51 7.51 0 011.61.16 3.7 3.7 0 011.33.55 2.75 2.75 0 01.9 1.06 3.73 3.73 0 01.34 1.67 3.87 3.87 0 01-.32 1.66 2.7 2.7 0 01-.85 1.08 3.44 3.44 0 01-1.29.56 6.8 6.8 0 01-1.61.17h-1.77v4.42h-2.42zm2.42 4.8h1.61a3.21 3.21 0 00.63-.06 1.92 1.92 0 00.55-.22 1.11 1.11 0 00.38-.42 1.29 1.29 0 00.15-.66 1.16 1.16 0 00-.19-.7 1.31 1.31 0 00-.5-.4 2.08 2.08 0 00-.67-.19h-1.96zm16.56-2.59h-3.14v-2.21h8.7v2.21h-3.14v9.12h-2.42zm6.87-2.21h2.64l1.76 7.26 2.29-7.26h2.25l2.29 7.46 1.84-7.46h2.46l-3.22 11.33h-2.15l-2.36-7.81-2.42 7.84h-2.08zm17.33 5.66a6.49 6.49 0 01.44-2.46 5.3 5.3 0 011.23-1.88 5.38 5.38 0 011.88-1.19 6.49 6.49 0 012.37-.42 6.58 6.58 0 012.38.42 5.27 5.27 0 013.11 3.07 7.12 7.12 0 010 4.93 5.27 5.27 0 01-3.11 3.07 6.58 6.58 0 01-2.38.42 6.49 6.49 0 01-2.37-.42 5.27 5.27 0 01-3.11-3.07 6.51 6.51 0 01-.44-2.47zm2.51 0a4.28 4.28 0 00.24 1.47 3.33 3.33 0 00.69 1.15 3.07 3.07 0 001.08.76 3.79 3.79 0 002.81 0 3.07 3.07 0 001.08-.76 3.33 3.33 0 00.69-1.15 4.56 4.56 0 000-2.92 3.28 3.28 0 00-.69-1.16 3.07 3.07 0 00-1.08-.76 3.79 3.79 0 00-2.81 0 3.07 3.07 0 00-1.08.76 3.28 3.28 0 00-.69 1.16 4.28 4.28 0 00-.24 1.45zm97.79-2.89a1.68 1.68 0 00-.8-.57 2.84 2.84 0 00-.95-.18 2.64 2.64 0 00-.55.06 1.93 1.93 0 00-.52.2 1.19 1.19 0 00-.41.36 1 1 0 00-.15.54.9.9 0 00.37.79 3.58 3.58 0 00.94.46c.38.13.78.26 1.22.39a4.93 4.93 0 011.22.54 2.88 2.88 0 01.93.94 3 3 0 01.38 1.59 3.86 3.86 0 01-.34 1.65 3.23 3.23 0 01-.93 1.16 3.92 3.92 0 01-1.35.69 5.71 5.71 0 01-1.62.23 5.85 5.85 0 01-2-.34 4.83 4.83 0 01-1.7-1.09l1.72-1.95a2.48 2.48 0 00.94.79 2.58 2.58 0 001.17.28 2.46 2.46 0 00.6-.07 1.86 1.86 0 00.54-.22 1.12 1.12 0 00.39-.36.94.94 0 00.15-.53 1 1 0 00-.38-.81 3.6 3.6 0 00-1-.5c-.38-.14-.8-.28-1.24-.42a5.59 5.59 0 01-1.24-.56 2.94 2.94 0 01-1-.93 2.74 2.74 0 01-.38-1.52 3.52 3.52 0 01.35-1.6 3.63 3.63 0 01.93-1.15 4.13 4.13 0 011.35-.7 5.45 5.45 0 011.56-.23 6 6 0 011.8.27 4.17 4.17 0 011.57.92zm6.84-.56h-3.13v-2.21h8.69v2.21h-3.13v9.12H440zm8.12-2.21h7.47v2.3h-5v2.12h4.77v2.3h-4.77v2.3h5.33v2.31h-7.75zm10.93 0h4.08a7.51 7.51 0 011.61.16 3.7 3.7 0 011.33.55 2.75 2.75 0 01.9 1.06 3.73 3.73 0 01.33 1.67 3.87 3.87 0 01-.31 1.66 2.7 2.7 0 01-.85 1.08 3.44 3.44 0 01-1.29.56 6.8 6.8 0 01-1.61.17h-1.77v4.42h-2.42zm2.42 4.8h1.61a3.21 3.21 0 00.63-.06 1.86 1.86 0 00.54-.22 1.13 1.13 0 00.39-.42 1.29 1.29 0 00.15-.66 1.23 1.23 0 00-.19-.7 1.31 1.31 0 00-.5-.4 2.07 2.07 0 00-.68-.19h-1.95zm16.53-2.59h-3.14v-2.21h8.69v2.21h-3.13v9.12H478zm8.05-2.21h2.42v4.22h4.71v-4.22h2.42v11.33h-2.42v-4.9h-4.71v4.9h-2.42zm13.02 0h4.26a7.52 7.52 0 011.59.17 3.74 3.74 0 011.32.56 2.89 2.89 0 01.9 1 3.75 3.75 0 01.33 1.66 3.36 3.36 0 01-.61 2 2.65 2.65 0 01-1.77 1.06l2.8 4.79H505l-2.3-4.53h-1.2v4.53h-2.42zm2.42 4.69h2.12a1.89 1.89 0 00.66-.14 1.15 1.15 0 00.49-.38 1.39 1.39 0 000-1.4 1.18 1.18 0 00-.43-.4 1.89 1.89 0 00-.61-.18 5 5 0 00-.66 0h-1.59zm8.97-4.69h7.47v2.3h-5v2.12h4.77v2.3h-4.77v2.3h5.33v2.31h-7.75zm11.02 0H529v2.3h-5.1v2.12h4.77v2.3h-4.77v2.3h5.33v2.31h-7.75zm92.7 2.77a1.65 1.65 0 00-.79-.57 2.89 2.89 0 00-1-.18 2.48 2.48 0 00-.54.06 2 2 0 00-.53.2 1.07 1.07 0 00-.4.36.89.89 0 00-.16.54.93.93 0 00.37.79 3.74 3.74 0 00.94.46l1.22.39a4.77 4.77 0 011.22.54 2.91 2.91 0 01.94.94 3 3 0 01.37 1.59 3.71 3.71 0 01-.34 1.65 3.31 3.31 0 01-.92 1.16 3.92 3.92 0 01-1.35.69 5.92 5.92 0 01-3.61-.11 5 5 0 01-1.71-1.09l1.72-1.95a2.48 2.48 0 00.94.79 2.58 2.58 0 001.17.28 2.46 2.46 0 00.6-.07 1.86 1.86 0 00.54-.22 1.12 1.12 0 00.39-.36.94.94 0 00.15-.53 1 1 0 00-.38-.81 3.39 3.39 0 00-.95-.5c-.39-.14-.8-.28-1.25-.42a5.8 5.8 0 01-1.24-.56 2.91 2.91 0 01-1-.93 2.66 2.66 0 01-.38-1.52 3.38 3.38 0 011.28-2.75 4.08 4.08 0 011.34-.7 5.52 5.52 0 011.57-.23 6 6 0 011.8.27 4.25 4.25 0 011.57.92zm6.82-.56h-3.14v-2.21h8.69v2.21h-3.13v9.12H621zm8.15-2.21h7.46v2.3h-5v2.12h4.76v2.3h-4.76v2.3h5.32v2.31h-7.74zm10.92 0h4.08a7.67 7.67 0 011.62.16 3.65 3.65 0 011.32.55 2.75 2.75 0 01.9 1.06 3.6 3.6 0 01.34 1.67 4 4 0 01-.31 1.66 2.72 2.72 0 01-.86 1.08 3.47 3.47 0 01-1.28.56 6.94 6.94 0 01-1.62.17h-1.77v4.42h-2.42zm2.42 4.8h1.62a3.36 3.36 0 00.63-.06 1.86 1.86 0 00.54-.22 1.13 1.13 0 00.39-.42 1.4 1.4 0 00.14-.66 1.16 1.16 0 00-.19-.7 1.24 1.24 0 00-.5-.4 2 2 0 00-.67-.19h-1.96zm14.51-4.8h7.37v2.3h-4.95v2.31H664v2.3h-4.58v4.42H657zm9.78 5.66a6.69 6.69 0 01.44-2.46 5.46 5.46 0 011.24-1.88 5.34 5.34 0 011.87-1.19 6.58 6.58 0 012.38-.42 6.49 6.49 0 012.37.42 5.38 5.38 0 011.92 1.19 5.46 5.46 0 011.24 1.88 7.12 7.12 0 010 4.93 5.55 5.55 0 01-1.24 1.88 5.38 5.38 0 01-1.88 1.19 6.49 6.49 0 01-2.37.42 6.58 6.58 0 01-2.38-.42 5.34 5.34 0 01-1.87-1.19 5.55 5.55 0 01-1.24-1.88 6.71 6.71 0 01-.48-2.47zm2.51 0a4.27 4.27 0 00.25 1.47 3.33 3.33 0 00.69 1.15 3.12 3.12 0 001.07.76 3.55 3.55 0 001.41.27 3.46 3.46 0 001.4-.27 3.07 3.07 0 001.08-.76 3.33 3.33 0 00.69-1.15 4.56 4.56 0 000-2.92 3.28 3.28 0 00-.69-1.16 3.07 3.07 0 00-1.08-.76 3.46 3.46 0 00-1.4-.27 3.55 3.55 0 00-1.41.27 3.12 3.12 0 00-1.07.76 3.28 3.28 0 00-.69 1.16 4.29 4.29 0 00-.25 1.45zm21.5 1.3a5.85 5.85 0 01-.29 1.86 4.21 4.21 0 01-.88 1.47 4 4 0 01-1.45 1 5.79 5.79 0 01-4 0 3.94 3.94 0 01-1.45-1 4.21 4.21 0 01-.88-1.47 5.58 5.58 0 01-.29-1.86v-7H684v6.86a2.8 2.8 0 00.16 1 2.33 2.33 0 00.46.78 2.11 2.11 0 00.7.51 2.23 2.23 0 00.9.18 2.13 2.13 0 00.88-.18 2.22 2.22 0 00.7-.51 2.33 2.33 0 00.46-.78 3.05 3.05 0 00.16-1v-6.86h2.42zm3.48-6.96h4.25a7.38 7.38 0 011.59.17 3.74 3.74 0 011.32.56 2.72 2.72 0 01.9 1 3.75 3.75 0 01.33 1.66 3.42 3.42 0 01-.6 2 2.7 2.7 0 01-1.77 1.06l2.79 4.79h-2.9l-2.3-4.53h-1.19v4.53h-2.42zm2.42 4.69h2.12a2 2 0 00.66-.14 1.21 1.21 0 00.49-.38 1.45 1.45 0 000-1.4 1.3 1.3 0 00-.44-.4 1.76 1.76 0 00-.6-.18 5.16 5.16 0 00-.67 0h-1.58zm99.17-1.92a1.68 1.68 0 00-.8-.57 2.79 2.79 0 00-.95-.18 2.64 2.64 0 00-.55.06 1.93 1.93 0 00-.52.2 1.19 1.19 0 00-.41.36 1 1 0 00-.15.54.9.9 0 00.37.79 3.58 3.58 0 00.94.46c.38.13.78.26 1.22.39a4.93 4.93 0 011.22.54 3 3 0 01.94.94 3.07 3.07 0 01.37 1.59 3.86 3.86 0 01-.34 1.65 3.23 3.23 0 01-.93 1.16 3.92 3.92 0 01-1.35.69 5.71 5.71 0 01-1.62.23 5.85 5.85 0 01-2-.34 4.83 4.83 0 01-1.7-1.09l1.72-1.95a2.48 2.48 0 00.94.79 2.58 2.58 0 001.17.28 2.46 2.46 0 00.6-.07 1.86 1.86 0 00.54-.22 1.12 1.12 0 00.39-.36.94.94 0 00.15-.53 1 1 0 00-.38-.81 3.6 3.6 0 00-1-.5c-.38-.14-.8-.28-1.24-.42a5.59 5.59 0 01-1.24-.56 3 3 0 01-1-.93 2.74 2.74 0 01-.38-1.52 3.52 3.52 0 01.35-1.6 3.63 3.63 0 01.93-1.15 4.13 4.13 0 011.35-.7 5.45 5.45 0 011.56-.23 6 6 0 011.8.27 4.17 4.17 0 011.57.92zm6.85-.56h-3.14v-2.21h8.69v2.21h-3.13v9.12h-2.42zm8.11-2.21h7.47v2.3h-5v2.12H818v2.3h-4.77v2.3h5.33v2.31h-7.75zm10.93 0h4.08a7.51 7.51 0 011.61.16 3.7 3.7 0 011.33.55 2.75 2.75 0 01.9 1.06 3.73 3.73 0 01.33 1.67 3.87 3.87 0 01-.31 1.66 2.7 2.7 0 01-.85 1.08 3.44 3.44 0 01-1.29.56 6.8 6.8 0 01-1.61.17h-1.77v4.42h-2.42zm2.42 4.8h1.61a3.21 3.21 0 00.63-.06 1.86 1.86 0 00.59-.22 1.06 1.06 0 00.39-.42 1.29 1.29 0 00.15-.66 1.23 1.23 0 00-.19-.7 1.31 1.31 0 00-.5-.4 2.07 2.07 0 00-.68-.19h-1.95zm14.53-4.8h7.37v2.3h-5v2.31h4.57v2.3h-4.57v4.42h-2.37zm10.3 0h2.42v11.33H849zm4.8 0h2.76l2.71 7.42 2.76-7.42h2.59l-4.53 11.33h-1.94zm13.34 0h7.47v2.3h-5.05v2.12h4.77v2.3h-4.77v2.3h5.33v2.31h-7.75z" fill="#231815"/></g></g></svg>