<svg xmlns="http://www.w3.org/2000/svg" viewBox="0 0 491.06 20.83"><g data-name="レイヤー 2"><path d="M0 .5h2.35v8.4h10.59V.5h2.35v19.83h-2.35v-9.24H2.35v9.24H0zm26 11.29L18.62.5h3l5.57 9 5.74-9h2.83l-7.4 11.29v8.54H26zM55.94 19a13.46 13.46 0 01-3.59 1.4 16.5 16.5 0 01-3.83.45 11.64 11.64 0 01-4.25-.75 10.1 10.1 0 01-3.35-2.1 9.75 9.75 0 01-2.2-3.29 11.15 11.15 0 01-.78-4.24 10.53 10.53 0 01.83-4.27 9.67 9.67 0 012.28-3.28A10.37 10.37 0 0144.44.76 11.16 11.16 0 0148.61 0a12.12 12.12 0 013.76.59 8 8 0 013.24 2l-1.77 1.86a6.62 6.62 0 00-2.45-1.68 7.76 7.76 0 00-3-.59 8 8 0 00-3.16.62 7.66 7.66 0 00-4.22 4.31 8.9 8.9 0 00-.6 3.31 8.8 8.8 0 00.6 3.27 7.85 7.85 0 001.68 2.62A7.48 7.48 0 0045.33 18a8.77 8.77 0 003.33.62 11.24 11.24 0 002.52-.3 10 10 0 002.41-.85v-6.05H49V9.24h6.91zM62 .5h2.35v19.83H62zm8.39 0h12.46v2.19H72.74V8.9h9.44v2.19h-9.44v7.05h10.62v2.19h-13zm17.73 0h3L102.56 17h.06V.5H105v19.83h-3L90.52 3.87v16.46h-2.4zM111 .5h12.46v2.19h-10.09V8.9h9.44v2.19h-9.44v7.05H124v2.19h-13zm26.65 0h3.5l6.72 15.5L154.7.5h3.42v19.83h-2.36V3.7l-7.16 16.63h-1.43L140.05 3.7H140v16.63h-2.35zm32.95 0h2.22l8.42 19.83h-2.74l-2-4.87h-9.91l-2 4.87h-2.66zm1.07 3h-.06l-4.11 9.74h8.09zM185 .5h3L199.44 17h.06V.5h2.35v19.83h-3L187.4 3.87h-.05v16.46H185zm29.34 0h2.21L225 20.33h-2.75l-2-4.87h-9.91l-2.05 4.87h-2.69zm1.06 3h-.05l-4.12 9.74h8.09zM245.59 19a13.52 13.52 0 01-3.6 1.4 16.42 16.42 0 01-3.82.45 11.69 11.69 0 01-4.26-.75 10.2 10.2 0 01-3.35-2.1 9.58 9.58 0 01-2.19-3.29 11 11 0 01-.79-4.24 10.7 10.7 0 01.83-4.27 9.67 9.67 0 012.28-3.28 10.37 10.37 0 013.39-2.16 11.24 11.24 0 014.17-.76 12.19 12.19 0 013.75.59 8.05 8.05 0 013.23 2l-1.76 1.85A6.79 6.79 0 00241 2.77a7.81 7.81 0 00-3-.59 8 8 0 00-3.16.62 7.6 7.6 0 00-4.21 4.31 8.7 8.7 0 00-.61 3.31 8.61 8.61 0 00.61 3.27 8 8 0 001.67 2.62A7.58 7.58 0 00235 18a8.79 8.79 0 003.34.62 11.38 11.38 0 002.52-.3 9.87 9.87 0 002.4-.85v-6.05h-4.56V9.24h6.92zM251.63.5h12.47v2.19H254V8.9h9.43v2.19H254v7.05h10.6v2.19h-13zm17.73 0h3.5l6.72 15.5h.05L286.41.5h3.42v19.83h-2.36V3.7h-.05l-7.11 16.63h-1.43L271.77 3.7h-.06v16.63h-2.35zm26.51 0h12.46v2.19h-10.1V8.9h9.43v2.19h-9.43v7.05h10.61v2.19h-13zm17.73 0h3L328.05 17h.05V.5h2.35v19.83h-3L316 3.87v16.46h-2.4zm36.2 2.19h-6.55v17.64h-2.35V2.69h-6.55V.5h15.45zM372 4a3.54 3.54 0 00-1.57-1.38 5 5 0 00-2.05-.44 6.2 6.2 0 00-1.54.2 4.57 4.57 0 00-1.34.62 2.9 2.9 0 00-1 1 3.08 3.08 0 00-.36 1.52 3.19 3.19 0 00.21 1.19 2.4 2.4 0 00.68.93 5.11 5.11 0 001.29.79 19.4 19.4 0 002 .73q1.14.36 2.22.78a7.79 7.79 0 011.93 1.06 4.62 4.62 0 011.31 1.62 5.27 5.27 0 01.49 2.42 5.36 5.36 0 01-.58 2.57 5.46 5.46 0 01-1.56 1.81 6.72 6.72 0 01-2.22 1.06 9.45 9.45 0 01-2.61.35 10 10 0 01-1.73-.15 7.82 7.82 0 01-1.67-.48 6.53 6.53 0 01-1.5-.84 4.85 4.85 0 01-1.2-1.27l2-1.65a4.23 4.23 0 001.8 1.65 5.41 5.41 0 004 .33 4.38 4.38 0 001.38-.65 3.59 3.59 0 001-1.08 2.82 2.82 0 00.39-1.48 3.22 3.22 0 00-.3-1.5 2.77 2.77 0 00-1-1 7.22 7.22 0 00-1.62-.75l-2.3-.79a14 14 0 01-2-.77A6.16 6.16 0 01363 9.34a4.73 4.73 0 01-1-1.51 5.43 5.43 0 01-.37-2.12 5.12 5.12 0 012.07-4.27 6.88 6.88 0 012.17-1.07 8.49 8.49 0 012.52-.37 8.6 8.6 0 013.07.52 6.06 6.06 0 012.48 1.8zm22.15 8.77a11.45 11.45 0 01-.4 3.08 7.11 7.11 0 01-1.29 2.56 6.13 6.13 0 01-2.31 1.76 9.45 9.45 0 01-6.94 0 6 6 0 01-2.31-1.76 7.11 7.11 0 01-1.29-2.56 11.46 11.46 0 01-.41-3.08V.5h2.35v11.93a10.46 10.46 0 00.26 2.33 5.42 5.42 0 00.84 2 4.2 4.2 0 001.56 1.39 5.22 5.22 0 002.47.52 5.15 5.15 0 002.46-.52 4.15 4.15 0 001.57-1.39 5.78 5.78 0 00.84-2 10.47 10.47 0 00.25-2.33V.5h2.35zM400.12.5H406a12.45 12.45 0 012.62.27 6.59 6.59 0 012.21.9 4.7 4.7 0 011.54 1.68 5.36 5.36 0 01.57 2.59 5.26 5.26 0 01-.61 2.68 4.85 4.85 0 01-1.59 1.68 6.54 6.54 0 01-2.11.87 10.06 10.06 0 01-2.18.25h-4v8.91h-2.35zm2.35 8.74h4a4.82 4.82 0 002.87-.8A2.87 2.87 0 00410.42 6a2.85 2.85 0 00-1.1-2.47 4.82 4.82 0 00-2.87-.8h-4zM417.84.5h5.88a12.31 12.31 0 012.62.27 6.51 6.51 0 012.21.9 4.53 4.53 0 011.54 1.68 5.36 5.36 0 01.58 2.59 5.26 5.26 0 01-.62 2.68 4.82 4.82 0 01-1.58 1.68 6.59 6.59 0 01-2.12.87 10 10 0 01-2.18.25h-4v8.91h-2.35zm2.35 8.74h4a4.82 4.82 0 002.87-.8A2.84 2.84 0 00428.14 6 2.82 2.82 0 00427 3.49a4.82 4.82 0 00-2.87-.8h-4zm24.59 11.59a10.78 10.78 0 01-4.16-.78 10.09 10.09 0 01-3.28-2.17 9.72 9.72 0 01-2.15-3.31 10.87 10.87 0 01-.77-4.15 10.92 10.92 0 01.77-4.16A9.67 9.67 0 01437.34 3a9.94 9.94 0 013.28-2.21 11.32 11.32 0 018.31 0 9.75 9.75 0 015.44 5.47 11.11 11.11 0 01.77 4.16 11.06 11.06 0 01-.77 4.15 9.89 9.89 0 01-2.16 3.31 10 10 0 01-3.28 2.17 10.76 10.76 0 01-4.15.78zm0-2.18A7.68 7.68 0 00448 18a7.23 7.23 0 002.48-1.76 8.05 8.05 0 001.52-2.62 9.15 9.15 0 000-6.41 8.05 8.05 0 00-1.61-2.62A7.51 7.51 0 00448 2.83a7.78 7.78 0 00-8.83 1.76 8.05 8.05 0 00-1.61 2.62 9 9 0 00-.57 3.21 8.91 8.91 0 00.57 3.2 8.05 8.05 0 001.61 2.62A7.33 7.33 0 00441.6 18a7.69 7.69 0 003.18.65zM460 .5h5.06a24.63 24.63 0 012.94.17 7.94 7.94 0 012.53.73A4.55 4.55 0 01472.3 3a5.28 5.28 0 01.7 3 4.81 4.81 0 01-1.32 3.53A6.23 6.23 0 01468 11.2l5.63 9.13h-2.88l-5.38-8.91h-3v8.91H460zm2.35 8.74h2.1c.65 0 1.33 0 2-.06a6.55 6.55 0 001.93-.36 3.36 3.36 0 001.46-1 2.77 2.77 0 00.64-1.82 3.08 3.08 0 00-.42-1.7 2.89 2.89 0 00-1.11-1 4.86 4.86 0 00-1.54-.46 14.06 14.06 0 00-1.72-.11h-3.3zm28.71-6.55h-6.55v17.64h-2.35V2.69h-6.56V.5h15.46z" fill="#6c8485" data-name="レイヤー 1"/></g></svg>