<svg xmlns="http://www.w3.org/2000/svg" viewBox="0 0 261.38 13.39"><path d="M0 .32h7.9v1.41H1.51v4.21h5.94v1.4H1.51v5.73H0zm27.67 7.89a7.57 7.57 0 01-.26 2 4.62 4.62 0 01-.83 1.64A4 4 0 0125.09 13a5.31 5.31 0 01-2.23.42 5.31 5.31 0 01-2.23-.42 4 4 0 01-1.49-1.14 4.6 4.6 0 01-.82-1.64 7.17 7.17 0 01-.27-2V.32h1.52V8a6.7 6.7 0 00.16 1.5 3.72 3.72 0 00.54 1.27 2.75 2.75 0 001 .9 3.36 3.36 0 001.58.33 3.36 3.36 0 001.58-.33 2.75 2.75 0 001-.9A3.72 3.72 0 0026 9.49 6.7 6.7 0 0026.15 8V.32h1.52zM38.88.32h1.91l7.38 10.59V.32h1.52v12.75h-1.88L40.43 2.48v10.59h-1.55zM69.91 3a3.7 3.7 0 00-1.42-1.16 4.14 4.14 0 00-1.76-.39 4.44 4.44 0 00-2 .44A4.85 4.85 0 0063.23 3a5.29 5.29 0 00-1 1.69 5.68 5.68 0 00-.36 2 5.94 5.94 0 00.36 2.08 5.24 5.24 0 001 1.67 4.73 4.73 0 001.53 1.12 4.91 4.91 0 004.06 0 4.83 4.83 0 001.61-1.32l1.13.95a5.25 5.25 0 01-2.08 1.69 6.67 6.67 0 01-2.74.54 6.57 6.57 0 01-2.56-.5 6.27 6.27 0 01-2.06-1.4 6.46 6.46 0 01-1.37-2.11 7.1 7.1 0 01-.49-2.68 7.1 7.1 0 01.47-2.63 6.48 6.48 0 011.34-2.13A6.39 6.39 0 0166.73 0a6.84 6.84 0 012.49.47 4.56 4.56 0 012 1.53zm20.4-1.27h-4.22v11.34h-1.51V1.73h-4.21V.32h9.94zm9.88-1.41h1.51v12.75h-1.51zm18.7 13.07a7 7 0 01-2.67-.5 6.38 6.38 0 01-2.11-1.4 6.3 6.3 0 01-1.39-2.12 7.08 7.08 0 01-.49-2.67 7.14 7.14 0 01.49-2.7 6.3 6.3 0 011.39-2.12A6.38 6.38 0 01116.22.5a7.38 7.38 0 015.34 0 6.49 6.49 0 012.11 1.4 6.27 6.27 0 011.38 2.1 7.14 7.14 0 01.5 2.68 7.09 7.09 0 01-.5 2.67 6.27 6.27 0 01-1.38 2.12 6.49 6.49 0 01-2.11 1.4 7 7 0 01-2.67.52zm0-1.4a4.9 4.9 0 002-.42 4.79 4.79 0 001.6-1.13 5.32 5.32 0 001-1.68 5.62 5.62 0 00.37-2.06 5.67 5.67 0 00-.37-2.07 5.32 5.32 0 00-1-1.68 4.79 4.79 0 00-1.6-1.13 5.16 5.16 0 00-4.08 0A4.79 4.79 0 00115.25 3a5.14 5.14 0 00-1 1.68 5.67 5.67 0 00-.37 2.07 5.62 5.62 0 00.37 2.06 5.14 5.14 0 001 1.68 4.79 4.79 0 001.6 1.13 4.87 4.87 0 002.04.38zM136.08.32H138l7.38 10.59V.32h1.52v12.75H145l-7.37-10.59v10.59h-1.51zm33.73 0h1.68l2.89 10.59L177.55.32h1.69l3.12 10.59 3-10.59h1.58l-3.74 12.75h-1.64l-3.16-10.8-3.17 10.8h-1.65zm30.62 0h1.42l5.42 12.75h-1.76l-1.3-3.13h-6.37l-1.32 3.13h-1.71zm.68 2l-2.65 6.26h5.2zM224 1.73h-4.22v11.34h-1.51V1.73H214V.32h10zm9.84-1.41h8v1.41h-6.5v4h6.07v1.4h-6.07v4.53h6.82v1.41h-8.33zm18.77 0h3.26a16 16 0 011.83.11 5 5 0 011.63.47 3 3 0 011.17 1 3.53 3.53 0 01.5 1.93 3.11 3.11 0 01-.85 2.27 4 4 0 01-2.34 1.1l3.62 5.87h-1.86l-3.45-5.73h-1.95v5.73h-1.51zm1.51 5.62h2.66a4.4 4.4 0 001.22-.27 2.18 2.18 0 00.94-.62 1.83 1.83 0 00.37-1.22 1.88 1.88 0 00-.28-1.09 1.69 1.69 0 00-.71-.64 3 3 0 00-1-.3 8 8 0 00-1.1-.07h-2.13z" fill="#fff" data-name="レイヤー 2"/></svg>