<svg xmlns="http://www.w3.org/2000/svg" viewBox="0 0 500.18 13.39"><path d="M0 .32h1.51v5.4h6.81V.32h1.51v12.75H8.32V7.13H1.51v5.94H0zm24.1 7.26L19.35.32h1.92l3.59 5.76L28.55.32h1.81l-4.75 7.26v5.49H24.1zm26.62 4.62a8.8 8.8 0 01-2.31.9 10.21 10.21 0 01-2.46.29 7.53 7.53 0 01-2.73-.48 6.38 6.38 0 01-2.15-1.37 6.13 6.13 0 01-1.42-2.12 7.24 7.24 0 01-.5-2.72 7 7 0 01.53-2.7 6.17 6.17 0 011.47-2.11 6.67 6.67 0 012.18-1.4A7.14 7.14 0 0146 0a7.85 7.85 0 012.42.38 5.19 5.19 0 012.08 1.29l-1.13 1.19a4.24 4.24 0 00-1.57-1.08 5 5 0 00-1.9-.38 5.21 5.21 0 00-2 .4 4.94 4.94 0 00-2.71 2.77 5.68 5.68 0 00-.39 2.13 5.6 5.6 0 00.39 2.1 5 5 0 001.08 1.69 4.77 4.77 0 001.66 1.1A5.51 5.51 0 0046 12a7.76 7.76 0 001.62-.19 6.6 6.6 0 001.55-.55V7.34h-2.89v-1.4h4.44zM62 .32h1.5v12.75H62zm12.77 0h8v1.41h-6.5v4h6.07v1.4h-6.06v4.53h6.83v1.41h-8.34zm18.78 0h1.9l7.38 10.59V.32h1.51v12.75h-1.91L95.09 2.48v10.59h-1.54zm22.1 0h8v1.41h-6.5v4h6.07v1.4h-6.07v4.53H124v1.41h-8.33zm31.88 0h2.25l4.32 10 4.36-10h2.2v12.75h-1.52V2.38l-4.58 10.69h-.91l-4.58-10.69v10.69h-1.51zm28.56 0h1.43l5.41 12.75h-1.76l-1.3-3.13h-6.37l-1.31 3.13h-1.71zm.69 2l-2.68 6.21h5.2zm15.95-2h1.9L202 10.91V.32h1.51v12.75h-1.91l-7.33-10.59v10.59h-1.51zm26.27 0h1.42l5.42 12.75H224l-1.29-3.13h-6.37l-1.32 3.13h-1.71zm.68 2L217 8.53h5.2zm26.76 9.88a9 9 0 01-2.32.9 10.19 10.19 0 01-2.45.29 7.54 7.54 0 01-2.74-.48 6.48 6.48 0 01-2.15-1.37 6 6 0 01-1.41-2.12 7 7 0 01-.51-2.72 7 7 0 01.53-2.7 6.46 6.46 0 011.47-2.11A6.67 6.67 0 01239 .49a7.17 7.17 0 012.72-.49 7.81 7.81 0 012.42.38 5.12 5.12 0 012.08 1.29l-1.13 1.19a4.36 4.36 0 00-1.58-1.08 5 5 0 00-1.9-.38 5.21 5.21 0 00-2 .4A4.84 4.84 0 00238 2.9a5 5 0 00-1.08 1.67 5.68 5.68 0 00-.39 2.13 5.6 5.6 0 00.39 2.1 5.2 5.2 0 001.08 1.69 4.87 4.87 0 001.66 1.1 5.56 5.56 0 002.15.4 7.92 7.92 0 001.62-.19 6.76 6.76 0 001.55-.55V7.34H242v-1.4h4.45zM257.7.32h8v1.41h-6.49v4h6.06v1.4h-6.06v4.53H266v1.41h-8.3zm18.78 0h2.25l4.32 10 4.35-10h2.2v12.75h-1.51V2.38l-4.57 10.69h-.92L278 2.38v10.69h-1.51zm24.42 0h8v1.41h-6.49v4h6.06v1.4h-6.06v4.53h6.82v1.41h-8.33zm18.78 0h1.91L329 10.91V.32h1.51v12.75h-1.9l-7.38-10.59v10.59h-1.51zm30.65 1.41h-4.21v11.34h-1.51V1.73h-4.21V.32h9.93zm29.04.84a2.34 2.34 0 00-1-.89A3.33 3.33 0 00377 1.4a4.06 4.06 0 00-1 .13 2.79 2.79 0 00-.88.38 2 2 0 00-.62.66 1.92 1.92 0 00-.23 1 2 2 0 00.13.76 1.66 1.66 0 00.44.6 3.49 3.49 0 00.83.51 13.46 13.46 0 001.28.47c.49.15 1 .32 1.43.5a4.94 4.94 0 011.22.68 3.07 3.07 0 01.85 1 3.41 3.41 0 01.31 1.56 3.46 3.46 0 01-.37 1.65 3.52 3.52 0 01-1 1.16 4.32 4.32 0 01-1.43.69 6.25 6.25 0 01-1.68.22 6 6 0 01-1.11-.1 5.28 5.28 0 01-1.07-.3 4.38 4.38 0 01-1-.54 3.35 3.35 0 01-.77-.82l1.3-1.06a2.63 2.63 0 001.15 1.06 3.5 3.5 0 001.56.36 3.33 3.33 0 001-.15 2.86 2.86 0 00.9-.42 2.35 2.35 0 00.64-.69 1.81 1.81 0 00.25-1 2.08 2.08 0 00-.19-1 2 2 0 00-.61-.64 4.69 4.69 0 00-1-.48l-1.48-.51a10.33 10.33 0 01-1.26-.49 4 4 0 01-1-.69A2.76 2.76 0 01373 5a3.48 3.48 0 01-.24-1.36 3.4 3.4 0 01.36-1.6 3.25 3.25 0 011-1.14 4.43 4.43 0 011.39-.7 5.94 5.94 0 013.59.1 4 4 0 011.59 1.16zM401 8.21a7.17 7.17 0 01-.26 2 4.6 4.6 0 01-.82 1.64 4 4 0 01-1.51 1.15 6.13 6.13 0 01-4.41 0 3.91 3.91 0 01-1.49-1.14 4.62 4.62 0 01-.83-1.64 7.57 7.57 0 01-.26-2V.32h1.51V8a6.69 6.69 0 00.17 1.5 3.37 3.37 0 00.54 1.27 2.72 2.72 0 001 .9 4 4 0 003.17 0 2.75 2.75 0 001-.9 3.72 3.72 0 00.54-1.27 6.7 6.7 0 00.16-1.5V.32H401zM412.2.32h3.8a7.59 7.59 0 011.68.18 4.07 4.07 0 011.42.57 2.86 2.86 0 011 1.08 3.41 3.41 0 01.37 1.67 3.42 3.42 0 01-.39 1.72 3.12 3.12 0 01-1 1.08 4.16 4.16 0 01-1.36.56 6.4 6.4 0 01-1.4.16h-2.56v5.73h-1.56zm1.51 5.62h2.56a3.08 3.08 0 001.84-.51 1.86 1.86 0 00.71-1.6 1.83 1.83 0 00-.71-1.59 3.08 3.08 0 00-1.84-.51h-2.56zM431 .32h3.78a7.75 7.75 0 011.69.18 4.15 4.15 0 011.42.57 3 3 0 011 1.08 3.52 3.52 0 01.37 1.67 3.42 3.42 0 01-.4 1.72 3 3 0 01-1 1.08 4 4 0 01-1.36.56 6.4 6.4 0 01-1.4.16h-2.56v5.73H431zm1.51 5.62H435a3.11 3.11 0 001.85-.51 1.86 1.86 0 00.71-1.6 1.83 1.83 0 00-.71-1.59 3.11 3.11 0 00-1.85-.51h-2.56zm23.16 7.45a7.06 7.06 0 01-2.68-.5 6.44 6.44 0 01-2.1-1.4 6.15 6.15 0 01-1.39-2.12 7.08 7.08 0 01-.5-2.67 7.14 7.14 0 01.5-2.7 6.15 6.15 0 011.39-2.12A6.44 6.44 0 01453 .5a7.41 7.41 0 015.35 0 6.49 6.49 0 012.11 1.4 6.27 6.27 0 011.37 2.1 7.14 7.14 0 01.5 2.68 7.09 7.09 0 01-.5 2.67 6.27 6.27 0 01-1.38 2.12 6.49 6.49 0 01-2.11 1.4 7 7 0 01-2.67.52zm0-1.4a4.9 4.9 0 002-.42 4.66 4.66 0 001.59-1.13 5.16 5.16 0 001-1.68 5.95 5.95 0 000-4.13 5.16 5.16 0 00-1-1.68 4.66 4.66 0 00-1.59-1.13A5 5 0 00452 3a5.14 5.14 0 00-1 1.68 5.67 5.67 0 00-.37 2.07 5.62 5.62 0 00.37 2.01 5.14 5.14 0 001 1.68 4.86 4.86 0 001.59 1.13 4.91 4.91 0 002.08.43zM472.86.32h3.26a15.74 15.74 0 011.82.11 4.84 4.84 0 011.63.47 3 3 0 011.17 1 3.44 3.44 0 01.45 1.88 3.1 3.1 0 01-.84 2.27A4.08 4.08 0 01478 7.2l3.61 5.87h-1.85l-3.46-5.73h-1.94v5.73h-1.51zm1.51 5.62h2.65a4.41 4.41 0 001.25-.23 2.09 2.09 0 00.93-.62 1.78 1.78 0 00.37-1.22 2 2 0 00-.27-1.09 1.75 1.75 0 00-.71-.64 3 3 0 00-1-.3 8.17 8.17 0 00-1.11-.07h-2.12zm25.81-4.21H496v11.34h-1.51V1.73h-4.21V.32h9.93z" fill="#6c8485" data-name="レイヤー 2"/></svg>