<svg xmlns="http://www.w3.org/2000/svg" viewBox="0 0 90.47 20.83"><path d="M0 .5h3L14.45 17h.05V.5h2.36v19.83h-3L2.41 3.86h-.06v16.47H0zm26.26 0h12.46v2.19h-10.1V8.9h9.43v2.19h-9.43v7.05h10.61v2.19h-13zm18.79 0h2.61l4.5 16.5h.06L57.09.5h2.63L64.57 17h.05L69.22.5h2.46l-5.82 19.83h-2.55l-4.9-16.8h-.06l-4.93 16.8h-2.57zM88.2 4a3.44 3.44 0 00-1.57-1.38 5 5 0 00-2-.44 6.14 6.14 0 00-1.54.2 4.52 4.52 0 00-1.4.62 3.09 3.09 0 00-1 1 3.08 3.08 0 00-.36 1.52 3.19 3.19 0 00.21 1.19 2.51 2.51 0 00.69.93 4.86 4.86 0 001.28.79c.55.24 1.21.48 2 .73s1.51.5 2.23.78A7.73 7.73 0 0188.66 11 4.82 4.82 0 0190 12.61a5.47 5.47 0 01.47 2.39 5.36 5.36 0 01-.59 2.57 5.44 5.44 0 01-1.55 1.81 6.86 6.86 0 01-2.23 1.06 9.43 9.43 0 01-2.6.35 10.22 10.22 0 01-1.74-.15 8 8 0 01-1.67-.48 6.27 6.27 0 01-1.49-.84 5.05 5.05 0 01-1.21-1.27l2-1.65a4.26 4.26 0 001.79 1.65 5.53 5.53 0 002.44.56 5.39 5.39 0 001.52-.23 4.56 4.56 0 001.39-.65 3.72 3.72 0 001-1.08A2.83 2.83 0 0088 15.2a3.08 3.08 0 00-.31-1.49 2.66 2.66 0 00-1-1 7.11 7.11 0 00-1.63-.71l-2.29-.79a14 14 0 01-2-.77 6 6 0 01-1.56-1.06 4.71 4.71 0 01-1-1.51 5.43 5.43 0 01-.38-2.12 5.32 5.32 0 01.56-2.49 5.3 5.3 0 011.51-1.78A7.29 7.29 0 0182.07.36 8.72 8.72 0 0184.59 0a8.54 8.54 0 013.06.52 6 6 0 012.48 1.8z" fill="#6c8485" data-name="レイヤー 2"/></svg>