<svg xmlns="http://www.w3.org/2000/svg" viewBox="0 0 73.82 13.39"><path d="M0 .32h1.91l7.38 10.59V.32h1.52v12.75H8.93L1.55 2.48v10.59H0zm22.1 0h8v1.41h-6.48v4h6.06v1.4h-6.06v4.53h6.82v1.41H22.1zm17.3 0h1.68L44 10.91 47.14.32h1.69L52 10.91 55 .32h1.58l-3.8 12.75h-1.64L48 2.27l-3.17 10.8h-1.7zm32.96 2.25a2.29 2.29 0 00-1-.89A3.32 3.32 0 0070 1.4a4.07 4.07 0 00-1 .13 2.79 2.79 0 00-.88.38 2.06 2.06 0 00-.62.66 2 2 0 00-.23 1 2 2 0 00.13.76 1.58 1.58 0 00.45.6 3.41 3.41 0 00.82.51c.35.15.78.31 1.28.47s1 .32 1.43.5a5.2 5.2 0 011.23.68 3.16 3.16 0 01.84 1 3.41 3.41 0 01.32 1.56 3.46 3.46 0 01-.38 1.65 3.41 3.41 0 01-1 1.16 4.22 4.22 0 01-1.43.69 6.22 6.22 0 01-1.67.22 6 6 0 01-1.12-.1 5.47 5.47 0 01-1.07-.3 4.54 4.54 0 01-1-.54 3.39 3.39 0 01-.78-.82l1.3-1.06a2.68 2.68 0 001.15 1.06 3.51 3.51 0 001.57.36 3.38 3.38 0 001-.15 2.8 2.8 0 00.89-.42 2.38 2.38 0 00.65-.69 1.91 1.91 0 00.25-1 2.07 2.07 0 00-.2-1 1.85 1.85 0 00-.61-.64 4.69 4.69 0 00-1-.48l-1.47-.51a9.19 9.19 0 01-1.26-.49 3.86 3.86 0 01-1-.69 2.9 2.9 0 01-.67-1 3.48 3.48 0 01-.24-1.36 3.4 3.4 0 01.36-1.6A3.25 3.25 0 0167 .93a4.43 4.43 0 011.39-.7A5.71 5.71 0 0170 0a5.66 5.66 0 012 .33 4 4 0 011.6 1.16z" fill="#6c8485" data-name="レイヤー 2"/></svg>