<svg xmlns="http://www.w3.org/2000/svg" viewBox="0 0 360.44 20.83"><path d="M15 4.59a5.68 5.68 0 00-2.22-1.8 6.37 6.37 0 00-2.74-.61 6.88 6.88 0 00-3 .68 7.57 7.57 0 00-2.39 1.8 8.4 8.4 0 00-1.57 2.63 8.94 8.94 0 00-.56 3.13 9.25 9.25 0 00.56 3.23 8 8 0 001.55 2.6 7.22 7.22 0 005.45 2.4 7.13 7.13 0 003.25-.72 7.36 7.36 0 002.49-2l1.76 1.48A8.06 8.06 0 0114.35 20a10.4 10.4 0 01-4.27.84 10.16 10.16 0 01-4-.78 9.75 9.75 0 01-3.2-2.17 9.93 9.93 0 01-2.11-3.3A11.09 11.09 0 010 10.42a11.25 11.25 0 01.74-4.09A10 10 0 012.83 3 9.86 9.86 0 016 .81 10 10 0 0110.08 0 10.48 10.48 0 0114 .73a7.12 7.12 0 013.12 2.38zm19.83 16.24a10.81 10.81 0 01-4.16-.78 9.94 9.94 0 01-3.27-2.17 9.84 9.84 0 01-2.16-3.31 11.06 11.06 0 01-.77-4.15 11.11 11.11 0 01.77-4.16A9.84 9.84 0 0127.4 3 10.1 10.1 0 0130.67.78a11.48 11.48 0 018.33 0A10.26 10.26 0 0142.27 3a9.81 9.81 0 012.15 3.31 10.92 10.92 0 01.77 4.16 10.87 10.87 0 01-.77 4.15 9.81 9.81 0 01-2.15 3.31A10.09 10.09 0 0139 20.05a10.81 10.81 0 01-4.17.78zm0-2.18A7.69 7.69 0 0038 18a7.33 7.33 0 002.48-1.76 8.23 8.23 0 001.61-2.62 8.91 8.91 0 00.57-3.2 9 9 0 00-.57-3.21 8.23 8.23 0 00-1.61-2.62A7.61 7.61 0 0038 2.83a8.1 8.1 0 00-6.36 0 7.57 7.57 0 00-2.47 1.76 8.05 8.05 0 00-1.61 2.62 8.75 8.75 0 00-.56 3.21 8.7 8.7 0 00.58 3.2 8.05 8.05 0 001.61 2.62A7.29 7.29 0 0031.65 18a7.73 7.73 0 003.18.65zM53.73.5h3.5L64 16 70.79.5h3.41v19.83h-2.35V3.7h-.06l-7.11 16.63h-1.43L56.14 3.7h-.06v16.63h-2.35zm30.16 0h5.88a12.38 12.38 0 012.62.27 6.59 6.59 0 012.21.9 4.62 4.62 0 011.54 1.68 5.36 5.36 0 01.57 2.59 5.26 5.26 0 01-.61 2.68 4.76 4.76 0 01-1.59 1.68 6.45 6.45 0 01-2.11.87 10.06 10.06 0 01-2.18.25h-4v8.91h-2.33zm2.35 8.74h4a4.82 4.82 0 002.87-.8A2.87 2.87 0 0094.19 6a2.85 2.85 0 00-1.1-2.47 4.75 4.75 0 00-2.87-.8h-4zM109.62.5h2.21l8.43 19.83h-2.74l-2-4.87h-9.91l-2 4.87h-2.66zm1.06 3h-.05l-4.12 9.74h8.09zm16.97-3h3L142.1 17h.06V.5h2.35v19.83h-3L130.06 3.86H130v16.47h-2.35zm31.22 11.29L151.48.5h3l5.57 9 5.74-9h2.83l-7.4 11.29v8.54h-2.35zm38.47 9.04a10.76 10.76 0 01-4.15-.78 9.73 9.73 0 01-5.44-5.48 11.06 11.06 0 01-.77-4.15 11.11 11.11 0 01.77-4.16A10 10 0 01189.91 3a10.15 10.15 0 013.28-2.22 11.46 11.46 0 018.31 0A10.26 10.26 0 01204.78 3a9.81 9.81 0 012.15 3.31 10.92 10.92 0 01.78 4.16 10.87 10.87 0 01-.78 4.15 9.81 9.81 0 01-2.15 3.31 10.09 10.09 0 01-3.28 2.17 10.78 10.78 0 01-4.16.73zm0-2.18a7.69 7.69 0 003.18-.65 7.33 7.33 0 002.48-1.76 8.05 8.05 0 001.61-2.62 8.91 8.91 0 00.57-3.2 9 9 0 00-.57-3.21A8.05 8.05 0 00203 4.59a7.61 7.61 0 00-2.48-1.76 8.08 8.08 0 00-6.35 0 7.61 7.61 0 00-2.48 1.76 8.05 8.05 0 00-1.61 2.62 9.15 9.15 0 000 6.41 8.05 8.05 0 001.61 2.62 7.33 7.33 0 002.48 1.76 7.68 7.68 0 003.17.65zM213.53.5h2.66l6.1 16.3h.06l6.3-16.3h2.49l-7.76 19.83h-2.26zm24.58 0h12.46v2.19h-10.11V8.9h9.44v2.19h-9.44v7.05h10.62v2.19h-13zm21.37 0h5.06a24.63 24.63 0 012.85.17 7.69 7.69 0 012.53.73 4.55 4.55 0 011.82 1.6 5.28 5.28 0 01.7 2.92 4.81 4.81 0 01-1.32 3.53 6.23 6.23 0 01-3.64 1.71l5.63 9.13h-2.88l-5.38-8.91h-3v8.91h-2.35zm2.35 8.74h2.1c.65 0 1.33 0 2-.06a6.55 6.55 0 001.93-.36 3.36 3.36 0 001.46-1 2.77 2.77 0 00.6-1.82 3.06 3.06 0 00-.42-1.7 2.89 2.89 0 00-1.11-1 4.86 4.86 0 00-1.54-.46 14.06 14.06 0 00-1.72-.11h-3.3zM278.12.5h2.67l6.1 16.3h.05l6.3-16.3h2.5L288 20.33h-2.27zm24.59 0h2.35v19.83h-2.35zm12.04 0h12.46v2.19H317.1V8.9h9.44v2.19h-9.44v7.05h10.61v2.19h-13zm19.07 0h2.6l4.51 16.5h.07L345.86.5h2.63l4.84 16.5h.06L358 .5h2.46l-5.82 19.83h-2.55l-4.9-16.8h-.05l-4.93 16.8h-2.58z" fill="#5fc1c7" data-name="レイヤー 2"/></svg>