<svg xmlns="http://www.w3.org/2000/svg" viewBox="0 0 307.31 13.39"><path d="M9.67 3a3.73 3.73 0 00-1.43-1.21 4.14 4.14 0 00-1.76-.39 4.36 4.36 0 00-1.95.44A4.64 4.64 0 003 3a5.31 5.31 0 00-1 1.69 5.68 5.68 0 00-.36 2A5.85 5.85 0 002 8.77a5.14 5.14 0 001 1.68 4.63 4.63 0 001.53 1.12 4.55 4.55 0 002 .42 4.69 4.69 0 002.09-.46 4.9 4.9 0 001.6-1.32l1.13.95a5.18 5.18 0 01-2.08 1.69 6.63 6.63 0 01-2.74.54 6.64 6.64 0 01-2.56-.5 6.27 6.27 0 01-2.06-1.4A6.46 6.46 0 01.49 9.38 7.1 7.1 0 010 6.7a7.11 7.11 0 01.48-2.63 6.17 6.17 0 011.34-2.13A6.34 6.34 0 016.48 0 6.84 6.84 0 019 .47 4.56 4.56 0 0111 2zm17.76 10.39a7 7 0 01-2.67-.5 6.49 6.49 0 01-2.11-1.4 6.27 6.27 0 01-1.38-2.12 7.09 7.09 0 01-.5-2.67 7.14 7.14 0 01.5-2.7 6.27 6.27 0 011.38-2.1A6.49 6.49 0 0124.76.5a7.38 7.38 0 015.34 0 6.38 6.38 0 012.11 1.4A6.3 6.3 0 0133.6 4a7.14 7.14 0 01.49 2.68 7.08 7.08 0 01-.49 2.67 6.3 6.3 0 01-1.39 2.12 6.38 6.38 0 01-2.11 1.4 7 7 0 01-2.67.52zm0-1.4a4.94 4.94 0 003.64-1.55 5.14 5.14 0 001-1.68 5.62 5.62 0 00.37-2.06 5.67 5.67 0 00-.37-2.07 5.14 5.14 0 00-1-1.68 4.94 4.94 0 00-3.64-1.55 4.9 4.9 0 00-2 .42A4.66 4.66 0 0023.8 3a5.16 5.16 0 00-1 1.68 5.67 5.67 0 00-.37 2.07 5.62 5.62 0 00.37 2.06 5.16 5.16 0 001 1.68 4.66 4.66 0 001.59 1.13 4.9 4.9 0 002.04.38zM44.62.32h2.25l4.32 10 4.35-10h2.2v12.75h-1.47V2.38l-4.61 10.69h-.92L46.17 2.38v10.69h-1.55zm24.43 0h3.78a8.25 8.25 0 011.68.17 4.29 4.29 0 011.42.58 2.86 2.86 0 011 1.08 3.41 3.41 0 01.37 1.67 3.42 3.42 0 01-.39 1.72 3.12 3.12 0 01-1 1.08 4.16 4.16 0 01-1.36.56 6.4 6.4 0 01-1.4.16h-2.59v5.73h-1.51zm1.51 5.62h2.56A3.08 3.08 0 0075 5.43a1.86 1.86 0 00.71-1.6A1.83 1.83 0 0075 2.24a3.08 3.08 0 00-1.84-.51h-2.6zM90.63.32h1.42l5.42 12.75h-1.76l-1.3-3.13H88l-1.32 3.13H85zm.68 2l-2.68 6.21h5.2zm15.95-2h1.91l7.38 10.59V.32h1.51v12.75h-1.91l-7.34-10.59v10.59h-1.51zm25.11 7.26L127.62.32h1.93l3.58 5.76 3.69-5.76h1.82l-4.76 7.26v5.49h-1.51zm34.81 5.81a7 7 0 01-2.67-.5 6.49 6.49 0 01-2.11-1.4 6.27 6.27 0 01-1.4-2.12 7.09 7.09 0 01-.5-2.67A7.14 7.14 0 01161 4a6.27 6.27 0 011.4-2.1 6.49 6.49 0 012.11-1.4 7.41 7.41 0 015.35 0A6.34 6.34 0 01172 1.9a6.15 6.15 0 011.35 2.1 7.14 7.14 0 01.49 2.68 7.08 7.08 0 01-.49 2.67 6.15 6.15 0 01-1.35 2.14 6.34 6.34 0 01-2.1 1.4 7 7 0 01-2.72.5zm0-1.4a4.91 4.91 0 002-.42 4.75 4.75 0 001.59-1.13 5.14 5.14 0 001-1.68 5.62 5.62 0 00.37-2.06 5.67 5.67 0 00-.37-2.07 5.14 5.14 0 00-1-1.68 4.75 4.75 0 00-1.59-1.13 5.19 5.19 0 00-4.09 0A4.66 4.66 0 00163.55 3a5.16 5.16 0 00-1 1.68 5.95 5.95 0 000 4.13 5.16 5.16 0 001 1.68 4.66 4.66 0 001.59 1.13 4.9 4.9 0 002.04.38zM182.63.32h1.71l3.92 10.48 4-10.48H194l-5 12.75h-1.45zm20.84 0h8v1.41H205v4h6.07v1.4H205v4.53h6.83v1.41h-8.34zm18.78 0h3.25a15.91 15.91 0 011.83.11A4.84 4.84 0 01229 .9a3 3 0 011.17 1 3.44 3.44 0 01.45 1.88 3.07 3.07 0 01-.85 2.27 4 4 0 01-2.34 1.1l3.57 5.92h-1.85l-3.45-5.73h-1.94v5.73h-1.51zm1.51 5.62h2.65a4.47 4.47 0 001.25-.23 2.21 2.21 0 00.93-.62 1.78 1.78 0 00.41-1.26 2 2 0 00-.27-1.09 1.82 1.82 0 00-.73-.64 3.17 3.17 0 00-1-.3 8.27 8.27 0 00-1.11-.07h-2.12zM239.27.32H241l3.93 10.48L249 .32h1.61l-5 12.75h-1.46zm20.85 0h1.51v12.75h-1.51zm12.78 0h8v1.41h-6.5v4h6.07v1.4h-6.07v4.53h6.82v1.41h-8.32zm17.3 0h1.67l2.9 10.59L297.94.32h1.69l3.11 10.59 3-10.59h1.58l-3.74 12.75h-1.64l-3.15-10.8-3.17 10.8h-1.66z" fill="#5fc1c7" data-name="レイヤー 2"/></svg>