<svg xmlns="http://www.w3.org/2000/svg" viewBox="0 0 56.46 55.12"><path d="M56.4 50.68l-1.74-2-5 4.35 1.73 2a.26.26 0 00.2.1.27.27 0 00.21-.07l4.57-4a.26.26 0 00.1-.19.25.25 0 00-.07-.19zm-27.78-27a.57.57 0 00-.17.62l2 6 4.44-3.86-5.66-2.85a.58.58 0 00-.61.12zm12.92 9.83V1.73A1.73 1.73 0 0041 .51 1.76 1.76 0 0039.8 0H1.73A1.73 1.73 0 00.51.51 1.69 1.69 0 000 1.73v50A1.71 1.71 0 00.51 53a1.73 1.73 0 001.22.51H39.8a1.74 1.74 0 001.74-1.73v-8.11l6.6 7.62 5-4.35zm-3.47-4L36.71 28l-5 4.35.06.07H16.54v2.31h17.22l4.31 5V50H3.46V3.46h34.61zM35.38 21H16.54v2.31h18.84zm0-11.44H16.54v2.31h18.84zM11.32 44.89l3.28-3.29-1.29-1.3-3.58 3.58-3.67-2.36 3.37 5.26zm0-34.32l3.28-3.3L13.31 6 9.73 9.55 6.06 7.2l3.37 5.26zm24.06 33.27H16.54v2.31h18.84zM11.32 33.45l3.29-3.3-1.29-1.29-3.59 3.57-3.67-2.35 3.37 5.26zm0-11.44l3.29-3.3-1.29-1.29L9.73 21l-3.67-2.36 3.37 5.26z" fill="#5fc1c7" data-name="レイヤー 2"/></svg>