<svg xmlns="http://www.w3.org/2000/svg" viewBox="0 0 70.22 56.51"><path d="M67.75 17.31H43.21L36.73 10a2.2 2.2 0 00-.73-.51V.93a.93.93 0 00-1.86 0v8.56a2.2 2.2 0 00-.69.52L27 17.31H2.47L0 26.9h2.54v26.31a1.24 1.24 0 00.36.87 1.26 1.26 0 00.88.37h16.79v.82a1.23 1.23 0 00.36.87 1.26 1.26 0 00.88.37h26.6a1.26 1.26 0 00.88-.37 1.23 1.23 0 00.36-.87v-.82h16.79a1.26 1.26 0 00.88-.37 1.24 1.24 0 00.36-.87V26.9h2.54zM20.57 52h-2v-4h-5.16v4h-1.24v-4h-5.1v4H5V26.9h14.25a2.07 2.07 0 001.32 2zm26.61 2h-3.85V38.87a7.94 7.94 0 00-15.83 0V54H23V28.32l12.11-13.61 12.07 13.61zm18.02-2h-2.13v-4H58v4h-1.27v-4h-5.12v4h-2V28.89a2.21 2.21 0 00.6-.37A2.14 2.14 0 0051 26.9h14.2zM29.78 25a5.27 5.27 0 0010.54 0 5.27 5.27 0 10-10.54 0zm9.31 0a4 4 0 11-4-4 4 4 0 013.99 4zm-20.58 9.41h-5.1v5h5.1zM7.07 46.71h5.1v-4.84h-5.1zm11.44-4.84h-5.1v4.84h5.12V42zM7.07 39.39h5.1v-5h-5.1zm0-6.21h5.07v-5.27a5.67 5.67 0 00-5.04 5.27zm6.31-5.27v5.27h5.08a5.68 5.68 0 00-5.05-5.27zm49.66 14H58v4.84h5.11zm0-9A5.69 5.69 0 0058 27.59v5.59h5.1zm-6.33 1.5h-5.09v5h5.11zm0 7.46h-5.1v4.84h5.12zm6.33-7.46H58v5h5.1zm-6.33-6.82a5.69 5.69 0 00-5.09 5.32v.27h5.11zm-22.22-4.91v2.24a.63.63 0 00.23.48l2.42 2a.6.6 0 00.39.14.65.65 0 00.49-.23.63.63 0 00-.09-.87l-2.2-1.79v-1.97a.62.62 0 00-1.24 0zm6-14.56a18.74 18.74 0 003.36 1.55 8.25 8.25 0 004.5.2 8.61 8.61 0 001.35-.47V1.26l-2.93 1.31a1.11 1.11 0 01-.25.09 1.29 1.29 0 01-.71-.07 14.3 14.3 0 01-2.07-1 9.62 9.62 0 00-6.65-.93v7.79l1.64-.56a2.9 2.9 0 011.72.23z" fill="#5fc1c7" data-name="レイヤー 2"/></svg>