<svg xmlns="http://www.w3.org/2000/svg" viewBox="0 0 61.51 62.53"><defs><style>.cls-1{fill:#5fc1c7}</style></defs><g id="レイヤー_2" data-name="レイヤー 2"><g id="文字"><path class="cls-1" d="M61.09 30L39.36 7.15a.94.94 0 00-.67-.29H28.25a.94.94 0 00-.67.29L5.72 30.09a.91.91 0 00-.18 1 .92.92 0 00.85.56h3.15v16.58a2.4 2.4 0 002.4 2.4h28.23c1.65-.89 3.09-2.75 3.09-4.41a2.71 2.71 0 010-.4H28.09V31.68a.46.46 0 00-.46-.46h-7.21a.46.46 0 00-.46.46v14.14h-5.62V29.56l15.37-16.15h7.52L52.6 29.55v16.27h-2.91v.4c0 1.66 1.44 3.52 3.1 4.41H55a2.4 2.4 0 002.4-2.4V31.65h3.19a.93.93 0 00.5-1.7zm-35.41 8.41a1.07 1.07 0 11-1.07 1.07 1.07 1.07 0 011.07-1.07z"/><path class="cls-1" d="M47.85 42.53V31.68a.46.46 0 00-.46-.46h-5.85V43h5.85a.46.46 0 00.46-.47zM33.57 31.68v10.85A.47.47 0 0034 43h5.85V31.22H34a.47.47 0 00-.43.46zm6.02-13.78a.46.46 0 00-.46-.46h-4.78v4.33h5.24zm-6.91-.46h-4.79a.47.47 0 00-.46.46v3.87h5.25zm-5.25 9.66a.47.47 0 00.46.46h4.79v-4.25h-5.25zm6.92.46h4.78a.46.46 0 00.46-.46v-3.79h-5.24zm-25.9-7.51h3.14c0-4.11 4.35-8.46 8.46-8.46V8.45c-4.11 0-8.46-4.34-8.46-8.45H8.45c0 4.11-4.34 8.45-8.45 8.45v3.14c4.11 0 8.45 4.35 8.45 8.46zM10 5.39A13.38 13.38 0 0014.67 10 13.44 13.44 0 0010 14.67 13.33 13.33 0 005.38 10 13.27 13.27 0 0010 5.39zm37.88 40.83h-2.77c0 3.29-3.48 6.77-6.77 6.77v2.77c3.29 0 6.77 3.48 6.77 6.77h2.77c0-3.29 3.48-6.77 6.77-6.77V53c-3.29 0-6.77-3.49-6.77-6.78zM46.49 58a10.88 10.88 0 00-3.57-3.57 11.07 11.07 0 003.57-3.57 11.27 11.27 0 003.57 3.57A11.07 11.07 0 0046.49 58z"/></g></g></svg>