<svg xmlns="http://www.w3.org/2000/svg" viewBox="0 0 58.5 65.06"><defs><style>.cls-1{fill:#5fc1c7}</style></defs><g id="レイヤー_2" data-name="レイヤー 2"><g id="文字"><path class="cls-1" d="M0 11.57h6.48v2.84H0zm10.27 0h6.63v2.84h-6.63z"/><path class="cls-1" transform="rotate(-26.24 6.092 23.45)" d="M3.27 22.03h5.65v2.84H3.27z"/><path class="cls-1" transform="rotate(-26.26 15.01 19.074)" d="M11.69 17.64h6.63v2.84h-6.63z"/><path class="cls-1" transform="rotate(-63.75 14.998 6.918)" d="M13.58 3.6h2.84v6.63h-2.84z"/><path class="cls-1" transform="rotate(-63.72 6.092 2.526)" d="M4.68-.3h2.84v5.65H4.68z"/><path class="cls-1" d="M26.7 11.1L22 8.78l-1.26 2.55-.06.24v2.84l.08.22-.02.01.05.12 1.2 2.43 4.71-2.32V11.1z"/><path class="cls-1" d="M58.15 38.38l-6.54-10.85a2.41 2.41 0 00-.66-.69V20a2.45 2.45 0 00-1.58-2.29l.74-1.36a1 1 0 00.11-.45v-5.28a1 1 0 00-.94-.95H28.82a1 1 0 00-.93.84v4.93a.94.94 0 00.93.83h2.72C31 19.2 29 27.9 22.33 31.27a.47.47 0 00.08.88l2.67.78h.28c.36-.12 8.66-3 11.86-16.65h3.42v1.37A2.42 2.42 0 0038.48 20v6.8a2.41 2.41 0 00-.66.69l-6.54 10.89a2.45 2.45 0 00-.35 1.27v23a2.46 2.46 0 002.46 2.46H56a2.46 2.46 0 002.5-2.51v-23a2.45 2.45 0 00-.35-1.22zM43.4 22.5H46v3.84h-2.6zm10.18 37.64H35.85V40.33l5.47-9.07h2v13.07h-5.78v14.51H51.9V44.33h-5.76V31.26h2l5.47 9.07z"/></g></g></svg>