<svg xmlns="http://www.w3.org/2000/svg" viewBox="0 0 960 394.08"><defs><style>.cls-1,.cls-10,.cls-17{fill:#f9c270}.cls-1{stroke:#f9c270}.cls-1,.cls-3,.cls-5{stroke-linecap:round}.cls-1,.cls-2,.cls-4{stroke-miterlimit:10}.cls-1,.cls-5{stroke-width:.57px}.cls-14,.cls-2,.cls-7{fill:#ef845d}.cls-2,.cls-3,.cls-4{stroke:#ef845d}.cls-2{stroke-width:.43px}.cls-16,.cls-3,.cls-9{fill:#ef858c}.cls-3,.cls-5{stroke-linejoin:round}.cls-3{stroke-width:.85px}.cls-15,.cls-4,.cls-8{fill:#bc7960}.cls-4{stroke-width:.28px}.cls-11,.cls-18,.cls-5{fill:#d6c677}.cls-5{stroke:#d6c677}.cls-12,.cls-13{fill:#cacaca}.cls-13,.cls-14,.cls-15,.cls-16,.cls-17,.cls-18{fill-rule:evenodd}</style></defs><g id="レイヤー_2" data-name="レイヤー 2"><g id="文字"><path class="cls-1" d="M648.7 187.42a.87.87 0 00.27-1.21.89.89 0 00-1.22-.27 12.57 12.57 0 00-3.67 17.59.88.88 0 001.22.24.88.88 0 00.24-1.22 10.81 10.81 0 013.16-15.13z"/><path class="cls-1" d="M643.42 210.23a.86.86 0 00.52.18.89.89 0 00.71-.36.88.88 0 00-.18-1.23 15.79 15.79 0 01-5.9-12.78 14.59 14.59 0 019.3-14 .88.88 0 00.48-1.15.87.87 0 00-1.14-.48 16.5 16.5 0 00-10.4 15.6c0 5.85 2.47 11.15 6.61 14.22zm8.06-20.23l-1.58.35a.87.87 0 00-.55.38.88.88 0 00-.12.67l.65 2.83a.88.88 0 00.85.68h.19l4.94-1.08.8 4a.88.88 0 00.38.56.84.84 0 00.48.14.62.62 0 00.19 0l4.74-1a.9.9 0 00.55-.53.92.92 0 00.11-.67l-.91-3.93 4.12-.89a.9.9 0 00.56-.39.92.92 0 00.11-.67l-.64-2.82a.89.89 0 00-1.05-.67l-1.91.42-2.73-12.57a.88.88 0 00-1-.67l-1.21.26-1.26-2.4-1-4.13-.55-2.76a.85.85 0 00-.38-.56.89.89 0 00-.67-.13l-4.74 1a.9.9 0 00-.56.39 1 1 0 00-.11.68l.68 2.73.85 4.15-.09 2.71-1.22.27a.87.87 0 00-.67 1zm6.73 6.54l-.56-2.75 2.92-.63.64 2.73zm6.88-6.53l-13.69 3-.26-1.11 13.69-3zm-3.55-2.91l-8.49 1.85-2.4-11 .92-.2h.11l6.44-1.4a.32.32 0 01.09 0l.93-.21zm-9.24-14.81l-.53-2.55 1.3-.29 1.62-.35.6 2.54-1.85.4zm1.81-6l.21 1.05-1.34.29-1.6.35-.25-1zm-1.64 7.71l1.7-.37 1.71-.37.75 1.51-4.22.92z"/><path class="cls-1" d="M674.74 216.77h-18.5v-1.15h.87a.89.89 0 00.88-.88v-10.46h10.62a.89.89 0 00.88-.88v-2.2a.88.88 0 00-.88-.88h-21a.88.88 0 00-.88.88v2.2a.89.89 0 00.88.88h1v3.62c-1.43 2.69-3.32 6.52-4.47 8.87h-3.79a.87.87 0 00-.88.88v3.71a.88.88 0 00.88.88h34.5a.88.88 0 00.88-.88v-3.71a.87.87 0 00-.99-.88zm-26.33-14.25v-.44h19.28v.44h-10.62a.87.87 0 00-.88.88v10.46h-5.93V203.4a.88.88 0 00-.88-.88zm25.45 18h-32.74v-1.95h3.45a.88.88 0 00.79-.5c.76-1.54 2-4 3.14-6.3v3a.88.88 0 00.88.88h5.06l.08 2.06a.87.87 0 00.87.85h18.47z"/><path class="cls-1" d="M653.36 209.16a2.37 2.37 0 10-2.36-2.37 2.37 2.37 0 002.36 2.37zm0-3a.61.61 0 010 1.21.61.61 0 110-1.21z"/><path class="cls-2" d="M141.55 212.78l-4.47 5.33-1.72-1.93a.61.61 0 00-.91.81l2.18 2.46a.61.61 0 00.46.2.64.64 0 00.46-.21l4.93-5.87a.61.61 0 00-.08-.86.61.61 0 00-.85.07z"/><path class="cls-2" d="M138.58 208.1a8.12 8.12 0 108.12 8.12 8.13 8.13 0 00-8.12-8.12zm0 15a6.9 6.9 0 116.9-6.89 6.9 6.9 0 01-6.9 6.9z"/><path class="cls-2" d="M137.6 206.26a.61.61 0 00.61-.61v-27.17a.62.62 0 00-.61-.61h-5.53v-1.62a.59.59 0 00-.17-.43.6.6 0 00-.44-.18H130v-.43a.81.81 0 00-.92-.92h-12.59a.79.79 0 00-.86.84v.51h-1.48a.61.61 0 00-.61.61v1.62h-5.62a.61.61 0 00-.61.61v38.72a.61.61 0 00.61.61h20.42a.61.61 0 000-1.22h-19.81v-37.5h5a.79.79 0 00.19.65.87.87 0 00.68.25h7.12a2.31 2.31 0 00.56.54 1.31 1.31 0 00.71.2 1.74 1.74 0 00.5-.08 1.57 1.57 0 00.94-.71h7a.92.92 0 00.7-.26.85.85 0 00.19-.65H137v26.56a.61.61 0 00.6.67zm-20.75-30.53v-.21h12v1.35h-12v-1.14zm11.34 3.05h-4.06a1 1 0 00-.94.6c0 .13-.34.21-.42.2a1 1 0 01-.25-.25 1 1 0 00-.89-.5h-6.87v-2h.87v.39a.76.76 0 00.85.85h12.69a.78.78 0 00.86-.86v-.38h.82v1.92z"/><path class="cls-2" d="M128.47 219.54H106v-46h33.52v32.26a.61.61 0 00.61.61.61.61 0 00.61-.61V173a.61.61 0 00-.61-.61h-34.74a.61.61 0 00-.61.61v47.2a.61.61 0 00.61.61h23.08a.61.61 0 00.61-.61.61.61 0 00-.61-.66z"/><path class="cls-2" d="M133.25 204.23a.61.61 0 00-.61-.61h-15.22a.61.61 0 100 1.22h15.22a.61.61 0 00.61-.61zm-.61-5.23h-15.22a.61.61 0 100 1.22h15.22a.61.61 0 100-1.22zm0-4.6h-15.22a.62.62 0 00-.62.61.61.61 0 00.62.61h15.22a.61.61 0 00.61-.61.61.61 0 00-.61-.61zm0-4.61h-15.22a.62.62 0 100 1.23h15.22a.62.62 0 000-1.23zm0-4.6h-15.22a.61.61 0 00-.62.61.62.62 0 00.62.61h15.22a.61.61 0 00.61-.61.61.61 0 00-.61-.61zm-15.1 24.26a.61.61 0 000 1.22h10.62a.61.61 0 100-1.22zm-2.11-25.88a.61.61 0 00-.61-.61h-3.58a.61.61 0 00-.61.61v3.58a.61.61 0 00.61.61h3.58a.61.61 0 00.61-.61zm-1.22 3h-2.36v-2.36h2.36zm1.22 3.11a.61.61 0 00-.61-.61h-3.58a.61.61 0 00-.61.61v3.59a.61.61 0 00.61.61h3.58a.61.61 0 00.61-.61zm-1.22 3h-2.36v-2.37h2.36zm1.22 3.12a.61.61 0 00-.61-.61h-3.58a.61.61 0 00-.61.61v3.58a.61.61 0 00.61.61h3.58a.61.61 0 00.61-.61zm-1.22 3h-2.36v-2.36h2.36zm1.22 3.11a.61.61 0 00-.61-.61h-3.58a.61.61 0 00-.61.61v3.58a.61.61 0 00.61.61h3.58a.61.61 0 00.61-.61zm-1.22 3h-2.36v-2.36h2.36zm.61 2.51h-3.58a.61.61 0 00-.61.61v3.58a.61.61 0 00.61.61h3.58a.61.61 0 00.61-.61V208a.61.61 0 00-.61-.58zm-.61 3.58h-2.36v-2.36h2.36z"/><path class="cls-3" d="M464 198.64a.7.7 0 00-.51-.45.93.93 0 00-.29 0l-8.8-2.17-.11-5.64 4.24 3.43a.68.68 0 00.75.07l6.92-3.56a2.71 2.71 0 001.17-3.66 2.67 2.67 0 00-1.58-1.35 2.73 2.73 0 00-2.08.17l-4.13 2.13-7.09-5.69a6.28 6.28 0 00-4.63-1.94 6.23 6.23 0 00-6.1 6.35l.23 12.17a6.25 6.25 0 006.17 6.11h.13l10.3.14 5.3 10.52v.05a3.57 3.57 0 002.21 1.77 2.39 2.39 0 00.53.06 3 3 0 001.65-.55c1-.68 1.88-2 .47-4.23zm3.54 16.85a1.4 1.4 0 01-1.12.28 2.27 2.27 0 01-1.32-1.12l-5.47-10.87a.71.71 0 00-.6-.38l-10.57-.13a.44.44 0 00-.16 0 4.88 4.88 0 01-4.94-4.77l-.23-12.17a4.81 4.81 0 011.35-3.46 4.85 4.85 0 017 .05l.07.07 7.48 6a.69.69 0 00.74.08l4.52-2.33a1.37 1.37 0 011.83.59 1.36 1.36 0 01-.59 1.82l-6.53 3.32-5-4.07a.67.67 0 00-.73-.08.66.66 0 00-.38.63l.14 7.64a.69.69 0 00.52.65l9.3 2.28 4.66 13.4a.42.42 0 00.06.14c.93 1.47.52 2.04-.05 2.43zm-19.23-36.84a5 5 0 002.42-.62 5.26 5.26 0 001.89-7.19 5.41 5.41 0 00-3.14-2.58 5 5 0 00-6.38 3.54 5.49 5.49 0 005.21 6.85zm-3.89-6.5a3.6 3.6 0 013.52-2.76 4 4 0 011.13.17 4.12 4.12 0 012.36 1.94 3.79 3.79 0 11-6.61 3.67 4.1 4.1 0 01-.4-3.02z"/><path class="cls-3" d="M455.7 206.44h-8a7.26 7.26 0 01-7.25-7.25v-12a.68.68 0 00-.68-.68.69.69 0 00-.69.68v12a8.63 8.63 0 007.93 8.59v8.09a.69.69 0 00.69.68.68.68 0 00.68-.68v-8.06h7.28a.69.69 0 000-1.37zm51.2-1.82a6.25 6.25 0 006.18-6.11l.23-12.17a6.22 6.22 0 00-10.73-4.41l-7.09 5.69-4.13-2.13a2.73 2.73 0 00-2.08-.17 2.67 2.67 0 00-1.58 1.35 2.71 2.71 0 001.17 3.66l6.92 3.56a.68.68 0 00.75-.07l4.24-3.43-.11 5.64-8.8 2.17a.93.93 0 00-.29 0 .7.7 0 00-.51.45l-4.78 13.75c-1.41 2.27-.53 3.55.47 4.23a3 3 0 001.65.55 2.24 2.24 0 00.52-.06 3.57 3.57 0 002.22-1.77v-.05l5.3-10.52 10.29-.14zm-.29-1.35l-10.61.13a.69.69 0 00-.6.38l-5.4 10.87a2.27 2.27 0 01-1.32 1.12 1.4 1.4 0 01-1.12-.28c-.57-.39-1-1 0-2.43a.84.84 0 00.06-.14l4.66-13.4 9.3-2.28a.69.69 0 00.52-.65l.14-7.64a.66.66 0 00-.38-.63.67.67 0 00-.73.08l-5 4.07-6.52-3.35a1.35 1.35 0 01-.58-1.82 1.29 1.29 0 01.78-.67 1.34 1.34 0 011 .08l4.52 2.33a.69.69 0 00.67-.04l7.48-6a.46.46 0 01.07-.07 4.91 4.91 0 013.63-1.54 4.87 4.87 0 013.41 1.49 4.81 4.81 0 011.35 3.46l-.23 12.17a4.88 4.88 0 01-4.94 4.77.47.47 0 00-.16-.01zM504.32 178a5 5 0 002.42.62 5.15 5.15 0 001.54-.24 5.51 5.51 0 003.72-6.58 5 5 0 00-6.38-3.54 5.53 5.53 0 00-3.67 6.61 5 5 0 002.37 3.13zm-.7-6.53a4.12 4.12 0 012.36-1.94 4 4 0 011.13-.17 3.6 3.6 0 013.52 2.76 4.16 4.16 0 01-2.76 5 3.61 3.61 0 01-2.88-.28 3.67 3.67 0 01-1.77-2.31 4.1 4.1 0 01.4-3.03z"/><path class="cls-3" d="M515.24 186.49a.68.68 0 00-.68.68v12a7.26 7.26 0 01-7.25 7.25h-8a.69.69 0 000 1.37h7.28v8.06a.68.68 0 00.68.68.69.69 0 00.69-.68v-8.09a8.63 8.63 0 007.93-8.59v-12a.69.69 0 00-.65-.68zm-25.81 9.24a.69.69 0 000-1.37h-25.92a.69.69 0 100 1.37h12.83v20.52a.68.68 0 00.68.69.69.69 0 00.69-.69v-20.52zM457 173.38a.59.59 0 00.23 0l5.47-2a.68.68 0 10-.48-1.28l-5.46 2a.68.68 0 00-.41.88.7.7 0 00.65.4zm-.26 2.62l5.46 2a.67.67 0 00.24 0 .68.68 0 00.24-1.32l-5.47-2a.69.69 0 00-.88.4.68.68 0 00.41.92z"/><path class="cls-4" d="M333.9 184.9v-8.41a3.46 3.46 0 00-3.46-3.45H271.9a3.47 3.47 0 00-3.46 3.45v33.9a3.47 3.47 0 003.46 3.46H296l-.39 3h-12.89a2.13 2.13 0 00-2.13 2.13v1.37a2.12 2.12 0 002.13 2.12h36.91a2.12 2.12 0 002.12-2.12V219a2.13 2.13 0 00-2.12-2.13h-12.88l-.38-3h24.07a3.47 3.47 0 003.46-3.46v-24.13a.72.72 0 010-1.38zm-28.49 32.78a.71.71 0 00.71.63h13.51a.69.69 0 01.69.69v1.37a.69.69 0 01-.69.69h-36.91a.69.69 0 01-.69-.69V219a.69.69 0 01.69-.69h13.5a.71.71 0 00.71-.63l.49-3.83h7.5zm27-31.4v24.11a2 2 0 01-2 2H271.9a2 2 0 01-2-2v-33.9a2 2 0 012-2h58.54a2 2 0 012 2v8.41a.72.72 0 010 1.38z"/><path class="cls-4" d="M275.76 178.13a2 2 0 003.88 0 2 2 0 100-.87 2 2 0 00-3.88 0 2 2 0 100 .87zm5.82-1a.57.57 0 01.56.56.56.56 0 01-1.12 0 .57.57 0 01.56-.56zm-3.88 0a.57.57 0 01.56.56.56.56 0 01-1.12 0 .57.57 0 01.56-.56zm-4.43.56a.56.56 0 111.11 0 .56.56 0 11-1.11 0zm54.33 4.14h-48.14a.72.72 0 000 1.43h48.14a.49.49 0 01.49.49V208a.49.49 0 01-.49.48h-52.9a.49.49 0 01-.49-.48v-24.25a.49.49 0 01.49-.49h2.91a.72.72 0 100-1.43h-2.91a1.92 1.92 0 00-1.92 1.92V208a1.93 1.93 0 001.92 1.92h52.9a1.93 1.93 0 001.92-1.92v-24.25a1.92 1.92 0 00-1.92-1.92z"/><path class="cls-4" d="M288.27 187.46a.69.69 0 00-1 .09l-4.18 5-1.54-1.73a.72.72 0 00-1-.06.71.71 0 00-.06 1l2.09 2.35a.68.68 0 00.53.24.69.69 0 00.54-.25l4.71-5.61a.71.71 0 00-.09-1.03zm-1 9.28l-4.18 5-1.54-1.74a.72.72 0 00-1-.06.71.71 0 00-.06 1l2.09 2.35a.71.71 0 00.53.24.69.69 0 00.54-.25l4.71-5.61a.72.72 0 00-1.09-.93zm5.4 4.45h10a.72.72 0 100-1.43h-10a.72.72 0 100 1.43zm11.41-.72a.72.72 0 00.72.72h15.66a.72.72 0 100-1.43H304.8a.71.71 0 00-.72.71zm16.38-8.25a.72.72 0 000-1.44H314a.72.72 0 100 1.44zm-9.01-1.44h-18.78a.72.72 0 100 1.44h18.78a.72.72 0 000-1.44z"/><path class="cls-5" d="M845.35 194.82a1.45 1.45 0 001.13-.53l2.1 1a1.55 1.55 0 000 .31 1.48 1.48 0 102.61-.94l3-4a1.47 1.47 0 00.56.11 1.45 1.45 0 001.09-.49l2.16 1.15a1.34 1.34 0 00-.05.35 1.48 1.48 0 10.38-1l-2.15-1.14a1.47 1.47 0 10-2.9-.36 1.43 1.43 0 00.34.94l-3 4a1.56 1.56 0 00-.57-.11 1.46 1.46 0 00-1.13.54l-2.1-1a1.45 1.45 0 000-.3 1.47 1.47 0 10-1.47 1.47zm14-3.84a.76.76 0 01.76.76.77.77 0 11-.76-.76zm-4.68-2.48a.76.76 0 11-.76.76.76.76 0 01.79-.76zm-4.67 6.34a.77.77 0 11-.76.77.76.76 0 01.76-.77zm-4.67-2.25a.76.76 0 010 1.52.76.76 0 110-1.52zm5.81 5.64h-2.23a.38.38 0 00-.38.38v4.51a.38.38 0 00.76 0V199h1.46v4.13a.39.39 0 00.39.38.38.38 0 00.38-.38v-4.51a.38.38 0 00-.38-.39zm9.35-3.92h-2.23a.38.38 0 00-.38.38v8.43a.38.38 0 00.76 0v-8h1.47v8a.38.38 0 00.76 0v-8.43a.38.38 0 00-.38-.38zm-14.03 1.62h-2.22a.39.39 0 00-.39.39v6.8a.39.39 0 00.77 0v-6.42h1.46v6.42a.38.38 0 00.76 0v-6.8a.39.39 0 00-.38-.39z"/><path class="cls-5" d="M855.81 192.48h-2.22a.38.38 0 00-.38.38v10.26a.38.38 0 00.76 0v-9.88h1.46v9.88a.38.38 0 10.76 0v-10.26a.38.38 0 00-.38-.38zm-30.31 17.1h-15.87a.41.41 0 00-.41.41.42.42 0 00.41.42h15.87a.42.42 0 00.42-.42.41.41 0 00-.42-.41zm-17.5 0h-2.34a.41.41 0 00-.41.41.42.42 0 00.41.42H808a.42.42 0 00.42-.42.41.41 0 00-.42-.41zm17.5-4.41h-12.32a.41.41 0 00-.42.41.42.42 0 00.42.42h12.32a.42.42 0 00.42-.42.41.41 0 00-.42-.41zm-19.86.83h5.71a.42.42 0 00.42-.42.41.41 0 00-.42-.41h-5.71a.41.41 0 00-.41.41.42.42 0 00.41.42zm19.86-5.24h-4a.41.41 0 00-.41.41.41.41 0 00.41.42h4a.42.42 0 00.42-.42.41.41 0 00-.42-.41zm-19.86.83H820a.41.41 0 00.41-.42.41.41 0 00-.41-.41h-14.36a.41.41 0 00-.41.41.42.42 0 00.41.42zm19.86-5.24h-4.59a.41.41 0 00-.41.41.41.41 0 00.41.42h4.59a.42.42 0 00.42-.42.41.41 0 00-.42-.41zm-19.86.83h13.42a.42.42 0 00.42-.42.41.41 0 00-.42-.41h-13.42a.41.41 0 00-.41.41.42.42 0 00.41.42zm19.86-5.24h-15.38a.41.41 0 00-.42.41.42.42 0 00.42.42h15.38a.42.42 0 00.42-.42.41.41 0 00-.42-.41zm-19.86.83h2.63a.41.41 0 00.41-.42.41.41 0 00-.41-.41h-2.63a.41.41 0 00-.41.41.42.42 0 00.41.42z"/><path class="cls-5" d="M830.19 186.58v-.05l-6.19-6.44-.09-.07a.41.41 0 00-.19 0h-22.35a.42.42 0 00-.41.42v37.81a.42.42 0 00.41.42h28.4a.42.42 0 00.42-.42v-31.67zm-28.4 31.2v-37h21.48v5.82a.41.41 0 00.42.41h3.42a.41.41 0 00.41-.41.41.41 0 00-.41-.42h-3v-4.78l5.26 5.38v31zm60.21-8.2h-15.87a.41.41 0 00-.42.41.42.42 0 00.42.42H862a.41.41 0 00.41-.42.41.41 0 00-.41-.41zm-17.53 0h-2.33a.41.41 0 00-.42.41.42.42 0 00.42.42h2.33a.42.42 0 00.42-.42.41.41 0 00-.42-.41zm17.53-4.41h-12.33a.41.41 0 00-.42.41.42.42 0 00.42.42H862a.41.41 0 00.41-.42.41.41 0 00-.41-.41zm-19.86.83h5.71a.42.42 0 00.41-.42.41.41 0 00-.41-.41h-5.71a.41.41 0 00-.42.41.42.42 0 00.42.42z"/><path class="cls-5" d="M866.68 186.58v-.05l-6.09-6.23-.09-.07a.41.41 0 00-.19 0h-22.44a.42.42 0 00-.42.42v37.81a.42.42 0 00.42.42h28.4a.41.41 0 00.41-.42v-31.88zm-28.4 31.2v-37h21.49v5.82a.41.41 0 00.41.41h3.42a.41.41 0 00.42-.41.42.42 0 00-.42-.42h-3v-4.78l5.25 5.38v31z"/><path d="M62.65 310.62a19.52 19.52 0 004.29-4.88 2 2 0 01.12-.19h-8.28a16.08 16.08 0 00-1.87.07v-1.41a10.53 10.53 0 001.89.11h8.55a2.48 2.48 0 001-.11l.75.87a4.09 4.09 0 00-.62.83 23.05 23.05 0 01-4.93 5.62c.55.62 1.26 1.5 2.14 2.67l-1.11.92a23.21 23.21 0 00-2.88-3.69 24.47 24.47 0 00-3-2.84l1-.76a26.07 26.07 0 012.06 1.84zM72.1 312a11.85 11.85 0 001.94.11h8.22a10.8 10.8 0 002-.11v1.49a16.36 16.36 0 00-2-.08H74a16.12 16.12 0 00-1.92.08zm1.52-7.17a9.74 9.74 0 001.83.11h5.46a9.26 9.26 0 001.8-.11v1.47a14.14 14.14 0 00-1.79-.07h-5.49a14.12 14.12 0 00-1.81.07zm23.07 9a7.64 7.64 0 001.46-.09V315a9.45 9.45 0 00-1.46-.07H89.4a9.45 9.45 0 00-1.47.07v-1.27a7.76 7.76 0 001.47.09h4.41c.32-1.49.66-3.69.8-5.06h-3.83a11.44 11.44 0 00-1.42.06v-1.24a9.29 9.29 0 001.45.09h3.86a2.11 2.11 0 00.82-.11l.58.51a3.15 3.15 0 00-.28 1.23c-.33 2.33-.45 3-.73 4.52zm11.31-7.4a4.93 4.93 0 00-.06 1.1c-.06 2.53-.47 4-1.49 5.29a8.48 8.48 0 01-3.85 2.63 3.62 3.62 0 00-.83-1.22 7.1 7.1 0 002.7-1.33c1.58-1.28 2.13-2.73 2.13-5.64a3.35 3.35 0 00-.06-.83zm6-1.89a3.42 3.42 0 00-.38.63 9.16 9.16 0 01-4.35 4.38 3.68 3.68 0 00-.91-1 6.7 6.7 0 002.32-1.41 7.44 7.44 0 001.61-2.13h-8.34a15.41 15.41 0 00-1.85.07v-1.36a12.75 12.75 0 001.88.1h8a3.51 3.51 0 001.32-.1zm6.12-1.08a7.85 7.85 0 00-.09 1.32c-.12 4.16-.24 5.25-.8 6.77a9.28 9.28 0 01-2.57 3.78 3.71 3.71 0 00-1.08-1 7.19 7.19 0 002.47-3.43 20 20 0 00.66-6.32 8.38 8.38 0 000-1.18zm3.81-.18a9.66 9.66 0 00-.11 1.56l-.07 8.72a6.73 6.73 0 002.64-1.74 7.4 7.4 0 001.69-2.93 5.11 5.11 0 001 1 8.55 8.55 0 01-3.09 3.93 10.64 10.64 0 01-2.11 1.08l-.48.18-.36.16-.71-.78a3.18 3.18 0 00.11-1.18l.09-8.49v-.33a6.26 6.26 0 00-.08-1.23zm9.81 9.65a13.14 13.14 0 01.87-2.75l.9.42a12.21 12.21 0 00-1.26 4.23v.29l-1.3.09c0-.24-.05-.33-.09-.63a22.26 22.26 0 01-.39-4.28 25.75 25.75 0 01.66-5.94 9.29 9.29 0 00.21-1.27l1.42.19a18.45 18.45 0 00-.75 3 28.39 28.39 0 00-.34 4.59v2.07zm4.92-3.54a3.39 3.39 0 00-1.13 2.2c0 1 .93 1.53 2.75 1.53a10.36 10.36 0 003.49-.52l.14 1.36-.54.09a16.78 16.78 0 01-3.09.29c-1.77 0-2.9-.38-3.53-1.19a2.44 2.44 0 01-.45-1.44 4.39 4.39 0 011.34-2.83zm-2.07-4.58a10.06 10.06 0 002.53.23 16.27 16.27 0 004.11-.41l.08 1.28-1 .13a25.72 25.72 0 01-3.19.2 16.81 16.81 0 01-2-.11h-.51zm13.55-1.14a6.27 6.27 0 00-.09-1.21h1.27a7.44 7.44 0 00-.07 1.21v.12h5.09v-.12a6.06 6.06 0 00-.09-1.21h1.29a7.13 7.13 0 00-.08 1.21v.12h1.27a10.82 10.82 0 001.56-.09v1.14c-.5 0-1-.07-1.56-.07h-1.27v4.63H159a11.94 11.94 0 001.58-.09v1.13a11 11 0 00-1.55-.09h-2.07a8.68 8.68 0 004 2 4.28 4.28 0 00-.59 1.1 11.56 11.56 0 01-2.78-1.32v1a10.07 10.07 0 00-1.34-.06h-2v1.48h4a8.58 8.58 0 001.59-.09v1.17a12.88 12.88 0 00-1.65-.09h-8.54a13.27 13.27 0 00-1.68.09v-1.15a14.61 14.61 0 001.63.07h3.59v-1.48h-1.74a9.75 9.75 0 00-1.32.06v-1a10.91 10.91 0 01-2.78 1.36 3.22 3.22 0 00-.58-1.08 7.71 7.71 0 003.9-2h-2a10.74 10.74 0 00-1.53.09v-1.13a10.36 10.36 0 001.53.09h1.5v-4.63h-1c-.58 0-1.06 0-1.54.07v-1.2a10.42 10.42 0 001.54.09h1zm1.83 6.68a8.23 8.23 0 01-1.79 1.68h2.99V312a6.89 6.89 0 00-.08-1.14h1.23a5.94 5.94 0 00-.07 1.14v.1h3.21a8.8 8.8 0 01-1.9-1.68zm4.37-4.64v-.94h-5.09v.94zm0 1.83v-.93h-5.09v.93zm0 1.86v-1h-5.09v1zm7.04-3.16a22.61 22.61 0 003.2-.65 20.11 20.11 0 014.3-.54c2.86 0 4.65 1.49 4.65 3.89a5 5 0 01-3.18 4.53 13 13 0 01-5.06 1.17 3.67 3.67 0 00-.54-1.34 13.48 13.48 0 004.11-.66c2.1-.72 3.27-2 3.27-3.7s-1.21-2.63-3.21-2.63a23.45 23.45 0 00-6.09 1.07 6.41 6.41 0 00-1.12.37zm10.73-3.24a10.86 10.86 0 011.48 2l-.89.45a9.27 9.27 0 00-1.48-2.06zm1.48-.75a9.49 9.49 0 011.48 2l-.88.45a9.33 9.33 0 00-1.46-2zm12.17 1.39c-.21.15-.39.32-1.85 1.7a42 42 0 01-3.49 2.86c-.51.39-.63.53-.63.71s.09.34 1.33 1.3a45 45 0 014.79 4c.22.21.25.24.43.39l-1.12 1.11a12.52 12.52 0 00-1.94-2.06c-1-.94-1.59-1.42-3.82-3.16-.87-.69-1.13-1-1.13-1.61a1.58 1.58 0 01.45-1.05 9.26 9.26 0 011.29-1 23.93 23.93 0 004.44-4.14zM79.12 334.29a6 6 0 001.16.08h.85a6.65 6.65 0 001.14-.08 11.94 11.94 0 00-.06 1.61v3.1a2.2 2.2 0 001.22 1.23 8 8 0 003.39.45 47.38 47.38 0 006.18-.28 4.78 4.78 0 00-.37 1.21c-2 .08-3.23.11-4.68.11a16.23 16.23 0 01-4.19-.29 3.8 3.8 0 01-2.1-1.59 12 12 0 01-1.68 1.46 7.24 7.24 0 00-.58.49l-.57-1.2a9.19 9.19 0 002.32-1.69v-3.51h-.91a5.82 5.82 0 00-1.07.07zm1.07-5.62a18.43 18.43 0 012.19 2.68l-.87.87a12.72 12.72 0 00-2.19-2.8zm4.86 3.13a6.24 6.24 0 00-1.16.08v-.39h-1.11a5.37 5.37 0 00.08-.93v-.71a8 8 0 00-.06-.94 13.4 13.4 0 001.39.06h6.86c.58 0 1 0 1.41-.06a4.93 4.93 0 00-.06.93v.69a5.28 5.28 0 00.06 1h-1.11v.39a6.08 6.08 0 00-1.14-.08H88v.9h2.44a7.49 7.49 0 001.17-.06 8.37 8.37 0 000 1v2.41a8 8 0 000 1 10.82 10.82 0 00-1.18-.06H88v.97h3.15a7.09 7.09 0 001.26-.08V339a8.06 8.06 0 00-1.29-.07H88v.07a11.64 11.64 0 00.07 1.26h-1.18A8.58 8.58 0 0087 339v-.13h-2.88a7.28 7.28 0 00-1.23.07v-1.05a7.44 7.44 0 001.21.08H87v-.95h-2.21a9.76 9.76 0 00-1.17.06 5.73 5.73 0 00.06-1v-2.41a6.12 6.12 0 00-.06-1 7.8 7.8 0 001.17.06H87v-.9zm1.92-.87a3.34 3.34 0 00-.06-.69h1.15a2.57 2.57 0 00-.07.69h2.29a5.59 5.59 0 001-.06v-1h-7.37v1a5.6 5.6 0 001.11.07zm-2.27 2.58v1H87v-1zm0 1.76v1H87v-1zm3.29-.8h2.53v-1H88zm0 1.76h2.53v-1H88zm14.82 3.63a11.77 11.77 0 00.07 1.68h-1.26a11.69 11.69 0 00.08-1.67v-2.74h-4a9.64 9.64 0 01-1.52 4.87 5 5 0 00-1-.79c1.37-1.86 1.63-3.47 1.63-10.44 0-.8 0-1.25-.06-1.79a14.65 14.65 0 001.66.06h8.16a14.16 14.16 0 001.64-.06 12.7 12.7 0 00-.06 1.53v10c0 1-.36 1.27-2 1.27-.48 0-1.17 0-1.76-.07a4 4 0 00-.27-1.14 18.44 18.44 0 002 .16c.69 0 .81-.07.81-.43v-3.18h-4.18zm-4.92-6.26v2.48h3.87v-2.48zm3.81-3.48h-3.78v2.43h3.8zm5.29 2.43v-2.43h-4.18v2.43zm-4.18 3.51H107v-2.46h-4.18zm20.05-5.98a2.87 2.87 0 00-.51.16 23.25 23.25 0 01-3.25.9v2.85h3.36a8.51 8.51 0 001.77-.1v1.33a13.18 13.18 0 00-1.75-.07H119a7.6 7.6 0 01-1 3.3 8 8 0 01-2.41 2.4c-.43.25-.7.4-1.35.72a3.13 3.13 0 00-1-1.11 7.53 7.53 0 002.21-1.2 5.36 5.36 0 002.17-4.11h-3.92a13.5 13.5 0 00-1.8.07v-1.33a9 9 0 001.82.1h4v-2.64a31.33 31.33 0 01-4.35.39 3.51 3.51 0 00-.42-1.18h.9a25 25 0 006.33-.93 6.07 6.07 0 001.74-.72zm10.67 9.76h3.09a9 9 0 001.44-.07V341a9.24 9.24 0 00-1.44-.07h-7.26a10.83 10.83 0 00-1.44.06v-1.25a7.18 7.18 0 001.43.09h3v-5.07h-2a13.58 13.58 0 00-1.43.06v-1.22a9.36 9.36 0 001.43.09h5.44a8 8 0 001.43-.1v1.24a11.59 11.59 0 00-1.41-.06h-2.19zm9.97-7.27A17.11 17.11 0 01145 336l-1.22.4a12.91 12.91 0 00-1.39-3.42zm8.51 0c-.09.27-.12.37-.2.69a12.3 12.3 0 01-2.16 5 11.66 11.66 0 01-4.32 3.34 4 4 0 00-.85-1 9.28 9.28 0 005.67-5.83 8.64 8.64 0 00.54-2.48zm-5.4-.57a16.38 16.38 0 011.45 3.28l-1.18.41a14.23 14.23 0 00-1.38-3.35zm15.28-3a2.1 2.1 0 00-.33.59 13.9 13.9 0 01-.66 1.3 1.31 1.31 0 01.38 0h.18l3.82-.06a2.21 2.21 0 00.87-.12l.74.72a2 2 0 00-.33.78 15.57 15.57 0 01-3 5.68 14.77 14.77 0 01-5.25 3.77 3 3 0 00-.89-1.1 12.5 12.5 0 005.24-3.69 13.13 13.13 0 002.57-4.89l-4.91.08a15.2 15.2 0 01-3.55 3.87 2.85 2.85 0 00-1-.92 11.39 11.39 0 003.79-4.18 6.18 6.18 0 00.9-2.13zm99.71-20.45a12.65 12.65 0 01-.2 1.72 6 6 0 01-2 3.8 9 9 0 01-2.64 1.48 3.48 3.48 0 00-.86-1.17 5.72 5.72 0 003.74-2.83 8.15 8.15 0 00.61-3h-3.9a14.85 14.85 0 00-1.83.07v-1.35a11.71 11.71 0 001.86.11H265a11.15 11.15 0 001.86-.11v1.35c-.48 0-1.05-.07-1.84-.07zm-5.58-5a9.35 9.35 0 001.84.11h4.55a9.46 9.46 0 001.86-.11v1.35c-.42 0-1.07-.07-1.85-.07h-4.57a14.2 14.2 0 00-1.83.07zm9.55 3a8.93 8.93 0 00-1.12-2.17l.88-.35a8.78 8.78 0 011.14 2.15zm1.53-.63a8.47 8.47 0 00-1.11-2.13l.87-.33a9.54 9.54 0 011.14 2.09zm3.75 2.49a16.42 16.42 0 002.07.09h8.43a11.82 11.82 0 002-.09v1.49a17.33 17.33 0 00-2-.08h-8.4a16.18 16.18 0 00-2.09.08zm22.15-5.58a6.79 6.79 0 00-.5 1c-.16.33-.31.59-.43.8a39 39 0 014.42-.09 2.68 2.68 0 001-.15l.77.76a3.26 3.26 0 00-.44 1 24.21 24.21 0 01-2 4.14 14.74 14.74 0 01-6.69 5.51 3.46 3.46 0 00-.89-1.11 14.88 14.88 0 003.06-1.59 10.81 10.81 0 002.55-2.3 17.41 17.41 0 00-3.28-2.35l.82-.92a20.68 20.68 0 013.24 2.24 17.22 17.22 0 001.95-4.1l-5.07.06a15.5 15.5 0 01-3.55 4 3.3 3.3 0 00-1.05-.86 13.16 13.16 0 003.81-4.27 9.25 9.25 0 00.88-2.06zm17.36 10.26a4.39 4.39 0 002.37-4 3.87 3.87 0 00-2.22-3.65 3.92 3.92 0 00-1.68-.4 21.5 21.5 0 01-1.5 6c-.85 2-1.75 2.86-2.88 2.86-1.51 0-2.62-1.6-2.62-3.79a6.26 6.26 0 011.6-4.2 6.41 6.41 0 014.94-2c3.4 0 5.67 2.1 5.67 5.27a5.55 5.55 0 01-3.29 5.19 10.15 10.15 0 01-2.5.78 3 3 0 00-.65-1.22 8.13 8.13 0 002.76-.84zm-5-7.32a5.12 5.12 0 00-2.34 4.35c0 1.37.6 2.45 1.38 2.45.58 0 1.15-.69 1.77-2.1a20.34 20.34 0 001.33-5.4 4.22 4.22 0 00-2.1.7zm12.01-.77a6.45 6.45 0 001.2.07H322a6 6 0 001.2-.07v1.14a6.27 6.27 0 00-1.1-.06h-3.55a8.32 8.32 0 00-1.2.06zm.52-2.1a6.54 6.54 0 001.17.07h2.42a6.61 6.61 0 001.17-.07v1.1a7.8 7.8 0 00-1.17-.06h-2.42a8 8 0 00-1.17.06zm.06 4.26a7.24 7.24 0 001.05.06h2.67a6.63 6.63 0 001-.06v1.08a6.48 6.48 0 00-1-.06H319a6.18 6.18 0 00-1.05.06zm0 2.07a7.24 7.24 0 001.05.06h2.67a6.72 6.72 0 001-.06v1.08a6.61 6.61 0 00-1-.06H319a6.39 6.39 0 00-1.05.06zm.05 6.9a10.08 10.08 0 00.09-1.46v-2.08a7.46 7.46 0 00-.08-1.23 10.93 10.93 0 001.2.06h2.46a5.39 5.39 0 001.07 0 11.17 11.17 0 00-.05 1.16v2.25a10 10 0 00.06 1.15h-1.09v-.7h-2.51v.9zm1.14-1.85h2.52v-1.95h-2.52zM325 314c0 .3.08.39.36.45a7.38 7.38 0 001.65.11c1.46 0 1.95-.08 2.22-.33s.36-1 .42-2.43a5.7 5.7 0 001.19.48 5.42 5.42 0 01-.68 2.74c-.34.47-1.12.63-3.07.63a12.62 12.62 0 01-2.3-.13c-.73-.14-.94-.41-.94-1.19v-5.11a9.46 9.46 0 00-.08-1.46 12.6 12.6 0 001.47.06h3.66v-3.67H325a9.7 9.7 0 00-1.44.07V303a10.38 10.38 0 001.44 0h3.62a11.56 11.56 0 001.45-.06v4.49a12.08 12.08 0 00.06 1.43 12.7 12.7 0 00-1.47-.06H325zm11-6.94a7.46 7.46 0 00-1 .06v-.84c-.27.27-.39.36-.73.66a2.52 2.52 0 00-.59-.93 7.46 7.46 0 002.67-3.48h1.25a6.49 6.49 0 002.16 2.7 3.73 3.73 0 00-.65.95 9.05 9.05 0 01-2.08-2.73 9.39 9.39 0 01-1.85 2.65h2.8a5.41 5.41 0 001-.06v1a9.2 9.2 0 00-1-.05h-.48v1.4h.61a7.64 7.64 0 001.28-.08v1.11a7.58 7.58 0 00-1.28-.07h-.61v4.24a15.45 15.45 0 001.71-.6v1a31.23 31.23 0 01-4 1.23c-.56.13-.69.16-1 .25l-.21-1.18a12 12 0 002.49-.44v-4.51h-1a9.58 9.58 0 00-1.41.07v-1.11a10.43 10.43 0 001.43.08h1v-1.4zm-1 6.39a14.86 14.86 0 00-.64-3l.85-.27a16.84 16.84 0 01.69 3zm3-.88a10.57 10.57 0 00.63-2.55l.85.3a13.16 13.16 0 01-.72 2.52zm5.92-4.38a9 9 0 00.93 2.65 8 8 0 001.62-2l.9.6a16 16 0 01-2 2.29 7.81 7.81 0 002.59 2.52 4.69 4.69 0 00-.72 1 8.45 8.45 0 01-2.29-2.46 9 9 0 01-1.14-2.55c.06 1.23.09 1.84.09 2.46v2.16c0 1-.33 1.2-1.58 1.2a11.62 11.62 0 01-1.21-.08 3.06 3.06 0 00-.24-1.09 8.84 8.84 0 001.39.13c.5 0 .62-.07.62-.37v-2.06c-.6.5-.74.6-1.14.89l-1.29.85-.51.35-.53-1a16.15 16.15 0 003.47-2.22v-3.24h-2.07a8.83 8.83 0 00-1.4.07v-1.11a8.85 8.85 0 001.4.09h4.09c0-.18 0-.18.05-.51 0-.1 0-.16.06-.7h-3.21a9.4 9.4 0 00-1.32.06V305a7.28 7.28 0 001.32.08h3.27c0-.48 0-.57.06-1.16h-3.63a13.32 13.32 0 00-1.43.06v-1.09a9.61 9.61 0 001.46.07h3.31a11.29 11.29 0 001.44-.06 10.08 10.08 0 00-.12 1.52c-.06 1-.07 1.12-.19 2.8h.25a9.27 9.27 0 001.43-.09v1.11a9.66 9.66 0 00-1.41-.07h-2.3zm-3.12.6a12.21 12.21 0 011.2 2.31l-.85.54a10.49 10.49 0 00-1.28-2.42zm-53.32 26.79v-1.75a8.91 8.91 0 01-1.46 1.95 2.55 2.55 0 00-.1-.24 3.85 3.85 0 00-.54-.89 12.16 12.16 0 003.39-6.4l1.21.39a7.92 7.92 0 00-.28.82 17.82 17.82 0 01-1.17 2.76v8a14.06 14.06 0 00.08 1.76h-1.27a15 15 0 00.1-1.79zm6.26-1.87h-1.6a13.73 13.73 0 00-1.58.06 11.11 11.11 0 00.06-1.38v-2a10.71 10.71 0 00-.06-1.34 11.11 11.11 0 001.65.08h4.52a11.38 11.38 0 001.65-.08 11.11 11.11 0 00-.06 1.38v2a10.06 10.06 0 00.06 1.35c-.27 0-1-.06-1.56-.06h-2v1.51h3a11.67 11.67 0 001.53-.09v1.22a13.51 13.51 0 00-1.5-.09h-2.58a10 10 0 001.88 2 11.06 11.06 0 002.64 1.65A6.25 6.25 0 00299 341a15.56 15.56 0 01-2.25-1.62 9.21 9.21 0 01-2-2.29c0 .54.06 1 .06 1.62v1.87a10.38 10.38 0 00.09 1.44h-1.28a11.06 11.06 0 00.09-1.45v-1.86c0-.59 0-1 .06-1.62a9.66 9.66 0 01-2.14 2.55 12.24 12.24 0 01-2 1.42 3.35 3.35 0 00-.77-1 11.83 11.83 0 002.84-1.92 7.93 7.93 0 001.59-1.87H291a11.67 11.67 0 00-1.55.09v-1.22a11.36 11.36 0 001.55.09h2.74zm-2-1h5.45v-2.55h-5.45zm12.89-2.3a9.74 9.74 0 01-1.4 1.47 2.92 2.92 0 00-.86-.75 6.49 6.49 0 002.37-2.94l1.14.3c-.24.43-.35.61-.57 1h2.38a7 7 0 001.29-.07v1.06a10.5 10.5 0 00-1.11 0h-1.11a9 9 0 01.6 1.2l-1 .39a8 8 0 00-.68-1.59zm9.29 1.84a13.46 13.46 0 001.56-.06 5.16 5.16 0 00-.05.95v.86a6.44 6.44 0 00.06 1h-1.15v-1.8h-10.28v1.8h-1.15a8.37 8.37 0 00.06-1v-.86a5.47 5.47 0 00-.06-1 12 12 0 001.51.06h4v-.2a4.87 4.87 0 00-.06-.81h1.21a.46.46 0 000 .1 2.66 2.66 0 00-.05.71v.22zm-9.11 9.75a10.41 10.41 0 00.09-1.56v-5.4a6.57 6.57 0 00-.06-1.08 10.21 10.21 0 001.44.08h5.55a9.76 9.76 0 001.44-.08 10.35 10.35 0 000 1.08v.96a9.26 9.26 0 000 1.15 13.83 13.83 0 00-1.41-.06H306v1h6.51a11.09 11.09 0 001.33-.06 12 12 0 00-.06 1.32v1.29a9.92 9.92 0 00.08 1.39h-1.17v-.72H306v.69zm1.19-5.82h6.16V335H306zm0 4.19h6.69V339H306zm4.48-10a6.31 6.31 0 01-.76.9 2.88 2.88 0 00-.86-.61 5 5 0 001.61-2.48l1.09.23c-.16.39-.24.52-.49 1h3.42a8 8 0 001.36-.08v1.1a7.84 7.84 0 00-1.33-.08h-1.8a10.56 10.56 0 01.67 1.19l-1 .39a8.58 8.58 0 00-.77-1.58zm-26.28 25.71a2.87 2.87 0 00-.51.16 23.64 23.64 0 01-3.25.9c0 2.1 0 2.37-.05 2.85h3.36a8.51 8.51 0 001.77-.1v1.33a13.18 13.18 0 00-1.75-.07h-3.45a7.6 7.6 0 01-1 3.3 7.91 7.91 0 01-2.42 2.4 15 15 0 01-1.35.72 3.11 3.11 0 00-.95-1.11 7.53 7.53 0 002.21-1.2 5.32 5.32 0 002.16-4.11h-3.91a13.41 13.41 0 00-1.8.07v-1.33a8.9 8.9 0 001.81.1h4c0-.57.05-1.47.05-2.64a31.33 31.33 0 01-4.35.39 3.51 3.51 0 00-.42-1.18h.9a25 25 0 006.33-.93 6.07 6.07 0 001.74-.72zm10.67 9.76H298a9 9 0 001.44-.07V367a9.24 9.24 0 00-1.44-.07h-7.3a10.83 10.83 0 00-1.44.06v-1.25a7.18 7.18 0 001.43.09h2.95v-5.07h-2a13.45 13.45 0 00-1.43.06v-1.22a9.36 9.36 0 001.43.09H297a8 8 0 001.43-.1v1.24a11.59 11.59 0 00-1.41-.06h-2.19zm9.98-7.27a17.16 17.16 0 011.48 3.39l-1.21.4a12.92 12.92 0 00-1.4-3.42zm8.5 0c-.09.27-.12.37-.2.69a12.3 12.3 0 01-2.16 5 11.66 11.66 0 01-4.32 3.34 4 4 0 00-.85-1 9.28 9.28 0 005.67-5.83 8.64 8.64 0 00.54-2.48zM308 358a15.31 15.31 0 011.45 3.28l-1.18.41a13.82 13.82 0 00-1.38-3.35zm15.23-3a2.1 2.1 0 00-.33.59c-.36.76-.48 1-.65 1.3a1.18 1.18 0 01.37 0h.18l3.83-.06a2.19 2.19 0 00.86-.12l.74.72a2 2 0 00-.33.78 15.57 15.57 0 01-3 5.68 14.73 14.73 0 01-5.24 3.77 3.1 3.1 0 00-.9-1.1 12.5 12.5 0 005.24-3.69 13.13 13.13 0 002.57-4.89l-4.9.08a15.06 15.06 0 01-3.56 3.87 2.77 2.77 0 00-1-.92 11.5 11.5 0 003.8-4.18 6.62 6.62 0 00.9-2.13zM452 305.64c.16-.45.22-.63.37-1.16h-.25a8.15 8.15 0 00-1.22.08v-1a7.75 7.75 0 001.25.07h.46a7.51 7.51 0 00.24-1.27l1.1.15a2.22 2.22 0 00-.12.45c0 .13-.05.18-.18.67h2.41v2.06a5.07 5.07 0 00.93-.08v.89a5.65 5.65 0 00.82 0h1.8a5 5 0 001.08-.07v1.15a5.45 5.45 0 00-1.08-.07h-.19v7c0 1.08-.29 1.29-1.74 1.29h-1a3.29 3.29 0 00-.23-1.13 9.71 9.71 0 001.41.14c.35 0 .44-.08.44-.32v-7h-.5a3.86 3.86 0 00-.9.07v-1a7.52 7.52 0 00-1-.06h-4.16a7 7 0 00-1.24.08l-.41.69a11.64 11.64 0 01-.67 1v5.9a9.6 9.6 0 00.09 1.72h-1.25a10.25 10.25 0 00.09-1.75V311c0-.55 0-1 .05-1.6a9.38 9.38 0 01-1.14 1.2 3.55 3.55 0 00-.56-1.07 8.57 8.57 0 002.25-2.43 4.89 4.89 0 00.65-1.29l.9.53v-.74a6 6 0 001.21.08zm-1.51-2.64c-.18.21-.18.21-.57.72a13 13 0 01-2.5 2.52 3.3 3.3 0 00-.63-.94 8 8 0 002.68-2.93zm1.74 7.11c-.58 0-.94 0-1.33.05a8.31 8.31 0 000-1v-.9a7.21 7.21 0 000-.89 10.45 10.45 0 001.12.05h3.05c.58 0 .94 0 1.27-.05a9 9 0 000 1v.78a8.75 8.75 0 000 1c-.28 0-.75-.05-1.29-.05h-.28v.9h.61c.54 0 .89 0 1.35-.06v1a13.25 13.25 0 00-1.35-.06h-.61v1.19h.88a10.52 10.52 0 001.43-.08v1.05a12.43 12.43 0 00-1.26-.07h-1.05v.64a8.83 8.83 0 00.09 1.34h-1.19a8.83 8.83 0 00.09-1.34V314h-2.34a10.22 10.22 0 00-1.41.07v-1a9 9 0 001.19.06v-1.19l-.84.06v-1c.48 0 .85.06 1.35.06h2.05v-.92zm-.25-.82h3.3v-1H452zm.19 3.81h1.59v-1.19h-1.59zm2.85-7.44v-1.16h-1.63c-.15.51-.23.71-.39 1.16zm5.33-1.26a4.92 4.92 0 00-1-.08h-1.62a6.06 6.06 0 00-.79.06v-1.14a5.53 5.53 0 001 .08h1.41a5.49 5.49 0 001-.08zm6.12 2.15a14.75 14.75 0 01-2 3.17 3.45 3.45 0 00-1-.8 12.09 12.09 0 002.64-4.56 4.58 4.58 0 00.33-1.41l1.29.35a8.56 8.56 0 00-.28.82c-.08.24-.33.92-.5 1.35h2.93V304a10.62 10.62 0 00-.11-1.65h1.4a10 10 0 00-.09 1.65v1.45h3.54a15.76 15.76 0 001.8-.09v1.26a16.91 16.91 0 00-1.77-.09h-3.57v3.06H474a12 12 0 001.68-.09v1.25a12.63 12.63 0 00-1.68-.09h-2.92v3.69h4a12.22 12.22 0 001.86-.11v1.29a14.74 14.74 0 00-1.83-.1h-9.51a15.53 15.53 0 00-1.87.1v-1.29a12.63 12.63 0 001.84.11h4.28v-3.69h-2.61a11.93 11.93 0 00-1.65.09v-1.25a11.13 11.13 0 001.63.09h2.63v-3.06zm15.76-2.64a9.81 9.81 0 00-.1-1.53h1.33a11 11 0 00-.09 1.5v1.43h.48a7.55 7.55 0 001.2-.08v1.17a8.19 8.19 0 00-1.21-.07h-.47v2.86c.53-.16.81-.25 1.7-.58v1c-.67.29-.85.35-1.71.65v4.47c0 .9-.39 1.14-1.77 1.14h-1.12a3.41 3.41 0 00-.24-1.15 9.41 9.41 0 001.5.13c.39 0 .49-.09.49-.4v-3.77c-.52.17-.57.18-1.18.35a6.91 6.91 0 00-.77.25L480 310a11.79 11.79 0 002.2-.5v-3.19h-.87a8 8 0 00-1.2.07v-1.18a7.33 7.33 0 001.2.09h.87zm4.58.42a14.91 14.91 0 005.25-1.5l.88 1a25.81 25.81 0 01-6.13 1.47v.95c0 .58.24.64 2.74.64s2.63 0 2.75-1.87a4.35 4.35 0 001.09.42c-.13 1.29-.33 1.8-.79 2.1s-1.16.37-3.6.37c-2.76 0-3.32-.22-3.32-1.35v-2.66a9.66 9.66 0 00-.09-1.47h1.29a9 9 0 00-.07 1.41zm-1.1 5.87a7.61 7.61 0 00-.06-1.2 11.51 11.51 0 001.34.06h4.29a10.86 10.86 0 001.33-.06 9.14 9.14 0 00-.06 1.21v4.31a8.69 8.69 0 00.08 1.5h-1.19v-.78h-4.62v.76h-1.18a9.29 9.29 0 00.07-1.48zm1.11 1.38h4.62v-1.53h-4.62zm0 2.67h4.62v-1.68h-4.62zm17.84-2.63a12.51 12.51 0 01-3.92-.33 2.58 2.58 0 01-1.35-1 21.25 21.25 0 01-2.32 1.54l-.51-1.06a10.79 10.79 0 002.28-1.26v-2.21h-1a7.32 7.32 0 00-1.08.06v-1.05a6 6 0 001.17.08h.93a8.67 8.67 0 001.12-.06 10.12 10.12 0 00-.06 1.36v1.76c.59 1.05 1.32 1.29 4 1.29s5.16-.08 6.33-.21a2.42 2.42 0 00-.36 1h-2.7v.77h1a11.17 11.17 0 001.62-.09v1.12a11.52 11.52 0 00-1.63-.09h-1v1.59c0 .95-.28 1.11-2 1.11h-1.16a3 3 0 00-.34-1.09 12.84 12.84 0 001.71.12c.57 0 .67-.06.67-.38v-1.29h-5.55a12 12 0 012.09 1.73l-.87.78a8.8 8.8 0 00-2.06-1.89l.8-.62h-2.15a11.81 11.81 0 00-1.63.09v-1.12a11.17 11.17 0 001.62.09h7.75v-.75zm-6.92-9.12a13 13 0 012.21 2l-.78.79a11.2 11.2 0 00-2.19-2.1zm5.12 1.1a6.25 6.25 0 00-.84-1.16l1.09-.25a9 9 0 01.89 1.41h1.71a9 9 0 00.94-1.38l1.11.3c-.34.46-.57.76-.84 1.08h1.32a8.84 8.84 0 001.5-.08v1a13.76 13.76 0 00-1.5-.06h-2.8c-.14.3-.23.47-.36.72h3.58a10.1 10.1 0 00-.06 1.24v2.43a10.6 10.6 0 00.06 1.31c-.31 0-.69-.05-1.24-.05h-4.64c-.58 0-1 0-1.47.05a10.55 10.55 0 00.05-1.2v-2.57a8.83 8.83 0 00-.06-1.21h2.62c.2-.34.24-.45.38-.72h-2.39a15.07 15.07 0 00-1.53.06v-1a8.81 8.81 0 001.47.08zm-.5 3h5.22v-.6h-5.22zm0 1.35h5.22v-.6h-5.22zm0 1.38h5.22v-.64h-5.22zm-60.23 28.28v-.93c-.84.34-1.11.45-2 .76a3 3 0 00-.56-1.11 18.33 18.33 0 006.05-2.67 11.37 11.37 0 01-2.06-2.14 12.33 12.33 0 01-2.89 2.29 3.1 3.1 0 00-.74-.9 11.18 11.18 0 003.81-3.22 6.39 6.39 0 00.92-1.52l1.24.29c-.51.78-.51.79-.79 1.2h3.4a8.58 8.58 0 001.38-.08l.62.77c-.21.24-.23.27-.69.85a15.36 15.36 0 01-2.37 2.43 13.24 13.24 0 002.07 1.13 21.74 21.74 0 003.73 1.29 3.82 3.82 0 00-.52 1.17 19.46 19.46 0 01-1.94-.68v4.14a9.69 9.69 0 00.09 1.38h-1.23v-.88h-6.29v.88H442a10.1 10.1 0 00.09-1.38zm7.5-1.2h.74a19.66 19.66 0 01-3.89-2 16.73 16.73 0 01-3.72 2.06h6.87zm-6.36 3.76h6.29v-2.77h-6.29zm.93-9.43a10.55 10.55 0 002.27 2.26 12.23 12.23 0 002.31-2.38h-4.47zm13.92-.57c-.64.16-.91.21-1.65.34a3.33 3.33 0 00-.46-1 12.74 12.74 0 003.66-.92 3.49 3.49 0 00.52-.28l.66.91c-.15.05-.15.05-.79.32-.32.12-.57.21-.89.31v2.39h.41a6.53 6.53 0 001-.06v1.11a6 6 0 00-1-.06h-.34a7.19 7.19 0 001.45 2.5 3.59 3.59 0 00-.57 1 8.68 8.68 0 01-1-2.1v5.72a13.77 13.77 0 00.08 1.72H458a14.19 14.19 0 00.09-1.72v-3.15c0-1.2.05-2 .08-2.32a11.13 11.13 0 01-1.86 4 3.77 3.77 0 00-.62-1 12.45 12.45 0 002.27-4.56h-.72a10.26 10.26 0 00-1.14.07v-1.14a8.27 8.27 0 001.17.08h.82zm6.17-.06c-1.11.07-1.68.1-2.91.12a3.44 3.44 0 00-.44-1h.95a23.42 23.42 0 006.37-.8l.77.95a3.44 3.44 0 00-.57.12c-.8.16-2 .34-3.17.46v1h2.76a9.94 9.94 0 001.47-.09V332a11.1 11.1 0 00-1.39-.08h-2.84v.9h3.47a7.81 7.81 0 00-.05 1.24v2.22a10.05 10.05 0 00.05 1.41h-3.47v1h2.15a8.91 8.91 0 001.5-.08v1.08c-.44 0-.95-.07-1.5-.07h-2.15v1.08h2.78a13.22 13.22 0 001.57-.08v1.1a11.54 11.54 0 00-1.6-.09h-6.33a10.84 10.84 0 00-1.59.07v-1.2a10.24 10.24 0 001.57.08h2.6v-1.08h-2.16a11.2 11.2 0 00-1.44.06v-1.05a12.53 12.53 0 001.44.06h2.16v-1h-3.32c0-.43.05-.82.05-1.42V334c0-.6 0-.92-.05-1.26h3.29v-.9h-2.42a12.49 12.49 0 00-1.42.06v-1.05a9.33 9.33 0 001.41.08h2.43zm-2.29 3.58v1.07h2.25v-1.07zm0 1.92v1.11h2.25v-1.11zm3.25-.85h2.42v-1.07h-2.42zm0 2h2.42v-1.11h-2.42zm17.86 3.56a4.72 4.72 0 00-.54.08 26.4 26.4 0 01-4 .34 10.17 10.17 0 01-3.56-.48 2.41 2.41 0 01-1.77-2.32c0-1 .56-1.95 1.79-3l.91.69c-1 .79-1.41 1.48-1.41 2.16s.42 1.12 1.23 1.38a9.89 9.89 0 002.72.28 14.14 14.14 0 004.53-.6zm-9-10.38a24.24 24.24 0 008 .06l.07 1.2a22.75 22.75 0 00-3.84 2.34l-.91-.73c1-.65 1.24-.81 1.84-1.16l.39-.21.29-.15a14.63 14.63 0 01-2.24.17 26.65 26.65 0 01-3.16-.2h-.51zm7.44 2.52a9.32 9.32 0 011.44 2l-.84.48a8.39 8.39 0 00-1.42-2zm1.43-.79a9.35 9.35 0 011.44 1.92l-.83.48a9.26 9.26 0 00-1.42-1.95zm8.07.58a9 9 0 002.11 3.3 4.44 4.44 0 00-.61 1.05 10.77 10.77 0 01-1.65-3c0 1.29.06 1.85.06 2.31v4.37a13.1 13.1 0 00.09 1.77h-1.29a13.51 13.51 0 00.09-1.77v-3.92c0-.6 0-1 .09-2.43a13.6 13.6 0 01-2.1 4.53 4.52 4.52 0 00-.66-1.09 13 13 0 002.5-5.15h-1a7.61 7.61 0 00-1.08.06v-1.14a6.2 6.2 0 001.1.06h1.14v-1.38a7.69 7.69 0 00-.09-1.54H491a13.39 13.39 0 00-.07 1.54v1.38h1a5.58 5.58 0 001-.06v1.13a9.71 9.71 0 00-1-.05zm2.4 9.77c0-.54.07-1.11.07-1.88v-9.51c0-.49 0-.91-.06-1.6h5.67a10.34 10.34 0 001.19-.05c0 .35-.05.75-.05 1.5v9.62a15.79 15.79 0 00.08 1.83h-1.2v-1h-4.5v1zm1.2-9.41h4.5v-2.49h-4.5zm0 3.6h4.5v-2.55h-4.5zm0 3.72h4.5v-2.67h-4.5zm9.21-9.01a6.45 6.45 0 001.2.07h2.8a7.1 7.1 0 001.2-.06v1.13A6.55 6.55 0 00508 332h-2.91a8.57 8.57 0 00-1.2.06zm.58 11a14.17 14.17 0 00.08-1.47v-2.1a11.32 11.32 0 00-.06-1.22 4.89 4.89 0 001 .06h2.27a5.15 5.15 0 00.91 0 10.78 10.78 0 000 1.14v2.4a9.06 9.06 0 000 1h-1v-.62h-2v.89zm.06-8.88a6.37 6.37 0 001 .06h2.08a5.62 5.62 0 001-.06v1.06a6.29 6.29 0 00-1-.06h-2.08a6.55 6.55 0 00-1 .06zm0 2.08a8.38 8.38 0 001 0h2.08a7.47 7.47 0 001 0v1a6.17 6.17 0 00-1-.06h-2.09a6.44 6.44 0 00-1 .06zm0-6.33a5.53 5.53 0 001.12.08h1.85a5.72 5.72 0 001.12-.08v1.1a7.33 7.33 0 00-1.12-.06h-1.85a7.25 7.25 0 00-1.12.06zm1 11.33h2v-2h-2zm8.2-5.69a6.61 6.61 0 00-.06.93 5.19 5.19 0 001 3.36 6.8 6.8 0 003.06 2.24 4.14 4.14 0 00-.66 1.12 8.56 8.56 0 01-2.68-2.07 5.86 5.86 0 01-1.22-2.1 5 5 0 01-1.14 2.24 6.68 6.68 0 01-2.71 1.95 3.45 3.45 0 00-.66-1 5.42 5.42 0 003-2.09 5.78 5.78 0 00.94-3.54 6.22 6.22 0 00-.06-1zm0-5.94a7.85 7.85 0 00-.06.92 4.74 4.74 0 00.8 2.88 5.52 5.52 0 001.48 1.35 6.23 6.23 0 001.5.7 5 5 0 00-.63 1.05 7.36 7.36 0 01-2.8-2.14 4.91 4.91 0 01-.87-1.52 4.73 4.73 0 01-.87 1.65 6.4 6.4 0 01-2.79 2 2.77 2.77 0 00-.68-1 5.24 5.24 0 002.24-1.16 4.62 4.62 0 001.53-3.82 4.87 4.87 0 00-.08-1zm-2.47 7.41a8.38 8.38 0 01-1.2 2.73l-1-.45a5.19 5.19 0 001.17-2.58zm.13-6.42a8.16 8.16 0 01-1.17 2.75l-1-.44a5.38 5.38 0 001.11-2.56zm5.78.08a11.7 11.7 0 01-1.77 2.46 5.85 5.85 0 00-.89-.57 7.12 7.12 0 001.61-2.36zm-.05 6.48a12 12 0 01-1.63 2.41 5.05 5.05 0 00-.89-.58 6.78 6.78 0 001.49-2.3zm113.81-29.77a13.5 13.5 0 01-1.62 1.15 5.05 5.05 0 00-.69-.91l.4-.23h-1.24a8.79 8.79 0 001.71 2.91 3.66 3.66 0 00-.6.95 12.88 12.88 0 01-1.25-2.46c0 .54.08 1.54.08 2.29v4.37a13 13 0 00.09 1.77h-1.25a13.3 13.3 0 00.09-1.77v-3.92c0-.64 0-1.36.08-2.25l-.18.62a13.44 13.44 0 01-1.5 3.67 3.59 3.59 0 00-.68-1.06 14.12 14.12 0 002.13-5.12h-.75a6.69 6.69 0 00-1 .06v-1.15a6.69 6.69 0 001 .06h.89v-1.35a9 9 0 00-.08-1.55h1.23a10 10 0 00-.07 1.53v1.37h.54a5.58 5.58 0 00.91-.06v1a9.66 9.66 0 003.54-3.67h1.22a7.55 7.55 0 001.71 2 10.34 10.34 0 002.94 1.85 4.06 4.06 0 00-.63 1.05 15.22 15.22 0 01-1.89-1.19v.86c-.39 0-.72-.05-1.31-.05h-.85v.66a5.34 5.34 0 010 .54h3.44v2.67a6.94 6.94 0 000 1.12 14 14 0 00-1.46-.06h-1.72a6.66 6.66 0 004.29 3 4.44 4.44 0 00-.63 1.11 7.7 7.7 0 01-4.44-3.65c-.63 1.73-1.83 2.76-4.22 3.65a3.05 3.05 0 00-.69-1 6.85 6.85 0 002.51-1.09 3.89 3.89 0 001.47-2H631a13.18 13.18 0 00-1.36.06 9 9 0 000-.93v-1.87a9.21 9.21 0 000-1 10.58 10.58 0 001.3 0h1.94V307h-.65c-.61 0-.85 0-1.3.05zm-.21 2.88V311h1.95a16.39 16.39 0 00.18-1.81zm4-3.12a10.41 10.41 0 001 0 10.61 10.61 0 01-2.44-2.55 10.8 10.8 0 01-2.15 2.55h1zm-.88 3.12a12.83 12.83 0 01-.17 1.81h2.54v-1.81zm9.82 5.19a14.94 14.94 0 00.08 1.75h-1.28a15.1 15.1 0 00.09-1.86v-4.78c0-.87 0-1.1.05-1.8a10.1 10.1 0 01-1.26 2 3.57 3.57 0 00-.65-1.08 12.92 12.92 0 002.45-4.24 10.14 10.14 0 00.57-2.12l1.17.36c-.09.24-.18.5-.29.87a20.77 20.77 0 01-.93 2.43zm2.76-10.14a9.66 9.66 0 00-1.41.07v-1.17a11 11 0 001.53.09h6.59a11.72 11.72 0 001.56-.09v1.17a9.78 9.78 0 00-1.44-.07H650v1.36h2.52a8.51 8.51 0 001.34-.07 12.18 12.18 0 00-.06 1.56v2.55a12.56 12.56 0 00.06 1.56 7.16 7.16 0 00-1.23-.08h-2.94a5.48 5.48 0 01-.84 2.12 13 13 0 006 1.32 4.47 4.47 0 00-.45 1.18 13.06 13.06 0 01-6.22-1.68 8.79 8.79 0 01-3.47 1.85 3.79 3.79 0 00-.52-1 7.72 7.72 0 003.09-1.43 5.2 5.2 0 01-.59-.46l-.48-.42a4.1 4.1 0 00-.48-.42l.95-.63a8.44 8.44 0 001.33 1.17 3.94 3.94 0 00.63-1.58h-2.34a6.06 6.06 0 00-1.09.08 14.3 14.3 0 00.06-1.47V307c0-.67 0-1-.06-1.48a12.31 12.31 0 001.36.07H649v-1.39zm-.06 2.29v1.28h2.6v-1.28zm0 2.21v1.45h2.46c.06-.48.08-.78.11-1.45zm3.62 0c0 .67-.05 1-.11 1.45h2.9v-1.45zm.07-2.21v1.28h2.75v-1.28zm13.88-.22a13.5 13.5 0 01-1.62 1.15 5.05 5.05 0 00-.69-.91l.4-.23h-1.24a8.79 8.79 0 001.71 2.91 3.66 3.66 0 00-.6.95 12.88 12.88 0 01-1.25-2.46c0 .54.08 1.54.08 2.29v4.37a13 13 0 00.09 1.77h-1.25a13.3 13.3 0 00.09-1.77v-3.92c0-.64 0-1.36.08-2.25l-.18.62a13.44 13.44 0 01-1.5 3.67 3.59 3.59 0 00-.68-1.06 14.12 14.12 0 002.13-5.12h-.75a6.69 6.69 0 00-1 .06v-1.15a6.69 6.69 0 001 .06h.89v-1.35a9 9 0 00-.08-1.55h1.23a10 10 0 00-.07 1.53v1.37h.54a5.58 5.58 0 00.91-.06v1a9.66 9.66 0 003.54-3.67h1.22a7.55 7.55 0 001.71 2 10.34 10.34 0 002.94 1.85 4.06 4.06 0 00-.63 1.05 15.22 15.22 0 01-1.89-1.19v.86c-.39 0-.72-.05-1.31-.05h-.85v.66a5.34 5.34 0 010 .54h3.44v2.67a6.94 6.94 0 000 1.12 14 14 0 00-1.46-.06h-1.72a6.66 6.66 0 004.29 3 4.44 4.44 0 00-.63 1.11 7.7 7.7 0 01-4.44-3.65c-.63 1.73-1.83 2.76-4.22 3.65a3.05 3.05 0 00-.69-1 6.85 6.85 0 002.51-1.09 3.89 3.89 0 001.47-2H664a13.18 13.18 0 00-1.36.06 9 9 0 000-.93v-1.87a9.21 9.21 0 000-1 10.58 10.58 0 001.3 0h1.94V307h-.65c-.61 0-.85 0-1.3.05zm-.21 2.88V311h1.95a16.39 16.39 0 00.18-1.81zm4-3.12a10.41 10.41 0 001 0 10.61 10.61 0 01-2.44-2.55 10.8 10.8 0 01-2.15 2.55h1zm-.88 3.12a12.83 12.83 0 01-.17 1.81h2.54v-1.81zm13.44-5.58a5.94 5.94 0 00-.09-1.19h1.26a4.91 4.91 0 00-.09 1.17v.32h4.47a11.07 11.07 0 001.57-.09V305a12 12 0 00-1.57-.09h-3.51a11.36 11.36 0 005.64 3.08 5.11 5.11 0 00-.68 1.12 15.13 15.13 0 01-2.19-.93v6.32h1a9.43 9.43 0 001.58-.09v1.2a12.24 12.24 0 00-1.65-.09h-10.12a12.67 12.67 0 00-1.67.09v-1.2a11.11 11.11 0 001.61.09h.93v-6.39a14.19 14.19 0 01-2.07 1 3.7 3.7 0 00-.67-1 12.75 12.75 0 005.29-3.18H676a11.72 11.72 0 00-1.56.09v-1.18a11.07 11.07 0 001.62.09h4.19zm0 2.44v-.9a11.92 11.92 0 01-3.41 2.88h7.92a10.62 10.62 0 01-3.51-2.88c0 .09 0 .39.05.9v.63a4.53 4.53 0 00.07 1h-1.23a5.1 5.1 0 00.08-1zm-2.4 4.16h6.06V309h-6.06zm0 2.11h6.06v-1.17h-6.06zm0 2.18h6.06v-1.23h-6.06zm-70.1 15.39a6.68 6.68 0 00-.52 1.23 18 18 0 01-4.1 6.47 18.47 18.47 0 01-4.93 3.39 4.2 4.2 0 00-.92-1.28 14.18 14.18 0 007.43-6.48 13.82 13.82 0 001.56-3.82zm5.88 9.92v1.05h-1.38a11.25 11.25 0 00.06-1.47v-7.82a9.54 9.54 0 00-.06-1.35c.47 0 .81.05 1.5.05h7.58a13.72 13.72 0 001.48-.06 11.54 11.54 0 00-.06 1.36v7.8a13.43 13.43 0 00.06 1.49h-1.38v-1.05zm7.8-8.36h-7.8v7.17h7.8zm15.02-.18a3.44 3.44 0 001.32-.1l.69.67c-.14.26-.14.26-.35 1.62-.64 4-3 6.56-7.23 8a3.56 3.56 0 00-.82-1.25 9.58 9.58 0 003.28-1.39c2.12-1.41 3.21-3.39 3.51-6.38h-8v2c0 .51 0 1 .05 1.27h-1.46a9.6 9.6 0 00.06-1.3v-3.2a11.48 11.48 0 001.44.06h3.12v-1.29a6 6 0 00-.08-1.15h1.52a5.9 5.9 0 00-.09 1.14v1.3zm15.36 1.05a3.43 3.43 0 00-.48.48 24 24 0 01-2.87 2.51v5a8.7 8.7 0 00.08 1.44h-1.4a8.41 8.41 0 00.08-1.43V336a18.59 18.59 0 01-4.5 2 4 4 0 00-.65-1.09 15.05 15.05 0 003.53-1.34 17.28 17.28 0 004.26-3.09 4.56 4.56 0 00.85-1zm7.24-2.82a7.85 7.85 0 00-.09 1.32c-.12 4.16-.24 5.25-.79 6.77a9.41 9.41 0 01-2.58 3.78 3.71 3.71 0 00-1.08-1 7.19 7.19 0 002.47-3.43 20 20 0 00.66-6.32 8.38 8.38 0 000-1.18zm3.81-.18a8.87 8.87 0 00-.1 1.56l-.08 8.72a6.59 6.59 0 002.64-1.74 7.3 7.3 0 001.7-2.93 5.11 5.11 0 001 1 8.68 8.68 0 01-3.09 3.93 11 11 0 01-2.12 1.08l-.48.18-.36.16-.7-.78a3.51 3.51 0 00.1-1.18l.09-8.49v-.33a6.44 6.44 0 00-.07-1.23zm18.39 11.9a29.93 29.93 0 00-4.72-4.58 16.24 16.24 0 01-2.85 2.64 19.82 19.82 0 01-2.93 1.79 3.84 3.84 0 00-.87-1.19 14.58 14.58 0 005-3.36 15.64 15.64 0 003.33-4.92.67.67 0 01.09-.19v-.12l-5.1.09a11.05 11.05 0 00-1.72.12v-1.43a7.4 7.4 0 001.43.09h.33l5.19-.06a2.82 2.82 0 001.06-.13l.74.75a2.43 2.43 0 00-.44.75 19.52 19.52 0 01-2.41 4.17 37.83 37.83 0 015 4.41zm10.25-8.91a13.5 13.5 0 01-1.62 1.15 5.05 5.05 0 00-.69-.91l.4-.23h-1.24a8.79 8.79 0 001.71 2.91 3.66 3.66 0 00-.6.95 12.88 12.88 0 01-1.25-2.46c0 .54.08 1.54.08 2.29v4.37a13 13 0 00.09 1.77h-1.25a13.3 13.3 0 00.09-1.77v-3.92c0-.64 0-1.36.08-2.25l-.18.62a13.44 13.44 0 01-1.5 3.67 3.59 3.59 0 00-.68-1.06 14.12 14.12 0 002.13-5.12h-.75a6.69 6.69 0 00-1 .06v-1.15a6.69 6.69 0 001 .06h.89v-1.35a9 9 0 00-.08-1.55h1.23a10 10 0 00-.07 1.53v1.37h.54a5.58 5.58 0 00.91-.06v1a9.66 9.66 0 003.54-3.67h1.22a7.55 7.55 0 001.71 2 10.34 10.34 0 002.94 1.85 4.06 4.06 0 00-.63 1.05 15.22 15.22 0 01-1.89-1.19v.86c-.39 0-.72-.05-1.31-.05h-.85v.66a5.34 5.34 0 010 .54h3.44v2.67a6.94 6.94 0 000 1.12 14 14 0 00-1.46-.06h-1.72a6.66 6.66 0 004.29 3 4.44 4.44 0 00-.63 1.11 7.7 7.7 0 01-4.44-3.65c-.63 1.73-1.83 2.76-4.22 3.65a3.05 3.05 0 00-.69-1 6.85 6.85 0 002.51-1.09 3.89 3.89 0 001.47-2h-1.43a13.18 13.18 0 00-1.36.06 9 9 0 000-.93v-1.87a9.21 9.21 0 000-1 10.58 10.58 0 001.3 0h1.94V333h-.65c-.61 0-.85 0-1.3.05zm-.21 2.88V337h2a16.39 16.39 0 00.18-1.81zm4-3.12a10.41 10.41 0 001 0 10.61 10.61 0 01-2.44-2.55 10.8 10.8 0 01-2.15 2.55h1zm-.88 3.12a12.83 12.83 0 01-.17 1.81h2.54v-1.81zm13.44-5.58a5.94 5.94 0 00-.09-1.19H709a4.91 4.91 0 00-.09 1.17v.32h4.47a11.07 11.07 0 001.57-.09V331a12 12 0 00-1.57-.09h-3.51a11.36 11.36 0 005.64 3.08 5.11 5.11 0 00-.68 1.12 15.13 15.13 0 01-2.19-.93v6.32h1a9.43 9.43 0 001.58-.09v1.2a12.24 12.24 0 00-1.65-.09h-10.1a12.67 12.67 0 00-1.67.09v-1.2a11.11 11.11 0 001.61.09h.93v-5c0-.6 0-1-.05-1.39a14.19 14.19 0 01-2.07 1 3.7 3.7 0 00-.67-1 12.75 12.75 0 005.29-3.18h-3.24a11.72 11.72 0 00-1.6.07v-1.18a11.07 11.07 0 001.62.09h4.19zm0 2.44v-.9a11.92 11.92 0 01-3.41 2.88h7.94a10.62 10.62 0 01-3.51-2.88v1.53a4.53 4.53 0 00.07 1h-1.23a5.1 5.1 0 00.08-1zm-2.4 4.16h6.06V335h-6.06zm0 2.11h6.06v-1.17h-6.06zm0 2.18h6.06v-1.23h-6.06zm-72.86 26.43a10.22 10.22 0 00-.45-1.54l-.73-1.86h-5.12l-.72 1.86a7.55 7.55 0 00-.46 1.54h-1.82a12.72 12.72 0 00.8-1.74l3.34-8.4a7.72 7.72 0 00.48-1.42h1.83a11.17 11.17 0 00.51 1.42l3.36 8.4a13.73 13.73 0 00.8 1.74zm-3.43-9.43l-.32-.93-.16.49c-.08.21-.12.36-.15.44l-1.82 4.8H631zm11.1 7.66a10.11 10.11 0 00.12 1.77h-1.65a11.48 11.48 0 00.12-1.77v-8.53h-2.25a12.65 12.65 0 00-1.82.1v-1.47a11.46 11.46 0 001.8.11h5.87a10.92 10.92 0 001.9-.11v1.47a13 13 0 00-1.9-.1h-2.19zm6.91 1.77a10 10 0 00.12-1.75v-8.09a11.61 11.61 0 00-.12-1.77c.54 0 1 .05 1.71.05H652c2.42 0 3.75 1.21 3.75 3.37s-1.39 3.59-3.82 3.59h-3.21v2.83a10 10 0 00.12 1.77zm4.73-5.83a2.12 2.12 0 002.37-2.3c0-1.44-.81-2.2-2.37-2.2h-3.21v4.5zm12.79-2.79a12.74 12.74 0 01-1.62 1.15 4.63 4.63 0 00-.69-.91l.41-.23h-1.25a8.79 8.79 0 001.71 2.91 3.94 3.94 0 00-.6.95 12.31 12.31 0 01-1.24-2.46c0 .54.07 1.54.07 2.29v4.37a13 13 0 00.09 1.77h-1.24a13.3 13.3 0 00.09-1.77v-3.92c0-.64 0-1.36.07-2.25-.07.27-.13.48-.18.62a12.84 12.84 0 01-1.5 3.67 3.4 3.4 0 00-.67-1.06 14.29 14.29 0 002.13-5.12h-.75a6.6 6.6 0 00-1 .06v-1.15a6.6 6.6 0 001 .06h.88v-1.35a9.33 9.33 0 00-.07-1.55h1.23a9.73 9.73 0 00-.08 1.53v1.37h.52a5.8 5.8 0 00.92-.06v1a9.73 9.73 0 003.54-3.67h1.21a7.75 7.75 0 001.71 2 10.49 10.49 0 002.94 1.85 4.06 4.06 0 00-.63 1.05 16 16 0 01-1.89-1.19v.86c-.39 0-.72-.05-1.3-.05h-.86v1.2h3.43v2.67a8.66 8.66 0 000 1.12 13.61 13.61 0 00-1.45-.06h-1.72a6.69 6.69 0 004.29 3 4.77 4.77 0 00-.63 1.11 7.77 7.77 0 01-4.44-3.65c-.63 1.73-1.83 2.76-4.21 3.65a3.05 3.05 0 00-.69-1 6.79 6.79 0 002.5-1.09 3.78 3.78 0 001.47-2h-1.42a13.39 13.39 0 00-1.37.06 8.85 8.85 0 00.05-.93v-1.87a8.89 8.89 0 00-.05-1 10.77 10.77 0 001.31 0h1.93V359H666c-.62 0-.86 0-1.31.05zm-.21 2.88V363h1.95a14.27 14.27 0 00.18-1.81zm4-3.12h1.05a10.46 10.46 0 01-2.45-2.55A10.54 10.54 0 01665 358h1zm-.89 3.12a13 13 0 01-.16 1.81H670v-1.81zm13.41-5.58a5.28 5.28 0 00-.09-1.19h1.26a5.5 5.5 0 00-.09 1.17v.32h4.47a11.22 11.22 0 001.58-.09V357a12.15 12.15 0 00-1.58-.09h-3.51a11.41 11.41 0 005.64 3.08 4.74 4.74 0 00-.67 1.12 14.66 14.66 0 01-2.19-.93c0 .32-.05.93-.05 1.5v4.82h1a9.3 9.3 0 001.57-.09v1.2a12.14 12.14 0 00-1.65-.09h-10.03a12.51 12.51 0 00-1.66.09v-1.2a11 11 0 001.6.09h.93v-6.39a14.69 14.69 0 01-2.07 1 3.74 3.74 0 00-.68-1 12.72 12.72 0 005.3-3.18h-3.28a11.62 11.62 0 00-1.56.09v-1.18a10.89 10.89 0 001.62.09H681zm0 2.44v-.9a11.74 11.74 0 01-3.4 2.88h7.92a10.52 10.52 0 01-3.51-2.88v1.53a4.47 4.47 0 00.08 1H681a6.25 6.25 0 00.07-1zm-2.4 4.16h6.06V361h-6.06zm0 2.11h6.06v-1.17h-6.06zm0 2.18h6.06v-1.23h-6.06zm-67.14 17.94a9 9 0 00-1.2.08v-1.19a7.42 7.42 0 001.2.09h.77v-1.33a9.67 9.67 0 00-.1-1.52h1.32a9.15 9.15 0 00-.1 1.5v1.35h.24a6.53 6.53 0 001-.06v1.14a8.57 8.57 0 00-1-.06h-.21v2.93c.44-.17.66-.27 1.31-.56v1.07l-1.31.57v4.29c0 .9-.4 1.18-1.66 1.18a10 10 0 01-1.19-.07 3.74 3.74 0 00-.25-1.11 8.54 8.54 0 001.39.13c.47 0 .59-.07.59-.42v-3.58l-.77.27a5.12 5.12 0 00-.52.18l-.28.09-.3.13-.23-1.2a9.69 9.69 0 002.1-.57v-3.33zm4.7 3a8.72 8.72 0 00-1.07.06v-1.12a6.35 6.35 0 001.17.07h2a6.77 6.77 0 001.09-.06v1.1a7.69 7.69 0 00-1-.05h-.71v3.6c.76-.21 1-.29 2-.6v1a41.14 41.14 0 01-4.53 1.26c-.33.08-.49.11-.7.18l-.24-1.21a13.49 13.49 0 002.34-.38v-3.9zm.39-3.1c-.6 0-1.08 0-1.53.07v-1.2a14.31 14.31 0 001.53.08h3v-1.61a6.32 6.32 0 00-.08-1.05h1.29a7.73 7.73 0 00-.07 1.56v1.1h1.49a8.64 8.64 0 001.41-.09v1.23a11.78 11.78 0 00-1.53-.09h-1.35a23.69 23.69 0 00.82 5.94 7.17 7.17 0 00.9 2c.09.1.15.16.18.16a6.18 6.18 0 00.24-2.25 3.1 3.1 0 001 .63 8.8 8.8 0 01-.3 2.15c-.2.63-.45.91-.84.91-.71 0-1.44-.91-2-2.59a22.94 22.94 0 01-1.08-6.93zm5.44-3.63a10.49 10.49 0 011.28 1.83l-.84.58a8.6 8.6 0 00-1.25-1.89zm5.48 2.33h1.22a28.55 28.55 0 003.42-.19c-.32-.8-.74-1.76-.86-2l1.33-.21a11.83 11.83 0 00.74 2 19.51 19.51 0 004-1l.11 1.17c-1.15.3-3 .69-3.74.81a17.07 17.07 0 00.78 1.55 16.53 16.53 0 003.45-.92l.14 1.22c-.33.06-.33.06-2 .46-.23.06-.49.11-1.14.24a16.24 16.24 0 002.13 2.91l-1 .72a7.27 7.27 0 00-3.58-.67c-2.11 0-3.43.61-3.43 1.59s1.09 1.44 3.07 1.44a10.59 10.59 0 004.5-1l.24 1.35-.93.25a13.65 13.65 0 01-3.84.54 6.09 6.09 0 01-3.25-.66 2.2 2.2 0 01-1.14-1.92 2.26 2.26 0 011.23-1.93 6.62 6.62 0 013.42-.72 9.26 9.26 0 012.89.4 13.09 13.09 0 01-1.47-2.13 35 35 0 01-5.26.44 5.93 5.93 0 00-1.1.06v-1.22a8.3 8.3 0 001.29.06 32.15 32.15 0 004.59-.34c-.33-.62-.33-.62-.76-1.56a35.54 35.54 0 01-4 .25 7 7 0 00-1 0zm15.3-1a6.69 6.69 0 00-1.15.07v-1.17a8.77 8.77 0 001.21.08h4.67a9.83 9.83 0 001.2-.06v1h4.99a9.14 9.14 0 001.15-.06c0 .15-.07.41-.13.87a17.91 17.91 0 01-2.31 6.93 9.06 9.06 0 003.15 2.87 5.36 5.36 0 00-.67 1.21 11.53 11.53 0 01-3.16-3 12 12 0 01-3.22 3.06 3.94 3.94 0 00-.69-1.13 10 10 0 003.27-3 14.68 14.68 0 01-1.32-3.19 18.92 18.92 0 01-.64-3.5 5.83 5.83 0 00-.82.08V382h-.66v10.5a9.24 9.24 0 00.1 1.58h-1.28a12.71 12.71 0 00.09-1.58v-1.66c-.92.28-2.37.66-3.31.85a14.5 14.5 0 00-1.45.35l-.33-1.25a7.79 7.79 0 001.31-.16zm1.11 2.05h2.67V382h-2.67zm0 3h2.67v-2h-2.67zm0 3.42a26.72 26.72 0 002.67-.63V388h-2.67zm6.32-7.47a17.43 17.43 0 00.59 3.2 13.09 13.09 0 001 2.43 15.18 15.18 0 001.77-5.63zm10.38 3c0-.11 0-.11.1-.41a6.42 6.42 0 01.9-2.1 3.59 3.59 0 013-1.81A2.91 2.91 0 01667 383a7.09 7.09 0 01-2.64 9.72 12 12 0 01-2.74.87 3.92 3.92 0 00-.68-1.23 8 8 0 003.12-.91c1.76-1 2.56-2.51 2.56-4.88s-.8-3.67-2.21-3.67c-1.07 0-2 .84-2.85 2.5a7.31 7.31 0 00-.83 3.35v.36h-1.29a1.31 1.31 0 000-.17v-2.22a36.41 36.41 0 01.5-5.55 2.8 2.8 0 000-.48l1.38.11a16.63 16.63 0 00-.6 3.36c-.14.94-.17 1.27-.21 1.8zm17.79-1.73a14.35 14.35 0 01-1.62 1.15 5.05 5.05 0 00-.69-.91l.4-.23h-1.24a8.79 8.79 0 001.71 2.91 3.66 3.66 0 00-.6.95 12.88 12.88 0 01-1.25-2.46c0 .54.08 1.54.08 2.29v4.37a13 13 0 00.09 1.77H674a13.3 13.3 0 00.09-1.77v-3.92c0-.64 0-1.36.08-2.25l-.18.62a13.44 13.44 0 01-1.5 3.67 3.59 3.59 0 00-.68-1.06 14.12 14.12 0 002.13-5.12h-.75a6.69 6.69 0 00-1 .06v-1.15a6.69 6.69 0 001 .06h.89v-1.35a9 9 0 00-.08-1.55h1.23a10 10 0 00-.07 1.53v1.37h.54a5.58 5.58 0 00.91-.06v1a9.73 9.73 0 003.54-3.67h1.22a7.37 7.37 0 001.71 2 10.43 10.43 0 002.93 1.85 4.36 4.36 0 00-.63 1.05 15.85 15.85 0 01-1.88-1.19v.86c-.39 0-.72-.05-1.31-.05h-.86v1.2h3.43v2.67a8.66 8.66 0 000 1.12 13.61 13.61 0 00-1.45-.06h-1.72a6.66 6.66 0 004.29 3 4.15 4.15 0 00-.63 1.11 7.76 7.76 0 01-4.45-3.65c-.62 1.73-1.83 2.76-4.21 3.65a3.05 3.05 0 00-.69-1 6.85 6.85 0 002.51-1.09 3.89 3.89 0 001.47-2h-1.43a13.18 13.18 0 00-1.36.06 9 9 0 000-.93v-1.87a9.21 9.21 0 000-1 10.58 10.58 0 001.3 0h1.94V385h-.65c-.61 0-.85 0-1.3.05zm-.21 2.88V389h2a16.39 16.39 0 00.18-1.81zm4-3.12h1a10.84 10.84 0 01-2.45-2.55 10.54 10.54 0 01-2.14 2.55h1zm-.88 3.12a12.83 12.83 0 01-.17 1.81h2.53v-1.81zm13.43-5.58a6 6 0 00-.08-1.19h1.26a4.85 4.85 0 00-.1 1.17v.32h4.47a11.12 11.12 0 001.58-.09V383a12 12 0 00-1.58-.09h-3.51a11.45 11.45 0 005.64 3.08 4.74 4.74 0 00-.67 1.12 15.13 15.13 0 01-2.19-.93v6.32h1a9.5 9.5 0 001.58-.09v1.2a12.24 12.24 0 00-1.65-.09h-10.12a12.67 12.67 0 00-1.67.09v-1.2a11.11 11.11 0 001.61.09h.93v-5c0-.6 0-1-.05-1.39a14.19 14.19 0 01-2.07 1 3.7 3.7 0 00-.67-1 12.75 12.75 0 005.29-3.18h-3.24a11.72 11.72 0 00-1.56.09v-1.18a11.07 11.07 0 001.62.09h4.18zm0 2.44v-.9a11.92 11.92 0 01-3.41 2.88h7.92a10.62 10.62 0 01-3.51-2.88 8.3 8.3 0 010 .9v.63a4.47 4.47 0 00.08 1h-1.23a5.21 5.21 0 00.07-1zm-2.39 4.16h6.06V387h-6.06zm0 2.11h6.06v-1.17h-6.06zm0 2.18h6.06v-1.23h-6.06zm99.54-89.16a9.09 9.09 0 00-.08 1.54l-.06 8.75A11 11 0 00796 312a8.92 8.92 0 003.28-3.55 4.29 4.29 0 001 1.12c-2 3.09-4.35 4.53-8.41 5.33a3.69 3.69 0 00-.89.22l-.7-.87a3.82 3.82 0 00.12-1.12v-8.3a8.66 8.66 0 00-.06-1.57zm15.28 5.02a4.33 4.33 0 00-.13.42 14.45 14.45 0 01-2.67 5.72 4 4 0 00-1.22-.74 9.88 9.88 0 002.18-3.72 8.14 8.14 0 00.51-2zm1.94-3.78A8.28 8.28 0 00809 303h1.47a10.07 10.07 0 00-.08 1.57v.93H814a12.23 12.23 0 001.84-.1v1.35a15.05 15.05 0 00-1.81-.08h-3.65V314a11.39 11.39 0 00.08 1.69H809a10.09 10.09 0 00.09-1.69v-7.34h-3.56a14.66 14.66 0 00-1.8.08v-1.34a12.38 12.38 0 001.82.1h3.54zm4.47 3.44a11.22 11.22 0 00.55 1.69 12.94 12.94 0 002.27 4 4.86 4.86 0 00-1.17.8 17.81 17.81 0 01-2.3-4.46l-.31-.93q0-.11-.12-.36a2.39 2.39 0 00-.17-.43zm3-4.5a1.57 1.57 0 11-1.56-1.56 1.57 1.57 0 011.57 1.56zm-2.47 0a.9.9 0 00.91.9.9.9 0 10-.91-.9zm5.63 4.93a16.42 16.42 0 002.07.09h8.43a11.82 11.82 0 002-.09v1.49a17.33 17.33 0 00-2-.08h-8.4a16.18 16.18 0 00-2.09.08zm18 7.01a10.12 10.12 0 00.09-1.74v-9.14a8 8 0 00-.09-1.65h1.52a11.9 11.9 0 00-.08 1.7v2.67a39.41 39.41 0 016.71 3.16l-.75 1.31a32 32 0 00-5.53-2.94 3.29 3.29 0 01-.49-.26 8.2 8.2 0 01.06 1.23v3.92a13.31 13.31 0 00.08 1.74zm20-5.42h-2.63a9.28 9.28 0 00-1.2.06v-.76c-.69.34-.81.39-1.42.66v4.8c0 .91-.36 1.18-1.58 1.18-.27 0-.7 0-1.2-.06a3.75 3.75 0 00-.24-1.12 8.92 8.92 0 001.37.12c.42 0 .54-.09.54-.44v-4c-1.29.5-1.29.5-1.74.71l-.27-1.2a8.32 8.32 0 002-.63v-3h-.8a7.27 7.27 0 00-1.11.07v-1.18a7.08 7.08 0 001.13.09h.78V304a8.72 8.72 0 00-.09-1.52h1.29a7.6 7.6 0 00-.09 1.5v1.34h.61a6.64 6.64 0 001-.06v1.12a9 9 0 00-1 0h-.63v2.56c.69-.3.9-.39 1.53-.7v.76a9.94 9.94 0 001.18.06h6.24a8.12 8.12 0 001.34-.09v1.14a8.76 8.76 0 00-1.34-.08h-2.58v1.59h2a7.41 7.41 0 001.32-.07v1.09a7.82 7.82 0 00-1.32-.07h-2v2a11.57 11.57 0 001.85.12c.78 0 1.54 0 2.41-.11a3.7 3.7 0 00-.31 1.16h-1.43c-3.43 0-4.72-.45-6.07-2.12a9.67 9.67 0 01-1.7 2.49 3.11 3.11 0 00-.9-.73 7.29 7.29 0 001.94-2.85 6.28 6.28 0 00.46-1.85l1.14.27c-.1.3-.1.3-.18.56-.15.52-.24.81-.34 1.09a4 4 0 002 1.68zm-1.65-2h-1.32v-5.08a13.69 13.69 0 001.41.06h4.2a13.24 13.24 0 001.42-.06 9.7 9.7 0 00-.06 1.23v2.46a12.43 12.43 0 00.06 1.39h-1.45zm-.21-3h4.78v-1h-4.78zm0 2h4.78v-1h-4.78zm15.76-3.15a6.73 6.73 0 00-.1-1.39h1.41a6.48 6.48 0 00-.11 1.39v3.66h3.74v-2.74a9.53 9.53 0 00-.06-1.11h1.32a7.71 7.71 0 00-.08 1.18v3.81h-5V314h4.25v-2.76a7.72 7.72 0 00-.08-1.28h1.34a8.61 8.61 0 00-.08 1.37v3.34a7.7 7.7 0 00.09 1.32h-1.27v-.85h-9.51v.85h-1.28a8.2 8.2 0 00.09-1.32v-3.27a8.87 8.87 0 00-.07-1.36h1.33a7.57 7.57 0 00-.07 1.29V314h4.06v-5.33h-4.7v-3.81a11.76 11.76 0 00-.07-1.21h1.32a7.3 7.3 0 00-.06 1.14v2.71h3.46z" fill="#443b38"/><path class="cls-7" d="M123.18 95a78.47 78.47 0 11-78.47 78.5A78.47 78.47 0 01123.18 95zm0 2.58a4.48 4.48 0 104.47 4.47 4.48 4.48 0 00-4.47-4.47zm0 11.17a64.72 64.72 0 1064.72 64.75 64.71 64.71 0 00-64.72-64.72z"/><path class="cls-8" d="M300.82 95a78.47 78.47 0 11-78.47 78.47A78.47 78.47 0 01300.82 95zm0 2.58a4.48 4.48 0 104.48 4.47 4.47 4.47 0 00-4.48-4.47zm0 11.17a64.72 64.72 0 1064.72 64.72 64.72 64.72 0 00-64.72-64.72z"/><path class="cls-9" d="M478.47 95A78.47 78.47 0 11400 173.5 78.47 78.47 0 01478.47 95zm0 2.58a4.48 4.48 0 104.47 4.47 4.48 4.48 0 00-4.47-4.47zm0 11.17a64.72 64.72 0 1064.72 64.72 64.71 64.71 0 00-64.72-64.72z"/><path class="cls-10" d="M656.11 95a78.47 78.47 0 11-78.47 78.47A78.47 78.47 0 01656.11 95zm0 2.58a4.48 4.48 0 104.48 4.47 4.47 4.47 0 00-4.48-4.47zm0 11.17a64.72 64.72 0 1064.72 64.72 64.72 64.72 0 00-64.72-64.72z"/><path class="cls-11" d="M833.76 95a78.47 78.47 0 11-78.47 78.47A78.47 78.47 0 01833.76 95zm0 2.58a4.48 4.48 0 104.47 4.47 4.47 4.47 0 00-4.47-4.47zm0 11.17a64.72 64.72 0 1064.71 64.72 64.71 64.71 0 00-64.71-64.72z"/><path class="cls-12" d="M87.79 28.51a1.72 1.72 0 110-3.43h3.44a1.72 1.72 0 010 3.43zm-68.74 0a1.72 1.72 0 110-3.43h3.43a1.72 1.72 0 110 3.43zm13.75 0a1.72 1.72 0 110-3.43h3.43a1.72 1.72 0 110 3.43zm13.74 0a1.72 1.72 0 010-3.43H50a1.72 1.72 0 110 3.43zm13.75 0a1.72 1.72 0 110-3.43h3.44a1.72 1.72 0 110 3.43zm13.75 0a1.72 1.72 0 110-3.43h3.44a1.72 1.72 0 110 3.43zm47.42 28.54a1.72 1.72 0 013.44 0v3.44a1.72 1.72 0 11-3.44 0v-3.44zm0 27.5a1.72 1.72 0 113.44 0V88a1.72 1.72 0 11-3.44 0v-3.45zm0-13.75a1.72 1.72 0 113.44 0v3.44a1.72 1.72 0 11-3.44 0V70.8z"/><path class="cls-13" d="M0 34.92l8.14-8.14L0 18.64v16.28z"/><path class="cls-12" d="M264.75 28.51a1.72 1.72 0 110-3.43h3.43a1.72 1.72 0 110 3.43zm-109.91 0a1.72 1.72 0 110-3.43h3.44a1.72 1.72 0 110 3.43zm13.75 0a1.72 1.72 0 110-3.43H172a1.72 1.72 0 110 3.43zm13.75 0a1.72 1.72 0 110-3.43h3.44a1.72 1.72 0 010 3.43zm13.66 0a1.72 1.72 0 010-3.43h3.44a1.72 1.72 0 110 3.43zm13.75 0a1.72 1.72 0 110-3.43h3.44a1.72 1.72 0 110 3.43zm13.75 0a1.72 1.72 0 110-3.43h3.44a1.72 1.72 0 110 3.43zm13.75 0a1.72 1.72 0 110-3.43h3.44a1.72 1.72 0 110 3.43zm13.75 0a1.72 1.72 0 110-3.43h3.43a1.72 1.72 0 110 3.43zm48.1 28.54a1.72 1.72 0 013.44 0v3.44a1.72 1.72 0 01-3.44 0v-3.44zm0 27.5a1.72 1.72 0 013.44 0V88a1.72 1.72 0 01-3.44 0v-3.45zm0-13.75a1.72 1.72 0 013.44 0v3.44a1.72 1.72 0 01-3.44 0V70.8zm177.65-13.75a1.72 1.72 0 013.44 0v3.44a1.72 1.72 0 11-3.44 0v-3.44zm0 27.5a1.72 1.72 0 113.44 0V88a1.72 1.72 0 11-3.44 0v-3.45zm0-13.75a1.72 1.72 0 113.44 0v3.44a1.72 1.72 0 11-3.44 0V70.8zm-34.3-42.29a1.72 1.72 0 110-3.43h3.44a1.72 1.72 0 110 3.43zm-109.9 0a1.72 1.72 0 110-3.43H336a1.72 1.72 0 110 3.43zm13.75 0a1.72 1.72 0 110-3.43h3.44a1.72 1.72 0 010 3.43zm13.75 0a1.72 1.72 0 110-3.43h3.43a1.72 1.72 0 110 3.43zm13.66 0a1.72 1.72 0 110-3.43h3.44a1.72 1.72 0 110 3.43zm13.75 0a1.72 1.72 0 110-3.43h3.44a1.72 1.72 0 110 3.43zm13.75 0a1.72 1.72 0 110-3.43h3.44a1.72 1.72 0 010 3.43zm13.75 0a1.72 1.72 0 110-3.43h3.43a1.72 1.72 0 110 3.43zm13.75 0a1.72 1.72 0 110-3.43h3.43a1.72 1.72 0 110 3.43zm225.68 28.54a1.72 1.72 0 013.44 0v3.44a1.72 1.72 0 11-3.44 0v-3.44zm0 27.5a1.72 1.72 0 113.44 0V88a1.72 1.72 0 11-3.44 0v-3.45zm0-13.75a1.72 1.72 0 113.44 0v3.44a1.72 1.72 0 11-3.44 0V70.8zm-34.12-42.29a1.72 1.72 0 110-3.43h3.43a1.72 1.72 0 110 3.43zm-109.91 0a1.72 1.72 0 110-3.43h3.44a1.72 1.72 0 110 3.43zm13.75 0a1.72 1.72 0 110-3.43h3.44a1.72 1.72 0 110 3.43zm13.75 0a1.72 1.72 0 110-3.43h3.44a1.72 1.72 0 010 3.43zm13.67 0a1.72 1.72 0 110-3.43H555a1.72 1.72 0 110 3.43zm13.74 0a1.72 1.72 0 110-3.43h3.44a1.72 1.72 0 110 3.43zm13.75 0a1.72 1.72 0 110-3.43h3.44a1.72 1.72 0 110 3.43zm13.75 0a1.72 1.72 0 110-3.43h3.44a1.72 1.72 0 110 3.43zm13.75 0a1.72 1.72 0 110-3.43H610a1.72 1.72 0 010 3.43zM832 57.05a1.72 1.72 0 013.44 0v3.44a1.72 1.72 0 01-3.44 0v-3.44zm0 27.5a1.72 1.72 0 013.44 0V88a1.72 1.72 0 01-3.44 0v-3.45zm0-13.75a1.72 1.72 0 013.44 0v3.44a1.72 1.72 0 01-3.44 0V70.8zm-34.31-42.29a1.72 1.72 0 010-3.43h3.44a1.72 1.72 0 110 3.43zm-109.9 0a1.72 1.72 0 110-3.43h3.44a1.72 1.72 0 110 3.43zm13.75 0a1.72 1.72 0 110-3.43H705a1.72 1.72 0 110 3.43zm13.75 0a1.72 1.72 0 110-3.43h3.43a1.72 1.72 0 110 3.43zm13.66 0a1.72 1.72 0 110-3.43h3.44a1.72 1.72 0 110 3.43zm13.75 0a1.72 1.72 0 110-3.43h3.44a1.72 1.72 0 110 3.43zm13.75 0a1.72 1.72 0 110-3.43h3.44a1.72 1.72 0 010 3.43zm13.75 0a1.72 1.72 0 110-3.43h3.43a1.72 1.72 0 110 3.43zm13.75 0a1.72 1.72 0 110-3.43h3.43a1.72 1.72 0 110 3.43zm152.73 0a1.72 1.72 0 110-3.43h3.43a1.72 1.72 0 110 3.43zm-68.74 0a1.72 1.72 0 110-3.43h3.43a1.72 1.72 0 110 3.43zm13.74 0a1.72 1.72 0 110-3.43h3.44a1.72 1.72 0 110 3.43zm13.75 0a1.72 1.72 0 110-3.43h3.44a1.72 1.72 0 110 3.43zm13.75 0a1.72 1.72 0 110-3.43h3.44a1.72 1.72 0 110 3.43zm13.75 0a1.72 1.72 0 110-3.43h3.43a1.72 1.72 0 110 3.43z"/><path class="cls-13" d="M951.86 34.92l8.14-8.14-8.14-8.14v16.28z"/><path class="cls-14" d="M123.18 4.41a21.7 21.7 0 11-21.7 21.7 21.7 21.7 0 0121.7-21.7z"/><path class="cls-7" d="M123.18 0a26.11 26.11 0 11-26.11 26.11A26.11 26.11 0 01123.18 0zm0 2.58a23.53 23.53 0 1023.53 23.53 23.52 23.52 0 00-23.53-23.53z"/><path class="cls-15" d="M300.82 4.41a21.7 21.7 0 11-21.69 21.7 21.71 21.71 0 0121.69-21.7z"/><path class="cls-8" d="M300.82 0a26.11 26.11 0 11-26.11 26.11A26.11 26.11 0 01300.82 0zm0 2.58a23.53 23.53 0 1023.53 23.53 23.53 23.53 0 00-23.53-23.53z"/><path class="cls-16" d="M478.47 4.41a21.7 21.7 0 11-21.7 21.7 21.7 21.7 0 0121.7-21.7z"/><path class="cls-9" d="M478.47 0a26.11 26.11 0 11-26.11 26.11A26.11 26.11 0 01478.47 0zm0 2.58A23.53 23.53 0 10502 26.11a23.52 23.52 0 00-23.53-23.53z"/><path class="cls-17" d="M656.11 4.41a21.7 21.7 0 11-21.69 21.7 21.7 21.7 0 0121.69-21.7z"/><path class="cls-10" d="M656.11 0A26.11 26.11 0 11630 26.11 26.11 26.11 0 01656.11 0zm0 2.58a23.53 23.53 0 1023.53 23.53 23.52 23.52 0 00-23.53-23.53z"/><path class="cls-18" d="M833.76 4.41a21.7 21.7 0 11-21.7 21.7 21.7 21.7 0 0121.7-21.7z"/><path class="cls-11" d="M833.76 0a26.11 26.11 0 11-26.11 26.11A26.12 26.12 0 01833.76 0zm0 2.58a23.53 23.53 0 1023.53 23.53 23.52 23.52 0 00-23.53-23.53z"/><path class="cls-14" d="M123.18 275.17a4.48 4.48 0 104.47 4.47 4.48 4.48 0 00-4.47-4.47z"/><path class="cls-15" d="M300.82 275.17a4.48 4.48 0 104.48 4.47 4.47 4.47 0 00-4.48-4.47z"/><path class="cls-16" d="M478.47 275.17a4.48 4.48 0 104.47 4.47 4.48 4.48 0 00-4.47-4.47z"/><path class="cls-17" d="M656.11 275.17a4.48 4.48 0 104.48 4.47 4.47 4.47 0 00-4.48-4.47z"/><path class="cls-18" d="M833.76 275.17a4.48 4.48 0 104.47 4.47 4.47 4.47 0 00-4.47-4.47z"/><path d="M129.36 30.9v3.52h-11.81V30.9h4.13v-8.82a3.23 3.23 0 01-.83.71 11.12 11.12 0 01-1.24.68 8.2 8.2 0 01-1.38.53 4.94 4.94 0 01-1.27.2v-3.63a3.43 3.43 0 001.29-.34 11.25 11.25 0 001.48-.8 13.14 13.14 0 001.27-.92 3.43 3.43 0 00.68-.71h4v13.1zm164.45 3.66a13.18 13.18 0 01.2-2.37 6.39 6.39 0 012.11-3.65 12.14 12.14 0 012.26-1.54c.79-.43 1.5-.8 2.11-1.12s1.12-.62 1.53-.89a4.07 4.07 0 00.93-.83 1.6 1.6 0 00.32-1 1.94 1.94 0 00-.7-1.49 2.92 2.92 0 00-2-.63 4 4 0 00-1.28.19 4.72 4.72 0 00-1.09.51 6 6 0 00-.93.71 7.5 7.5 0 00-.77.83l-2.5-2.86a6.82 6.82 0 011.08-.89 10.41 10.41 0 011.64-.9 12.61 12.61 0 012.1-.7 10.78 10.78 0 012.46-.27 9 9 0 012.65.36 5.69 5.69 0 012 1 4.34 4.34 0 011.22 1.57 4.71 4.71 0 01.43 2 4.18 4.18 0 01-.38 1.81 5.73 5.73 0 01-1 1.39 7.14 7.14 0 01-1.27 1.07c-.46.3-.9.56-1.32.8l-1.2.67c-.44.25-.88.52-1.32.82a13.33 13.33 0 00-1.21.94 4.15 4.15 0 00-.88.91h8.82v3.52zm187.76-9.08a4.68 4.68 0 012.92 1.73 5.37 5.37 0 011.12 3.45 5.6 5.6 0 01-.54 2.48 5.36 5.36 0 01-1.51 1.86 7.14 7.14 0 01-2.37 1.2 10.92 10.92 0 01-3.15.42 10.17 10.17 0 01-3.91-.71 7.33 7.33 0 01-2.84-2.09l2.21-2.76a5.23 5.23 0 001.81 1.48 5.82 5.82 0 002.62.53 4.47 4.47 0 002.71-.7 2.52 2.52 0 00.93-2.15 2.74 2.74 0 00-1.08-2.33 5.39 5.39 0 00-3.26-.82h-.81v-2.9h.9a4.29 4.29 0 002.79-.8 2.51 2.51 0 001-2.05 2 2 0 00-.81-1.77 3.6 3.6 0 00-2.13-.59 4.72 4.72 0 00-4.17 2.33l-2.45-2.73a4.77 4.77 0 011.17-1.21 7.86 7.86 0 011.64-.93 9.94 9.94 0 012-.61 10.69 10.69 0 012.21-.22 8.81 8.81 0 012.7.38 6.82 6.82 0 012.11 1 4.52 4.52 0 011.85 3.73 5.39 5.39 0 01-.23 1.7 4.63 4.63 0 01-.76 1.42 4.5 4.5 0 01-1.18 1.08 3.93 3.93 0 01-1.49.58zm174.32 10.78v-4.33h-8.5v-3.46L657.14 16h2.65v12.44h2.56v3.49h-2.56v4.33zm-4.6-7.82h5v-6.58l-5 6.58zM834.16 23a7.54 7.54 0 012.71.48A6.34 6.34 0 01839 24.8a6.08 6.08 0 011.41 2.09 7 7 0 01.51 2.71 6.91 6.91 0 01-.57 2.85 6.22 6.22 0 01-1.58 2.2 7.29 7.29 0 01-2.42 1.43 8.7 8.7 0 01-3 .5 8.45 8.45 0 01-4.06-1 6.65 6.65 0 01-2.72-2.58l2.24-2.33a6 6 0 002 1.8 5.13 5.13 0 002.53.67 3.6 3.6 0 002.57-.94 3.64 3.64 0 00.06-5 3.28 3.28 0 00-2.4-.93 3.79 3.79 0 00-1.79.44 3.53 3.53 0 00-1.32 1.19h-3.41a6.1 6.1 0 01.12-.65c.08-.38.17-.87.29-1.46s.24-1.25.38-2 .28-1.47.43-2.22l1.17-6h10.18v3.55h-7.32l-.84 4.63a2.37 2.37 0 011-.61 5.1 5.1 0 011.67-.23z" fill="#fff"/><path d="M87.7 149.25a1.64 1.64 0 00-.8-.57 2.79 2.79 0 00-1-.18 2.48 2.48 0 00-.54.06 1.87 1.87 0 00-.53.2 1.07 1.07 0 00-.4.36.89.89 0 00-.16.54.9.9 0 00.37.79 3.58 3.58 0 00.94.46l1.22.39a4.93 4.93 0 011.22.54 2.91 2.91 0 01.94.94 3 3 0 01.37 1.59A3.71 3.71 0 0189 156a3.23 3.23 0 01-.93 1.16 3.75 3.75 0 01-1.35.69 5.71 5.71 0 01-1.62.23 5.8 5.8 0 01-2-.34 5 5 0 01-1.71-1.09l1.72-1.95a2.48 2.48 0 00.94.79 2.58 2.58 0 001.17.28 2.46 2.46 0 00.6-.07 1.86 1.86 0 00.54-.22 1.12 1.12 0 00.39-.36.94.94 0 00.15-.53 1 1 0 00-.38-.81 3.46 3.46 0 00-1-.5c-.38-.14-.79-.28-1.24-.42a5.8 5.8 0 01-1.24-.56 2.91 2.91 0 01-1-.93 2.66 2.66 0 01-.38-1.52 3.31 3.31 0 011.28-2.75 4 4 0 011.34-.7 5.52 5.52 0 011.57-.23 6 6 0 011.8.27 4.13 4.13 0 011.56.92zm6.85-.56h-3.14v-2.21h8.69v2.21H97v9.12h-2.45zm8.11-2.21h7.47v2.3h-5v2.12h4.76v2.3h-4.76v2.3h5.32v2.31h-7.75zm10.93 0h4.08a7.67 7.67 0 011.62.16 3.72 3.72 0 011.32.55 2.75 2.75 0 01.9 1.06 3.73 3.73 0 01.34 1.67 4 4 0 01-.31 1.66 2.81 2.81 0 01-.86 1.08 3.44 3.44 0 01-1.29.56 6.8 6.8 0 01-1.61.17H116v4.42h-2.42zm2.42 4.8h1.62a3.18 3.18 0 00.62-.06 1.81 1.81 0 00.55-.22 1 1 0 00.38-.42 1.29 1.29 0 00.15-.66 1.16 1.16 0 00-.19-.7 1.31 1.31 0 00-.5-.4 2.08 2.08 0 00-.67-.19H116zm13.84.86a6.49 6.49 0 01.45-2.46 5.3 5.3 0 011.23-1.88 5.38 5.38 0 011.88-1.19 6.49 6.49 0 012.37-.42 6.58 6.58 0 012.38.42 5.48 5.48 0 011.84 1.19 5.58 5.58 0 011.23 1.88 7.12 7.12 0 010 4.93 5.68 5.68 0 01-1.23 1.88 5.48 5.48 0 01-1.88 1.19 6.58 6.58 0 01-2.38.42 6.49 6.49 0 01-2.37-.42 5.27 5.27 0 01-3.11-3.07 6.51 6.51 0 01-.41-2.47zm2.52 0a4.28 4.28 0 00.24 1.47 3.33 3.33 0 00.69 1.15 3.07 3.07 0 001.08.76 3.79 3.79 0 002.81 0 3.07 3.07 0 001.08-.76 3.33 3.33 0 00.69-1.15 4.56 4.56 0 000-2.92 3.28 3.28 0 00-.69-1.16 3.07 3.07 0 00-1.08-.76 3.79 3.79 0 00-2.81 0 3.07 3.07 0 00-1.08.76 3.28 3.28 0 00-.69 1.16 4.28 4.28 0 00-.24 1.45zm12.23-5.66h3.29l4.67 7.87v-7.87H155v11.33h-3.16l-4.8-8.07v8.07h-2.44zm13.98 0h7.47v2.3H161v2.12h4.77v2.3H161v2.3h5.33v2.31h-7.75zm105.21 2.77a1.64 1.64 0 00-.8-.57 2.79 2.79 0 00-.95-.18 2.48 2.48 0 00-.54.06 1.87 1.87 0 00-.53.2 1.19 1.19 0 00-.41.36 1 1 0 00-.15.54.9.9 0 00.37.79 3.58 3.58 0 00.94.46c.38.13.78.26 1.22.39a4.93 4.93 0 011.22.54 3 3 0 01.94.94 3.07 3.07 0 01.37 1.59 3.86 3.86 0 01-.34 1.65 3.23 3.23 0 01-.93 1.16 3.75 3.75 0 01-1.35.69 5.71 5.71 0 01-1.62.23 5.9 5.9 0 01-2-.34 4.92 4.92 0 01-1.7-1.09l1.72-1.95a2.48 2.48 0 00.94.79 2.58 2.58 0 001.17.28 2.46 2.46 0 00.6-.07 1.86 1.86 0 00.54-.22 1.12 1.12 0 00.39-.36.94.94 0 00.15-.53 1 1 0 00-.38-.81 3.46 3.46 0 00-1-.5c-.38-.14-.79-.28-1.24-.42a5.8 5.8 0 01-1.24-.56 3 3 0 01-1-.93 2.74 2.74 0 01-.38-1.52 3.52 3.52 0 01.35-1.6 3.63 3.63 0 01.93-1.15 4.13 4.13 0 011.35-.7 5.45 5.45 0 011.56-.23 6.06 6.06 0 011.81.27 4.21 4.21 0 011.56.92zm6.85-.56h-3.14v-2.21h8.69v2.21h-3.13v9.12h-2.42zm8.11-2.21h7.47v2.3h-5.05v2.12h4.77v2.3h-4.77v2.3h5.33v2.31h-7.75zm10.93 0h4.08a7.51 7.51 0 011.61.16 3.7 3.7 0 011.33.55 2.75 2.75 0 01.9 1.06 3.73 3.73 0 01.34 1.67 3.87 3.87 0 01-.32 1.66 2.7 2.7 0 01-.85 1.08 3.44 3.44 0 01-1.29.56 6.8 6.8 0 01-1.61.17h-1.77v4.42h-2.42zm2.42 4.8h1.61a3.21 3.21 0 00.63-.06 1.92 1.92 0 00.55-.22 1.11 1.11 0 00.38-.42 1.29 1.29 0 00.15-.66 1.16 1.16 0 00-.19-.7 1.31 1.31 0 00-.5-.4 2.08 2.08 0 00-.67-.19h-1.96zm16.56-2.59h-3.14v-2.21h8.7v2.21h-3.14v9.12h-2.42zm6.87-2.21h2.64l1.76 7.26 2.29-7.26h2.25l2.29 7.46 1.84-7.46h2.46l-3.22 11.33h-2.15l-2.36-7.81-2.42 7.84h-2.08zm17.33 5.66a6.49 6.49 0 01.44-2.46 5.3 5.3 0 011.23-1.88 5.38 5.38 0 011.88-1.19 6.49 6.49 0 012.37-.42 6.58 6.58 0 012.38.42 5.27 5.27 0 013.11 3.07 7.12 7.12 0 010 4.93 5.27 5.27 0 01-3.11 3.07 6.58 6.58 0 01-2.38.42 6.49 6.49 0 01-2.37-.42 5.27 5.27 0 01-3.11-3.07 6.51 6.51 0 01-.44-2.47zm2.51 0a4.28 4.28 0 00.24 1.47 3.33 3.33 0 00.69 1.15 3.07 3.07 0 001.08.76 3.79 3.79 0 002.81 0 3.07 3.07 0 001.08-.76 3.33 3.33 0 00.69-1.15 4.56 4.56 0 000-2.92 3.28 3.28 0 00-.69-1.16 3.07 3.07 0 00-1.08-.76 3.79 3.79 0 00-2.81 0 3.07 3.07 0 00-1.08.76 3.28 3.28 0 00-.69 1.16 4.28 4.28 0 00-.24 1.45zm97.79-2.89a1.68 1.68 0 00-.8-.57 2.84 2.84 0 00-.95-.18 2.64 2.64 0 00-.55.06 1.93 1.93 0 00-.52.2 1.19 1.19 0 00-.41.36 1 1 0 00-.15.54.9.9 0 00.37.79 3.58 3.58 0 00.94.46c.38.13.78.26 1.22.39a4.93 4.93 0 011.22.54 2.88 2.88 0 01.93.94 3 3 0 01.38 1.59 3.86 3.86 0 01-.34 1.65 3.23 3.23 0 01-.93 1.16 3.92 3.92 0 01-1.35.69 5.71 5.71 0 01-1.62.23 5.85 5.85 0 01-2-.34 4.83 4.83 0 01-1.7-1.09l1.72-1.95a2.48 2.48 0 00.94.79 2.58 2.58 0 001.17.28 2.46 2.46 0 00.6-.07 1.86 1.86 0 00.54-.22 1.12 1.12 0 00.39-.36.94.94 0 00.15-.53 1 1 0 00-.38-.81 3.6 3.6 0 00-1-.5c-.38-.14-.8-.28-1.24-.42a5.59 5.59 0 01-1.24-.56 2.94 2.94 0 01-1-.93 2.74 2.74 0 01-.38-1.52 3.52 3.52 0 01.35-1.6 3.63 3.63 0 01.93-1.15 4.13 4.13 0 011.35-.7 5.45 5.45 0 011.56-.23 6 6 0 011.8.27 4.17 4.17 0 011.57.92zm6.84-.56h-3.13v-2.21h8.69v2.21h-3.13v9.12H440zm8.12-2.21h7.47v2.3h-5v2.12h4.77v2.3h-4.77v2.3h5.33v2.31h-7.75zm10.93 0h4.08a7.51 7.51 0 011.61.16 3.7 3.7 0 011.33.55 2.75 2.75 0 01.9 1.06 3.73 3.73 0 01.33 1.67 3.87 3.87 0 01-.31 1.66 2.7 2.7 0 01-.85 1.08 3.44 3.44 0 01-1.29.56 6.8 6.8 0 01-1.61.17h-1.77v4.42h-2.42zm2.42 4.8h1.61a3.21 3.21 0 00.63-.06 1.86 1.86 0 00.54-.22 1.13 1.13 0 00.39-.42 1.29 1.29 0 00.15-.66 1.23 1.23 0 00-.19-.7 1.31 1.31 0 00-.5-.4 2.07 2.07 0 00-.68-.19h-1.95zm16.53-2.59h-3.14v-2.21h8.69v2.21h-3.13v9.12H478zm8.05-2.21h2.42v4.22h4.71v-4.22h2.42v11.33h-2.42v-4.9h-4.71v4.9h-2.42zm13.02 0h4.26a7.52 7.52 0 011.59.17 3.74 3.74 0 011.32.56 2.89 2.89 0 01.9 1 3.75 3.75 0 01.33 1.66 3.36 3.36 0 01-.61 2 2.65 2.65 0 01-1.77 1.06l2.8 4.79H505l-2.3-4.53h-1.2v4.53h-2.42zm2.42 4.69h2.12a1.89 1.89 0 00.66-.14 1.15 1.15 0 00.49-.38 1.39 1.39 0 000-1.4 1.18 1.18 0 00-.43-.4 1.89 1.89 0 00-.61-.18 5 5 0 00-.66 0h-1.59zm8.97-4.69h7.47v2.3h-5v2.12h4.77v2.3h-4.77v2.3h5.33v2.31h-7.75zm11.02 0H529v2.3h-5.1v2.12h4.77v2.3h-4.77v2.3h5.33v2.31h-7.75zm92.7 2.77a1.65 1.65 0 00-.79-.57 2.89 2.89 0 00-1-.18 2.48 2.48 0 00-.54.06 2 2 0 00-.53.2 1.07 1.07 0 00-.4.36.89.89 0 00-.16.54.93.93 0 00.37.79 3.74 3.74 0 00.94.46l1.22.39a4.77 4.77 0 011.22.54 2.91 2.91 0 01.94.94 3 3 0 01.37 1.59 3.71 3.71 0 01-.34 1.65 3.31 3.31 0 01-.92 1.16 3.92 3.92 0 01-1.35.69 5.92 5.92 0 01-3.61-.11 5 5 0 01-1.71-1.09l1.72-1.95a2.48 2.48 0 00.94.79 2.58 2.58 0 001.17.28 2.46 2.46 0 00.6-.07 1.86 1.86 0 00.54-.22 1.12 1.12 0 00.39-.36.94.94 0 00.15-.53 1 1 0 00-.38-.81 3.39 3.39 0 00-.95-.5c-.39-.14-.8-.28-1.25-.42a5.8 5.8 0 01-1.24-.56 2.91 2.91 0 01-1-.93 2.66 2.66 0 01-.38-1.52 3.38 3.38 0 011.28-2.75 4.08 4.08 0 011.34-.7 5.52 5.52 0 011.57-.23 6 6 0 011.8.27 4.25 4.25 0 011.57.92zm6.82-.56h-3.14v-2.21h8.69v2.21h-3.13v9.12H621zm8.15-2.21h7.46v2.3h-5v2.12h4.76v2.3h-4.76v2.3h5.32v2.31h-7.74zm10.92 0h4.08a7.67 7.67 0 011.62.16 3.65 3.65 0 011.32.55 2.75 2.75 0 01.9 1.06 3.6 3.6 0 01.34 1.67 4 4 0 01-.31 1.66 2.72 2.72 0 01-.86 1.08 3.47 3.47 0 01-1.28.56 6.94 6.94 0 01-1.62.17h-1.77v4.42h-2.42zm2.42 4.8h1.62a3.36 3.36 0 00.63-.06 1.86 1.86 0 00.54-.22 1.13 1.13 0 00.39-.42 1.4 1.4 0 00.14-.66 1.16 1.16 0 00-.19-.7 1.24 1.24 0 00-.5-.4 2 2 0 00-.67-.19h-1.96zm14.51-4.8h7.37v2.3h-4.95v2.31H664v2.3h-4.58v4.42H657zm9.78 5.66a6.69 6.69 0 01.44-2.46 5.46 5.46 0 011.24-1.88 5.34 5.34 0 011.87-1.19 6.58 6.58 0 012.38-.42 6.49 6.49 0 012.37.42 5.38 5.38 0 011.92 1.19 5.46 5.46 0 011.24 1.88 7.12 7.12 0 010 4.93 5.55 5.55 0 01-1.24 1.88 5.38 5.38 0 01-1.88 1.19 6.49 6.49 0 01-2.37.42 6.58 6.58 0 01-2.38-.42 5.34 5.34 0 01-1.87-1.19 5.55 5.55 0 01-1.24-1.88 6.71 6.71 0 01-.48-2.47zm2.51 0a4.27 4.27 0 00.25 1.47 3.33 3.33 0 00.69 1.15 3.12 3.12 0 001.07.76 3.55 3.55 0 001.41.27 3.46 3.46 0 001.4-.27 3.07 3.07 0 001.08-.76 3.33 3.33 0 00.69-1.15 4.56 4.56 0 000-2.92 3.28 3.28 0 00-.69-1.16 3.07 3.07 0 00-1.08-.76 3.46 3.46 0 00-1.4-.27 3.55 3.55 0 00-1.41.27 3.12 3.12 0 00-1.07.76 3.28 3.28 0 00-.69 1.16 4.29 4.29 0 00-.25 1.45zm21.5 1.3a5.85 5.85 0 01-.29 1.86 4.21 4.21 0 01-.88 1.47 4 4 0 01-1.45 1 5.79 5.79 0 01-4 0 3.94 3.94 0 01-1.45-1 4.21 4.21 0 01-.88-1.47 5.58 5.58 0 01-.29-1.86v-7H684v6.86a2.8 2.8 0 00.16 1 2.33 2.33 0 00.46.78 2.11 2.11 0 00.7.51 2.23 2.23 0 00.9.18 2.13 2.13 0 00.88-.18 2.22 2.22 0 00.7-.51 2.33 2.33 0 00.46-.78 3.05 3.05 0 00.16-1v-6.86h2.42zm3.48-6.96h4.25a7.38 7.38 0 011.59.17 3.74 3.74 0 011.32.56 2.72 2.72 0 01.9 1 3.75 3.75 0 01.33 1.66 3.42 3.42 0 01-.6 2 2.7 2.7 0 01-1.77 1.06l2.79 4.79h-2.9l-2.3-4.53h-1.19v4.53h-2.42zm2.42 4.69h2.12a2 2 0 00.66-.14 1.21 1.21 0 00.49-.38 1.45 1.45 0 000-1.4 1.3 1.3 0 00-.44-.4 1.76 1.76 0 00-.6-.18 5.16 5.16 0 00-.67 0h-1.58zm99.17-1.92a1.68 1.68 0 00-.8-.57 2.79 2.79 0 00-.95-.18 2.64 2.64 0 00-.55.06 1.93 1.93 0 00-.52.2 1.19 1.19 0 00-.41.36 1 1 0 00-.15.54.9.9 0 00.37.79 3.58 3.58 0 00.94.46c.38.13.78.26 1.22.39a4.93 4.93 0 011.22.54 3 3 0 01.94.94 3.07 3.07 0 01.37 1.59 3.86 3.86 0 01-.34 1.65 3.23 3.23 0 01-.93 1.16 3.92 3.92 0 01-1.35.69 5.71 5.71 0 01-1.62.23 5.85 5.85 0 01-2-.34 4.83 4.83 0 01-1.7-1.09l1.72-1.95a2.48 2.48 0 00.94.79 2.58 2.58 0 001.17.28 2.46 2.46 0 00.6-.07 1.86 1.86 0 00.54-.22 1.12 1.12 0 00.39-.36.94.94 0 00.15-.53 1 1 0 00-.38-.81 3.6 3.6 0 00-1-.5c-.38-.14-.8-.28-1.24-.42a5.59 5.59 0 01-1.24-.56 3 3 0 01-1-.93 2.74 2.74 0 01-.38-1.52 3.52 3.52 0 01.35-1.6 3.63 3.63 0 01.93-1.15 4.13 4.13 0 011.35-.7 5.45 5.45 0 011.56-.23 6 6 0 011.8.27 4.17 4.17 0 011.57.92zm6.85-.56h-3.14v-2.21h8.69v2.21h-3.13v9.12h-2.42zm8.11-2.21h7.47v2.3h-5v2.12H818v2.3h-4.77v2.3h5.33v2.31h-7.75zm10.93 0h4.08a7.51 7.51 0 011.61.16 3.7 3.7 0 011.33.55 2.75 2.75 0 01.9 1.06 3.73 3.73 0 01.33 1.67 3.87 3.87 0 01-.31 1.66 2.7 2.7 0 01-.85 1.08 3.44 3.44 0 01-1.29.56 6.8 6.8 0 01-1.61.17h-1.77v4.42h-2.42zm2.42 4.8h1.61a3.21 3.21 0 00.63-.06 1.86 1.86 0 00.59-.22 1.06 1.06 0 00.39-.42 1.29 1.29 0 00.15-.66 1.23 1.23 0 00-.19-.7 1.31 1.31 0 00-.5-.4 2.07 2.07 0 00-.68-.19h-1.95zm14.53-4.8h7.37v2.3h-5v2.31h4.57v2.3h-4.57v4.42h-2.37zm10.3 0h2.42v11.33H849zm4.8 0h2.76l2.71 7.42 2.76-7.42h2.59l-4.53 11.33h-1.94zm13.34 0h7.47v2.3h-5.05v2.12h4.77v2.3h-4.77v2.3h5.33v2.31h-7.75z" fill="#231815"/></g></g></svg>