<svg xmlns="http://www.w3.org/2000/svg" viewBox="0 0 281.13 23.1"><path d="M0 16.32h4.29a2.51 2.51 0 00.93 2.09 3.38 3.38 0 002.16.73 2.9 2.9 0 002-.79 2.62 2.62 0 00.85-2 2.75 2.75 0 00-1-2.4 8.66 8.66 0 00-2.33-1.17l-.25-.1-.26-.08-.16-.06-.17-.06a17.57 17.57 0 01-1.86-.73 5.79 5.79 0 01-2.77-2.84A6.66 6.66 0 01.84 7v-.34a2 2 0 010-.35 5.85 5.85 0 011.92-4.52A6.58 6.58 0 017.35 0a6.47 6.47 0 014.55 1.85 5.81 5.81 0 011.93 4.45H9.6a2.14 2.14 0 00-.78-1.65A2.58 2.58 0 007.11 4a2 2 0 00-1.59.66 2.32 2.32 0 00-.6 1.62v.06A1.88 1.88 0 005.64 8a6.29 6.29 0 001.65.9l.21.1h.21l.3.11.3.1c.68.22 1.34.47 2 .74A6.71 6.71 0 0112 11.07a5.82 5.82 0 011.77 2.18 6.79 6.79 0 01.57 2.86 6.57 6.57 0 01-2.13 5 7.13 7.13 0 01-5.07 2 7.3 7.3 0 01-5-1.92A6.14 6.14 0 010 16.35zM31.23.39v14.46q0 .63.06 1.23a3.17 3.17 0 00.36 1.17 3.81 3.81 0 001.21 1.37 3 3 0 001.73.52h.18a3.46 3.46 0 001.48-.46 3.14 3.14 0 001.13-1.1 3.45 3.45 0 00.52-1.53c.1-.54.1-1.05.1-1.65V.39h4.11v13.83a18.25 18.25 0 01-.27 3.2 6.13 6.13 0 01-1.35 2.83 8.15 8.15 0 01-2.64 2.07 7.16 7.16 0 01-3.24.78H34a7.44 7.44 0 01-2.78-.87 8.15 8.15 0 01-2.26-1.77 6.27 6.27 0 01-1.5-2.91 17 17 0 01-.3-3.27V.39zM54.6 16.32h4.29a2.51 2.51 0 00.93 2.09 3.38 3.38 0 002.16.73 2.86 2.86 0 002-.79 2.62 2.62 0 00.86-2 2.75 2.75 0 00-1-2.4 8.66 8.66 0 00-2.31-1.17l-.26-.1-.27-.08-.17-.06-.16-.06a17.57 17.57 0 01-1.86-.73 5.84 5.84 0 01-1.65-1.19A6.12 6.12 0 0156 8.91 7 7 0 0155.44 7v-.69a5.85 5.85 0 012-4.51A6.58 6.58 0 0162 0a6.43 6.43 0 014.54 1.85 5.79 5.79 0 011.89 4.45H64.2a2.14 2.14 0 00-.78-1.65A2.58 2.58 0 0061.71 4a2 2 0 00-1.59.66 2.32 2.32 0 00-.6 1.62v.06A1.88 1.88 0 0060.24 8a6.29 6.29 0 001.65.9l.21.1.21.07.3.11.3.1c.68.22 1.33.47 2 .74a6.88 6.88 0 011.76 1.09 5.82 5.82 0 011.77 2.18 6.79 6.79 0 01.56 2.82 6.57 6.57 0 01-2.13 5 7.13 7.13 0 01-5.07 2 7.34 7.34 0 01-5-1.92 6.17 6.17 0 01-2.17-4.83zM84 4.38h-4.11v-4h12.33v4h-4.14v18.18H84zM111.63.39h3.21l9.33 22.17h-4.53l-2.4-5.73h-7.86l-2.46 5.73h-4.53zm4 12.45l-2.37-6.72-2.37 6.72zM136.32.39h4.11v22.17h-4.11zm18.3 0h4.62l9.24 16.2V.39h4.11v22.17H168l-9.3-16.14v16.14h-4.11zm39.51 0h3.21l9.33 22.17h-4.53l-2.4-5.73h-7.86l-2.46 5.73h-4.53zm4 12.45l-2.37-6.72-2.37 6.72zM218.82.39h4a1 1 0 00.24 0h.63c.86 0 1.71 0 2.56.12a7 7 0 012.48.72A5.63 5.63 0 01231 3.32a5.34 5.34 0 01.27 5.38 3.93 3.93 0 01-1.83 1.77 5.06 5.06 0 012.8 2 5.86 5.86 0 011 3.34 6.32 6.32 0 01-.71 3 6.75 6.75 0 01-2 2.31 6.1 6.1 0 01-2.31 1.07 14.61 14.61 0 01-2.55.34h-6.84zm4.89 8.52h1.23a3.74 3.74 0 00.82-.08 2.78 2.78 0 00.74-.22 2 2 0 00.93-.84 2.36 2.36 0 00.33-1.2 1.92 1.92 0 00-.39-1.2 2.3 2.3 0 00-1-.75 1.79 1.79 0 00-.54-.16l-.63-.08h-.93a1.53 1.53 0 01-.3 0h-1v4.5zm.93 9.66a9.94 9.94 0 001.74-.09 4 4 0 001.65-.66 2.33 2.33 0 00.82-.93 2.85 2.85 0 00.26-1.23 2.31 2.31 0 00-.38-1.35 3.07 3.07 0 00-1.09-.93 3.72 3.72 0 00-1.35-.39q-.69-.06-1.41-.06h-1.95v5.64zM246.12.39h4.11v18.18H257v4h-10.88zm23.1 0h11.91v4h-7.8v5.1h7.47v4h-7.47v5.1h7.8v4h-11.91z" fill="#5fc1c7" data-name="レイヤー 2"/></svg>