<svg xmlns="http://www.w3.org/2000/svg" viewBox="0 0 960 687.46"><defs><style>.cls-1{fill:#776a9d}.cls-2{fill:#6c9bd2}.cls-3{fill:#69bd83}.cls-4{fill:#5fc1c7}.cls-5{fill:#b5d681}.cls-6{fill:#5e7aa8;fill-rule:evenodd}.cls-7{fill:#f9c270}</style></defs><g id="レイヤー_2" data-name="レイヤー 2"><g id="画像02"><path class="cls-1" d="M336.79 61.49v123l-106.51 61.44-106.5-61.49V61.49L230.28 0l106.51 61.49zM324 68.85l-93.72-54.09-93.69 54.09v108.22l93.69 54.09L324 177.07V68.85z"/><path class="cls-2" d="M586.15 61.49v123l-106.51 61.44-106.5-61.49V61.49L479.64 0l106.51 61.49zm-12.82 7.36l-93.69-54.09L386 68.85v108.22l93.69 54.09 93.69-54.09V68.85z"/><path class="cls-3" d="M835.51 61.49v123L729 245.93l-106.5-61.49V61.49L729 0l106.51 61.49zm-12.82 7.36L729 14.76l-93.69 54.09v108.22L729 231.16l93.69-54.09V68.85z"/><path class="cls-4" d="M213 277.81v122.94l-106.5 61.49L0 400.75V277.81l106.5-61.49L213 277.81zm-12.82 7.36l-93.68-54.09-93.69 54.09v108.22l93.69 54.09 93.69-54.09V285.17z"/><path class="cls-5" d="M960 277.81v122.94l-106.51 61.49L747 400.75V277.81l106.5-61.49L960 277.81zm-12.81 7.36l-93.7-54.09-93.68 54.09v108.22l93.68 54.09 93.7-54.09V285.17z"/><path class="cls-6" d="M479.64 314.5A75.67 75.67 0 11404 390.17a75.67 75.67 0 0175.67-75.67z"/><path class="cls-6" d="M479.64 262.89l24.82 24.82h-11.69v27.93a76.18 76.18 0 00-26.26 0v-27.93h-11.69l24.82-24.82zm-50.09 172.32L409.8 455l8.27 8.27H383v-35.1l8.26 8.27 19.74-19.8m-7.38-129.1l34.69 5.31-9.42 6.92 16.73 22.8a75.8 75.8 0 00-21 15.7l-16.85-23-9.43 6.92c1.79-11.64 3.53-23 5.32-34.69zm-43.97 63.35L391.42 336l-4 11 24.73 8.9a75.18 75.18 0 00-7.62 25.1l-26-9.35-4 11c-5-10.65-9.93-21.09-15-31.76zm197.95-63.35l-34.7 5.31 9.43 6.92-17.27 23.52a75.71 75.71 0 0120.72 16.15l17.71-24.13 9.43 6.92c-1.78-11.64-3.53-23-5.32-34.69zm43.97 63.35L569.81 336l4 11-26.38 9.49a75.2 75.2 0 017.45 25.23l27.82-10 4 11c5-10.65 9.93-21.09 15-31.76z"/><path class="cls-7" d="M338.71 503v123l-106.5 61.49L125.7 626V503l106.51-61.49L338.71 503zm-12.81 7.36l-93.69-54.09-93.69 54.09V618.6l93.69 54.09 93.69-54.09V510.38z"/><path class="cls-4" d="M65.14 334a11.29 11.29 0 00-.65 1 22 22 0 01-2.82 3.7 12.27 12.27 0 004.82 2.1 9.07 9.07 0 00-.88 2.68 16.36 16.36 0 01-5.77-3.18 18.13 18.13 0 01-6.05 3.18 6.56 6.56 0 00-.62-1.38 21.34 21.34 0 00-2.33-.1h-5v1.55h-2.3a26 26 0 00.15-3.22v-11.78c0-1.3 0-2.2-.1-3.1a21.87 21.87 0 002.2.08h.52v-2.13h-.55a21.28 21.28 0 00-2.67.13v-2.63a19.08 19.08 0 002.67.15h5.43a19 19 0 002.62-.15v2.58c-.75-.05-1.5-.08-2.55-.08h-.55v2.13h2.43v4.67a4.13 4.13 0 001.55-1.08 4.77 4.77 0 001.31-2.69c-1.13.1-1.85.17-2.18.22l-.25-2.4 1.18.05a2.77 2.77 0 00.37 0 20.27 20.27 0 001.88-4.37l2.53.67a30.57 30.57 0 01-1.9 3.6 44.06 44.06 0 004.4-.5 14.81 14.81 0 00-1.65-1.8l1.85-1a26.13 26.13 0 013.87 4.57L64 326.8l-.72-1.32c-.9.2-1 .22-1.55.3v2.92c0 .37.1.42.82.42s1.2-.07 1.32-.27a4.89 4.89 0 00.28-1.77 5.61 5.61 0 002 .65 4.79 4.79 0 01-.65 2.69c-.4.48-1.33.65-3.55.65-1.87 0-2.45-.35-2.45-1.47v-3.5c-.12 0-.52 0-1.17.13a7.24 7.24 0 01-1 3 8 8 0 01-3.33 3.09 5.78 5.78 0 00-.87-1.67V336a10.46 10.46 0 002.95-2.85 8 8 0 001.25-2.3l.17-.48 2.4.7c-.4.8-.62 1.23-.9 1.68h3.15a10.07 10.07 0 001.8-.13zm-19.27 1.8h5.2v-2.2a6.43 6.43 0 01-1.73-.13c-.4-.1-.52-.37-.52-1.17v-4.67h-.58v.59c0 3.33-.42 5.45-1.42 7.08a9.06 9.06 0 00-1-1.95zm0-2.78c.65-1.25.82-2.32.82-4.92v-.47h-.82zm0 6.73h5.2v-1.95h-5.2zm2.37-14.17h.58v-2.15h-.58zm2.15 5.42c0 .45.1.55.68.55v-3.94h-.68zm2.78 8.65V341a15.69 15.69 0 005-2.27 13.54 13.54 0 01-1.8-2.38 17.32 17.32 0 01-2.12 1.85 6.94 6.94 0 00-1-1.92zm4.62-4.9a10.29 10.29 0 002.1 2.55 17.22 17.22 0 002.11-2.58zm10.46-3.08a22.22 22.22 0 00.89-6.49l2 .25a31.82 31.82 0 01-.92 7zm3.17 11.75a24.72 24.72 0 00.17-3.15v-17.39a17.26 17.26 0 00-.17-2.65h3a20.2 20.2 0 00-.15 2.65v17.59a24.21 24.21 0 00.15 2.95zm11-18V323a16.23 16.23 0 00-.18-2.65h3a16 16 0 00-.18 2.65v2.5h2.93a17.55 17.55 0 002.74-.15v2.77a25 25 0 00-2.72-.15h-3v4.38h2.5a18.6 18.6 0 002.7-.13v2.7a18.61 18.61 0 00-2.72-.15h-2.35V340h3.4a22.26 22.26 0 002.92-.15v2.83a19.34 19.34 0 00-2.92-.18H78.49a19.68 19.68 0 00-2.95.18v-2.83a22.66 22.66 0 002.95.15h4v-5.3h-2.27a20.75 20.75 0 00-2.78.15v-2.7l.4.05a16.15 16.15 0 00-2.25-1.4 10.28 10.28 0 001.33-2.5l-1.45.7a14.37 14.37 0 00-1.15-3.72l1.67-.8a20.29 20.29 0 011.15 3.17 20.87 20.87 0 001.08-5.77l2.67.5a6.64 6.64 0 00-.17.9c-.08.48-.25 1.5-.38 2.15zm-2.73 2.47a18.11 18.11 0 01-1.8 4.3c.55 0 1.1.08 1.9.08h2.63v-4.38zM99 323.05c-1.1 0-1.8 0-2.63.1v-2.42a24.82 24.82 0 002.83.15h13.2a23.18 23.18 0 002.82-.15v2.42c-.82-.07-1.45-.1-2.57-.1h-5.73v.95h6.7a27.39 27.39 0 003.1-.1 12 12 0 00-.1 2.05v1.57a10.65 10.65 0 00.13 2h-2.58V326h-7.25v2.47a14.73 14.73 0 00.1 2.35h-2.87a21.63 21.63 0 00.12-2.35V326h-6.85v3.52h-2.6a11.57 11.57 0 00.15-2V326a15.14 15.14 0 00-.1-2.05 26.65 26.65 0 003.07.1h6.35v-.95zm15.7 14.52a8.57 8.57 0 002.62 1c-.08 2.18-.35 3.23-1 3.78s-2.15.8-6.42.8c-4.9 0-5.63-.25-5.63-1.93v-1.7h-4.75v1.28h-2.78a19.22 19.22 0 00.15-2.48v-4.6a24 24 0 00-.12-2.4 19.09 19.09 0 002.37.1h13.2a20.58 20.58 0 002.48-.1 19.67 19.67 0 00-.1 2.43zm-16.23-10.94a6.39 6.39 0 001.3.07H102a8.47 8.47 0 001.27-.07v1.67a8.74 8.74 0 00-1.27-.07h-2.2a9.2 9.2 0 00-1.3.07zm0 2.34a5.61 5.61 0 001.3.08H102a8.07 8.07 0 001.27-.08v1.68a7.89 7.89 0 00-1.27-.08h-2.2a8.89 8.89 0 00-1.3.08zm1 4.38v1.15h4.77v-1.15zm0 2.92v1.25h4.77v-1.25zm7.37-1.77h5.2v-1.15h-5.2zm0 3h5.2v-1.25h-5.2zm0 2.9c0 .2 0 .33.18.38a12.17 12.17 0 003.52.27 11.87 11.87 0 003.55-.32c.3-.15.4-.38.48-1.23h-7.73zm1.18-13.79a6.24 6.24 0 001.3.07h2.55a8.56 8.56 0 001.27-.07v1.67a8.93 8.93 0 00-1.27-.07h-2.55a8.93 8.93 0 00-1.3.07zm0 2.34a5.47 5.47 0 001.3.08h2.55a8.07 8.07 0 001.27-.08v1.68a8.07 8.07 0 00-1.27-.08h-2.55a8.89 8.89 0 00-1.3.08zm22.32-5.87a13.61 13.61 0 00-.75 1.4c-.25.45-.67 1.22-1.05 1.82a18.59 18.59 0 002.38-.1c0 .43 0 .58-.08 1.28a7 7 0 002.4-1.65 4.07 4.07 0 001.08-2.28h-.7a15.06 15.06 0 00-2.23.13v-2.63a14.68 14.68 0 002.63.15h6.15a17.18 17.18 0 002.22-.1c-.08.55-.12 1.28-.23 2.7a10.7 10.7 0 01-.92 4.2c-.42.63-1 .82-2.55.82-.4 0-.4 0-1.82-.05a6.46 6.46 0 00-.58-2.47 10.14 10.14 0 001.93.25c.65 0 .9-.12 1-.5a14 14 0 00.38-2.5H137a7.68 7.68 0 01-1.43 3.53 8.24 8.24 0 01-2.75 2.39l2.33.5c-.23 1-.23 1-.3 1.4h1.35v-.2a9.91 9.91 0 00-.15-1.82h2.82c-.05.62-.07 1.17-.07 1.82v.2h1.55a11.19 11.19 0 002.22-.15v2.63a16.62 16.62 0 00-2.22-.1h-1.55V336h1.92a16 16 0 002.4-.13v2.65a19.73 19.73 0 00-2.35-.1h-2v2.5a13.17 13.17 0 00.15 2.45H136a16.79 16.79 0 00.15-2.45v-2.5h-2.5a14.5 14.5 0 00-2.25.13v-2.68a14.61 14.61 0 002.27.13h2.48v-2.25h-2a13.55 13.55 0 01-.8 1.92 9.84 9.84 0 00-2.22-1.15 10.32 10.32 0 001.32-3.3 12.24 12.24 0 00.28-1.65.09.09 0 000-.07l-.27.17a7.59 7.59 0 00-1.58-2.07v13.22c0 1.78-.7 2.25-3.25 2.25h-1.55a8.43 8.43 0 00-.57-2.5 20.84 20.84 0 002.1.17c.82 0 1.05-.12 1.05-.52v-3.05h-5.13a15.4 15.4 0 01-1.49 6.12 9.7 9.7 0 00-2.08-1.95c1.22-2.17 1.5-4.4 1.5-11.65v-1.39a7.79 7.79 0 00-1.65-1.7 10.56 10.56 0 002.82-3.87 9.33 9.33 0 00.93-2.7l2.65.5a12.65 12.65 0 00-.53 1.35h2.25a5.32 5.32 0 001.3-.1zM126 326.3a17.85 17.85 0 001.15-2.2h-2.45a19.54 19.54 0 01-1.3 2.2h2.6zm-.85 8.67v-2.25h-1.47v2.27zm-1.42-6.45v2.13h1.42v-2.13zm4.9 0h-1.45v2.13h1.45zm0 4.2h-1.45V335h1.45zm26.74-5.07a16.56 16.56 0 00-.53 1.67 23 23 0 01-3.17 7.1 18.33 18.33 0 01-3.78 4.3 9.36 9.36 0 00-2.37-2.1 16.25 16.25 0 003.62-3.55 16.55 16.55 0 003-6.12H149a16.87 16.87 0 00-2.5.15v-3.05a17.3 17.3 0 002.67.13h2.63a15.3 15.3 0 002.2-.1zm12.37-1.6l-1.32 1.47a37.63 37.63 0 01-4.48 4.23 22.88 22.88 0 002.85 3.3 17.36 17.36 0 004.35 3.1 13.62 13.62 0 00-2.15 2.7 21.87 21.87 0 01-4.27-3.73 22.28 22.28 0 01-3.95-6.55c.1 2.5.12 3.08.12 3.9v6c0 1.12-.18 1.62-.65 2a3.58 3.58 0 01-2.4.58c-.93 0-2.28-.08-3.25-.15a9.13 9.13 0 00-.7-2.88 22.76 22.76 0 003.25.3c.75 0 .9-.1.9-.62v-16.52a15.5 15.5 0 00-.18-2.63h3.18a15.83 15.83 0 00-.18 2.65v1.8a14.52 14.52 0 001.65 4.52 18.13 18.13 0 004.65-5.42zM24 373.57a20.12 20.12 0 01-2.73-4.92 18.39 18.39 0 01-1.32-6.9 17.76 17.76 0 011.27-6.67 20.45 20.45 0 012.78-4.93h3.5a19.45 19.45 0 00-3.17 5 16.3 16.3 0 00-1.3 6.62 16.94 16.94 0 001.32 6.85 19.21 19.21 0 003.17 5zm13.64-9.72a42.68 42.68 0 01-5.15 5.55c-.5.45-.6.55-.82.77l-1.87-2.62a12.1 12.1 0 002.2-1.65 23.94 23.94 0 004-4.23zm-5.17-12.4a29.75 29.75 0 014.3 4l-2.15 2a22.4 22.4 0 00-4.3-4.23zm12.27 6.15a4.8 4.8 0 00-.1 1 15.34 15.34 0 00.78 5 11.09 11.09 0 003.5 4.6 15.19 15.19 0 004.19 2.35 12.34 12.34 0 00-1.59 2.65 20.31 20.31 0 01-5-3.55 12.56 12.56 0 01-3.17-5.15 13.49 13.49 0 01-2.58 4.93 15.76 15.76 0 01-5.37 3.82 8.16 8.16 0 00-1.61-2.25 13.11 13.11 0 004.78-3.1 12.88 12.88 0 003.35-9.13 6.72 6.72 0 00-.1-1.12zm3.95-3.55a14 14 0 002.43-.15l1.49 1.45c-.17.43-.25.6-.55 1.3a22.4 22.4 0 01-3.54 6.05 11.67 11.67 0 00-2.3-1.58 13.12 13.12 0 003.1-4.67H41a21.24 21.24 0 01-3.7 5.25 8.53 8.53 0 00-2.08-2 16.14 16.14 0 005.08-9.29l3 .52c-.2.48-.25.63-.75 2-.15.4-.25.7-.45 1.2zm10.53-.32a25 25 0 00-3.12.15v-2.78a25.14 25.14 0 003.14.15h16.05a27 27 0 003.15-.15v2.78a25.67 25.67 0 00-3-.15h-4.22v3H74a24.42 24.42 0 003-.13 24.5 24.5 0 00-.1 2.55v4.7a24.42 24.42 0 00.1 2.57 24.38 24.38 0 00-2.9-.12h-2.88v3.7h4.65a22.58 22.58 0 002.87-.15v2.88a22.23 22.23 0 00-3.15-.18h-16.7a21.44 21.44 0 00-3.14.18v-2.88a23.15 23.15 0 002.89.15h4.48v-3.7h-2.83a25 25 0 00-2.9.12 16.62 16.62 0 00.13-2.57v-4.7a16.49 16.49 0 00-.13-2.55 24.91 24.91 0 003 .13h2.7v-3zm3.9 5.42h-2.95v4.75h2.95zm2.6-2.42h2.9v-3h-2.9zm2.9 2.42h-2.9v4.75h2.9zM65.72 370h2.9v-3.7h-2.9zm8.6-6.07v-4.75h-3.1v4.75zm9.85-10.48a20.18 20.18 0 00-.15-2.77h2.9a16.41 16.41 0 00-.15 2.8V357H87a13.87 13.87 0 001.63-.07v2.59a13.77 13.77 0 00-1.58-.1h-.32v6.53c.7-.3 1-.4 1.87-.83v2.6c-2.3 1-3.22 1.43-5.77 2.45-.5.2-.78.33-1.12.5l-.53-2.9a15.73 15.73 0 002.9-.82v-7.53h-.85a9.39 9.39 0 00-1.72.13v-2.67a9.71 9.71 0 001.74.12h.83zm19.22 16.67a6.27 6.27 0 001.25-.1v2.78a27.12 27.12 0 00-2.77-.13H89.94a25 25 0 00-2.72.13v-2.75a13.15 13.15 0 001.55.07h.62v-3.9a20.7 20.7 0 00-.1-2.47 20.16 20.16 0 002.38.07h9.1a19.8 19.8 0 002.39-.07c0 .75-.07 1.3-.07 2.45v3.92zm-13-12.27v-.5a9.13 9.13 0 01-.7.67 7.38 7.38 0 00-1.77-2 11 11 0 003-3.5 8.89 8.89 0 00.93-2.42l2.8.77c-.13.28-.13.28-.83 1.68h7.48a20.69 20.69 0 002.82-.15v2.67c-.78-.07-1.62-.12-2.77-.12h-8.96a11.63 11.63 0 01-1.07 1.4h9.13c1 0 1.4 0 2-.07 0 .45-.07 1-.07 1.57v3.2c0 .7 0 1.12.07 1.6a12.65 12.65 0 00-1.89-.08h-8.27c-.92 0-1.35 0-2 .08a14.46 14.46 0 00.07-1.55zm1.38 12.27h1.55v-4h-1.55zm1.12-9.72h6.88v-1.88h-6.88zm2.55 9.72H97v-4h-1.56zm3.65 0h1.58v-4h-1.58zm24.68-7.97c-.4.32-.5.4-.85.7-1.15 1-1.88 1.57-3.2 2.55 1.5-.08 3.25-.2 5.22-.3-.42-.45-.7-.7-1.45-1.38l2.18-1.3a37.58 37.58 0 014.54 5l-2.27 1.52c-.62-.95-.82-1.2-1.3-1.87-3.45.32-3.45.32-6.7.52v3.28a14 14 0 00.15 2.5H117a13.89 13.89 0 00.15-2.5v-3.13c-5.3.25-5.3.25-7.15.3a7.82 7.82 0 00-1.77.18l-.43-2.7a16.47 16.47 0 002.47.12c.73 0 .73 0 5-.12a33.49 33.49 0 00-4.8-2.63L112 361c1.13.57 1.5.77 2.33 1.25a16.59 16.59 0 001.6-1.5h-5.63a22.58 22.58 0 00-2.87.15v-2.4a17.05 17.05 0 002.6.12h7.2v-1.32h-5.53a16 16 0 00-2.35.13v-2.28a19.33 19.33 0 002.35.1h5.53v-1.17H111a21.38 21.38 0 00-2.6.1v-2.38a21.81 21.81 0 002.9.15h5.88a6.54 6.54 0 00-.15-1.75h3a8.19 8.19 0 00-.12 1.75h6.27a20.22 20.22 0 002.87-.15v2.38a21.64 21.64 0 00-2.57-.1h-6.57v1.17h5.85a18.22 18.22 0 002.32-.1v2.28a15.48 15.48 0 00-2.32-.13h-5.85v1.27h7.57a16.92 16.92 0 002.57-.12v2.4a23.77 23.77 0 00-2.84-.15h-5.38zm-8.23 7.32a16.74 16.74 0 01-5.9 3.85 9.24 9.24 0 00-2-2.17 13 13 0 003.12-1.3 10.65 10.65 0 002.45-1.83zm3.58-8.77a28.36 28.36 0 01-2.78 2.72c.75.48.88.55 1.3.85a24.56 24.56 0 003.83-3.57zm4.57 6.95a12.77 12.77 0 002.8 2 16.13 16.13 0 003.27 1.35 13.6 13.6 0 00-1.77 2.38 22.27 22.27 0 01-6.47-4.2zm31.58-3.65a11.29 11.29 0 00-.65 1 22 22 0 01-2.83 3.7 12.34 12.34 0 004.82 2.1 9.07 9.07 0 00-.87 2.68 16.28 16.28 0 01-5.77-3.18 18.23 18.23 0 01-6.05 3.18 6.63 6.63 0 00-.63-1.38 21.26 21.26 0 00-2.29-.1h-5v1.55h-2.3a26 26 0 00.15-3.22v-11.78c0-1.3 0-2.2-.1-3.1a21.64 21.64 0 002.19.08h.53v-2.13h-.55a21.08 21.08 0 00-2.67.13v-2.63a19.08 19.08 0 002.67.15h5.42a19.15 19.15 0 002.63-.15v2.58c-.75-.05-1.5-.08-2.55-.08h-.55v2.13h2.42v4.67a4 4 0 001.55-1.08 4.71 4.71 0 001.25-2.64c-1.12.1-1.85.17-2.17.22l-.25-2.4 1.17.05a3 3 0 00.38 0 20.78 20.78 0 001.95-4.35l2.52.67a29.15 29.15 0 01-1.9 3.6 43.72 43.72 0 004.4-.5 13.31 13.31 0 00-1.65-1.8l1.85-1a25.71 25.71 0 013.87 4.57l-2.1 1.35c-.34-.65-.47-.87-.72-1.32-.9.2-1.05.22-1.55.3v2.92c0 .37.1.42.83.42s1.19-.07 1.32-.27a5 5 0 00.27-1.77 5.68 5.68 0 001.95.65 4.7 4.7 0 01-.65 2.69c-.4.48-1.32.65-3.54.65-1.88 0-2.45-.35-2.45-1.47v-3.5c-.13 0-.53 0-1.18.13a7.1 7.1 0 01-.95 3 8.07 8.07 0 01-3.32 3.12 6.07 6.07 0 00-.88-1.67V366a10.33 10.33 0 003-2.85 8 8 0 001.25-2.3c.1-.28.1-.28.18-.48l2.4.7c-.4.8-.63 1.23-.9 1.68h3.15a10.23 10.23 0 001.8-.13zM136 365.75h5.2v-2.2a6.27 6.27 0 01-1.72-.13c-.4-.1-.53-.37-.53-1.17v-4.67h-.57v.59c0 3.33-.43 5.45-1.43 7.08a8.62 8.62 0 00-.95-1.95zm0-2.78c.65-1.25.83-2.32.83-4.92v-.47H136zm0 6.73h5.2v-1.95H136zm2.38-14.17h.57v-2.15h-.57zm2.15 5.44c0 .45.1.55.67.55v-3.94h-.67zm2.77 8.65V371a15.64 15.64 0 005-2.27 13.54 13.54 0 01-1.8-2.38 18.37 18.37 0 01-2.13 1.85 6.46 6.46 0 00-1.05-1.92zm4.63-4.9a10.07 10.07 0 002.1 2.55 16.59 16.59 0 002.12-2.55zm20.31-7.07a14.91 14.91 0 00-.52 1.67 23 23 0 01-3.18 7.1 18.29 18.29 0 01-3.77 4.3 9.72 9.72 0 00-2.37-2.1 16.25 16.25 0 003.62-3.55 16.69 16.69 0 003-6.12h-3.15a16.72 16.72 0 00-2.49.15v-3.05a17.3 17.3 0 002.67.13h2.62a15.21 15.21 0 002.2-.1zm12.38-1.6l-1.33 1.47a37.53 37.53 0 01-4.47 4.23 22.28 22.28 0 002.85 3.3 17.49 17.49 0 004.34 3.1 13.6 13.6 0 00-2.14 2.7 22 22 0 01-4.28-3.73 22.49 22.49 0 01-4-6.55c.1 2.5.13 3.08.13 3.9v6c0 1.12-.17 1.62-.65 2a3.58 3.58 0 01-2.4.58c-.92 0-2.27-.08-3.25-.15a8.87 8.87 0 00-.7-2.88 23 23 0 003.25.3c.75 0 .9-.1.9-.62v-16.52a16.73 16.73 0 00-.17-2.63h3.17a17.08 17.08 0 00-.17 2.65v1.8a14.52 14.52 0 001.65 4.52 18.28 18.28 0 004.65-5.42zm3.6 17.52a18.94 18.94 0 003.17-5 16.85 16.85 0 001.33-6.85 16.12 16.12 0 00-1.28-6.62 20.2 20.2 0 00-3.19-5h3.52a19.87 19.87 0 012.72 4.93 17.54 17.54 0 011.28 6.67 18.9 18.9 0 01-1.3 6.9 21.18 21.18 0 01-2.73 4.92z"/><path class="cls-5" d="M821.52 344c0-.13.05-1.4.07-1.8a15.21 15.21 0 01-2.55 3.5 34.38 34.38 0 01-4.92 4.35 37.74 37.74 0 01-3.7 2.3 7.25 7.25 0 00-2.07-2.6 26.57 26.57 0 007.87-5.43 24.43 24.43 0 003.35-4.12h-6.85a30.64 30.64 0 00-3.08.12v-3a15 15 0 003.15.17h8.65v-2a18.83 18.83 0 00-.13-2.3h3.3a17 17 0 00-.1 2.13v2.15h2.53a14.37 14.37 0 002.95-.17v3a27.13 27.13 0 00-2.88-.1h-2.57l.12 11.6c0 1.22.08 2.17.15 2.87h-3.4a15.87 15.87 0 00.15-2.4v-.45l-.07-7.47zm14.85-9.3a35.58 35.58 0 013.37 8l-3.25 1.15a31.74 31.74 0 00-3.17-8.07zm15.37 2.58a6.59 6.59 0 00-.4 1.2A27.84 27.84 0 01847 348a22.51 22.51 0 01-8.35 6.83 9.52 9.52 0 00-2.3-2.68 18.71 18.71 0 0011.08-12 11.58 11.58 0 00.82-3.55zm-2.32-4.7a13.31 13.31 0 011.9 3.22l-2 .78a13.38 13.38 0 00-1.9-3.28zm2.9 3a16.7 16.7 0 00-1.88-3.2l1.95-.72a12.68 12.68 0 011.9 3.1zm5.05 14.77a24 24 0 007.4-1.85 16.7 16.7 0 007.42-6.13 20.9 20.9 0 002.55-5 11.06 11.06 0 002.65 2.45c-2.12 4.57-4.5 7.52-7.92 9.79a26.9 26.9 0 01-9.53 3.75 8.51 8.51 0 00-1.64.43zm2.12-15.52a35.29 35.29 0 016.45 4.82l-2.15 2.72a26.42 26.42 0 00-6.37-5.07zm30.15 4.82a14.91 14.91 0 00-.52 1.67 23 23 0 01-3.18 7.1 18.07 18.07 0 01-3.77 4.3 9.54 9.54 0 00-2.37-2.1 16.25 16.25 0 003.62-3.55 16.69 16.69 0 003-6.12h-3.14a16.87 16.87 0 00-2.5.15v-3.05a17.3 17.3 0 002.67.13h2.63a15.14 15.14 0 002.19-.1zm12.38-1.6l-1.33 1.47a37.53 37.53 0 01-4.47 4.23 22.28 22.28 0 002.85 3.3 17.36 17.36 0 004.35 3.1 13.62 13.62 0 00-2.15 2.7 22 22 0 01-4.28-3.73 22.49 22.49 0 01-4-6.55c.1 2.5.13 3.08.13 3.9v6c0 1.12-.17 1.62-.65 2a3.58 3.58 0 01-2.4.58c-.92 0-2.27-.08-3.25-.15a8.87 8.87 0 00-.7-2.88 23 23 0 003.25.3c.75 0 .9-.1.9-.62v-16.52a16.73 16.73 0 00-.17-2.63h3.17a17.08 17.08 0 00-.17 2.65v1.8a14.52 14.52 0 001.65 4.52 18.28 18.28 0 004.65-5.42z"/><path class="cls-3" d="M673.6 115.57a16.87 16.87 0 00-.15-2.73h3.15a18.46 18.46 0 00-.15 2.63v1.62h6.85a16.9 16.9 0 002.27-.1 19.52 19.52 0 00-.1 2.2v7.63a17.18 17.18 0 00.13 2.5h-3v-1.5h-6.2v5.07a20.47 20.47 0 00.17 3.1h-3.2a20.24 20.24 0 00.18-3.1v-5.07h-5.9v1.5h-3a18.71 18.71 0 00.13-2.5v-7.65a20.89 20.89 0 00-.1-2.18 18 18 0 002.24.1h6.58zm-5.9 4.17v5.43h5.9v-5.43zm14.95 5.43v-5.43h-6.2v5.43zm6.23-.95a22.29 22.29 0 00.89-6.5l2 .25a31.41 31.41 0 01-.92 7zm3.17 11.78a24.58 24.58 0 00.18-3.15v-17.43a17.15 17.15 0 00-.18-2.65h3a20.2 20.2 0 00-.15 2.65V133a24.21 24.21 0 00.15 3zm11.05-18v-2.5a16.23 16.23 0 00-.18-2.65h3a16 16 0 00-.18 2.65v2.5h2.93a17.55 17.55 0 002.74-.15v2.78a22.74 22.74 0 00-2.72-.15h-3v4.37h2.5a18.91 18.91 0 002.7-.12v2.7a18.61 18.61 0 00-2.72-.15h-2.48v5.29h3.4a22.93 22.93 0 002.93-.14v2.82a19.57 19.57 0 00-2.93-.18h-10a19.68 19.68 0 00-3 .18v-2.82a23 23 0 003 .14h4v-5.29h-2.25a20.75 20.75 0 00-2.78.15v-2.7h.4a14.47 14.47 0 00-2.25-1.4 10.47 10.47 0 001.33-2.5l-1.45.7a14.33 14.33 0 00-1.15-3.73l1.67-.8a20 20 0 011.15 3.18 21 21 0 001.08-5.78l2.67.5a6.64 6.64 0 00-.17.9c-.08.48-.25 1.5-.38 2.15zm-2.73 2.48a18.29 18.29 0 01-1.8 4.3c.55 0 1.1.07 1.9.07h2.63v-4.37zm19.28-4.89c-1.1 0-1.8 0-2.63.1v-2.42a24.82 24.82 0 002.83.15h13.2a23.18 23.18 0 002.82-.15v2.42c-.82-.07-1.45-.1-2.57-.1h-5.73v1h6.7a27.5 27.5 0 003.1-.1 12 12 0 00-.1 2v1.58a12.68 12.68 0 00.12 2h-2.57v-3.52h-7.25V121a14.66 14.66 0 00.1 2.35h-2.87a21.34 21.34 0 00.12-2.35v-2.47h-6.87V122h-2.6a11.45 11.45 0 00.15-2v-1.58a15.14 15.14 0 00-.1-2 26.65 26.65 0 003.07.1h6.35v-1zm15.7 14.53a8.83 8.83 0 002.62 1c-.08 2.17-.35 3.22-1 3.77s-2.15.8-6.42.8c-4.9 0-5.63-.25-5.63-1.93v-1.7h-4.77v1.28h-2.78a17.44 17.44 0 00.15-2.47v-4.6a21.35 21.35 0 00-.12-2.4 21.29 21.29 0 002.37.1H733a22.91 22.91 0 002.48-.1 19.49 19.49 0 00-.1 2.42zm-16.25-11a6.39 6.39 0 001.3.07h2.2a8.47 8.47 0 001.27-.07v1.67a8.74 8.74 0 00-1.27-.07h-2.2a9.2 9.2 0 00-1.3.07zm0 2.35a6.39 6.39 0 001.3.07h2.2a8.3 8.3 0 001.27-.07v1.67a8.13 8.13 0 00-1.27-.07h-2.2a9.11 9.11 0 00-1.3.07zm1 4.37V127h4.77v-1.15zm0 2.93v1.25h4.77v-1.25zm7.37-1.78h5.2v-1.15h-5.2zm0 3h5.2v-1.25h-5.2zm0 2.89c0 .21.05.33.18.38a12.17 12.17 0 003.52.27 11.87 11.87 0 003.55-.32c.3-.15.4-.37.48-1.23h-7.73zm1.18-13.79a6.24 6.24 0 001.3.07h2.55a8.56 8.56 0 001.27-.07v1.67a8.93 8.93 0 00-1.27-.07H730a8.93 8.93 0 00-1.3.07zm0 2.35a6.24 6.24 0 001.3.07h2.55a8.3 8.3 0 001.27-.07v1.67a8.3 8.3 0 00-1.27-.07H730a9.11 9.11 0 00-1.3.07zm22.35-5.82a13.61 13.61 0 00-.75 1.4c-.25.45-.67 1.22-1.05 1.82a18.59 18.59 0 002.38-.1c0 .43 0 .58-.08 1.28a7 7 0 002.4-1.65 4.07 4.07 0 001.08-2.28h-.7a15.06 15.06 0 00-2.23.13v-2.63a14.68 14.68 0 002.63.15h6.15a17.27 17.27 0 002.22-.1c-.08.55-.13 1.28-.22 2.7a10.65 10.65 0 01-.93 4.2c-.42.63-1 .83-2.55.83-.4 0-.4 0-1.82-.05a6.47 6.47 0 00-.58-2.48 10.14 10.14 0 001.93.25c.65 0 .9-.12 1-.5a14 14 0 00.38-2.5h-2.66a7.68 7.68 0 01-1.43 3.53 8.27 8.27 0 01-2.75 2.4l2.33.5c-.23 1-.23 1-.3 1.4h1.35v-.2a10 10 0 00-.15-1.83h2.82c-.05.63-.07 1.18-.07 1.83v.2h1.6a11.19 11.19 0 002.22-.15v2.62a18.4 18.4 0 00-2.22-.1h-1.6v2.25h1.92a16.31 16.31 0 002.4-.12v2.65a17.79 17.79 0 00-2.35-.1h-2v2.49a13.17 13.17 0 00.15 2.45h-2.9a16.79 16.79 0 00.15-2.45V131h-2.5a14.64 14.64 0 00-2.25.12v-2.67a14.77 14.77 0 002.27.12h2.48v-2.25h-2a13.14 13.14 0 01-.8 1.93 9.06 9.06 0 00-2.22-1.15 10.41 10.41 0 001.32-3.3 12.5 12.5 0 00.28-1.65.13.13 0 000-.08l-.27.18a7.61 7.61 0 00-1.58-2.08v13.22c0 1.78-.7 2.25-3.25 2.25h-1.55a8.43 8.43 0 00-.57-2.5 20.84 20.84 0 002.1.17c.82 0 1-.12 1-.52v-3.05h-5.13a15.4 15.4 0 01-1.49 6.12 9.7 9.7 0 00-2.08-1.95c1.22-2.17 1.5-4.39 1.5-11.64v-1.38a7.55 7.55 0 00-1.65-1.7 10.58 10.58 0 002.83-3.87 9.59 9.59 0 00.92-2.7l2.65.5a12.65 12.65 0 00-.53 1.35h2.25a5.32 5.32 0 001.3-.1zm-4.35 3.22a17.85 17.85 0 001.15-2.2h-2.45a19.54 19.54 0 01-1.3 2.2h2.6zm-.85 8.68v-2.25h-1.5v2.28zm-1.42-6.45v2.12h1.42v-2.12zm4.9 0h-1.48v2.12h1.45zm0 4.2h-1.48v2.25h1.45zm26.72-5.08a17.07 17.07 0 00-.53 1.68 23 23 0 01-3.17 7.1 18.48 18.48 0 01-3.78 4.29 9.33 9.33 0 00-2.37-2.09 16 16 0 003.62-3.55 16.59 16.59 0 003-6.13h-3.17a16.87 16.87 0 00-2.5.15v-3a17.38 17.38 0 002.67.13h2.63a15.3 15.3 0 002.2-.1zm12.37-1.6l-1.32 1.48a38.38 38.38 0 01-4.48 4.22 22.36 22.36 0 002.85 3.3 17.11 17.11 0 004.35 3.1 13.92 13.92 0 00-2.15 2.7 21.85 21.85 0 01-4.27-3.72 22.41 22.41 0 01-4-6.55c.1 2.5.12 3.07.12 3.9v6c0 1.12-.18 1.62-.65 2a3.58 3.58 0 01-2.4.58c-.93 0-2.28-.08-3.25-.15a9.13 9.13 0 00-.7-2.88 21.38 21.38 0 003.25.3c.75 0 .9-.09.9-.62v-16.53a15.5 15.5 0 00-.18-2.63h3.18a15.83 15.83 0 00-.18 2.65v1.75a14.66 14.66 0 001.65 4.53 18.27 18.27 0 004.65-5.43z"/><path class="cls-1" d="M169.58 116.91a25.14 25.14 0 00-2.62.1v-2.43a24.64 24.64 0 002.82.15H183a23.18 23.18 0 002.82-.15V117a23.91 23.91 0 00-2.57-.1h-5.72v1h6.69a30.09 30.09 0 003.1-.1 12 12 0 00-.1 2v1.57a11.59 11.59 0 00.13 2h-2.58v-3.53h-7.24v2.48a14.73 14.73 0 00.1 2.35h-2.88a19.11 19.11 0 00.13-2.35v-2.48H168v3.53h-2.6a11.65 11.65 0 00.15-2v-1.57a15.14 15.14 0 00-.1-2 29.37 29.37 0 003.08.1h6.35v-1zm15.7 14.52a8.57 8.57 0 002.62 1c-.07 2.17-.35 3.22-1 3.77s-2.15.8-6.42.8c-4.9 0-5.62-.25-5.62-1.92v-1.7h-4.78v1.27h-2.77a19 19 0 00.15-2.47v-4.6a21.17 21.17 0 00-.13-2.4 19.27 19.27 0 002.38.1h13.19a20.58 20.58 0 002.48-.1 19.67 19.67 0 00-.1 2.43zm-16.25-11a5.61 5.61 0 001.3.08h2.2a8.49 8.49 0 001.28-.08v1.68a8.69 8.69 0 00-1.28-.08h-2.2a9 9 0 00-1.3.08zm0 2.35a5.61 5.61 0 001.3.08h2.2a8.21 8.21 0 001.28-.08v1.68a7.94 7.94 0 00-1.28-.08h-2.2a9.09 9.09 0 00-1.3.08zm1.05 4.38v1.15h4.78v-1.15zm0 2.92v1.25h4.78v-1.25zm7.38-1.77h5.19v-1.15h-5.19zm0 3h5.19v-1.25h-5.19zm0 2.9c0 .2 0 .32.17.37a20.65 20.65 0 007.07-.05c.3-.15.4-.37.48-1.22h-7.72zm1.17-13.8a5.47 5.47 0 001.3.08h2.55a8.34 8.34 0 001.27-.08v1.68a8.73 8.73 0 00-1.27-.08h-2.55a8.69 8.69 0 00-1.3.08zm0 2.35a5.47 5.47 0 001.3.08h2.55a8.07 8.07 0 001.27-.08v1.68a8.07 8.07 0 00-1.27-.08h-2.55a8.89 8.89 0 00-1.3.08zm22.28-5.83a11.81 11.81 0 00-.75 1.4c-.25.45-.68 1.23-1 1.83a20.35 20.35 0 002.37-.1 11.58 11.58 0 00-.07 1.27 6.84 6.84 0 002.4-1.65 4.1 4.1 0 001.07-2.27h-.7a16.89 16.89 0 00-2.22.12v-2.62a15.55 15.55 0 002.62.15h6.15A19.2 19.2 0 00213 115c-.07.55-.12 1.27-.22 2.7a10.7 10.7 0 01-.93 4.2c-.42.62-1 .82-2.55.82-.4 0-.4 0-1.82-.05a6.46 6.46 0 00-.58-2.47 11 11 0 001.93.25c.65 0 .9-.13 1-.5a14 14 0 00.38-2.5h-2.65a7.64 7.64 0 01-1.43 3.52 8.22 8.22 0 01-2.74 2.4l2.32.5c-.23 1-.23 1-.3 1.4h1.35V125a9.91 9.91 0 00-.15-1.82h2.82c-.05.62-.07 1.17-.07 1.82v.2h1.55a11.19 11.19 0 002.22-.15v2.63a16.53 16.53 0 00-2.22-.1h-1.55v2.25h1.92a16 16 0 002.4-.13v2.65a19.73 19.73 0 00-2.35-.1h-2v2.5a13.17 13.17 0 00.15 2.45h-2.9a17 17 0 00.15-2.45v-2.5h-2.5a14.58 14.58 0 00-2.25.13v-2.68a14.69 14.69 0 002.27.13h2.48v-2.25h-2a16.43 16.43 0 01-.8 1.92 9.86 9.86 0 00-2.23-1.15 10.36 10.36 0 001.33-3.3 13.66 13.66 0 00.27-1.65.12.12 0 000-.07l-.28.17a7.53 7.53 0 00-1.57-2.07v13.22c0 1.77-.7 2.25-3.25 2.25h-1.55a8.51 8.51 0 00-.58-2.5 18.92 18.92 0 002.1.18c.83 0 1.05-.13 1.05-.53v-3h-5.12a15.48 15.48 0 01-1.5 6.12 9.45 9.45 0 00-2.08-1.95c1.23-2.18 1.5-4.4 1.5-11.65v-1.37a7.35 7.35 0 00-1.65-1.7 10.53 10.53 0 002.83-3.88 9.38 9.38 0 00.92-2.7l2.65.5c-.12.28-.12.28-.52 1.35h2.25a4.94 4.94 0 001.3-.1zm-4.35 3.23a19.33 19.33 0 001.15-2.2h-2.45a19.54 19.54 0 01-1.3 2.2h2.6zm-.85 8.67v-2.25h-1.48v2.27zm-1.43-6.45v2.13h1.43v-2.13zm4.9 0h-1.45v2.13h1.45zm0 4.2h-1.45v2.25h1.45zm24.9 1.13a42 42 0 01-5.15 5.54c-.5.46-.6.55-.82.78l-1.88-2.62a11.7 11.7 0 002.18-1.65 23.94 23.94 0 004-4.23zm-5.17-12.4a29.75 29.75 0 014.3 4l-2.15 2a22.07 22.07 0 00-4.3-4.22zm12.27 6.15a4.26 4.26 0 00-.1 1.05 15.63 15.63 0 00.77 5 11.18 11.18 0 003.5 4.6 15.41 15.41 0 004.2 2.35 12.55 12.55 0 00-1.6 2.65 20.5 20.5 0 01-5-3.55 12.69 12.69 0 01-3.18-5.15 13.33 13.33 0 01-2.57 4.93 15.9 15.9 0 01-5.37 3.82 8.2 8.2 0 00-1.58-2.38 12.2 12.2 0 008.13-12.22 6.72 6.72 0 00-.1-1.12zm3.95-3.55a13.86 13.86 0 002.42-.15l1.5 1.45c-.17.42-.25.6-.55 1.3a22.43 22.43 0 01-3.55 6 11.37 11.37 0 00-2.3-1.58 13.12 13.12 0 003.1-4.67h-8.29a21.24 21.24 0 01-3.7 5.25 8.53 8.53 0 00-2.08-2 16.2 16.2 0 005.08-9.3l3 .53c-.19.47-.24.62-.74 1.95-.15.4-.25.7-.45 1.2zm10.53-.33a25.29 25.29 0 00-3.13.15V115a25.43 25.43 0 003.15.15h16.05a27 27 0 003.15-.15v2.77a25.9 25.9 0 00-3.05-.15h-4.18v3h2.8a25 25 0 003-.12 21.78 21.78 0 00-.1 2.55v4.7a22 22 0 00.1 2.57 24.38 24.38 0 00-2.9-.12h-2.93v3.67h4.65a22.76 22.76 0 002.88-.15v2.87a24.09 24.09 0 00-3.15-.17h-16.7a23.38 23.38 0 00-3.15.17v-2.87a23.44 23.44 0 002.9.15h4.48v-3.67h-2.83a25 25 0 00-2.9.12 18 18 0 00.13-2.57V123a17.85 17.85 0 00-.13-2.55 25.24 25.24 0 003 .12h2.7v-3zm3.9 5.43h-2.95v4.75h2.95zm2.6-2.43h2.9v-3h-2.9zm2.9 2.43h-2.9v4.75h2.9zm-2.9 10.82h2.9v-3.67h-2.9zm8.59-6.07V123h-3.1v4.75zm16.68-6.25a14.91 14.91 0 00-.52 1.67 23 23 0 01-3.18 7.1 18.29 18.29 0 01-3.77 4.3 9.58 9.58 0 00-2.38-2.1 16.29 16.29 0 003.63-3.55 16.69 16.69 0 003-6.12H271a17 17 0 00-2.5.15v-3a17.86 17.86 0 002.68.12h2.62a13.84 13.84 0 002.2-.1zm12.37-1.6l-1.32 1.47a37.63 37.63 0 01-4.48 4.23 22.88 22.88 0 002.85 3.3 17.55 17.55 0 004.35 3.1 14.21 14.21 0 00-2.15 2.69 21.53 21.53 0 01-4.27-3.72 22.28 22.28 0 01-3.95-6.55c.1 2.5.13 3.08.13 3.9v6c0 1.13-.17 1.63-.65 2a3.58 3.58 0 01-2.4.57c-.92 0-2.27-.07-3.25-.15a8.81 8.81 0 00-.7-2.87 23 23 0 003.25.3c.75 0 .9-.1.9-.62V117a16.68 16.68 0 00-.17-2.62h3.17a17 17 0 00-.17 2.65v1.75a14.22 14.22 0 001.64 4.52 18.25 18.25 0 004.65-5.42z"/><path class="cls-2" d="M415.52 119.9a15.41 15.41 0 001.75-.07c0 .5 0 .67-.08 1.2a35.32 35.32 0 01-.62 6.62c-.33 1.53-.8 2.3-1.68 2.73a5.28 5.28 0 01-2.17.32h-2.17a11.31 11.31 0 00-.53-2.77 16.66 16.66 0 002.45.22c.93 0 1.23-.12 1.4-.62a16.65 16.65 0 00.7-5.23h-4.6a47.13 47.13 0 00.75-8 12.11 12.11 0 002.08.1h1.89v-3h-2.44a15 15 0 00-2.18.1v-2.68a10.44 10.44 0 002.33.15h3c.82 0 1.35 0 1.92-.07a16.35 16.35 0 00-.07 1.9v3.74c0 .75 0 1.53.07 2.33a16.23 16.23 0 00-1.77-.08h-2.35c-.18 2.13-.18 2.13-.3 3.1zm8.07-4.85c-3.32.18-5.15.3-5.45.35l-.27-2.62a9.73 9.73 0 001.3.08h.72a22.55 22.55 0 002.3-4.82l2.88.52c-.28.55-.28.55-.93 1.75a21.79 21.79 0 01-1.47 2.47c1.85-.1 3.62-.19 5.3-.32-.58-.75-1-1.17-2-2.3l2.07-1.1a37.91 37.91 0 014.55 5.67l-2.17 1.5c-.48-.85-.68-1.12-1-1.65-1.38.15-2.2.23-3.4.33V117h3.37a16.1 16.1 0 002-.1 9.11 9.11 0 00-.1 1.75v3.72a11.5 11.5 0 00.1 2 19.14 19.14 0 00-2.07-.1h-3.3v3c1.35-.15 1.35-.15 2.62-.32-.25-.45-.45-.78-.87-1.48l2.15-.87a28.53 28.53 0 013 5.67l-2.35 1a21.76 21.76 0 00-.87-2.2c-3.05.5-7.33 1.07-10.33 1.37-1.17.13-1.22.13-1.67.2l-.43-2.85a4.21 4.21 0 00.75 0c1 0 3.33-.12 5.55-.3v-3.2h-3a18.93 18.93 0 00-2.15.1c.05-.6.1-1.22.1-2v-3.58c0-.65-.05-1.27-.1-1.85.63 0 1.15.08 2.1.08h3zm-2.67 4.13V122h2.67v-2.8zm5.15 2.8h2.85v-2.8h-2.85zm20.37-7.05a12.63 12.63 0 00-.1 2c-.1 4.28-.77 6.68-2.47 8.85-1.5 1.93-3.33 3.2-6.45 4.5a8.81 8.81 0 00-2-2.85 11.57 11.57 0 004.37-2.12c2.55-2 3.35-4.18 3.35-8.9a6.27 6.27 0 00-.13-1.5zm10.15-3.15a7.06 7.06 0 00-1 1.75 15.7 15.7 0 01-3.85 5 15.29 15.29 0 01-3 2.08 8.39 8.39 0 00-2.25-2.28 11.39 11.39 0 003.65-2.3 10.36 10.36 0 002.38-3.17h-13.13a23.1 23.1 0 00-3.39.14v-3.12a19.84 19.84 0 003.44.2h13.05a6.88 6.88 0 002.43-.23zm9.05-2.15a52.24 52.24 0 00-.25 5.6c-.17 4.87-.72 7.7-2 10.27a15.94 15.94 0 01-3.45 4.63 8.9 8.9 0 00-2.52-2.43 10.31 10.31 0 002.57-2.87c1.8-2.88 2.37-6.1 2.37-13.1a13.87 13.87 0 00-.09-2.27zm6.63-.3a13.52 13.52 0 00-.18 2.38l-.09 14.22a10.1 10.1 0 003.82-2.85 12.17 12.17 0 002.45-4.58 10.48 10.48 0 002.35 2.35 15.47 15.47 0 01-4 5.83 16.79 16.79 0 01-5.33 3 10.2 10.2 0 00-1.07.45l-1.6-1.7a11.32 11.32 0 00.22-2.65l.13-14.1v-.75a11.6 11.6 0 00-.1-1.65zm30.02 4.9a3.83 3.83 0 00-.27 1.67c-.08 2.83-.35 6.68-.6 8.33-.65 4.32-1.53 5.35-4.53 5.35a19.14 19.14 0 01-3.1-.28 7.58 7.58 0 00-.57-3.2 13 13 0 003.3.58c1.07 0 1.45-.55 1.85-2.73a56 56 0 00.55-8h-5.82a18.59 18.59 0 01-2 7.15 18.36 18.36 0 01-6.75 6.92 10 10 0 00-2.25-2.65 14.1 14.1 0 006.5-6.3 12.79 12.79 0 001.27-4.35c.05-.35.1-.6.13-.77h-4.15a17.51 17.51 0 00-2.7.13V113a13.64 13.64 0 002.78.2h4.37c.08-1 .12-2.4.12-3.12v-.63a5.17 5.17 0 00-.07-1l3.35.07a6.39 6.39 0 00-.1.78v.47c-.05.53-.05.53-.1 1.83 0 .55 0 .77-.1 1.57h5.55a5.05 5.05 0 002-.23zm9.43-4.92a12.68 12.68 0 00-.1 2.25v6.89a12 12 0 00.1 2.2h-3.42a19.14 19.14 0 00.12-2.25v-6.87a15.1 15.1 0 00-.1-2.25zm11.35 0a11.78 11.78 0 00-.13 2.33V115a29.22 29.22 0 01-.65 7.57 9.56 9.56 0 01-4.92 5.83 21.17 21.17 0 01-4.87 1.92 8.52 8.52 0 00-1.75-3 13.57 13.57 0 005.39-2c2.35-1.55 3.18-3.08 3.45-6.38.1-1.07.13-2.17.13-4.17v-3.12a13.1 13.1 0 00-.13-2.38zm4.5 10.02a22.29 22.29 0 00.9-6.5l2 .25a31.34 31.34 0 01-.93 7zm3.18 11.75a24.93 24.93 0 00.17-3.15v-17.4a17.26 17.26 0 00-.17-2.65h3a20.31 20.31 0 00-.15 2.65v17.6a24.32 24.32 0 00.15 3zm11-18v-2.5a17.44 17.44 0 00-.17-2.65h3a17.26 17.26 0 00-.17 2.65v2.5h2.92a19 19 0 002.75-.15v2.77a22.87 22.87 0 00-2.72-.15h-2.95V120H547a19 19 0 002.7-.12v2.7a18.76 18.76 0 00-2.73-.15h-2.47v5.3h3.4a22.36 22.36 0 002.92-.15v2.82a20.88 20.88 0 00-2.92-.17h-10a21.24 21.24 0 00-3 .17v-2.82a22.66 22.66 0 003 .15h4v-5.3h-2.25a20.69 20.69 0 00-2.77.15v-2.7h.4a14.47 14.47 0 00-2.25-1.4 10.47 10.47 0 001.33-2.5l-1.45.7a14.13 14.13 0 00-1.15-3.72l1.67-.8a19.92 19.92 0 011.15 3.17 20.93 20.93 0 001.08-5.77l2.67.5a6 6 0 00-.18.9c-.07.47-.25 1.5-.37 2.15zm-2.72 2.47a18.29 18.29 0 01-1.8 4.3c.55.05 1.1.07 1.9.07h2.62v-4.37zm-91.4 25.16a25.14 25.14 0 00-2.62.1v-2.43a24.64 24.64 0 002.82.15H461a23.18 23.18 0 002.82-.15v2.43a23.91 23.91 0 00-2.57-.1h-5.72v.95h6.69a30.09 30.09 0 003.1-.1 11.84 11.84 0 00-.1 2v1.58a11.46 11.46 0 00.13 2h-2.55v-3.52h-7.24v2.47a14.66 14.66 0 00.1 2.35h-2.88a18.87 18.87 0 00.13-2.35v-2.47H446v3.52h-2.6a11.45 11.45 0 00.15-2v-1.54a15.08 15.08 0 00-.1-2 29.37 29.37 0 003.08.1h6.35v-.95zm15.7 14.52a8.83 8.83 0 002.62 1c-.07 2.17-.35 3.22-1 3.77s-2.15.8-6.42.8c-4.9 0-5.62-.25-5.62-1.92v-1.7h-4.78v1.27h-2.77a19 19 0 00.15-2.47v-4.6a21.17 21.17 0 00-.13-2.4 21.49 21.49 0 002.38.1H461a22.82 22.82 0 002.47-.1 19.49 19.49 0 00-.1 2.42zm-16.25-10.95a6.39 6.39 0 001.3.07h2.2a8.71 8.71 0 001.28-.07V146a8.89 8.89 0 00-1.28-.07h-2.2a9.2 9.2 0 00-1.3.07zm0 2.35a6.39 6.39 0 001.3.07h2.2a8.45 8.45 0 001.28-.07v1.67a8.19 8.19 0 00-1.28-.07h-2.2a9.3 9.3 0 00-1.3.07zm1.05 4.37v1.15h4.78V151zm0 2.93v1.25h4.78v-1.25zm7.38-1.78h5.2V151h-5.2zm0 3h5.2v-1.25h-5.2zm0 2.9c0 .2.05.32.17.37a20.64 20.64 0 007.07 0c.3-.15.4-.37.48-1.22h-7.72zm1.17-13.8a6.29 6.29 0 001.3.07h2.55a8.71 8.71 0 001.28-.07V146a9.17 9.17 0 00-1.28-.07H458a9 9 0 00-1.3.07zm0 2.35a6.29 6.29 0 001.3.07h2.55a8.54 8.54 0 001.28-.07v1.67a8.45 8.45 0 00-1.28-.07H458a9.3 9.3 0 00-1.3.07zm22.32-5.87a11.81 11.81 0 00-.75 1.4c-.25.45-.68 1.23-1 1.82a18.32 18.32 0 002.37-.1 12 12 0 00-.07 1.28 7.11 7.11 0 002.4-1.65 4 4 0 001.07-2.27h-.7a16.89 16.89 0 00-2.22.12v-2.62a15.55 15.55 0 002.62.15h6.15a19.2 19.2 0 002.22-.1c-.07.55-.12 1.27-.22 2.7a10.64 10.64 0 01-.93 4.19c-.42.63-1 .83-2.54.83h-1.83A6.66 6.66 0 00485 144a10.06 10.06 0 001.92.25c.65 0 .9-.12 1-.5a12.85 12.85 0 00.38-2.49h-2.65a7.64 7.64 0 01-1.42 3.52 8.47 8.47 0 01-2.75 2.4l2.32.5-.3 1.4h1.35v-.2a10 10 0 00-.15-1.83h2.83c0 .63-.08 1.18-.08 1.83v.2H489a11.19 11.19 0 002.22-.15v2.62a18.4 18.4 0 00-2.22-.1h-1.55v2.25h1.93a16.09 16.09 0 002.39-.12v2.65a17.79 17.79 0 00-2.35-.1h-2v2.5a14.1 14.1 0 00.15 2.45h-2.9a17 17 0 00.15-2.45v-2.5h-2.5a14.72 14.72 0 00-2.25.12v-2.67a14.91 14.91 0 002.28.12h2.47v-2.3h-2a15.8 15.8 0 01-.8 1.93 9.08 9.08 0 00-2.23-1.15 10.45 10.45 0 001.33-3.3 14 14 0 00.27-1.65.17.17 0 000-.08l-.28.18a7.55 7.55 0 00-1.57-2.08v13.23c0 1.77-.7 2.25-3.25 2.25h-1.55a8.51 8.51 0 00-.58-2.5 18.92 18.92 0 002.1.18c.83 0 1.05-.13 1.05-.53v-3h-5.12a15.49 15.49 0 01-1.5 6.13 9.45 9.45 0 00-2.08-2c1.23-2.18 1.5-4.4 1.5-11.65V146a7.55 7.55 0 00-1.65-1.7 10.49 10.49 0 002.83-3.87 9.38 9.38 0 00.92-2.7l2.65.5c-.12.28-.12.28-.52 1.35h2.25a4.94 4.94 0 001.3-.1zm-4.39 3.27a19.21 19.21 0 001.15-2.19h-2.45A18.56 18.56 0 01472 144h2.6zm-.85 8.68v-2.25h-1.48v2.28zm-1.43-6.45v2.12h1.43v-2.12zm4.9 0h-1.45v2.12h1.45zm0 4.2h-1.45v2.25h1.45zM504 145.3a15.33 15.33 0 00-.52 1.68 23 23 0 01-3.18 7.1 18.7 18.7 0 01-3.77 4.3 9.72 9.72 0 00-2.37-2.1 16.46 16.46 0 003.62-3.55 16.73 16.73 0 003-6.13h-3.15a17 17 0 00-2.5.15v-3.05a17.53 17.53 0 002.68.13h2.62a15.21 15.21 0 002.2-.1zm12.37-1.6l-1.37 1.48a39.09 39.09 0 01-4.47 4.22 22.29 22.29 0 002.84 3.3 17.47 17.47 0 004.35 3.1 14.31 14.31 0 00-2.15 2.7 21.85 21.85 0 01-4.27-3.72 22.62 22.62 0 01-3.95-6.55c.1 2.5.13 3.07.13 3.9v6c0 1.13-.17 1.63-.65 2a3.58 3.58 0 01-2.4.57c-.92 0-2.27-.07-3.25-.15a8.81 8.81 0 00-.7-2.87 23 23 0 003.25.3c.75 0 .9-.1.9-.63v-16.52a16.68 16.68 0 00-.17-2.62h3.17a17 17 0 00-.17 2.65v1.75a14.7 14.7 0 001.65 4.52 18.53 18.53 0 004.65-5.42z"/><path class="cls-7" d="M197.4 548.87a10.53 10.53 0 00-.1 2c-.1 4.27-.78 6.67-2.48 8.84-1.5 1.93-3.32 3.2-6.45 4.5a8.81 8.81 0 00-2-2.85 11.57 11.57 0 004.37-2.12c2.55-2 3.35-4.17 3.35-8.9a6.39 6.39 0 00-.12-1.5zm10.14-3.15a7.06 7.06 0 00-1 1.75 15.92 15.92 0 01-6.84 7.1 8.51 8.51 0 00-2.25-2.27 11.8 11.8 0 003.65-2.3 10.37 10.37 0 002.37-3.18h-13.12a24.77 24.77 0 00-3.4.15v-3.12a19.89 19.89 0 003.45.2h13a6.85 6.85 0 002.42-.23zm9.06-2.15a52.24 52.24 0 00-.25 5.6c-.18 4.88-.73 7.7-2 10.27a15.94 15.94 0 01-3.45 4.63 8.9 8.9 0 00-2.52-2.43 10.31 10.31 0 002.57-2.87c1.8-2.87 2.38-6.1 2.38-13.1a12.5 12.5 0 00-.1-2.27zm6.62-.3a13.71 13.71 0 00-.17 2.38l-.13 14.22a10.21 10.21 0 003.83-2.85 12.25 12.25 0 002.44-4.57 10.69 10.69 0 002.35 2.35 15.51 15.51 0 01-4 5.82 16.61 16.61 0 01-5.32 3 11.63 11.63 0 00-1.08.45l-1.6-1.7a11.2 11.2 0 00.23-2.65l.12-14.1v-.75a10.29 10.29 0 00-.1-1.65zm30.03 4.9a4 4 0 00-.28 1.68c-.07 2.82-.35 6.67-.6 8.32-.65 4.32-1.52 5.35-4.52 5.35a19.14 19.14 0 01-3.1-.28 7.57 7.57 0 00-.58-3.2 13.09 13.09 0 003.3.58c1.08 0 1.45-.55 1.85-2.73a56 56 0 00.55-8h-5.82A17.27 17.27 0 01235.3 564a10 10 0 00-2.25-2.65 14.08 14.08 0 006.5-6.29 12.86 12.86 0 001.27-4.35c.05-.35.1-.6.13-.78h-4.15a18 18 0 00-2.7.12v-3.07a14.29 14.29 0 002.77.2h4.37c.08-.95.13-2.4.13-3.12v-.63a4.54 4.54 0 00-.08-1l3.35.07c-.05.33-.07.43-.1.78v.47c-.05.53-.05.53-.1 1.83 0 .55 0 .77-.1 1.57h5.55a5 5 0 002-.23zm9.42-4.92a12.68 12.68 0 00-.1 2.25v6.9a12.1 12.1 0 00.1 2.2h-3.42a17.29 17.29 0 00.12-2.25v-6.88a15.1 15.1 0 00-.1-2.25zm11.35 0a12.06 12.06 0 00-.12 2.33V549c0 3.9-.2 6-.65 7.57a9.61 9.61 0 01-4.93 5.83 20.8 20.8 0 01-4.87 1.92 8.52 8.52 0 00-1.75-3 13.56 13.56 0 005.4-2c2.35-1.55 3.17-3.07 3.45-6.37.1-1.08.12-2.18.12-4.18v-3.12a13.37 13.37 0 00-.12-2.38zm-69.34 31.4a9.53 9.53 0 00-.92.87 44.16 44.16 0 01-5.9 5.15v10.67a18.82 18.82 0 00.13 2.78h-3.5a14.56 14.56 0 00.15-2.7v-8.8a40.67 40.67 0 01-8.93 4 9.45 9.45 0 00-1.67-2.85 36.37 36.37 0 0013.12-6.5 20.2 20.2 0 004.65-4.67zm15.46 8.95c0-.13.05-1.4.07-1.8a15.21 15.21 0 01-2.55 3.5 34.94 34.94 0 01-4.92 4.34 35.89 35.89 0 01-3.7 2.3 7.34 7.34 0 00-2.08-2.6 26.64 26.64 0 007.88-5.42 24.43 24.43 0 003.35-4.12h-6.85a25.33 25.33 0 00-3.08.12v-3a14.16 14.16 0 003.15.18h8.65v-2a18.83 18.83 0 00-.13-2.3h3.3a15.19 15.19 0 00-.1 2.12V577h2.52a14.07 14.07 0 002.95-.18v3a24.42 24.42 0 00-2.87-.1h-2.58l.13 11.59c0 1.23.07 2.18.15 2.88h-3.4a16 16 0 00.15-2.4v-.45l-.07-7.47zm12.1 6.34a23.72 23.72 0 007.4-1.85 16.67 16.67 0 007.42-6.12 20.78 20.78 0 002.55-5 10.51 10.51 0 002.65 2.45c-2.13 4.58-4.5 7.52-7.93 9.8a27 27 0 01-9.52 3.75 9 9 0 00-1.65.42zm2.12-15.52a34.84 34.84 0 016.45 4.83l-2.15 2.75a26.42 26.42 0 00-6.37-5.07zm30.15 4.83a14.91 14.91 0 00-.52 1.67 23 23 0 01-3.18 7.1 18.7 18.7 0 01-3.77 4.3 9.58 9.58 0 00-2.38-2.1 16.29 16.29 0 003.63-3.55 16.69 16.69 0 003-6.12h-3.15a17 17 0 00-2.5.15v-3.05a17.86 17.86 0 002.68.12h2.62a13.84 13.84 0 002.2-.1zm12.37-1.6l-1.32 1.47a37.63 37.63 0 01-4.48 4.23 22.88 22.88 0 002.85 3.3 17.51 17.51 0 004.35 3.09 14.31 14.31 0 00-2.15 2.7 21.85 21.85 0 01-4.27-3.72 22.41 22.41 0 01-3.95-6.55c.1 2.5.13 3.08.13 3.9v6c0 1.13-.17 1.63-.65 2a3.58 3.58 0 01-2.4.57c-.92 0-2.27-.07-3.25-.15a8.81 8.81 0 00-.7-2.87 23 23 0 003.25.3c.75 0 .9-.1.9-.63v-16.52a16.68 16.68 0 00-.17-2.62h3.17a17 17 0 00-.17 2.65v1.75a14.27 14.27 0 001.65 4.52 18.34 18.34 0 004.64-5.42z"/><path d="M452.09 373.71a33 33 0 01-3.06 4.43c.44.47.51.57 1 1.11.75-1 1.08-1.58 2.23-3.45l2.63 1.91c-.76.93-.76.93-2.52 3.24a38.32 38.32 0 01-2.88 3.24c1.08-.08 1.47-.11 2.59-.22a10.18 10.18 0 00-.65-1.4l2.27-.83a30.4 30.4 0 012.12 5.65l-2.52.83c-.18-.8-.25-1.05-.39-1.73-.72.11-1.59.21-2.63.32a9.63 9.63 0 011.87 1.48l-1.37 1.29h.79a18.43 18.43 0 003.78-.21v3.78a28.21 28.21 0 00-3.78-.22h-1.22l2.77 1.77a29.08 29.08 0 01-3.92 4.32c1 1.44 2 2.23 2.52 2.23s1-1 1.33-4.36a8.8 8.8 0 002.74 2c-.4 2.63-.8 4-1.48 5.08a2.48 2.48 0 01-2.31 1.13c-1.8 0-3.46-1.19-5.51-3.89a27.77 27.77 0 01-7.88 4 10.18 10.18 0 00-2.05-3.2 24.47 24.47 0 008.28-3.56 22.33 22.33 0 01-1.84-5.55h-4.79a8.34 8.34 0 01-.1 1.15 12.4 12.4 0 004 3 10.25 10.25 0 00-1 1.58l-.76 1.37a11.94 11.94 0 01-3-2.52 16.49 16.49 0 01-4.47 7.49 13.32 13.32 0 00-2.88-2.59c2.85-2.13 4.32-5.08 4.68-9.51-1.33 0-2 .07-2.7.15v-3.64a20.23 20.23 0 002.95.14h7.42c-.15-1-.18-1.33-.25-2l-2 .72c-.07-.61-.11-.83-.14-1.23-.94.15-1.55.26-2.52.4-2.77.36-4.65.61-5.15.72l-.14-1.12a13.45 13.45 0 00-1.05 2.52 19.05 19.05 0 01-1.69-3.31c.07 1 .14 3.13.14 4.39V401a32.52 32.52 0 00.18 4.43h-3.92A35.23 35.23 0 00426 401v-6.3c0-1.62.07-2.92.29-5.94a34.19 34.19 0 01-3.14 8.06 11.28 11.28 0 00-1.72-4 28.54 28.54 0 002.7-5.72 47.11 47.11 0 001.47-4.86h-.86a23.74 23.74 0 00-2.45.14v-3.85a10.16 10.16 0 002.45.18H426v-3a26.29 26.29 0 00-.18-3.78h3.89a29.7 29.7 0 00-.15 3.75v3h.65c.76 0 1.41 0 1.84-.07-.25-.25-.4-.36-.79-.72l2.08-2.49.8.76a17.62 17.62 0 002.3-4.28l3 1.47a34.69 34.69 0 01-3.13 5 13.64 13.64 0 01.86 1.12 16.31 16.31 0 001.88-3.39l2.55 1.73v-1.69a22.45 22.45 0 00-.25-4.1h4a8.79 8.79 0 00-.22 2.41v2.27l1.11-1.55c.44.39.69.65.8.75a16 16 0 002.19-3.92zm-19.79 8.71a14.15 14.15 0 00-2.06-.14h-.5a12.23 12.23 0 002.2 3.53l-.11-.8a3 3 0 00.54 0h.63c1.22-1.4 1.62-1.91 2.26-2.77a24.69 24.69 0 00-3-3.35zm8.6-.14a16.87 16.87 0 01.93 2.37c-.21-3-.28-4.68-.28-6.3-.43.62-.54.8-.79 1.16a43.59 43.59 0 01-4.11 5.29 25.76 25.76 0 002.63-.29c-.25-.58-.32-.79-.65-1.51zm4.14-3.82c0 3.28 0 3.28.18 5.83h.5a26.76 26.76 0 002.28-2.59 19.93 19.93 0 00-3-3.24zm3.6 8.53c-.33 0-.54.07-.69.07a10.2 10.2 0 01-1.54.18l-.9.08c.07.82.1.93.28 2.26h4a6.49 6.49 0 00-2.27-1.54zm-2.23 5.94a13.86 13.86 0 001.15 3.39 9.61 9.61 0 002.73-3.39zm18.18-14.36a16.38 16.38 0 001.73.11 2.23 2.23 0 00.43 0h.54a24.93 24.93 0 003-7l4.18.75a12.9 12.9 0 00-.69 1.34c-.43.93-1.72 3.34-2.55 4.71 2.3-.14 3.17-.21 5.4-.5-.65-1.26-.87-1.59-1.66-2.88l2.88-1.41a54 54 0 014.47 7.53l-3.24 1.91-.83-1.95c-2.31.36-8.43 1-10.91 1.15a16.71 16.71 0 00-2.34.26zm2.05 8.31a31.23 31.23 0 00-.14-3.31 23.3 23.3 0 002.59.11H477a26 26 0 003.24-.14c-.07 1-.11 1.58-.11 3.38v14.33c0 1.54-.29 2.37-1 2.8a7.26 7.26 0 01-3.78.69h-1.51a14.69 14.69 0 00-.79-3.67 13 13 0 002.41.25c.76 0 .9-.11 1-.64v-3h-6.05v3.56a32.37 32.37 0 00.18 4h-4.1a29.29 29.29 0 00.18-3.93zm3.71 2.31h6.08V387h-6.08zm0 5.33h6.08v-2.24h-6.08zm16-17.75a23.77 23.77 0 004-1.51 18.16 18.16 0 004.17-2.52l2.67 3.31c-.76.32-.76.32-2.52 1.19a51 51 0 01-8.32 3.17v2.26c0 .87.33 1 2.59 1 2.92 0 3.75-.11 4.22-.47s.54-1.08.61-3.74a13.39 13.39 0 003.6 1.12c-.29 3.38-.61 4.6-1.44 5.43s-2.31 1.12-7 1.12c-2.88 0-4-.11-4.93-.51a2.15 2.15 0 01-1.41-2.37v-9a17.44 17.44 0 00-.18-3.09h4.14a15.63 15.63 0 00-.18 2.91zm0 16.16a23.66 23.66 0 008.31-3.89l2.74 3.17c-1.05.58-4.57 2.16-5.69 2.59a50.69 50.69 0 01-5.36 1.66v3.38c0 .62.21.83.9 1a10.31 10.31 0 002.55.19c2.38 0 3.28-.19 3.6-.73a10.53 10.53 0 00.58-4.13 14.53 14.53 0 003.67 1.22c-.25 3.38-.65 4.75-1.58 5.79s-2.23 1.34-6.77 1.34c-3.53 0-4.68-.15-5.62-.72a2.36 2.36 0 01-1.11-2.34V392a17.94 17.94 0 00-.18-3.2h4.14a14.28 14.28 0 00-.18 3zm34.47-10.4a22.84 22.84 0 00-.76 2.41 32.93 32.93 0 01-4.57 10.22 26.77 26.77 0 01-5.43 6.2 13.79 13.79 0 00-3.42-3 23.42 23.42 0 005.22-5.11 24.06 24.06 0 004.28-8.82h-4.54a23.34 23.34 0 00-3.59.22v-4.39a25.76 25.76 0 003.85.18h3.78a20.32 20.32 0 003.16-.15zm17.82-2.3s-.69.75-1.91 2.12a54.08 54.08 0 01-6.44 6.08 31.84 31.84 0 004.1 4.75 25 25 0 006.26 4.47 19.71 19.71 0 00-3.09 3.89 31.92 31.92 0 01-6.16-5.37 32.34 32.34 0 01-5.69-9.43c.15 3.6.18 4.43.18 5.62v8.6c0 1.62-.25 2.34-.94 2.91s-1.72.83-3.45.83c-1.33 0-3.28-.11-4.68-.21a12.82 12.82 0 00-1-4.14 32.61 32.61 0 004.68.43c1.08 0 1.3-.14 1.3-.9v-23.79a23.12 23.12 0 00-.25-3.78h4.57a23.41 23.41 0 00-.26 3.81v2.52a21.26 21.26 0 002.38 6.52c3.46-3 5.65-5.58 6.7-7.81z" fill="#fff"/><path d="M102.59 667.76l.68.73-7.57 7.85 7.57 7.81-.68.73-7.59-7.74-7.55 7.74-.71-.73 7.58-7.81-7.58-7.85.71-.73 7.55 7.81zm-12.06 8.56a1.65 1.65 0 01-1.62 1.7 1.68 1.68 0 01-1.64-1.7 1.63 1.63 0 113.26 0zm6.11 6.43a1.68 1.68 0 01-1.64 1.69 1.7 1.7 0 01-.15-3.39h.07a1.66 1.66 0 011.72 1.7zm0-12.79a1.66 1.66 0 01-1.62 1.7 1.69 1.69 0 01-1.65-1.7 1.67 1.67 0 011.63-1.67 1.65 1.65 0 011.66 1.71zm6.08 6.38a1.62 1.62 0 11-1.62-1.67 1.65 1.65 0 011.64 1.67zm9.92-9.57a9.14 9.14 0 003.67 3.85 4.25 4.25 0 00-.77 1.13A12.73 12.73 0 01112 668a16.12 16.12 0 01-4.51 4.79 4.46 4.46 0 00-.68-1.21 11.44 11.44 0 004.46-4.84zm1.77 18c-.23-.52-.32-.7-.51-1.12-1.8.64-3.89 1.26-5.34 1.61a8.53 8.53 0 00-1.21.35l-.37-1.5a9.1 9.1 0 001.52-.21v-9.75a15.94 15.94 0 00-.09-2 10.91 10.91 0 001.71.09h1.2v-.86a9.82 9.82 0 00-.11-1.34h1.41a6.06 6.06 0 00-.11 1.3v.9h1a11.69 11.69 0 001.73-.09 15.88 15.88 0 00-.08 1.89v3.3c0 .84 0 1.39.06 2.05a12.47 12.47 0 00-1.77-.09h-3.67v4.27a30.18 30.18 0 003.58-1 18.6 18.6 0 00-1.21-2l1.07-.55a31.59 31.59 0 012.3 4.05zm-.47-9.63v-1.76h-4.16v1.76zm-4.16 3.1h4.16v-2h-4.16zm11.27-5.52c0 .42-.09 1-.09 1.56a14 14 0 001.75 6.89 11.25 11.25 0 003.85 4 5.42 5.42 0 00-1 1.3 14.74 14.74 0 01-2.84-2.86 12.45 12.45 0 01-2.41-5.79 13.77 13.77 0 01-1.2 4.25 12.81 12.81 0 01-3.52 4.4 4.1 4.1 0 00-.92-1.25 9.56 9.56 0 003-3.13 14.56 14.56 0 001.94-7.7 10.44 10.44 0 00-.11-1.67zm2.2-2.73a9.45 9.45 0 002-.11l.75.79c-.21.49-.28.68-.49 1.3a22.62 22.62 0 01-2.09 4.64 4.5 4.5 0 00-1.18-.64 15.41 15.41 0 002.2-4.77h-5.5a17.54 17.54 0 01-2.25 4.36 3.16 3.16 0 00-1.13-.84 14.69 14.69 0 002.61-5.35 11.33 11.33 0 00.53-2.81l1.52.28c-.11.31-.26.82-.37 1.26-.15.66-.3 1.16-.51 1.89zm16.04 13.2a17 17 0 00.11 2.4h-1.54a16 16 0 00.11-2.4V679h-5.85c-.32 3.32-.87 5.12-2.3 7.22a5.12 5.12 0 00-1.24-1 8.89 8.89 0 001.73-3.72c.47-2 .66-5.24.66-10.67a32.85 32.85 0 00-.09-3.59 21 21 0 002.35.09h11.49a19.11 19.11 0 002.26-.09 20.1 20.1 0 00-.09 2.16v14.76c0 1.39-.49 1.72-2.56 1.72-.68 0-1.75 0-2.64-.11a5.61 5.61 0 00-.32-1.43 27.16 27.16 0 003 .24c.94 0 1.13-.11 1.13-.66v-5h-6.26zm-7-9.35v1.45c0 1.36 0 1.45-.08 2.46H138v-3.91zm5.66-5.11h-5.61v3.85H138zm7.58 3.85v-3.85h-6.26v3.85zm-6.26 5.17h6.26v-3.91h-6.26zm14.36-9a18.41 18.41 0 00-2.24.13v-1.56a15.52 15.52 0 002.24.13h14.31a16.3 16.3 0 002.26-.13v1.56a18.07 18.07 0 00-2.22-.13h-.43v15.65c0 1.43-.49 1.76-2.56 1.76-.73 0-1.69 0-2.84-.11a5.42 5.42 0 00-.34-1.5 24.72 24.72 0 003.37.26c.79 0 1-.1 1-.61v-15.45zm8.58 10.06a10.5 10.5 0 00.09 1.63c-.43-.05-1.18-.07-1.79-.07h-5.06v2h-1.52a11.49 11.49 0 00.13-1.76v-7a11.19 11.19 0 00-.11-1.91 17.46 17.46 0 002 .08h4.37a18.08 18.08 0 002-.08 10 10 0 00-.11 1.84zm-6.76.31h5.38v-6h-5.38z" fill="#231815"/></g></g></svg>