<svg xmlns="http://www.w3.org/2000/svg" viewBox="0 0 540 396.79"><defs><style>.cls-1{fill:#776a9d}.cls-2{fill:#6c9bd2}.cls-3{fill:#69bd83}.cls-4{fill:#5fc1c7}.cls-5{fill:#b5d681}.cls-6{fill:#5e7aa8;fill-rule:evenodd}.cls-7{fill:#f9c270}</style></defs><g id="レイヤー_2" data-name="レイヤー 2"><g id="画像02"><path class="cls-1" d="M189.44 34.59v69.15l-59.91 34.59-59.91-34.59V34.59L129.53 0l59.91 34.59zm-7.21 4.14L129.53 8.3l-52.7 30.43V99.6l52.7 30.4 52.7-30.43V38.73z"/><path class="cls-2" d="M329.71 34.59v69.15l-59.91 34.59-59.91-34.59V34.59L269.8 0l59.91 34.59zm-7.21 4.14L269.8 8.3l-52.7 30.43V99.6l52.7 30.4 52.7-30.4V38.73z"/><path class="cls-3" d="M470 34.59v69.15l-59.91 34.59-59.9-34.59V34.59L410.06 0 470 34.59zm-7.2 4.14L410.06 8.3l-52.7 30.43V99.6l52.7 30.4 52.71-30.4V38.73z"/><path class="cls-4" d="M119.82 156.27v69.15L59.91 260 0 225.42v-69.15l59.91-34.59 59.91 34.59zm-7.21 4.14L59.91 130l-52.7 30.41v60.87l52.7 30.43 52.7-30.43v-60.87z"/><path class="cls-5" d="M540 156.27v69.15L480.09 260l-59.91-34.59v-69.14l59.91-34.59L540 156.27zm-7.21 4.14L480.09 130l-52.7 30.43v60.87l52.7 30.43 52.7-30.43v-60.89z"/><path class="cls-6" d="M269.8 176.91a42.57 42.57 0 11-42.57 42.56 42.55 42.55 0 0142.57-42.56z"/><path class="cls-6" d="M269.8 147.87l14 14h-6.58v15.72a42.93 42.93 0 00-14.77 0v-15.76h-6.57l14-14zm-28.18 96.94l-11.11 11.11 4.65 4.65h-19.74v-19.75l4.65 4.65 11.11-11.11M227 161.74l19.51 3-5.3 3.89 9.41 12.82a42.74 42.74 0 00-11.83 8.84l-9.48-12.92-5.3 3.9c1-6.55 2-13 3-19.52zm-24.7 35.64l17.87-8.38-2.23 6.19 13.91 5a42.3 42.3 0 00-4.3 14.14l-14.61-5.26-2.23 6.19-8.41-17.86zm111.35-35.64l-19.52 3 5.31 3.89-9.72 13.23a42.86 42.86 0 0111.66 9.08l10-13.57 5.3 3.9c-1-6.55-2-13-3-19.52zm24.73 35.64L320.52 189l2.22 6.19-14.83 5.34a42.5 42.5 0 014.19 14.19l15.65-5.64 2.22 6.19c2.82-6 5.59-11.86 8.41-17.86z"/><path class="cls-7" d="M190.53 283v69.16l-59.91 34.58-59.91-34.63V283l59.91-34.59L190.53 283zm-7.21 4.14l-52.7-30.43-52.7 30.43V348l52.7 30.43 52.7-30.43v-60.91z"/><path class="cls-4" d="M30.24 186.08c-.2.33-.2.33-.47.83a18 18 0 01-2 3 8.56 8.56 0 003.48 1.68 8 8 0 00-.63 2.14 11.45 11.45 0 01-4.16-2.54 12.7 12.7 0 01-4.36 2.54 5.44 5.44 0 00-.45-1.1 12.91 12.91 0 00-1.67-.08h-3.63v1.24H14.7a23.61 23.61 0 00.11-2.58v-9.41c0-1 0-1.76-.08-2.48a14.67 14.67 0 001.59.06h.38v-1.7h-.4a13.91 13.91 0 00-1.93.1v-2.1a12.42 12.42 0 001.93.12h3.91a12.4 12.4 0 001.89-.12v2.06c-.54 0-1.08-.06-1.84-.06h-.4v1.7h1.75v3.74a3 3 0 001.12-.86 4 4 0 00.9-2.12c-.81.08-1.33.14-1.57.18l-.18-1.92h.85a1.53 1.53 0 00.27 0 17.34 17.34 0 001.4-3.48l1.82.54a25.54 25.54 0 01-1.37 2.88 29.47 29.47 0 003.17-.4 10.52 10.52 0 00-1.19-1.44l1.34-.82a21 21 0 012.83 3.6l-1.52 1.08c-.25-.52-.34-.7-.52-1.06a11.32 11.32 0 01-1.11.24v2.34c0 .3.07.34.59.34s.86-.06 1-.22a4.26 4.26 0 00.2-1.42 3.65 3.65 0 001.41.52 4.24 4.24 0 01-.47 2.16c-.29.38-1 .52-2.56.52-1.35 0-1.76-.28-1.76-1.18v-2.8c-.09 0-.38 0-.85.1a6.34 6.34 0 01-.68 2.38 6.14 6.14 0 01-2.4 2.5 4.85 4.85 0 00-.63-1.34v4.25a7.9 7.9 0 002.13-2.29 6.82 6.82 0 00.9-1.84l.12-.38 1.73.56c-.29.64-.45 1-.65 1.34h2.27a7 7 0 001.3-.1zm-13.89 1.45h3.75v-1.76a4 4 0 01-1.24-.1c-.29-.09-.38-.31-.38-.95V181h-.42v.48c0 2.66-.3 4.37-1 5.67a7.76 7.76 0 00-.69-1.57zm0-2.23a8.27 8.27 0 00.6-3.94V181h-.6zm0 5.39h3.75v-1.56h-3.75zm1.71-11.35h.42v-1.72h-.42zm1.55 4.36c0 .36.08.44.49.44V181h-.49zm2 6.93v1.08a10.65 10.65 0 003.58-1.82A11 11 0 0123.9 188a13.9 13.9 0 01-1.53 1.48 5.49 5.49 0 00-.76-1.54zm3.33-3.92a8.41 8.41 0 001.51 2 13 13 0 001.54-2zm7.52-2.45a19.82 19.82 0 00.65-5.2l1.46.2a27.48 27.48 0 01-.67 5.6zm2.29 9.41a21.13 21.13 0 00.13-2.52v-13.93a14.68 14.68 0 00-.13-2.12h2.16a18.38 18.38 0 00-.11 2.12v14.09a22 22 0 00.11 2.36zm8-14.39v-2a14.87 14.87 0 00-.13-2.12h2.18a14.81 14.81 0 00-.12 2.12v2h2.1a11.44 11.44 0 002-.12v2.22a14.84 14.84 0 00-2-.12h-2.14v3.5h1.8a12.17 12.17 0 001.94-.1v2.17a12.15 12.15 0 00-2-.12h-1.74V191h2.44a14.53 14.53 0 002.11-.12v2.26a13.15 13.15 0 00-2.11-.14h-7.23a13.25 13.25 0 00-2.13.14v-2.26a14.74 14.74 0 002.13.12h2.86v-4.24h-1.62a13.44 13.44 0 00-2 .12v-2.17h.29a11.5 11.5 0 00-1.62-1.12 8.79 8.79 0 001-2l-1 .56a12.55 12.55 0 00-.83-3l1.21-.64a17.62 17.62 0 01.82 2.54 18.59 18.59 0 00.78-4.62l1.92.4a5.81 5.81 0 00-.12.72c-.06.38-.18 1.2-.27 1.72zm-2 2a16.5 16.5 0 01-1.3 3.44 13 13 0 001.37.06h1.89v-3.5zm13.87-3.92a17.46 17.46 0 00-1.89.08v-1.94a16.12 16.12 0 002 .12h9.5a15.14 15.14 0 002-.12v1.94a16.65 16.65 0 00-1.86-.08h-4.04v.76h4.83a18.68 18.68 0 002.23-.08 11 11 0 00-.07 1.64v1.26a9.35 9.35 0 00.09 1.58h-1.86v-2.82h-5.22v2a13.42 13.42 0 00.07 1.88h-2.07a16.4 16.4 0 00.09-1.88v-2h-5v2.82H51.6a10.48 10.48 0 00.11-1.58v-1.26a12.81 12.81 0 00-.08-1.64 18.26 18.26 0 002.22.08h4.57v-.76zM65.93 189a6 6 0 001.89.8c0 1.74-.25 2.58-.72 3s-1.55.64-4.63.64c-3.53 0-4-.2-4-1.54v-1.36H55v1h-2a15.34 15.34 0 00.11-2v-3.68A18.27 18.27 0 0053 184a13.19 13.19 0 001.71.08h9.51A13.9 13.9 0 0066 184c0 .54-.07 1-.07 1.94zm-11.7-8.77a3.81 3.81 0 00.93.06h1.59a5.63 5.63 0 00.92-.06v1.34a5.72 5.72 0 00-.92-.06h-1.59a5.77 5.77 0 00-.93.06zm0 1.88a3.81 3.81 0 00.93.06h1.59a5.47 5.47 0 00.92-.06v1.34a5.3 5.3 0 00-.92-.06h-1.59a5.77 5.77 0 00-.93.06zm.75 3.5v.93h3.44v-.93zM55 188v1h3.44v-1zm5.31-1.42H64v-.93h-3.71zm0 2.42H64v-1h-3.71zm0 2.32c0 .16 0 .26.13.3a7.76 7.76 0 002.54.22 7.76 7.76 0 002.56-.26c.21-.12.28-.3.34-1h-5.59zm.85-11.05a3.81 3.81 0 00.94.06h1.83a5.47 5.47 0 00.92-.06v1.34a5.72 5.72 0 00-.92-.06h-1.85a5.73 5.73 0 00-.94.06zm0 1.88a3.81 3.81 0 00.94.06h1.83a5.3 5.3 0 00.92-.06v1.34a5.38 5.38 0 00-.92-.06h-1.85a6 6 0 00-.94.06zm16.02-4.77a10.12 10.12 0 00-.54 1.12c-.18.36-.49 1-.76 1.46a12.52 12.52 0 001.71-.08v1a5.07 5.07 0 001.73-1.32 3.41 3.41 0 00.77-1.82h-.5a10.47 10.47 0 00-1.61.1v-2.1a9.83 9.83 0 001.89.12h4.43a11.92 11.92 0 001.61-.08c-.06.44-.09 1-.17 2.16a9.39 9.39 0 01-.66 3.36c-.31.5-.72.66-1.84.66h-1.31a5.68 5.68 0 00-.42-2 6.86 6.86 0 001.39.2c.47 0 .65-.1.74-.4a12 12 0 00.27-2H82a6.48 6.48 0 01-1 2.82 6.17 6.17 0 01-2 1.92l1.68.4c-.17.82-.17.82-.22 1.12h1v-.16a9.13 9.13 0 00-.1-1.46h2v1.6h1.11a7.26 7.26 0 001.6-.12V186a11.3 11.3 0 00-1.6-.08h-1.22v1.81h1.38a10.44 10.44 0 001.73-.1v2.12a12.1 12.1 0 00-1.69-.08h-1.42v2a12.21 12.21 0 00.1 2h-2.08a15.52 15.52 0 00.1-2v-2h-1.8a9.47 9.47 0 00-1.62.1v-2.14a9.58 9.58 0 001.64.1h1.78v-1.81h-1.46a12.4 12.4 0 01-.57 1.55 6.8 6.8 0 00-1.6-.92 9.12 9.12 0 001-2.65 11.61 11.61 0 00.2-1.32.1.1 0 000-.06l-.2.14a6.11 6.11 0 00-1.2-1.66v10.59c0 1.42-.51 1.8-2.34 1.8h-1.12a7.41 7.41 0 00-.41-2 12.72 12.72 0 001.51.14c.59 0 .76-.1.76-.42v-2.44h-3.7a13.19 13.19 0 01-1.08 4.9 7.28 7.28 0 00-1.49-1.57c.88-1.74 1.08-3.52 1.08-9.33v-1.1a5.84 5.84 0 00-1.19-1.36 8.5 8.5 0 002-3.1 8.41 8.41 0 00.66-2.16l1.91.4c-.09.22-.09.22-.38 1.08h1.62a3.31 3.31 0 00.94-.08zM74 180a14 14 0 00.83-1.76h-1.72a16.48 16.48 0 01-.94 1.76H74zm-.61 6.95v-1.85h-1.02v1.79zm-1-5.17v1.7h1v-1.7zm3.53 0h-1v1.7h1zm0 3.36h-1v1.81h1zM95.2 181a11.18 11.18 0 00-.38 1.34 19.44 19.44 0 01-2.29 5.69 14.5 14.5 0 01-2.72 3.44 7 7 0 00-1.71-1.68 12.23 12.23 0 002.61-2.79 14 14 0 002.14-4.91h-2.26a10.89 10.89 0 00-1.8.12v-2.44a11.29 11.29 0 001.92.1h1.89a9.49 9.49 0 001.59-.08zm8.91-1.28l-1 1.18a28.44 28.44 0 01-3.22 3.38 17.18 17.18 0 002 2.65 12.56 12.56 0 003.14 2.48 10.57 10.57 0 00-1.55 2.16 16.32 16.32 0 01-3.08-3 18.41 18.41 0 01-2.85-5.25c.08 2 .09 2.47.09 3.13v4.78c0 .9-.12 1.3-.47 1.62a2.36 2.36 0 01-1.72.46c-.67 0-1.64-.06-2.34-.12a8.32 8.32 0 00-.51-2.3 15 15 0 002.34.24c.54 0 .65-.08.65-.5v-13.17a14.2 14.2 0 00-.13-2.1h2.29a14.49 14.49 0 00-.13 2.12v1.4a12.67 12.67 0 001.19 3.62 14.36 14.36 0 003.35-4.34zm-86.39 37.07a19.6 19.6 0 01-1.44-3.94 21.78 21.78 0 01-.7-5.53 20.37 20.37 0 01.68-5.34 19.67 19.67 0 011.45-3.98h1.85a17.9 17.9 0 00-1.68 4 19.21 19.21 0 00-.69 5.3 20 20 0 00.7 5.49 17.81 17.81 0 001.68 4zm6.8-7.79a32.41 32.41 0 01-2.72 4.45c-.26.36-.32.44-.43.62l-1-2.1a7.25 7.25 0 001.14-1.32 17.86 17.86 0 002.09-3.39zm-2.73-9.92a20.88 20.88 0 012.27 3.2l-1.14 1.62a16.12 16.12 0 00-2.27-3.38zm6.48 4.92a5.42 5.42 0 00-.05.84 17.93 17.93 0 00.41 4 9.38 9.38 0 001.84 3.68 8.14 8.14 0 002.22 1.88 11.41 11.41 0 00-.84 2.12 12.32 12.32 0 01-2.66-2.84 11.8 11.8 0 01-1.67-4.13 13.47 13.47 0 01-1.36 3.95 9.54 9.54 0 01-2.84 3.06 7.48 7.48 0 00-.83-1.9 7.38 7.38 0 002.51-2.45 13.81 13.81 0 001.77-7.31c0-.3 0-.54-.05-.9zm2.08-2.84a4.89 4.89 0 001.28-.12l.8 1.16c-.1.34-.14.48-.29 1a21.42 21.42 0 01-1.88 4.84 6.79 6.79 0 00-1.21-1.26 11.88 11.88 0 001.63-3.74H26.3a18.71 18.71 0 01-1.95 4.2 6.07 6.07 0 00-1.1-1.62 15.63 15.63 0 002.68-7.44l1.59.42c-.11.38-.14.5-.4 1.56-.08.32-.13.56-.24 1zm5.17-.26a8.77 8.77 0 00-1.65.12v-2.22a8.82 8.82 0 001.66.12H44a9.63 9.63 0 001.67-.12v2.2a9 9 0 00-1.61-.12h-2.21v2.4h1.48a8.68 8.68 0 001.6-.1c0 .58-.06 1.1-.06 2V209c0 1 0 1.49.06 2.07a8.58 8.58 0 00-1.53-.1h-1.55v2.94h2.46a7.8 7.8 0 001.51-.12v2.3a8.1 8.1 0 00-1.66-.14h-8.81a7.88 7.88 0 00-1.67.14v-2.3a8.18 8.18 0 001.53.12h2.37V211h-1.5a8.72 8.72 0 00-1.53.1 19.62 19.62 0 00.07-2.07v-3.76a19.32 19.32 0 00-.07-2 8.81 8.81 0 001.6.1h1.43v-2.4zm2.06 4.34H36V209h1.56zM39 203.3h1.53v-2.4H39zm1.53 1.94H39V209h1.53zM39 213.91h1.53V211H39zm4.49-4.91v-3.8h-1.64v3.8zm4.8-8.32c0-1 0-1.62-.07-2.22h1.53a19.55 19.55 0 00-.08 2.24v2.78h.14a4.77 4.77 0 00.86-.06v2.08a4.44 4.44 0 00-.83-.08h-.17v5.23c.37-.24.5-.32 1-.66v2.08c-1.21.82-1.7 1.14-3 2-.26.16-.4.26-.59.4l-.28-2.32a6.35 6.35 0 001.53-.66v-6h-.44a3.3 3.3 0 00-.91.1v-2.14a3.37 3.37 0 00.92.1h.43zM58.44 214a2.34 2.34 0 00.66-.08v2.22a10 10 0 00-1.46-.1h-6.3a9.44 9.44 0 00-1.44.1V214a4.67 4.67 0 00.82.06h.33v-5.12a6.53 6.53 0 001.25.06h4.81a6.59 6.59 0 001.27-.06V214zm-6.86-9.83v-.4c-.14.22-.2.3-.37.54a5.71 5.71 0 00-.94-1.62 8.81 8.81 0 001.57-2.8 8.9 8.9 0 00.49-1.94l1.48.62c-.06.22-.06.22-.43 1.34h3.94a7.24 7.24 0 001.49-.12V202a9.63 9.63 0 00-1.46-.1h-4.71a9.9 9.9 0 01-.57 1.12 4.89 4.89 0 00.51 0h4.29a7.2 7.2 0 001.06-.06v5.1a4.76 4.76 0 00-1-.06h-4.35a7.37 7.37 0 00-1 .06v-1.24zm.73 9.83h.82v-3.22h-.82zm.59-7.79h3.63v-1.5H52.9zm1.35 7.79h.8v-3.22h-.8zm1.92 0H57v-3.22h-.84zm12.64-6.36c-.21.26-.27.32-.45.57-.61.79-1 1.26-1.69 2 .79-.06 1.71-.16 2.76-.24-.23-.37-.37-.56-.77-1.1l1.15-1a29.31 29.31 0 012.4 4l-1.21 1.2c-.33-.76-.43-1-.69-1.5-1.82.26-1.82.26-3.53.42v2.62a15.57 15.57 0 00.08 2h-1.64a17.43 17.43 0 00.08-2v-2.5c-2.8.2-2.8.2-3.78.24a2.87 2.87 0 00-.94.14l-.22-2.16a5.78 5.78 0 001.31.1c.38 0 .38 0 2.62-.1a16.79 16.79 0 00-2.53-2.1l.83-1.55c.59.46.79.62 1.23 1a11.81 11.81 0 00.84-1.2h-3a8.06 8.06 0 00-1.52.12v-1.92a6 6 0 001.38.1h3.8v-1h-2.89a5.65 5.65 0 00-1.24.1V202a7.13 7.13 0 001.24.08h2.92v-.94h-3.26a7.77 7.77 0 00-1.37.08v-1.9a7.54 7.54 0 001.53.12h3.1a7.24 7.24 0 00-.08-1.4h1.57a10 10 0 00-.07 1.4h3.32a7.06 7.06 0 001.51-.12v1.9a8 8 0 00-1.35-.08h-3.48v.94h3.09a6.73 6.73 0 001.23-.08v1.82a5.55 5.55 0 00-1.23-.1h-3.09v1h4a5.9 5.9 0 001.36-.1v1.92a8.28 8.28 0 00-1.5-.12h-2.84zm-4.35 5.87a9.62 9.62 0 01-3.11 3.08 7.18 7.18 0 00-1.07-1.74 5.84 5.84 0 001.65-1 6.33 6.33 0 001.29-1.46zm1.89-7a21.35 21.35 0 01-1.46 2.19 8.5 8.5 0 01.68.68 17.94 17.94 0 002-2.87zm2.42 5.57a7.62 7.62 0 001.48 1.58 7.25 7.25 0 001.75 1.05 11.14 11.14 0 00-.93 1.9 12.53 12.53 0 01-3.42-3.36zm16.23-3c-.14.33-.14.33-.34.83a19.46 19.46 0 01-1.49 3 5.76 5.76 0 002.55 1.68 9.77 9.77 0 00-.47 2.14 8.48 8.48 0 01-3.05-2.54 9.16 9.16 0 01-3.19 2.54 7.91 7.91 0 00-.33-1.1 7.08 7.08 0 00-1.23-.08h-2.58v1.24h-1.22c0-.6.08-1.46.08-2.58v-11.89a7.73 7.73 0 001.16.06h.28v-1.7h-.29a7.58 7.58 0 00-1.42.1v-2.1a6.82 6.82 0 001.42.12h2.86a6.78 6.78 0 001.39-.12v2.06a13 13 0 00-1.35-.06h-.29v1.7h1.28v3.74a2.46 2.46 0 00.82-.86 4.94 4.94 0 00.66-2.12c-.6.08-1 .14-1.15.18l-.13-1.92h.82a22.53 22.53 0 001-3.48l1.33.54a32.26 32.26 0 01-1 2.88 16.24 16.24 0 002.32-.4 10.75 10.75 0 00-.87-1.44l1-.82a20.91 20.91 0 012 3.66l-1.11 1.08c-.18-.52-.25-.7-.38-1.06a6.81 6.81 0 01-.82.24v2.34c0 .3 0 .34.44.34s.63-.06.7-.22a6.72 6.72 0 00.14-1.42 2.34 2.34 0 001 .52 5.34 5.34 0 01-.34 2.16c-.21.38-.7.52-1.88.52-1 0-1.29-.28-1.29-1.18v-2.8c-.07 0-.28 0-.62.1a7.79 7.79 0 01-.5 2.38 5.76 5.76 0 01-1.76 2.5 6 6 0 00-.46-1.34v4.25a7.51 7.51 0 001.56-2.29 8.26 8.26 0 00.66-1.84l.09-.38 1.27.56c-.21.64-.33 1-.48 1.34h1.66a3.91 3.91 0 001-.1zm-10.17 1.45h2.74v-1.76c-.63 0-.74 0-.91-.1s-.28-.31-.28-.95V204h-.3v.48a15.2 15.2 0 01-.75 5.67 10 10 0 00-.5-1.57zm0-2.23a11.15 11.15 0 00.43-3.94V204h-.43zm0 5.39h2.74v-1.56h-2.7zm1.25-11.35h.3v-1.72h-.3zm1.14 4.36c0 .36 0 .44.35.44V204h-.35zm1.46 6.93v1.08a7.36 7.36 0 002.63-1.82 10.54 10.54 0 01-.95-1.9 12.75 12.75 0 01-1.13 1.48 6.09 6.09 0 00-.55-1.54zm2.44-3.92a8.8 8.8 0 001.11 2 13.74 13.74 0 001.12-2zM91.5 204c-.11.42-.11.44-.28 1.34a23.63 23.63 0 01-1.68 5.69 14.47 14.47 0 01-2 3.44 6.35 6.35 0 00-1.25-1.68 12 12 0 001.92-2.79 16.93 16.93 0 001.57-4.91h-1.66a5.94 5.94 0 00-1.32.12v-2.44a6.18 6.18 0 001.41.1h1.39a5.12 5.12 0 001.16-.08zm6.5-1.24l-.7 1.18a26.84 26.84 0 01-2.3 3.38 17.36 17.36 0 001.5 2.65 10.51 10.51 0 002.3 2.48 11.24 11.24 0 00-1.13 2.16 14.65 14.65 0 01-2.26-3 21.16 21.16 0 01-2.09-5.25c.06 2 .07 2.47.07 3.13v4.78a2.45 2.45 0 01-.34 1.62 1.45 1.45 0 01-1.27.46 16.77 16.77 0 01-1.71-.12 11 11 0 00-.37-2.3 8.11 8.11 0 001.71.24c.4 0 .48-.08.48-.5v-13.21a18.23 18.23 0 00-.1-2.1h1.68c-.06.64-.09 1.26-.09 2.12v1.4a15.91 15.91 0 00.87 3.62 15 15 0 002.46-4.34zm1.54 14.03a17.71 17.71 0 001.67-4 19.49 19.49 0 00.7-5.49 19 19 0 00-.67-5.3 18.49 18.49 0 00-1.69-4h1.86a19.34 19.34 0 011.44 3.94 20.79 20.79 0 01.67 5.34 22.1 22.1 0 01-.68 5.53 20.91 20.91 0 01-1.44 3.94z"/><path class="cls-5" d="M452 191.28c0-.1 0-1.12.06-1.44a12.12 12.12 0 01-2 2.8 27.53 27.53 0 01-3.94 3.48 29 29 0 01-3 1.84 5.79 5.79 0 00-1.66-2.08 21.28 21.28 0 006.3-4.34 18.71 18.71 0 002.68-3.31h-5.48a20.83 20.83 0 00-2.46.1v-2.44a11.62 11.62 0 002.5.11h6.92v-1.6a14.42 14.42 0 00-.1-1.84h2.64a12.83 12.83 0 00-.08 1.7V186h2a11.37 11.37 0 002.36-.14v2.42a20.56 20.56 0 00-2.3-.08h-2.06l.1 9.29c0 1 .06 1.74.12 2.3h-2.72a12.73 12.73 0 00.12-1.92v-.36l-.06-6zm11.83-7.45a28.17 28.17 0 012.7 6.39l-2.6.92a25.38 25.38 0 00-2.54-6.47zm12.3 2.06a4.8 4.8 0 00-.32 1 22.43 22.43 0 01-3.44 7.65 18 18 0 01-6.68 5.46 7.66 7.66 0 00-1.84-2.14 15 15 0 008.86-9.64 9.38 9.38 0 00.66-2.85zm-1.86-3.76a10.54 10.54 0 011.52 2.58l-1.62.62a10.68 10.68 0 00-1.52-2.62zm2.32 2.38a13 13 0 00-1.5-2.56l1.56-.58a10.35 10.35 0 011.52 2.48zm4.04 11.85a19.06 19.06 0 005.92-1.48 13.36 13.36 0 005.94-4.9 16.77 16.77 0 002-4 8.66 8.66 0 002.12 2 17.55 17.55 0 01-6.34 7.84 21.6 21.6 0 01-7.62 3 7.08 7.08 0 00-1.32.34zm1.7-12.43a28.33 28.33 0 015.16 3.86l-1.72 2.21a20.81 20.81 0 00-5.1-4.07zm24.12 3.86a12.39 12.39 0 00-.42 1.35 18.37 18.37 0 01-2.54 5.68 14.81 14.81 0 01-3 3.44 7.65 7.65 0 00-1.9-1.68 13 13 0 002.9-2.84 13.28 13.28 0 002.38-4.91h-2.52a12.13 12.13 0 00-2 .13v-2.45a14.06 14.06 0 002.14.1h2.1a11.63 11.63 0 001.76-.08zm9.9-1.28l-1.06 1.18a29.63 29.63 0 01-3.58 3.39 17.85 17.85 0 002.28 2.64 13.86 13.86 0 003.48 2.48 11.16 11.16 0 00-1.72 2.16 17.52 17.52 0 01-3.42-3 18 18 0 01-3.16-5.24c.08 2 .1 2.46.1 3.12v4.78c0 .9-.14 1.3-.52 1.62a2.86 2.86 0 01-1.92.46c-.74 0-1.82-.06-2.6-.12a7.18 7.18 0 00-.56-2.3 18.31 18.31 0 002.6.24c.6 0 .72-.08.72-.5v-13.21a12.85 12.85 0 00-.14-2.1h2.54a13.11 13.11 0 00-.14 2.12v1.4a11.72 11.72 0 001.32 3.63 14.81 14.81 0 003.72-4.35z"/><path class="cls-3" d="M370.54 60.65a16.06 16.06 0 00-.1-2.18h2.26a16.88 16.88 0 00-.1 2.1v1.3h4.93a11.67 11.67 0 001.64-.08 14.94 14.94 0 00-.07 1.76v6.1a14 14 0 00.09 2h-2.13v-1.2h-4.46v4.06a17.64 17.64 0 00.12 2.48h-2.3a18.76 18.76 0 00.12-2.48v-4.06h-4.25v1.2h-2.12a17.06 17.06 0 00.09-2v-6.12c0-.74 0-1.1-.07-1.74a12.47 12.47 0 001.62.08h4.73zM366.29 64v4.34h4.25V64zm10.77 4.34V64h-4.46v4.34zm4.48-.77a19.82 19.82 0 00.65-5.2l1.45.2a26.87 26.87 0 01-.66 5.6zm2.28 9.4a19.22 19.22 0 00.13-2.52V60.53a13.38 13.38 0 00-.13-2.12H386a16.38 16.38 0 00-.11 2.12v14.08A19.66 19.66 0 00386 77zm8-14.38v-2a15 15 0 00-.12-2.12h2.18a14.68 14.68 0 00-.13 2.12v2h2.11a11.52 11.52 0 002-.12v2.22a15 15 0 00-2-.12h-2.12v3.5h1.8a12.31 12.31 0 001.95-.1v2.16a12.2 12.2 0 00-2-.12h-1.78v4.24h2.45a14.72 14.72 0 002.11-.12v2.26a13.15 13.15 0 00-2.11-.14h-7.24a13.11 13.11 0 00-2.12.14v-2.26a14.59 14.59 0 002.12.12h2.86V70h-1.62a13.53 13.53 0 00-2 .12V68h.29a11.5 11.5 0 00-1.62-1.12 8.81 8.81 0 001-2l-1.05.56a12.09 12.09 0 00-.83-3l1.21-.64a18.93 18.93 0 01.83 2.54 18.54 18.54 0 00.77-4.62l1.93.4c0 .22-.07.32-.13.72s-.18 1.2-.27 1.72zm-2 2a15.45 15.45 0 01-1.3 3.44 13.12 13.12 0 001.37.06h1.89v-3.5zm13.88-3.92a17.34 17.34 0 00-1.89.08v-1.94a16.07 16.07 0 002 .12h9.51a15 15 0 002-.12v1.94a16.34 16.34 0 00-1.85-.08h-4.12v.76h4.82a18.57 18.57 0 002.23-.08 11 11 0 00-.07 1.64v1.26a10.53 10.53 0 00.09 1.58h-1.85V63h-5.22v2a13.42 13.42 0 00.07 1.88h-2.07c0-.58.09-1.06.09-1.88v-2h-4.95v2.82h-1.88a10.48 10.48 0 00.11-1.58V63a15.24 15.24 0 00-.07-1.64 18.06 18.06 0 002.21.08h4.58v-.76zM415 72.29a6 6 0 001.89.8c-.06 1.74-.26 2.58-.72 3s-1.55.64-4.63.64c-3.53 0-4.05-.2-4.05-1.54v-1.34h-3.44v1h-2a17.37 17.37 0 00.11-2v-3.64c0-.76 0-1.32-.09-1.92a13 13 0 001.71.08h9.5a14.18 14.18 0 001.79-.08 16.91 16.91 0 00-.07 1.94zm-11.7-8.76a3.9 3.9 0 00.94.06h1.58a5.47 5.47 0 00.92-.06v1.34a5.72 5.72 0 00-.92-.06h-1.58a6 6 0 00-.94.06zm0 1.88a3.9 3.9 0 00.94.06h1.58a5.3 5.3 0 00.92-.06v1.34a5.23 5.23 0 00-.92-.06h-1.58a6 6 0 00-.94.06zm.76 3.5v.92h3.44v-.92zm0 2.34v1h3.44v-1zm5.31-1.42h3.74v-.92h-3.74zm0 2.42h3.74v-1h-3.74zm0 2.32c0 .16 0 .26.13.3a13.62 13.62 0 005.09 0c.22-.12.29-.3.34-1h-5.56zm.85-11a3.76 3.76 0 00.93.06H413a5.63 5.63 0 00.92-.06v1.34a5.89 5.89 0 00-.92-.06h-1.84a5.68 5.68 0 00-.93.06zm0 1.88a3.76 3.76 0 00.93.06H413a5.47 5.47 0 00.92-.06v1.34a5.38 5.38 0 00-.92-.06h-1.84a5.77 5.77 0 00-.93.06zm16.03-4.76c-.16.28-.21.4-.54 1.12-.18.36-.48 1-.75 1.46a12.71 12.71 0 001.71-.08c0 .34 0 .46-.06 1a5 5 0 001.73-1.32 3.41 3.41 0 00.78-1.82h-.51a10.23 10.23 0 00-1.6.1v-2.1a9.83 9.83 0 001.89.12h4.43a11.86 11.86 0 001.6-.08c-.05.44-.09 1-.16 2.16a9.33 9.33 0 01-.67 3.36c-.3.5-.72.66-1.83.66h-1.32a5.69 5.69 0 00-.41-2 6.88 6.88 0 001.38.2c.47 0 .65-.1.74-.4a12 12 0 00.27-2H431a6.49 6.49 0 01-1 2.82 6.27 6.27 0 01-2 1.92l1.67.4c-.16.82-.16.82-.21 1.12h1v-.16a9 9 0 00-.11-1.46h2c0 .5-.05.94-.05 1.46v.16h1.12a7.26 7.26 0 001.6-.12v2.1a11.3 11.3 0 00-1.6-.08h-1.12V71h1.39a10.59 10.59 0 001.73-.1v2.12a12.27 12.27 0 00-1.7-.08h-1.42v2a12.06 12.06 0 00.11 2h-2.09a15.3 15.3 0 00.11-2V73h-1.8a9.47 9.47 0 00-1.62.1v-2.17a9.58 9.58 0 001.64.1h1.78v-1.8H429a11.63 11.63 0 01-.58 1.54 6.42 6.42 0 00-1.6-.92 9 9 0 001-2.64c.08-.46.19-1.12.19-1.32a.18.18 0 000-.06l-.2.14a6 6 0 00-1.14-1.66v10.58c0 1.42-.5 1.8-2.34 1.8h-1.11a7.82 7.82 0 00-.42-2 13.08 13.08 0 001.51.14c.6 0 .76-.1.76-.42V72h-3.69a13.6 13.6 0 01-1.08 4.9 7.05 7.05 0 00-1.5-1.56c.89-1.74 1.08-3.52 1.08-9.32v-1.1a5.74 5.74 0 00-1.18-1.36 8.48 8.48 0 002-3.1 8.09 8.09 0 00.67-2.16l1.91.4c-.09.22-.09.22-.38 1.08h1.62a3.27 3.27 0 00.93-.08zm-3.13 2.58a15.52 15.52 0 00.83-1.76h-1.77a14.79 14.79 0 01-.93 1.76h1.87zm-.61 6.94v-1.8h-1.06v1.78zm-1-5.16v1.7h1v-1.7zm3.53 0h-1v1.7h1zm0 3.36h-1v1.8h1zm19.23-4.06c-.14.42-.14.44-.38 1.34a19.53 19.53 0 01-2.28 5.68 14.5 14.5 0 01-2.72 3.44 7.37 7.37 0 00-1.71-1.68 12.45 12.45 0 002.61-2.84 14 14 0 002.14-4.9h-2.27a11 11 0 00-1.8.12v-2.44a11.43 11.43 0 001.93.1h1.89a9.34 9.34 0 001.58-.08zm8.91-1.28l-.95 1.18a29.26 29.26 0 01-3.23 3.38 17 17 0 002.05 2.64 12.69 12.69 0 003.13 2.48 11.39 11.39 0 00-1.55 2.16 16.63 16.63 0 01-3.08-3 18.58 18.58 0 01-2.84-5.24c.07 2 .09 2.46.09 3.12v4.78c0 .9-.13 1.3-.47 1.62a2.39 2.39 0 01-1.73.46c-.67 0-1.64-.06-2.34-.12a8 8 0 00-.5-2.3 14.76 14.76 0 002.34.24c.54 0 .64-.08.64-.5v-13.2a14.34 14.34 0 00-.12-2.1h2.29a14.49 14.49 0 00-.13 2.12v1.4a12.67 12.67 0 001.22 3.62 14.52 14.52 0 003.35-4.34z"/><path class="cls-1" d="M87.28 61.41a17.46 17.46 0 00-1.89.08v-1.94a16.12 16.12 0 002 .12h9.5a15.14 15.14 0 002-.12v1.94a16.65 16.65 0 00-1.86-.08H93v.76h4.83a18.68 18.68 0 002.23-.08 11 11 0 00-.07 1.64V65a9.35 9.35 0 00.09 1.58h-1.87v-2.83H93v2a13.42 13.42 0 00.07 1.88H91a16.4 16.4 0 00.09-1.88v-2h-5v2.82h-1.83a10.48 10.48 0 00.11-1.57v-1.27a12.81 12.81 0 00-.08-1.64 18.26 18.26 0 002.22.08h4.57v-.76zM98.59 73a6 6 0 001.89.8c0 1.74-.25 2.58-.72 3s-1.55.64-4.63.64c-3.53 0-4-.2-4-1.54v-1.31h-3.49v1h-2a15.34 15.34 0 00.11-2V70a18.21 18.21 0 00-.09-2 13.19 13.19 0 001.71.08h9.51a13.9 13.9 0 001.78-.08c0 .54-.07 1-.07 1.94zm-11.7-8.76a3.81 3.81 0 00.93.06h1.59a5.63 5.63 0 00.92-.06v1.34a5.72 5.72 0 00-.92-.06h-1.59a5.77 5.77 0 00-.93.06zm0 1.88a3.81 3.81 0 00.93.06h1.59a5.47 5.47 0 00.92-.06v1.34a5.3 5.3 0 00-.92-.06h-1.59a5.77 5.77 0 00-.93.06zm.75 3.5v.92h3.44v-.92zm0 2.34v1h3.44V72zM93 70.57h3.7v-.92H93zM93 73h3.7v-1H93zm0 2.32c0 .16 0 .26.13.3a7.76 7.76 0 002.54.22 7.76 7.76 0 002.56-.26c.21-.12.28-.3.34-1H93zm.85-11a3.81 3.81 0 00.94.06h1.83a5.47 5.47 0 00.92-.06v1.34a5.72 5.72 0 00-.92-.06h-1.88a5.82 5.82 0 00-.94.06zm0 1.88a3.81 3.81 0 00.94.06h1.83a5.3 5.3 0 00.92-.06v1.34a5.38 5.38 0 00-.92-.06h-1.88a6 6 0 00-.94.06zm15.45-4.77a10.12 10.12 0 00-.54 1.12c-.18.36-.49 1-.76 1.46a12.52 12.52 0 001.71-.08v1a5.07 5.07 0 001.73-1.32 3.41 3.41 0 00.77-1.82h-.5a10.47 10.47 0 00-1.61.1v-2.1a9.83 9.83 0 001.89.12h4.43a11.92 11.92 0 001.61-.08c-.06.44-.09 1-.17 2.16a9.39 9.39 0 01-.66 3.36c-.31.5-.72.66-1.84.66L114 66a5.68 5.68 0 00-.42-2 6.86 6.86 0 001.39.2c.47 0 .65-.1.74-.4a12 12 0 00.27-2h-1.91a6.48 6.48 0 01-1 2.82 6.17 6.17 0 01-2 1.92l1.68.4c-.17.82-.17.82-.22 1.12h1v-.16a9.13 9.13 0 00-.1-1.46h2v1.62h1.11a7.26 7.26 0 001.6-.12v2.1a11.3 11.3 0 00-1.6-.08h-1.11v1.8h1.38a10.44 10.44 0 001.73-.1v2.12a12.1 12.1 0 00-1.69-.08h-1.42v2a12.21 12.21 0 00.1 2h-2.08a15.52 15.52 0 00.1-2v-2h-1.8a9.47 9.47 0 00-1.62.1v-2.13a9.58 9.58 0 001.64.1h1.78V70H112a13 13 0 01-.57 1.54 6.8 6.8 0 00-1.6-.92 9 9 0 001-2.64 11.61 11.61 0 00.2-1.32.1.1 0 000-.06l-.2.14a6.11 6.11 0 00-1.13-1.66v10.55c0 1.42-.51 1.8-2.34 1.8h-1.12a7.41 7.41 0 00-.41-2 12.72 12.72 0 001.51.14c.59 0 .76-.1.76-.42v-2.46h-3.7a13.19 13.19 0 01-1.08 4.9 7.28 7.28 0 00-1.53-1.59c.88-1.74 1.08-3.52 1.08-9.32v-1.1a5.84 5.84 0 00-1.19-1.36 8.5 8.5 0 002-3.1 8.41 8.41 0 00.66-2.16l1.91.4c-.09.22-.09.22-.38 1.08h1.62a3.31 3.31 0 00.94-.08zM106.16 64a14 14 0 00.83-1.76h-1.76a16.48 16.48 0 01-.94 1.76h1.87zm-.61 7v-1.8h-1.06v1.78zm-1-5.16v1.7h1v-1.7zm3.53 0h-1v1.7h1zm0 3.36h-1V71h1zm17.36.85a32.59 32.59 0 01-3.71 4.44c-.36.36-.43.44-.59.62L119.79 73a8.49 8.49 0 001.57-1.32 18.4 18.4 0 002.84-3.38zm-3.72-9.92a22.25 22.25 0 013.09 3.2L123.26 65a16.76 16.76 0 00-3.09-3.38zm8.84 4.92a3.63 3.63 0 00-.08.84 13.72 13.72 0 00.56 4 9 9 0 002.52 3.68 11 11 0 003 1.88 10 10 0 00-1.15 2.12 14.69 14.69 0 01-3.62-2.84 10.34 10.34 0 01-2.29-4.12 11.22 11.22 0 01-1.85 3.94 11.62 11.62 0 01-3.87 3.06 6.61 6.61 0 00-1.14-1.9 9.27 9.27 0 003.44-2.48 11 11 0 002.41-7.3 6 6 0 00-.07-.9zm2.84-2.84a9.1 9.1 0 001.75-.12l1.08 1.16c-.13.34-.18.48-.4 1a18.52 18.52 0 01-2.55 4.84 8.47 8.47 0 00-1.66-1.26 10.7 10.7 0 002.23-3.74h-6a16.71 16.71 0 01-2.66 4.2 6.28 6.28 0 00-1.5-1.62 13.46 13.46 0 003.66-7.44l2.16.42c-.14.38-.18.5-.54 1.56-.11.32-.18.56-.32 1zm7.04-.21a16.25 16.25 0 00-2.25.12v-2.27a16.32 16.32 0 002.26.12H152a17.52 17.52 0 002.27-.12v2.22a16.61 16.61 0 00-2.19-.12h-3v2.4h2a15.9 15.9 0 002.17-.1c-.05.58-.07 1.1-.07 2v3.76c0 1 0 1.48.07 2.06a15.62 15.62 0 00-2.08-.1h-2.11V75h3.35a14.69 14.69 0 002.07-.12v2.3a15.07 15.07 0 00-2.27-.14h-12a14.63 14.63 0 00-2.27.14v-2.3A15.2 15.2 0 00140 75h3.23v-3h-2a16.15 16.15 0 00-2.09.1 16.48 16.48 0 00.09-2.06v-3.75a16.33 16.33 0 00-.09-2 16.24 16.24 0 002.18.1h1.95V62zm2.81 4.34h-2.13v3.8h2.13zm1.87-1.94h2.09V62h-2.09zm2.09 1.94h-2.09v3.8h2.09zM145.12 75h2.09v-3h-2.09zm6.19-4.86v-3.8h-2.23v3.8zm11.47-5.05a11.18 11.18 0 00-.38 1.34 19.26 19.26 0 01-2.29 5.68 14.5 14.5 0 01-2.72 3.44 7 7 0 00-1.71-1.68 12.23 12.23 0 002.61-2.87 14.06 14.06 0 002.15-4.9h-2.27a10.89 10.89 0 00-1.8.12v-2.41a11.29 11.29 0 001.92.1h1.89a9.49 9.49 0 001.59-.08zm8.91-1.28l-1 1.18a28.44 28.44 0 01-3.22 3.38 17.59 17.59 0 002.09 2.63 12.56 12.56 0 003.14 2.48 10.57 10.57 0 00-1.55 2.16 16.32 16.32 0 01-3.08-3 18.35 18.35 0 01-2.85-5.24c.08 2 .09 2.46.09 3.12v4.78c0 .9-.12 1.3-.47 1.62a2.36 2.36 0 01-1.72.46c-.67 0-1.64-.06-2.34-.12a8.32 8.32 0 00-.51-2.3 15 15 0 002.34.24c.54 0 .65-.08.65-.5V61.51a14.2 14.2 0 00-.13-2.1h2.29a14.49 14.49 0 00-.13 2.12v1.4a12.67 12.67 0 001.19 3.62 14.36 14.36 0 003.35-4.34z"/><path class="cls-2" d="M228.72 65.28a7.75 7.75 0 001.12-.06c0 .4 0 .54-.05 1a35.2 35.2 0 01-.4 5.3c-.21 1.22-.51 1.84-1.07 2.18a2.74 2.74 0 01-1.39.26h-1.4a10.91 10.91 0 00-.33-2.22 8.56 8.56 0 001.57.18c.59 0 .78-.1.89-.5a16.55 16.55 0 00.45-4.18h-2.94a47.64 47.64 0 00.47-6.36 6.59 6.59 0 001.33.08h1.22v-2.48h-1.57a8 8 0 00-1.39.08v-2.14a5.51 5.51 0 001.49.12h1.93a10.68 10.68 0 001.24-.06 14.64 14.64 0 000 1.52v4.86a8.58 8.58 0 00-1.14-.06h-1.52c-.11 1.7-.11 1.7-.19 2.48zm5.17-3.88c-2.13.14-3.3.24-3.49.28l-.18-2.1a5.17 5.17 0 00.84.06h.46a19.85 19.85 0 001.48-3.88l1.84.42c-.17.44-.17.44-.59 1.4a21.29 21.29 0 01-.94 2c1.18-.08 2.32-.16 3.39-.26-.37-.6-.61-.94-1.25-1.84l1.33-.88a30.5 30.5 0 012.91 4.54l-1.39 1.2c-.3-.68-.43-.9-.64-1.32-.88.12-1.41.18-2.18.26v1.68h2.16a7.72 7.72 0 001.28-.08 9.74 9.74 0 00-.06 1.4v3a12.23 12.23 0 00.06 1.56 9.09 9.09 0 00-1.32-.08h-2.12v2.36c.87-.12.87-.12 1.68-.26-.16-.36-.28-.62-.56-1.18l1.38-.7a25.47 25.47 0 011.91 4.54l-1.51.78c-.27-.92-.37-1.26-.56-1.76-1.95.4-4.69.86-6.61 1.1-.75.1-.78.1-1.07.16l-.28-2.28a2.24 2.24 0 00.49 0c.65 0 2.12-.1 3.55-.24v-2.56H232a9.16 9.16 0 00-1.38.08c0-.48.07-1 .07-1.58v-2.86c0-.52 0-1-.07-1.48a12.2 12.2 0 001.35.06h1.95zm-1.71 3.3v2.24h1.71V64.7zm3.29 2.24h1.83V64.7h-1.83zm13.04-5.64a14.58 14.58 0 00-.06 1.62c-.06 3.42-.5 5.34-1.59 7.08a9.54 9.54 0 01-4.13 3.6 7.18 7.18 0 00-1.26-2.28 6.87 6.87 0 002.8-1.7c1.63-1.62 2.15-3.34 2.15-7.12a6.64 6.64 0 00-.08-1.2zm6.5-2.52a6.37 6.37 0 00-.64 1.4 12.88 12.88 0 01-2.46 4 10.36 10.36 0 01-1.91 1.68 6.3 6.3 0 00-1.45-1.86 7.37 7.37 0 002.33-1.84 8.37 8.37 0 001.52-2.54H244a12.41 12.41 0 00-2.18.12v-2.5a10.31 10.31 0 002.21.16h8.36a3.57 3.57 0 001.55-.18zm5.79-1.72c-.06.56-.06.56-.16 4.48s-.46 6.16-1.3 8.22a13 13 0 01-2.2 3.7 6.63 6.63 0 00-1.62-1.94 8 8 0 001.65-2.3c1.15-2.3 1.52-4.88 1.52-10.48a11.47 11.47 0 00-.07-1.82zm4.24-.24a14.21 14.21 0 00-.11 1.9l-.08 11.38a6.81 6.81 0 002.45-2.28 10.7 10.7 0 001.57-3.66 7.91 7.91 0 001.5 1.88 12.86 12.86 0 01-2.54 4.66 10.43 10.43 0 01-3.41 2.4 6.77 6.77 0 00-.69.36l-1-1.36a11.75 11.75 0 00.14-2.12l.08-11.28v-.6a12.77 12.77 0 00-.06-1.32zm19.22 3.92a3.85 3.85 0 00-.18 1.34c-.05 2.26-.22 5.34-.38 6.66-.42 3.46-1 4.28-2.9 4.28a9.77 9.77 0 01-2-.22 7.53 7.53 0 00-.37-2.56 6.76 6.76 0 002.11.46c.69 0 .93-.44 1.19-2.18a56.47 56.47 0 00.35-6.4h-3.73a17.66 17.66 0 01-1.28 5.72 13.8 13.8 0 01-4.32 5.54 7.87 7.87 0 00-1.44-2.12 10.37 10.37 0 004.16-5 12.18 12.18 0 00.81-3.48c0-.28.07-.48.08-.62h-2.65a9.13 9.13 0 00-1.73.1V59.8a7.46 7.46 0 001.78.16h2.8c.05-.76.08-1.92.08-2.5v-.5a4.64 4.64 0 00-.05-.78l2.15.06a5.87 5.87 0 00-.07.62v.38c0 .42 0 .42-.07 1.46 0 .44 0 .62-.06 1.26h3.55a2.66 2.66 0 001.27-.18zm6.03-3.94a11.6 11.6 0 00-.07 1.8v5.52a11 11 0 00.07 1.76h-2.2a17.41 17.41 0 00.08-1.8v-5.5a15.54 15.54 0 00-.06-1.8zm7.26 0a12.36 12.36 0 00-.08 1.86v2.7a28.89 28.89 0 01-.41 6.06 7.49 7.49 0 01-3.16 4.66 11.87 11.87 0 01-3.12 1.54 7.06 7.06 0 00-1.12-2.38 7.68 7.68 0 003.46-1.6c1.51-1.24 2-2.46 2.21-5.1.06-.86.08-1.74.08-3.34v-2.5a13.76 13.76 0 00-.08-1.9zm2.88 8.02a22.17 22.17 0 00.58-5.2l1.29.2a30.61 30.61 0 01-.59 5.6zm2 9.4a23.86 23.86 0 00.11-2.52V57.78a16.58 16.58 0 00-.11-2.12h1.92c-.06.68-.09 1.22-.09 2.12v14.08c0 1 0 1.64.09 2.36zm7.08-14.38v-2a16.79 16.79 0 00-.11-2.12h1.93a16.58 16.58 0 00-.11 2.12v2h1.87a9.08 9.08 0 001.76-.12v2.22a11.69 11.69 0 00-1.74-.12h-1.89v3.5h1.6a9.66 9.66 0 001.73-.1v2.16a9.69 9.69 0 00-1.75-.12h-1.58v4.24h2.18a11.5 11.5 0 001.87-.12v2.26a10.4 10.4 0 00-1.87-.14H307a10.49 10.49 0 00-1.89.14v-2.26a11.69 11.69 0 001.89.12h2.55v-4.24h-1.45a10.71 10.71 0 00-1.78.12v-2.16h.26a10.55 10.55 0 00-1.44-1.12 9 9 0 00.84-2l-.92.56a14 14 0 00-.74-3l1.07-.64a19.19 19.19 0 01.74 2.54 20.7 20.7 0 00.69-4.62l1.71.4a6.29 6.29 0 00-.11.72c-.05.38-.16 1.2-.24 1.72zm-1.75 2a16.75 16.75 0 01-1.15 3.44 10.31 10.31 0 001.22.06h1.68v-3.5zm-63.71 19.08c-.88 0-1.44 0-2.1.08v-1.94a19.78 19.78 0 002.26.12h10.57a18.57 18.57 0 002.26-.12V81a20.31 20.31 0 00-2.06-.08h-4.58v.76h5.36a23 23 0 002.48-.08 9.59 9.59 0 00-.08 1.64v1.26a9.26 9.26 0 00.1 1.58h-2.06v-2.82h-5.8v2a11.76 11.76 0 00.08 1.88h-2.3a16.13 16.13 0 00.1-1.88v-2h-5.51v2.82h-2.08a9.24 9.24 0 00.12-1.58v-1.26a12.81 12.81 0 00-.08-1.64 22.36 22.36 0 002.46.08h5.09v-.76zm12.57 11.62a7 7 0 002.1.8c-.06 1.74-.28 2.58-.8 3s-1.72.64-5.14.64c-3.92 0-4.5-.2-4.5-1.54V94.1h-3.83v1h-2.22a15.26 15.26 0 00.12-2v-3.64a18 18 0 00-.1-1.92 16.18 16.18 0 001.9.08h10.57a17.27 17.27 0 002-.08 16.5 16.5 0 00-.08 1.94zm-13-8.76a4.83 4.83 0 001 .06h1.77a6.88 6.88 0 001-.06v1.34a7.07 7.07 0 00-1-.06h-1.77a7.37 7.37 0 00-1 .06zm0 1.88a4.83 4.83 0 001 .06h1.77a6.6 6.6 0 001-.06V87a6.43 6.43 0 00-1-.06h-1.77a7.27 7.27 0 00-1 .06zm.84 3.5v.92h3.83v-.92zm0 2.34v1h3.83v-1zm5.91-1.42h4.16v-.92h-4.16zm0 2.42h4.16v-1h-4.16zm0 2.32c0 .16 0 .26.14.3a16.81 16.81 0 005.66 0c.24-.12.32-.3.38-1h-6.18zm.94-11a4.68 4.68 0 001 .06h2a6.78 6.78 0 001-.06v1.34a7.16 7.16 0 00-1-.06h-2a7.08 7.08 0 00-1 .06zm0 1.88a4.68 4.68 0 001 .06h2a6.6 6.6 0 001-.06V87a6.6 6.6 0 00-1-.06h-2a7.27 7.27 0 00-1 .06zm17.8-4.76c-.17.28-.23.4-.59 1.12-.21.36-.54 1-.84 1.46a15.54 15.54 0 001.9-.08c0 .34 0 .46-.06 1a5.54 5.54 0 001.92-1.32 3.24 3.24 0 00.86-1.82h-.56a12.63 12.63 0 00-1.78.1v-2.1a12.08 12.08 0 002.1.12H277a14.62 14.62 0 001.78-.08c-.06.44-.1 1-.18 2.16a8.56 8.56 0 01-.74 3.36c-.34.5-.8.66-2 .66h-1.46a5.25 5.25 0 00-.46-2 8.43 8.43 0 001.54.2c.52 0 .72-.1.82-.4a11.29 11.29 0 00.3-2h-2.12a6.13 6.13 0 01-1.14 2.82 6.65 6.65 0 01-2.2 1.92l1.86.4c-.18.82-.18.82-.24 1.12h1.08v-.16a8 8 0 00-.12-1.46h2.26c0 .5-.06.94-.06 1.46v.16h1.24a9 9 0 001.78-.12v2.1a14 14 0 00-1.78-.08h-1.24v1.8h1.54a12.91 12.91 0 001.92-.1v2.12a15 15 0 00-1.88-.08h-1.58v2a10.9 10.9 0 00.12 2h-2.32a13.51 13.51 0 00.12-2v-2h-2a11.69 11.69 0 00-1.8.1v-2.14a11.81 11.81 0 001.82.1h2v-1.8h-1.62a11.68 11.68 0 01-.64 1.54 7.4 7.4 0 00-1.79-.92 8.11 8.11 0 001.07-2.64 10.44 10.44 0 00.22-1.32.1.1 0 000-.06l-.22.14a6.06 6.06 0 00-1.26-1.66v10.58c0 1.42-.56 1.8-2.61 1.8h-1.24a6.78 6.78 0 00-.46-2 15.87 15.87 0 001.68.14c.67 0 .84-.1.84-.42V92.2h-4.1a12.28 12.28 0 01-1.2 4.9 7.65 7.65 0 00-1.66-1.56c1-1.74 1.2-3.52 1.2-9.32v-1.1a6.14 6.14 0 00-1.32-1.36 8.48 8.48 0 002.26-3.1 7.49 7.49 0 00.74-2.16l2.12.4c-.1.22-.1.22-.42 1.08h1.8a4 4 0 001-.08zm-3.48 2.58a14.85 14.85 0 00.92-1.76h-2a15.63 15.63 0 01-1 1.76h2.08zm-.63 6.94v-1.8h-1.18v1.78zm-1.14-5.16V87H265v-1.7zm3.92 0h-1.16V87h1.16zm0 3.36h-1.16v1.8h1.16zm21.36-4.06a12.74 12.74 0 00-.42 1.34 18.37 18.37 0 01-2.54 5.68 15.08 15.08 0 01-3 3.44 7.65 7.65 0 00-1.9-1.68 13 13 0 002.9-2.84 13.16 13.16 0 002.38-4.9H284a13.53 13.53 0 00-2 .12v-2.44a14.06 14.06 0 002.14.1h2.11a11.63 11.63 0 001.76-.08zm9.9-1.28L298 84.5a30.36 30.36 0 01-3.58 3.38 17.85 17.85 0 002.28 2.64 13.86 13.86 0 003.46 2.48 11.16 11.16 0 00-1.72 2.16 17.52 17.52 0 01-3.42-3 18 18 0 01-3.16-5.24c.08 2 .1 2.46.1 3.12v4.78c0 .9-.14 1.3-.52 1.62a2.86 2.86 0 01-1.92.46c-.74 0-1.82-.06-2.6-.12a7.45 7.45 0 00-.56-2.3 18.31 18.31 0 002.6.24c.6 0 .72-.08.72-.5V81a12.85 12.85 0 00-.14-2.1h2.54A13.11 13.11 0 00292 81v1.4a11.67 11.67 0 001.32 3.62 14.67 14.67 0 003.68-4.3z"/><path class="cls-7" d="M103 305.39a9.18 9.18 0 00-.08 1.62c-.08 3.42-.62 5.34-2 7.08a11.56 11.56 0 01-5.16 3.6 7.06 7.06 0 00-1.58-2.28 9.22 9.22 0 003.5-1.7c2-1.62 2.68-3.34 2.68-7.12a5.06 5.06 0 00-.1-1.2zm8.12-2.52a5.56 5.56 0 00-.8 1.4 12.69 12.69 0 01-3.08 4 12.51 12.51 0 01-2.4 1.66 6.76 6.76 0 00-1.8-1.82 9.27 9.27 0 002.92-1.84 8.29 8.29 0 001.9-2.54H97.37a19.22 19.22 0 00-2.72.12v-2.5a15.94 15.94 0 002.76.16h10.44a5.51 5.51 0 001.94-.18zm7.25-1.72a41.8 41.8 0 00-.2 4.48c-.14 3.9-.58 6.16-1.62 8.22a12.74 12.74 0 01-2.76 3.7 7.12 7.12 0 00-2-1.94 8.22 8.22 0 002.06-2.3c1.44-2.3 1.9-4.88 1.9-10.48a10.05 10.05 0 00-.08-1.82zm5.3-.24a10.84 10.84 0 00-.14 1.9l-.1 11.38a8 8 0 003.06-2.28 9.65 9.65 0 002-3.66 8.38 8.38 0 001.88 1.88 12.32 12.32 0 01-3.19 4.66 13 13 0 01-4.26 2.4 8.7 8.7 0 00-.86.36l-1.28-1.36a9 9 0 00.18-2.12l.1-11.28v-.6a8.66 8.66 0 00-.08-1.32zm24.03 3.92a3.12 3.12 0 00-.22 1.34c-.06 2.26-.28 5.34-.48 6.66-.52 3.46-1.23 4.28-3.63 4.28a15.25 15.25 0 01-2.48-.22 6 6 0 00-.46-2.56 10.37 10.37 0 002.64.46c.87 0 1.16-.44 1.49-2.18a46.64 46.64 0 00.43-6.4h-4.66a13.83 13.83 0 01-7 11.26 7.88 7.88 0 00-1.8-2.12 11.26 11.26 0 005.2-5 10.26 10.26 0 001-3.48c0-.28.08-.48.1-.62h-3.32a14.2 14.2 0 00-2.16.1v-2.46a11.47 11.47 0 002.22.16h3.5c.06-.76.1-1.92.1-2.5V301a3.88 3.88 0 00-.06-.78l2.68.06a5.82 5.82 0 00-.08.62v.38c0 .42 0 .42-.08 1.46 0 .44 0 .62-.08 1.26H145a4 4 0 001.58-.18zm7.53-3.94a10.17 10.17 0 00-.08 1.8v5.52a9.65 9.65 0 00.08 1.76h-2.74a14.42 14.42 0 00.1-1.8v-5.5a12.63 12.63 0 00-.08-1.8zm9.09 0a9.49 9.49 0 00-.1 1.86v2.7a23.62 23.62 0 01-.52 6.06 7.65 7.65 0 01-3.95 4.66 16.92 16.92 0 01-3.9 1.54 6.83 6.83 0 00-1.4-2.38 10.79 10.79 0 004.32-1.6c1.88-1.24 2.54-2.46 2.76-5.1.08-.86.11-1.74.11-3.34v-2.5a10.27 10.27 0 00-.11-1.9zM108.85 325a8.24 8.24 0 00-.74.7 36 36 0 01-4.72 4.12v8.54a15.49 15.49 0 00.09 2.22h-2.8a11.25 11.25 0 00.12-2.16v-7a32.4 32.4 0 01-7.14 3.24 7.52 7.52 0 00-1.34-2.28 29.21 29.21 0 0010.5-5.2 16.09 16.09 0 003.73-3.74zm12.36 7.17c0-.1 0-1.12.06-1.44a12.12 12.12 0 01-2 2.8 28.17 28.17 0 01-4 3.48 29 29 0 01-3 1.84 5.79 5.79 0 00-1.66-2.08 21.28 21.28 0 006.3-4.34 19 19 0 002.68-3.3h-5.48a20.83 20.83 0 00-2.46.1v-2.44a11.62 11.62 0 002.52.14h6.92v-1.6a16.15 16.15 0 00-.11-1.84h2.65a12.83 12.83 0 00-.08 1.7v1.74h2a11.37 11.37 0 002.36-.14v2.42a20.56 20.56 0 00-2.3-.08h-2.06l.1 9.28c0 1 .06 1.74.12 2.3h-2.73a11.41 11.41 0 00.13-1.92v-.36l-.06-6zm9.67 5.08a19.06 19.06 0 005.92-1.48 13.36 13.36 0 005.94-4.9 16.36 16.36 0 002-4 8.62 8.62 0 002.12 2 17.5 17.5 0 01-6.35 7.84 21.6 21.6 0 01-7.62 3 7.08 7.08 0 00-1.32.34zm1.7-12.42a28.33 28.33 0 015.16 3.86l-1.74 2.18a21 21 0 00-5.1-4.06zm24.12 3.86a12.74 12.74 0 00-.42 1.34 18.37 18.37 0 01-2.54 5.68 14.81 14.81 0 01-3 3.44 7.65 7.65 0 00-1.9-1.68 13 13 0 002.9-2.84 13.31 13.31 0 002.38-4.9h-2.52a13.53 13.53 0 00-2 .12v-2.44a14.06 14.06 0 002.14.1h2.1a11.63 11.63 0 001.76-.08zm9.91-1.28l-1.06 1.18A30.36 30.36 0 01162 332a17.85 17.85 0 002.28 2.64 13.86 13.86 0 003.48 2.48 11.16 11.16 0 00-1.72 2.16 17.52 17.52 0 01-3.42-3 18 18 0 01-3.17-5.24c.08 2 .1 2.46.1 3.12v4.78c0 .9-.14 1.3-.52 1.62a2.86 2.86 0 01-1.92.46c-.74 0-1.82-.06-2.6-.12a7.18 7.18 0 00-.56-2.3 18.31 18.31 0 002.6.24c.6 0 .72-.08.72-.5v-13.23a12.85 12.85 0 00-.14-2.1h2.54a13.11 13.11 0 00-.14 2.12v1.4a11.72 11.72 0 001.33 3.62 14.67 14.67 0 003.72-4.34z"/><path d="M254.87 208.82a19.71 19.71 0 01-1.87 2.7c.27.29.31.36.6.69.46-.64.66-1 1.36-2.12l1.61 1.17c-.47.57-.47.57-1.54 2a22 22 0 01-1.76 2c.66 0 .9-.07 1.58-.13a5.45 5.45 0 00-.4-.86l1.39-.51a19 19 0 011.3 3.46l-1.54.51c-.11-.49-.16-.64-.24-1.06l-1.61.2a5.68 5.68 0 011.14.9l-.83.79h.48a11.21 11.21 0 002.31-.13v2.31a17.6 17.6 0 00-2.31-.13h-.75l1.7 1.08a18.25 18.25 0 01-2.4 2.64c.64.88 1.21 1.36 1.54 1.36s.59-.62.81-2.66a5.47 5.47 0 001.68 1.21 7.78 7.78 0 01-.91 3.1 1.51 1.51 0 01-1.43.7c-1.1 0-2.11-.72-3.36-2.37a17.25 17.25 0 01-4.82 2.46 6.31 6.31 0 00-1.25-2 14.9 14.9 0 005.06-2.17 13.81 13.81 0 01-1.13-3.39h-2.92a4.22 4.22 0 01-.07.7 7.73 7.73 0 002.44 1.85 6.3 6.3 0 00-.59 1l-.46.83a7.2 7.2 0 01-1.83-1.54 10 10 0 01-2.73 4.58 8 8 0 00-1.76-1.58c1.74-1.3 2.64-3.11 2.86-5.81-.81 0-1.21 0-1.65.09v-2.23a11.88 11.88 0 001.81.09h4.53c-.09-.64-.11-.81-.15-1.23l-1.24.44c0-.38-.06-.51-.08-.75l-1.55.24c-1.69.22-2.83.38-3.14.44l-.09-.68a8.3 8.3 0 00-.64 1.54 11.61 11.61 0 01-1-2c0 .61.09 1.91.09 2.68v6.34a19 19 0 00.11 2.7h-2.4a20.68 20.68 0 00.13-2.7v-3.87c0-1 0-1.79.18-3.63a20.89 20.89 0 01-1.92 4.92 6.87 6.87 0 00-1.05-2.42 17.4 17.4 0 001.65-3.5 29 29 0 00.9-3h-.53c-.55 0-1.1 0-1.5.09v-2.35a6.07 6.07 0 001.5.11h.75v-1.83a15.46 15.46 0 00-.11-2.31h2.37a20.35 20.35 0 00-.08 2.29v1.85h.39a10.59 10.59 0 001.12-.05c-.15-.15-.24-.22-.48-.44l1.28-1.51.48.46a10.53 10.53 0 001.41-2.62l1.8.9a21.59 21.59 0 01-1.91 3.08c.22.27.31.38.53.68a10.53 10.53 0 001.14-2.06l1.56 1v-1a14 14 0 00-.15-2.51h2.42a5.42 5.42 0 00-.13 1.47v1.39l.68-1 .49.47a10.18 10.18 0 001.34-2.4zm-12.1 5.32a9.79 9.79 0 00-1.25-.09h-.31a7.31 7.31 0 001.34 2.16l-.07-.48a2.33 2.33 0 00.33 0h.4c.75-.86 1-1.17 1.39-1.7a15.27 15.27 0 00-1.83-2zm5.26-.09a9.7 9.7 0 01.57 1.46c-.13-1.85-.17-2.86-.17-3.85-.27.37-.33.48-.49.7a25.35 25.35 0 01-2.51 3.23 14.24 14.24 0 001.61-.17c-.15-.35-.2-.49-.4-.93zm2.53-2.33c0 2 0 2 .11 3.57h.33a18.65 18.65 0 001.41-1.59 12.25 12.25 0 00-1.85-1.98zm2.2 5.22h-.42a5.5 5.5 0 01-.94.11h-.55c0 .51.06.58.17 1.39h2.47a4.15 4.15 0 00-1.39-1zm-1.36 3.63a8.57 8.57 0 00.7 2.07 6 6 0 001.67-2.07zm9.12-8.78c.29 0 .86.06 1.06.06h.59a15.33 15.33 0 001.85-4.27l2.55.47a6.8 6.8 0 00-.41.81c-.27.57-1.06 2-1.57 2.88 1.41-.09 1.94-.13 3.3-.31a19.11 19.11 0 00-1-1.76l1.76-.85a31.4 31.4 0 012.73 4.59l-2 1.17-.5-1.19c-1.41.22-5.15.62-6.67.71a9.38 9.38 0 00-1.43.15zm1.26 5.08a18.2 18.2 0 00-.09-2c.48 0 .88.06 1.58.06h4.84a15.37 15.37 0 002-.09c-.05.62-.07 1-.07 2.07v8.76c0 .95-.18 1.45-.62 1.72a4.52 4.52 0 01-2.31.41h-.92a9 9 0 00-.49-2.24 7.73 7.73 0 001.48.15c.46 0 .55-.06.59-.39v-1.83h-3.69v2.18a18.81 18.81 0 00.11 2.44h-2.51a18.15 18.15 0 00.11-2.4zm2.26 1.41h3.72v-1.37H264zm0 3.26h3.72v-1.37H264zm9.82-10.85a13.51 13.51 0 002.44-.93 10.63 10.63 0 002.55-1.54l1.63 2c-.46.2-.46.2-1.54.72a30.08 30.08 0 01-5.08 1.94v1.39c0 .52.2.61 1.58.61 1.78 0 2.29-.06 2.58-.28s.33-.66.37-2.29a8.22 8.22 0 002.2.68c-.18 2.07-.37 2.82-.88 3.32s-1.41.68-4.29.68a7.92 7.92 0 01-3-.3 1.32 1.32 0 01-.86-1.46v-5.47a10.92 10.92 0 00-.11-1.9H274a9.33 9.33 0 00-.11 1.79zm0 9.88a14.53 14.53 0 005.08-2.38l1.68 1.94c-.64.35-2.8 1.32-3.48 1.58a31.08 31.08 0 01-3.28 1v2.07c0 .38.13.51.55.6a7.07 7.07 0 001.56.11c1.45 0 2-.11 2.2-.44a6.49 6.49 0 00.35-2.53 8.87 8.87 0 002.25.74c-.15 2.07-.4 2.91-1 3.55s-1.36.81-4.14.81c-2.15 0-2.86-.09-3.43-.44a1.43 1.43 0 01-.68-1.43V220a10.48 10.48 0 00-.11-1.95H274a8.82 8.82 0 00-.11 1.82zm19.05-6.36a11.74 11.74 0 00-.46 1.47 20 20 0 01-2.8 6.25 16.47 16.47 0 01-3.32 3.79 8.22 8.22 0 00-2.09-1.85 14.35 14.35 0 003.19-3.13 14.56 14.56 0 002.62-5.39h-2.77a16 16 0 00-2.2.13v-2.68a15.1 15.1 0 002.35.11h2.31a12.28 12.28 0 001.94-.09zm10.89-1.41l-1.17 1.3a34.86 34.86 0 01-3.93 3.72 19.64 19.64 0 002.5 2.9 15.52 15.52 0 003.83 2.73 12.21 12.21 0 00-1.89 2.38 19.28 19.28 0 01-3.76-3.28 19.75 19.75 0 01-3.48-5.77c.09 2.2.11 2.71.11 3.44v5.25c0 1-.15 1.43-.57 1.79a3.18 3.18 0 01-2.11.5c-.82 0-2-.06-2.86-.13a7.82 7.82 0 00-.62-2.53 19.58 19.58 0 002.86.26c.66 0 .79-.08.79-.55v-14.54a14.2 14.2 0 00-.15-2.31h2.8a14.35 14.35 0 00-.16 2.33v1.54a12.63 12.63 0 001.45 4 16 16 0 004.1-4.77z" fill="#fff"/><path d="M28.72 379.74l.62.66-6.88 7.14 6.88 7.1-.62.67-6.88-7.05-6.84 7.05-.64-.67 6.89-7.1-6.89-7.14.64-.66 6.87 7.1zm-10.95 7.78a1.5 1.5 0 01-1.48 1.54 1.53 1.53 0 01-1.49-1.54 1.49 1.49 0 113 0zm5.54 5.84a1.53 1.53 0 01-1.47 1.54 1.55 1.55 0 01-.14-3.08h.06a1.5 1.5 0 011.55 1.54zm0-11.62a1.5 1.5 0 01-1.47 1.54 1.53 1.53 0 01-1.5-1.54 1.52 1.52 0 011.5-1.52 1.5 1.5 0 011.49 1.52zm5.53 5.8a1.48 1.48 0 11-1.46-1.54 1.5 1.5 0 011.48 1.54zm9.02-8.7a8.42 8.42 0 003.34 3.5 3.83 3.83 0 00-.7 1 11.45 11.45 0 01-3.24-3.34 14.57 14.57 0 01-4.09 4.36 3.93 3.93 0 00-.62-1.1 10.38 10.38 0 004.05-4.4zm1.61 16.41l-.46-1c-1.63.59-3.53 1.15-4.85 1.47a8.34 8.34 0 00-1.11.32l-.33-1.37a8.32 8.32 0 001.38-.2v-8.86a15.26 15.26 0 00-.1-1.81 10.45 10.45 0 001.55.08h1.09v-.78a8.14 8.14 0 00-.1-1.22h1.28a6.42 6.42 0 00-.09 1.18v.82h.91a11.2 11.2 0 001.57-.08 13.17 13.17 0 00-.08 1.72v3c0 .76 0 1.26.06 1.86a12 12 0 00-1.61-.08h-3.31v3.88a28.2 28.2 0 003.25-.94 17.18 17.18 0 00-1.1-1.82l1-.5a27.93 27.93 0 012.09 3.68zm-.42-8.77v-1.6h-3.78v1.6zm-3.78 2.82h3.78v-1.8h-3.78zm10.23-5c0 .38-.07.92-.07 1.42A12.71 12.71 0 0047 392a10.13 10.13 0 003.49 3.64 5.15 5.15 0 00-.87 1.19 13 13 0 01-2.58-2.61 11.33 11.33 0 01-2.2-5.26 12.39 12.39 0 01-1.08 3.86 11.85 11.85 0 01-3.2 4 4.12 4.12 0 00-.84-1.15 8.63 8.63 0 002.7-2.84 13.24 13.24 0 001.77-7 9.91 9.91 0 00-.1-1.52zm2-2.48a8.88 8.88 0 001.81-.1l.67.72a12.56 12.56 0 00-.44 1.18 21.44 21.44 0 01-1.9 4.22 3.71 3.71 0 00-1.07-.58 14.46 14.46 0 002-4.34h-5a16.38 16.38 0 01-2 4 3.1 3.1 0 00-1-.76 13.45 13.45 0 002.37-4.86 10.26 10.26 0 00.48-2.56l1.38.26c-.1.28-.23.74-.33 1.14-.14.6-.27 1.06-.47 1.72zm14.59 11.94a14.5 14.5 0 00.1 2.19h-1.4a14.75 14.75 0 00.1-2.19V390h-5.31a12.36 12.36 0 01-2.1 6.57 4.41 4.41 0 00-1.12-.86 8.29 8.29 0 001.57-3.39 48.8 48.8 0 00.6-9.7 30.4 30.4 0 00-.08-3.26 19.94 19.94 0 002.13.08H67a18.08 18.08 0 002-.08c0 .54-.07 1.06-.07 2v13.43c0 1.26-.45 1.56-2.33 1.56-.62 0-1.59 0-2.4-.1a4.82 4.82 0 00-.3-1.31 24.22 24.22 0 002.78.22c.85 0 1-.1 1-.6V390h-5.59zm-6.34-8.5v1.32c0 1.24 0 1.32-.08 2.24h5.24v-3.56zm5.14-4.64h-5.1v3.5h5.12zm6.88 3.5v-3.5h-5.68v3.5zm-5.68 4.7h5.68v-3.56h-5.68zm13.04-8.18a15.29 15.29 0 00-2 .12v-1.42a14.27 14.27 0 002 .12h13a15 15 0 002.05-.12v1.42a15 15 0 00-2-.12h-.39v14.22c0 1.31-.45 1.61-2.33 1.61-.66 0-1.53 0-2.58-.1a4.84 4.84 0 00-.31-1.37 21.81 21.81 0 003.07.25c.71 0 .87-.11.87-.56v-14.05zm7.8 9.14a9.92 9.92 0 00.08 1.48c-.39 0-1.07-.06-1.63-.06h-4.6v1.8H75.4a10.77 10.77 0 00.12-1.6v-6.3a10.43 10.43 0 00-.1-1.74 14.43 14.43 0 001.81.08h4a15 15 0 001.83-.08 9.38 9.38 0 00-.1 1.68zm-6.15.28h4.89v-5.48h-4.89z" fill="#231815"/></g></g></svg>