<svg xmlns="http://www.w3.org/2000/svg" viewBox="0 0 527.31 13.39"><path d="M0 .32h7.9v1.41H1.51v4.21h5.94v1.4H1.51v5.73H0zm21.26 0h1.42l5.42 12.75h-1.77L25 9.94h-6.33l-1.32 3.13h-1.71zm.68 2l-2.68 6.21h5.2zM46.82 3a3.78 3.78 0 00-1.42-1.21 4.22 4.22 0 00-1.77-.39 4.36 4.36 0 00-2 .44A4.64 4.64 0 0040.14 3a5.31 5.31 0 00-1 1.69 5.68 5.68 0 00-.36 2 5.94 5.94 0 00.36 2.08 5.27 5.27 0 001 1.67 4.73 4.73 0 001.53 1.12 4.58 4.58 0 002 .42 4.69 4.69 0 002.09-.46 4.8 4.8 0 001.6-1.32l1.14.95a5.25 5.25 0 01-2.08 1.69 6.71 6.71 0 01-2.75.54 6.55 6.55 0 01-2.55-.5A6.17 6.17 0 0139 11.49a6.31 6.31 0 01-1.37-2.11 7.1 7.1 0 01-.5-2.68 7.11 7.11 0 01.48-2.63A6.32 6.32 0 0139 1.94a6.44 6.44 0 012-1.42A6.37 6.37 0 0143.63 0a6.76 6.76 0 012.49.47 4.56 4.56 0 012 1.53zM58.66.32h1.51v12.75h-1.51zm12.78 0H73v11.34h5.84v1.41h-7.4zm17.1 0h1.51v12.75h-1.51zm21.33 1.41h-4.21v11.34h-1.51V1.73h-4.21V.32h9.93zm12.89 5.85L118 .32h1.92l3.59 5.76 3.7-5.76H129l-4.75 7.26v5.49h-1.51zM151.65.32h1.51v12.75h-1.51zm12.78 0h1.91l7.38 10.59V.32h1.51v12.75h-1.9L166 2.48v10.59h-1.51zm30.65 1.41h-4.21v11.34h-1.51V1.73h-4.21V.32h9.93zM205 .32h3.26a16 16 0 011.83.11 4.84 4.84 0 011.63.47 3 3 0 011.17 1 3.44 3.44 0 01.45 1.88 3.07 3.07 0 01-.85 2.27 4 4 0 01-2.34 1.1l3.62 5.87h-1.85l-3.46-5.73h-1.94v5.73H205zm1.52 5.62h2.65a4.34 4.34 0 001.24-.23 2.18 2.18 0 00.94-.62 1.78 1.78 0 00.37-1.22 2 2 0 00-.27-1.09 1.82 1.82 0 00-.71-.64 3.17 3.17 0 00-1-.3 8.27 8.27 0 00-1.11-.07h-2.12zM230 13.39a7 7 0 01-2.67-.5 6.34 6.34 0 01-2.1-1.4 6.15 6.15 0 01-1.39-2.12 7.09 7.09 0 01-.5-2.67 7.14 7.14 0 01.5-2.68 6.15 6.15 0 011.39-2.12 6.34 6.34 0 012.1-1.4 7.41 7.41 0 015.35 0 6.34 6.34 0 012.1 1.4 6.15 6.15 0 011.37 2.1 7.14 7.14 0 01.49 2.68 7.08 7.08 0 01-.49 2.67 6.15 6.15 0 01-1.39 2.12 6.34 6.34 0 01-2.1 1.4 7 7 0 01-2.66.52zm0-1.4a4.91 4.91 0 002.05-.42 4.66 4.66 0 001.59-1.13 5.34 5.34 0 001-1.68A5.83 5.83 0 00235 6.7a5.89 5.89 0 00-.36-2.07 5.34 5.34 0 00-1-1.68A4.66 4.66 0 00232 1.82a5.19 5.19 0 00-4.09 0A4.66 4.66 0 00226.35 3a5.16 5.16 0 00-1 1.68 5.95 5.95 0 000 4.13 5.16 5.16 0 001 1.68 4.66 4.66 0 001.59 1.13A4.9 4.9 0 00230 12zM246.94.32h4.9a6.38 6.38 0 011.33.15 6.12 6.12 0 011.39.46 6.27 6.27 0 011.34.82A5.41 5.41 0 01257 3a6.2 6.2 0 01.77 1.64 6.84 6.84 0 01.29 2.1 6.77 6.77 0 01-.29 2.09 6.06 6.06 0 01-.77 1.64 5.46 5.46 0 01-1.12 1.22 6.65 6.65 0 01-1.34.81 6.12 6.12 0 01-1.39.46 6.38 6.38 0 01-1.33.15h-4.9zm1.51 11.34h2.88a7 7 0 002-.28 4.56 4.56 0 001.62-.89A4.45 4.45 0 00256.07 9a5.88 5.88 0 00.39-2.25 5.81 5.81 0 00-.39-2.25 4.12 4.12 0 00-2.7-2.5 6.71 6.71 0 00-2-.29h-2.88zm29.72-3.45a7.57 7.57 0 01-.26 2 4.46 4.46 0 01-.83 1.64A4 4 0 01275.6 13a6.16 6.16 0 01-4.47 0 4 4 0 01-1.48-1.14 4.46 4.46 0 01-.83-1.64 7.57 7.57 0 01-.26-2V.32h1.51V8a6.7 6.7 0 00.16 1.5 3.72 3.72 0 00.54 1.27 2.75 2.75 0 001 .9 4 4 0 003.17 0 2.83 2.83 0 001-.9 3.72 3.72 0 00.54-1.27 7.33 7.33 0 00.16-1.5V.32h1.51zM298.31 3a3.63 3.63 0 00-1.42-1.16 4.14 4.14 0 00-1.76-.39 4.44 4.44 0 00-2 .44A4.7 4.7 0 00291.64 3a5.14 5.14 0 00-1 1.69 5.68 5.68 0 00-.36 2 5.94 5.94 0 00.36 2.08 5.09 5.09 0 001 1.67 4.67 4.67 0 003.5 1.54 4.72 4.72 0 002.09-.46 4.9 4.9 0 001.6-1.32l1.13.95a5.18 5.18 0 01-2.08 1.69 7 7 0 01-5.3 0 6.27 6.27 0 01-2.06-1.4 6.46 6.46 0 01-1.37-2.11 7.1 7.1 0 01-.49-2.68 7.31 7.31 0 01.47-2.63 6.33 6.33 0 016-4.07 6.84 6.84 0 012.49.47 4.56 4.56 0 012 1.53zm20.4-1.27h-4.22v11.34H313V1.73h-4.21V.32h9.94zm9.88-1.41h1.51v12.75h-1.51zm18.7 13.07a7 7 0 01-2.67-.5 6.49 6.49 0 01-2.11-1.4 6.27 6.27 0 01-1.38-2.12 7.09 7.09 0 01-.5-2.67 7.14 7.14 0 01.5-2.68 6.27 6.27 0 011.38-2.12 6.49 6.49 0 012.11-1.4 7.38 7.38 0 015.38 0 6.38 6.38 0 012.11 1.4 6.3 6.3 0 011.35 2.1 7.14 7.14 0 01.54 2.7 7.08 7.08 0 01-.49 2.67 6.3 6.3 0 01-1.39 2.12 6.38 6.38 0 01-2.11 1.4 7 7 0 01-2.72.5zm0-1.4a4.87 4.87 0 002-.42 4.79 4.79 0 001.6-1.13 5.14 5.14 0 001-1.68 5.62 5.62 0 00.37-2.06 5.67 5.67 0 00-.26-2.07 5.14 5.14 0 00-1-1.68 4.79 4.79 0 00-1.6-1.13 5.16 5.16 0 00-4.08 0A4.79 4.79 0 00343.65 3a5.32 5.32 0 00-1 1.68 5.67 5.67 0 00-.37 2.07 5.62 5.62 0 00.37 2.06 5.32 5.32 0 001 1.68 4.79 4.79 0 001.6 1.13 4.9 4.9 0 002.04.38zM364.48.32h1.91l7.38 10.59V.32h1.51v12.75h-1.91L366 2.48v10.59h-1.51zm35.21 0h8v1.41h-6.5v4h6.07v1.4h-6.06v4.53h6.8v1.41h-8.33zm21.78 6.03l-4.29-6h1.95l3.44 5 3.4-5h1.89l-4.29 6 4.7 6.72h-2l-3.78-5.65-3.79 5.65h-1.88zM442 .32h1.43l5.41 12.75h-1.76l-1.3-3.13h-6.37l-1.31 3.13h-1.71zm.69 2L440 8.53h5.21zm15.98-2h2.25l4.32 10 4.36-10h2.19v12.75h-1.51V2.38l-4.57 10.69h-.92l-4.57-10.69v10.69h-1.52zm24.43 0h3.78a7.59 7.59 0 011.68.18 4 4 0 011.42.57 2.86 2.86 0 011 1.08 3.41 3.41 0 01.37 1.67 3.42 3.42 0 01-.35 1.72 3.12 3.12 0 01-1 1.08 4.07 4.07 0 01-1.36.56 6.4 6.4 0 01-1.4.16h-2.56v5.73h-1.58zm1.51 5.62h2.56a3.08 3.08 0 001.83-.51 1.84 1.84 0 00.71-1.6 1.81 1.81 0 00-.71-1.59 3.08 3.08 0 00-1.84-.51h-2.56zM501.87.32h1.52v11.34h5.83v1.41h-7.35zm17.13 0h8v1.41h-6.5v4h6.07v1.4h-6.07v4.53h6.83v1.41H519z" fill="#6c8485" data-name="レイヤー 2"/></svg>