<svg xmlns="http://www.w3.org/2000/svg" viewBox="0 0 421.42 56.33"><path d="M0 .5h12.29v2.19H2.35v6.55h9.24v2.18H2.35v8.91H0zm25 0h2.21l8.43 19.83h-2.8l-2-4.87h-9.92l-2.05 4.87h-2.66zm1.06 3H26l-4.12 9.74h8.09zm30.53 1.09a5.72 5.72 0 00-2.21-1.8 6.44 6.44 0 00-2.75-.61 6.88 6.88 0 00-3 .68 7.57 7.57 0 00-2.39 1.8 8.4 8.4 0 00-1.57 2.63 8.94 8.94 0 00-.56 3.13 9.25 9.25 0 00.56 3.23 7.81 7.81 0 001.56 2.6A7 7 0 0048.57 18a7.61 7.61 0 006.31-.07 7.36 7.36 0 002.49-2l1.77 1.48A8.15 8.15 0 0155.9 20a10.4 10.4 0 01-4.27.84 10.08 10.08 0 01-4-.78 9.69 9.69 0 01-3.21-2.17 9.93 9.93 0 01-2.13-3.29 11.09 11.09 0 01-.77-4.17 11.25 11.25 0 01.74-4.09A9.84 9.84 0 0151.63 0a10.45 10.45 0 013.88.73 7.12 7.12 0 013.12 2.38zM66.89.5h2.35v19.83h-2.35zm11.76 0H81v17.64h9.08v2.19H78.65zm18.48 0h2.35v19.83h-2.35zm25.06 2.19h-6.55v17.64h-2.35V2.69h-6.55V.5h15.45zm11.93 9.1L126.73.5h3l5.58 9 5.69-9h2.82l-7.39 11.29v8.54h-2.35zM162.82.5h2.35v19.83h-2.35zm11.76 0h3L189 17h.05V.5h2.35v19.83h-3L177 3.86h-.06v16.47h-2.35zm39.56 2.19h-6.55v17.64h-2.35V2.69h-6.55V.5h15.45zM221.4.5h5.06a24.63 24.63 0 012.85.17 7.69 7.69 0 012.53.73 4.62 4.62 0 011.82 1.6 5.28 5.28 0 01.7 2.92A4.81 4.81 0 01233 9.49a6.23 6.23 0 01-3.64 1.71l5.64 9.13h-2.88l-5.38-8.91h-3v8.91h-2.34zm2.35 8.74h2.1c.65 0 1.33 0 2-.06a6.55 6.55 0 001.93-.36 3.35 3.35 0 001.45-1 2.72 2.72 0 00.61-1.82 3.06 3.06 0 00-.42-1.7 2.89 2.89 0 00-1.11-1 4.86 4.86 0 00-1.54-.46 14.06 14.06 0 00-1.72-.11h-3.3zm28.44 11.59a10.76 10.76 0 01-4.15-.78 9.73 9.73 0 01-5.44-5.48 11.06 11.06 0 01-.77-4.15 11.11 11.11 0 01.77-4.16A10 10 0 01244.76 3 10.15 10.15 0 01248 .78a11.46 11.46 0 018.31 0A10.26 10.26 0 01259.63 3a9.81 9.81 0 012.15 3.31 10.92 10.92 0 01.78 4.16 10.87 10.87 0 01-.78 4.15 9.81 9.81 0 01-2.15 3.31 10.09 10.09 0 01-3.28 2.17 10.78 10.78 0 01-4.16.73zm0-2.18a7.69 7.69 0 003.18-.65 7.33 7.33 0 002.48-1.76 8.05 8.05 0 001.61-2.62 8.91 8.91 0 00.57-3.2 9 9 0 00-.57-3.21 8.05 8.05 0 00-1.61-2.62 7.61 7.61 0 00-2.48-1.76 8.08 8.08 0 00-6.35 0 7.61 7.61 0 00-2.48 1.76 8.05 8.05 0 00-1.61 2.62 9.15 9.15 0 000 6.41 8.05 8.05 0 001.61 2.62A7.33 7.33 0 00249 18a7.68 7.68 0 003.19.65zM270.45.5h7.62a10.32 10.32 0 012.07.23 10.58 10.58 0 012.17.71 9.83 9.83 0 012.07 1.28 8.33 8.33 0 011.75 1.89 8.9 8.9 0 011.2 2.54 11 11 0 01.45 3.27 10.93 10.93 0 01-.45 3.26 9.09 9.09 0 01-1.2 2.55 8.78 8.78 0 01-1.75 1.89 10.2 10.2 0 01-2.07 1.27 9.49 9.49 0 01-2.17.71 10.32 10.32 0 01-2.07.23h-7.62zm2.35 17.64h4.48a10.7 10.7 0 003.17-.44 6.74 6.74 0 002.55-1.39 6.53 6.53 0 001.68-2.39 9 9 0 00.61-3.5 9 9 0 00-.61-3.5 6.57 6.57 0 00-1.68-2.4 6.72 6.72 0 00-2.52-1.38 10.7 10.7 0 00-3.17-.45h-4.51zm38.11-5.37a11.46 11.46 0 01-.41 3.08 7.25 7.25 0 01-1.28 2.56 6.13 6.13 0 01-2.31 1.76 9.48 9.48 0 01-7 0 6.13 6.13 0 01-2.31-1.76 7.44 7.44 0 01-1.29-2.56 11.45 11.45 0 01-.4-3.08V.5h2.35v11.93a11.09 11.09 0 00.25 2.33 5.78 5.78 0 00.84 2 4.23 4.23 0 001.65 1.37 6.1 6.1 0 004.93 0 4.23 4.23 0 001.57-1.39 5.78 5.78 0 00.84-2 10.47 10.47 0 00.25-2.33V.5h2.35zm23.21-8.18a5.65 5.65 0 00-2.21-1.8 6.4 6.4 0 00-2.74-.61 6.82 6.82 0 00-3 .68 7.61 7.61 0 00-2.4 1.8 8.37 8.37 0 00-1.56 2.63 8.72 8.72 0 00-.56 3.13 9 9 0 00.56 3.23 8 8 0 001.55 2.6 7.48 7.48 0 008.69 1.68 7.3 7.3 0 002.5-2l1.76 1.48a8.12 8.12 0 01-3.27 2.59 10.43 10.43 0 01-4.27.84 10.13 10.13 0 01-4-.78 9.9 9.9 0 01-3.17-2.18 10.07 10.07 0 01-2.12-3.29 10.9 10.9 0 01-.77-4.17 11 11 0 01.74-4.09A10 10 0 01321.91 3a9.92 9.92 0 017.26-3 10.43 10.43 0 013.83.73 7.09 7.09 0 013.13 2.38zm23.61-1.9h-6.56v17.64h-2.35V2.69h-6.55V.5h15.46zM365 .5h2.35v19.83H365zm21 20.33a10.81 10.81 0 01-4.16-.78 9.94 9.94 0 01-3.27-2.17 9.69 9.69 0 01-2.16-3.31 11.06 11.06 0 01-.77-4.15 11.11 11.11 0 01.77-4.16A9.69 9.69 0 01378.52 3a10.1 10.1 0 013.27-2.22 11.48 11.48 0 018.32 0A10.1 10.1 0 01393.38 3a9.69 9.69 0 012.16 3.31 11.11 11.11 0 01.77 4.16 11.06 11.06 0 01-.77 4.15 9.69 9.69 0 01-2.16 3.31 9.94 9.94 0 01-3.27 2.17 10.81 10.81 0 01-4.11.73zm0-2.18a7.69 7.69 0 003.18-.65 7.33 7.33 0 002.48-1.76 8.23 8.23 0 001.61-2.62 8.91 8.91 0 00.57-3.2 9 9 0 00-.57-3.21 8.23 8.23 0 00-1.61-2.62 7.61 7.61 0 00-2.48-1.76 8.1 8.1 0 00-6.36 0 7.61 7.61 0 00-2.48 1.76 8.23 8.23 0 00-1.61 2.62 9 9 0 00-.57 3.21 8.91 8.91 0 00.57 3.2 8.23 8.23 0 001.61 2.62 7.33 7.33 0 002.43 1.76 7.69 7.69 0 003.23.65zM404.57.5h3L419 17h.05V.5h2.35v19.83h-3L407 3.86h-.06v16.47h-2.35zm-268.11 36h12.46v2.19h-10.11v6.21h9.44v2.19h-9.44v7h10.61v2.19h-13zm25.76 9.38l-6.67-9.38h3l5.34 7.76 5.3-7.76h2.94l-6.67 9.38 7.31 10.45h-3.11l-5.88-8.79-5.9 8.79H155zm23.88-9.38h2.21l8.43 19.83H194l-2-4.87h-9.91l-2 4.87h-2.66zm1.07 3h-.06L183 49.27h8.09zm16.68-3h3.5l6.72 15.5h.06l6.78-15.54h3.41v19.87H222V39.7h-.06l-7.14 16.63h-1.43l-7.11-16.63h-.06v16.63h-2.35zm29.88 0h5.88a12.38 12.38 0 012.62.27 6.59 6.59 0 012.21.9 4.7 4.7 0 011.56 1.68 5.36 5.36 0 01.57 2.59 5.26 5.26 0 01-.61 2.68 4.85 4.85 0 01-1.59 1.68 6.54 6.54 0 01-2.11.87 10.06 10.06 0 01-2.18.25h-4v8.91h-2.35zm2.35 8.74h4a4.82 4.82 0 002.87-.8A2.87 2.87 0 00244 42a2.85 2.85 0 00-1.1-2.47 4.75 4.75 0 00-2.87-.8h-4zm18.73-8.74h2.36v17.64h9.07v2.19h-11.43zm18.48 0h12.46v2.19h-10.11v6.21h9.44v2.19h-9.44v7h10.61v2.19h-13z" fill="#6c8485" data-name="レイヤー 2"/></svg>