<svg xmlns="http://www.w3.org/2000/svg" xmlns:xlink="http://www.w3.org/1999/xlink" viewBox="0 0 1920.01 500.01"><defs><style>.cls-1{fill:none;}.cls-2{fill:#221714;}.cls-3{fill:#f8f5e8;}.cls-4{opacity:0.05;fill:url(#新規パターンスウォッチ_15);}</style><pattern id="新規パターンスウォッチ_15" data-name="新規パターンスウォッチ 15" width="75.42" height="75.42" patternTransform="translate(66.84 90.55) scale(1.2)" patternUnits="userSpaceOnUse" viewBox="0 0 75.42 75.42"><rect class="cls-1" width="75.42" height="75.42"/><polygon class="cls-2" points="58.73 -56.84 -56.84 58.73 -58.73 56.84 56.84 -58.73 58.73 -56.84"/><polygon class="cls-1" points="60.62 -54.96 -54.96 60.61 -56.84 58.73 58.73 -56.84 60.62 -54.96"/><polygon class="cls-2" points="62.5 -53.07 -53.07 62.5 -54.96 60.61 60.62 -54.96 62.5 -53.07"/><polygon class="cls-1" points="64.39 -51.19 -51.19 64.39 -53.07 62.5 62.5 -53.07 64.39 -51.19"/><polygon class="cls-2" points="66.27 -49.3 -49.3 66.27 -51.19 64.39 64.39 -51.19 66.27 -49.3"/><polygon class="cls-1" points="68.16 -47.41 -47.41 68.16 -49.3 66.27 66.27 -49.3 68.16 -47.41"/><polygon class="cls-2" points="70.04 -45.53 -45.53 70.04 -47.41 68.16 68.16 -47.41 70.04 -45.53"/><polygon class="cls-1" points="71.93 -43.64 -43.65 71.93 -45.53 70.04 70.04 -45.53 71.93 -43.64"/><polygon class="cls-2" points="73.81 -41.76 -41.76 73.81 -43.65 71.93 71.93 -43.64 73.81 -41.76"/><polygon class="cls-1" points="75.7 -39.87 -39.87 75.7 -41.76 73.81 73.81 -41.76 75.7 -39.87"/><polygon class="cls-2" points="77.58 -37.99 -37.99 77.58 -39.87 75.7 75.7 -39.87 77.58 -37.99"/><polygon class="cls-1" points="79.47 -36.1 -36.1 79.47 -37.99 77.58 77.58 -37.99 79.47 -36.1"/><polygon class="cls-2" points="81.36 -34.22 -34.22 81.35 -36.1 79.47 79.47 -36.1 81.36 -34.22"/><polygon class="cls-1" points="83.24 -32.33 -32.33 83.24 -34.22 81.35 81.36 -34.22 83.24 -32.33"/><polygon class="cls-2" points="85.13 -30.45 -30.45 85.13 -32.33 83.24 83.24 -32.33 85.13 -30.45"/><polygon class="cls-1" points="87.01 -28.56 -28.56 87.01 -30.45 85.13 85.13 -30.45 87.01 -28.56"/><polygon class="cls-2" points="88.9 -26.68 -26.68 88.9 -28.56 87.01 87.01 -28.56 88.9 -26.68"/><polygon class="cls-1" points="90.78 -24.79 -24.79 90.78 -26.68 88.9 88.9 -26.68 90.78 -24.79"/><polygon class="cls-2" points="92.67 -22.9 -22.9 92.67 -24.79 90.78 90.78 -24.79 92.67 -22.9"/><polygon class="cls-1" points="94.55 -21.02 -21.02 94.55 -22.9 92.67 92.67 -22.9 94.55 -21.02"/><polygon class="cls-2" points="96.44 -19.13 -19.13 96.44 -21.02 94.55 94.55 -21.02 96.44 -19.13"/><polygon class="cls-1" points="98.32 -17.25 -17.25 98.32 -19.13 96.44 96.44 -19.13 98.32 -17.25"/><polygon class="cls-2" points="100.21 -15.36 -15.36 100.21 -17.25 98.32 98.32 -17.25 100.21 -15.36"/><polygon class="cls-1" points="102.1 -13.48 -13.48 102.09 -15.36 100.21 100.21 -15.36 102.1 -13.48"/><polygon class="cls-2" points="103.98 -11.59 -11.59 103.98 -13.48 102.09 102.1 -13.48 103.98 -11.59"/><polygon class="cls-1" points="105.87 -9.71 -9.71 105.87 -11.59 103.98 103.98 -11.59 105.87 -9.71"/><polygon class="cls-2" points="107.75 -7.82 -7.82 107.75 -9.71 105.87 105.87 -9.71 107.75 -7.82"/><polygon class="cls-1" points="109.64 -5.93 -5.93 109.64 -7.82 107.75 107.75 -7.82 109.64 -5.93"/><polygon class="cls-2" points="111.52 -4.05 -4.05 111.52 -5.93 109.64 109.64 -5.93 111.52 -4.05"/><polygon class="cls-1" points="113.41 -2.16 -2.16 113.41 -4.05 111.52 111.52 -4.05 113.41 -2.16"/><polygon class="cls-2" points="115.29 -0.28 -0.28 115.29 -2.16 113.41 113.41 -2.16 115.29 -0.28"/><polygon class="cls-1" points="117.18 1.61 1.61 117.18 -0.28 115.29 115.29 -0.28 117.18 1.61"/><polygon class="cls-2" points="119.06 3.49 3.49 119.06 1.61 117.18 117.18 1.61 119.06 3.49"/><polygon class="cls-1" points="120.95 5.38 5.38 120.95 3.49 119.06 119.06 3.49 120.95 5.38"/><polygon class="cls-2" points="122.84 7.26 7.26 122.83 5.38 120.95 120.95 5.38 122.84 7.26"/><polygon class="cls-1" points="124.72 9.15 9.15 124.72 7.26 122.83 122.84 7.26 124.72 9.15"/><polygon class="cls-2" points="126.61 11.03 11.04 126.61 9.15 124.72 124.72 9.15 126.61 11.03"/><polygon class="cls-1" points="128.49 12.92 12.92 128.49 11.04 126.61 126.61 11.03 128.49 12.92"/><polygon class="cls-2" points="130.38 14.81 14.81 130.38 12.92 128.49 128.49 12.92 130.38 14.81"/><polygon class="cls-1" points="132.26 16.69 16.69 132.26 14.81 130.38 130.38 14.81 132.26 16.69"/><polygon class="cls-2" points="134.15 18.58 18.58 134.15 16.69 132.26 132.26 16.69 134.15 18.58"/><polygon class="cls-1" points="136.03 20.46 20.46 136.03 18.58 134.15 134.15 18.58 136.03 20.46"/></pattern></defs><g id="レイヤー_2" data-name="レイヤー 2"><g id="背景"><rect class="cls-3" x="0.01" width="1920" height="500"/><rect class="cls-4" y="0.01" width="1920" height="500"/></g></g></svg>