<svg xmlns="http://www.w3.org/2000/svg" viewBox="0 0 648.75 93.04"><defs><style>.cls-1{fill:#5fc1c7;}</style></defs><g id="レイヤー_2" data-name="レイヤー 2"><g id="画像"><path class="cls-1" d="M14.14,10.5H0V.84H39.2V10.5H25.06V50.4H14.14Z"/><path class="cls-1" d="M48.65.84H82.32V10.92H59.57v9.24H81.06V30.24H59.57V40.32h24V50.4H48.65Z"/><path class="cls-1" d="M96.25.84h10.92V40.32H127.4V50.4H96.25Z"/><path class="cls-1" d="M135.8,44.38a6.47,6.47,0,0,1,.49-2.52,6.11,6.11,0,0,1,3.43-3.43,6.47,6.47,0,0,1,2.52-.49,6.54,6.54,0,0,1,2.52.49,6.32,6.32,0,0,1,2.06,1.36,6.5,6.5,0,0,1,1.37,2.07,6.72,6.72,0,0,1,0,5A6.35,6.35,0,0,1,146.82,49a6.19,6.19,0,0,1-2.06,1.37,6.54,6.54,0,0,1-2.52.49,6.47,6.47,0,0,1-2.52-.49,6.19,6.19,0,0,1-3.43-3.43A6.47,6.47,0,0,1,135.8,44.38Z"/><path class="cls-1" d="M158.41,25.62a51,51,0,0,1,.8-9,26.25,26.25,0,0,1,2.87-8.26,17.23,17.23,0,0,1,5.64-6.06,18.86,18.86,0,0,1,18.2,0,17.21,17.21,0,0,1,5.63,6.06,26.25,26.25,0,0,1,2.87,8.26,50,50,0,0,1,0,17.92,26.25,26.25,0,0,1-2.87,8.26,17.21,17.21,0,0,1-5.63,6.06,18.86,18.86,0,0,1-18.2,0,17.23,17.23,0,0,1-5.64-6.06,26.25,26.25,0,0,1-2.87-8.26A51,51,0,0,1,158.41,25.62Zm10.5,0c0,1.31.05,2.87.17,4.69a22.75,22.75,0,0,0,.95,5.25,11.12,11.12,0,0,0,2.34,4.27,6.48,6.48,0,0,0,8.86,0,11.06,11.06,0,0,0,2.38-4.27,23.28,23.28,0,0,0,.94-5.25c.12-1.82.18-3.38.18-4.69s-.06-2.87-.18-4.69a23.28,23.28,0,0,0-.94-5.25,11.06,11.06,0,0,0-2.38-4.27,6.48,6.48,0,0,0-8.86,0A11.12,11.12,0,0,0,170,15.68a22.75,22.75,0,0,0-.95,5.25C169,22.75,168.91,24.31,168.91,25.62Z"/><path class="cls-1" d="M204.47,39.27,223.72,22a36.72,36.72,0,0,0,2.94-3,5.77,5.77,0,0,0,1.47-3.92,4.78,4.78,0,0,0-1.82-4A6.75,6.75,0,0,0,222,9.66a5.89,5.89,0,0,0-4.59,1.82A7.31,7.31,0,0,0,215.6,16l-10.5-.77a17,17,0,0,1,1.61-6.69,14,14,0,0,1,3.71-4.72A15.58,15.58,0,0,1,215.84.94,23.21,23.21,0,0,1,222.6,0a20.47,20.47,0,0,1,6.3.94A14.67,14.67,0,0,1,234,3.75,12.73,12.73,0,0,1,237.4,8.4a16.09,16.09,0,0,1,1.23,6.51,17.71,17.71,0,0,1-.49,4.3,14.59,14.59,0,0,1-1.37,3.5,15.77,15.77,0,0,1-2.06,2.91,35.16,35.16,0,0,1-2.59,2.59L217.07,41.16h22V50.4H204.47Z"/><path class="cls-1" d="M250.1,13.65a13.08,13.08,0,0,1,1.3-6A12,12,0,0,1,255,3.4,15.63,15.63,0,0,1,260.25.84a25.15,25.15,0,0,1,12.89,0,15.31,15.31,0,0,1,5.25,2.56A12.66,12.66,0,0,1,282,7.67a12.83,12.83,0,0,1,1.33,6,11,11,0,0,1-2.21,6.93,11.82,11.82,0,0,1-6.19,4.06v.14a12.3,12.3,0,0,1,6.86,4.3,12.42,12.42,0,0,1,2.37,7.74,13.3,13.3,0,0,1-1.43,6.3,13.14,13.14,0,0,1-3.85,4.51,17.39,17.39,0,0,1-5.57,2.7,24.21,24.21,0,0,1-13.15,0,17.49,17.49,0,0,1-5.57-2.7,13.14,13.14,0,0,1-3.85-4.51,13.3,13.3,0,0,1-1.43-6.3,12.37,12.37,0,0,1,2.38-7.74,12.24,12.24,0,0,1,6.85-4.3v-.14a11.82,11.82,0,0,1-6.19-4.06A11,11,0,0,1,250.1,13.65Zm9.67,21.7a5.89,5.89,0,0,0,1.89,4.41,7.87,7.87,0,0,0,10.07,0,5.85,5.85,0,0,0,1.89-4.41,5.94,5.94,0,0,0-1.89-4.48,7.87,7.87,0,0,0-10.07,0A6,6,0,0,0,259.77,35.35Zm.83-20.23A5.23,5.23,0,0,0,262.29,19a6.83,6.83,0,0,0,8.81,0,5.19,5.19,0,0,0,1.69-3.92,5.12,5.12,0,0,0-1.69-3.85,6.83,6.83,0,0,0-8.81,0A5.16,5.16,0,0,0,260.6,15.12Z"/><path class="cls-1" d="M327.1,10.08H307.43l-.21,7.63a14,14,0,0,1,4.41-.56,20.48,20.48,0,0,1,6.93,1.12A15.45,15.45,0,0,1,324,21.52a14.67,14.67,0,0,1,3.53,5.19,17.64,17.64,0,0,1,1.26,6.82A18.67,18.67,0,0,1,327.35,41a16,16,0,0,1-4,5.56,17,17,0,0,1-6,3.47,23.13,23.13,0,0,1-7.53,1.19,17.89,17.89,0,0,1-10.78-3.15q-4.34-3.15-6-9.52l11-2.52a7.09,7.09,0,0,0,2.24,4.3A6.53,6.53,0,0,0,310.93,42a7,7,0,0,0,5.36-2.1,7.41,7.41,0,0,0,2-5.32,7.3,7.3,0,0,0-1-4A7.74,7.74,0,0,0,314.61,28a11,11,0,0,0-3.68-1.29,24.11,24.11,0,0,0-4.06-.35,28.08,28.08,0,0,0-5.21.49,36.76,36.76,0,0,0-5.08,1.33L297.14.84h30Z"/><path class="cls-1" d="M354.82,37.17H337.6v-8.4h17.22Z"/><path class="cls-1" d="M383.38,40.46H361.75V31.64L382,.84h11.48v30.8h6.37v8.82h-6.37V50.4H383.38Zm0-25.9h-.14l-11,17.08h11.13Z"/><path class="cls-1" d="M428.32,40.46H406.69V31.64L426.92.84H438.4v30.8h6.37v8.82H438.4V50.4H428.32Zm0-25.9h-.14l-11,17.08h11.13Z"/><path class="cls-1" d="M468.92,37.17H451.7v-8.4h17.22Z"/><path class="cls-1" d="M476.48,25.62a51,51,0,0,1,.81-9,26,26,0,0,1,2.87-8.26,17.12,17.12,0,0,1,5.63-6.06,18.86,18.86,0,0,1,18.2,0,17.23,17.23,0,0,1,5.64,6.06,26.5,26.5,0,0,1,2.87,8.26,50.58,50.58,0,0,1,0,17.92,26.5,26.5,0,0,1-2.87,8.26A17.23,17.23,0,0,1,504,48.9a18.86,18.86,0,0,1-18.2,0,17.12,17.12,0,0,1-5.63-6.06,26,26,0,0,1-2.87-8.26A51,51,0,0,1,476.48,25.62Zm10.5,0c0,1.31.06,2.87.18,4.69a22.74,22.74,0,0,0,.94,5.25,11.14,11.14,0,0,0,2.35,4.27,6.47,6.47,0,0,0,8.85,0,10.93,10.93,0,0,0,2.38-4.27,23.29,23.29,0,0,0,.95-5.25c.11-1.82.17-3.38.17-4.69s-.06-2.87-.17-4.69a23.29,23.29,0,0,0-.95-5.25,10.93,10.93,0,0,0-2.38-4.27,6.47,6.47,0,0,0-8.85,0,11.14,11.14,0,0,0-2.35,4.27,22.74,22.74,0,0,0-.94,5.25C487,22.75,487,24.31,487,25.62Z"/><path class="cls-1" d="M539.2,18.55c.56-.14,1.12-.26,1.68-.35a11,11,0,0,1,1.75-.14A15.68,15.68,0,0,1,549,19.32a14.68,14.68,0,0,1,4.9,3.43,15.45,15.45,0,0,1,3.15,5.15,17.72,17.72,0,0,1,1.12,6.33,16.15,16.15,0,0,1-5.35,12.32A17.78,17.78,0,0,1,546.94,50a22.24,22.24,0,0,1-14.53,0,17.69,17.69,0,0,1-5.84-3.47,16.13,16.13,0,0,1-3.92-5.36,16.35,16.35,0,0,1-1.44-7,22.31,22.31,0,0,1,.49-4.87A25.87,25.87,0,0,1,523,25.2a25.21,25.21,0,0,1,1.89-3.74c.72-1.19,1.48-2.42,2.27-3.68L538,.84h12.81Zm8.47,15.26a7.51,7.51,0,0,0-2.2-5.56,8.65,8.65,0,0,0-11.55,0,7.52,7.52,0,0,0-2.21,5.56,7.57,7.57,0,0,0,2.21,5.57,8.68,8.68,0,0,0,11.55,0A7.57,7.57,0,0,0,547.67,33.81Z"/><path class="cls-1" d="M584.21,12.6l-9.94,8.75-5.95-6.86L584.49.84h9.8V50.4H584.21Z"/><path class="cls-1" d="M632.3,40.46H610.67V31.64L630.9.84h11.48v30.8h6.37v8.82h-6.37V50.4H632.3Zm0-25.9h-.14l-11,17.08H632.3Z"/><path class="cls-1" d="M40.47,69.2h6.25a16.46,16.46,0,0,0-2.57,4.65,22.19,22.19,0,0,0-1.06,7.27,22.25,22.25,0,0,0,1.06,7.28A16.3,16.3,0,0,0,46.72,93H40.47Z"/><path class="cls-1" d="M62.46,75.82c-.29.05-.39.08-.72.15a39,39,0,0,1-4.3.75v4.33a16.72,16.72,0,0,1,5.22-.9,8,8,0,0,1,4.29,1,5,5,0,0,1,2.5,4.42,5,5,0,0,1-5,5.18A3.59,3.59,0,0,1,60.77,88a9.38,9.38,0,0,1-.3-2.82,5,5,0,0,0,1.6-.65,9.18,9.18,0,0,0,0,1c0,2.6.72,3.68,2.49,3.68a3.28,3.28,0,0,0,3.25-3.53c0-2.45-2-4-5.19-4a16.06,16.06,0,0,0-5.14,1v6.25c0,1.35-.58,2-1.77,2a6.29,6.29,0,0,1-4-1.6,3,3,0,0,1-1.11-2.35,4.54,4.54,0,0,1,1.91-3.32,12.65,12.65,0,0,1,3.42-2V76.82c-.22,0-.22,0-1,.08-.43,0-.85,0-1.55,0-.36,0-1,0-1.29,0h-1V75.25a13.79,13.79,0,0,0,2.47.17c.66,0,1.6,0,2.33-.07V72.88a16.75,16.75,0,0,0-.12-2.38h1.79a15.68,15.68,0,0,0-.12,2.32v2.4a23.82,23.82,0,0,0,5-1.07ZM55.89,83.2c-2.4,1.2-3.76,2.55-3.76,3.75a1.92,1.92,0,0,0,1,1.5,4.44,4.44,0,0,0,2.15.72c.49,0,.56-.15.56-1.22ZM69.2,78.5a20,20,0,0,0-4.89-4.9l1.26-1a20.72,20.72,0,0,1,4.89,4.75Z"/><path class="cls-1" d="M78.66,71.88a21.62,21.62,0,0,0-2.4.1V70.43a18.67,18.67,0,0,0,2.48.15h12.6a16.2,16.2,0,0,0,2.41-.15V72a19.38,19.38,0,0,0-2.33-.1H85.5V73.4h7.15a16.24,16.24,0,0,0,2.67-.13,14.93,14.93,0,0,0-.1,1.9v1.48a9.09,9.09,0,0,0,.15,1.87H93.79v-3.9H85.5v3a16.46,16.46,0,0,0,.12,2.45H83.88A16,16,0,0,0,84,77.62v-3H76.19v3.9H74.61a10.65,10.65,0,0,0,.15-1.87V75.17a14,14,0,0,0-.1-1.9,15.82,15.82,0,0,0,2.65.13H84V71.88Zm-.34,16.44v1.4H76.7a13.45,13.45,0,0,0,.14-2.12V83a20.65,20.65,0,0,0-.09-2.22,16.53,16.53,0,0,0,2.08.1H91.05a18.11,18.11,0,0,0,2.21-.1,19,19,0,0,0-.1,2.22v3.65a16.85,16.85,0,0,0,.08,1.8,19.45,19.45,0,0,0-2.19-.1h-5.6V90c0,.6.51.68,3.91.68,2.88,0,4.17-.13,4.58-.48s.41-1,.44-3a5.43,5.43,0,0,0,1.5.7c0,2-.32,3-.92,3.4s-2.06.68-5.85.68c-4.51,0-5.14-.2-5.14-1.65V88.32Zm-.8-12.52a11.57,11.57,0,0,0,1.48.07h2.26a10.62,10.62,0,0,0,1.4-.07V77a7.11,7.11,0,0,0-1.4-.1H79a7.87,7.87,0,0,0-1.48.1Zm0,2.4a8.05,8.05,0,0,0,1.48.1h2.26a7.82,7.82,0,0,0,1.4-.1v1.22a7.82,7.82,0,0,0-1.4-.1H79a8.42,8.42,0,0,0-1.48.1Zm.8,3.87v1.78H84V82.07Zm0,3v2H84v-2Zm13.36-1.2V82.07H85.45v1.78Zm0,3.22v-2H85.45v2ZM87,75.77a7.25,7.25,0,0,0,1.48.1H91.1a6.91,6.91,0,0,0,1.41-.1V77a7,7,0,0,0-1.41-.1H88.46A7.49,7.49,0,0,0,87,77Zm0,2.43a8.05,8.05,0,0,0,1.48.1H91.1a7.94,7.94,0,0,0,1.41-.1v1.22a7.86,7.86,0,0,0-1.41-.1H88.46a8.42,8.42,0,0,0-1.48.1Z"/><path class="cls-1" d="M99.83,74.17a10.21,10.21,0,0,0,1.94.13h4.51a9.51,9.51,0,0,0,1.94-.13v1.6a10.94,10.94,0,0,0-1.74-.1h-4.71a15.07,15.07,0,0,0-1.94.1Zm.83-3.42a9.67,9.67,0,0,0,1.87.13h3.37a9.69,9.69,0,0,0,1.86-.13v1.58a12.37,12.37,0,0,0-1.86-.1h-3.37a12.68,12.68,0,0,0-1.87.1Zm.12,6.87a10.63,10.63,0,0,0,1.75.1h3.58a10,10,0,0,0,1.73-.1v1.55a13,13,0,0,0-1.73-.1h-3.58a12.33,12.33,0,0,0-1.75.1Zm0,3.45a10.12,10.12,0,0,0,1.75.1h3.58a9.73,9.73,0,0,0,1.73-.1v1.55a12.32,12.32,0,0,0-1.73-.1h-3.58a11.69,11.69,0,0,0-1.75.1Zm1.67,11.35h-1.57A17.19,17.19,0,0,0,101,90V86.6a12.73,12.73,0,0,0-.12-2.08,15.26,15.26,0,0,0,2,.1H106a10.34,10.34,0,0,0,1.77-.07c-.05.52-.07,1-.07,2v3.55a13.7,13.7,0,0,0,.12,2h-1.5v-1h-3.86Zm0-2.65h3.88V85.92h-3.88ZM113.9,73.1a47.38,47.38,0,0,1-4.75.7,5.67,5.67,0,0,0-.66-1.45,36.56,36.56,0,0,0,8.39-1.45,12.68,12.68,0,0,0,2.72-1.07l1,1.42-.78.23c-.87.32-3.42,1-4.44,1.29V77.4h3.21a17,17,0,0,0,2.59-.15V79a17.75,17.75,0,0,0-2.59-.15h-3.21v4.27h3a11.42,11.42,0,0,0,1.82-.1,15.8,15.8,0,0,0-.1,2.23v4.65a21.83,21.83,0,0,0,.12,2.45H118.6V91.05h-7.52V92.3h-1.64a15.73,15.73,0,0,0,.12-2.43v-4.8a18.59,18.59,0,0,0-.1-2.1,11,11,0,0,0,1.72.1h2.72V78.8h-2.57a15.48,15.48,0,0,0-2.69.15v-1.7a15.79,15.79,0,0,0,2.71.15h2.55Zm-2.82,16.55h7.52v-5.2h-7.52Z"/><path class="cls-1" d="M125,74.07c.46,0,.7,0,.87,0,.34,0,.63,0,1.38-.08,1.36-.1,1.51-.12,4.49-.3l3.8-.25c3-.17,3.3-.2,4.1-.22l1.38,0a16.16,16.16,0,0,0,2.89-.28l.14,1.85a9.83,9.83,0,0,0-2.71.35,12,12,0,0,0-4.66,2.5,7.72,7.72,0,0,0-3,5.78,4.88,4.88,0,0,0,3.4,4.62,12,12,0,0,0,3.63.8h.25l-.32,2c-.27,0-.31-.08-.75-.15a12,12,0,0,1-5.24-1.93,6.1,6.1,0,0,1-2.69-5.1c0-2.9,1.65-5.65,4.53-7.67a15.89,15.89,0,0,1,2.31-1.33,47,47,0,0,1-5.34.55,76.17,76.17,0,0,0-8.36.83Zm16.22,3.73a19.32,19.32,0,0,1,2.5,3.87l-1.24.75a17.81,17.81,0,0,0-2.47-4Zm2.74-1.38a20.7,20.7,0,0,1,2.5,3.9l-1.22.7a19.6,19.6,0,0,0-2.47-3.92Z"/><path class="cls-1" d="M157.81,84c-1.4,3.3-2.83,4.8-4.58,4.8-2.3,0-4-2.6-4-6.1a10.62,10.62,0,0,1,2.54-6.9,10,10,0,0,1,7.83-3.32,9.21,9.21,0,0,1,6.67,2.47A8.5,8.5,0,0,1,168.6,81a9.11,9.11,0,0,1-5.55,8.63,19,19,0,0,1-3.68,1.15,4.1,4.1,0,0,0-.85-1.68,14.22,14.22,0,0,0,4-1.17,7.58,7.58,0,0,0,4.29-7A6.62,6.62,0,0,0,163,74.67a6.77,6.77,0,0,0-2.81-.62A37.88,37.88,0,0,1,157.81,84Zm-3-8.72a8.7,8.7,0,0,0-4,7.45c0,2.4,1,4.25,2.33,4.25,1,0,2-1.18,3-3.63a35.18,35.18,0,0,0,2.2-9.25A7.58,7.58,0,0,0,154.83,75.25Z"/><path class="cls-1" d="M190.74,82a9.06,9.06,0,0,0-.82.9,22.43,22.43,0,0,1-4.92,4.8,24.78,24.78,0,0,0,9.58,3.1,8,8,0,0,0-.88,1.63,24.17,24.17,0,0,1-10.11-3.8,28.83,28.83,0,0,1-9.87,3.75,6,6,0,0,0-.87-1.58,25.48,25.48,0,0,0,9.43-3.15,16.37,16.37,0,0,1-4.34-5.32,14.15,14.15,0,0,0-1.79.15V80.77a15.17,15.17,0,0,0,2.42.15h9a11.45,11.45,0,0,0,2.14-.12Zm-12.8-5.3a22.39,22.39,0,0,0-1.28-3.35c-.51,0-.9,0-2.16.06a4.38,4.38,0,0,0-.56-1.48,76.32,76.32,0,0,0,11.35-.72,24.83,24.83,0,0,0,6.35-1.45l1.07,1.47a6.13,6.13,0,0,0-1,.23,66.89,66.89,0,0,1-8.29,1.42,25.57,25.57,0,0,1,1.28,3.82h2.81a21,21,0,0,0,2-4.44l1.58.57a42.86,42.86,0,0,1-2,3.87h2.06a24,24,0,0,0,2.77-.1,15.81,15.81,0,0,0-.1,1.9V80.1a8.13,8.13,0,0,0,.12,1.55h-1.65v-3.5H174.84v3.62h-1.65a13.44,13.44,0,0,0,.12-1.77V78.42c0-.65-.05-1.2-.1-1.87a22.37,22.37,0,0,0,3,.12Zm5.29,0A23.79,23.79,0,0,0,181.94,73c-1.21.1-2,.17-3.8.25a24.37,24.37,0,0,1,1.35,3.42Zm-3.64,5.63a13.52,13.52,0,0,0,4,4.5,19.3,19.3,0,0,0,4.8-4.5Z"/><path class="cls-1" d="M203.26,89.47c0,1.15.05,2.1.12,3h-1.82a25.42,25.42,0,0,0,.15-3V81.07c0-1.1,0-1.87.09-3a21,21,0,0,1-2.71,3.85l-.17-.28a4.11,4.11,0,0,0-.9-1.1,24.88,24.88,0,0,0,4.88-7.62A13.77,13.77,0,0,0,204,69.7l1.75.58a11,11,0,0,0-.61,1.42c-.34.88-1.11,2.6-1.84,4Zm13.12.3c0,1.65-.51,2-2.69,2-.95,0-1.87,0-2.94-.15a5.42,5.42,0,0,0-.46-1.7,18.81,18.81,0,0,0,3.32.3c1,0,1.22-.12,1.22-.65V77.27h-7.62a18.13,18.13,0,0,0-2.59.15V75.67a17.36,17.36,0,0,0,2.52.15h7.69V73a19.32,19.32,0,0,0-.17-2.92h1.86a26.26,26.26,0,0,0-.14,2.92v2.87h1.19a14.38,14.38,0,0,0,2.3-.15v1.7c-.75-.07-1.53-.1-2.3-.1h-1.19Zm-8.9-10.27a31.66,31.66,0,0,1,4.1,5.65l-1.36,1.07a25.53,25.53,0,0,0-4-5.82Z"/><path class="cls-1" d="M224.75,73.67a21.69,21.69,0,0,0-.1-2.39,20.41,20.41,0,0,0,2.23.07h1.79a20.88,20.88,0,0,0,2.19-.07,17.2,17.2,0,0,0-.08,2.44v13.7c0,1.2,0,1.85.08,2.4h-1.51V88.57h-3.17v2.05H224.6a20,20,0,0,0,.15-2.65ZM226.18,79h3.17v-6.2h-3.17Zm0,8.22h3.17V80.3h-3.17Zm8.46-12.9a19.37,19.37,0,0,0-2.33.13V72.75a13.87,13.87,0,0,0,2.3.15h2.57v-.8a12.82,12.82,0,0,0-.14-2h1.79a13.43,13.43,0,0,0-.14,2v.8h3.44a14.21,14.21,0,0,0,2.3-.15V74.4a18.24,18.24,0,0,0-2.3-.13h-3.44v3.25H243a15.42,15.42,0,0,0,2.45-.15v1.68a15.16,15.16,0,0,0-2.35-.15h-.8v2.92H243a14.32,14.32,0,0,0,2.37-.15V83.4a15.53,15.53,0,0,0-2.37-.15h-.75v7c0,1.6-.54,2-2.79,2-.39,0-.78,0-2.18-.1a4.65,4.65,0,0,0-.39-1.65,16.52,16.52,0,0,0,2.76.3c.92,0,1.09-.1,1.09-.65V83.25h-6.83a17.58,17.58,0,0,0-2.43.15V81.67a15,15,0,0,0,2.45.15h6.81V78.9H234a17.28,17.28,0,0,0-2.45.15V77.37a15.69,15.69,0,0,0,2.45.15h3.22V74.27Zm1.87,15a22.37,22.37,0,0,0-3.37-4.2l1.18-.88a26.65,26.65,0,0,1,3.5,4.08Z"/><path class="cls-1" d="M251.71,89.6a18,18,0,0,0,.15,2.8h-1.8a18.73,18.73,0,0,0,.15-2.8V73.45c0-1.22,0-2-.1-2.75a20.76,20.76,0,0,0,2.55.1h3.46a19.68,19.68,0,0,0,2.48-.1c-.05.7-.08,1.45-.08,2.37v3.1c0,1,0,1.7.08,2.33-.66,0-1.48-.08-2.45-.08h-4.44Zm0-15.58h5.43V72h-5.43Zm0,3.2h5.43v-2h-5.43Zm12.73,9.48c0,1,0,1.62.07,2.27-.68,0-1.48-.07-2.47-.07h-5.31v1.75h-1.5a17,17,0,0,0,.12-2.35V82.75c0-.9,0-1.63-.07-2.35a22.13,22.13,0,0,0,2.4.1h4.43a21.89,21.89,0,0,0,2.4-.1c-.05.7-.07,1.35-.07,2.35ZM256.73,84h6.33V81.75h-6.33Zm0,3.68h6.33V85.22h-6.33Zm13,2.32c0,1.65-.51,2.08-2.48,2.08-.51,0-1.82,0-2.42-.1a5.82,5.82,0,0,0-.44-1.6,25.62,25.62,0,0,0,2.67.25c1,0,1.19-.13,1.19-.73V78.42h-5c-1,0-1.8,0-2.45.08.05-.65.07-1.4.07-2.33v-3.1c0-.87,0-1.62-.07-2.37a19.31,19.31,0,0,0,2.47.1h4a20.86,20.86,0,0,0,2.55-.1,23.81,23.81,0,0,0-.12,2.75Zm-7.45-16h6V72h-6Zm0,3.2h6v-2h-6Z"/><path class="cls-1" d="M274.36,93a15.82,15.82,0,0,0,2.57-4.64A21.78,21.78,0,0,0,278,81.12a21.71,21.71,0,0,0-1.07-7.27,16,16,0,0,0-2.57-4.65h6.26V93Z"/><path class="cls-1" d="M290.22,86.32a4,4,0,0,0,.87,1.6,3.88,3.88,0,0,0,3.06,1.18,4.16,4.16,0,0,0,3.9-2.3,10.2,10.2,0,0,0,1-3.2,28.44,28.44,0,0,0,.22-2.93,4.82,4.82,0,0,1-1,1.4,6.51,6.51,0,0,1-8.77.1,6.44,6.44,0,0,1-1.65-4.5,6.17,6.17,0,0,1,6.57-6.57,6.1,6.1,0,0,1,5.87,4.2,15.7,15.7,0,0,1,.7,5.2c0,3.47-.7,6.3-2,8A5.89,5.89,0,0,1,294,90.8a6,6,0,0,1-4.07-1.35,6.43,6.43,0,0,1-1.7-2.48Zm8.63-8.8a4.55,4.55,0,0,0-8.39-2.6,5.52,5.52,0,0,0-.63,2.63c0,2.82,1.68,4.6,4.32,4.6A4.55,4.55,0,0,0,298.85,77.52Z"/><path class="cls-1" d="M307.9,79.47h-2.4V77h2.4Zm-2.4,11V88h2.4v2.47Z"/><path class="cls-1" d="M314.35,89.07a6.38,6.38,0,0,1-1.46-2.3A17.9,17.9,0,0,1,312,81a15,15,0,0,1,1.41-6.8,6.39,6.39,0,0,1,9.87-1.3,6.24,6.24,0,0,1,1.45,2.3,17.55,17.55,0,0,1,.92,5.8c0,3-.63,5.7-1.69,7.22a6.38,6.38,0,0,1-9.58.85Zm1.41-14.95A5.08,5.08,0,0,0,314.67,76a15.88,15.88,0,0,0-.76,5,14.29,14.29,0,0,0,1.14,6,4.1,4.1,0,0,0,3.76,2.17,4,4,0,0,0,3-1.17,5,5,0,0,0,1.14-2,15.93,15.93,0,0,0,.75-5,14.58,14.58,0,0,0-1.09-5.83,4.07,4.07,0,0,0-3.8-2.27A3.88,3.88,0,0,0,315.76,74.12Z"/><path class="cls-1" d="M331.49,89.07a6.23,6.23,0,0,1-1.45-2.3,17.63,17.63,0,0,1-.92-5.77,15.12,15.12,0,0,1,1.4-6.8A6,6,0,0,1,336,71.13a5.88,5.88,0,0,1,4.43,1.77,6.27,6.27,0,0,1,1.46,2.3,17.82,17.82,0,0,1,.92,5.8c0,3-.63,5.7-1.7,7.22a5.87,5.87,0,0,1-5.14,2.63A6,6,0,0,1,331.49,89.07Zm1.41-14.95A5.08,5.08,0,0,0,331.81,76a15.88,15.88,0,0,0-.75,5,14.13,14.13,0,0,0,1.14,6A4.1,4.1,0,0,0,336,89.12a4,4,0,0,0,3-1.17,5.09,5.09,0,0,0,1.14-2,15.93,15.93,0,0,0,.75-5,14.58,14.58,0,0,0-1.09-5.83,4.08,4.08,0,0,0-3.81-2.27A3.89,3.89,0,0,0,332.9,74.12Z"/><path class="cls-1" d="M346.36,81.07c2.16-2.17,3.66-2.95,5.84-2.95a6.34,6.34,0,0,1,3,.73,13.5,13.5,0,0,1,2.28,1.5c2,1.5,3.28,2.05,4.66,2.05a4.52,4.52,0,0,0,1.94-.43,6.53,6.53,0,0,0,2.76-2.42l1.26,1.12a10.06,10.06,0,0,1-2.78,2.58,6.43,6.43,0,0,1-3.2.85,7.43,7.43,0,0,1-2.31-.4,12.19,12.19,0,0,1-3.37-2c-1.91-1.47-2.88-1.9-4.36-1.9a4.86,4.86,0,0,0-2.5.65,8.65,8.65,0,0,0-2,1.75Z"/><path class="cls-1" d="M374.49,71.35a11.31,11.31,0,0,0,2,.13H378a13.4,13.4,0,0,0,2-.13c-.14,1.53-.22,2.8-.22,4.15V87.65a15.89,15.89,0,0,0,.2,2.82h-2.31a15.68,15.68,0,0,0,.2-2.82V73.17H376.6a15.63,15.63,0,0,0-2.11.15Z"/><path class="cls-1" d="M402.09,73.17a9.7,9.7,0,0,0-1.8,2.4,32.87,32.87,0,0,0-4.14,8.65,33.68,33.68,0,0,0-1.29,6.25h-2.3a33.57,33.57,0,0,1,2.93-10,40.92,40.92,0,0,1,4.36-7.25H392a19,19,0,0,0-2.75.17V71.3a17.89,17.89,0,0,0,2.77.18h7.27a20.52,20.52,0,0,0,2.82-.13Z"/><path class="cls-1" d="M409,79.47h-2.41V77H409Zm-2.41,11V88H409v2.47Z"/><path class="cls-1" d="M415.42,89.07a6.23,6.23,0,0,1-1.45-2.3,17.63,17.63,0,0,1-.92-5.77,15.12,15.12,0,0,1,1.4-6.8,6.39,6.39,0,0,1,9.87-1.3,6.27,6.27,0,0,1,1.46,2.3,17.82,17.82,0,0,1,.92,5.8c0,3-.63,5.7-1.7,7.22a5.87,5.87,0,0,1-5.14,2.63A6,6,0,0,1,415.42,89.07Zm1.41-14.95A5.08,5.08,0,0,0,415.74,76a15.88,15.88,0,0,0-.75,5,14.13,14.13,0,0,0,1.14,6,4.1,4.1,0,0,0,3.76,2.17,4,4,0,0,0,3-1.17A5.09,5.09,0,0,0,424,86a15.93,15.93,0,0,0,.75-5,14.58,14.58,0,0,0-1.09-5.83,4.08,4.08,0,0,0-3.81-2.27A3.89,3.89,0,0,0,416.83,74.12Z"/><path class="cls-1" d="M432.57,89.07a6.38,6.38,0,0,1-1.46-2.3,17.9,17.9,0,0,1-.92-5.77,15,15,0,0,1,1.41-6.8,6.39,6.39,0,0,1,9.87-1.3,6.24,6.24,0,0,1,1.45,2.3,17.55,17.55,0,0,1,.92,5.8c0,3-.63,5.7-1.69,7.22A5.87,5.87,0,0,1,437,90.85,5.94,5.94,0,0,1,432.57,89.07ZM434,74.12A5.08,5.08,0,0,0,432.89,76a15.88,15.88,0,0,0-.76,5,14.29,14.29,0,0,0,1.14,6A4.1,4.1,0,0,0,437,89.12,4,4,0,0,0,440,88a4.85,4.85,0,0,0,1.14-2,15.93,15.93,0,0,0,.75-5,14.58,14.58,0,0,0-1.09-5.83,4.07,4.07,0,0,0-3.8-2.27A3.88,3.88,0,0,0,434,74.12Z"/><path class="cls-1" d="M455.24,92.65a16.83,16.83,0,0,1-3.37-5.38,16.88,16.88,0,0,1,0-12.3,16.91,16.91,0,0,1,3.37-5.37h2.16a15.88,15.88,0,0,0-3.69,5.17,16,16,0,0,0,0,12.7,15.81,15.81,0,0,0,3.69,5.18Z"/><path class="cls-1" d="M470.62,72.65a18.22,18.22,0,0,0-.17-2.62h2a16.24,16.24,0,0,0-.17,2.62V78h5.65a16.68,16.68,0,0,0,2.61-.15V79.7a18.52,18.52,0,0,0-2.61-.13h-5.65v10h7.46a20.51,20.51,0,0,0,2.74-.15v1.9a17.92,17.92,0,0,0-2.74-.18H463.8a19.58,19.58,0,0,0-2.88.18V89.4a21.89,21.89,0,0,0,2.88.15h6.82v-10h-5.09a18.7,18.7,0,0,0-2.65.13V77.87a17.45,17.45,0,0,0,2.65.15h5.09Z"/><path class="cls-1" d="M488.15,73.6a17.64,17.64,0,0,0-.12-2.45,19.11,19.11,0,0,0,2.59.13h10.92a16.86,16.86,0,0,0,2.49-.13,17.38,17.38,0,0,0-.12,2.3v16a19.24,19.24,0,0,0,.15,2.68h-1.77V90.52H489.78v1.63H488a21.25,21.25,0,0,0,.14-2.65Zm1.63,6.2h12.51v-7H489.78Zm0,9.2h12.51V81.32H489.78Z"/><path class="cls-1" d="M514.58,89.72a13.65,13.65,0,0,0,.17,2.6h-1.81a17.7,17.7,0,0,0,.14-2.6V82.17a22.65,22.65,0,0,1-3.54,3.15,6.93,6.93,0,0,0-.82-1.37,20.42,20.42,0,0,0,4.36-3.73,17.89,17.89,0,0,0,3.06-4.75H511.7a15.48,15.48,0,0,0-2,.1V74a12.51,12.51,0,0,0,1.92.1h1.45V71.68a13.17,13.17,0,0,0-.14-2h1.82a10.65,10.65,0,0,0-.15,2v2.39h1.14a11,11,0,0,0,1.5-.07l.8.9c-.19.35-.19.35-1,2a19.09,19.09,0,0,1-2.21,3.3,13.71,13.71,0,0,0,3.76,3,5.45,5.45,0,0,0-.77,1.4,19.21,19.21,0,0,1-3.28-2.77Zm6.07-9.47a14.33,14.33,0,0,0-1.94.1,19,19,0,0,0,.09-2.2v-5a18.79,18.79,0,0,0-.09-2.07,18.45,18.45,0,0,0,2.3.1h6.81a16.79,16.79,0,0,0,2.18-.1,17.22,17.22,0,0,0-.09,2v5.22a16.87,16.87,0,0,0,.09,2,14.37,14.37,0,0,0-2-.1h-1.28c0,9.62,0,9.62,0,9.72.05.25.36.35,1.09.35,1.24,0,1.79-.07,2-.27s.44-1.3.47-4a4.55,4.55,0,0,0,1.45.7c-.24,3.62-.36,4.27-1,4.67a5.38,5.38,0,0,1-2.67.38c-1.38,0-1.89-.08-2.33-.38s-.46-.52-.46-1.17v-10h-2.16A17.22,17.22,0,0,1,522,86.67a9.79,9.79,0,0,1-2.35,3.7,10.17,10.17,0,0,1-2.71,1.9,6.93,6.93,0,0,0-1.17-1.35,8.27,8.27,0,0,0,3.42-2.45c1.62-2,2.3-4.25,2.4-8.22Zm-.34-1.4h8.09V72.6h-8.09Z"/><path class="cls-1" d="M536.87,73.6a17.64,17.64,0,0,0-.12-2.45,19,19,0,0,0,2.59.13h10.91a16.93,16.93,0,0,0,2.5-.13,15.83,15.83,0,0,0-.12,2.3v16a21.21,21.21,0,0,0,.14,2.68H551V90.52H538.49v1.63h-1.77a19.27,19.27,0,0,0,.15-2.65Zm1.62,6.2H551v-7H538.49Zm0,9.2H551V81.32H538.49Z"/><path class="cls-1" d="M559.3,72.48c0-.7,0-1.4-.07-1.9a12.72,12.72,0,0,0,1.58.07H564a7.19,7.19,0,0,0,1.55-.1l.85.85a2.39,2.39,0,0,1-.17.4c0,.08-.1.22-.2.43a41.61,41.61,0,0,1-2.64,5.52A8.56,8.56,0,0,1,565,80.5a9.82,9.82,0,0,1,.49,3.1c0,1.6-.42,2.5-1.29,2.8a5.71,5.71,0,0,1-1.72.22l-.83,0a4.3,4.3,0,0,0-.29-1.5,11.47,11.47,0,0,0,1.43.1c.93,0,1.27-.4,1.27-1.53a7.83,7.83,0,0,0-2.21-5.8A30.16,30.16,0,0,0,564.56,72h-3.78V89.75c0,1,.05,1.87.12,2.65h-1.74a22.25,22.25,0,0,0,.14-2.68Zm9.82,12.17a14.9,14.9,0,0,1-4.14,6.4,5,5,0,0,0-1.14-1.15,11.29,11.29,0,0,0,2.25-2.38,13.05,13.05,0,0,0,1.67-3.47Zm.32-6.28a15.3,15.3,0,0,0-1.87.1V76.9a19.18,19.18,0,0,1-2,1.42,4.13,4.13,0,0,0-1-1.35,16.08,16.08,0,0,0,6.88-7h1.7a17.45,17.45,0,0,0,7.64,7,11.12,11.12,0,0,0-.92,1.5,21.57,21.57,0,0,1-7.52-7.07,20,20,0,0,1-4.8,5.47,13.37,13.37,0,0,0,1.89.1h6.09a13.34,13.34,0,0,0,1.84-.1v1.57a14.58,14.58,0,0,0-1.84-.1H573V81.5h4.54a14.64,14.64,0,0,0,2.3-.15v1.72a14.82,14.82,0,0,0-2.3-.15H573v7.3c0,1.45-.58,1.93-2.3,1.93-.56,0-1.4,0-2.13-.1a4.84,4.84,0,0,0-.49-1.65,17.37,17.37,0,0,0,2.48.22c.68,0,.92-.15.92-.57V82.92h-3.42a14.59,14.59,0,0,0-2.09.13V81.37a14.49,14.49,0,0,0,2.09.13h3.42V78.37Zm7,5.73a13.91,13.91,0,0,0,4,5.65,7,7,0,0,0-1.16,1.32,19.7,19.7,0,0,1-4.15-6.37Z"/><path class="cls-1" d="M596.72,71.78c-.27.22-.46.4-3,2.89a70.92,70.92,0,0,1-5.57,4.73c-.9.7-1.07.9-1.07,1.25s.19.62,2.16,2.2A72.19,72.19,0,0,1,597,89.67a5.76,5.76,0,0,0,.68.63l-1.53,1.55A23.52,23.52,0,0,0,593,88.42c-1.62-1.55-2.59-2.37-6.13-5.22-1.36-1.1-1.75-1.65-1.75-2.5a2.47,2.47,0,0,1,.7-1.68,21.27,21.27,0,0,1,2.07-1.7c3.22-2.55,6.25-5.47,7.1-6.84Z"/><path class="cls-1" d="M603.1,92.65a15.6,15.6,0,0,0,3.68-5.18,16,16,0,0,0,0-12.7,15.68,15.68,0,0,0-3.68-5.17h2.16A17.09,17.09,0,0,1,608.63,75a16.88,16.88,0,0,1,0,12.3,17,17,0,0,1-3.37,5.38Z"/></g></g></svg>