<svg xmlns="http://www.w3.org/2000/svg" viewBox="0 0 247.73 13.39"><defs><style>.cls-1{fill:#fff;}</style></defs><g id="レイヤー_2" data-name="レイヤー 2"><g id="文字"><path class="cls-1" d="M0,.32H1.51V5.83h.22L7.52.32H9.7L3.4,6.14,10,13.07H7.79L1.73,6.59H1.51v6.48H0Z"/><path class="cls-1" d="M25.36,13.39a7,7,0,0,1-2.67-.5,6.49,6.49,0,0,1-2.11-1.4A6.27,6.27,0,0,1,19.2,9.37a7.09,7.09,0,0,1-.5-2.67A7.14,7.14,0,0,1,19.2,4,6.27,6.27,0,0,1,20.58,1.9,6.49,6.49,0,0,1,22.69.5,7.41,7.41,0,0,1,28,.5a6.44,6.44,0,0,1,2.1,1.4A6.15,6.15,0,0,1,31.53,4,7.14,7.14,0,0,1,32,6.7a7.08,7.08,0,0,1-.49,2.67,6.15,6.15,0,0,1-1.39,2.12,6.44,6.44,0,0,1-2.1,1.4A7.06,7.06,0,0,1,25.36,13.39Zm0-1.4a4.91,4.91,0,0,0,2.05-.42A4.86,4.86,0,0,0,29,10.44a5.14,5.14,0,0,0,1-1.68A5.62,5.62,0,0,0,30.4,6.7,5.67,5.67,0,0,0,30,4.63,5.14,5.14,0,0,0,29,3a4.86,4.86,0,0,0-1.59-1.13,5.19,5.19,0,0,0-4.09,0A4.66,4.66,0,0,0,21.73,3a5.16,5.16,0,0,0-1,1.68,5.95,5.95,0,0,0,0,4.13,5.16,5.16,0,0,0,1,1.68,4.66,4.66,0,0,0,1.59,1.13A4.9,4.9,0,0,0,25.36,12Z"/><path class="cls-1" d="M41.08.32h1.67l2.9,10.59h0L48.82.32h1.69l3.11,10.59h0l3-10.59h1.58L54.45,13.07H52.81L49.66,2.27h0l-3.17,10.8H44.8Z"/><path class="cls-1" d="M71.69.32h1.43l5.41,12.75H76.77l-1.3-3.13H69.1l-1.31,3.13H66.08Zm.69,2h0L69.7,8.53h5.2Z"/><path class="cls-1" d="M110.36,3a3.78,3.78,0,0,0-1.42-1.16,4.22,4.22,0,0,0-1.77-.39,4.36,4.36,0,0,0-2,.44A4.64,4.64,0,0,0,103.68,3a5.31,5.31,0,0,0-1,1.69,5.68,5.68,0,0,0-.36,2,5.85,5.85,0,0,0,.36,2.07,5.21,5.21,0,0,0,1,1.68,4.73,4.73,0,0,0,1.53,1.12,4.58,4.58,0,0,0,2,.42,4.69,4.69,0,0,0,2.09-.46,4.8,4.8,0,0,0,1.6-1.32l1.14.95a5.25,5.25,0,0,1-2.08,1.69,6.71,6.71,0,0,1-2.75.54,6.55,6.55,0,0,1-2.55-.5,6.17,6.17,0,0,1-2.06-1.4,6.31,6.31,0,0,1-1.37-2.11,7.1,7.1,0,0,1-.5-2.68,7.11,7.11,0,0,1,.48-2.63,6.32,6.32,0,0,1,1.34-2.13,6.44,6.44,0,0,1,2-1.42A6.37,6.37,0,0,1,107.17,0a6.85,6.85,0,0,1,2.5.47,4.59,4.59,0,0,1,2,1.53Z"/><path class="cls-1" d="M122.2.32h1.51V11.66h5.84v1.41H122.2Z"/><path class="cls-1" d="M139.3.32h8V1.73h-6.5v4h6.07V7.13h-6.07v4.53h6.83v1.41H139.3Z"/><path class="cls-1" d="M162.22.32h1.42l5.42,12.75h-1.77L166,9.94h-6.38l-1.31,3.13H156.6Zm.68,2h0l-2.64,6.26h5.2Z"/><path class="cls-1" d="M178.85.32h1.91l7.38,10.59h0V.32h1.51V13.07h-1.9L180.4,2.48h0V13.07h-1.51Z"/><path class="cls-1" d="M200.27,11.34l4.8-4.68c.3-.29.57-.56.8-.8a6.45,6.45,0,0,0,.56-.72,3.21,3.21,0,0,0,.34-.73,3.15,3.15,0,0,0,.1-.85,2.19,2.19,0,0,0-.18-.9A2,2,0,0,0,206.2,2a2.18,2.18,0,0,0-.74-.43,2.67,2.67,0,0,0-.91-.16A2.33,2.33,0,0,0,203,2a2.58,2.58,0,0,0-.81,1.48l-1.64-.15A4.2,4.2,0,0,1,201,1.92a3.27,3.27,0,0,1,.88-1,3.78,3.78,0,0,1,1.2-.61,5.06,5.06,0,0,1,1.44-.2A4.84,4.84,0,0,1,206,.33a3.64,3.64,0,0,1,1.23.66,3.12,3.12,0,0,1,.85,1.08,3.37,3.37,0,0,1,.32,1.49,4.19,4.19,0,0,1-.21,1.37,5,5,0,0,1-.56,1.13,8,8,0,0,1-.79,1c-.29.3-.6.61-.93.91L202,11.63v0h6.5v1.41h-8.21Z"/><path class="cls-1" d="M218.16,6.7a14.8,14.8,0,0,1,.18-2.25A7,7,0,0,1,219,2.31,4.32,4.32,0,0,1,220.33.73a4,4,0,0,1,4.3,0A4.32,4.32,0,0,1,226,2.31a7,7,0,0,1,.67,2.14,14.8,14.8,0,0,1,.18,2.25A14.8,14.8,0,0,1,226.62,9a6.9,6.9,0,0,1-.67,2.13,4.32,4.32,0,0,1-1.32,1.58,4,4,0,0,1-4.3,0A4.32,4.32,0,0,1,219,11.08,6.9,6.9,0,0,1,218.34,9,14.8,14.8,0,0,1,218.16,6.7Zm1.51,0c0,.31,0,.66,0,1s.07.77.13,1.16a7.32,7.32,0,0,0,.29,1.14,3.54,3.54,0,0,0,.5,1,2.57,2.57,0,0,0,.77.7,2.37,2.37,0,0,0,2.16,0,2.69,2.69,0,0,0,.77-.7,3.83,3.83,0,0,0,.5-1,7.32,7.32,0,0,0,.29-1.14c.06-.39.11-.78.13-1.16s0-.73,0-1,0-.66,0-1-.07-.77-.13-1.16a7.32,7.32,0,0,0-.29-1.14,4.18,4.18,0,0,0-.5-1,2.52,2.52,0,0,0-.77-.69,2.29,2.29,0,0,0-2.16,0,2.41,2.41,0,0,0-.77.69,3.83,3.83,0,0,0-.5,1,7.32,7.32,0,0,0-.29,1.14c-.06.39-.11.78-.13,1.16S219.67,6.38,219.67,6.7Z"/><path class="cls-1" d="M246.1,3a3.73,3.73,0,0,0-1.43-1.16,4.14,4.14,0,0,0-1.76-.39,4.36,4.36,0,0,0-1.95.44A4.64,4.64,0,0,0,239.42,3a5.31,5.31,0,0,0-1,1.69,5.68,5.68,0,0,0-.36,2,5.85,5.85,0,0,0,.36,2.07,5,5,0,0,0,1,1.68,4.67,4.67,0,0,0,3.5,1.54,4.69,4.69,0,0,0,2.09-.46,4.9,4.9,0,0,0,1.6-1.32l1.13.95a5.18,5.18,0,0,1-2.08,1.69,7,7,0,0,1-5.3,0,6.38,6.38,0,0,1-2.06-1.4,6.46,6.46,0,0,1-1.37-2.11,7.1,7.1,0,0,1-.49-2.68,7.11,7.11,0,0,1,.48-2.63,6.17,6.17,0,0,1,1.34-2.13A6.34,6.34,0,0,1,242.91,0a6.84,6.84,0,0,1,2.49.47,4.56,4.56,0,0,1,2,1.53Z"/></g></g></svg>