<svg xmlns="http://www.w3.org/2000/svg" viewBox="0 0 305.08 18.6"><defs><style>.cls-1{fill:#fff;}</style></defs><g id="レイヤー_2" data-name="レイヤー 2"><g id="画像02"><path class="cls-1" d="M0,.45H2.1V8.1h.3l8-7.65h3L4.72,8.52l9.18,9.63H10.82l-8.42-9H2.1v9H0Z"/><path class="cls-1" d="M32,18.6a9.54,9.54,0,0,1-3.71-.7A8.88,8.88,0,0,1,25.34,16a8.63,8.63,0,0,1-1.93-3,9.83,9.83,0,0,1-.69-3.71,9.83,9.83,0,0,1,.69-3.71,8.63,8.63,0,0,1,1.93-2.95A8.88,8.88,0,0,1,28.26.7a10.21,10.21,0,0,1,7.43,0,8.88,8.88,0,0,1,2.92,1.94,8.63,8.63,0,0,1,1.93,2.95,9.83,9.83,0,0,1,.68,3.71A9.83,9.83,0,0,1,40.54,13a8.63,8.63,0,0,1-1.93,3,8.88,8.88,0,0,1-2.92,1.94A9.59,9.59,0,0,1,32,18.6Zm0-2a6.77,6.77,0,0,0,2.84-.58A6.5,6.5,0,0,0,37,14.5a7.18,7.18,0,0,0,1.44-2.34A7.93,7.93,0,0,0,39,9.3a7.93,7.93,0,0,0-.51-2.86A7.18,7.18,0,0,0,37,4.1a6.66,6.66,0,0,0-2.21-1.58,7.34,7.34,0,0,0-5.67,0A6.81,6.81,0,0,0,26.92,4.1a7.33,7.33,0,0,0-1.43,2.34A7.73,7.73,0,0,0,25,9.3a7.73,7.73,0,0,0,.52,2.86,7.33,7.33,0,0,0,1.43,2.34,6.64,6.64,0,0,0,2.22,1.57A6.76,6.76,0,0,0,32,16.65Z"/><path class="cls-1" d="M50.55.45h2.33l4,14.7H57L61.3.45h2.35L68,15.15h0L72.12.45h2.2l-5.2,17.7H66.85l-4.38-15h0l-4.4,15h-2.3Z"/><path class="cls-1" d="M89.82.45h2l7.52,17.7H96.88L95.07,13.8H86.22L84.4,18.15H82Zm1,2.7h0l-3.67,8.7h7.22Z"/><path class="cls-1" d="M137,4.1a5.12,5.12,0,0,0-2-1.61A5.79,5.79,0,0,0,132.6,2a6.12,6.12,0,0,0-2.71.6,6.82,6.82,0,0,0-2.14,1.61,7.41,7.41,0,0,0-1.4,2.35,8,8,0,0,0-.5,2.79,8.28,8.28,0,0,0,.5,2.89,7.21,7.21,0,0,0,1.39,2.32,6.45,6.45,0,0,0,2.12,1.56,6.42,6.42,0,0,0,7.86-1.9l1.58,1.33a7.23,7.23,0,0,1-2.89,2.35,9.25,9.25,0,0,1-3.81.75,8.92,8.92,0,0,1-3.55-.7A8.73,8.73,0,0,1,126.19,16a8.82,8.82,0,0,1-1.9-2.94,9.78,9.78,0,0,1-.69-3.72,10,10,0,0,1,.66-3.65,8.81,8.81,0,0,1,1.86-2.95,8.92,8.92,0,0,1,2.85-2A8.82,8.82,0,0,1,132.6,0a9.49,9.49,0,0,1,3.46.65,6.36,6.36,0,0,1,2.79,2.12Z"/><path class="cls-1" d="M150.22.45h2.1V16.2h8.1v1.95h-10.2Z"/><path class="cls-1" d="M170.72.45h11.13v2h-9V8h8.43v2h-8.43v6.3h9.48v1.95H170.72Z"/><path class="cls-1" d="M199.3.45h2l7.53,17.7h-2.45l-1.8-4.35H195.7l-1.82,4.35H191.5Zm.95,2.7h-.05l-3.68,8.7h7.23Z"/><path class="cls-1" d="M219.15.45h2.65l10.25,14.7h0V.45h2.1v17.7h-2.65L221.3,3.45h-.05v14.7h-2.1Z"/><path class="cls-1" d="M245.65,15.75l6.67-6.5c.42-.4.79-.77,1.1-1.11a7.32,7.32,0,0,0,.79-1,3.73,3.73,0,0,0,.46-1A4.25,4.25,0,0,0,254.82,5a2.94,2.94,0,0,0-.25-1.25,2.67,2.67,0,0,0-.68-.94,3.21,3.21,0,0,0-1-.6A3.7,3.7,0,0,0,251.6,2a3.24,3.24,0,0,0-2.23.78,3.55,3.55,0,0,0-1.12,2L246,4.57a5.55,5.55,0,0,1,.67-1.91,4.55,4.55,0,0,1,1.22-1.39,5.62,5.62,0,0,1,1.66-.83,6.81,6.81,0,0,1,2-.29,6.71,6.71,0,0,1,2.08.31,5.21,5.21,0,0,1,1.71.92,4.19,4.19,0,0,1,1.18,1.5A4.7,4.7,0,0,1,256.92,5a6,6,0,0,1-.28,1.9,6,6,0,0,1-.78,1.56,9.41,9.41,0,0,1-1.1,1.35q-.62.64-1.29,1.26L248,16.15v.05h9v1.95h-11.4Z"/><path class="cls-1" d="M267.25,9.3a20.27,20.27,0,0,1,.25-3.13,10,10,0,0,1,.92-3A6.36,6.36,0,0,1,270.26,1a5.63,5.63,0,0,1,6,0,6.36,6.36,0,0,1,1.84,2.2,10.25,10.25,0,0,1,.92,3,20.27,20.27,0,0,1,.25,3.13,20,20,0,0,1-.25,3.12,10.21,10.21,0,0,1-.92,3,6.36,6.36,0,0,1-1.84,2.2,5.63,5.63,0,0,1-6,0,6.36,6.36,0,0,1-1.84-2.2,9.92,9.92,0,0,1-.92-3A20,20,0,0,1,267.25,9.3Zm2.1,0c0,.43,0,.92,0,1.45a15,15,0,0,0,.19,1.61A9.74,9.74,0,0,0,270,14a4.91,4.91,0,0,0,.7,1.37,3.27,3.27,0,0,0,1.06,1,3.3,3.3,0,0,0,3,0,3.27,3.27,0,0,0,1.06-1,4.91,4.91,0,0,0,.7-1.37,9.74,9.74,0,0,0,.4-1.59,15,15,0,0,0,.19-1.61c0-.53,0-1,0-1.45s0-.92,0-1.45a15,15,0,0,0-.19-1.61,9.74,9.74,0,0,0-.4-1.59,5,5,0,0,0-.7-1.38,3.47,3.47,0,0,0-1.06-1,3.31,3.31,0,0,0-3,0,3.47,3.47,0,0,0-1.06,1,5,5,0,0,0-.7,1.38,9.74,9.74,0,0,0-.4,1.59,15,15,0,0,0-.19,1.61C269.37,8.38,269.35,8.87,269.35,9.3Z"/><path class="cls-1" d="M302.8,4.1a5,5,0,0,0-2-1.61A5.82,5.82,0,0,0,298.38,2a6.16,6.16,0,0,0-2.72.6,6.78,6.78,0,0,0-2.13,1.61,7.44,7.44,0,0,0-1.41,2.35,8,8,0,0,0-.5,2.79,8.28,8.28,0,0,0,.5,2.89,7.39,7.39,0,0,0,1.39,2.32,6.39,6.39,0,0,0,2.13,1.56,6.83,6.83,0,0,0,5.64-.06,6.46,6.46,0,0,0,2.22-1.84l1.58,1.33a7.3,7.3,0,0,1-2.89,2.35,9.32,9.32,0,0,1-3.81.75,8.89,8.89,0,0,1-3.55-.7A8.71,8.71,0,0,1,290.06,13a9.77,9.77,0,0,1-.68-3.72A10,10,0,0,1,290,5.65,8.81,8.81,0,0,1,298.38,0a9.49,9.49,0,0,1,3.46.65,6.28,6.28,0,0,1,2.78,2.12Z"/></g></g></svg>