<svg xmlns="http://www.w3.org/2000/svg" viewBox="0 0 290.62 28.35"><defs><style>.cls-1{fill:#6c8485;}</style></defs><g id="レイヤー_2" data-name="レイヤー 2"><g id="レイヤー_1-2" data-name="レイヤー 1"><path class="cls-1" d="M4.77,11.52A27.76,27.76,0,0,1,3.9,5.7a13.93,13.93,0,0,0-.54-3.18,17.59,17.59,0,0,1,3.81.33c.45.12.66.33.66.66A2.26,2.26,0,0,1,7.74,4a6.59,6.59,0,0,0-.3,2A21.55,21.55,0,0,0,8.07,11c.18.57.36.78.69.78.72,0,3.36-1.38,4.8-2.49.39-.3.45-.33.6-.33s.54.21,1,.78a7,7,0,0,1,1.35,2.55c0,.33-.21.54-.72.69a50.3,50.3,0,0,0-7,2.7C5.13,17.46,3.48,19.11,3.48,21S5,23.55,8.88,23.55a41.66,41.66,0,0,0,7-.66,2.49,2.49,0,0,1,.39-.06.54.54,0,0,1,.51.36,20.3,20.3,0,0,1,.3,2.85.59.59,0,0,1-.51.69,58.54,58.54,0,0,1-6.57.36c-3.84,0-6.39-.51-8-1.59A4.88,4.88,0,0,1,0,21.3a6.59,6.59,0,0,1,1.2-3.81,12.79,12.79,0,0,1,4.71-4A3.46,3.46,0,0,1,4.77,11.52Z"/><path class="cls-1" d="M26,10.23c-1.62,0-1.68,0-1.86-.36A10.42,10.42,0,0,1,23.67,7a32.21,32.21,0,0,0,3.63.18c.87,0,2,0,3.27-.12a22.78,22.78,0,0,0,.3-3.54c0-.51,0-.9-.09-1.59a17.73,17.73,0,0,1,3.81.6c.24.09.33.18.33.42a1.31,1.31,0,0,1-.21.66,8.08,8.08,0,0,0-.57,2c-.09.57-.12.69-.18,1.08a29.76,29.76,0,0,0,6.63-1.5,2.08,2.08,0,0,1,.48-.09c.21,0,.3.15.42.75a20.35,20.35,0,0,1,.27,2.19c0,.36-.12.42-1,.63a74.15,74.15,0,0,1-7.41,1.11,24.21,24.21,0,0,1-2.4,6.78,12.44,12.44,0,0,1,4-2.34,10.91,10.91,0,0,1,3.9-.69A7,7,0,0,1,44,15.3a6,6,0,0,1,1.65,4.23c0,2.22-1.05,4-3.3,5.52a17.41,17.41,0,0,1-7.11,2.46c-.48.06-1,.12-1.14.12a.87.87,0,0,1-.87-.51,8.63,8.63,0,0,0-1.83-2.46,22.73,22.73,0,0,0,7.08-1.29c2.28-.81,3.6-2.19,3.6-3.78a3,3,0,0,0-3.27-3.27c-3.39,0-7.17,2.1-9.6,5.31a.77.77,0,0,1-.54.33A5.9,5.9,0,0,1,26,19.59c0-.15,0-.21.33-.6A24.6,24.6,0,0,0,30,10.08C29.52,10.11,26.34,10.23,26,10.23Z"/><path class="cls-1" d="M60.48,8.91a45.51,45.51,0,0,1-6.87.75c-.48,0-.69-.09-.75-.36a13.73,13.73,0,0,1-.3-2.46,39.83,39.83,0,0,0,7-.57c-.15-.45-.3-.84-.39-1.08a12.5,12.5,0,0,0-1-2.43,17.41,17.41,0,0,1,3.54-.42c.27,0,.42.18.42.48v.42a10.6,10.6,0,0,0,.42,2.43A27.22,27.22,0,0,0,67.77,4a1.2,1.2,0,0,1,.39-.12c.15,0,.24.15.51.78a9.63,9.63,0,0,1,.54,1.62c0,.15-.09.24-.27.33a36.37,36.37,0,0,1-5.58,1.68,22,22,0,0,0,1,2.43,20.11,20.11,0,0,0,3.06-1l2.82-1.41s.06-.06.09-.06l.12,0c.12,0,.21.18.51.75a9.26,9.26,0,0,1,.66,1.71c0,.21,0,.21-.63.54a22.32,22.32,0,0,1-5.1,2,20.45,20.45,0,0,0,3.93,4.41c1,.75,1,.78,1,1.08a6,6,0,0,1-.87,1.89c-.51.87-.75,1.11-1.08,1.11-.18,0-.21,0-.66-.33-1.53-1.17-4.62-2-7.59-2-2.58,0-4.2.9-4.2,2.4,0,.93.72,1.68,2,2.16a23.87,23.87,0,0,0,6.54.69c.66,0,1.23,0,2.4-.09a7.39,7.39,0,0,0-1.17,2.58c-.18.63-.39.75-1.32.75a25.19,25.19,0,0,1-8-1.05c-2.55-.9-3.9-2.58-3.9-4.83,0-3.21,2.64-5.16,7-5.16a14.18,14.18,0,0,1,6.3,1.14A18.88,18.88,0,0,1,63,14c-1.44.3-2.16.42-3.12.57a60.85,60.85,0,0,1-6.09.48c-1,0-1,0-1.26-2.85.66,0,1.17,0,1.47,0a47.66,47.66,0,0,0,7.59-.81C61.26,10.8,60.81,9.75,60.48,8.91ZM72.6,3.6a4.46,4.46,0,0,1,1,1.56c0,.21-.12.33-.69.75s-.81.6-1,.6-.18,0-.69-.93a14.81,14.81,0,0,0-1.86-2.52c-.12-.12-.15-.18-.15-.24,0-.24,1.14-1.08,1.47-1.08S71.52,2.25,72.6,3.6Zm2,.6a13.05,13.05,0,0,0-2.13-2.94c-.12-.12-.15-.18-.15-.24,0-.27,1-1,1.44-1s.87.51,1.71,1.59A6,6,0,0,1,76.53,3.3c0,.18-.12.33-.51.6a2.66,2.66,0,0,1-1.11.6C74.79,4.5,74.7,4.44,74.58,4.2Z"/><path class="cls-1" d="M88.74,7.59c.33-.93.36-1,.6-1.8H89a16.92,16.92,0,0,0-2.19.12V3.33a15.78,15.78,0,0,0,2.28.12h.81a17.14,17.14,0,0,0,.39-2.19l3,.33c-.12.39-.18.54-.3,1.05s-.12.51-.18.81H95a22.12,22.12,0,0,0,2.31-.09,19.36,19.36,0,0,0-.09,2V7.59a8,8,0,0,0,1.68-.12V9.33a9.34,9.34,0,0,0,1,0h3.81a12.6,12.6,0,0,0,2.16-.12V12.3a11,11,0,0,0-2.16-.15V24.78c0,1.47-.15,2-.78,2.43s-1.32.57-3.06.57c-.45,0-.87,0-2-.06a8.61,8.61,0,0,0-.57-3A17.88,17.88,0,0,0,100,25c.6,0,.72-.12.72-.6V12.15H99.9a7.1,7.1,0,0,0-1.47.12V10.05A9.72,9.72,0,0,0,97.08,10H88.23c-.69,0-1,0-1.68,0-.21.33-.21.33-.81,1.32-.3.54-.81,1.26-1.29,1.95V24.54a23,23,0,0,0,.15,3.27H81.36a20.64,20.64,0,0,0,.18-3.36V19c0-.93,0-1.11.06-2.7a11.25,11.25,0,0,1-1.8,1.8,13.29,13.29,0,0,0-1.17-3.15,16.49,16.49,0,0,0,5.55-7l1.65,1V7.47a13.37,13.37,0,0,0,2.25.12ZM86.49,3.06a3.78,3.78,0,0,0-.48.6,26.54,26.54,0,0,1-5.76,5.7,11.58,11.58,0,0,0-1.41-2.73,14.87,14.87,0,0,0,5-5.34Zm2.82,13.56c-1.11,0-1.71,0-2.4.06A16.42,16.42,0,0,0,87,14.73V12.54a10.23,10.23,0,0,0-.06-1.5c.39,0,.9.06,1.65.06h6.93c1.26,0,1.65,0,2.37-.06A16.44,16.44,0,0,0,97.77,13v1.77a16,16,0,0,0,.09,1.95c-.42,0-1.26-.06-2.4-.06h-.72v1.14h1a22.89,22.89,0,0,0,2.67-.12v2.55c-.84-.06-1.32-.09-2.67-.09h-1v1.62h1.47A24.92,24.92,0,0,0,99,21.6v2.67c-.6-.06-1.35-.12-2.13-.12h-2.1v1.14a16.17,16.17,0,0,0,.18,2.61H91.68a13.7,13.7,0,0,0,.18-2.61V24.15H88.23a17.71,17.71,0,0,0-2.73.15V21.63c.72.06.93.06,2,.09V20.1l-1.38.09V17.64a24.61,24.61,0,0,0,2.67.12h3.12V16.62Zm.57-2h5V13.08h-5ZM90,21.72h1.83V20.1H90ZM94.65,7.59V5.79H92.16c-.27.93-.42,1.35-.57,1.8Zm10.74-1.68a14,14,0,0,0-2.07-.12H100a5.93,5.93,0,0,0-1.35.12v-3a13,13,0,0,0,2.07.12h2.58a12.29,12.29,0,0,0,2.07-.12Z"/><path class="cls-1" d="M115.84,10a25.49,25.49,0,0,1-3.93,6,8.26,8.26,0,0,0-2.34-2.43,20.85,20.85,0,0,0,4.86-8.43,13.79,13.79,0,0,0,.63-2.67l3.3.81a6.39,6.39,0,0,1-.27.75c-.06.18-.09.21-.3,1-.12.39-.24.78-.75,2.16h4.68V5a28.06,28.06,0,0,0-.18-3.48h3.66A25.92,25.92,0,0,0,125,5V7.17h6A37.29,37.29,0,0,0,134.92,7v3.18c-1.23-.12-2.46-.18-3.81-.18H125v5.28h5a28.63,28.63,0,0,0,3.57-.18v3.18a30.91,30.91,0,0,0-3.54-.18h-5v6.12H132a29.9,29.9,0,0,0,4-.21v3.3a31.55,31.55,0,0,0-3.9-.21H114.4a35,35,0,0,0-4.08.21V24a32.08,32.08,0,0,0,4,.21h7.41V18.09h-4.44a29.1,29.1,0,0,0-3.48.18V15.12a26.53,26.53,0,0,0,3.45.15h4.47V10Z"/><path class="cls-1" d="M142.52,5.55a14,14,0,0,0-2.1.12v-3a19.6,19.6,0,0,0,2.52.15h2.81a18.91,18.91,0,0,0,2.52-.15V5.7a8.83,8.83,0,0,0-1.79-.15h-.33v5.67a8.47,8.47,0,0,0,1.67-.12V14a14.51,14.51,0,0,0-1.67-.09v5.37c.92-.36,1.34-.54,2.75-1.17v3c-2.58,1.2-4.34,2-6.69,2.82a10,10,0,0,0-1.55.63l-.72-3.33a12.75,12.75,0,0,0,3.21-.84V13.89h-.34a12.82,12.82,0,0,0-2,.12V11.1a12.88,12.88,0,0,0,2,.12h.27V5.55ZM166,20.64a6.53,6.53,0,0,0-.81.69A24.9,24.9,0,0,1,163.09,23a15.54,15.54,0,0,0,4.35,1.74,20.13,20.13,0,0,0-1.56,2.91A20.47,20.47,0,0,1,160.93,25a11.91,11.91,0,0,1-2.88-2.88c.06,1,.09,1.38.09,2.16v1.59a12.7,12.7,0,0,0,.15,2.34H155a13.34,13.34,0,0,0,.15-2.46V24.15c0-.48,0-1.35.09-2-1.83,2.16-3.6,3.42-7.38,5.28a9.15,9.15,0,0,0-1.92-2.61,18,18,0,0,0,8.31-5.22H151.9a21.09,21.09,0,0,0-2.28.09,13,13,0,0,0,.09-1.8v-2.4a14.58,14.58,0,0,0-.09-1.8c.66.06,1.41.09,2.43.09h10.47c1.17,0,2,0,2.58-.09a15.28,15.28,0,0,0-.09,1.8V18a12.71,12.71,0,0,0,.09,1.71,4.55,4.55,0,0,0-1-.06ZM148.45,9.78a18.56,18.56,0,0,0,2.79.15H164a18.37,18.37,0,0,0,2.76-.15v2.91a18.94,18.94,0,0,0-2.73-.15H151.21a18.62,18.62,0,0,0-2.76.15Zm.6-5.61A17.2,17.2,0,0,0,149,2.1a16.59,16.59,0,0,0,2.28.12h12.33a21.09,21.09,0,0,0,2.34-.12,16.13,16.13,0,0,0-.12,2V6.87c0,.69,0,1.44.09,2-.6,0-1.2-.06-2.25-.06H151.24c-1,0-1.56,0-2.25.06,0-.45.06-.93.06-2Zm4.8.39h-2.1V6.72h2.1Zm-1.2,12.78H162V15.9h-9.36Zm5.82-12.78h-2.13V6.72h2.13Zm.42,15a10.41,10.41,0,0,0,2,1.95,12,12,0,0,0,2.25-1.95h-4.26Zm4.23-15h-2.19V6.72h2.19Z"/><path class="cls-1" d="M174,5a22.64,22.64,0,0,0-.18-3.21h3.36A18.44,18.44,0,0,0,177,5V8.85c1.08,0,1.32,0,2-.09v3a18.35,18.35,0,0,0-2-.09v7.08c.69-.3,1.11-.48,2.55-1.14l.09,3.09c-1.89.9-3.66,1.65-6.93,3-.48.21-.93.39-1.32.6l-.63-3.36a18,18,0,0,0,3.24-1V11.64h-.63a17.81,17.81,0,0,0-2.28.15V8.7a18.3,18.3,0,0,0,2.31.15h.6Zm9,16.17c-.9,0-1.2,0-2.49.09a17.67,17.67,0,0,0,.09-2.13V14c0-1,0-1.65-.09-2.28.75.06,1.38.09,2.73.09h10c1.32,0,1.89,0,2.7-.09a16,16,0,0,0-.12,2.28v5a16.78,16.78,0,0,0,.12,2.31c-.75-.06-1.23-.09-2.43-.09h-2.22v3.3c0,.6.15.66,1.68.66,1.26,0,1.65-.09,1.83-.39a9.7,9.7,0,0,0,.24-2.82,9.23,9.23,0,0,0,2.82,1c-.27,4.38-.84,4.92-5.1,4.92a8.92,8.92,0,0,1-3.45-.42c-.75-.3-1-.75-1-1.86V21.15h-2a6.67,6.67,0,0,1-1.83,4.23c-1.38,1.44-3,2.19-6.45,3a8.78,8.78,0,0,0-1.62-2.73c4.83-.6,6.63-1.74,7-4.47Zm10.65-17.4a28.86,28.86,0,0,0,3.12-.15V6.24c-.87-.06-1.44-.09-2.94-.09-.39,1-.54,1.29-.9,2h1.65A22.86,22.86,0,0,0,197.52,8v2.82a28.12,28.12,0,0,0-3-.12H182.28a21,21,0,0,0-2.64.09V8.07c.93.06,1.38.09,2.58.09h1.14a12.5,12.5,0,0,0-.75-2,24.42,24.42,0,0,0-2.52.09V3.6a23.09,23.09,0,0,0,3.09.15h3.45V3.12a7.4,7.4,0,0,0-.15-1.71h3.39a7.45,7.45,0,0,0-.15,1.68v.66ZM183.57,15.24h9.27V14.1h-9.27Zm0,3.45h9.27V17.4h-9.27ZM189.9,8.16a15.57,15.57,0,0,0,.84-2h-5.1c.3.69.54,1.35.78,2Z"/><path class="cls-1" d="M213.84,8.67a14.69,14.69,0,0,0-2.1.12V6.54a25.53,25.53,0,0,1-2.34,4.8c2.07,2.7,2.64,4.08,2.64,6.48s-1.5,3.6-4.5,3.6a4.07,4.07,0,0,1-.54,0,6.41,6.41,0,0,0-.63-2.88,8.3,8.3,0,0,0,1.38.12c.87,0,1.26-.42,1.26-1.41a7.31,7.31,0,0,0-.63-2.7,11,11,0,0,0-1.89-3A23.82,23.82,0,0,0,209,5.07H205.8V24.69A29.82,29.82,0,0,0,206,28h-3.33a25.64,25.64,0,0,0,.18-3.3V5a24.69,24.69,0,0,0-.12-2.73,21.47,21.47,0,0,0,2.28.09h4.44a9.86,9.86,0,0,0,1.86-.12l1.38,2a2.09,2.09,0,0,0-.15.39.9.9,0,0,0-.12.24c-.15.36-.18.45-.33.87.72.06,1.44.09,2.34.09h3.42V3.81a11.75,11.75,0,0,0-.18-2.25H221a12,12,0,0,0-.15,2.25V5.76h4.35a20.68,20.68,0,0,0,3.15-.15V8.82a21,21,0,0,0-3.09-.15h-6.84a32.16,32.16,0,0,1-.12,3.24h5.76a20.26,20.26,0,0,0,2.61-.12,13.53,13.53,0,0,0-.12,2.22c-.12,3-.36,6.81-.6,8.58-.48,4-1.53,5-5.13,5-.81,0-1.14,0-3.27-.18A10,10,0,0,0,217,24.3a26.68,26.68,0,0,0,3.84.33c1.29,0,1.62-.21,1.89-1.29a46,46,0,0,0,.75-8.64h-5.37A20.6,20.6,0,0,1,215.34,23a16.86,16.86,0,0,1-4.74,5,9.07,9.07,0,0,0-2.43-2.55,13,13,0,0,0,5.82-7c1-2.67,1.29-4.95,1.35-9.87Z"/><path class="cls-1" d="M242.28,7.59c.33-.93.36-1,.6-1.8h-.3a16.92,16.92,0,0,0-2.19.12V3.33a15.78,15.78,0,0,0,2.28.12h.81a17.14,17.14,0,0,0,.39-2.19l3,.33c-.12.39-.18.54-.3,1.05s-.12.51-.18.81h2.22a22.12,22.12,0,0,0,2.31-.09,19.36,19.36,0,0,0-.09,2V7.59a8,8,0,0,0,1.68-.12V9.33a9.34,9.34,0,0,0,1,0h3.81a12.6,12.6,0,0,0,2.16-.12V12.3a11,11,0,0,0-2.16-.15V24.78c0,1.47-.15,2-.78,2.43s-1.32.57-3.06.57c-.45,0-.87,0-1.95-.06a8.61,8.61,0,0,0-.57-3,17.88,17.88,0,0,0,2.67.27c.6,0,.72-.12.72-.6V12.15h-.84a7.1,7.1,0,0,0-1.47.12V10.05a9.72,9.72,0,0,0-1.35-.06h-8.85c-.69,0-1.05,0-1.68,0-.21.33-.21.33-.81,1.32-.3.54-.81,1.26-1.29,1.95V24.54a23,23,0,0,0,.15,3.27H234.9a20.64,20.64,0,0,0,.18-3.36V19c0-.93,0-1.11.06-2.7a11.25,11.25,0,0,1-1.8,1.8,13.29,13.29,0,0,0-1.17-3.15,16.49,16.49,0,0,0,5.55-7l1.65,1V7.47a13.37,13.37,0,0,0,2.25.12ZM240,3.06a3.78,3.78,0,0,0-.48.6,26.54,26.54,0,0,1-5.76,5.7,11.58,11.58,0,0,0-1.41-2.73,14.87,14.87,0,0,0,5-5.34Zm2.82,13.56c-1.11,0-1.71,0-2.4.06a16.42,16.42,0,0,0,.06-1.95V12.54a10.23,10.23,0,0,0-.06-1.5c.39,0,.9.06,1.65.06H249c1.26,0,1.65,0,2.37-.06a16.44,16.44,0,0,0-.09,1.92v1.77a16,16,0,0,0,.09,1.95c-.42,0-1.26-.06-2.4-.06h-.72v1.14h1a22.89,22.89,0,0,0,2.67-.12v2.55c-.84-.06-1.32-.09-2.67-.09h-1v1.62h1.47a24.92,24.92,0,0,0,2.76-.12v2.67c-.6-.06-1.35-.12-2.13-.12h-2.1v1.14a16.17,16.17,0,0,0,.18,2.61h-3.24a13.7,13.7,0,0,0,.18-2.61V24.15h-3.63a17.71,17.71,0,0,0-2.73.15V21.63c.72.06.93.06,2,.09V20.1l-1.38.09V17.64a24.61,24.61,0,0,0,2.67.12h3.12V16.62Zm.57-2h5V13.08h-5Zm.15,7.11h1.83V20.1h-1.83Zm4.62-14.13V5.79H245.7c-.27.93-.42,1.35-.57,1.8Zm10.74-1.68a14,14,0,0,0-2.07-.12h-3.3a5.93,5.93,0,0,0-1.35.12v-3a13,13,0,0,0,2.07.12h2.58a12.29,12.29,0,0,0,2.07-.12Z"/><path class="cls-1" d="M281.08,8.28A17.55,17.55,0,0,1,279.46,10a16.72,16.72,0,0,1,2.1,3.75,24,24,0,0,1,1.89,9c0,2.19-.51,3.72-1.41,4.38a5.75,5.75,0,0,1-3.27.6,12.6,12.6,0,0,1-2-.15,8.3,8.3,0,0,0-.6-3,19.12,19.12,0,0,0,3,.33c.6,0,.81-.06,1-.24a5.52,5.52,0,0,0,.36-2.4,16.46,16.46,0,0,0-.12-2A29.18,29.18,0,0,1,277,23a35.35,35.35,0,0,1-5.19,3.06,9.88,9.88,0,0,0-1.89-2.43,31.54,31.54,0,0,0,10-6.36,14.74,14.74,0,0,0-.54-1.74,26.12,26.12,0,0,1-5.55,3.63,9.18,9.18,0,0,0-1.2-2.43c.06.57.09.84.09,1.08a3.6,3.6,0,0,1-1.14,3,5.19,5.19,0,0,1-3.15.63h-.51a6.42,6.42,0,0,0-.54-2.94,7.8,7.8,0,0,0,1.26.15c1,0,1.2-.21,1.2-1.17a9.21,9.21,0,0,0-.54-2.91,9.63,9.63,0,0,0-1.95-3.06,33.56,33.56,0,0,0,2.61-6.48H267V24.51a27.62,27.62,0,0,0,.15,3.48h-3.27a32.62,32.62,0,0,0,.18-3.57V4.86c0-1,0-1.68-.12-2.67a15.65,15.65,0,0,0,2,.09h4.26a10,10,0,0,0,1.92-.12l1.14,1.68a7.15,7.15,0,0,0-.57,1.53,16.45,16.45,0,0,0,2.16.12h1.47a18.73,18.73,0,0,0-2.13-3.39l3.06-.81a27.89,27.89,0,0,1,2.34,4.2h2.22a21.07,21.07,0,0,0,2.07-4.2l3.09.78a29.1,29.1,0,0,1-1.92,3.42h2.13a14.69,14.69,0,0,0,2.7-.15V8.43a27.29,27.29,0,0,0-2.85-.15H284.5a28.45,28.45,0,0,0,.87,4.41,10.64,10.64,0,0,0,1.86-2.76L290,11.61l-.66.84a20.7,20.7,0,0,1-2.94,3.27,17.73,17.73,0,0,0,4.2,6.54,11.29,11.29,0,0,0-1.56,3.51,19.28,19.28,0,0,1-3.57-5.07,41.06,41.06,0,0,1-4-12.42ZM272.62,5.7a43.86,43.86,0,0,1-2.43,5.43,11.57,11.57,0,0,1,2.37,5.37,23.53,23.53,0,0,0,5.7-3.33c-.39-.66-.45-.75-1-1.5a27.87,27.87,0,0,1-4.44,2.61,9.39,9.39,0,0,0-1.29-2.52,16.57,16.57,0,0,0,5.76-3.48h-2.25a19.82,19.82,0,0,0-2.46.12Z"/></g></g></svg>