<svg xmlns="http://www.w3.org/2000/svg" viewBox="0 0 23.72 16.9"><defs><style>.cls-1{fill:#5fc1c7;}</style></defs><g id="レイヤー_2" data-name="レイヤー 2"><g id="文字"><path class="cls-1" d="M23.69.5a.87.87,0,0,0-.07-.17l0,0,0-.05s0,0-.05-.05l0,0a.71.71,0,0,0-.17-.11A.75.75,0,0,0,23,0H.69A.68.68,0,0,0,.23.18s0,0-.05.05l0,0,0,0,0,0,0,.06A.36.36,0,0,0,0,.5.54.54,0,0,0,0,.69H0V.8H0V16.22H0a.85.85,0,0,0,0,.23v0l0,0,0,.05,0,0a.1.1,0,0,0,0,0l0,0,.09.08,0,0,.07,0,.08,0,.15,0H23a.75.75,0,0,0,.26,0,.69.69,0,0,0,.17-.1.47.47,0,0,0,.1-.1l.06-.08a1.11,1.11,0,0,0,.07-.16,1.48,1.48,0,0,0,0-.19h0V.69h0A1.08,1.08,0,0,0,23.69.5ZM23,16.15a.6.6,0,0,1-.47.22.67.67,0,0,1-.4-.14l-.66-.55L13.75,9.25,13,9.86a1.8,1.8,0,0,1-1.16.42,1.85,1.85,0,0,1-1.17-.42L10,9.25,2.28,15.68l-.66.55a.62.62,0,0,1-.39.14.59.59,0,0,1-.47-.22.6.6,0,0,1,.07-.86l.4-.33L9,8.45,1.23,2l-.4-.33A.61.61,0,0,1,.76.76.61.61,0,0,1,1.62.68l.66.55,9.2,7.69a.6.6,0,0,0,.76,0l9.19-7.69.66-.55a.61.61,0,1,1,.79.94L22.49,2,14.7,8.45,22.49,15l.39.33A.61.61,0,0,1,23,16.15Z"/></g></g></svg>