<svg xmlns="http://www.w3.org/2000/svg" viewBox="0 0 535.81 1104"><defs><style>.cls-1{fill:#443b38;}.cls-15,.cls-2,.cls-9{fill:#5fc1c7;}.cls-10,.cls-17,.cls-3{fill:#776a9d;}.cls-11,.cls-18,.cls-4{fill:#6c9bd2;}.cls-12,.cls-19,.cls-5{fill:#69bd83;}.cls-13,.cls-6{fill:#b5d681;}.cls-7,.cls-8{fill:#cacaca;}.cls-10,.cls-11,.cls-12,.cls-13,.cls-8,.cls-9{fill-rule:evenodd;}.cls-14{fill:#fff;}.cls-15{stroke:#5fc1c7;stroke-width:1.3px;}.cls-15,.cls-17,.cls-18,.cls-19{stroke-linecap:round;stroke-linejoin:round;}.cls-16{fill:#231815;}.cls-17{stroke:#5359a6;stroke-width:0.98px;}.cls-18{stroke:#5c9ebc;}.cls-18,.cls-19{stroke-width:0.65px;}.cls-19{stroke:#73ca9b;}</style></defs><g id="レイヤー_2" data-name="レイヤー 2"><g id="枠"><path class="cls-1" d="M357.09,112.49v4.74c2.09-.39,3.22-.65,5.24-1.2l0,1.57a84.15,84.15,0,0,1-8.74,1.93l-.92.2-.36-1.9h.18c.5,0,1.52-.12,2.9-.3V106.86c0-.6,0-1.31-.05-1.68a27.6,27.6,0,0,1-3.2,1.52,4.43,4.43,0,0,0-.92-1.73,22.66,22.66,0,0,0,6-2.94,15.08,15.08,0,0,0,3.58-3.29h1.91a17,17,0,0,0,4.12,3.52,24.83,24.83,0,0,0,5.79,2.69,7.11,7.11,0,0,0-1,1.77,26.74,26.74,0,0,1-3.34-1.61c0,.46,0,.85,0,1.45v4.18c0,.74,0,1.24,0,1.66.28-.28.39-.42.76-.81l1.61,1a39,39,0,0,1-4.41,3.47,18.59,18.59,0,0,0,6,1.89,8.47,8.47,0,0,0-.92,1.79,19,19,0,0,1-8.09-3.72,11.87,11.87,0,0,1-3-3.5Zm9-7.91c.53,0,.73,0,1.31,0a21.51,21.51,0,0,1-5.61-4.46,21,21,0,0,1-5.38,4.46c.46,0,.66,0,1.15,0h3.35v-.74a7.57,7.57,0,0,0-.13-1.65h1.91a7.3,7.3,0,0,0-.12,1.65v.74Zm-9,3.15h9.5v-1.68h-9.5Zm0,3.31h9.5v-1.88h-9.5Zm5,1.45a9,9,0,0,0,2.69,2.67,20.87,20.87,0,0,0,3.38-2.62c-.41,0-1.12-.05-1.95-.05Z"/><path class="cls-1" d="M377.58,111.57a21,21,0,0,0-.09-2.21,19.61,19.61,0,0,0,2.16.1h4.53c.72,0,1.25,0,1.82-.07a14.5,14.5,0,0,0-.07,2.11V117a19.38,19.38,0,0,0,.09,2.21h-1.77v-1h-4.94v1.37h-1.84a16.16,16.16,0,0,0,.11-2.41Zm1.71,5.17h5V111h-5Zm1.54-15.4a16.18,16.18,0,0,0-.1-2,18,18,0,0,0,2.6.12h7.84a16.43,16.43,0,0,0,2.6-.12,15.35,15.35,0,0,0-.09,2v4a16.33,16.33,0,0,0,.09,2,21.6,21.6,0,0,0-2.41-.09h-8.21a22,22,0,0,0-2.42.09,17,17,0,0,0,.1-2Zm1.74,4.37h9.34v-4.63h-9.34Zm5.5,5.61a13.38,13.38,0,0,0-.07-1.93c.55,0,1.06.07,1.82.07H395a14.76,14.76,0,0,0,2-.1,19.74,19.74,0,0,0-.1,2.23v5.66a14.94,14.94,0,0,0,.12,2.41H395.2v-1.37h-5.45v1.37H388a17.32,17.32,0,0,0,.09-2.18Zm1.68,5.42h5.47V111h-5.47Z"/><path class="cls-1" d="M409.83,103.68c.25-.69.34-1,.57-1.77H410a12.73,12.73,0,0,0-1.86.12v-1.57a10.83,10.83,0,0,0,1.91.12h.71a12.13,12.13,0,0,0,.37-2l1.68.23a6.68,6.68,0,0,0-.19.69c0,.21-.06.28-.27,1h1.75a18.77,18.77,0,0,0,1.95-.07c0,.48-.07,1-.07,1.63v1.54a7.23,7.23,0,0,0,1.43-.11v1.35a8,8,0,0,0,1.26.07h2.76a7.88,7.88,0,0,0,1.66-.11v1.77a8.42,8.42,0,0,0-1.66-.12h-.3V117.3c0,1.65-.43,2-2.66,2-.49,0-.81,0-1.52,0a5.11,5.11,0,0,0-.35-1.73,15.2,15.2,0,0,0,2.16.21c.53,0,.67-.11.67-.48v-10.7h-.76a5.93,5.93,0,0,0-1.38.12v-1.52a10.28,10.28,0,0,0-1.58-.09h-6.37a11.19,11.19,0,0,0-1.91.11v0l-.62,1.06c-.26.41-.62,1-1,1.52v9a15.09,15.09,0,0,0,.14,2.65H404a16.09,16.09,0,0,0,.14-2.69v-4.85c0-.85,0-1.48.07-2.46a14.72,14.72,0,0,1-1.75,1.84,5.47,5.47,0,0,0-.85-1.64,13.12,13.12,0,0,0,3.45-3.72,8.13,8.13,0,0,0,1-2l1.38.8v-1.12a9.71,9.71,0,0,0,1.86.11Zm-2.28-4.07c-.27.33-.27.33-.87,1.11a20.34,20.34,0,0,1-3.84,3.86,4.79,4.79,0,0,0-1-1.45A12.26,12.26,0,0,0,406,98.65Zm2.67,10.9c-.9,0-1.45,0-2.05.07a11.65,11.65,0,0,0,.07-1.52v-1.38a9.9,9.9,0,0,0-.07-1.35c.42,0,1,.07,1.73.07h4.67c.89,0,1.45,0,1.95-.07a12.42,12.42,0,0,0-.07,1.54v1.19a12.07,12.07,0,0,0,.07,1.52c-.44,0-1.15-.07-2-.07h-.43v1.41h.94a18.89,18.89,0,0,0,2.07-.1v1.54a18.23,18.23,0,0,0-2.07-.09h-.94v1.82h1.35a14.9,14.9,0,0,0,2.19-.12v1.61a16.73,16.73,0,0,0-1.93-.11h-1.61v1a13.63,13.63,0,0,0,.13,2h-1.81a13.52,13.52,0,0,0,.14-2v-1H409a15.88,15.88,0,0,0-2.16.11V115a14.89,14.89,0,0,0,1.81.09v-1.82c-.43,0-.62,0-1.28.09v-1.54a20.07,20.07,0,0,0,2.07.1h3.15v-1.41Zm-.39-1.26h5.06v-1.59h-5.06Zm.3,5.84h2.44v-1.82h-2.44Zm4.37-11.41v-1.77H412c-.23.78-.34,1.08-.6,1.77Zm8.16-1.93a7.71,7.71,0,0,0-1.54-.11h-2.48a8.7,8.7,0,0,0-1.22.09V100a9.16,9.16,0,0,0,1.54.12h2.16a9,9,0,0,0,1.54-.12Z"/><path class="cls-1" d="M432.05,105.09a23.09,23.09,0,0,1-3.11,4.85,5.32,5.32,0,0,0-1.51-1.22,18.64,18.64,0,0,0,4-7,7.36,7.36,0,0,0,.51-2.16l2,.53a10.63,10.63,0,0,0-.44,1.26c-.12.37-.51,1.4-.76,2.07h4.48V101.2a16.66,16.66,0,0,0-.16-2.53h2.14a16.83,16.83,0,0,0-.14,2.53v2.23h5.43a24.35,24.35,0,0,0,2.76-.14v1.93a26.32,26.32,0,0,0-2.71-.13h-5.48v4.69h4.49a18.6,18.6,0,0,0,2.57-.14v1.91a19.65,19.65,0,0,0-2.57-.14h-4.49v5.66h6.19a20.64,20.64,0,0,0,2.85-.16v2a22,22,0,0,0-2.8-.16H430.74a23.35,23.35,0,0,0-2.88.16v-2a21.54,21.54,0,0,0,2.83.16h6.55v-5.66h-4a18.77,18.77,0,0,0-2.53.14v-1.91a17.53,17.53,0,0,0,2.51.14h4v-4.69Z"/><path class="cls-1" d="M455.32,113.8a16.43,16.43,0,0,0-.09-1.91,17.43,17.43,0,0,0,2.12.09h11.5a21.57,21.57,0,0,0,2.2-.09,10.61,10.61,0,0,0-.11,1.82v3.68h.76a12.56,12.56,0,0,0,1.81-.09V119c-.73-.07-1.49-.11-2.39-.11H455.26a20.38,20.38,0,0,0-2.35.11V117.3a12.23,12.23,0,0,0,1.72.09h.69Zm4.47-4.74h2c.92,0,1.4,0,1.84-.06v1.58a12.56,12.56,0,0,0-1.81-.09h-6.07c-.92,0-1.34,0-2,.07a16.59,16.59,0,0,0,.07-1.79v-7.48a15.56,15.56,0,0,0-.07-1.68c.6,0,1,.07,1.86.07h5.87a13.12,13.12,0,0,0,2.11-.11v1.65a12.6,12.6,0,0,0-1.75-.09h-2.13V103h1.56a10,10,0,0,0,1.47,0c0,.37,0,.71,0,1.17v2c0,.44,0,.85,0,1.15-.28,0-.73-.05-1.45-.05h-1.58Zm-1.5-6.11v-1.82h-2.8V103Zm2.94,2.89v-1.61h-5.74v1.61Zm-5.74,1.29v1.93h2.8v-1.93ZM457,117.39h3V113.5h-3Zm4.56,0h3.06V113.5h-3.06Zm4.76-13.89a13.69,13.69,0,0,1-2,2.78,4.52,4.52,0,0,0-1.29-1.1,11.63,11.63,0,0,0,2.9-5,7.33,7.33,0,0,0,.34-1.54l1.84.37c-.07.21-.11.32-.36,1-.07.21-.23.64-.72,1.86h4.16a11.9,11.9,0,0,0,2.05-.14v1.84a12.71,12.71,0,0,0-2-.11ZM464.94,107a12.12,12.12,0,0,0,1.77.09h3.81a11.61,11.61,0,0,0,2-.12v1.84a12.15,12.15,0,0,0-2-.11H467a13.53,13.53,0,0,0-2,.11Zm1.26,10.37h3.06V113.5H466.2Z"/><path class="cls-1" d="M487.45,100.51a8.92,8.92,0,0,0-.13-1.82h1.93a7.62,7.62,0,0,0-.14,1.8V101H496a17.41,17.41,0,0,0,2.42-.14v1.82a18.92,18.92,0,0,0-2.42-.14h-5.38a17.46,17.46,0,0,0,8.65,4.71,7.62,7.62,0,0,0-1,1.73,23.11,23.11,0,0,1-3.35-1.43c0,.49-.07,1.43-.07,2.3v7.38h1.54a14.23,14.23,0,0,0,2.41-.13v1.84a17.33,17.33,0,0,0-2.53-.14H480.74a17.91,17.91,0,0,0-2.55.14v-1.84a17.31,17.31,0,0,0,2.46.13h1.42v-7.61c0-.92,0-1.49-.07-2.14a20.67,20.67,0,0,1-3.17,1.48,5.61,5.61,0,0,0-1-1.54,19.63,19.63,0,0,0,8.11-4.88h-5a18.36,18.36,0,0,0-2.4.14v-1.82A17.22,17.22,0,0,0,481,101h6.41Zm0,3.75c0-.39,0-.92.05-1.38a18.19,18.19,0,0,1-5.22,4.41c.55,0,1.4,0,2.18,0h7.85c.82,0,1.15,0,2.11,0a16.18,16.18,0,0,1-5.38-4.41c0,.14,0,.6.07,1.38v1a7.2,7.2,0,0,0,.11,1.48h-1.88a8.86,8.86,0,0,0,.11-1.5Zm-3.67,6.37h9.28v-1.77h-9.28Zm0,3.24h9.28v-1.79h-9.28Zm0,3.33h9.28v-1.88h-9.28Z"/><path class="cls-1" d="M355.83,144.25a30.77,30.77,0,0,0,7.19-2.33,13.24,13.24,0,0,0,3.54-2.06l1.36,1.86a7.05,7.05,0,0,0-1,.48,38.71,38.71,0,0,1-6.67,2.83,33.76,33.76,0,0,1-4.43,1.06v3.24a.41.41,0,0,1,0,.16v.25c0,1.54.09,2,.46,2.42s1.86.69,4.33.69a48.79,48.79,0,0,0,5.31-.37,16.41,16.41,0,0,0,2.34-.46l.14,2.16a10.06,10.06,0,0,0-1,.12,70.39,70.39,0,0,1-7.29.43c-2.85,0-4.37-.27-5.22-1a3.08,3.08,0,0,1-1-2.23,17.13,17.13,0,0,1-.07-1.89V139.3a14.89,14.89,0,0,0-.11-2.25H356a13.25,13.25,0,0,0-.13,2.28Z"/><path class="cls-1" d="M383.45,141.9a8.59,8.59,0,0,0-.09,1.68c-.1,3.89-.72,6.12-2.28,8.12a13,13,0,0,1-5.91,4,5.62,5.62,0,0,0-1.26-1.86,10.73,10.73,0,0,0,4.13-2.05c2.42-1.95,3.27-4.18,3.27-8.64a5.19,5.19,0,0,0-.09-1.27Zm9.15-2.9a5.39,5.39,0,0,0-.57,1,14.17,14.17,0,0,1-6.67,6.72,5.94,5.94,0,0,0-1.41-1.55,10.2,10.2,0,0,0,3.57-2.16,11.58,11.58,0,0,0,2.46-3.26H377.19a23.56,23.56,0,0,0-2.82.11v-2.09a17.58,17.58,0,0,0,2.87.16h12.23a5.2,5.2,0,0,0,2-.16Z"/><path class="cls-1" d="M401.34,137.05a17.36,17.36,0,0,0-.09,2.16v5.64a18.89,18.89,0,0,0,.09,2.32h-2.27a16.44,16.44,0,0,0,.11-2.32v-5.62a13.57,13.57,0,0,0-.11-2.18Zm10.26,0a13.13,13.13,0,0,0-.12,2.26v2.59a26.15,26.15,0,0,1-.59,7,8.83,8.83,0,0,1-4.4,5.2,20,20,0,0,1-4.27,1.65,5.23,5.23,0,0,0-1.15-1.91A12.16,12.16,0,0,0,406,152c2.23-1.5,3.06-3,3.33-6.12.07-1,.09-1.49.09-4.09v-2.46a15.59,15.59,0,0,0-.09-2.28Z"/><path class="cls-1" d="M418.76,152.64a21,21,0,0,0,6.73-1.72,17.26,17.26,0,0,0,9.32-10.24,5.69,5.69,0,0,0,1.7,1.59,20.06,20.06,0,0,1-7.11,8.85,23.46,23.46,0,0,1-8.62,3.45,12.47,12.47,0,0,0-1.43.37Zm1.61-14.26a32.36,32.36,0,0,1,5.65,4.37l-1.4,1.73a25.87,25.87,0,0,0-5.61-4.56Z"/><path class="cls-1" d="M457.85,140.61a2.57,2.57,0,0,0-.39.95,23.59,23.59,0,0,1-4.62,8.71,22.62,22.62,0,0,1-8,5.77,4.42,4.42,0,0,0-1.38-1.65,19.61,19.61,0,0,0,8-5.68,20.33,20.33,0,0,0,3.93-7.5l-7.52.12a22.63,22.63,0,0,1-5.45,5.93,4.17,4.17,0,0,0-1.56-1.4,17.62,17.62,0,0,0,5.82-6.42,9.87,9.87,0,0,0,1.38-3.26l2.25.53a3.23,3.23,0,0,0-.51.89,19.83,19.83,0,0,1-1,2,3.15,3.15,0,0,1,.58-.07h.27c3.5,0,5.45-.07,5.91-.09a2.66,2.66,0,0,0,1-.11Zm-.53-4.25a13.91,13.91,0,0,1,2,3.13l-1.35.64a14.26,14.26,0,0,0-2-3.17Zm2.33-.87a15,15,0,0,1,2,3l-1.33.67a14.52,14.52,0,0,0-2-3.15Z"/><path class="cls-1" d="M353.66,175.57a11.88,11.88,0,0,0-1.93.11v-1.81a9.91,9.91,0,0,0,2,.13h3.41a9.28,9.28,0,0,0,1.93-.13v1.79a14.31,14.31,0,0,0-1.84-.09h-.92v5.15h.92a9.22,9.22,0,0,0,1.49-.09v1.7a10.92,10.92,0,0,0-1.49-.09h-.92v5.17c.85-.37,1.4-.64,2.83-1.38l0,1.72a40.52,40.52,0,0,1-6,2.65l-1.22.51-.53-1.91a20.73,20.73,0,0,0,3.15-.92v-5.84h-1a8.53,8.53,0,0,0-1.57.11V180.6a7.35,7.35,0,0,0,1.59.12h1v-5.15Zm8.47,10.67c-1,0-1.54,0-2.23.07,0-.6.06-1.36.06-2.33v-8.3a19.4,19.4,0,0,0-.09-2.32,17.65,17.65,0,0,0,2.28.09h6.55a17.41,17.41,0,0,0,2.19-.09,19.4,19.4,0,0,0-.09,2.32v8.24a22.16,22.16,0,0,0,.09,2.41,15.17,15.17,0,0,0-2.21-.09h-.9v5c0,.39.12.46.81.46.27,0,.48,0,.64,0h.14c.87,0,1.24-.1,1.36-.33a9.2,9.2,0,0,0,.3-2.82,9.24,9.24,0,0,0,1.6.71c-.32,3.82-.5,4-3.6,4-2.49,0-2.95-.25-2.95-1.61v-5.49h-1.81a8.13,8.13,0,0,1-1.78,4.6,9.81,9.81,0,0,1-4.82,3,6,6,0,0,0-1.13-1.54,9,9,0,0,0,2.6-1,6,6,0,0,0,3.42-5.15Zm-.49-9h7.48V175h-7.48Zm0,3.71h7.48v-2.21h-7.48Zm0,3.84h7.48v-2.33h-7.48Z"/><path class="cls-1" d="M379.63,175.52a17.4,17.4,0,0,0-.14-2.57h2a16.39,16.39,0,0,0-.14,2.59v3.29h.6a8.1,8.1,0,0,0,1.75-.11v1.77a13.38,13.38,0,0,0-1.8-.09h-.55v6.94c.9-.41,1.29-.62,2.46-1.26l.12,1.7a42.31,42.31,0,0,1-5.93,2.78,9.59,9.59,0,0,0-.92.37l-.42-1.86a14.31,14.31,0,0,0,3-1V180.4h-.76a10.41,10.41,0,0,0-1.88.11v-1.82a7.72,7.72,0,0,0,1.88.14h.76ZM387,190.35c0,.51.14.69.64.83a17,17,0,0,0,3.61.21c3.11,0,4-.14,4.37-.65.28-.34.39-1.19.46-3a4.78,4.78,0,0,0,1.75.65c-.28,4.37-.69,4.64-6.85,4.64-4.74,0-5.7-.39-5.7-2.23v-8.3l-.3.09a12.55,12.55,0,0,0-2,.74l-.48-1.82a9.45,9.45,0,0,0,2.07-.48l.67-.21v-3.49a16.73,16.73,0,0,0-.14-2.37h2a13,13,0,0,0-.14,2.3v3l3-1v-4.19a15.45,15.45,0,0,0-.14-2.18h1.95a16.64,16.64,0,0,0-.14,2.23v3.59l3.48-1.13a18.32,18.32,0,0,0,1.84-.69c-.17,2.3-.17,2.3-.23,3.86-.12,3.16-.3,4.51-.63,5.13a2.16,2.16,0,0,1-2.16,1c-.32,0-.59,0-1.15-.07a5.37,5.37,0,0,0-.41-1.7,7.15,7.15,0,0,0,1.68.21c.5,0,.62-.11.73-.83a45.88,45.88,0,0,0,.35-5.31l-3.5,1.15v6.19a13.57,13.57,0,0,0,.14,2.23h-1.95a15.94,15.94,0,0,0,.14-2.28V180.9l-3,1Z"/><path class="cls-1" d="M402.31,176.65a10.59,10.59,0,0,0,1.84.11h3.79a9.47,9.47,0,0,0,1.84-.11v1.75a10,10,0,0,0-1.67-.1h-4a13.64,13.64,0,0,0-1.84.1Zm.64,16.92a21.76,21.76,0,0,0,.12-2.23v-3.19a15.73,15.73,0,0,0-.09-1.87,7.28,7.28,0,0,0,1.49.1h3.29c.78,0,1.24,0,1.4,0a13.47,13.47,0,0,0-.07,1.72v3.66c0,.78,0,1.15.05,1.52h-1.52v-1h-3v1.31Zm.1-13.63a8.69,8.69,0,0,0,1.54.09h3.1a8.13,8.13,0,0,0,1.5-.09v1.65a8.9,8.9,0,0,0-1.5-.09h-3.1a8.84,8.84,0,0,0-1.54.09Zm0,3.17a8.69,8.69,0,0,0,1.54.09h3.1a8.13,8.13,0,0,0,1.5-.09v1.66a9,9,0,0,0-1.52-.1h-3.11a8.5,8.5,0,0,0-1.51.1Zm0-9.66a8.62,8.62,0,0,0,1.73.12h2.76a8.77,8.77,0,0,0,1.72-.12v1.7a12.41,12.41,0,0,0-1.72-.09h-2.76a12.47,12.47,0,0,0-1.73.09Zm1.5,17.39h3v-3.09h-3Zm17.75.57a1.73,1.73,0,0,1-.62,1.54,3.41,3.41,0,0,1-1.93.35c-.53,0-1.15,0-2.21-.1a5.89,5.89,0,0,0-.37-1.74,15.83,15.83,0,0,0,2.58.25c.75,0,.92-.11.92-.64v-16h-8.26v2.65a87.52,87.52,0,0,1-.57,11.47,15,15,0,0,1-1.34,4.4,4.62,4.62,0,0,0-1.4-1.13,11.57,11.57,0,0,0,1.24-4.3,92,92,0,0,0,.48-10.95,28.48,28.48,0,0,0-.13-3.74,21.52,21.52,0,0,0,2.3.09h7.12a19.85,19.85,0,0,0,2.28-.09,20.6,20.6,0,0,0-.09,2.36ZM414.75,179a10.58,10.58,0,0,0-1.56.09v-1.54a11.56,11.56,0,0,0,1.54.09h1v-.23a8.07,8.07,0,0,0-.12-1.7h1.71a7.88,7.88,0,0,0-.12,1.73v.2h1.06a11,11,0,0,0,1.61-.09v1.54a10.22,10.22,0,0,0-1.61-.09h-1.06v2.21h1.33a6.82,6.82,0,0,0,1.59-.12v1.59a9.31,9.31,0,0,0-1.56-.09h-4.12a9,9,0,0,0-1.49.09v-1.59a6.25,6.25,0,0,0,1.49.12h1.29V179Zm2.94,5.11a13.93,13.93,0,0,0,1.61-.07,13.16,13.16,0,0,0-.07,1.45v3a13.16,13.16,0,0,0,.07,1.45,13.93,13.93,0,0,0-1.61-.07H415v1.55h-1.54a11.82,11.82,0,0,0,.09-1.8v-4a12.64,12.64,0,0,0-.07-1.51c.49,0,.9.07,1.59.07ZM415,188.4h2.83v-2.94H415Z"/><path class="cls-1" d="M436.85,174.51a8.92,8.92,0,0,0-.13-1.82h1.93a7.62,7.62,0,0,0-.14,1.8V175h6.85a17.41,17.41,0,0,0,2.42-.14v1.82a18.92,18.92,0,0,0-2.42-.14H440a17.46,17.46,0,0,0,8.65,4.71,7.62,7.62,0,0,0-1,1.73,23.11,23.11,0,0,1-3.35-1.43c-.05.49-.07,1.43-.07,2.3v7.38h1.54a14.16,14.16,0,0,0,2.41-.13v1.84a17.33,17.33,0,0,0-2.53-.14H430.14a17.91,17.91,0,0,0-2.55.14v-1.84a17.31,17.31,0,0,0,2.46.13h1.42v-7.61c0-.92,0-1.49-.07-2.14a20.67,20.67,0,0,1-3.17,1.48,5.61,5.61,0,0,0-1-1.54,19.63,19.63,0,0,0,8.11-4.88h-5a18.09,18.09,0,0,0-2.39.14v-1.82a17,17,0,0,0,2.48.14h6.41Zm0,3.75c0-.39,0-.92,0-1.38a18.19,18.19,0,0,1-5.22,4.41c.55,0,1.4.05,2.19.05h7.84c.82,0,1.15,0,2.11-.05a16.18,16.18,0,0,1-5.38-4.41c0,.14.05.6.07,1.38v1a7.2,7.2,0,0,0,.11,1.48h-1.88a8.86,8.86,0,0,0,.11-1.5Zm-3.68,6.37h9.29v-1.77h-9.29Zm0,3.24h9.29v-1.79h-9.29Zm0,3.33h9.29v-1.88h-9.29Z"/><path class="cls-1" d="M359.85,325.82a23.55,23.55,0,0,0,.09,2.46,24.2,24.2,0,0,0-2.53-.09h-3.35v6.19c0,.85.25,1,1.95,1a6.6,6.6,0,0,0,2.37-.27c.48-.23.62-.9.62-3.34a6.55,6.55,0,0,0,1.75.76c-.12,2-.35,3.1-.76,3.61s-1.7.9-4,.9c-3.1,0-3.68-.35-3.68-2.19V329a17.65,17.65,0,0,0-.11-2.51,22.32,22.32,0,0,0,2.36.1h3.59v-4.9h-3.7a18.12,18.12,0,0,0-2.37.11V320a16.14,16.14,0,0,0,2.37.14h3.1a16.28,16.28,0,0,0,2.37-.12,23.26,23.26,0,0,0-.09,2.33Zm10.35-1.65a19.21,19.21,0,0,1-.74,4.43,16.65,16.65,0,0,1-2.32,5,14.73,14.73,0,0,0,2.67,2.48,13,13,0,0,0,3,1.77,6.43,6.43,0,0,0-1.08,1.79A20.18,20.18,0,0,1,366,335a17,17,0,0,1-2.66,2.42,19,19,0,0,1-3.84,2.25,5.8,5.8,0,0,0-1.09-1.68,15.5,15.5,0,0,0,6.58-4.39,16,16,0,0,1-2.53-6.09,21.11,21.11,0,0,1-1.63,2.57,5,5,0,0,0-1.45-1.06,18.65,18.65,0,0,0,3.91-8.3,13,13,0,0,0,.37-2.32l1.93.37a9.43,9.43,0,0,0-.39,1.45c-.21.89-.35,1.47-.62,2.32h5.75a13.31,13.31,0,0,0,2.2-.14v1.84a12.76,12.76,0,0,0-2.11-.11Zm-6.14,0c-.23.57-.26.66-.51,1.24a15.92,15.92,0,0,0,2.53,6.76,14.64,14.64,0,0,0,1.79-4.09,16.52,16.52,0,0,0,.58-3.91Z"/><path class="cls-1" d="M383.26,320.86a12.52,12.52,0,0,0-1.61-2.1l1.71-.46a20.2,20.2,0,0,1,1.77,2.56h4.23a11.43,11.43,0,0,0,1.75-2.56l1.81.49a18.73,18.73,0,0,1-1.65,2.07h3.08a12.71,12.71,0,0,0,2.27-.14v1.65a20.21,20.21,0,0,0-2.27-.11h-6.46v1.58h5.68a11.68,11.68,0,0,0,2-.11v1.59a11.14,11.14,0,0,0-2-.12h-5.68v1.56h7.33a15.42,15.42,0,0,0,2.28-.11v1.66a11.94,11.94,0,0,0-2.28-.14h-7.33v2.69h2.73a12.23,12.23,0,0,0,1.52-2.3l1.75.53a17.58,17.58,0,0,1-1.45,1.77h2.69a12.83,12.83,0,0,0,2.28-.14v1.7a15.74,15.74,0,0,0-2.28-.14H379.29a15.94,15.94,0,0,0-2.28.14v-1.7a12.83,12.83,0,0,0,2.28.14h2.59a9.54,9.54,0,0,0-1.47-1.84l1.73-.51a14.4,14.4,0,0,1,1.54,2.35h2.53v-2.69h-6.83a12.31,12.31,0,0,0-2.28.14v-1.66a15.17,15.17,0,0,0,2.28.11h6.83V325.2h-5.13a11.25,11.25,0,0,0-2.07.12v-1.59a11.86,11.86,0,0,0,2.07.11h5.13v-1.58h-6a17.12,17.12,0,0,0-2.28.11v-1.65a12.83,12.83,0,0,0,2.28.14Zm-3.72,18.76a16.6,16.6,0,0,0,.14-2.14v-2.21a11.46,11.46,0,0,0-.12-1.81,15.59,15.59,0,0,0,1.75.09h11.82a14.15,14.15,0,0,0,1.75-.09,10.73,10.73,0,0,0-.12,1.79v2.25a15.39,15.39,0,0,0,.14,2.12H393v-1H381.4v1Zm1.86-2.48H393V335H381.4Z"/><path class="cls-1" d="M405.62,321a13.62,13.62,0,0,0-.16-2.35h2.05a15.58,15.58,0,0,0-.14,2.3v2.19h.74a11.72,11.72,0,0,0,1.83-.12v1.8a11.55,11.55,0,0,0-1.86-.12h-.71v4.39c.8-.25,1.24-.39,2.6-.89l0,1.58c-1,.44-1.31.53-2.62,1v6.85c0,1.38-.6,1.75-2.71,1.75-.62,0-1,0-1.73-.07a5.41,5.41,0,0,0-.37-1.77,14.52,14.52,0,0,0,2.3.21c.6,0,.76-.14.76-.62v-5.77c-.8.25-.87.27-1.82.53a10,10,0,0,0-1.17.39l-.39-1.91a17.57,17.57,0,0,0,3.38-.76v-4.9h-1.33a11.16,11.16,0,0,0-1.84.12V323a11.21,11.21,0,0,0,1.84.14h1.33Zm7,.64c3.75-.55,6.79-1.42,8.05-2.3L422,320.9a40,40,0,0,1-9.41,2.25v1.45c0,.9.37,1,4.21,1s4-.07,4.21-2.87a6.71,6.71,0,0,0,1.68.64c-.21,2-.51,2.76-1.22,3.22s-1.77.58-5.52.58c-4.23,0-5.08-.35-5.08-2.07V321a15.16,15.16,0,0,0-.14-2.26h2a13.85,13.85,0,0,0-.12,2.16Zm-1.67,9a12.41,12.41,0,0,0-.1-1.84,15.6,15.6,0,0,0,2.05.1h6.58a14.83,14.83,0,0,0,2-.1,12.88,12.88,0,0,0-.09,1.87v6.6a12.6,12.6,0,0,0,.12,2.3h-1.82v-1.2h-7.08v1.22h-1.82a14.34,14.34,0,0,0,.12-2.28Zm1.7,2.12h7.08v-2.35h-7.08Zm0,4.09h7.08v-2.57h-7.08Z"/><path class="cls-1" d="M440,332.86c-3.35,0-4.92-.12-6-.51a4,4,0,0,1-2.07-1.58,34,34,0,0,1-3.56,2.36l-.78-1.63a16,16,0,0,0,3.49-1.93v-3.33h-1.56a10.36,10.36,0,0,0-1.66.09v-1.61a9.57,9.57,0,0,0,1.8.11h1.42a12.12,12.12,0,0,0,1.73-.09,14,14,0,0,0-.1,2.09v2.69c.9,1.61,2,2,6.17,2,4.32,0,7.91-.11,9.7-.32a3.58,3.58,0,0,0-.55,1.56c-.74,0-.78,0-4.14.07V334h1.56a17.88,17.88,0,0,0,2.49-.13v1.72a18.13,18.13,0,0,0-2.51-.14h-1.54v2.44c0,1.45-.44,1.7-3,1.7-.58,0-1,0-1.77,0a4.42,4.42,0,0,0-.53-1.68,19.38,19.38,0,0,0,2.62.18c.87,0,1-.09,1-.57v-2h-8.5a18.87,18.87,0,0,1,3.19,2.65l-1.33,1.19a13.72,13.72,0,0,0-3.15-2.89l1.22-.95h-3.29a18.76,18.76,0,0,0-2.51.14v-1.72a17.88,17.88,0,0,0,2.49.13h11.88v-1.15Zm-10.6-14a18.76,18.76,0,0,1,3.38,3.06l-1.19,1.21a17.07,17.07,0,0,0-3.36-3.21Zm7.84,1.68a8.94,8.94,0,0,0-1.28-1.77l1.68-.4a14.8,14.8,0,0,1,1.35,2.17h2.62a13.14,13.14,0,0,0,1.45-2.12l1.7.46c-.52.71-.87,1.17-1.28,1.66h2a13.92,13.92,0,0,0,2.3-.12V322a21.52,21.52,0,0,0-2.3-.09h-4.3c-.21.46-.34.72-.55,1.11h3.29c1.15,0,1.72,0,2.2-.07a14,14,0,0,0-.09,1.91v3.72a14.51,14.51,0,0,0,.09,2c-.48,0-1.05-.07-1.9-.07h-7.11c-.9,0-1.56,0-2.25.07a18.24,18.24,0,0,0,.07-1.84v-3.93a12,12,0,0,0-.1-1.86c.53,0,1.18.07,2.39.07h1.64c.3-.53.37-.69.57-1.11H435.8c-1,0-1.75,0-2.35.09v-1.56a13.76,13.76,0,0,0,2.25.12Zm-.75,4.57h8v-.92h-8Zm0,2.07h8v-.92h-8Zm0,2.12h8v-1h-8Z"/><path class="cls-1" d="M351.57,364.75a8.63,8.63,0,0,0,1.77.12h1.31a9.5,9.5,0,0,0,1.75-.12,18.65,18.65,0,0,0-.09,2.46V372a3.35,3.35,0,0,0,1.86,1.89c1.11.5,2.44.69,5.2.69a70.7,70.7,0,0,0,9.4-.42,7.39,7.39,0,0,0-.57,1.86c-3,.12-4.95.17-7.18.17-3.79,0-5.28-.12-6.41-.44a5.82,5.82,0,0,1-3.22-2.44,19.29,19.29,0,0,1-2.58,2.23,10.72,10.72,0,0,0-.89.76l-.88-1.84a14.18,14.18,0,0,0,3.57-2.6v-5.38h-1.4a9,9,0,0,0-1.64.12Zm1.64-8.62a28.19,28.19,0,0,1,3.35,4.12l-1.33,1.33a19.16,19.16,0,0,0-3.36-4.3Zm7.45,4.81a10,10,0,0,0-1.78.11v-.6h-1.7a8.75,8.75,0,0,0,.12-1.42V358a14,14,0,0,0-.09-1.45,18.37,18.37,0,0,0,2.13.09h10.51a19.71,19.71,0,0,0,2.16-.09,9.4,9.4,0,0,0-.09,1.42V359a9.75,9.75,0,0,0,.09,1.47h-1.7v.6a9.51,9.51,0,0,0-1.74-.11h-3.41v1.38h3.75a12.2,12.2,0,0,0,1.79-.1,11.28,11.28,0,0,0-.07,1.59v3.7a10.85,10.85,0,0,0,.07,1.57,14.63,14.63,0,0,0-1.81-.1h-3.73v1.45H370a11.17,11.17,0,0,0,1.93-.11v1.61a12.28,12.28,0,0,0-2-.12h-4.79V372a15.58,15.58,0,0,0,.12,1.93h-1.8a14,14,0,0,0,.14-1.91v-.21h-4.39a11.38,11.38,0,0,0-1.89.12v-1.61a11.91,11.91,0,0,0,1.87.11h4.41V369h-3.36a13.15,13.15,0,0,0-1.79.1,9.67,9.67,0,0,0,.09-1.57v-3.7a10.18,10.18,0,0,0-.09-1.59,12.66,12.66,0,0,0,1.79.1h3.36v-1.38Zm2.94-1.34a4.65,4.65,0,0,0-.09-1.06h1.77a4.05,4.05,0,0,0-.12,1.06h3.52a9.2,9.2,0,0,0,1.59-.09V358H358.91v1.5a8.73,8.73,0,0,0,1.7.11Zm-3.47,4V365h3.49v-1.47Zm0,2.69v1.47h3.49v-1.47Zm5-1.22h3.89v-1.47h-3.89Zm0,2.69h3.89v-1.47h-3.89Z"/><path class="cls-1" d="M381.86,358.77a13.34,13.34,0,0,0-1.68-2.5l1.73-.44a19.29,19.29,0,0,1,1.86,2.94h2.9a17.92,17.92,0,0,0-1.5-2.87l1.77-.34a25,25,0,0,1,1.57,3.21h2.2a15,15,0,0,0,1.87-3.21l1.81.55a24,24,0,0,1-1.74,2.66h1.72a24.92,24.92,0,0,0,2.53-.09,15.15,15.15,0,0,0-.09,2v1.88a10,10,0,0,0,.11,1.7h-1.84v-4H379.4v4h-1.84a13.13,13.13,0,0,0,.12-1.67v-1.89a18.89,18.89,0,0,0-.1-2c.76.07,1.41.09,2.51.09Zm1.47,8.67a19.18,19.18,0,0,0-2.43.1,16.13,16.13,0,0,0,.09-1.91v-2.05a12.37,12.37,0,0,0-.09-1.72A20.35,20.35,0,0,0,383,362h8.51a19.71,19.71,0,0,0,2-.09,16.63,16.63,0,0,0-.07,1.74v2a12.91,12.91,0,0,0,.07,1.91,22.46,22.46,0,0,0-2.41-.1h-3.4c-.3.69-.74,1.57-1,2.07h6.44a17.77,17.77,0,0,0,2.16-.09,19.83,19.83,0,0,0-.09,2.19v2.76a15.64,15.64,0,0,0,.12,2.23H393.5v-1H380.94v.92h-1.86a17.44,17.44,0,0,0,.14-2.23v-2.73a14.7,14.7,0,0,0-.12-2.19,18.11,18.11,0,0,0,2.19.09h3.58a13.32,13.32,0,0,0,1-2.07Zm-2.39,6.65H393.5v-3H380.94Zm1.73-8.09h9.12v-2.6h-9.12Z"/><path class="cls-1" d="M404.43,357.81a10.9,10.9,0,0,0-.17-2.14h2a12.66,12.66,0,0,0-.14,2.09v3.7h.28a7.55,7.55,0,0,0,1.65-.11v1.82a10.49,10.49,0,0,0-1.63-.1h-.3v11a21.25,21.25,0,0,0,.14,2.57h-2a15.75,15.75,0,0,0,.17-2.6v-11h-.49a14.93,14.93,0,0,0-1.95.1v-1.82a11.15,11.15,0,0,0,1.95.11h.49Zm8.23,8.81a15.06,15.06,0,0,0,2-.1,11.51,11.51,0,0,0-.06,1.34c0,1.15-.19,3.68-.33,4.8-.32,2.72-.82,3.43-2.53,3.43-.43,0-1.17,0-1.49,0a5.44,5.44,0,0,0-.35-1.72,7.84,7.84,0,0,0,1.73.21c.6,0,.83-.26.94-1a40.5,40.5,0,0,0,.42-5.4h-1.84c-.49,3.86-1.38,6.07-3.31,8.27a7.23,7.23,0,0,0-1.2-1.42c1.72-1.66,2.55-3.59,3-6.85h-.94a9.23,9.23,0,0,0-1.29.07v-1.71a6.69,6.69,0,0,0,1.38.1h1c0-.51,0-.58,0-1.25a5.37,5.37,0,0,0-.07-.92h1.77c-.07.37-.09.81-.14,1.43a7.32,7.32,0,0,1,0,.74Zm6.94-8.83a15,15,0,0,0,1.91-.1c-.05.44-.05.44-.09,1-.39,4.67-.69,5.11-3.38,5.11-.6,0-.9,0-2.21-.09a6,6,0,0,0-.39-1.71,15.86,15.86,0,0,0,2.81.26c.62,0,.87-.14,1-.6a10.92,10.92,0,0,0,.34-2.35h-4.73a6.77,6.77,0,0,1-2.23,3.15,12.34,12.34,0,0,1-3.34,2,5.18,5.18,0,0,0-1.05-1.47c2.62-.92,4.13-2.07,4.85-3.66H411a14.11,14.11,0,0,0-2.23.12v-1.75a18.56,18.56,0,0,0,2.3.12h2.57a8.17,8.17,0,0,0,.23-1.77,4,4,0,0,0,0-.44l1.95.11a11.71,11.71,0,0,0-.25,1.18c-.05.27-.09.48-.18.92Zm1.13,8.83a15.24,15.24,0,0,0,1.95-.1c0,.72,0,.72-.06,1.41a38.16,38.16,0,0,1-.65,6.73c-.32,1.15-.92,1.45-2.87,1.45A10.6,10.6,0,0,1,418,376a5.2,5.2,0,0,0-.33-1.72,9.44,9.44,0,0,0,1.94.23c.66,0,.87-.23,1-1.13.16-1.12.32-3.36.37-5.26h-2.21a17.4,17.4,0,0,1-1.38,5.31,10.18,10.18,0,0,1-2,3,5,5,0,0,0-1.24-1.31c1.68-1.47,2.6-3.58,3-7h-.45a9.87,9.87,0,0,0-1.36.07v-1.71a7.38,7.38,0,0,0,1.47.1h.48c.05-.69.05-.88.05-1.22a9.46,9.46,0,0,0-.05-1h1.77a8.13,8.13,0,0,0-.13,1.38c0,.34,0,.41-.05.83Z"/><path class="cls-1" d="M434.35,361.4a10.63,10.63,0,0,0-1.64-.1H429.2a11.31,11.31,0,0,0-1.73.1v-1.73a8.81,8.81,0,0,0,1.73.12h3.38a8.88,8.88,0,0,0,1.77-.12Zm-6.28,15.31a15.45,15.45,0,0,0,.14-2.28v-3a13.12,13.12,0,0,0-.12-2,10.82,10.82,0,0,0,1.54.09h2.72a12.06,12.06,0,0,0,1.52-.06,16.71,16.71,0,0,0-.05,1.93v3c0,.87,0,1.36.07,1.91h-1.5v-.81h-2.71v1.29Zm.11-20.23a8.35,8.35,0,0,0,1.61.11h2.58a8.28,8.28,0,0,0,1.61-.11v1.7a10.83,10.83,0,0,0-1.61-.1h-2.58a10.83,10.83,0,0,0-1.61.1Zm.1,6.46a9.08,9.08,0,0,0,1.63.09h2.23a9.92,9.92,0,0,0,1.65-.09v1.65a11.54,11.54,0,0,0-1.65-.09h-2.23a10.26,10.26,0,0,0-1.63.09Zm0,3.19a9.36,9.36,0,0,0,1.63.1h2.23a10.1,10.1,0,0,0,1.65-.1v1.64a15,15,0,0,0-1.65-.07h-2.23a14.44,14.44,0,0,0-1.63.07Zm1.4,7.89h2.71V370.8h-2.71Zm17.87-3.61c-.33.37-.44.51-.76.9a14.41,14.41,0,0,1-1.57,1.68c.6.94,1.36,1.67,1.75,1.67s.62-.62.85-2.27a4.59,4.59,0,0,0,1.27.92c-.42,2.18-.92,3.06-1.87,3.06s-2.09-.85-3.08-2.44a18.34,18.34,0,0,1-3.52,2.23,6.29,6.29,0,0,0-1-1.29,14.86,14.86,0,0,0,3.84-2.21,11.51,11.51,0,0,1-1.15-3.4l-3.45,0V371c1.13-.28,1.41-.37,2.79-.78l0,1.31c-.51.18-1.52.48-2.81.83v2.37c0,1.35-.5,1.77-2.16,1.77-.53,0-.89,0-1.45-.07a4.49,4.49,0,0,0-.32-1.52,8.3,8.3,0,0,0,1.77.18c.53,0,.69-.13.69-.55v-1.84l-2.69.55-.34-1.51a20.42,20.42,0,0,0,3-.42v-2h-1a11.06,11.06,0,0,0-1.93.13v-1.61a9.27,9.27,0,0,0,1.54.1h1.4v-1.27a16.28,16.28,0,0,1-2.11.35,4.1,4.1,0,0,0-.56-1.15,21.23,21.23,0,0,0,3.11-.46,7.33,7.33,0,0,0,2.48-.9l1,1.06a18.18,18.18,0,0,1-2.42.78v1.56l3.22,0c-.07-.57-.13-1.26-.18-1.95s-.07-.76-.11-1.11h1.67a5.21,5.21,0,0,0-.07.85,21.23,21.23,0,0,0,.16,2.21l2.53,0a9.58,9.58,0,0,0,2.05-.16v1.65a9.2,9.2,0,0,0-1.68-.11h-.37l-2.32,0a12,12,0,0,0,.81,2.44,8.63,8.63,0,0,0,1.65-2.16Zm-9.2-12.76a9.83,9.83,0,0,0-1.15-1.82l1.54-.48a16.17,16.17,0,0,1,1.26,2.3h2.46a9.87,9.87,0,0,0,1.11-2.28l1.63.44a14.49,14.49,0,0,1-1,1.84h1.38a8.56,8.56,0,0,0,2-.14v1.54a12.4,12.4,0,0,0-2-.11h-3.7v1.33h2.94a14.27,14.27,0,0,0,1.89-.09v1.42a11.36,11.36,0,0,0-1.89-.11h-2.94v1.38H446a9.83,9.83,0,0,0,2.07-.14v1.54a11,11,0,0,0-2-.11h-9.29a13.92,13.92,0,0,0-2,.09v-1.5a11.39,11.39,0,0,0,2,.12h3.66v-1.38h-2.64a10.44,10.44,0,0,0-1.91.11v-1.42a14.42,14.42,0,0,0,1.91.09h2.64v-1.33h-3.27a12,12,0,0,0-2,.11v-1.54a8.77,8.77,0,0,0,2,.14Zm6.6,7a17.1,17.1,0,0,1,2.39,1.93l-1.15.92a10.82,10.82,0,0,0-2.32-2.07Z"/><path class="cls-1" d="M365.15,510.49a7.05,7.05,0,0,0-.41,1.51c-.95,4.4-2.37,7.46-4.6,10a17.46,17.46,0,0,1-5.81,4.42,5.42,5.42,0,0,0-1.11-1.91,13.44,13.44,0,0,0,4.13-2.42c3-2.46,4.73-5.75,5.74-10.69H354a11.43,11.43,0,0,0-2.25.14v-2.19a10.15,10.15,0,0,0,2.28.16h8.76a3,3,0,0,0,1.4-.18Z"/><path class="cls-1" d="M370.17,524.15v1.61h-1.69c0-.53.07-1.25.07-2.26v-12c0-1,0-1.47-.07-2.07.57.05,1,.07,1.84.07h9.29a12.28,12.28,0,0,0,1.82-.09c-.05.6-.07,1.06-.07,2.09v12c0,1.06,0,1.75.07,2.28h-1.69v-1.61Zm9.57-12.81h-9.57v11h9.57Z"/><path class="cls-1" d="M385.07,515.94a16.3,16.3,0,0,0,2.54.14H398a12.36,12.36,0,0,0,2.48-.14v2.27a17.66,17.66,0,0,0-2.5-.11H387.63a16.68,16.68,0,0,0-2.56.11Z"/><path class="cls-1" d="M416.52,511.18a5.63,5.63,0,0,0-.46,1.35,40.49,40.49,0,0,1-2.41,6.24,19.65,19.65,0,0,1-8.21,8.43,5.13,5.13,0,0,0-1.08-1.7,17.42,17.42,0,0,0,3.75-2.43,14.67,14.67,0,0,0,3.13-3.55,23.71,23.71,0,0,0-4-3.58l1-1.43a26.53,26.53,0,0,1,4,3.45,31,31,0,0,0,2.39-6.28l-6.22.1a22.83,22.83,0,0,1-4.36,6.09,4.35,4.35,0,0,0-1.29-1.31,19.13,19.13,0,0,0,4.67-6.56,16.16,16.16,0,0,0,1.09-3.17l1.71.58a13.74,13.74,0,0,0-.61,1.47c-.2.5-.38.89-.53,1.22.28-.07.28-.07,5.19-.14a3.39,3.39,0,0,0,1.2-.16Zm-.4-4.21a15,15,0,0,1,1.67,3.13l-1.05.64a14.47,14.47,0,0,0-1.65-3.17Zm1.84-1a16.2,16.2,0,0,1,1.65,3.08l-1.05.65a15.52,15.52,0,0,0-1.63-3.13Z"/><path class="cls-1" d="M433.06,508.83a9.84,9.84,0,0,0-.66.78,33.54,33.54,0,0,1-4.42,4.81V524a21.92,21.92,0,0,0,.1,2.72H426.2a19.46,19.46,0,0,0,.11-2.69v-8.28a26.31,26.31,0,0,1-7,3.93,6,6,0,0,0-.86-1.84,24.69,24.69,0,0,0,9.59-6,17.59,17.59,0,0,0,3.47-4.34Z"/><path class="cls-1" d="M443,512.9a12.5,12.5,0,0,0-.07,1.68c-.08,3.89-.57,6.12-1.82,8.12a10.78,10.78,0,0,1-4.73,4,5.93,5.93,0,0,0-1-1.86,8.12,8.12,0,0,0,3.31-2.05c1.93-1.95,2.61-4.18,2.61-8.64a6.65,6.65,0,0,0-.07-1.27Zm7.33-2.9a5.61,5.61,0,0,0-.46,1,13.14,13.14,0,0,1-5.34,6.72,5.74,5.74,0,0,0-1.12-1.55,8.19,8.19,0,0,0,2.85-2.16,11.58,11.58,0,0,0,2-3.26H438a15.27,15.27,0,0,0-2.27.11v-2.09a11.4,11.4,0,0,0,2.3.16h9.79c1.14,0,1.26,0,1.62-.16Z"/><path class="cls-1" d="M464.33,511.61a3,3,0,0,0-.32.95,25.87,25.87,0,0,1-3.7,8.71,18.72,18.72,0,0,1-6.44,5.77,4.28,4.28,0,0,0-1.1-1.65,16.29,16.29,0,0,0,6.44-5.68,22.47,22.47,0,0,0,3.15-7.5l-6,.12a21.69,21.69,0,0,1-4.36,5.93,3.83,3.83,0,0,0-1.25-1.4,16.73,16.73,0,0,0,4.65-6.42,11.56,11.56,0,0,0,1.11-3.26l1.8.53a3.61,3.61,0,0,0-.41.89c-.44,1.17-.59,1.54-.81,2a2,2,0,0,1,.47-.07h.22c2.79,0,4.36-.07,4.72-.09a1.78,1.78,0,0,0,.8-.11Zm-.43-4.25a14.62,14.62,0,0,1,1.6,3.13l-1.08.64a15.33,15.33,0,0,0-1.57-3.17Zm1.86-.87a15.48,15.48,0,0,1,1.58,3.05l-1.06.67a16.24,16.24,0,0,0-1.57-3.15Z"/><path class="cls-1" d="M468.81,513.68a10.74,10.74,0,0,0,2.34.16h9.13a3.26,3.26,0,0,0,1.45-.18l.79,1.15a6.86,6.86,0,0,0-.51,1.45,15.85,15.85,0,0,1-4.44,7.7,15.48,15.48,0,0,1-4.51,2.79,6,6,0,0,0-1-1.89,11.34,11.34,0,0,0,5.34-3.36,13.92,13.92,0,0,0,3-5.86h-9.3a14.82,14.82,0,0,0-2.32.11Zm1.59-5.38a8.11,8.11,0,0,0,2.11.16h6a8.7,8.7,0,0,0,2.12-.16v2.07a13.06,13.06,0,0,0-2.1-.11h-6a13.45,13.45,0,0,0-2.09.11Z"/><path class="cls-1" d="M491.56,508.1a11.1,11.1,0,0,0-.48,1.63c-1.25,5.22-2.56,9.82-3.77,13.38a69,69,0,0,0,8.55-1.38,46.42,46.42,0,0,0-2.76-5.91l1.42-.83a64.24,64.24,0,0,1,4.54,10.47l-1.56,1a27.28,27.28,0,0,0-1-3,4.9,4.9,0,0,1-.63.16,93.86,93.86,0,0,1-10.61,1.72,9.07,9.07,0,0,0-1.61.28l-.22-2.28a2.51,2.51,0,0,0,.5,0c.19,0,.87,0,1.58-.12,1.14-3.31,1.81-5.52,2.75-9.15a47.33,47.33,0,0,0,1.41-6.55Z"/><path class="cls-1" d="M506.39,507.13a13.23,13.23,0,0,0-.44,1.29,38.28,38.28,0,0,1-1.33,3.77v12.62a25.14,25.14,0,0,0,.13,2.79h-1.66a24.48,24.48,0,0,0,.13-2.83v-7.34c0-.85,0-1.31.07-2.85a18,18,0,0,1-2.15,3.36,5.5,5.5,0,0,0-.83-1.66,19.53,19.53,0,0,0,3.78-6.74,15.47,15.47,0,0,0,.79-3.05Zm2.83,4.62a25.75,25.75,0,0,1-3,5.59,4.73,4.73,0,0,0-1-1.4,20.61,20.61,0,0,0,3.2-6.17,16.67,16.67,0,0,0,.79-3.26l1.51.6c-.15.43-.2.62-.37,1.17-.28,1-.35,1.24-.59,1.91h5.61a9.37,9.37,0,0,0,1.77-.14v1.82a11.48,11.48,0,0,0-1.77-.12h-4.06v3.47h3.49a7.74,7.74,0,0,0,1.68-.13V517a9.84,9.84,0,0,0-1.68-.14h-3.49v3.5h3.55a8.68,8.68,0,0,0,1.67-.14v1.88a9.36,9.36,0,0,0-1.67-.13h-3.55v3.26a15.61,15.61,0,0,0,.13,2.51h-1.68a18.33,18.33,0,0,0,.11-2.51V511.75Z"/><path class="cls-1" d="M534.37,514.51c-.12.39-.2.58-.44,1.29,0,.07,0,.07-.51,1.49a20.71,20.71,0,0,1-2,4.33,9.49,9.49,0,0,0,1.64,2.76c.33.34.66.62.81.62s.55-1.22.77-3.27a4.67,4.67,0,0,0,1.18,1.15c-.44,2.92-1,4.07-1.88,4.07-.49,0-1.25-.55-2-1.47a11.62,11.62,0,0,1-1.47-2.46,16.7,16.7,0,0,1-4.92,4.44,5.05,5.05,0,0,0-1-1.43,14.13,14.13,0,0,0,5.32-4.6A33.85,33.85,0,0,1,528.3,512h-6.24c0,1.86,0,2.55,0,3.56h3.46a6.8,6.8,0,0,0,1.36-.09c-.06.55-.06.62-.11,2.05a27,27,0,0,1-.54,5.54c-.27.9-.73,1.17-1.93,1.17a8.45,8.45,0,0,1-1.78-.18,7.53,7.53,0,0,0-.3-1.75,8,8,0,0,0,2,.32c.61,0,.76-.18.91-1.08s.2-2.5.24-4.41H522a38.79,38.79,0,0,1-.59,6.18,13.14,13.14,0,0,1-1.42,4.16,4.3,4.3,0,0,0-1.15-1.31,10.6,10.6,0,0,0,1.3-3.61,55.19,55.19,0,0,0,.57-9.45,21.45,21.45,0,0,0-.11-2.8,16.61,16.61,0,0,0,2.27.11h5.41c-.08-2.87-.08-3-.15-3.58h1.62a13.89,13.89,0,0,0-.09,2c0,.28,0,.6,0,1.54h3.92a7.74,7.74,0,0,0,2-.14v1.84a13.2,13.2,0,0,0-2.11-.11H529.7a35.41,35.41,0,0,0,1.1,7.91,19.73,19.73,0,0,0,2.12-6.07Zm-1.27-4.28a11.75,11.75,0,0,0-2.42-2.46l1-.89a13.52,13.52,0,0,1,2.41,2.3Z"/><path class="cls-1" d="M359.14,546.48a7.72,7.72,0,0,0-.3,1.63c-1,6.69-2.74,10.92-6,14.51a6.48,6.48,0,0,0-1.79-1.4,17,17,0,0,0,4.12-6.58,26.68,26.68,0,0,0,1.72-8.58Zm6.41-.42a29.42,29.42,0,0,0,1,5.47,20.92,20.92,0,0,0,5.23,9.62,6.78,6.78,0,0,0-1.75,1.51,22.18,22.18,0,0,1-3.87-6.18,35.69,35.69,0,0,1-2.34-8.44,9.66,9.66,0,0,0-.3-1.56Z"/><path class="cls-1" d="M385.38,549.33v-2.16a12.56,12.56,0,0,0-.09-2.35h2.14a16.62,16.62,0,0,0-.1,2.18v2.33h1.82a15.37,15.37,0,0,0,2.78-.16v2.07a20,20,0,0,0-2.73-.12h-1.89a35.21,35.21,0,0,1-.18,4.16,8.73,8.73,0,0,1-3.25,6.33,12.25,12.25,0,0,1-4.23,2.25,4.83,4.83,0,0,0-1.24-1.72,9.79,9.79,0,0,0,4.79-2.6c1.44-1.48,2-3.06,2.11-6.28,0-.51,0-.69.05-2.14h-6.7v3.29a18.46,18.46,0,0,0,.1,2.3h-2.19a20,20,0,0,0,.09-2.3v-3.29h-1.79a20.86,20.86,0,0,0-2.74.12v-2.07a15.83,15.83,0,0,0,2.79.16h1.74v-2.39a16.4,16.4,0,0,0-.11-2.14h2.23a13.76,13.76,0,0,0-.12,2.09v2.44Zm4-4.74a15.13,15.13,0,0,1,1.87,3.15l-1.29.62a14.12,14.12,0,0,0-1.84-3.19Zm2.26-1a14.18,14.18,0,0,1,1.86,3.09l-1.26.62a14.42,14.42,0,0,0-1.84-3.15Z"/><path class="cls-1" d="M395.32,552.94a25.2,25.2,0,0,0,3.17.14h12.92a19.46,19.46,0,0,0,3.11-.14v2.27a27.56,27.56,0,0,0-3.13-.11H398.51a25.73,25.73,0,0,0-3.19.11Z"/><path class="cls-1" d="M421,563.68a17.06,17.06,0,0,0,.13-2.67V547a13.43,13.43,0,0,0-.13-2.52h2.32a18.32,18.32,0,0,0-.12,2.59v4.1A60.22,60.22,0,0,1,433.47,556l-1.15,2a48.6,48.6,0,0,0-8.46-4.51,4.19,4.19,0,0,1-.76-.39,13.63,13.63,0,0,1,.09,1.89v6a20.8,20.8,0,0,0,.12,2.67ZM429.88,546a17,17,0,0,1,2.26,3.33l-1.36.71a15.72,15.72,0,0,0-2.23-3.4Zm2.37-1.11a15.3,15.3,0,0,1,2.23,3.27l-1.33.71a17.88,17.88,0,0,0-2.21-3.36Z"/><path class="cls-1" d="M446.38,544.54a6.48,6.48,0,0,0-.65,1.18,23.16,23.16,0,0,1-7.24,8.74,5.91,5.91,0,0,0-1.31-1.55,18.54,18.54,0,0,0,6.23-6.69,7.81,7.81,0,0,0,.94-2.39Zm-2.46,9a16.5,16.5,0,0,0-2.26.13v-1.88a20.94,20.94,0,0,0,2.26.11h7.84a17.78,17.78,0,0,0,2.41-.11,8.74,8.74,0,0,0-.07,1.68c0,4.73-.43,8.37-1,9.49-.42.79-1,1-2.58,1-.69,0-1.47,0-2.83-.16a8.12,8.12,0,0,0-.45-1.93,16.19,16.19,0,0,0,3.12.36c1,0,1.15-.13,1.4-1.33a39.87,39.87,0,0,0,.53-7.4h-5.1a14.37,14.37,0,0,1-.32,2.32c-.9,3.88-3.15,6.6-7.29,8.69a6,6,0,0,0-1.2-1.56,11.43,11.43,0,0,0,5.73-4.9,10.35,10.35,0,0,0,1.24-4.55Zm7.42-9.66a8.18,8.18,0,0,0,.9,2,18.74,18.74,0,0,0,6.65,7,7.23,7.23,0,0,0-1.27,1.7,23.41,23.41,0,0,1-7.59-9c-.18-.37-.37-.72-.5-.95Z"/><path class="cls-1" d="M464.89,545.72a9.2,9.2,0,0,0-.14-2h2a10.44,10.44,0,0,0-.14,2v2.46h1.59a7.32,7.32,0,0,0,1.52-.11v1.81a7.71,7.71,0,0,0-1.5-.11h-1.44A11.5,11.5,0,0,0,469.7,554a6,6,0,0,0-1,1.52,13.62,13.62,0,0,1-2.16-3.61c0,1,.06,2.5.06,4v6.48a12.74,12.74,0,0,0,.14,2.25h-2a14.71,14.71,0,0,0,.14-2.23v-5.95c0-1.34,0-2.37.09-3.86a21.63,21.63,0,0,1-3.11,6.55,4.8,4.8,0,0,0-1.19-1.43,21.43,21.43,0,0,0,4-8H463a6.41,6.41,0,0,0-1.45.11v-1.81a7.33,7.33,0,0,0,1.57.11h1.81Zm14.35,5.33a19.92,19.92,0,0,0,2.69-.14v1.94a20.73,20.73,0,0,0-2.69-.14h-1V562a22.82,22.82,0,0,0,.13,2.64h-2a23.26,23.26,0,0,0,.16-2.64v-9.31h-4.14c-.18,5.88-1,9-3.2,11.86a5.12,5.12,0,0,0-1.45-1.28,9.68,9.68,0,0,0,2-3.75c.64-2.1.94-5.25.94-10.08a28,28,0,0,0-.14-3.49H471a24,24,0,0,0,9-2.16l1.31,1.61c-.41.11-.41.11-2.55.83a31.4,31.4,0,0,1-6.25,1.28v2.05c0,.55,0,.83,0,1.47Z"/><path class="cls-1" d="M360.45,593.32a29.87,29.87,0,0,0,6.57-7.48,2.4,2.4,0,0,1,.19-.29c-.35,0-.35,0-12.69,0a22.68,22.68,0,0,0-2.88.12v-2.17a16.07,16.07,0,0,0,2.9.17h13.11a3.74,3.74,0,0,0,1.47-.17l1.15,1.34a6.31,6.31,0,0,0-.95,1.26,35.49,35.49,0,0,1-7.56,8.63c.85.94,1.93,2.3,3.29,4.09l-1.7,1.4a36,36,0,0,0-4.42-5.65,37.57,37.57,0,0,0-4.58-4.35l1.54-1.17a34.11,34.11,0,0,1,3.15,2.83Z"/><path class="cls-1" d="M373.1,595.46a19.86,19.86,0,0,0,3,.16h12.6a17.56,17.56,0,0,0,3-.16v2.27a26.07,26.07,0,0,0-3-.11H376a25.63,25.63,0,0,0-2.94.11Zm2.32-11a14.86,14.86,0,0,0,2.81.17h8.37a14,14,0,0,0,2.76-.17v2.26a21.53,21.53,0,0,0-2.74-.12h-8.41a21.72,21.72,0,0,0-2.79.12Z"/><path class="cls-1" d="M409,598.24a10.63,10.63,0,0,0,2.23-.14v2a13.13,13.13,0,0,0-2.23-.12H397.78a13.11,13.11,0,0,0-2.25.12v-2a10.79,10.79,0,0,0,2.25.14h6.76c.48-2.28,1-5.66,1.22-7.75h-5.87a16.07,16.07,0,0,0-2.18.09v-1.91a14.53,14.53,0,0,0,2.23.14h5.91a3.27,3.27,0,0,0,1.27-.16l.89.78a4.73,4.73,0,0,0-.43,1.89c-.51,3.56-.7,4.64-1.13,6.92Z"/><path class="cls-1" d="M424.41,586.9a8.59,8.59,0,0,0-.09,1.68c-.09,3.89-.71,6.12-2.28,8.12a13,13,0,0,1-5.91,4,5.62,5.62,0,0,0-1.26-1.86,10.85,10.85,0,0,0,4.14-2.05c2.41-1.95,3.26-4.18,3.26-8.64a5.19,5.19,0,0,0-.09-1.27Zm9.15-2.9a5.39,5.39,0,0,0-.57,1,14.17,14.17,0,0,1-6.67,6.72,6.08,6.08,0,0,0-1.4-1.55,10.15,10.15,0,0,0,3.56-2.16,11.21,11.21,0,0,0,2.46-3.26H418.16a23.74,23.74,0,0,0-2.83.11v-2.09a17.58,17.58,0,0,0,2.87.16h12.24a5.16,5.16,0,0,0,2-.16Z"/><path class="cls-1" d="M441.2,582.35a12.52,12.52,0,0,0-.14,2c-.18,6.37-.36,8-1.21,10.37a14.36,14.36,0,0,1-4,5.8,5.63,5.63,0,0,0-1.65-1.54,11.08,11.08,0,0,0,3.79-5.27c.71-2,1-5,1-9.68a11.4,11.4,0,0,0-.07-1.82Zm5.84-.28a14.62,14.62,0,0,0-.16,2.39l-.11,13.36a10,10,0,0,0,4-2.66,11.22,11.22,0,0,0,2.6-4.49,7.61,7.61,0,0,0,1.52,1.59,13.18,13.18,0,0,1-4.74,6,15.31,15.31,0,0,1-3.24,1.66c-.27.09-.5.18-.73.28a3.32,3.32,0,0,0-.56.25l-1.08-1.2a5.25,5.25,0,0,0,.16-1.81l.14-13v-.5a10.07,10.07,0,0,0-.11-1.89Z"/><path class="cls-1" d="M464.23,581.13c-.28.6-.37.78-.56,1.29a32.58,32.58,0,0,1-1.65,3.77v12.62a19.09,19.09,0,0,0,.16,2.79h-2.07a22.08,22.08,0,0,0,.16-2.83v-7.34c0-.85,0-1.31.09-2.85a17.71,17.71,0,0,1-2.69,3.36,5.37,5.37,0,0,0-1-1.66,19,19,0,0,0,4.71-6.74,12.72,12.72,0,0,0,1-3Zm3.54,4.62a24.59,24.59,0,0,1-3.71,5.59,4.78,4.78,0,0,0-1.26-1.4,19.31,19.31,0,0,0,4-6.17,14.11,14.11,0,0,0,1-3.26l1.89.6c-.19.43-.26.62-.46,1.17-.35,1-.44,1.24-.74,1.91h7a14.71,14.71,0,0,0,2.21-.14v1.82a17.77,17.77,0,0,0-2.21-.12h-5.08v3.47h4.37a11.86,11.86,0,0,0,2.09-.13V591a15.16,15.16,0,0,0-2.09-.14h-4.37v3.5h4.44a13.65,13.65,0,0,0,2.09-.14v1.88a14.63,14.63,0,0,0-2.09-.13h-4.44v3.26a13.84,13.84,0,0,0,.16,2.51h-2.09a15.76,15.76,0,0,0,.14-2.51V585.75Z"/><path class="cls-1" d="M499.67,588.51c-.16.39-.26.58-.56,1.29,0,.07,0,.07-.64,1.49a18.5,18.5,0,0,1-2.51,4.33,9.41,9.41,0,0,0,2.05,2.76,2.64,2.64,0,0,0,1,.62c.32,0,.69-1.22,1-3.27a5.58,5.58,0,0,0,1.47,1.15c-.55,2.92-1.22,4.07-2.35,4.07a4.41,4.41,0,0,1-2.5-1.47,11.55,11.55,0,0,1-1.84-2.46,20.05,20.05,0,0,1-6.14,4.44,5.24,5.24,0,0,0-1.29-1.43,17.1,17.1,0,0,0,6.65-4.6,27.84,27.84,0,0,1-1.91-9.47h-7.8c0,1.86,0,2.55,0,3.56h4.32a10.54,10.54,0,0,0,1.7-.09c-.07.55-.07.62-.14,2.05a21.93,21.93,0,0,1-.66,5.54c-.35.9-.92,1.17-2.42,1.17a13.23,13.23,0,0,1-2.23-.18,6.27,6.27,0,0,0-.37-1.75,12.31,12.31,0,0,0,2.56.32c.75,0,.94-.18,1.12-1.08a36.42,36.42,0,0,0,.3-4.41h-4.25a32.67,32.67,0,0,1-.74,6.18,11.69,11.69,0,0,1-1.77,4.16,4.89,4.89,0,0,0-1.45-1.31,9.3,9.3,0,0,0,1.64-3.61,44.9,44.9,0,0,0,.71-9.45,16.3,16.3,0,0,0-.14-2.8,25.74,25.74,0,0,0,2.83.11H492a28.55,28.55,0,0,0-.18-3.58h2a12,12,0,0,0-.12,2c0,.28,0,.6,0,1.54h4.89a12.21,12.21,0,0,0,2.47-.14v1.84a20.79,20.79,0,0,0-2.65-.11h-4.64a28.65,28.65,0,0,0,1.38,7.91,17.36,17.36,0,0,0,2.64-6.07Zm-1.59-4.28a13.48,13.48,0,0,0-3-2.46l1.25-.89a15.86,15.86,0,0,1,3,2.3Z"/><path class="cls-1" d="M360,740.32a29.51,29.51,0,0,0,6.25-7.48c.07-.13.09-.16.17-.29-.32,0-.32,0-12.06,0a20.42,20.42,0,0,0-2.73.12v-2.17a14.48,14.48,0,0,0,2.75.17h12.46a3.41,3.41,0,0,0,1.4-.17l1.09,1.34a6.28,6.28,0,0,0-.9,1.26,34.89,34.89,0,0,1-7.18,8.63c.8.94,1.83,2.3,3.12,4.09l-1.62,1.4a35.86,35.86,0,0,0-4.19-5.65,37.18,37.18,0,0,0-4.35-4.35l1.46-1.17a34.29,34.29,0,0,1,3,2.83Z"/><path class="cls-1" d="M371.53,742.46a18,18,0,0,0,2.82.16h12a16,16,0,0,0,2.87-.16v2.27a23.63,23.63,0,0,0-2.84-.11h-12a23.29,23.29,0,0,0-2.8.11Zm2.21-11a13.27,13.27,0,0,0,2.66.17h8a12.65,12.65,0,0,0,2.62-.17v2.26a19.41,19.41,0,0,0-2.6-.12h-8a19.33,19.33,0,0,0-2.64.12Z"/><path class="cls-1" d="M405.16,745.24a9.59,9.59,0,0,0,2.12-.14v2a11.86,11.86,0,0,0-2.12-.12H394.54a11.91,11.91,0,0,0-2.14.12v-2a9.79,9.79,0,0,0,2.14.14H401c.46-2.28,1-5.66,1.16-7.75h-5.57a14.75,14.75,0,0,0-2.08.09v-1.91a13.25,13.25,0,0,0,2.12.14h5.62a2.9,2.9,0,0,0,1.2-.16l.85.78a4.88,4.88,0,0,0-.41,1.89c-.48,3.56-.66,4.64-1.07,6.92Z"/><path class="cls-1" d="M419.41,733.9a8.59,8.59,0,0,0-.09,1.68c-.09,3.89-.68,6.12-2.16,8.12a12.4,12.4,0,0,1-5.62,4,5.62,5.62,0,0,0-1.2-1.86,10,10,0,0,0,3.93-2.05c2.29-1.95,3.1-4.18,3.1-8.64a5.83,5.83,0,0,0-.08-1.27Zm8.69-2.9a5.6,5.6,0,0,0-.54,1,13.85,13.85,0,0,1-6.34,6.72,5.91,5.91,0,0,0-1.33-1.55,9.5,9.5,0,0,0,3.38-2.16,11.19,11.19,0,0,0,2.34-3.26H413.46a21.5,21.5,0,0,0-2.69.11v-2.09a16.05,16.05,0,0,0,2.74.16h11.62a4.62,4.62,0,0,0,1.92-.16Z"/><path class="cls-1" d="M434.92,729.35a11.81,11.81,0,0,0-.13,2c-.18,6.37-.35,8-1.16,10.37a14.27,14.27,0,0,1-3.76,5.8A5.48,5.48,0,0,0,428.3,746a11,11,0,0,0,3.6-5.27c.68-2,1-5,1-9.68a11.4,11.4,0,0,0-.07-1.82Zm5.55-.28a13.82,13.82,0,0,0-.15,2.39l-.11,13.36a9.54,9.54,0,0,0,3.84-2.66,11.33,11.33,0,0,0,2.47-4.49,7.46,7.46,0,0,0,1.44,1.59,13.05,13.05,0,0,1-4.5,6,14.6,14.6,0,0,1-3.08,1.66c-.26.09-.48.18-.7.28a3.16,3.16,0,0,0-.52.25l-1-1.2a5.62,5.62,0,0,0,.15-1.81l.14-13v-.5a11,11,0,0,0-.11-1.89Z"/><path class="cls-1" d="M460.55,741.9a9.69,9.69,0,0,0,2.95,2.81,16.23,16.23,0,0,0,5.79,2.07,7.4,7.4,0,0,0-.92,1.77c-4.67-1.29-7.3-3.06-9.37-6.28a8.64,8.64,0,0,1-3.37,4.14,14.65,14.65,0,0,1-5.07,2.12,5.7,5.7,0,0,0-.89-1.73,13.84,13.84,0,0,0,4.7-1.56,7.1,7.1,0,0,0,3.08-3.34h-5.33A15.74,15.74,0,0,0,450,742v-1.79a10.48,10.48,0,0,0,2.08.14H458a14,14,0,0,0,.31-2h-3.81a10.43,10.43,0,0,0-1.92.11v-1.65a10.5,10.5,0,0,0,1.92.11h3.89c.05-.87.07-1.1.09-1.81h-4a13.16,13.16,0,0,0-2.08.11V733.6a12.5,12.5,0,0,0,2.08.12h4a8.33,8.33,0,0,0-.11-1.75h1.88a8.14,8.14,0,0,0-.13,1.75h4.35a12.62,12.62,0,0,0,2.1-.12v1.68a13.67,13.67,0,0,0-2.1-.11h-4.37c-.05.89-.05,1.31-.09,1.81h4.28a10.13,10.13,0,0,0,1.9-.11v1.65a10.32,10.32,0,0,0-1.9-.11h-4.39a14.47,14.47,0,0,1-.28,2h7.34a10.31,10.31,0,0,0,2.07-.14V742a15.16,15.16,0,0,0-2.14-.14Zm-2.16-12.8a8.32,8.32,0,0,0-.13-1.45h2a7.21,7.21,0,0,0-.13,1.42v.79h6.32a20.13,20.13,0,0,0,2.25-.1,11.45,11.45,0,0,0-.09,1.59v1.45a10.9,10.9,0,0,0,.09,1.63H467v-3.06H451.92v3.06h-1.71a10.9,10.9,0,0,0,.09-1.63v-1.43a11.75,11.75,0,0,0-.09-1.61,20.59,20.59,0,0,0,2.28.1h5.9Z"/><path class="cls-1" d="M474.82,729.86a15.5,15.5,0,0,0-.13-2.1h1.88a11.55,11.55,0,0,0-.14,2.1v1.42h1.34a12.2,12.2,0,0,0,2-.11v1.77a13.54,13.54,0,0,0-2-.1h-2.58c0,1.38,0,2.37-.07,2.95h2.15a11.07,11.07,0,0,0,1.57-.09c0,.27,0,.87,0,1.1v.78a59.28,59.28,0,0,1-.5,8.42c-.35,1.75-.74,2.09-2.36,2.09-.26,0-.74,0-1.42-.09a6.7,6.7,0,0,0-.3-1.75,7.25,7.25,0,0,0,1.68.23c.7,0,.83-.23,1-1.68a67.19,67.19,0,0,0,.37-7.47h-2.23a31.72,31.72,0,0,1-.66,5.63,14.71,14.71,0,0,1-2.38,5.45A5.62,5.62,0,0,0,470.8,747a13.23,13.23,0,0,0,2.55-7.18c.16-1.75.24-3.79.29-7h-.53a9.4,9.4,0,0,0-1.81.12v-1.82a8.86,8.86,0,0,0,1.92.14h1.6Zm6,6.48a17.08,17.08,0,0,0-.08-1.84c-.33.51-.53.8-1.12,1.59a3.83,3.83,0,0,0-1.22-1.18,17.53,17.53,0,0,0,3.34-6,8.31,8.31,0,0,0,.35-1.29l1.75.41c-.09.19-.09.19-.44,1.06s-.41,1.08-.65,1.63h6.05a13,13,0,0,0,2.25-.14v1.82a20.51,20.51,0,0,0-2.23-.09h-6.84c-.46.85-.74,1.35-1.22,2.14h1.7a10.66,10.66,0,0,0-.11,1.84v1l2.23-.71v-1.59a13.67,13.67,0,0,0-.11-1.9h1.73A10.65,10.65,0,0,0,486,735v1.17l2.36-.76a5.25,5.25,0,0,0,.78-.27l.48-.16a5.11,5.11,0,0,0,.57-.23c0,1.05,0,1.12,0,1.79-.18,6.18-.31,6.62-2.14,6.62-.24,0-.68,0-1.16-.07a5.6,5.6,0,0,0-.37-1.58,7.4,7.4,0,0,0,1.35.18c.4,0,.55-.18.59-.71a36.92,36.92,0,0,0,.2-4.1l-2.62.88V742a15.57,15.57,0,0,0,.08,1.93h-1.66a13.91,13.91,0,0,0,.09-1.93v-3.73l-2.23.74v6.5c0,.92.18,1,3.63,1,2.29,0,2.95-.09,3.21-.39a6.71,6.71,0,0,0,.42-2.9,4.68,4.68,0,0,0,1.59.6c-.2,2.23-.44,3.13-1,3.63s-1.49.67-4.35.67c-4.28,0-5.05-.3-5.05-2v-6.56a8,8,0,0,0-1.33.55l-.24-1.81a8.4,8.4,0,0,0,1.57-.39Z"/><path class="cls-1" d="M502.2,729.74a9.69,9.69,0,0,0-.16-2h2a9.57,9.57,0,0,0-.13,2V731h6.34a13.87,13.87,0,0,0,2.4-.16v1.94a16.2,16.2,0,0,0-2.38-.14H503.9v3.49h3a9.68,9.68,0,0,0,1.9-.11l1.09,1.15a11.94,11.94,0,0,0-.85,1.22,21.13,21.13,0,0,1-4.28,5,22.69,22.69,0,0,0,8.35,3.26,5.78,5.78,0,0,0-.92,1.84,24.35,24.35,0,0,1-8.83-4,23.24,23.24,0,0,1-8.91,3.93,6.32,6.32,0,0,0-.9-1.75,21.2,21.2,0,0,0,8.43-3.28,16.83,16.83,0,0,1-4.19-5.68,17.28,17.28,0,0,0-2.41.13V736a15.36,15.36,0,0,0,2.43.14h4.44v-3.49h-6.06a16.2,16.2,0,0,0-2.38.14v-1.94a13.87,13.87,0,0,0,2.4.16h6Zm-2.69,8a14.2,14.2,0,0,0,3.82,4.66,15.8,15.8,0,0,0,4.07-4.66Z"/><path class="cls-1" d="M517.73,730.13a13.61,13.61,0,0,0-.13-2.34h1.88a15.26,15.26,0,0,0-.13,2.32v2.14H520a7.12,7.12,0,0,0,1.31-.1v1.75a7.63,7.63,0,0,0-1.31-.09h-.65v3.86c.65-.3.94-.43,1.75-.87l.06,1.61c-.83.46-1.16.62-1.81.92v7.38c0,1.4-.48,1.75-2.43,1.75a11.93,11.93,0,0,1-1.29-.05,5.73,5.73,0,0,0-.35-1.68,12.2,12.2,0,0,0,1.91.16c.41,0,.54-.11.54-.5V740c-.54.23-1,.39-1.79.71l-.68.3-.41-1.81a11.58,11.58,0,0,0,2.88-.9v-4.53h-1.16a10.49,10.49,0,0,0-1.46.09v-1.77a7.36,7.36,0,0,0,1.49.12h1.13Zm6.18,5.57a16.76,16.76,0,0,0-2,.09v-1.61a10.27,10.27,0,0,0,1.88.11h6.32a15.54,15.54,0,0,0,2-4.23l1.59.53a29.61,29.61,0,0,1-2,3.7h.87a7.68,7.68,0,0,0,1.86-.14v1.64a17.33,17.33,0,0,0-2-.09h-6c-.1,1-.1,1.12-.19,1.77h6.14a15,15,0,0,0,2.42-.14v1.72a18.45,18.45,0,0,0-2.42-.13h-6.4a13.94,13.94,0,0,1-.4,1.54h4.87a10.81,10.81,0,0,0,1.84-.1l.83,1.08a7.24,7.24,0,0,0-.48.69,19.87,19.87,0,0,1-2.64,3,14.89,14.89,0,0,0,5.26,1.79,11.1,11.1,0,0,0-.81,1.7,18.37,18.37,0,0,1-5.72-2.5,17.6,17.6,0,0,1-5.44,2.48,4.75,4.75,0,0,0-.9-1.52,14.8,14.8,0,0,0,5-2,13.54,13.54,0,0,1-2.54-2.69,16.86,16.86,0,0,1-4.26,6,4.16,4.16,0,0,0-1.11-1.34,12.84,12.84,0,0,0,3.14-3.65,15.51,15.51,0,0,0,1.77-4.55h-.61a14.81,14.81,0,0,0-2.19.11v-1.68a14.9,14.9,0,0,0,2.21.12h.85c.09-.67.14-1.11.18-1.77Zm10.17-6.58-1.08.25a66.57,66.57,0,0,1-11.31,1.27,4.21,4.21,0,0,0-.55-1.47h.65c4.18,0,9.42-.72,11.13-1.5Zm-10.17,5.1a9.79,9.79,0,0,0-1.37-2.85l1.33-.5a12,12,0,0,1,1.31,2.76Zm2.15,7.66a12.93,12.93,0,0,0,2.51,2.42,10.5,10.5,0,0,0,2.21-2.42Zm1.5-7.86a12.05,12.05,0,0,0-1.24-3.08l1.35-.44a13,13,0,0,1,1.23,3Z"/><path class="cls-1" d="M368.63,767.29a6.7,6.7,0,0,0-.78.25,34.68,34.68,0,0,1-5,1.38c0,3.22,0,3.64-.07,4.37h5.15a12.89,12.89,0,0,0,2.72-.16v2a20.17,20.17,0,0,0-2.69-.12h-5.29a11.44,11.44,0,0,1-1.52,5.06,12,12,0,0,1-3.7,3.68,22.14,22.14,0,0,1-2.07,1.11,4.87,4.87,0,0,0-1.47-1.71,11,11,0,0,0,3.4-1.84,8.14,8.14,0,0,0,3.31-6.3h-6a20.51,20.51,0,0,0-2.76.12v-2a13.49,13.49,0,0,0,2.78.16h6.12c.05-.87.07-2.25.07-4a48,48,0,0,1-6.67.59,5.57,5.57,0,0,0-.64-1.81c.69,0,1,0,1.38,0a38,38,0,0,0,9.7-1.42,9.39,9.39,0,0,0,2.67-1.11Z"/><path class="cls-1" d="M385,782.26h4.74a13.63,13.63,0,0,0,2.2-.11v1.91a12.81,12.81,0,0,0-2.2-.12H378.6a18,18,0,0,0-2.21.09v-1.91a11.12,11.12,0,0,0,2.18.14h4.53v-7.77H380a18.53,18.53,0,0,0-2.19.09V772.7a14.6,14.6,0,0,0,2.19.13h8.34a11,11,0,0,0,2.19-.16v1.91a16.29,16.29,0,0,0-2.16-.09H385Z"/><path class="cls-1" d="M400.29,771.11a26.82,26.82,0,0,1,2.27,5.2l-1.86.62a19.41,19.41,0,0,0-2.14-5.25Zm13-.05c-.13.42-.18.58-.3,1.06a18.92,18.92,0,0,1-3.31,7.68,17.85,17.85,0,0,1-6.62,5.13,5.7,5.7,0,0,0-1.31-1.56c4.53-1.91,7.2-4.65,8.69-9a12.85,12.85,0,0,0,.83-3.79Zm-8.28-.87a24.51,24.51,0,0,1,2.24,5l-1.82.62a21.39,21.39,0,0,0-2.12-5.13Z"/><path class="cls-1" d="M428.48,765.61a3.22,3.22,0,0,0-.5.9,21.51,21.51,0,0,1-1,2,2,2,0,0,1,.58-.07h.28l5.86-.09a3.34,3.34,0,0,0,1.33-.18l1.13,1.1a3.35,3.35,0,0,0-.51,1.19,23.8,23.8,0,0,1-4.62,8.72A22.56,22.56,0,0,1,423,785a4.55,4.55,0,0,0-1.38-1.68,19.22,19.22,0,0,0,8.05-5.65,20.19,20.19,0,0,0,3.93-7.5l-7.52.11a23.13,23.13,0,0,1-5.44,5.94,4.2,4.2,0,0,0-1.57-1.4,17.52,17.52,0,0,0,5.82-6.42,9.82,9.82,0,0,0,1.38-3.27Z"/><path class="cls-1" d="M351.55,954.69a8.8,8.8,0,0,0,1.84.12h4.09a8.3,8.3,0,0,0,1.84-.12v1.73a15.68,15.68,0,0,0-1.68-.07h-4.25a13.74,13.74,0,0,0-1.84.09Zm.8-3.17a8.81,8.81,0,0,0,1.73.12h3a8.83,8.83,0,0,0,1.72-.12v1.7a12.59,12.59,0,0,0-1.72-.09h-3a12,12,0,0,0-1.73.09Zm.1,6.46a8.69,8.69,0,0,0,1.54.09h3.26a8.06,8.06,0,0,0,1.5-.09v1.66a9.43,9.43,0,0,0-1.5-.09H354a8.84,8.84,0,0,0-1.54.09Zm0,3.22a12.21,12.21,0,0,0,1.54.07h3.26a11,11,0,0,0,1.5-.07v1.63a10.4,10.4,0,0,0-1.52-.09H354a10.06,10.06,0,0,0-1.51.09Zm0,10.42c.06-.74.11-1.45.11-2.23v-3.22a15.25,15.25,0,0,0-.09-1.86,12.9,12.9,0,0,0,1.86.09H357a12.52,12.52,0,0,0,1.66-.07,14.4,14.4,0,0,0-.07,1.75v3.38a12.9,12.9,0,0,0,.09,1.86h-1.61v-.94h-3v1.24ZM354.1,969h3v-3.17h-3Zm7.77-4.74a17.66,17.66,0,0,1-1.51,5.78l-1.48-.79a11.84,11.84,0,0,0,1.5-5.31Zm-.8-9.65c1.36.48,1.89.69,2.76,1.05a11.28,11.28,0,0,0,.46-2.27h-2a11.9,11.9,0,0,0-2.35.14v-1.8a16.23,16.23,0,0,0,2.37.14h7.11a18.29,18.29,0,0,0,2.16-.09,24,24,0,0,0-.16,2.44,25.76,25.76,0,0,1-.83,5.72c-.39,1-.92,1.27-2.46,1.27-.55,0-1.29,0-1.82-.1a5.42,5.42,0,0,0-.41-1.7,9.31,9.31,0,0,0,2.07.26c.83,0,1.08-.23,1.29-1.22a28.85,28.85,0,0,0,.5-5.06h-3.86a12.44,12.44,0,0,1-.67,3c.81.42,1.25.65,2.37,1.34l-.87,1.33a18.47,18.47,0,0,0-2.07-1.31,11.26,11.26,0,0,1-4.44,4.48,5.68,5.68,0,0,0-1.17-1.31,8.78,8.78,0,0,0,4.21-3.88,29.29,29.29,0,0,0-3-1.2Zm3.29,14.51c0,.5.2.59,1.26.59.46,0,1.52,0,1.73-.06.64-.12.8-.33.94-1.25.07-.5.11-1.15.16-1.88A5.74,5.74,0,0,0,370,967a8.16,8.16,0,0,1-.67,3.26c-.39.71-1.15.92-3.45.92-2.59,0-3.12-.25-3.12-1.52v-4.3a11.09,11.09,0,0,0-.14-1.81h1.86a8.33,8.33,0,0,0-.11,1.68Zm.18-8.37a17.84,17.84,0,0,1,3.68,3L367,964.86a12.46,12.46,0,0,0-3.59-3.22Zm5.91,2.89a22.73,22.73,0,0,1,2.74,5l-1.43.9a18.06,18.06,0,0,0-2.64-5.15Z"/><path class="cls-1" d="M376.78,954.58a10.12,10.12,0,0,0,1.84.11h4.55a12.17,12.17,0,0,0,1.84-.09v1.73a10.54,10.54,0,0,0-1.7-.1h-4.69a13.64,13.64,0,0,0-1.84.1Zm.74,17.06a16.24,16.24,0,0,0,.13-2.23v-3.17a12.29,12.29,0,0,0-.11-1.91,15.3,15.3,0,0,0,1.82.09h3.21a9,9,0,0,0,1.64-.07,16.42,16.42,0,0,0-.07,1.77v3.36a16.6,16.6,0,0,0,.07,1.86H382.6v-.89h-3.38v1.19Zm0-20.26a9.19,9.19,0,0,0,1.8.12h3.26a9.2,9.2,0,0,0,1.79-.12v1.68a13.41,13.41,0,0,0-1.79-.09h-3.26a13.66,13.66,0,0,0-1.8.09Zm.09,6.53a9.32,9.32,0,0,0,1.61.1h3.45a8.69,8.69,0,0,0,1.59-.1v1.64a10.28,10.28,0,0,0-1.59-.1h-3.45a10,10,0,0,0-1.61.1Zm0,3.2a9.53,9.53,0,0,0,1.61.09h3.45a9.27,9.27,0,0,0,1.59-.09v1.63a10.38,10.38,0,0,0-1.61-.09h-3.43a10.06,10.06,0,0,0-1.61.09Zm1.57,7.91h3.38v-3.17h-3.38ZM391,953.41h-3a18.67,18.67,0,0,0-2.44.13v-1.88a17.62,17.62,0,0,0,2.44.14h7.08a17.42,17.42,0,0,0,2.44-.14v1.88a18.18,18.18,0,0,0-2.41-.13h-2.44v6.3h2.25a14.78,14.78,0,0,0,2.26-.14v1.89a13.75,13.75,0,0,0-2.26-.14h-2.25v7.61h2.85a17.87,17.87,0,0,0,2.39-.14v1.91a18,18,0,0,0-2.41-.14h-8.19a19.39,19.39,0,0,0-2.39.12v-1.84a10.51,10.51,0,0,0,1.72.09v-9.25a15.26,15.26,0,0,0-.13-2.39h1.95a16.34,16.34,0,0,0-.14,2.39v9.25H391Z"/><path class="cls-2" d="M109.29,962.34a90.24,90.24,0,1,1,90.23,90.24,90.24,90.24,0,0,1-90.23-90.24Zm3,0a5.15,5.15,0,1,0,5.14-5.14,5.14,5.14,0,0,0-5.14,5.14Zm12.85,0a74.43,74.43,0,1,0,74.43-74.42,74.42,74.42,0,0,0-74.43,74.42Z"/><path class="cls-3" d="M109.29,758.05a90.24,90.24,0,1,1,90.24,90.24,90.24,90.24,0,0,1-90.24-90.24Zm3,0a5.15,5.15,0,1,0,5.14-5.14,5.14,5.14,0,0,0-5.14,5.14Zm12.85,0a74.43,74.43,0,1,0,74.43-74.42,74.43,74.43,0,0,0-74.43,74.42Z"/><path class="cls-4" d="M109.29,553.76A90.24,90.24,0,1,1,199.53,644a90.24,90.24,0,0,1-90.24-90.24Zm3,0a5.15,5.15,0,1,0,5.14-5.14,5.14,5.14,0,0,0-5.14,5.14Zm12.85,0a74.43,74.43,0,1,0,74.43-74.43,74.43,74.43,0,0,0-74.43,74.43Z"/><path class="cls-5" d="M109.29,349.47a90.24,90.24,0,1,1,90.24,90.24,90.24,90.24,0,0,1-90.24-90.24Zm3,0a5.15,5.15,0,1,0,5.14-5.14,5.15,5.15,0,0,0-5.14,5.14Zm12.85,0A74.43,74.43,0,1,0,199.53,275a74.43,74.43,0,0,0-74.43,74.43Z"/><path class="cls-6" d="M109.29,145.18a90.24,90.24,0,1,1,90.24,90.24,90.24,90.24,0,0,1-90.24-90.24Zm3,0a5.15,5.15,0,1,0,5.14-5.15,5.15,5.15,0,0,0-5.14,5.15Zm12.85,0a74.43,74.43,0,1,0,74.43-74.43,74.43,74.43,0,0,0-74.43,74.43Z"/><path class="cls-7" d="M32.79,1003a2,2,0,1,1-3.95,0v-3.95a2,2,0,1,1,3.95,0V1003Zm0,79a2,2,0,1,1-3.95,0v-3.95a2,2,0,0,1,3.95,0v3.95Zm0-15.81a2,2,0,1,1-3.95,0v-4a2,2,0,0,1,3.95,0v4Zm0-15.81a2,2,0,1,1-3.95,0v-4a2,2,0,1,1,3.95,0v4Zm0-15.81a2,2,0,1,1-3.95,0v-4a2,2,0,0,1,3.95,0v4Zm0-15.81a2,2,0,1,1-3.95,0v-4a2,2,0,1,1,3.95,0v4Z"/><path class="cls-7" d="M65.61,964.32a2,2,0,0,1,0-4h4a2,2,0,0,1,0,4Zm31.62,0a2,2,0,0,1,0-4h4a2,2,0,0,1,0,4Zm-15.81,0a2,2,0,0,1,0-4h4a2,2,0,0,1,0,4Z"/><polygon class="cls-8" points="21.43 1094.63 30.8 1104 40.16 1094.63 21.43 1094.63 21.43 1094.63"/><path class="cls-7" d="M32.79,799.54a2,2,0,1,1-3.95,0v-3.95a2,2,0,1,1,3.95,0v3.95Zm0,126.39a2,2,0,1,1-3.95,0V922a2,2,0,1,1,3.95,0v3.95Zm0-15.81a2,2,0,1,1-3.95,0v-4a2,2,0,1,1,3.95,0v4Zm0-15.81a2,2,0,1,1-3.95,0v-3.95a2,2,0,1,1,3.95,0v3.95Zm0-15.72a2,2,0,1,1-3.95,0v-4a2,2,0,0,1,3.95,0v4Zm0-15.81a2,2,0,1,1-3.95,0v-3.95a2,2,0,0,1,3.95,0v3.95Zm0-15.81a2,2,0,1,1-3.95,0v-4a2,2,0,0,1,3.95,0v4Zm0-15.81a2,2,0,1,1-3.95,0v-3.95a2,2,0,1,1,3.95,0v3.95Zm0-15.81a2,2,0,1,1-3.95,0v-4a2,2,0,1,1,3.95,0v4Z"/><path class="cls-7" d="M65.61,760a2,2,0,0,1,0-3.95h4a2,2,0,0,1,0,3.95Zm31.62,0a2,2,0,0,1,0-3.95h4a2,2,0,0,1,0,3.95Zm-15.81,0a2,2,0,0,1,0-3.95h4a2,2,0,0,1,0,3.95Z"/><path class="cls-7" d="M65.61,555.74a2,2,0,0,1,0-4h4a2,2,0,0,1,0,4Zm31.62,0a2,2,0,0,1,0-4h4a2,2,0,0,1,0,4Zm-15.81,0a2,2,0,0,1,0-4h4a2,2,0,0,1,0,4Z"/><path class="cls-7" d="M32.79,595.18a2,2,0,1,1-3.95,0v-3.95a2,2,0,1,1,3.95,0v3.95Zm0,126.39a2,2,0,0,1-3.95,0v-4a2,2,0,1,1,3.95,0v4Zm0-15.81a2,2,0,0,1-3.95,0v-4a2,2,0,0,1,3.95,0v4Zm0-15.81a2,2,0,0,1-3.95,0v-4a2,2,0,1,1,3.95,0v4Zm0-15.72a2,2,0,1,1-3.95,0v-4a2,2,0,1,1,3.95,0v4Zm0-15.81a2,2,0,1,1-3.95,0v-3.95a2,2,0,1,1,3.95,0v3.95Zm0-15.81a2,2,0,1,1-3.95,0v-4a2,2,0,1,1,3.95,0v4Zm0-15.81a2,2,0,1,1-3.95,0v-3.95a2,2,0,1,1,3.95,0v3.95Zm0-15.81a2,2,0,1,1-3.95,0v-4a2,2,0,1,1,3.95,0v4Z"/><path class="cls-7" d="M65.61,351.45a2,2,0,0,1,0-3.95h4a2,2,0,0,1,0,3.95Zm31.62,0a2,2,0,0,1,0-3.95h4a2,2,0,0,1,0,3.95Zm-15.81,0a2,2,0,0,1,0-3.95h4a2,2,0,0,1,0,3.95Z"/><path class="cls-7" d="M32.79,390.69a2,2,0,1,1-3.95,0v-3.95a2,2,0,0,1,3.95,0v3.95Zm0,126.39a2,2,0,1,1-3.95,0v-4a2,2,0,1,1,3.95,0v4Zm0-15.81a2,2,0,1,1-3.95,0v-3.95a2,2,0,1,1,3.95,0v3.95Zm0-15.81a2,2,0,1,1-3.95,0v-3.95a2,2,0,1,1,3.95,0v3.95Zm0-15.71a2,2,0,0,1-3.95,0v-4a2,2,0,0,1,3.95,0v4Zm0-15.81a2,2,0,0,1-3.95,0v-4a2,2,0,0,1,3.95,0v4Zm0-15.81a2,2,0,0,1-3.95,0v-4a2,2,0,1,1,3.95,0v4Zm0-15.82a2,2,0,1,1-3.95,0v-3.95a2,2,0,0,1,3.95,0v3.95Zm0-15.81a2,2,0,1,1-3.95,0v-3.95a2,2,0,0,1,3.95,0v3.95Z"/><path class="cls-7" d="M65.61,147.16a2,2,0,0,1,0-4h4a2,2,0,0,1,0,4Zm31.62,0a2,2,0,0,1,0-4h4a2,2,0,0,1,0,4Zm-15.81,0a2,2,0,0,1,0-4h4a2,2,0,0,1,0,4Z"/><path class="cls-7" d="M32.79,186.65a2,2,0,1,1-3.95,0v-4a2,2,0,1,1,3.95,0v4Zm0,126.39a2,2,0,1,1-3.95,0v-4a2,2,0,1,1,3.95,0v4Zm0-15.81a2,2,0,1,1-3.95,0v-4a2,2,0,1,1,3.95,0v4Zm0-15.81a2,2,0,1,1-3.95,0v-3.95a2,2,0,1,1,3.95,0v3.95Zm0-15.72a2,2,0,1,1-3.95,0v-3.95a2,2,0,1,1,3.95,0v3.95Zm0-15.81a2,2,0,1,1-3.95,0v-3.95a2,2,0,0,1,3.95,0v3.95Zm0-15.81a2,2,0,1,1-3.95,0v-4a2,2,0,0,1,3.95,0v4Zm0-15.81a2,2,0,1,1-3.95,0v-4a2,2,0,1,1,3.95,0v4Zm0-15.81a2,2,0,1,1-3.95,0v-4a2,2,0,1,1,3.95,0v4Z"/><path class="cls-7" d="M32.79,26.82a2,2,0,1,1-3.95,0V22.87a2,2,0,1,1,3.95,0v3.95Zm0,79.05a2,2,0,1,1-3.95,0v-4a2,2,0,1,1,3.95,0v4Zm0-15.81a2,2,0,1,1-3.95,0v-4a2,2,0,0,1,3.95,0v4Zm0-15.81a2,2,0,1,1-3.95,0v-4a2,2,0,0,1,3.95,0v4Zm0-15.81a2,2,0,1,1-3.95,0V54.49a2,2,0,1,1,3.95,0v3.95Zm0-15.81a2,2,0,1,1-3.95,0v-4a2,2,0,1,1,3.95,0v4Z"/><polygon class="cls-8" points="21.43 0 30.8 9.37 40.16 0 21.43 0 21.43 0"/><path class="cls-9" d="M5.08,962.34a24.95,24.95,0,1,1,25,24.95,24.95,24.95,0,0,1-25-24.95Z"/><path class="cls-2" d="M0,962.34a30,30,0,1,1,30,30,30,30,0,0,1-30-30Zm3,0A27.07,27.07,0,1,0,30,935.29,27.07,27.07,0,0,0,3,962.34Z"/><path class="cls-10" d="M5.08,758.05a24.95,24.95,0,1,1,25,25,25,25,0,0,1-25-25Z"/><path class="cls-3" d="M0,758.05a30,30,0,1,1,30,30,30,30,0,0,1-30-30Zm3,0A27.07,27.07,0,1,0,30,731,27.07,27.07,0,0,0,3,758.05Z"/><path class="cls-11" d="M5.08,553.76a24.95,24.95,0,1,1,25,25,25,25,0,0,1-25-25Z"/><path class="cls-4" d="M0,553.76a30,30,0,1,1,30,30,30,30,0,0,1-30-30Zm3,0A27.07,27.07,0,1,0,30,526.7,27.06,27.06,0,0,0,3,553.76Z"/><path class="cls-12" d="M5.08,349.47a24.95,24.95,0,1,1,25,24.95,24.95,24.95,0,0,1-25-24.95Z"/><path class="cls-5" d="M0,349.47a30,30,0,1,1,30,30,30,30,0,0,1-30-30Zm3,0A27.07,27.07,0,1,0,30,322.41,27.06,27.06,0,0,0,3,349.47Z"/><path class="cls-13" d="M5.08,145.18a24.95,24.95,0,1,1,25,24.95,24.95,24.95,0,0,1-25-24.95Z"/><path class="cls-6" d="M0,145.18a30,30,0,1,1,30,30,30,30,0,0,1-30-30Zm3,0A27.07,27.07,0,1,0,30,118.12,27.06,27.06,0,0,0,3,145.18Z"/><path class="cls-13" d="M316.44,962.34a5.15,5.15,0,1,0,5.15-5.14,5.15,5.15,0,0,0-5.15,5.14Z"/><path class="cls-5" d="M316.44,758.05a5.15,5.15,0,1,0,5.15-5.14,5.15,5.15,0,0,0-5.15,5.14Z"/><path class="cls-11" d="M316.44,553.76a5.15,5.15,0,1,0,5.15-5.14,5.15,5.15,0,0,0-5.15,5.14Z"/><path class="cls-3" d="M316.44,349.47a5.15,5.15,0,1,0,5.15-5.14,5.16,5.16,0,0,0-5.15,5.14Z"/><path class="cls-2" d="M316.44,145.18a5.15,5.15,0,1,0,5.15-5.15,5.16,5.16,0,0,0-5.15,5.15Z"/><path class="cls-14" d="M37.15,967.87v4H23.57v-4h4.75V957.73a3.75,3.75,0,0,1-1,.82,11.17,11.17,0,0,1-1.42.78,9.85,9.85,0,0,1-1.59.61,5.55,5.55,0,0,1-1.45.23V956a3.74,3.74,0,0,0,1.47-.39,11.84,11.84,0,0,0,1.71-.92,16.18,16.18,0,0,0,1.45-1,3.71,3.71,0,0,0,.79-.82H32.9v15.06Z"/><path class="cls-14" d="M22,767.78a15,15,0,0,1,.23-2.73,7.44,7.44,0,0,1,.82-2.26,7.59,7.59,0,0,1,1.61-1.94,14.37,14.37,0,0,1,2.59-1.77q1.38-.75,2.43-1.29c.7-.37,1.29-.71,1.76-1a4.46,4.46,0,0,0,1.07-1,1.82,1.82,0,0,0,.37-1.12A2.22,2.22,0,0,0,32,753a3.33,3.33,0,0,0-2.31-.72,4.62,4.62,0,0,0-1.47.22,5.48,5.48,0,0,0-1.25.58,7.38,7.38,0,0,0-1.07.82,8.8,8.8,0,0,0-.89,1l-2.88-3.31a7.57,7.57,0,0,1,1.24-1,11.79,11.79,0,0,1,1.89-1,13.9,13.9,0,0,1,2.41-.8,12.14,12.14,0,0,1,2.83-.32,10.15,10.15,0,0,1,3,.42,6.71,6.71,0,0,1,2.26,1.17,5.17,5.17,0,0,1,1.41,1.81,5.46,5.46,0,0,1,.48,2.29,4.78,4.78,0,0,1-.43,2.08,6,6,0,0,1-1.11,1.6,8,8,0,0,1-1.45,1.22,17.22,17.22,0,0,1-1.53.92l-1.37.77c-.51.29-1,.61-1.52,1a14.14,14.14,0,0,0-1.39,1.07,5,5,0,0,0-1,1.09H38.09v4Z"/><path class="cls-14" d="M33.61,553.06a5.38,5.38,0,0,1,3.36,2,6.19,6.19,0,0,1,1.29,4,6.43,6.43,0,0,1-.62,2.84A6.07,6.07,0,0,1,35.9,564a8.14,8.14,0,0,1-2.73,1.37,12.22,12.22,0,0,1-3.61.49,11.65,11.65,0,0,1-4.5-.82,8.39,8.39,0,0,1-3.27-2.4l2.55-3.17a6.13,6.13,0,0,0,2.07,1.7,6.72,6.72,0,0,0,3,.61,5.13,5.13,0,0,0,3.12-.81,2.89,2.89,0,0,0,1.07-2.47,3.16,3.16,0,0,0-1.24-2.68,6.17,6.17,0,0,0-3.75-.94h-.94v-3.35h1a5,5,0,0,0,3.21-.92,2.89,2.89,0,0,0,1.14-2.36,2.34,2.34,0,0,0-.94-2,4.14,4.14,0,0,0-2.44-.67,5.4,5.4,0,0,0-2.76.71,5.52,5.52,0,0,0-2,2l-2.81-3.14a5.18,5.18,0,0,1,1.34-1.39,8.61,8.61,0,0,1,1.89-1.07,11.8,11.8,0,0,1,2.29-.71,13.26,13.26,0,0,1,2.54-.25,10.43,10.43,0,0,1,3.11.44,7.89,7.89,0,0,1,2.43,1.2,5.13,5.13,0,0,1,2.12,4.29,6.29,6.29,0,0,1-.29,1.9,5.63,5.63,0,0,1-.88,1.64,5.31,5.31,0,0,1-1.35,1.24,4.58,4.58,0,0,1-1.72.67Z"/><path class="cls-14" d="M31.2,362.58v-5H21.42v-4l11.22-14.39h3v14.36h2.94v4H35.68v5Zm-5.29-9H31.7V346l-5.79,7.56Z"/><path class="cls-14" d="M30.49,141.57a8.6,8.6,0,0,1,3.12.55,7.35,7.35,0,0,1,2.47,1.55,7.23,7.23,0,0,1,1.63,2.41,8.64,8.64,0,0,1-.07,6.4A7.55,7.55,0,0,1,35.82,155,8.39,8.39,0,0,1,33,156.64a10.09,10.09,0,0,1-3.48.59,9.68,9.68,0,0,1-4.67-1.11,7.58,7.58,0,0,1-3.13-3l2.58-2.67a7,7,0,0,0,2.34,2.07,6,6,0,0,0,2.91.77,4.13,4.13,0,0,0,3-1.09,3.89,3.89,0,0,0-2.69-6.77,4.27,4.27,0,0,0-2.06.5,4,4,0,0,0-1.52,1.37H22.36c0-.07.05-.32.13-.75s.21-1,.34-1.68l.44-2.27c.15-.84.32-1.69.5-2.56.4-2.05.84-4.35,1.34-6.9H36.82v4.09H28.35l-1,5.32a2.9,2.9,0,0,1,1.19-.71,6.23,6.23,0,0,1,1.92-.26Z"/><path class="cls-13" d="M109.29,962.34a90.24,90.24,0,1,1,90.23,90.24,90.24,90.24,0,0,1-90.23-90.24Zm3,0a5.15,5.15,0,1,0,5.14-5.14,5.14,5.14,0,0,0-5.14,5.14Zm12.85,0a74.43,74.43,0,1,0,74.43-74.42,74.42,74.42,0,0,0-74.43,74.42Z"/><path class="cls-5" d="M109.29,758.05a90.24,90.24,0,1,1,90.24,90.24,90.24,90.24,0,0,1-90.24-90.24Zm3,0a5.15,5.15,0,1,0,5.14-5.14,5.14,5.14,0,0,0-5.14,5.14Zm12.85,0a74.43,74.43,0,1,0,74.43-74.42,74.43,74.43,0,0,0-74.43,74.42Z"/><path class="cls-4" d="M109.29,553.76A90.24,90.24,0,1,1,199.53,644a90.24,90.24,0,0,1-90.24-90.24Zm3,0a5.15,5.15,0,1,0,5.14-5.14,5.14,5.14,0,0,0-5.14,5.14Zm12.85,0a74.43,74.43,0,1,0,74.43-74.43,74.43,74.43,0,0,0-74.43,74.43Z"/><path class="cls-3" d="M109.29,349.47a90.24,90.24,0,1,1,90.24,90.24,90.24,90.24,0,0,1-90.24-90.24Zm3,0a5.15,5.15,0,1,0,5.14-5.14,5.15,5.15,0,0,0-5.14,5.14Zm12.85,0A74.43,74.43,0,1,0,199.53,275a74.43,74.43,0,0,0-74.43,74.43Z"/><path class="cls-2" d="M109.29,145.18a90.24,90.24,0,1,1,90.24,90.24,90.24,90.24,0,0,1-90.24-90.24Zm3,0a5.15,5.15,0,1,0,5.14-5.15,5.15,5.15,0,0,0-5.14,5.15Zm12.85,0a74.43,74.43,0,1,0,74.43-74.43,74.43,74.43,0,0,0-74.43,74.43Z"/><path class="cls-7" d="M32.79,1003a2,2,0,1,1-3.95,0v-3.95a2,2,0,1,1,3.95,0V1003Zm0,79a2,2,0,1,1-3.95,0v-3.95a2,2,0,0,1,3.95,0v3.95Zm0-15.81a2,2,0,1,1-3.95,0v-4a2,2,0,0,1,3.95,0v4Zm0-15.81a2,2,0,1,1-3.95,0v-4a2,2,0,1,1,3.95,0v4Zm0-15.81a2,2,0,1,1-3.95,0v-4a2,2,0,0,1,3.95,0v4Zm0-15.81a2,2,0,1,1-3.95,0v-4a2,2,0,1,1,3.95,0v4Z"/><path class="cls-7" d="M65.61,964.32a2,2,0,0,1,0-4h4a2,2,0,0,1,0,4Zm31.62,0a2,2,0,0,1,0-4h4a2,2,0,0,1,0,4Zm-15.81,0a2,2,0,0,1,0-4h4a2,2,0,0,1,0,4Z"/><polygon class="cls-8" points="21.43 1094.63 30.8 1104 40.16 1094.63 21.43 1094.63 21.43 1094.63"/><path class="cls-7" d="M32.79,799.54a2,2,0,1,1-3.95,0v-3.95a2,2,0,1,1,3.95,0v3.95Zm0,126.39a2,2,0,1,1-3.95,0V922a2,2,0,1,1,3.95,0v3.95Zm0-15.81a2,2,0,1,1-3.95,0v-4a2,2,0,1,1,3.95,0v4Zm0-15.81a2,2,0,1,1-3.95,0v-3.95a2,2,0,1,1,3.95,0v3.95Zm0-15.72a2,2,0,1,1-3.95,0v-4a2,2,0,0,1,3.95,0v4Zm0-15.81a2,2,0,1,1-3.95,0v-3.95a2,2,0,0,1,3.95,0v3.95Zm0-15.81a2,2,0,1,1-3.95,0v-4a2,2,0,0,1,3.95,0v4Zm0-15.81a2,2,0,1,1-3.95,0v-3.95a2,2,0,1,1,3.95,0v3.95Zm0-15.81a2,2,0,1,1-3.95,0v-4a2,2,0,1,1,3.95,0v4Z"/><path class="cls-7" d="M65.61,760a2,2,0,0,1,0-3.95h4a2,2,0,0,1,0,3.95Zm31.62,0a2,2,0,0,1,0-3.95h4a2,2,0,0,1,0,3.95Zm-15.81,0a2,2,0,0,1,0-3.95h4a2,2,0,0,1,0,3.95Z"/><path class="cls-7" d="M65.61,555.74a2,2,0,0,1,0-4h4a2,2,0,0,1,0,4Zm31.62,0a2,2,0,0,1,0-4h4a2,2,0,0,1,0,4Zm-15.81,0a2,2,0,0,1,0-4h4a2,2,0,0,1,0,4Z"/><path class="cls-7" d="M32.79,595.18a2,2,0,1,1-3.95,0v-3.95a2,2,0,1,1,3.95,0v3.95Zm0,126.39a2,2,0,0,1-3.95,0v-4a2,2,0,1,1,3.95,0v4Zm0-15.81a2,2,0,0,1-3.95,0v-4a2,2,0,0,1,3.95,0v4Zm0-15.81a2,2,0,0,1-3.95,0v-4a2,2,0,1,1,3.95,0v4Zm0-15.72a2,2,0,1,1-3.95,0v-4a2,2,0,1,1,3.95,0v4Zm0-15.81a2,2,0,1,1-3.95,0v-3.95a2,2,0,1,1,3.95,0v3.95Zm0-15.81a2,2,0,1,1-3.95,0v-4a2,2,0,1,1,3.95,0v4Zm0-15.81a2,2,0,1,1-3.95,0v-3.95a2,2,0,1,1,3.95,0v3.95Zm0-15.81a2,2,0,1,1-3.95,0v-4a2,2,0,1,1,3.95,0v4Z"/><path class="cls-7" d="M65.61,351.45a2,2,0,0,1,0-3.95h4a2,2,0,0,1,0,3.95Zm31.62,0a2,2,0,0,1,0-3.95h4a2,2,0,0,1,0,3.95Zm-15.81,0a2,2,0,0,1,0-3.95h4a2,2,0,0,1,0,3.95Z"/><path class="cls-7" d="M32.79,390.69a2,2,0,1,1-3.95,0v-3.95a2,2,0,0,1,3.95,0v3.95Zm0,126.39a2,2,0,1,1-3.95,0v-4a2,2,0,1,1,3.95,0v4Zm0-15.81a2,2,0,1,1-3.95,0v-3.95a2,2,0,1,1,3.95,0v3.95Zm0-15.81a2,2,0,1,1-3.95,0v-3.95a2,2,0,1,1,3.95,0v3.95Zm0-15.71a2,2,0,0,1-3.95,0v-4a2,2,0,0,1,3.95,0v4Zm0-15.81a2,2,0,0,1-3.95,0v-4a2,2,0,0,1,3.95,0v4Zm0-15.81a2,2,0,0,1-3.95,0v-4a2,2,0,1,1,3.95,0v4Zm0-15.82a2,2,0,1,1-3.95,0v-3.95a2,2,0,0,1,3.95,0v3.95Zm0-15.81a2,2,0,1,1-3.95,0v-3.95a2,2,0,0,1,3.95,0v3.95Z"/><path class="cls-7" d="M65.61,147.16a2,2,0,0,1,0-4h4a2,2,0,0,1,0,4Zm31.62,0a2,2,0,0,1,0-4h4a2,2,0,0,1,0,4Zm-15.81,0a2,2,0,0,1,0-4h4a2,2,0,0,1,0,4Z"/><path class="cls-7" d="M32.79,186.65a2,2,0,1,1-3.95,0v-4a2,2,0,1,1,3.95,0v4Zm0,126.39a2,2,0,1,1-3.95,0v-4a2,2,0,1,1,3.95,0v4Zm0-15.81a2,2,0,1,1-3.95,0v-4a2,2,0,1,1,3.95,0v4Zm0-15.81a2,2,0,1,1-3.95,0v-3.95a2,2,0,1,1,3.95,0v3.95Zm0-15.72a2,2,0,1,1-3.95,0v-3.95a2,2,0,1,1,3.95,0v3.95Zm0-15.81a2,2,0,1,1-3.95,0v-3.95a2,2,0,0,1,3.95,0v3.95Zm0-15.81a2,2,0,1,1-3.95,0v-4a2,2,0,0,1,3.95,0v4Zm0-15.81a2,2,0,1,1-3.95,0v-4a2,2,0,1,1,3.95,0v4Zm0-15.81a2,2,0,1,1-3.95,0v-4a2,2,0,1,1,3.95,0v4Z"/><path class="cls-7" d="M32.79,26.82a2,2,0,1,1-3.95,0V22.87a2,2,0,1,1,3.95,0v3.95Zm0,79.05a2,2,0,1,1-3.95,0v-4a2,2,0,1,1,3.95,0v4Zm0-15.81a2,2,0,1,1-3.95,0v-4a2,2,0,0,1,3.95,0v4Zm0-15.81a2,2,0,1,1-3.95,0v-4a2,2,0,0,1,3.95,0v4Zm0-15.81a2,2,0,1,1-3.95,0V54.49a2,2,0,1,1,3.95,0v3.95Zm0-15.81a2,2,0,1,1-3.95,0v-4a2,2,0,1,1,3.95,0v4Z"/><polygon class="cls-8" points="21.43 0 30.8 9.37 40.16 0 21.43 0 21.43 0"/><path class="cls-13" d="M5.08,962.34a24.95,24.95,0,1,1,25,24.95,24.95,24.95,0,0,1-25-24.95Z"/><path class="cls-13" d="M0,962.34a30,30,0,1,1,30,30,30,30,0,0,1-30-30Zm3,0A27.07,27.07,0,1,0,30,935.29,27.07,27.07,0,0,0,3,962.34Z"/><path class="cls-5" d="M5.08,758.05a24.95,24.95,0,1,1,25,25,25,25,0,0,1-25-25Z"/><path class="cls-5" d="M0,758.05a30,30,0,1,1,30,30,30,30,0,0,1-30-30Zm3,0A27.07,27.07,0,1,0,30,731,27.07,27.07,0,0,0,3,758.05Z"/><path class="cls-11" d="M5.08,553.76a24.95,24.95,0,1,1,25,25,25,25,0,0,1-25-25Z"/><path class="cls-4" d="M0,553.76a30,30,0,1,1,30,30,30,30,0,0,1-30-30Zm3,0A27.07,27.07,0,1,0,30,526.7,27.06,27.06,0,0,0,3,553.76Z"/><path class="cls-3" d="M5.08,349.47a24.95,24.95,0,1,1,25,24.95,24.95,24.95,0,0,1-25-24.95Z"/><path class="cls-3" d="M0,349.47a30,30,0,1,1,30,30,30,30,0,0,1-30-30Zm3,0A27.07,27.07,0,1,0,30,322.41,27.06,27.06,0,0,0,3,349.47Z"/><path class="cls-2" d="M5.08,145.18a24.95,24.95,0,1,1,25,24.95,24.95,24.95,0,0,1-25-24.95Z"/><path class="cls-2" d="M0,145.18a30,30,0,1,1,30,30,30,30,0,0,1-30-30Zm3,0A27.07,27.07,0,1,0,30,118.12,27.06,27.06,0,0,0,3,145.18Z"/><path class="cls-14" d="M37.15,148.19v4.05H23.57v-4.05h4.75V138.05a3.57,3.57,0,0,1-1,.82,12.58,12.58,0,0,1-1.42.79,9.81,9.81,0,0,1-1.59.6,5.21,5.21,0,0,1-1.45.24v-4.19a3.89,3.89,0,0,0,1.47-.38,14.18,14.18,0,0,0,1.71-.92A14.4,14.4,0,0,0,27.53,134a3.51,3.51,0,0,0,.79-.82H32.9v15.06Z"/><path class="cls-14" d="M22,358.66a15,15,0,0,1,.23-2.72,7.44,7.44,0,0,1,.82-2.26,7.59,7.59,0,0,1,1.61-1.94A14.38,14.38,0,0,1,27.21,350l2.43-1.29a17,17,0,0,0,1.76-1,4.44,4.44,0,0,0,1.07-.95,1.84,1.84,0,0,0,.37-1.12,2.22,2.22,0,0,0-.81-1.72,3.33,3.33,0,0,0-2.31-.72,4.93,4.93,0,0,0-1.47.21,5.51,5.51,0,0,0-1.25.59,6.73,6.73,0,0,0-1.07.82,8.8,8.8,0,0,0-.89.95l-2.88-3.31a7.57,7.57,0,0,1,1.24-1,11.79,11.79,0,0,1,1.89-1,13.9,13.9,0,0,1,2.41-.8,12.14,12.14,0,0,1,2.83-.32,10.15,10.15,0,0,1,3,.42,6.71,6.71,0,0,1,2.26,1.17,5.08,5.08,0,0,1,1.41,1.81,5.43,5.43,0,0,1,.48,2.29,4.7,4.7,0,0,1-.43,2.07,6.07,6.07,0,0,1-1.11,1.61,8,8,0,0,1-1.45,1.22c-.53.35-1,.65-1.53.92l-1.37.77c-.51.29-1,.61-1.52,1a14.14,14.14,0,0,0-1.39,1.07,4.94,4.94,0,0,0-1,1.08H38.09v4.05Z"/><path class="cls-14" d="M33.61,553.06a5.38,5.38,0,0,1,3.36,2,6.19,6.19,0,0,1,1.29,4,6.43,6.43,0,0,1-.62,2.84A6.07,6.07,0,0,1,35.9,564a8.14,8.14,0,0,1-2.73,1.37,12.22,12.22,0,0,1-3.61.49,11.65,11.65,0,0,1-4.5-.82,8.39,8.39,0,0,1-3.27-2.4l2.55-3.17a6.13,6.13,0,0,0,2.07,1.7,6.72,6.72,0,0,0,3,.61,5.13,5.13,0,0,0,3.12-.81,2.89,2.89,0,0,0,1.07-2.47,3.16,3.16,0,0,0-1.24-2.68,6.17,6.17,0,0,0-3.75-.94h-.94v-3.35h1a5,5,0,0,0,3.21-.92,2.89,2.89,0,0,0,1.14-2.36,2.34,2.34,0,0,0-.94-2,4.14,4.14,0,0,0-2.44-.67,5.4,5.4,0,0,0-2.76.71,5.52,5.52,0,0,0-2,2l-2.81-3.14a5.18,5.18,0,0,1,1.34-1.39,8.61,8.61,0,0,1,1.89-1.07,11.8,11.8,0,0,1,2.29-.71,13.26,13.26,0,0,1,2.54-.25,10.43,10.43,0,0,1,3.11.44,7.89,7.89,0,0,1,2.43,1.2,5.13,5.13,0,0,1,2.12,4.29,6.29,6.29,0,0,1-.29,1.9,5.63,5.63,0,0,1-.88,1.64,5.31,5.31,0,0,1-1.35,1.24,4.58,4.58,0,0,1-1.72.67Z"/><path class="cls-14" d="M31.2,767.78v-5H21.42v-4l11.22-14.39h3v14.35h2.94v4H35.68v5Zm-5.29-9H31.7v-7.56l-5.79,7.56Z"/><path class="cls-14" d="M30.49,956.26a8.6,8.6,0,0,1,3.12.55,7.06,7.06,0,0,1,4.1,4,8.64,8.64,0,0,1-.07,6.4,7.55,7.55,0,0,1-1.82,2.52A8.56,8.56,0,0,1,33,971.33a10.09,10.09,0,0,1-3.48.59,9.68,9.68,0,0,1-4.67-1.11,7.58,7.58,0,0,1-3.13-3l2.58-2.68a6.87,6.87,0,0,0,2.34,2.08,6,6,0,0,0,2.91.77,4.13,4.13,0,0,0,3-1.09A3.78,3.78,0,0,0,33.71,964a3.7,3.7,0,0,0-3.85-3.89,4.28,4.28,0,0,0-2.06.51A4,4,0,0,0,26.28,962H22.36c0-.07.05-.32.13-.76s.21-1,.34-1.67l.44-2.27c.15-.84.32-1.69.5-2.56.4-2.06.84-4.36,1.34-6.9H36.82v4.09H28.35l-1,5.32a2.9,2.9,0,0,1,1.19-.71,5.94,5.94,0,0,1,1.92-.26Z"/><path class="cls-15" d="M212,170.08a.65.65,0,0,0-.66.65v20.71a.66.66,0,0,0,1.32,0V170.73A.66.66,0,0,0,212,170.08Z"/><path class="cls-15" d="M172.12,170.08a.65.65,0,0,0-.66.65v20.71a.66.66,0,0,0,1.32,0V170.73A.66.66,0,0,0,172.12,170.08Z"/><path class="cls-15" d="M196.62,176.47h-9.34a.66.66,0,0,0-.66.66v14.3a.66.66,0,0,0,1.32,0V177.79h8v13.64a.66.66,0,0,0,1.32,0v-14.3A.67.67,0,0,0,196.62,176.47Z"/><path class="cls-15" d="M216.09,163l-3.75-11.51a.65.65,0,0,0-.62-.46H172.15a.67.67,0,0,0-.63.46l-3.78,11.63v0s0,.05,0,.07,0,0,0,.07v.08h0a5.35,5.35,0,0,0,5.37,5.25,5.41,5.41,0,0,0,4.72-2.76,5.41,5.41,0,0,0,9.43,0,5.41,5.41,0,0,0,9.43,0,5.4,5.4,0,0,0,9.42,0,5.41,5.41,0,0,0,4.72,2.76,5.35,5.35,0,0,0,5.38-5.31A.73.73,0,0,0,216.09,163Zm-43,4.31a4,4,0,0,1-4.05-3.9l3.6-11.06h6.48l-2,10.86s0,0,0,.05v.06A4,4,0,0,1,173.08,167.32Zm9.43,0a4,4,0,0,1-4-3.94l2-11h6.78l-.66,10.93v0A4,4,0,0,1,182.51,167.32Zm9.43,0a4,4,0,0,1-4.05-4l.66-11h6.78l.66,11A4,4,0,0,1,191.94,167.32Zm9.43,0a4,4,0,0,1-4.05-4v0l-.66-10.93h6.77l2,11A4,4,0,0,1,201.37,167.32Zm9.43,0a4,4,0,0,1-4.05-4s0,0,0-.06,0,0,0-.05l-1.95-10.86h6.46l3.61,11.11A4,4,0,0,1,210.8,167.32Z"/><path class="cls-15" d="M237.73,137a24.76,24.76,0,0,0-11.13-2.28,24.19,24.19,0,0,0-11,2.41c-2.16,1.13-4.52,3.14-4.36,5.82.21,3.6,4.17,5.59,7.27,6.58a3.3,3.3,0,0,1-1.81,1.8c-.52.22-.29,1,.14,1.11a4.92,4.92,0,0,0,3.94-.31,4.55,4.55,0,0,0,1.36-1.11c.19-.23.33-.48.5-.72h0a2,2,0,0,0,.34,0c.44,0,.87.12,1.3.18a17.83,17.83,0,0,0,2.07.11,28.61,28.61,0,0,0,3.34-.14c3.38-.34,7.2-1,10-3.06a5.83,5.83,0,0,0,2.61-4.67C242.31,140,240,138.07,237.73,137Zm-15.09,13.3c-.08.06-.11,0,0,0Zm12.09-2a27.14,27.14,0,0,1-10.9.86,4.27,4.27,0,0,0-1.51-.06c-.61.13-.74.72-1.12,1.15a3.55,3.55,0,0,1-2.55,1.19,4.49,4.49,0,0,0,1.23-2.18.62.62,0,0,0-.42-.74,15.19,15.19,0,0,1-4.69-2.17,5.36,5.36,0,0,1-2.23-2.94c-.54-2.27,1.52-4.05,3.27-5.05a21.4,21.4,0,0,1,9.57-2.44,25.68,25.68,0,0,1,10.5,1.54c2.18.85,5.22,2.53,5.26,5.23C241.1,146,237.45,147.53,234.73,148.29Z"/><path class="cls-15" d="M230.84,137.88l-5.54,6.59-2.12-2.38a.75.75,0,1,0-1.13,1l2.7,3a.77.77,0,0,0,.57.25h0a.76.76,0,0,0,.57-.27l6.1-7.26a.76.76,0,0,0-1.16-1Z"/><path class="cls-16" d="M159.35,110.78a2,2,0,0,0-.92-.66,3.28,3.28,0,0,0-1.1-.21,3.37,3.37,0,0,0-.62.07,2.48,2.48,0,0,0-.61.23,1.47,1.47,0,0,0-.47.42,1,1,0,0,0-.17.62,1.06,1.06,0,0,0,.42.91,4.53,4.53,0,0,0,1.08.53c.44.15.91.29,1.41.44a6.07,6.07,0,0,1,1.4.63,3.08,3.08,0,0,1,1.5,2.9,4.33,4.33,0,0,1-.39,1.9,3.7,3.7,0,0,1-1.06,1.34,4.38,4.38,0,0,1-1.55.79,6.71,6.71,0,0,1-1.87.26,6.5,6.5,0,0,1-2.28-.39,5.52,5.52,0,0,1-2-1.25l2-2.24a3.06,3.06,0,0,0,1.08.91,3.11,3.11,0,0,0,1.35.32,3.25,3.25,0,0,0,.69-.08,2.3,2.3,0,0,0,.62-.25,1.3,1.3,0,0,0,.45-.42,1.12,1.12,0,0,0,.17-.61,1.13,1.13,0,0,0-.44-.93,4,4,0,0,0-1.09-.58c-.45-.16-.92-.32-1.43-.48a6.37,6.37,0,0,1-1.43-.64,3.51,3.51,0,0,1-1.1-1.07,3.13,3.13,0,0,1-.44-1.75,4,4,0,0,1,.41-1.84,3.83,3.83,0,0,1,1.07-1.32,4.52,4.52,0,0,1,1.54-.8,6,6,0,0,1,1.8-.27,7.1,7.1,0,0,1,2.07.31,4.8,4.8,0,0,1,1.81,1.05Z"/><path class="cls-16" d="M167.22,110.13h-3.61v-2.54h10v2.54H170v10.49h-2.78Z"/><path class="cls-16" d="M176.55,107.59h8.59v2.65h-5.8v2.43h5.47v2.65h-5.47V118h6.12v2.65h-8.91Z"/><path class="cls-16" d="M189.12,107.59h4.69a8.63,8.63,0,0,1,1.86.19,4.07,4.07,0,0,1,1.52.63,3.19,3.19,0,0,1,1,1.22,4.32,4.32,0,0,1,.38,1.92,4.49,4.49,0,0,1-.36,1.91,2.94,2.94,0,0,1-1,1.23,3.85,3.85,0,0,1-1.48.66,8.34,8.34,0,0,1-1.85.19h-2v5.08h-2.78Zm2.78,5.52h1.86a3.38,3.38,0,0,0,.72-.07,1.8,1.8,0,0,0,.62-.25,1.3,1.3,0,0,0,.45-.48,1.58,1.58,0,0,0,.17-.76,1.31,1.31,0,0,0-.22-.8,1.44,1.44,0,0,0-.57-.47,2.43,2.43,0,0,0-.78-.21,8,8,0,0,0-.82,0H191.9Z"/><path class="cls-16" d="M207.82,114.11a7.56,7.56,0,0,1,.51-2.84,6.3,6.3,0,0,1,1.42-2.16,6.13,6.13,0,0,1,2.16-1.37,8,8,0,0,1,5.46,0,6.22,6.22,0,0,1,2.16,1.37,6.3,6.3,0,0,1,1.42,2.16,8.13,8.13,0,0,1,0,5.67,6.11,6.11,0,0,1-1.42,2.16,6.22,6.22,0,0,1-2.16,1.37,8,8,0,0,1-5.46,0,6.11,6.11,0,0,1-3.58-3.53A7.54,7.54,0,0,1,207.82,114.11Zm2.89,0a4.78,4.78,0,0,0,.28,1.68,3.81,3.81,0,0,0,.79,1.32A3.64,3.64,0,0,0,213,118a4,4,0,0,0,1.62.31,4,4,0,0,0,1.61-.31,3.46,3.46,0,0,0,1.24-.88,3.83,3.83,0,0,0,.8-1.32,5.18,5.18,0,0,0,0-3.36,3.87,3.87,0,0,0-.8-1.33,3.46,3.46,0,0,0-1.24-.88,4,4,0,0,0-1.61-.31,4,4,0,0,0-1.62.31,3.64,3.64,0,0,0-1.24.88,3.85,3.85,0,0,0-.79,1.33A4.82,4.82,0,0,0,210.71,114.11Z"/><path class="cls-16" d="M224.78,107.59h3.78l5.37,9h0v-9h2.78v13h-3.64l-5.51-9.27h0v9.27h-2.78Z"/><path class="cls-16" d="M240.86,107.59h8.58v2.65h-5.8v2.43h5.48v2.65h-5.48V118h6.12v2.65h-8.9Z"/><path class="cls-15" d="M212,170.08a.65.65,0,0,0-.66.65v20.71a.66.66,0,0,0,1.32,0V170.73A.66.66,0,0,0,212,170.08Z"/><path class="cls-15" d="M172.12,170.08a.65.65,0,0,0-.66.65v20.71a.66.66,0,0,0,1.32,0V170.73A.66.66,0,0,0,172.12,170.08Z"/><path class="cls-15" d="M196.62,176.47h-9.34a.66.66,0,0,0-.66.66v14.3a.66.66,0,0,0,1.32,0V177.79h8v13.64a.66.66,0,0,0,1.32,0v-14.3A.67.67,0,0,0,196.62,176.47Z"/><path class="cls-15" d="M216.09,163l-3.75-11.51a.65.65,0,0,0-.62-.46H172.15a.67.67,0,0,0-.63.46l-3.78,11.63v0s0,.05,0,.07,0,0,0,.07v.08h0a5.35,5.35,0,0,0,5.37,5.25,5.41,5.41,0,0,0,4.72-2.76,5.41,5.41,0,0,0,9.43,0,5.41,5.41,0,0,0,9.43,0,5.4,5.4,0,0,0,9.42,0,5.41,5.41,0,0,0,4.72,2.76,5.35,5.35,0,0,0,5.38-5.31A.73.73,0,0,0,216.09,163Zm-43,4.31a4,4,0,0,1-4.05-3.9l3.6-11.06h6.48l-2,10.86s0,0,0,.05v.06A4,4,0,0,1,173.08,167.32Zm9.43,0a4,4,0,0,1-4-3.94l2-11h6.78l-.66,10.93v0A4,4,0,0,1,182.51,167.32Zm9.43,0a4,4,0,0,1-4.05-4l.66-11h6.78l.66,11A4,4,0,0,1,191.94,167.32Zm9.43,0a4,4,0,0,1-4.05-4v0l-.66-10.93h6.77l2,11A4,4,0,0,1,201.37,167.32Zm9.43,0a4,4,0,0,1-4.05-4s0,0,0-.06,0,0,0-.05l-1.95-10.86h6.46l3.61,11.11A4,4,0,0,1,210.8,167.32Z"/><path class="cls-15" d="M237.73,137a24.76,24.76,0,0,0-11.13-2.28,24.19,24.19,0,0,0-11,2.41c-2.16,1.13-4.52,3.14-4.36,5.82.21,3.6,4.17,5.59,7.27,6.58a3.3,3.3,0,0,1-1.81,1.8c-.52.22-.29,1,.14,1.11a4.92,4.92,0,0,0,3.94-.31,4.55,4.55,0,0,0,1.36-1.11c.19-.23.33-.48.5-.72h0a2,2,0,0,0,.34,0c.44,0,.87.12,1.3.18a17.83,17.83,0,0,0,2.07.11,28.61,28.61,0,0,0,3.34-.14c3.38-.34,7.2-1,10-3.06a5.83,5.83,0,0,0,2.61-4.67C242.31,140,240,138.07,237.73,137Zm-15.09,13.3c-.08.06-.11,0,0,0Zm12.09-2a27.14,27.14,0,0,1-10.9.86,4.27,4.27,0,0,0-1.51-.06c-.61.13-.74.72-1.12,1.15a3.55,3.55,0,0,1-2.55,1.19,4.49,4.49,0,0,0,1.23-2.18.62.62,0,0,0-.42-.74,15.19,15.19,0,0,1-4.69-2.17,5.36,5.36,0,0,1-2.23-2.94c-.54-2.27,1.52-4.05,3.27-5.05a21.4,21.4,0,0,1,9.57-2.44,25.68,25.68,0,0,1,10.5,1.54c2.18.85,5.22,2.53,5.26,5.23C241.1,146,237.45,147.53,234.73,148.29Z"/><path class="cls-15" d="M230.84,137.88l-5.54,6.59-2.12-2.38a.75.75,0,1,0-1.13,1l2.7,3a.77.77,0,0,0,.57.25h0a.76.76,0,0,0,.57-.27l6.1-7.26a.76.76,0,0,0-1.16-1Z"/><path class="cls-16" d="M159.35,110.78a2,2,0,0,0-.92-.66,3.28,3.28,0,0,0-1.1-.21,3.37,3.37,0,0,0-.62.07,2.48,2.48,0,0,0-.61.23,1.47,1.47,0,0,0-.47.42,1,1,0,0,0-.17.62,1.06,1.06,0,0,0,.42.91,4.53,4.53,0,0,0,1.08.53c.44.15.91.29,1.41.44a6.07,6.07,0,0,1,1.4.63,3.08,3.08,0,0,1,1.5,2.9,4.33,4.33,0,0,1-.39,1.9,3.7,3.7,0,0,1-1.06,1.34,4.38,4.38,0,0,1-1.55.79,6.71,6.71,0,0,1-1.87.26,6.5,6.5,0,0,1-2.28-.39,5.52,5.52,0,0,1-2-1.25l2-2.24a3.06,3.06,0,0,0,1.08.91,3.11,3.11,0,0,0,1.35.32,3.25,3.25,0,0,0,.69-.08,2.3,2.3,0,0,0,.62-.25,1.3,1.3,0,0,0,.45-.42,1.12,1.12,0,0,0,.17-.61,1.13,1.13,0,0,0-.44-.93,4,4,0,0,0-1.09-.58c-.45-.16-.92-.32-1.43-.48a6.37,6.37,0,0,1-1.43-.64,3.51,3.51,0,0,1-1.1-1.07,3.13,3.13,0,0,1-.44-1.75,4,4,0,0,1,.41-1.84,3.83,3.83,0,0,1,1.07-1.32,4.52,4.52,0,0,1,1.54-.8,6,6,0,0,1,1.8-.27,7.1,7.1,0,0,1,2.07.31,4.8,4.8,0,0,1,1.81,1.05Z"/><path class="cls-16" d="M167.22,110.13h-3.61v-2.54h10v2.54H170v10.49h-2.78Z"/><path class="cls-16" d="M176.55,107.59h8.59v2.65h-5.8v2.43h5.47v2.65h-5.47V118h6.12v2.65h-8.91Z"/><path class="cls-16" d="M189.12,107.59h4.69a8.63,8.63,0,0,1,1.86.19,4.07,4.07,0,0,1,1.52.63,3.19,3.19,0,0,1,1,1.22,4.32,4.32,0,0,1,.38,1.92,4.49,4.49,0,0,1-.36,1.91,2.94,2.94,0,0,1-1,1.23,3.85,3.85,0,0,1-1.48.66,8.34,8.34,0,0,1-1.85.19h-2v5.08h-2.78Zm2.78,5.52h1.86a3.38,3.38,0,0,0,.72-.07,1.8,1.8,0,0,0,.62-.25,1.3,1.3,0,0,0,.45-.48,1.58,1.58,0,0,0,.17-.76,1.31,1.31,0,0,0-.22-.8,1.44,1.44,0,0,0-.57-.47,2.43,2.43,0,0,0-.78-.21,8,8,0,0,0-.82,0H191.9Z"/><path class="cls-16" d="M207.82,114.11a7.56,7.56,0,0,1,.51-2.84,6.3,6.3,0,0,1,1.42-2.16,6.13,6.13,0,0,1,2.16-1.37,8,8,0,0,1,5.46,0,6.22,6.22,0,0,1,2.16,1.37,6.3,6.3,0,0,1,1.42,2.16,8.13,8.13,0,0,1,0,5.67,6.11,6.11,0,0,1-1.42,2.16,6.22,6.22,0,0,1-2.16,1.37,8,8,0,0,1-5.46,0,6.11,6.11,0,0,1-3.58-3.53A7.54,7.54,0,0,1,207.82,114.11Zm2.89,0a4.78,4.78,0,0,0,.28,1.68,3.81,3.81,0,0,0,.79,1.32A3.64,3.64,0,0,0,213,118a4,4,0,0,0,1.62.31,4,4,0,0,0,1.61-.31,3.46,3.46,0,0,0,1.24-.88,3.83,3.83,0,0,0,.8-1.32,5.18,5.18,0,0,0,0-3.36,3.87,3.87,0,0,0-.8-1.33,3.46,3.46,0,0,0-1.24-.88,4,4,0,0,0-1.61-.31,4,4,0,0,0-1.62.31,3.64,3.64,0,0,0-1.24.88,3.85,3.85,0,0,0-.79,1.33A4.82,4.82,0,0,0,210.71,114.11Z"/><path class="cls-16" d="M224.78,107.59h3.78l5.37,9h0v-9h2.78v13h-3.64l-5.51-9.27h0v9.27h-2.78Z"/><path class="cls-16" d="M240.86,107.59h8.58v2.65h-5.8v2.43h5.48v2.65h-5.48V118h6.12v2.65h-8.9Z"/><path class="cls-17" d="M225.15,389.77a9.21,9.21,0,1,0,9.21,9.2A9.22,9.22,0,0,0,225.15,389.77Zm0,17A7.83,7.83,0,1,1,233,399,7.83,7.83,0,0,1,225.15,406.8Z"/><path class="cls-17" d="M229.81,396.43h-2.73l-1-3.1a.7.7,0,0,0-.66-.49h0a.68.68,0,0,0-.66.49l-.94,3.1h-2.74a.69.69,0,0,0-.43,1.24l2.23,1.76-1,3.25a.7.7,0,0,0,.26.78.72.72,0,0,0,.4.12.7.7,0,0,0,.43-.15l2.48-2,2.49,2a.69.69,0,0,0,.82,0,.7.7,0,0,0,.27-.78l-1-3.26,2.23-1.75a.7.7,0,0,0-.43-1.24Zm-3.26,3,0,.1.47,1.44L225.9,400a.73.73,0,0,0-.86,0l-1.14.9.5-1.54a.71.71,0,0,0-.23-.76l-1-.81h1.25a.69.69,0,0,0,.66-.49l.43-1.42.44,1.42a.68.68,0,0,0,.66.49h1.24l-1,.81A.69.69,0,0,0,226.55,399.4Z"/><path class="cls-17" d="M192.16,369.66c1.66,5.87,6.33,9.46,9.89,9.46,4.06,0,8.41-4.2,9.91-9.47a3.69,3.69,0,0,0,2.57-1.46A5.6,5.6,0,0,0,215,363a2.79,2.79,0,0,0-1.88-1.74c.17-1,.37-2.34.5-3.47l0-.4c.29-2.42.49-4.17-.89-6.75a12.11,12.11,0,0,1-.89-2.05.72.72,0,0,0-.16-.67.7.7,0,0,0-1,0c-1.15,1-2,.53-3.43-.36a6.92,6.92,0,0,0-1.45-.79,18.21,18.21,0,0,0-8.19-.39c-4.09.68-6.27,2.55-7.52,6.44a14.56,14.56,0,0,0,0,6.28c.1.66.25,1.5.4,2.33A2.75,2.75,0,0,0,189,363a5.6,5.6,0,0,0,.44,5.23A3.62,3.62,0,0,0,192.16,369.66Zm-1.88-6.24a1.42,1.42,0,0,1,.5-.64c.24,1.2.44,2.15.45,2.23a.69.69,0,0,0,.68.55h.14a.69.69,0,0,0,.54-.82s-.81-3.9-1.11-5.91c-.2-1.37-.58-3.92,0-5.66,1.08-3.36,2.89-4.9,6.43-5.5a17,17,0,0,1,7.5.33,6.75,6.75,0,0,1,1.16.65c1,.68,2.53,1.64,4.16.87a13.55,13.55,0,0,0,.82,1.75c1.18,2.19,1,3.6.73,5.93l0,.4c-.13,1.06-.31,2.3-.5,3.44a.69.69,0,0,0-.6.7.7.7,0,0,0,.38.59c-.22,1.26-.4,2.21-.45,2.36l.66.22-.21-.66.21.66.26.64c.4-.16.41-.17.89-2.94a1.45,1.45,0,0,1,.81.82,4.32,4.32,0,0,1-.25,3.94,2.26,2.26,0,0,1-1.95.92.68.68,0,0,0-.72.53c-1.35,5.51-5.57,8.93-8.7,8.93s-7.47-3.67-8.74-9.14a.69.69,0,0,0-.77-.53.8.8,0,0,0-.4.2,2.25,2.25,0,0,1-1.61-.91A4.32,4.32,0,0,1,190.28,363.42Z"/><path class="cls-17" d="M192.87,360.8a.7.7,0,0,0,.68-.54c.23-1.09.68-2.9,1.13-4.68l.43.27c.28.17.54.33.68.43a.68.68,0,0,0,.81,0s2-1.39,6.86-1.39a8.45,8.45,0,0,1,4,.78,5.41,5.41,0,0,1,2.61,3.22.69.69,0,1,0,1.27-.53,6.85,6.85,0,0,0-3.23-3.91,9.77,9.77,0,0,0-4.62-.94,15.56,15.56,0,0,0-7.24,1.4,4.2,4.2,0,0,0-.38-.24c-.39-.24-.83-.52-1.17-.77a.67.67,0,0,0-.64-.1.68.68,0,0,0-.44.48c-.53,2.08-1.11,4.38-1.4,5.68a.7.7,0,0,0,.53.83Z"/><path class="cls-17" d="M214.42,403.54H180.56v-.72c0-.73,0-1.63,0-2.38v-.84l.37,0H181c1.61,0,5.28-1,6-3.92a35.07,35.07,0,0,0,.48-7.22v-4.93l.15-.06c1.23-.69,2.48-1.25,3.8-1.85,1-.47,2.08-.95,3.12-1.48l6.81,22.18a.69.69,0,0,0,.66.49h0a.7.7,0,0,0,.66-.49l6.77-22c1.08.56,2.16,1,3.21,1.5,2.69,1.18,5.23,2.3,7.4,4.5a8.85,8.85,0,0,1,1.48,2.1.68.68,0,0,0,.84.32h0a.69.69,0,0,0,.38-.95,10.39,10.39,0,0,0-1.72-2.43c-2.36-2.39-5.14-3.62-7.83-4.81-1.27-.56-2.58-1.14-3.85-1.84a.69.69,0,0,0-1,.41l-3.48,11.3-1.06-5.11a.08.08,0,0,0,0-.05l.79-1.84.67.44a.67.67,0,0,0,.38.11.69.69,0,0,0,.63-.4.72.72,0,0,0-.28-.89l-3.67-2.42a.71.71,0,0,0-.73,0L198,382.42a.71.71,0,0,0-.33.86.69.69,0,0,0,1,.35l.64-.37,1,2.17-1.06,5.1L195.67,379a.69.69,0,0,0-1-.4c-1.23.67-2.52,1.26-3.77,1.82s-2.27,1-3.38,1.63v-1.54c0-1.8-1.08-2.75-2.14-2.75s-2.14.93-2.14,2.71c0,.76,0,1.22,0,1.73,0,.29,0,.59,0,1a2.1,2.1,0,0,0-2.19.61l-.14.17a2.11,2.11,0,0,0-1.18-.36,2.28,2.28,0,0,0-2.27,2.33,1.86,1.86,0,0,0-.33,0,2.46,2.46,0,0,0-2.24,2.69c0,.74,0,1.34,0,2s-.05,1.46-.05,2.47c0,3.34,1.66,5.7,4.36,6.43,0,.86,0,3.15,0,4.16h-6.73a.73.73,0,0,0-.72.58.69.69,0,0,0,.68.81h42a.69.69,0,0,0,.68-.69h0A.69.69,0,0,0,214.42,403.54ZM202,381.67l1.5,1-.78,1.81h-1.35l-.88-1.91Zm-1.91,11.6,1.53-7.43h1l1.51,7.34-2,6.6-2-6.5ZM176.2,393c0-1,0-1.71.06-2.41s.05-1.27.05-2,.49-1.3.85-1.3a.24.24,0,0,1,.19.08.75.75,0,0,1,.13.43V389a.7.7,0,0,0,1.39,0v-3.1a.87.87,0,0,1,1.35-.85.74.74,0,0,1,.19.51V388a.7.7,0,0,0,1.39,0v-2.32a1.5,1.5,0,0,1,.31-1,.72.72,0,0,1,.54-.25.63.63,0,0,1,.63.72v2.17a.69.69,0,1,0,1.38,0v-2.17h0v-.34h0c0-1.35,0-2,0-2.65s0-1,0-1.71.38-1.33.76-1.33.75.47.75,1.37v8s.05,1.7,0,3.51l-2.76-1.81a2.05,2.05,0,0,0-2.81.56,2,2,0,0,0,.56,2.79l2.19,1.48a.68.68,0,0,0,.38.12.7.7,0,0,0,.58-.31.69.69,0,0,0-.19-1l-2.19-1.48a.66.66,0,0,1-.28-.4.62.62,0,0,1,.09-.46.66.66,0,0,1,.91-.18l3.41,2.23a12.18,12.18,0,0,1-.29,1.76c-.53,2-3.35,2.89-4.71,2.89h0C178,398.21,176.2,396.18,176.2,393Z"/><path class="cls-16" d="M158.2,321a2.06,2.06,0,0,0-.92-.65,3.28,3.28,0,0,0-1.1-.21,2.83,2.83,0,0,0-.63.07,2.57,2.57,0,0,0-.6.23,1.36,1.36,0,0,0-.47.42,1.05,1.05,0,0,0-.18.62,1,1,0,0,0,.43.9,4.19,4.19,0,0,0,1.08.54l1.4.44a6.36,6.36,0,0,1,1.41.62,3.62,3.62,0,0,1,1.08,1.09,3.43,3.43,0,0,1,.42,1.82,4.33,4.33,0,0,1-.39,1.9,3.78,3.78,0,0,1-1.06,1.34,4.38,4.38,0,0,1-1.55.79,6.71,6.71,0,0,1-1.87.26,6.5,6.5,0,0,1-2.28-.39,5.52,5.52,0,0,1-2-1.25l2-2.24a3.06,3.06,0,0,0,1.08.91,3.11,3.11,0,0,0,1.35.32,3.25,3.25,0,0,0,.69-.08,2.3,2.3,0,0,0,.62-.25,1.24,1.24,0,0,0,.45-.43,1.08,1.08,0,0,0,.17-.6,1.13,1.13,0,0,0-.44-.93,3.92,3.92,0,0,0-1.1-.58c-.44-.16-.91-.32-1.42-.48a6.37,6.37,0,0,1-1.43-.64,3.51,3.51,0,0,1-1.1-1.07,3.13,3.13,0,0,1-.44-1.75,4,4,0,0,1,.41-1.84,3.74,3.74,0,0,1,1.07-1.32,4.35,4.35,0,0,1,1.54-.8,6,6,0,0,1,1.8-.27,6.78,6.78,0,0,1,2.07.31,4.8,4.8,0,0,1,1.81,1Z"/><path class="cls-16" d="M166.07,320.35h-3.61v-2.54h10v2.54h-3.61v10.49h-2.78Z"/><path class="cls-16" d="M175.4,317.81H184v2.65h-5.8v2.43h5.47v2.65h-5.47v2.65h6.12v2.65H175.4Z"/><path class="cls-16" d="M188,317.81h4.69a8.63,8.63,0,0,1,1.86.19,4.07,4.07,0,0,1,1.52.63,3.15,3.15,0,0,1,1,1.21,4.36,4.36,0,0,1,.38,1.93,4.49,4.49,0,0,1-.36,1.91,2.94,2.94,0,0,1-1,1.23,3.85,3.85,0,0,1-1.48.66,8.34,8.34,0,0,1-1.85.19h-2v5.08H188Zm2.78,5.52h1.86a3.38,3.38,0,0,0,.72-.07A1.8,1.8,0,0,0,194,323a1.3,1.3,0,0,0,.45-.48,1.58,1.58,0,0,0,.17-.76,1.31,1.31,0,0,0-.22-.8,1.44,1.44,0,0,0-.57-.47,2.43,2.43,0,0,0-.78-.21,5.91,5.91,0,0,0-.82-.05h-1.43Z"/><path class="cls-16" d="M209.79,320.35h-3.6v-2.54h10v2.54h-3.6v10.49h-2.79Z"/><path class="cls-16" d="M217.7,317.81h3l2,8.35h0l2.64-8.35H228l2.62,8.57h0l2.12-8.57h2.82l-3.7,13h-2.48l-2.78-9h0l-2.78,9h-2.39Z"/><path class="cls-16" d="M237.62,324.32a7.54,7.54,0,0,1,.51-2.83,6.11,6.11,0,0,1,1.42-2.16,6,6,0,0,1,2.16-1.37,7.53,7.53,0,0,1,2.73-.48,7.61,7.61,0,0,1,2.73.48,6.11,6.11,0,0,1,3.58,3.53,8.29,8.29,0,0,1,0,5.67,6.44,6.44,0,0,1-1.42,2.16,6.22,6.22,0,0,1-2.16,1.37,7.61,7.61,0,0,1-2.73.48,7.53,7.53,0,0,1-2.73-.48,6,6,0,0,1-2.16-1.37,6.3,6.3,0,0,1-1.42-2.16A7.56,7.56,0,0,1,237.62,324.32Zm2.89,0a4.79,4.79,0,0,0,.28,1.69,3.81,3.81,0,0,0,.79,1.32,3.64,3.64,0,0,0,1.24.88,4.36,4.36,0,0,0,3.23,0,3.55,3.55,0,0,0,1.24-.88,3.83,3.83,0,0,0,.8-1.32,5.36,5.36,0,0,0,0-3.36,3.78,3.78,0,0,0-.8-1.33,3.55,3.55,0,0,0-1.24-.88,4.36,4.36,0,0,0-3.23,0,3.64,3.64,0,0,0-1.24.88,3.76,3.76,0,0,0-.79,1.33A4.8,4.8,0,0,0,240.51,324.32Z"/><path class="cls-18" d="M217,581.05a1.66,1.66,0,0,0,1.3-.62l2.42,1.17a2,2,0,0,0,0,.35,1.7,1.7,0,0,0,3.39,0,1.73,1.73,0,0,0-.39-1.09l3.43-4.65a1.74,1.74,0,0,0,.64.13,1.71,1.71,0,0,0,1.26-.56l2.48,1.31a1.84,1.84,0,0,0-.05.41,1.7,1.7,0,1,0,1.69-1.69,1.71,1.71,0,0,0-1.26.56l-2.47-1.31a1.92,1.92,0,0,0,0-.41,1.7,1.7,0,1,0-3.39,0,1.72,1.72,0,0,0,.39,1.08L223,580.38a1.68,1.68,0,0,0-1.94.48l-2.42-1.16a2,2,0,0,0,0-.35,1.7,1.7,0,1,0-1.7,1.7Zm16.13-4.43a.88.88,0,1,1-.88.88A.88.88,0,0,1,233.13,576.62Zm-5.38-2.85a.88.88,0,1,1-.87.88A.87.87,0,0,1,227.75,573.77Zm-5.37,7.3a.88.88,0,1,1-.88.88A.88.88,0,0,1,222.38,581.07Zm-5.38-2.6a.88.88,0,1,1-.88.88A.88.88,0,0,1,217,578.47Z"/><path class="cls-18" d="M223.66,585H221.1a.44.44,0,0,0-.44.44v5.19a.44.44,0,0,0,.88,0v-4.76h1.68v4.76a.44.44,0,0,0,.88,0V585.4A.44.44,0,0,0,223.66,585Z"/><path class="cls-18" d="M234.41,580.46h-2.56a.43.43,0,0,0-.43.44v9.69a.44.44,0,0,0,.43.44.44.44,0,0,0,.44-.44v-9.26H234v9.26a.44.44,0,0,0,.88,0V580.9A.44.44,0,0,0,234.41,580.46Z"/><path class="cls-18" d="M218.28,582.32h-2.56a.44.44,0,0,0-.44.44v7.83a.44.44,0,0,0,.88,0V583.2h1.68v7.39a.44.44,0,0,0,.88,0v-7.83A.44.44,0,0,0,218.28,582.32Z"/><path class="cls-18" d="M229,578.35h-2.56a.44.44,0,0,0-.43.44v11.8a.44.44,0,0,0,.43.44.45.45,0,0,0,.45-.44V579.23h1.68v11.36a.44.44,0,1,0,.87,0v-11.8A.44.44,0,0,0,229,578.35Z"/><path class="cls-18" d="M194.18,598H175.93a.48.48,0,0,0,0,1h18.25a.48.48,0,1,0,0-1Z"/><path class="cls-18" d="M174,598h-2.69a.48.48,0,0,0,0,1H174a.48.48,0,0,0,0-1Z"/><path class="cls-18" d="M194.18,592.94H180a.48.48,0,0,0,0,1h14.18a.48.48,0,0,0,0-1Z"/><path class="cls-18" d="M171.34,593.9h6.56a.48.48,0,0,0,0-1h-6.56a.48.48,0,0,0,0,1Z"/><path class="cls-18" d="M194.18,587.87h-4.57a.48.48,0,1,0,0,1h4.57a.48.48,0,1,0,0-1Z"/><path class="cls-18" d="M171.34,588.82h16.5a.48.48,0,0,0,0-1h-16.5a.48.48,0,1,0,0,1Z"/><path class="cls-18" d="M194.18,582.8H188.9a.48.48,0,1,0,0,1h5.28a.48.48,0,1,0,0-1Z"/><path class="cls-18" d="M171.34,583.75h15.43a.48.48,0,1,0,0-1H171.34a.48.48,0,1,0,0,1Z"/><path class="cls-18" d="M194.18,577.73H176.49a.48.48,0,1,0,0,.95h17.69a.48.48,0,1,0,0-.95Z"/><path class="cls-18" d="M171.34,578.68h3a.48.48,0,0,0,0-.95h-3a.48.48,0,1,0,0,.95Z"/><path class="cls-18" d="M199.56,571.57v-.06s0,0,0,0,0,0,0,0a.05.05,0,0,0,0,0l0,0a.1.1,0,0,0,0-.05l0,0-7-7.16h0a.39.39,0,0,0-.1-.08h0a.54.54,0,0,0-.22,0H166.43a.47.47,0,0,0-.47.47v43.49a.48.48,0,0,0,.47.48h32.66a.49.49,0,0,0,.48-.48V571.6A0,0,0,0,0,199.56,571.57Zm-32.65,35.87V564.91h24.7v6.69a.49.49,0,0,0,.48.48H196a.48.48,0,0,0,.48-.48.47.47,0,0,0-.48-.48h-3.45v-5.51l6,6.18v35.65Z"/><path class="cls-18" d="M236.15,598H217.9a.48.48,0,1,0,0,1h18.25a.48.48,0,1,0,0-1Z"/><path class="cls-18" d="M216,598h-2.68a.48.48,0,0,0,0,1H216a.48.48,0,1,0,0-1Z"/><path class="cls-18" d="M236.15,592.94H222a.48.48,0,0,0,0,1h14.18a.48.48,0,0,0,0-1Z"/><path class="cls-18" d="M213.31,593.9h6.56a.48.48,0,0,0,0-1h-6.56a.48.48,0,0,0,0,1Z"/><path class="cls-18" d="M241.53,571.57v-.06l0,0v0l0,0,0,0,0-.05,0,0-7-7.16h0a.39.39,0,0,0-.1-.08h0a.46.46,0,0,0-.21,0H208.4a.47.47,0,0,0-.48.47v43.49a.48.48,0,0,0,.48.48h32.66a.48.48,0,0,0,.47-.48V571.57Zm-32.65,35.87V564.91h24.7v6.69a.49.49,0,0,0,.48.48H238a.49.49,0,0,0,.48-.48.48.48,0,0,0-.48-.48h-3.45v-5.51l6,6.18v35.65Z"/><path class="cls-16" d="M149.32,528.63a2.06,2.06,0,0,0-.92-.65,3.28,3.28,0,0,0-1.1-.21,2.83,2.83,0,0,0-.63.07,2.57,2.57,0,0,0-.6.23,1.44,1.44,0,0,0-.47.41,1.1,1.1,0,0,0-.17.63,1.06,1.06,0,0,0,.42.9,4.19,4.19,0,0,0,1.08.54l1.4.44a5.55,5.55,0,0,1,1.41.62,3.11,3.11,0,0,1,1.5,2.91,4.36,4.36,0,0,1-.39,1.9,3.78,3.78,0,0,1-1.06,1.34,4.55,4.55,0,0,1-1.55.79,6.71,6.71,0,0,1-1.87.26,6.5,6.5,0,0,1-2.28-.39,5.66,5.66,0,0,1-2-1.25l2-2.24a3.06,3.06,0,0,0,1.08.91,3.11,3.11,0,0,0,1.35.32,2.72,2.72,0,0,0,.69-.09,2,2,0,0,0,.62-.24,1.24,1.24,0,0,0,.45-.43,1.08,1.08,0,0,0,.17-.6,1.1,1.1,0,0,0-.44-.93,3.92,3.92,0,0,0-1.1-.58c-.44-.16-.91-.32-1.42-.48a5.8,5.8,0,0,1-1.43-.65,3.37,3.37,0,0,1-1.1-1.06,3.15,3.15,0,0,1-.44-1.75,4,4,0,0,1,.41-1.84,3.74,3.74,0,0,1,1.07-1.32,4.54,4.54,0,0,1,1.54-.81,6.37,6.37,0,0,1,1.8-.26,6.78,6.78,0,0,1,2.07.31,4.8,4.8,0,0,1,1.81,1.05Z"/><path class="cls-16" d="M157.19,528h-3.61v-2.54h10V528H160v10.49h-2.78Z"/><path class="cls-16" d="M166.52,525.45h8.59v2.65H169.3v2.43h5.49v2.65H169.3v2.65h6.13v2.65h-8.91Z"/><path class="cls-16" d="M179.09,525.45h4.69a9.32,9.32,0,0,1,1.86.18,4.26,4.26,0,0,1,1.52.64,3.15,3.15,0,0,1,1,1.21,4.35,4.35,0,0,1,.38,1.92,4.54,4.54,0,0,1-.36,1.92,3.07,3.07,0,0,1-1,1.23,3.7,3.7,0,0,1-1.48.65,8.33,8.33,0,0,1-1.85.2h-2v5.08h-2.78Zm2.78,5.52h1.86a4.18,4.18,0,0,0,.72-.07,2,2,0,0,0,.62-.25,1.3,1.3,0,0,0,.45-.48,1.6,1.6,0,0,0,.17-.77,1.33,1.33,0,0,0-.22-.8,1.51,1.51,0,0,0-.57-.46,2.26,2.26,0,0,0-.78-.22,7.88,7.88,0,0,0-.82,0h-1.43Z"/><path class="cls-16" d="M200.91,528h-3.6v-2.54h10V528h-3.6v10.49h-2.79Z"/><path class="cls-16" d="M210.14,525.45h2.79v4.86h5.4v-4.86h2.79v13h-2.79v-5.63h-5.4v5.63h-2.79Z"/><path class="cls-16" d="M225.12,525.45H230a8.35,8.35,0,0,1,1.83.19,4.3,4.3,0,0,1,1.51.65,3.15,3.15,0,0,1,1,1.21,4.29,4.29,0,0,1,.38,1.9,3.93,3.93,0,0,1-.69,2.35,3.12,3.12,0,0,1-2,1.22l3.21,5.51h-3.33l-2.65-5.21H227.9v5.21h-2.78Zm2.78,5.39h1.64l.8,0a2.43,2.43,0,0,0,.75-.16,1.3,1.3,0,0,0,.57-.44,1.31,1.31,0,0,0,.22-.82,1.4,1.4,0,0,0-.2-.79,1.3,1.3,0,0,0-.5-.46,2.33,2.33,0,0,0-.69-.21,6.78,6.78,0,0,0-.77,0H227.9Z"/><path class="cls-16" d="M238.22,525.45h8.58v2.65H241v2.43h5.48v2.65H241v2.65h6.12v2.65h-8.9Z"/><path class="cls-16" d="M250.89,525.45h8.58v2.65h-5.8v2.43h5.48v2.65h-5.48v2.65h6.12v2.65h-8.9Z"/><path class="cls-19" d="M222.2,803.18l-5.14,6.13-2-2.22a.7.7,0,1,0-1,.93l2.51,2.83a.68.68,0,0,0,.52.23h0a.69.69,0,0,0,.53-.25l5.67-6.74a.7.7,0,0,0-.09-1A.71.71,0,0,0,222.2,803.18Z"/><path class="cls-19" d="M218.78,797.79a9.34,9.34,0,1,0,9.34,9.34A9.34,9.34,0,0,0,218.78,797.79Zm0,17.27a7.93,7.93,0,1,1,7.94-7.93A7.94,7.94,0,0,1,218.78,815.06Z"/><path class="cls-19" d="M217.66,795.69a.71.71,0,0,0,.7-.7V763.74a.7.7,0,0,0-.7-.7H211.3v-1.86a.7.7,0,0,0-.2-.5.67.67,0,0,0-.5-.21H209V760a.92.92,0,0,0-1-1.05H193.38a.87.87,0,0,0-.71.25.91.91,0,0,0-.28.71v.59h-1.7a.69.69,0,0,0-.5.21.7.7,0,0,0-.2.49c0,.63,0,1.3,0,1.87h-6.47a.7.7,0,0,0-.71.7v44.52a.7.7,0,0,0,.71.7H207a.7.7,0,1,0,0-1.4H184.23V764.44H190v.06a1,1,0,0,0,.22.75,1,1,0,0,0,.77.28h8.2a2.62,2.62,0,0,0,.64.62,1.49,1.49,0,0,0,.82.23,1.88,1.88,0,0,0,.57-.09,1.83,1.83,0,0,0,1.09-.81h8a1,1,0,0,0,.8-.3.94.94,0,0,0,.22-.74H217V795A.71.71,0,0,0,217.66,795.69Zm-23.87-35.12v-.24h13.76v1.56H193.79v-1.32Zm13,3.51h-4.66a1.09,1.09,0,0,0-1.08.69c-.06.15-.39.24-.48.23a1.19,1.19,0,0,1-.3-.29,1.12,1.12,0,0,0-1-.58H191.4v-2.26h1v.45a.88.88,0,0,0,1,1H208a.89.89,0,0,0,1-1v-.43h1c0,.78,0,1.67,0,2.21Z"/><path class="cls-19" d="M207.16,811H181.32V758.08h38.54v37.08a.71.71,0,0,0,1.41,0V757.37a.71.71,0,0,0-.71-.7H180.62a.7.7,0,0,0-.7.7v54.28a.7.7,0,0,0,.7.7h26.54a.7.7,0,0,0,0-1.4Z"/><path class="cls-19" d="M212.66,793.35a.7.7,0,0,0-.7-.7H194.45a.7.7,0,1,0,0,1.4H212A.7.7,0,0,0,212.66,793.35Z"/><path class="cls-19" d="M212,787.35H194.45a.7.7,0,1,0,0,1.4H212a.7.7,0,1,0,0-1.4Z"/><path class="cls-19" d="M212,782.05H194.45a.7.7,0,1,0,0,1.4H212a.7.7,0,1,0,0-1.4Z"/><path class="cls-19" d="M212,776.75H194.45a.7.7,0,1,0,0,1.4H212a.7.7,0,1,0,0-1.4Z"/><path class="cls-19" d="M212,771.45H194.45a.7.7,0,1,0,0,1.4H212a.7.7,0,0,0,0-1.4Z"/><path class="cls-19" d="M194.59,799.35a.71.71,0,0,0,0,1.41H206.8a.71.71,0,0,0,0-1.41Z"/><path class="cls-19" d="M192.16,769.59a.7.7,0,0,0-.7-.7h-4.12a.7.7,0,0,0-.7.7v4.12a.7.7,0,0,0,.7.7h4.12a.7.7,0,0,0,.7-.7Zm-1.4,3.42h-2.71v-2.72h2.71Z"/><path class="cls-19" d="M192.16,776.62a.7.7,0,0,0-.7-.7h-4.12a.7.7,0,0,0-.7.7v4.12a.7.7,0,0,0,.7.7h4.12a.7.7,0,0,0,.7-.7Zm-1.4,3.42h-2.71v-2.72h2.71Z"/><path class="cls-19" d="M192.16,783.65a.7.7,0,0,0-.7-.7h-4.12a.71.71,0,0,0-.7.7v4.12a.7.7,0,0,0,.7.7h4.12a.7.7,0,0,0,.7-.7Zm-1.4,3.42h-2.71v-2.72h2.71Z"/><path class="cls-19" d="M192.16,790.68a.7.7,0,0,0-.7-.7h-4.12a.7.7,0,0,0-.7.7v4.12a.7.7,0,0,0,.7.7h4.12a.7.7,0,0,0,.7-.7Zm-1.4,3.42h-2.71v-2.72h2.71Z"/><path class="cls-19" d="M191.46,797h-4.12a.71.71,0,0,0-.7.7v4.12a.7.7,0,0,0,.7.7h4.12a.7.7,0,0,0,.7-.7v-4.12A.7.7,0,0,0,191.46,797Zm-.7,4.12h-2.71v-2.72h2.71Z"/><path class="cls-16" d="M153.84,729.28a1.94,1.94,0,0,0-.92-.65,3.26,3.26,0,0,0-1.1-.22,2.7,2.7,0,0,0-.62.08,2.14,2.14,0,0,0-.61.23,1.3,1.3,0,0,0-.46.41,1.07,1.07,0,0,0-.18.63,1,1,0,0,0,.43.9,3.63,3.63,0,0,0,1.08.53c.43.15.9.3,1.4.44a5.89,5.89,0,0,1,1.4.63,3.14,3.14,0,0,1,1.51,2.91,4.18,4.18,0,0,1-.4,1.89,3.82,3.82,0,0,1-1.06,1.35,4.46,4.46,0,0,1-1.55.79,6.7,6.7,0,0,1-1.87.25,6.5,6.5,0,0,1-2.28-.38,5.77,5.77,0,0,1-2-1.25l2-2.25a2.81,2.81,0,0,0,1.08.91,2.9,2.9,0,0,0,1.34.32,2.71,2.71,0,0,0,.69-.08,2.18,2.18,0,0,0,.63-.25,1.36,1.36,0,0,0,.44-.42,1,1,0,0,0,.17-.61,1.1,1.1,0,0,0-.44-.93,4.12,4.12,0,0,0-1.09-.58l-1.43-.47a6.39,6.39,0,0,1-1.43-.65,3.58,3.58,0,0,1-1.1-1.06,3.17,3.17,0,0,1-.43-1.75,3.91,3.91,0,0,1,1.47-3.17,4.8,4.8,0,0,1,1.54-.8,6.15,6.15,0,0,1,1.81-.27,6.89,6.89,0,0,1,2.07.32,4.84,4.84,0,0,1,1.8,1Z"/><path class="cls-16" d="M161.71,728.63h-3.6V726.1h10v2.53h-3.61v10.49h-2.78Z"/><path class="cls-16" d="M171,726.1h8.59v2.65h-5.8v2.42h5.48v2.65h-5.48v2.65H180v2.65H171Z"/><path class="cls-16" d="M183.61,726.1h4.69a9.17,9.17,0,0,1,1.86.18,4,4,0,0,1,1.53.64,3.22,3.22,0,0,1,1,1.21,4.21,4.21,0,0,1,.39,1.92,4.57,4.57,0,0,1-.36,1.92,3.25,3.25,0,0,1-1,1.23,4.07,4.07,0,0,1-1.48.65,8.5,8.5,0,0,1-1.86.19h-2v5.08h-2.78Zm2.78,5.52h1.86a3.38,3.38,0,0,0,.72-.08,1.85,1.85,0,0,0,.63-.25,1.25,1.25,0,0,0,.44-.47,1.51,1.51,0,0,0,.17-.77,1.31,1.31,0,0,0-.22-.8,1.53,1.53,0,0,0-.57-.47,2.36,2.36,0,0,0-.78-.21,7.83,7.83,0,0,0-.82-.05h-1.43Z"/><path class="cls-16" d="M203.1,726.1h8.48v2.65h-5.7v2.65h5.27V734h-5.27v5.08H203.1Z"/><path class="cls-16" d="M214.33,732.61a7.51,7.51,0,0,1,.5-2.83,6.09,6.09,0,0,1,3.58-3.54,7.61,7.61,0,0,1,2.73-.48,7.53,7.53,0,0,1,2.73.48,6.18,6.18,0,0,1,2.16,1.37,6.24,6.24,0,0,1,1.42,2.17,8.11,8.11,0,0,1,0,5.66,6.24,6.24,0,0,1-1.42,2.17,6.18,6.18,0,0,1-2.16,1.37,7.75,7.75,0,0,1-2.73.47,7.83,7.83,0,0,1-2.73-.47,6.09,6.09,0,0,1-3.58-3.54A7.51,7.51,0,0,1,214.33,732.61Zm2.89,0a5,5,0,0,0,.27,1.68,4,4,0,0,0,.8,1.33,3.66,3.66,0,0,0,1.24.87,4.36,4.36,0,0,0,3.23,0,3.76,3.76,0,0,0,1.24-.87,4,4,0,0,0,.79-1.33,4.78,4.78,0,0,0,.28-1.68,4.86,4.86,0,0,0-.28-1.68,4,4,0,0,0-.79-1.33,3.76,3.76,0,0,0-1.24-.87,4.24,4.24,0,0,0-3.23,0,3.66,3.66,0,0,0-1.24.87,4,4,0,0,0-.8,1.33A5.1,5.1,0,0,0,217.22,732.61Z"/><path class="cls-16" d="M241.94,734.1a6.61,6.61,0,0,1-.34,2.13,4.77,4.77,0,0,1-1,1.7,4.59,4.59,0,0,1-1.67,1.12,6.87,6.87,0,0,1-4.62,0,4.51,4.51,0,0,1-1.67-1.12,4.77,4.77,0,0,1-1-1.7,6.34,6.34,0,0,1-.34-2.13v-8h2.78V734a3.37,3.37,0,0,0,.19,1.12,2.63,2.63,0,0,0,.53.89,2.26,2.26,0,0,0,.81.59,2.53,2.53,0,0,0,1,.21,2.41,2.41,0,0,0,1.82-.8,2.61,2.61,0,0,0,.52-.89,3.14,3.14,0,0,0,.19-1.12V726.1h2.79Z"/><path class="cls-16" d="M245.93,726.1h4.89a8.22,8.22,0,0,1,1.83.19,4.26,4.26,0,0,1,1.52.64,3.27,3.27,0,0,1,1,1.22,4.29,4.29,0,0,1,.38,1.9,3.89,3.89,0,0,1-.7,2.35,3.11,3.11,0,0,1-2,1.22l3.21,5.5h-3.34l-2.64-5.2h-1.37v5.2h-2.79Zm2.79,5.39h1.64l.79,0a2.23,2.23,0,0,0,.76-.17,1.2,1.2,0,0,0,.56-.43,1.32,1.32,0,0,0,.23-.83,1.42,1.42,0,0,0-.2-.79,1.44,1.44,0,0,0-.5-.45,2.33,2.33,0,0,0-.69-.21,5.19,5.19,0,0,0-.77-.06h-1.82Z"/><path class="cls-6" d="M201.37,1002.61c-3.62,1-5.9,4.2-5.09,7.22s4.4,4.67,8,3.7,5.89-4.2,5.09-7.22S205,1001.64,201.37,1002.61Zm2,7.64a2.3,2.3,0,1,1,2-2.88A2.52,2.52,0,0,1,203.42,1010.25Z"/><rect class="cls-6" x="211.13" y="999.65" width="4.09" height="11.31" transform="translate(-252.82 89.37) rotate(-14.99)"/><polygon class="cls-6" points="217.98 1004.77 214.38 1005.73 213.99 1004.51 216.96 998.43 222.16 997.04 217.98 1004.77"/><polygon class="cls-6" points="217.6 1003.35 214 1004.32 214.28 1005.58 220.57 1009.17 225.77 1007.78 217.6 1003.35"/><path class="cls-6" d="M229.77,1000.85c-1.93-7.18-9-12-17.66-12.07A18.83,18.83,0,0,1,209.9,992a20.7,20.7,0,0,1,2.08-.11c7.28,0,13.23,3.93,14.79,9.78a12.72,12.72,0,0,1-2.19,10.7,18.93,18.93,0,0,1-10.67,7.19,20.49,20.49,0,0,1-5.3.71c-7.28,0-13.23-3.93-14.8-9.77a12.33,12.33,0,0,1,1.18-9,24.48,24.48,0,0,1-3.73.8,15,15,0,0,0-.44,9c1.93,7.22,9.08,12.07,17.79,12.07a23.56,23.56,0,0,0,6.1-.81,22,22,0,0,0,12.4-8.4A15.76,15.76,0,0,0,229.77,1000.85Z"/><path class="cls-6" d="M209.93,982l-1.38-2.4c-1.51-2.6-6.2-2.87-11.54-1-1.88-3.14-2.69-3-3.77-3.35a2.84,2.84,0,0,1-1.73-1.62c-.2-.35-.94-1.64-1.46-2.53,2-1.85,3.06-3.86,2.33-5.12a1.57,1.57,0,0,0-.19-.26l-3.28-3.94c-.88-1.53-4.3-1.2-7.64.73s-5.33,4.73-4.45,6.25l1.78,4.81a1.3,1.3,0,0,0,.13.3c.72,1.25,3,1.39,5.59.54l1.47,2.53a2.84,2.84,0,0,1,.53,2.31c-.23,1.11-.76,1.74,1,4.94-4.29,3.69-6.41,7.88-4.9,10.49l1.38,2.39c2,3.42,9.42,2.81,16.63-1.35S211.9,985.42,209.93,982Z"/><polygon class="cls-6" points="242.25 989.59 230.84 991.28 240.24 986.26 242.25 989.59"/><polygon class="cls-6" points="236.18 979.81 227.63 987.91 232.32 977.1 236.18 979.81"/><polygon class="cls-6" points="224.87 975.5 223.36 986.05 221.05 974.74 224.87 975.5"/><path class="cls-16" d="M159.11,933.88a1.93,1.93,0,0,0-.91-.66,3.28,3.28,0,0,0-1.1-.21,3.47,3.47,0,0,0-.63.07,2.57,2.57,0,0,0-.6.23,1.47,1.47,0,0,0-.47.42,1.05,1.05,0,0,0-.18.62,1.07,1.07,0,0,0,.43.91,4.53,4.53,0,0,0,1.08.53c.44.15.9.29,1.4.44a5.71,5.71,0,0,1,1.4.63,3.28,3.28,0,0,1,1.08,1.08,3.36,3.36,0,0,1,.43,1.82,4.33,4.33,0,0,1-.39,1.9,3.8,3.8,0,0,1-1.06,1.34,4.46,4.46,0,0,1-1.55.79,6.76,6.76,0,0,1-1.87.26,6.59,6.59,0,0,1-2.29-.39,5.57,5.57,0,0,1-2-1.25l2-2.24a3,3,0,0,0,1.08.91,3.11,3.11,0,0,0,1.35.32,3.25,3.25,0,0,0,.69-.08,2.3,2.3,0,0,0,.62-.25,1.4,1.4,0,0,0,.45-.42,1.12,1.12,0,0,0,.17-.61,1.13,1.13,0,0,0-.44-.93,3.92,3.92,0,0,0-1.1-.58c-.44-.16-.91-.32-1.43-.48a6.29,6.29,0,0,1-1.42-.64,3.51,3.51,0,0,1-1.1-1.07,3.13,3.13,0,0,1-.44-1.75,4.12,4.12,0,0,1,.4-1.84,4.07,4.07,0,0,1,1.07-1.32,4.66,4.66,0,0,1,1.55-.8,6,6,0,0,1,1.8-.27,7.15,7.15,0,0,1,2.07.31,4.69,4.69,0,0,1,1.8,1.05Z"/><path class="cls-16" d="M167,933.23h-3.61v-2.54h10v2.54h-3.6v10.49H167Z"/><path class="cls-16" d="M176.32,930.69h8.58v2.65h-5.8v2.43h5.48v2.65H179.1v2.65h6.13v2.65h-8.91Z"/><path class="cls-16" d="M188.88,930.69h4.7a8.63,8.63,0,0,1,1.86.19,4.07,4.07,0,0,1,1.52.63,3.27,3.27,0,0,1,1,1.22,4.35,4.35,0,0,1,.38,1.92,4.49,4.49,0,0,1-.36,1.91,2.94,2.94,0,0,1-1,1.23,3.92,3.92,0,0,1-1.48.66,8.37,8.37,0,0,1-1.86.19h-2v5.08h-2.79Zm2.79,5.52h1.86a3.38,3.38,0,0,0,.72-.07,1.8,1.8,0,0,0,.62-.25,1.3,1.3,0,0,0,.45-.48,1.55,1.55,0,0,0,.17-.76,1.38,1.38,0,0,0-.22-.8,1.49,1.49,0,0,0-.58-.47,2.37,2.37,0,0,0-.77-.21,8,8,0,0,0-.82,0h-1.43Z"/><path class="cls-16" d="M208.37,930.69h8.48v2.65h-5.69V936h5.26v2.65h-5.26v5.08h-2.79Z"/><path class="cls-16" d="M220.24,930.69H223v13h-2.79Z"/><path class="cls-16" d="M225.74,930.69h3.18l3.12,8.54h0l3.17-8.54h3l-5.21,13h-2.23Z"/><path class="cls-16" d="M241.09,930.69h8.58v2.65h-5.8v2.43h5.48v2.65h-5.48v2.65H250v2.65h-8.91Z"/></g></g></svg>