<svg xmlns="http://www.w3.org/2000/svg" viewBox="0 0 960 368.21"><defs><style>.cls-1,.cls-14,.cls-8{fill:#776a9d;}.cls-1{stroke:#5359a6;stroke-width:0.85px;}.cls-1,.cls-2,.cls-3,.cls-4{stroke-linecap:round;stroke-linejoin:round;}.cls-10,.cls-16,.cls-2{fill:#69bd83;}.cls-2{stroke:#73ca9b;}.cls-2,.cls-4{stroke-width:0.57px;}.cls-13,.cls-3,.cls-7{fill:#5fc1c7;}.cls-3{stroke:#5fc1c7;stroke-width:1.13px;}.cls-15,.cls-4,.cls-9{fill:#6c9bd2;}.cls-4{stroke:#5c9ebc;}.cls-17,.cls-5{fill:#b5d681;}.cls-6{fill:#443b38;}.cls-11,.cls-12{fill:#cacaca;}.cls-12,.cls-13,.cls-14,.cls-15,.cls-16,.cls-17{fill-rule:evenodd;}.cls-18{fill:#fff;}.cls-19{fill:#231815;}</style></defs><g id="レイヤー_2" data-name="レイヤー 2"><g id="文字"><path class="cls-1" d="M322,209.05a8,8,0,1,0,8,8A8,8,0,0,0,322,209.05Zm0,14.81a6.81,6.81,0,1,1,6.81-6.8A6.81,6.81,0,0,1,322,223.86Z"/><path class="cls-1" d="M326.06,214.85h-2.37l-.82-2.7a.61.61,0,0,0-.58-.43h0a.61.61,0,0,0-.58.43l-.81,2.7h-2.39a.6.6,0,0,0-.37,1.07l1.94,1.53-.89,2.83a.57.57,0,0,0,.23.67.53.53,0,0,0,.34.11.58.58,0,0,0,.37-.13l2.16-1.71,2.17,1.71a.6.6,0,0,0,.71,0,.59.59,0,0,0,.23-.67l-.9-2.84,1.94-1.52a.6.6,0,0,0-.38-1.07Zm-2.83,2.58,0,.08.4,1.26-1-.79a.59.59,0,0,0-.74,0l-1,.78.43-1.34a.62.62,0,0,0-.2-.66l-.91-.71h1.09a.6.6,0,0,0,.58-.43l.37-1.23.38,1.23a.6.6,0,0,0,.57.43h1.09l-.91.71A.59.59,0,0,0,323.23,217.43Z"/><path class="cls-1" d="M293.32,191.57c1.45,5.1,5.51,8.22,8.61,8.22,3.53,0,7.31-3.65,8.61-8.24a3.15,3.15,0,0,0,2.24-1.26,4.9,4.9,0,0,0,.38-4.55,2.41,2.41,0,0,0-1.63-1.51c.15-.91.32-2,.43-3l0-.35c.25-2.1.43-3.63-.77-5.87a10.41,10.41,0,0,1-.78-1.78.6.6,0,0,0-1-.62c-1,.89-1.78.46-3-.31a6,6,0,0,0-1.26-.69,15.91,15.91,0,0,0-7.12-.34c-3.56.6-5.45,2.22-6.54,5.6a12.87,12.87,0,0,0,0,5.47c.09.57.22,1.3.35,2a2.41,2.41,0,0,0-1.33,1.4,4.87,4.87,0,0,0,.39,4.55A3.18,3.18,0,0,0,293.32,191.57Zm-1.62-5.43a1.11,1.11,0,0,1,.43-.55c.2,1,.38,1.86.39,1.93a.6.6,0,0,0,.59.48h.12a.6.6,0,0,0,.47-.71s-.71-3.39-1-5.14a12.31,12.31,0,0,1,0-4.92c.94-2.93,2.51-4.27,5.59-4.78a14.63,14.63,0,0,1,6.52.28,6,6,0,0,1,1,.57c.9.58,2.2,1.42,3.61.75a12.56,12.56,0,0,0,.72,1.52c1,1.91.88,3.13.64,5.16l0,.35c-.11.92-.27,2-.44,3a.59.59,0,0,0-.51.61.6.6,0,0,0,.32.52c-.19,1.09-.35,1.91-.38,2.05l.57.18-.19-.57.19.57.22.56c.35-.14.35-.15.77-2.55a1.27,1.27,0,0,1,.71.71,3.72,3.72,0,0,1-.22,3.42,2,2,0,0,1-1.7.81.59.59,0,0,0-.62.45c-1.17,4.8-4.84,7.77-7.56,7.77s-6.5-3.19-7.6-7.94a.6.6,0,0,0-.68-.46.61.61,0,0,0-.34.17,1.94,1.94,0,0,1-1.4-.8A3.69,3.69,0,0,1,291.7,186.14Z"/><path class="cls-1" d="M293.94,183.86a.6.6,0,0,0,.59-.47c.21-.95.6-2.52,1-4.07l.37.23c.24.15.47.29.59.38a.59.59,0,0,0,.71,0s1.72-1.21,6-1.21a7.43,7.43,0,0,1,3.46.68,4.73,4.73,0,0,1,2.26,2.8.6.6,0,0,0,1.11-.46,6,6,0,0,0-2.81-3.4,8.49,8.49,0,0,0-4-.82,13.45,13.45,0,0,0-6.29,1.22l-.33-.21c-.34-.21-.72-.45-1-.67a.62.62,0,0,0-.56-.09.61.61,0,0,0-.38.42c-.46,1.81-1,3.81-1.22,4.94a.61.61,0,0,0,.46.72Z"/><path class="cls-1" d="M312.68,221H283.24v-.63c0-.63,0-1.42,0-2.07v-.73l.32,0h0c1.4,0,4.6-.85,5.26-3.41a30.5,30.5,0,0,0,.42-6.28v-4.29l.13,0c1.07-.6,2.16-1.09,3.31-1.61.89-.4,1.81-.82,2.71-1.29L301.36,220a.61.61,0,0,0,.57.43h0a.61.61,0,0,0,.58-.43l5.89-19.13c.93.48,1.87.89,2.79,1.29a19.43,19.43,0,0,1,6.43,3.92,7.85,7.85,0,0,1,1.29,1.83.59.59,0,0,0,.72.28h0a.61.61,0,0,0,.33-.83,8.76,8.76,0,0,0-1.5-2.12,20.85,20.85,0,0,0-6.81-4.18c-1.1-.48-2.24-1-3.34-1.59a.59.59,0,0,0-.52,0,.58.58,0,0,0-.35.38l-3,9.83-.92-4.45,0,0,.69-1.6.58.38a.58.58,0,0,0,.33.1.6.6,0,0,0,.55-.35.62.62,0,0,0-.25-.77l-3.19-2.11a.6.6,0,0,0-.63,0l-3.21,1.88a.63.63,0,0,0-.28.75.6.6,0,0,0,.87.3l.55-.32.87,1.88-.91,4.44-3.09-10.07a.61.61,0,0,0-.87-.35c-1.07.59-2.19,1.1-3.28,1.59s-2,.9-2.94,1.42V201c0-1.57-.94-2.4-1.86-2.4s-1.86.82-1.86,2.37c0,.65,0,1,0,1.5,0,.24,0,.51,0,.84a1.82,1.82,0,0,0-1.9.52l-.12.15a1.81,1.81,0,0,0-1-.31,2,2,0,0,0-2,2l-.29,0a2.13,2.13,0,0,0-1.94,2.34c0,.64,0,1.16,0,1.71s0,1.27,0,2.15c0,2.9,1.44,5,3.79,5.59,0,.75,0,2.74,0,3.62h-5.85a.63.63,0,0,0-.63.5.6.6,0,0,0,.6.7h36.52a.59.59,0,0,0,.59-.6h0A.58.58,0,0,0,312.68,221Zm-10.82-19,1.31.86-.67,1.56h-1.18l-.77-1.65ZM300.2,212.1l1.34-6.46h.84L303.7,212l-1.77,5.74-1.73-5.66Zm-20.75-.28c0-.86,0-1.49.05-2.1s0-1.1,0-1.76.43-1.13.74-1.13a.23.23,0,0,1,.17.07.65.65,0,0,1,.11.37v1.14a.61.61,0,0,0,1.21,0v-2.7a.76.76,0,0,1,1.17-.73.63.63,0,0,1,.17.43v2.09a.61.61,0,0,0,1.21,0v-2a1.28,1.28,0,0,1,.27-.89.61.61,0,0,1,.46-.22.56.56,0,0,1,.55.63v1.89a.6.6,0,1,0,1.2,0V205h0v-.3h0c0-1.17,0-1.77,0-2.3s0-.84,0-1.48.33-1.16.66-1.16.65.41.65,1.19v7s0,1.48,0,3.05l-2.41-1.58a1.79,1.79,0,0,0-2.44.5,1.74,1.74,0,0,0,.49,2.42l1.9,1.28a.59.59,0,0,0,.84-.16.61.61,0,0,0-.16-.83l-1.91-1.29a.54.54,0,0,1-.24-.35.52.52,0,0,1,.08-.4.58.58,0,0,1,.79-.16l3,1.95a11.37,11.37,0,0,1-.25,1.53c-.46,1.76-2.91,2.51-4.1,2.51h0C281,216.39,279.45,214.63,279.45,211.82Z"/><path class="cls-2" d="M673.63,213.51l-4.47,5.33-1.72-1.93a.6.6,0,0,0-.86,0,.61.61,0,0,0-.05.86l2.18,2.46a.61.61,0,0,0,.46.2h0a.58.58,0,0,0,.45-.22l4.93-5.86a.61.61,0,1,0-.93-.79Z"/><path class="cls-2" d="M670.66,208.83a8.12,8.12,0,1,0,8.12,8.11A8.12,8.12,0,0,0,670.66,208.83Zm0,15a6.9,6.9,0,1,1,6.9-6.9A6.9,6.9,0,0,1,670.66,223.84Z"/><path class="cls-2" d="M669.68,207a.61.61,0,0,0,.61-.61V179.21a.62.62,0,0,0-.61-.61h-5.53V177a.61.61,0,0,0-.17-.43.6.6,0,0,0-.44-.18h-1.43V176a.81.81,0,0,0-.92-.92H648.57a.76.76,0,0,0-.62.22.78.78,0,0,0-.24.62v.51h-1.48a.61.61,0,0,0-.61.61v1.62H640a.61.61,0,0,0-.61.61v38.72a.61.61,0,0,0,.61.61h20.42a.61.61,0,0,0,0-1.22H640.61v-37.5h5v.05a.79.79,0,0,0,.19.65.86.86,0,0,0,.67.25h7.13a2.15,2.15,0,0,0,.56.54,1.28,1.28,0,0,0,.71.2,1.8,1.8,0,0,0,.5-.08,1.57,1.57,0,0,0,.94-.71h6.95a.92.92,0,0,0,.7-.26.85.85,0,0,0,.19-.65h4.91v26.56A.61.61,0,0,0,669.68,207Zm-20.76-30.53a1.48,1.48,0,0,1,0-.21h12v1.35h-12v-1.14Zm11.35,3h-4.06a1,1,0,0,0-.94.6c0,.13-.34.21-.42.2a1,1,0,0,1-.25-.25,1,1,0,0,0-.89-.5h-6.87c0-.5,0-1.31,0-2h.87V178a.76.76,0,0,0,.85.85h12.69a.78.78,0,0,0,.86-.87v-.37h.82v1.92Z"/><path class="cls-2" d="M660.55,220.27H638.08v-46H671.6v32.24a.61.61,0,0,0,.61.61.61.61,0,0,0,.61-.61V173.68a.61.61,0,0,0-.61-.61H637.47a.61.61,0,0,0-.61.61v47.2a.6.6,0,0,0,.61.6h23.08a.61.61,0,1,0,0-1.21Z"/><path class="cls-2" d="M665.33,205a.61.61,0,0,0-.61-.61H649.49a.61.61,0,0,0,0,1.22h15.23A.61.61,0,0,0,665.33,205Z"/><path class="cls-2" d="M664.72,199.74H649.49a.61.61,0,1,0,0,1.22h15.23a.61.61,0,1,0,0-1.22Z"/><path class="cls-2" d="M664.72,195.13H649.49a.62.62,0,0,0-.61.61.61.61,0,0,0,.61.61h15.23a.61.61,0,0,0,.61-.61A.61.61,0,0,0,664.72,195.13Z"/><path class="cls-2" d="M664.72,190.52H649.49a.62.62,0,0,0-.61.61.61.61,0,0,0,.61.61h15.23a.61.61,0,0,0,.61-.61A.61.61,0,0,0,664.72,190.52Z"/><path class="cls-2" d="M664.72,185.92H649.49a.61.61,0,0,0-.61.61.62.62,0,0,0,.61.61h15.23a.61.61,0,0,0,.61-.61A.61.61,0,0,0,664.72,185.92Z"/><path class="cls-2" d="M649.62,210.18a.61.61,0,1,0,0,1.22h10.62a.61.61,0,1,0,0-1.22Z"/><path class="cls-2" d="M647.51,184.3a.61.61,0,0,0-.61-.61h-3.58a.61.61,0,0,0-.61.61v3.58a.61.61,0,0,0,.61.61h3.58a.61.61,0,0,0,.61-.61Zm-1.22,3h-2.36v-2.36h2.36Z"/><path class="cls-2" d="M647.51,190.41a.61.61,0,0,0-.61-.61h-3.58a.61.61,0,0,0-.61.61V194a.61.61,0,0,0,.61.61h3.58a.61.61,0,0,0,.61-.61Zm-1.22,3h-2.36V191h2.36Z"/><path class="cls-2" d="M647.51,196.53a.61.61,0,0,0-.61-.61h-3.58a.61.61,0,0,0-.61.61v3.58a.61.61,0,0,0,.61.61h3.58a.61.61,0,0,0,.61-.61Zm-1.22,3h-2.36v-2.36h2.36Z"/><path class="cls-2" d="M647.51,202.64a.61.61,0,0,0-.61-.61h-3.58a.61.61,0,0,0-.61.61v3.58a.61.61,0,0,0,.61.61h3.58a.61.61,0,0,0,.61-.61Zm-1.22,3h-2.36v-2.36h2.36Z"/><path class="cls-2" d="M646.9,208.14h-3.58a.61.61,0,0,0-.61.61v3.59a.61.61,0,0,0,.61.61h3.58a.61.61,0,0,0,.61-.61v-3.59A.61.61,0,0,0,646.9,208.14Zm-.61,3.59h-2.36v-2.36h2.36Z"/><path class="cls-3" d="M133.52,200.81a.57.57,0,0,0-.57.58v18a.57.57,0,1,0,1.14,0v-18A.57.57,0,0,0,133.52,200.81Z"/><path class="cls-3" d="M98.81,200.81a.58.58,0,0,0-.58.58v18a.58.58,0,0,0,.58.58.57.57,0,0,0,.57-.58v-18A.57.57,0,0,0,98.81,200.81Z"/><path class="cls-3" d="M120.11,206.37H112a.57.57,0,0,0-.57.58v12.43a.57.57,0,0,0,.57.58.58.58,0,0,0,.58-.58V207.52h7v11.86a.58.58,0,1,0,1.15,0V207A.58.58,0,0,0,120.11,206.37Z"/><path class="cls-3" d="M137,194.67l-3.25-10a.58.58,0,0,0-.55-.4H98.84a.58.58,0,0,0-.55.4L95,194.77v0s0,0,0,.06v.06s0,0,0,0,0,0,0,0h0a4.65,4.65,0,0,0,4.67,4.56,4.7,4.7,0,0,0,4.1-2.4,4.7,4.7,0,0,0,8.2,0,4.7,4.7,0,0,0,8.2,0,4.69,4.69,0,0,0,8.19,0,4.69,4.69,0,0,0,8.78-2.21A.54.54,0,0,0,137,194.67Zm-37.39,3.74A3.49,3.49,0,0,1,96.13,195l3.12-9.62h5.64l-1.71,9.44v.05s0,0,0,0A3.49,3.49,0,0,1,99.65,198.41Zm8.2,0a3.51,3.51,0,0,1-3.53-3.42l1.73-9.58H112l-.58,9.51h0v0A3.49,3.49,0,0,1,107.85,198.41Zm8.2,0a3.5,3.5,0,0,1-3.53-3.45l.58-9.55H119l.57,9.55A3.49,3.49,0,0,1,116.05,198.41Zm8.2,0a3.5,3.5,0,0,1-3.53-3.46v0h0l-.57-9.51H126l1.73,9.58A3.5,3.5,0,0,1,124.25,198.41Zm8.19,0a3.49,3.49,0,0,1-3.52-3.46.09.09,0,0,0,0,0v-.05l-1.7-9.44h5.61l3.14,9.65A3.49,3.49,0,0,1,132.44,198.41Z"/><path class="cls-3" d="M155.86,172a21.46,21.46,0,0,0-9.67-2,21,21,0,0,0-9.56,2.09c-1.87,1-3.93,2.73-3.79,5.06.19,3.13,3.63,4.86,6.33,5.73a2.88,2.88,0,0,1-1.58,1.56c-.45.19-.25.83.13,1a4.3,4.3,0,0,0,3.42-.26,4,4,0,0,0,1.18-1c.17-.2.29-.42.44-.62h.32c.38,0,.75.1,1.12.15a15.53,15.53,0,0,0,1.8.11,25.76,25.76,0,0,0,2.91-.13c2.94-.29,6.25-.86,8.69-2.66a5.08,5.08,0,0,0,2.27-4.06C159.84,174.64,157.79,173,155.86,172Zm-13.12,11.56c-.07.05-.09,0,0,0Zm10.52-1.7a23.8,23.8,0,0,1-9.49.75,3.61,3.61,0,0,0-1.31-.06c-.53.12-.64.63-1,1a3.05,3.05,0,0,1-2.22,1,3.84,3.84,0,0,0,1.07-1.9.54.54,0,0,0-.37-.64,13.47,13.47,0,0,1-4.07-1.88,4.66,4.66,0,0,1-1.94-2.57c-.47-2,1.32-3.52,2.84-4.38a18.55,18.55,0,0,1,8.33-2.12,22.19,22.19,0,0,1,9.13,1.33c1.89.74,4.53,2.2,4.56,4.55C158.79,179.88,155.62,181.21,153.26,181.87Z"/><path class="cls-3" d="M149.87,172.81l-4.82,5.74-1.84-2.08a.66.66,0,0,0-1,.88l2.35,2.64a.64.64,0,0,0,.49.22h0a.65.65,0,0,0,.49-.23l5.31-6.32a.66.66,0,0,0-.08-.93A.67.67,0,0,0,149.87,172.81Z"/><path class="cls-4" d="M492,194.82a1.45,1.45,0,0,0,1.13-.53l2.1,1a1.55,1.55,0,0,0,0,.31,1.48,1.48,0,0,0,2.95,0,1.42,1.42,0,0,0-.35-.94l3-4a1.56,1.56,0,0,0,.57.11,1.47,1.47,0,0,0,1.09-.49l2.16,1.15a1.34,1.34,0,0,0-.05.35,1.48,1.48,0,1,0,.38-1l-2.15-1.14a2.2,2.2,0,0,0,0-.36,1.47,1.47,0,1,0-2.61.94l-3,4a1.46,1.46,0,0,0-1.69.43l-2.1-1a1.45,1.45,0,0,0,0-.3,1.48,1.48,0,1,0-1.47,1.47ZM506,191a.77.77,0,0,1,.77.76.78.78,0,0,1-.77.77.77.77,0,0,1-.76-.77A.76.76,0,0,1,506,191Zm-4.67-2.48a.76.76,0,1,1,0,1.52.76.76,0,1,1,0-1.52Zm-4.68,6.34a.77.77,0,1,1,0,1.53.77.77,0,0,1,0-1.53ZM492,192.59a.76.76,0,1,1-.77.76A.76.76,0,0,1,492,192.59Z"/><path class="cls-4" d="M497.81,198.23h-2.23a.38.38,0,0,0-.38.38v4.51a.38.38,0,1,0,.76,0V199h1.46v4.13a.39.39,0,0,0,.77,0v-4.51A.39.39,0,0,0,497.81,198.23Z"/><path class="cls-4" d="M507.16,194.31h-2.23a.38.38,0,0,0-.38.38v8.43a.38.38,0,0,0,.76,0v-8h1.46v8a.39.39,0,0,0,.39.38.38.38,0,0,0,.38-.38v-8.43A.38.38,0,0,0,507.16,194.31Z"/><path class="cls-4" d="M493.13,195.93H490.9a.39.39,0,0,0-.38.38v6.81a.38.38,0,0,0,.38.38.39.39,0,0,0,.39-.38V196.7h1.46v6.42a.38.38,0,0,0,.76,0v-6.81A.39.39,0,0,0,493.13,195.93Z"/><path class="cls-4" d="M502.48,192.48h-2.23a.38.38,0,0,0-.38.38v10.26a.39.39,0,0,0,.77,0v-9.88h1.46v9.88a.38.38,0,0,0,.76,0V192.86A.38.38,0,0,0,502.48,192.48Z"/><path class="cls-4" d="M472.17,209.58H456.3a.41.41,0,0,0-.41.41.41.41,0,0,0,.41.42h15.87a.42.42,0,0,0,.42-.42A.41.41,0,0,0,472.17,209.58Z"/><path class="cls-4" d="M454.65,209.58h-2.34a.41.41,0,0,0-.41.41.41.41,0,0,0,.41.42h2.34a.41.41,0,0,0,.41-.42A.41.41,0,0,0,454.65,209.58Z"/><path class="cls-4" d="M472.17,205.17H459.84a.41.41,0,0,0-.41.41.42.42,0,0,0,.41.42h12.33a.42.42,0,0,0,.42-.42A.41.41,0,0,0,472.17,205.17Z"/><path class="cls-4" d="M452.31,206H458a.41.41,0,0,0,.41-.42.41.41,0,0,0-.41-.41h-5.71a.41.41,0,0,0-.41.41A.41.41,0,0,0,452.31,206Z"/><path class="cls-4" d="M472.17,200.76h-4a.41.41,0,0,0-.42.41.42.42,0,0,0,.42.42h4a.42.42,0,0,0,.42-.42A.41.41,0,0,0,472.17,200.76Z"/><path class="cls-4" d="M452.31,201.59h14.35a.42.42,0,0,0,.41-.42.41.41,0,0,0-.41-.41H452.31a.41.41,0,0,0-.41.41A.41.41,0,0,0,452.31,201.59Z"/><path class="cls-4" d="M472.17,196.35h-4.59a.41.41,0,0,0-.41.41.41.41,0,0,0,.41.42h4.59a.42.42,0,0,0,.42-.42A.41.41,0,0,0,472.17,196.35Z"/><path class="cls-4" d="M452.31,197.18h13.42a.42.42,0,0,0,.42-.42.41.41,0,0,0-.42-.41H452.31a.41.41,0,0,0-.41.41A.41.41,0,0,0,452.31,197.18Z"/><path class="cls-4" d="M472.17,191.94H456.79a.41.41,0,0,0-.42.41.42.42,0,0,0,.42.42h15.38a.42.42,0,0,0,.42-.42A.41.41,0,0,0,472.17,191.94Z"/><path class="cls-4" d="M452.31,192.77h2.63a.42.42,0,0,0,.41-.42.41.41,0,0,0-.41-.41h-2.63a.41.41,0,0,0-.41.41A.41.41,0,0,0,452.31,192.77Z"/><path class="cls-4" d="M476.85,186.58v-.09s0,0,0,0,0,0,0,0l0,0,0,0,0,0-6.09-6.23h0a.27.27,0,0,0-.08-.07h0a.37.37,0,0,0-.18,0H448a.41.41,0,0,0-.41.42v37.81a.41.41,0,0,0,.41.42h28.4a.42.42,0,0,0,.42-.42V186.61S476.85,186.59,476.85,186.58Zm-28.39,31.2v-37h21.48v5.82a.41.41,0,0,0,.42.41h3.41a.41.41,0,0,0,.42-.41.42.42,0,0,0-.42-.42h-3V181.4l5.26,5.38v31Z"/><path class="cls-4" d="M508.67,209.58H492.79a.41.41,0,0,0-.41.41.42.42,0,0,0,.41.42h15.88a.41.41,0,0,0,.41-.42A.41.41,0,0,0,508.67,209.58Z"/><path class="cls-4" d="M491.14,209.58h-2.33a.41.41,0,0,0-.42.41.42.42,0,0,0,.42.42h2.33a.42.42,0,0,0,.42-.42A.41.41,0,0,0,491.14,209.58Z"/><path class="cls-4" d="M508.67,205.17H496.34a.41.41,0,0,0-.42.41.42.42,0,0,0,.42.42h12.33a.41.41,0,0,0,.41-.42A.41.41,0,0,0,508.67,205.17Z"/><path class="cls-4" d="M488.81,206h5.7a.42.42,0,0,0,.42-.42.41.41,0,0,0-.42-.41h-5.7a.41.41,0,0,0-.42.41A.42.42,0,0,0,488.81,206Z"/><path class="cls-4" d="M513.35,186.58a.09.09,0,0,0,0-.05.06.06,0,0,0,0,0v0l0,0,0,0,0,0,0,0-6.08-6.23h0l-.09-.07h0a.41.41,0,0,0-.19,0H484.54a.42.42,0,0,0-.42.42v37.81a.42.42,0,0,0,.42.42h28.4a.42.42,0,0,0,.41-.42V186.58ZM485,217.78v-37h21.49v5.82a.41.41,0,0,0,.41.41h3.42a.41.41,0,0,0,.41-.41.41.41,0,0,0-.41-.42h-3V181.4l5.25,5.38v31Z"/><path class="cls-5" d="M832.61,209c-3.15.84-5.13,3.65-4.43,6.27s3.82,4.07,7,3.22,5.13-3.65,4.43-6.27S835.75,208.17,832.61,209Zm1.78,6.64a2,2,0,1,1,1.77-2.51A2.19,2.19,0,0,1,834.39,215.66Z"/><rect class="cls-5" x="841.09" y="206.44" width="3.56" height="9.83" transform="translate(-25.98 225.25) rotate(-14.99)"/><polygon class="cls-5" points="847.05 210.89 843.92 211.73 843.58 210.66 846.16 205.38 850.68 204.17 847.05 210.89"/><polygon class="cls-5" points="846.72 209.66 843.59 210.5 843.83 211.6 849.3 214.72 853.82 213.51 846.72 209.66"/><path class="cls-5" d="M857.3,207.49c-1.67-6.25-7.84-10.46-15.36-10.5a16.21,16.21,0,0,1-1.92,2.79c.6-.06,1.21-.09,1.81-.09,6.33,0,11.5,3.41,12.86,8.5a11.07,11.07,0,0,1-1.9,9.31,16.56,16.56,0,0,1-9.28,6.25,17.82,17.82,0,0,1-4.61.62c-6.33,0-11.5-3.42-12.87-8.5a10.75,10.75,0,0,1,1-7.86,21.13,21.13,0,0,1-3.24.69,13.1,13.1,0,0,0-.38,7.86c1.68,6.28,7.9,10.5,15.47,10.5a20.49,20.49,0,0,0,5.31-.7A19.23,19.23,0,0,0,855,219.05,13.68,13.68,0,0,0,857.3,207.49Z"/><path class="cls-5" d="M840.05,191.1,838.84,189c-1.3-2.27-5.38-2.5-10-.87-1.63-2.73-2.34-2.6-3.27-2.91a2.44,2.44,0,0,1-1.5-1.41l-1.28-2.21c1.79-1.6,2.66-3.35,2-4.44a1.24,1.24,0,0,0-.17-.23l-2.85-3.43c-.76-1.33-3.74-1-6.64.64s-4.64,4.11-3.87,5.43l1.54,4.18a1.23,1.23,0,0,0,.12.26c.63,1.09,2.58,1.21,4.86.47l1.27,2.2a2.43,2.43,0,0,1,.47,2c-.2,1-.66,1.51.89,4.29-3.73,3.21-5.58,6.86-4.27,9.13l1.21,2.08c1.71,3,8.18,2.44,14.45-1.18S841.76,194.07,840.05,191.1Z"/><polygon class="cls-5" points="868.16 197.69 858.23 199.16 866.4 194.8 868.16 197.69"/><polygon class="cls-5" points="862.88 189.19 855.44 196.24 859.51 186.84 862.88 189.19"/><polygon class="cls-5" points="853.04 185.44 851.73 194.62 849.72 184.78 853.04 185.44"/><path class="cls-6" d="M78.79,311.38v3.09a34.67,34.67,0,0,0,3.42-.78v1A54.19,54.19,0,0,1,76.5,316l-.6.14-.24-1.25h.12a18.28,18.28,0,0,0,1.89-.19v-7c0-.39,0-.86,0-1.1a18.12,18.12,0,0,1-2.09,1,3,3,0,0,0-.59-1.12,15,15,0,0,0,3.91-1.92,10,10,0,0,0,2.34-2.15h1.24a10.88,10.88,0,0,0,2.69,2.3,16.12,16.12,0,0,0,3.78,1.75,4.87,4.87,0,0,0-.63,1.16,17.32,17.32,0,0,1-2.18-1.05,8.93,8.93,0,0,0,0,.94v2.73a10.64,10.64,0,0,0,0,1.08l.5-.52,1,.63a25,25,0,0,1-2.88,2.26,12.08,12.08,0,0,0,3.9,1.23,5.42,5.42,0,0,0-.6,1.17,12.36,12.36,0,0,1-5.28-2.43,7.53,7.53,0,0,1-2-2.28Zm5.85-5.16h.86a14.19,14.19,0,0,1-3.66-2.91,13.82,13.82,0,0,1-3.51,2.91h2.94v-.48a4.86,4.86,0,0,0-.09-1.08h1.24a5.28,5.28,0,0,0-.07,1.08v.48Zm-5.85,2.06H85v-1.1h-6.2Zm0,2.16H85v-1.23h-6.2Zm3.27.94a5.85,5.85,0,0,0,1.76,1.74,13.38,13.38,0,0,0,2.2-1.71c-.27,0-.73,0-1.27,0Z"/><path class="cls-6" d="M92.16,310.78a12.67,12.67,0,0,0-.06-1.44,11.82,11.82,0,0,0,1.41.06h2.95c.47,0,.81,0,1.19,0a8.67,8.67,0,0,0-.05,1.38v3.61a12.29,12.29,0,0,0,.06,1.44H96.51v-.63H93.28v.9h-1.2a9,9,0,0,0,.08-1.57Zm1.11,3.38h3.24v-3.75H93.27Zm1-10.05a9.81,9.81,0,0,0-.06-1.28,12.55,12.55,0,0,0,1.7.08H101a11.46,11.46,0,0,0,1.7-.08,9.29,9.29,0,0,0-.06,1.28v2.59a10,10,0,0,0,.06,1.34,13.12,13.12,0,0,0-1.58-.06H95.79a13.32,13.32,0,0,0-1.58.06,10.38,10.38,0,0,0,.06-1.32ZM95.41,307h6.09v-3H95.41ZM99,310.62a8,8,0,0,0,0-1.26c.36,0,.69,0,1.19,0h3.39a8.93,8.93,0,0,0,1.3-.06c0,.41-.06.86-.06,1.46v3.69a9.51,9.51,0,0,0,.08,1.57h-1.2v-.9h-3.56v.9H98.94a12.49,12.49,0,0,0,.06-1.42Zm1.09,3.54h3.57v-3.75h-3.57Z"/><path class="cls-6" d="M113.19,305.64c.16-.45.22-.63.37-1.16h-.25a8.15,8.15,0,0,0-1.22.08v-1a7.75,7.75,0,0,0,1.25.07h.46a7.51,7.51,0,0,0,.24-1.27l1.1.15a2.22,2.22,0,0,0-.12.45c0,.13,0,.18-.18.67H116c.6,0,1,0,1.27,0,0,.31,0,.66,0,1.06v1a5.07,5.07,0,0,0,.93-.08v.89a5.65,5.65,0,0,0,.82,0h1.8a5,5,0,0,0,1.08-.07v1.15a5.45,5.45,0,0,0-1.08-.07h-.19v7c0,1.08-.29,1.29-1.74,1.29l-1,0a3.29,3.29,0,0,0-.23-1.13,9.71,9.71,0,0,0,1.41.14c.35,0,.44-.08.44-.32v-7H119a3.86,3.86,0,0,0-.9.07v-1a7.52,7.52,0,0,0-1-.06h-4.16a7,7,0,0,0-1.24.08v0l-.41.69a11.64,11.64,0,0,1-.67,1v5.9a9.6,9.6,0,0,0,.09,1.72H109.4a11.66,11.66,0,0,0,.08-1.75V311c0-.55,0-1,0-1.6a9.38,9.38,0,0,1-1.14,1.2,3.55,3.55,0,0,0-.56-1.07,8.43,8.43,0,0,0,2.25-2.43,4.89,4.89,0,0,0,.65-1.29l.9.53v-.74a6,6,0,0,0,1.21.08ZM111.7,303c-.18.21-.18.21-.57.72a13,13,0,0,1-2.5,2.52,3.3,3.3,0,0,0-.63-.94,8.17,8.17,0,0,0,2.69-2.93Zm1.74,7.11c-.58,0-.94,0-1.33.05a8.31,8.31,0,0,0,0-1v-.9a7.21,7.21,0,0,0,0-.89,10.45,10.45,0,0,0,1.12.05h3c.58,0,.94,0,1.27-.05a9,9,0,0,0,0,1v.78a8.75,8.75,0,0,0,0,1c-.28,0-.75-.05-1.29-.05H116V311h.61c.54,0,.89,0,1.35-.06v1a13.25,13.25,0,0,0-1.35-.06H116v1.19h.88a10.52,10.52,0,0,0,1.43-.08v1.05A12.43,12.43,0,0,0,117,314h-1v.64a8.83,8.83,0,0,0,.09,1.34h-1.19a8.83,8.83,0,0,0,.09-1.34V314h-2.34a10.22,10.22,0,0,0-1.41.07v-1a9,9,0,0,0,1.19.06v-1.19l-.84.06v-1c.48,0,.85.06,1.35.06h2v-.92Zm-.25-.82h3.3v-1h-3.3Zm.19,3.81H115v-1.19h-1.59Zm2.85-7.44v-1.16H114.6c-.15.51-.23.71-.39,1.16Zm5.33-1.26a4.92,4.92,0,0,0-1-.08h-1.62a6.06,6.06,0,0,0-.79.06v-1.14a5.53,5.53,0,0,0,1,.08h1.41a5.49,5.49,0,0,0,1-.08Z"/><path class="cls-6" d="M127.68,306.55a14.75,14.75,0,0,1-2,3.17,3.56,3.56,0,0,0-1-.8,12.08,12.08,0,0,0,2.63-4.56,4.3,4.3,0,0,0,.33-1.41l1.29.35a8.56,8.56,0,0,0-.28.82c-.08.24-.33.92-.49,1.35h2.92V304a10.62,10.62,0,0,0-.11-1.65h1.4a10,10,0,0,0-.09,1.65v1.45h3.54a15.76,15.76,0,0,0,1.8-.09v1.26a16.91,16.91,0,0,0-1.77-.09h-3.57v3.06h2.92a12,12,0,0,0,1.68-.09v1.25a12.63,12.63,0,0,0-1.68-.09h-2.92v3.69h4a12.22,12.22,0,0,0,1.86-.11v1.29a14.74,14.74,0,0,0-1.83-.1h-9.51a15.53,15.53,0,0,0-1.87.1v-1.29a12.63,12.63,0,0,0,1.84.11h4.28v-3.69h-2.61a11.93,11.93,0,0,0-1.65.09v-1.25a11.13,11.13,0,0,0,1.63.09h2.63v-3.06Z"/><path class="cls-6" d="M142.86,312.24a12.18,12.18,0,0,0-.06-1.25,11,11,0,0,0,1.38.06h7.5a13.09,13.09,0,0,0,1.44-.06,6.74,6.74,0,0,0-.08,1.19v2.4h.5a9,9,0,0,0,1.18-.06v1.14a14.61,14.61,0,0,0-1.56-.08H142.81a11.74,11.74,0,0,0-1.52.08v-1.14a8.77,8.77,0,0,0,1.12.06h.45Zm2.91-3.09h1.33a10.68,10.68,0,0,0,1.2,0v1a7.56,7.56,0,0,0-1.18-.06h-4c-.6,0-.87,0-1.28,0a9,9,0,0,0,.05-1.17v-4.87a8.47,8.47,0,0,0-.05-1.1c.39,0,.66,0,1.22,0h3.82a8.2,8.2,0,0,0,1.38-.08V304a9.12,9.12,0,0,0-1.14-.06h-1.39v1.19h1a7.22,7.22,0,0,0,1,0c0,.24,0,.46,0,.76v1.28c0,.28,0,.55,0,.75-.18,0-.48,0-.95,0h-1Zm-1-4V304H143v1.19Zm1.92,1.89V306H143v1.05Zm-3.75.84v1.26h1.83v-1.26Zm1,6.69h1.94V312H144Zm3,0h2V312h-2Zm3.11-9.06a8.83,8.83,0,0,1-1.29,1.81,3,3,0,0,0-.84-.72,7.48,7.48,0,0,0,1.89-3.24,4.79,4.79,0,0,0,.22-1l1.2.24c0,.13-.07.21-.24.66,0,.13-.15.42-.46,1.21h2.71a8.47,8.47,0,0,0,1.34-.09v1.2a8.24,8.24,0,0,0-1.32-.07Zm-.9,2.29a7.22,7.22,0,0,0,1.15.06h2.49a8.17,8.17,0,0,0,1.32-.07V309a7.53,7.53,0,0,0-1.3-.08h-2.33a8.54,8.54,0,0,0-1.33.08Zm.82,6.77h2V312h-2Z"/><path class="cls-6" d="M163.81,303.57a5.28,5.28,0,0,0-.09-1.19H165a5.5,5.5,0,0,0-.09,1.17v.32h4.47a11.22,11.22,0,0,0,1.58-.09V305a12.15,12.15,0,0,0-1.58-.09h-3.51a11.41,11.41,0,0,0,5.64,3.08,4.74,4.74,0,0,0-.67,1.12,14.66,14.66,0,0,1-2.19-.93c0,.32,0,.93,0,1.5v4.82h1a9.3,9.3,0,0,0,1.57-.09v1.2a12.14,12.14,0,0,0-1.65-.09H159.44a12.67,12.67,0,0,0-1.67.09v-1.2a11.11,11.11,0,0,0,1.61.09h.92v-5c0-.6,0-1,0-1.39a14.69,14.69,0,0,1-2.07,1,3.7,3.7,0,0,0-.67-1,12.75,12.75,0,0,0,5.29-3.18h-3.24A11.72,11.72,0,0,0,158,305v-1.18a10.89,10.89,0,0,0,1.62.09h4.18Zm0,2.44c0-.25,0-.6,0-.9a11.74,11.74,0,0,1-3.4,2.88c.36,0,.92,0,1.42,0H167c.54,0,.75,0,1.38,0a10.52,10.52,0,0,1-3.51-2.88c0,.09,0,.39,0,.9v.63a4.47,4.47,0,0,0,.08,1h-1.23a6.25,6.25,0,0,0,.07-1Zm-2.4,4.16h6.06V309h-6.06Zm0,2.11h6.06v-1.17h-6.06Zm0,2.18h6.06v-1.23h-6.06Z"/><path class="cls-6" d="M90.4,334a20.12,20.12,0,0,0,4.7-1.51,9,9,0,0,0,2.31-1.35l.88,1.21a5.34,5.34,0,0,0-.64.32,25.91,25.91,0,0,1-4.35,1.84,20.41,20.41,0,0,1-2.9.69v2.12a.46.46,0,0,1,0,.1v.17c0,1,.06,1.33.3,1.57s1.21.45,2.82.45a31,31,0,0,0,3.46-.24,9.63,9.63,0,0,0,1.53-.3l.09,1.41-.66.08a44.77,44.77,0,0,1-4.75.28c-1.86,0-2.85-.18-3.41-.63a2,2,0,0,1-.64-1.45,9.93,9.93,0,0,1,0-1.23v-6.75a9.6,9.6,0,0,0-.07-1.47h1.48a8.72,8.72,0,0,0-.09,1.48Z"/><path class="cls-6" d="M108.42,332.43a4.93,4.93,0,0,0-.06,1.1c-.06,2.53-.47,4-1.49,5.29a8.48,8.48,0,0,1-3.85,2.63,3.62,3.62,0,0,0-.83-1.22,7.1,7.1,0,0,0,2.7-1.33c1.58-1.28,2.13-2.73,2.13-5.64a3.35,3.35,0,0,0-.06-.83Zm6-1.89a3.42,3.42,0,0,0-.38.63,9.16,9.16,0,0,1-4.35,4.38,3.68,3.68,0,0,0-.91-1,6.7,6.7,0,0,0,2.32-1.41,7.44,7.44,0,0,0,1.61-2.13h-8.34a15.41,15.41,0,0,0-1.85.07v-1.36a12.75,12.75,0,0,0,1.88.1h8a3.51,3.51,0,0,0,1.32-.1Z"/><path class="cls-6" d="M120.09,329.27a10.42,10.42,0,0,0-.06,1.41v3.67a11.48,11.48,0,0,0,.06,1.52H118.6a10.43,10.43,0,0,0,.08-1.52v-3.66a8.51,8.51,0,0,0-.08-1.42Zm6.69,0a8.36,8.36,0,0,0-.08,1.47v1.7a16.79,16.79,0,0,1-.39,4.57,5.72,5.72,0,0,1-2.86,3.39,12.89,12.89,0,0,1-2.79,1.08,3.46,3.46,0,0,0-.75-1.24,8,8,0,0,0,3.21-1.22,4.52,4.52,0,0,0,2.17-4c0-.64.06-1,.06-2.67v-1.6a9.44,9.44,0,0,0-.06-1.49Z"/><path class="cls-6" d="M131.44,339.44a13.68,13.68,0,0,0,4.4-1.13,11.23,11.23,0,0,0,6.07-6.67,3.86,3.86,0,0,0,1.11,1,13.09,13.09,0,0,1-4.63,5.78,15.3,15.3,0,0,1-5.63,2.25,6.82,6.82,0,0,0-.93.24Zm1.05-9.3a20,20,0,0,1,3.69,2.85l-.91,1.12a17,17,0,0,0-3.66-3Z"/><path class="cls-6" d="M156.94,331.59a1.8,1.8,0,0,0-.25.62,15.41,15.41,0,0,1-3,5.68,14.77,14.77,0,0,1-5.25,3.77,2.7,2.7,0,0,0-.9-1.08,12.68,12.68,0,0,0,5.25-3.71,13.13,13.13,0,0,0,2.57-4.89l-4.91.08a15,15,0,0,1-3.55,3.87,2.85,2.85,0,0,0-1-.92,11.39,11.39,0,0,0,3.79-4.18,6.18,6.18,0,0,0,.9-2.13L152,329a2.46,2.46,0,0,0-.33.59,13.9,13.9,0,0,1-.66,1.3,1.31,1.31,0,0,1,.38,0h.18l3.85-.06a1.7,1.7,0,0,0,.65-.08Zm-.34-2.77a9.32,9.32,0,0,1,1.3,2l-.88.42a8.93,8.93,0,0,0-1.28-2.07Zm1.51-.57a9.67,9.67,0,0,1,1.29,2l-.87.44a9.81,9.81,0,0,0-1.27-2.06Z"/><path class="cls-6" d="M93.06,356.26a7.59,7.59,0,0,0-1.26.07v-1.18a6.5,6.5,0,0,0,1.31.09h2.21a6.08,6.08,0,0,0,1.26-.09v1.17a8.48,8.48,0,0,0-1.2-.06h-.6v3.36h.6a7,7,0,0,0,1-.06v1.11a6.53,6.53,0,0,0-1-.06h-.6V364c.56-.24.92-.42,1.85-.9v1.13a27,27,0,0,1-3.88,1.72l-.8.33L91.62,365a13.71,13.71,0,0,0,2-.6v-3.81H93a5.34,5.34,0,0,0-1,.07v-1.14a4.94,4.94,0,0,0,1,.08h.64v-3.36Zm5.52,7c-.63,0-1,0-1.46,0,0-.39,0-.88,0-1.51v-5.42a13.85,13.85,0,0,0-.06-1.51,12.39,12.39,0,0,0,1.48.06h4.28a12.37,12.37,0,0,0,1.42-.06,13.85,13.85,0,0,0-.06,1.51v5.37c0,.74,0,1.13.06,1.58a9.62,9.62,0,0,0-1.44-.06h-.58v3.28c0,.26.07.3.52.3l.42,0h.09c.57,0,.81-.06.89-.21a6.32,6.32,0,0,0,.19-1.85,6,6,0,0,0,1.05.47c-.21,2.49-.33,2.62-2.35,2.62-1.62,0-1.92-.16-1.92-1.05v-3.58H100a5.28,5.28,0,0,1-1.15,3,6.45,6.45,0,0,1-3.15,2,3.61,3.61,0,0,0-.74-1,6.47,6.47,0,0,0,1.7-.63,3.92,3.92,0,0,0,2.23-3.36Zm-.32-5.88h4.88v-1.46H98.26Zm0,2.41h4.88v-1.44H98.26Zm0,2.51h4.88v-1.52H98.26Z"/><path class="cls-6" d="M110,356.23a12.22,12.22,0,0,0-.09-1.68h1.29a11.17,11.17,0,0,0-.08,1.69v2.15h.38a5,5,0,0,0,1.14-.08v1.16a8,8,0,0,0-1.17-.06h-.35v4.53c.58-.27.83-.41,1.6-.83l.07,1.11a26.13,26.13,0,0,1-3.86,1.82,5.08,5.08,0,0,0-.61.24l-.27-1.22a8.29,8.29,0,0,0,1.95-.64v-5h-.49a6.75,6.75,0,0,0-1.23.07V358.3a5.48,5.48,0,0,0,1.23.09H110Zm4.8,9.67c0,.33.09.45.42.54a11.15,11.15,0,0,0,2.36.14c2,0,2.61-.09,2.85-.42a4.32,4.32,0,0,0,.3-2,2.92,2.92,0,0,0,1.14.42c-.18,2.85-.45,3-4.47,3-3.09,0-3.72-.25-3.72-1.45v-5.42l-.2.06a9.3,9.3,0,0,0-1.27.48l-.32-1.18a6,6,0,0,0,1.35-.32l.44-.13V357.4a11,11,0,0,0-.09-1.55h1.3a9.43,9.43,0,0,0-.09,1.5v2l2-.65v-2.73a9.88,9.88,0,0,0-.09-1.42H118a10.53,10.53,0,0,0-.09,1.45v2.34l2.26-.73a12.28,12.28,0,0,0,1.2-.45c-.1,1.5-.1,1.5-.15,2.52a9.86,9.86,0,0,1-.4,3.34,1.42,1.42,0,0,1-1.41.66c-.21,0-.39,0-.75,0a3.54,3.54,0,0,0-.27-1.11,4.69,4.69,0,0,0,1.09.13c.33,0,.41-.07.48-.54a30.31,30.31,0,0,0,.23-3.46l-2.28.75v4a8,8,0,0,0,.09,1.46h-1.28a10.24,10.24,0,0,0,.09-1.49v-3.64l-2,.66Z"/><path class="cls-6" d="M124.79,357A6.52,6.52,0,0,0,126,357h2.48a6,6,0,0,0,1.2-.08v1.14a7.35,7.35,0,0,0-1.1-.06H126a10,10,0,0,0-1.19.06Zm.42,11c0-.4.07-1,.07-1.45v-2.09a9.24,9.24,0,0,0-.06-1.21,5.34,5.34,0,0,0,1,.06h2.15l.91,0a8.38,8.38,0,0,0,0,1.12v2.39c0,.51,0,.75,0,1h-1v-.63h-2V368Zm.06-8.89a6.14,6.14,0,0,0,1,.06h2a5.78,5.78,0,0,0,1-.06v1.08a5.38,5.38,0,0,0-1-.06h-2a5.3,5.3,0,0,0-1,.06Zm0,2.07a6.14,6.14,0,0,0,1,.06h2a5.78,5.78,0,0,0,1-.06v1.08a5.5,5.5,0,0,0-1-.06h-2a5.13,5.13,0,0,0-1,.06Zm0-6.3a5.71,5.71,0,0,0,1.13.07h1.8a5.66,5.66,0,0,0,1.12-.07V356a7.41,7.41,0,0,0-1.12-.06h-1.8a7.55,7.55,0,0,0-1.13.06Zm1,11.34h2v-2h-2Zm11.58.37a1.14,1.14,0,0,1-.41,1,2.25,2.25,0,0,1-1.26.22c-.34,0-.75,0-1.44-.06a3.52,3.52,0,0,0-.24-1.14,10.17,10.17,0,0,0,1.68.17c.5,0,.6-.08.6-.42V355.94H131.4v1.73a55.8,55.8,0,0,1-.38,7.48,9.7,9.7,0,0,1-.87,2.87,3,3,0,0,0-.91-.74,7.69,7.69,0,0,0,.81-2.8,59.79,59.79,0,0,0,.31-7.14,17,17,0,0,0-.09-2.45,11.59,11.59,0,0,0,1.5.06h4.65a10.87,10.87,0,0,0,1.49-.06,12.57,12.57,0,0,0-.06,1.55Zm-4.95-8.11a6.36,6.36,0,0,0-1,.06v-1a6.79,6.79,0,0,0,1,.06h.66v-.15a5.78,5.78,0,0,0-.07-1.11h1.11a5.45,5.45,0,0,0-.08,1.13v.13h.69a6.53,6.53,0,0,0,1.05-.06v1a6.11,6.11,0,0,0-1.05-.06h-.69v1.44h.87a4.8,4.8,0,0,0,1-.08v1a5.73,5.73,0,0,0-1-.06H132.7a5.39,5.39,0,0,0-1,.06v-1a4.34,4.34,0,0,0,1,.08h.84v-1.44Zm1.92,3.33a8.18,8.18,0,0,0,1.05-.05,7.63,7.63,0,0,0-.05.95v2a7.57,7.57,0,0,0,.05.94,8.71,8.71,0,0,0-1.05,0h-1.77v1h-1a7,7,0,0,0,.06-1.17v-2.64a9.21,9.21,0,0,0,0-1,9.55,9.55,0,0,0,1,.05Zm-1.77,2.82h1.84v-1.92h-1.84Z"/><path class="cls-6" d="M147.31,355.57a5.28,5.28,0,0,0-.09-1.19h1.26a5.5,5.5,0,0,0-.09,1.17v.32h4.47a11.22,11.22,0,0,0,1.58-.09V357a12.15,12.15,0,0,0-1.58-.09h-3.51A11.41,11.41,0,0,0,155,360a4.74,4.74,0,0,0-.67,1.12,14.66,14.66,0,0,1-2.19-.93c0,.32,0,.93,0,1.5v4.82h1a9.3,9.3,0,0,0,1.57-.09v1.2a12.14,12.14,0,0,0-1.65-.09H142.94a12.67,12.67,0,0,0-1.67.09v-1.2a11.11,11.11,0,0,0,1.61.09h.92v-5c0-.6,0-1,0-1.39a14.69,14.69,0,0,1-2.07,1,3.7,3.7,0,0,0-.67-1,12.75,12.75,0,0,0,5.29-3.18h-3.24a11.72,11.72,0,0,0-1.56.09v-1.18a10.89,10.89,0,0,0,1.62.09h4.18Zm0,2.44c0-.25,0-.6,0-.9a11.74,11.74,0,0,1-3.4,2.88c.36,0,.92,0,1.42,0h5.12c.54,0,.75,0,1.38,0a10.52,10.52,0,0,1-3.51-2.88c0,.09,0,.39,0,.9v.63a4.47,4.47,0,0,0,.08,1h-1.23a6.25,6.25,0,0,0,.07-1Zm-2.4,4.16H151V361h-6.06Zm0,2.11H151v-1.17h-6.06Zm0,2.18H151v-1.23h-6.06Z"/><path class="cls-6" d="M274.74,307a14.41,14.41,0,0,0,.06,1.61,14.67,14.67,0,0,0-1.65-.06H271v4c0,.56.17.63,1.27.63a4.23,4.23,0,0,0,1.55-.18c.31-.15.4-.58.4-2.17a4.51,4.51,0,0,0,1.14.49,4.56,4.56,0,0,1-.49,2.36c-.35.4-1.11.58-2.6.58-2,0-2.4-.22-2.4-1.42v-3.77a11.22,11.22,0,0,0-.07-1.63c.48,0,.87.06,1.54.06h2.35v-3.2h-2.42a11.28,11.28,0,0,0-1.54.08v-1.22a10.23,10.23,0,0,0,1.54.09h2a11.72,11.72,0,0,0,1.55-.07,13.66,13.66,0,0,0-.06,1.51Zm6.75-1.08a13.24,13.24,0,0,1-.48,2.9,11,11,0,0,1-1.52,3.27,9.85,9.85,0,0,0,1.74,1.62,8.22,8.22,0,0,0,1.94,1.15,4.26,4.26,0,0,0-.71,1.17,13,13,0,0,1-3.7-3,11.15,11.15,0,0,1-1.74,1.57,11.85,11.85,0,0,1-2.51,1.47,3.78,3.78,0,0,0-.7-1.09,10.17,10.17,0,0,0,4.29-2.87,10.24,10.24,0,0,1-1.65-4,13.9,13.9,0,0,1-1.07,1.68,3.09,3.09,0,0,0-.94-.69,12.37,12.37,0,0,0,2.55-5.42,8.47,8.47,0,0,0,.24-1.51l1.26.24a5.44,5.44,0,0,0-.26.94,14.72,14.72,0,0,1-.4,1.52h3.75a8.64,8.64,0,0,0,1.44-.09V306a8,8,0,0,0-1.38-.08Zm-4,0c-.15.38-.16.44-.33.81a10.26,10.26,0,0,0,1.65,4.41A9.33,9.33,0,0,0,280,308.5a11,11,0,0,0,.38-2.55Z"/><path class="cls-6" d="M290,303.79a8.56,8.56,0,0,0-1.05-1.36l1.11-.3a12.55,12.55,0,0,1,1.15,1.66H294a7,7,0,0,0,1.14-1.66l1.19.31a11.82,11.82,0,0,1-1.08,1.35h2a7.61,7.61,0,0,0,1.48-.09v1.08a14.67,14.67,0,0,0-1.48-.07H293v1h3.71a7.54,7.54,0,0,0,1.33-.07v1a8,8,0,0,0-1.33-.07H293v1h4.79a9.58,9.58,0,0,0,1.48-.08v1.08a8.5,8.5,0,0,0-1.48-.09H293v1.76h1.79a8.86,8.86,0,0,0,1-1.5l1.14.34a12.17,12.17,0,0,1-.95,1.16h1.76a8.43,8.43,0,0,0,1.48-.09v1.11a10,10,0,0,0-1.48-.09H287.42a10.24,10.24,0,0,0-1.49.09v-1.11a8.56,8.56,0,0,0,1.49.09h1.69a6.46,6.46,0,0,0-1-1.2l1.12-.33a9,9,0,0,1,1,1.53h1.65v-1.76h-4.45a8.92,8.92,0,0,0-1.49.09v-1.08a9.48,9.48,0,0,0,1.49.08h4.45v-1h-3.35a8,8,0,0,0-1.35.07v-1a7.73,7.73,0,0,0,1.35.07h3.35v-1H288a11,11,0,0,0-1.49.07V303.7a7.72,7.72,0,0,0,1.49.09ZM287.58,316a10.47,10.47,0,0,0,.09-1.39V313.2a7.42,7.42,0,0,0-.08-1.19,8.1,8.1,0,0,0,1.14.06h7.71a7.45,7.45,0,0,0,1.14-.06,7,7,0,0,0-.07,1.17v1.47a9.79,9.79,0,0,0,.09,1.38h-1.23v-.67h-7.58V316Zm1.21-1.62h7.58V313h-7.58Z"/><path class="cls-6" d="M304.59,303.91a8.64,8.64,0,0,0-.11-1.53h1.34a11,11,0,0,0-.09,1.5v1.43h.48a7.55,7.55,0,0,0,1.2-.08v1.17a8.32,8.32,0,0,0-1.22-.07h-.46v2.86c.52-.16.81-.25,1.69-.58l0,1c-.68.29-.86.35-1.71.65v4.47c0,.9-.39,1.14-1.77,1.14-.41,0-.63,0-1.13,0a3,3,0,0,0-.24-1.15,9.6,9.6,0,0,0,1.5.13c.39,0,.5-.09.5-.4v-3.77c-.53.17-.57.18-1.19.35a6.75,6.75,0,0,0-.76.25l-.26-1.24a12,12,0,0,0,2.21-.5v-3.19h-.87a7.9,7.9,0,0,0-1.2.07v-1.18a7.24,7.24,0,0,0,1.2.09h.87Zm4.57.42a14.77,14.77,0,0,0,5.25-1.5l.89,1a26,26,0,0,1-6.14,1.47v.95c0,.58.24.64,2.75.64s2.62,0,2.74-1.87a4.27,4.27,0,0,0,1.1.42c-.14,1.29-.33,1.8-.8,2.1s-1.15.37-3.6.37c-2.76,0-3.31-.22-3.31-1.35V303.9a9.66,9.66,0,0,0-.09-1.47h1.29a8.76,8.76,0,0,0-.08,1.41Zm-1.09,5.87A9.07,9.07,0,0,0,308,309a11.2,11.2,0,0,0,1.33.06h4.29A11.16,11.16,0,0,0,315,309a7.68,7.68,0,0,0-.06,1.21v4.31A9,9,0,0,0,315,316H313.8v-.78h-4.62V316H308a9,9,0,0,0,.08-1.48Zm1.11,1.38h4.62v-1.53h-4.62Zm0,2.67h4.62v-1.68h-4.62Z"/><path class="cls-6" d="M327,311.62a12.39,12.39,0,0,1-3.91-.33,2.54,2.54,0,0,1-1.35-1,21.71,21.71,0,0,1-2.33,1.54l-.5-1.06a11,11,0,0,0,2.27-1.26V307.3h-1a7.51,7.51,0,0,0-1.08.06v-1.05a6.07,6.07,0,0,0,1.18.08h.92a8.84,8.84,0,0,0,1.13-.06,8.64,8.64,0,0,0-.06,1.36v1.76c.58,1.05,1.32,1.29,4,1.29s5.16-.08,6.33-.21a2.3,2.3,0,0,0-.36,1l-2.7,0v.77h1a11.36,11.36,0,0,0,1.62-.09v1.12a11.77,11.77,0,0,0-1.64-.09h-1v1.59c0,.95-.29,1.11-2,1.11-.37,0-.63,0-1.15,0a2.85,2.85,0,0,0-.35-1.09,13.05,13.05,0,0,0,1.71.12c.57,0,.68-.06.68-.38V313.3h-5.55A12.33,12.33,0,0,1,325,315l-.87.78a8.56,8.56,0,0,0-2.05-1.89l.8-.62h-2.15a12.08,12.08,0,0,0-1.64.09v-1.12a11.36,11.36,0,0,0,1.62.09h7.76v-.75Zm-6.91-9.12a12.6,12.6,0,0,1,2.2,2l-.78.79a11.2,11.2,0,0,0-2.19-2.1Zm5.11,1.1a5.45,5.45,0,0,0-.84-1.16l1.1-.25a9,9,0,0,1,.88,1.41h1.71a9.82,9.82,0,0,0,.95-1.38l1.11.3c-.35.46-.57.76-.84,1.08h1.32a8.91,8.91,0,0,0,1.5-.08v1a13.76,13.76,0,0,0-1.5-.06h-2.81a6.9,6.9,0,0,1-.36.72h2.15c.75,0,1.12,0,1.44,0a8.43,8.43,0,0,0-.06,1.24v2.43a8.92,8.92,0,0,0,.06,1.31c-.32,0-.69-.05-1.25-.05h-4.63c-.59,0-1,0-1.47.05a11.24,11.24,0,0,0,0-1.2v-2.57a7.45,7.45,0,0,0-.06-1.21c.35,0,.77,0,1.56,0h1.07c.19-.34.24-.45.37-.72h-2.38a14.93,14.93,0,0,0-1.53.06v-1a8.81,8.81,0,0,0,1.47.08Zm-.49,3h5.22V306h-5.22Zm0,1.35h5.22v-.6h-5.22Zm0,1.38h5.22v-.64h-5.22Z"/><path class="cls-6" d="M269.34,334.29a6,6,0,0,0,1.16.08h.85a6.72,6.72,0,0,0,1.14-.08,11.94,11.94,0,0,0-.06,1.61V339a2.14,2.14,0,0,0,1.22,1.23,7.9,7.9,0,0,0,3.38.45,47.45,47.45,0,0,0,6.14-.27,4.85,4.85,0,0,0-.38,1.21c-2,.08-3.22.11-4.68.11a16.13,16.13,0,0,1-4.18-.29,3.8,3.8,0,0,1-2.1-1.59,12,12,0,0,1-1.68,1.46c-.25.19-.3.24-.59.49l-.56-1.2a9.19,9.19,0,0,0,2.32-1.69v-3.51h-.92a5.71,5.71,0,0,0-1.06.07Zm1.06-5.62a17.79,17.79,0,0,1,2.19,2.68l-.86.87a12.72,12.72,0,0,0-2.19-2.8Zm4.86,3.13a6.19,6.19,0,0,0-1.15.08v-.39H273a6.64,6.64,0,0,0,.07-.93v-.71a8,8,0,0,0-.06-.94,13.61,13.61,0,0,0,1.4.06h6.85c.59,0,1,0,1.41-.06a5.94,5.94,0,0,0-.06.93v.69a6.37,6.37,0,0,0,.06,1h-1.11v.39a6,6,0,0,0-1.14-.08H278.2v.9h2.45a7.57,7.57,0,0,0,1.17-.06,6.71,6.71,0,0,0-.05,1v2.41a6.38,6.38,0,0,0,.05,1,11,11,0,0,0-1.19-.06H278.2V338h3.15a7,7,0,0,0,1.26-.08V339a8,8,0,0,0-1.29-.07H278.2V339a9.43,9.43,0,0,0,.08,1.26h-1.17a10.26,10.26,0,0,0,.09-1.25v-.13h-2.87a7.22,7.22,0,0,0-1.22.07v-1.05a7.36,7.36,0,0,0,1.21.08h2.88v-.95H275a9.64,9.64,0,0,0-1.17.06,6.88,6.88,0,0,0,.06-1v-2.41a7.37,7.37,0,0,0-.06-1,7.72,7.72,0,0,0,1.17.06h2.19v-.9Zm1.92-.87a2.76,2.76,0,0,0-.06-.69h1.16a2.56,2.56,0,0,0-.08.69h2.3a5.53,5.53,0,0,0,1-.06v-1h-7.41v1a5.66,5.66,0,0,0,1.11.07Zm-2.26,2.58v1h2.28v-1Zm0,1.76v1h2.28v-1Zm3.28-.8h2.54v-1H278.2Zm0,1.76h2.54v-1H278.2Z"/><path class="cls-6" d="M289.09,330.39a8.73,8.73,0,0,0-1.09-1.63l1.13-.29a14,14,0,0,1,1.21,1.92h1.89a12,12,0,0,0-1-1.87l1.16-.23a16.85,16.85,0,0,1,1,2.1h1.44a9.53,9.53,0,0,0,1.21-2.1l1.19.36a16.94,16.94,0,0,1-1.14,1.74h1.12a14.88,14.88,0,0,0,1.65-.06,11.08,11.08,0,0,0-.06,1.28v1.23a6.51,6.51,0,0,0,.08,1.11h-1.2v-2.58H287.49V334h-1.2a9.84,9.84,0,0,0,.07-1.1v-1.23c0-.52,0-.76-.05-1.29a15,15,0,0,0,1.63.06Zm1,5.66a12.15,12.15,0,0,0-1.59.06,8.58,8.58,0,0,0,.06-1.25v-1.33a6.8,6.8,0,0,0-.06-1.13,10.84,10.84,0,0,0,1.37.06h5.55a10.36,10.36,0,0,0,1.33-.06,10.42,10.42,0,0,0,0,1.14v1.32a9.67,9.67,0,0,0,0,1.25,13.75,13.75,0,0,0-1.57-.06h-2.22c-.2.45-.48,1-.66,1.35h4.2a12.9,12.9,0,0,0,1.41-.06,10.5,10.5,0,0,0-.06,1.42v1.8a10.24,10.24,0,0,0,.07,1.46h-1.2v-.62h-8.19v.6h-1.21a11.06,11.06,0,0,0,.09-1.45v-1.79a8.17,8.17,0,0,0-.08-1.42,13.06,13.06,0,0,0,1.43.06h2.34a10,10,0,0,0,.66-1.35Zm-1.56,4.33h8.19v-2h-8.19Zm1.13-5.28h5.95v-1.69h-5.95Z"/><path class="cls-6" d="M303.81,329.76a7.92,7.92,0,0,0-.1-1.39H305a8.23,8.23,0,0,0-.08,1.36v2.42h.17a4.7,4.7,0,0,0,1.08-.08v1.19a6.31,6.31,0,0,0-1.06-.06h-.19v7.17a13.9,13.9,0,0,0,.08,1.68h-1.31a11.49,11.49,0,0,0,.1-1.7V333.2h-.31a9.2,9.2,0,0,0-1.28.06v-1.19a7.06,7.06,0,0,0,1.28.08h.31Zm5.37,5.75a11.27,11.27,0,0,0,1.29-.06,6.25,6.25,0,0,0-.05.87c0,.75-.12,2.4-.21,3.13-.21,1.77-.54,2.24-1.65,2.24l-1,0a3.67,3.67,0,0,0-.23-1.13,5.2,5.2,0,0,0,1.13.14c.39,0,.54-.17.61-.63a25,25,0,0,0,.27-3.53h-1.2a9,9,0,0,1-2.16,5.4,4.31,4.31,0,0,0-.78-.93,6.78,6.78,0,0,0,1.95-4.47h-.61a6.19,6.19,0,0,0-.84.05v-1.11a4.9,4.9,0,0,0,.9.06h.64c0-.33,0-.38,0-.81a3.64,3.64,0,0,0-.05-.6h1.16a7.88,7.88,0,0,0-.09.93c0,.21,0,.33,0,.48Zm4.53-5.76a11.05,11.05,0,0,0,1.24-.06c0,.28,0,.28-.06.64-.25,3.05-.45,3.33-2.2,3.33-.39,0-.59,0-1.44-.06a4.09,4.09,0,0,0-.26-1.11,9.8,9.8,0,0,0,1.83.17c.41,0,.57-.09.68-.39a7.59,7.59,0,0,0,.22-1.53h-3.09a4.34,4.34,0,0,1-1.45,2.05,7.8,7.8,0,0,1-2.18,1.29,3.42,3.42,0,0,0-.69-1,4.93,4.93,0,0,0,3.17-2.38h-1.41a9.38,9.38,0,0,0-1.46.07v-1.14a11.39,11.39,0,0,0,1.5.08h1.68a5,5,0,0,0,.15-1.16c0-.07,0-.15,0-.28l1.27.07c0,.15-.07.29-.16.77,0,.18-.06.31-.12.6Zm.73,5.76a11.45,11.45,0,0,0,1.28-.06c0,.46,0,.46-.05.91a24.29,24.29,0,0,1-.42,4.4c-.21.75-.6.94-1.87.94a7.27,7.27,0,0,1-.75,0,3.49,3.49,0,0,0-.21-1.13,5.7,5.7,0,0,0,1.26.15c.43,0,.57-.15.67-.73a34,34,0,0,0,.24-3.44h-1.44a11.16,11.16,0,0,1-.9,3.47,6.56,6.56,0,0,1-1.3,1.93,3.11,3.11,0,0,0-.81-.85c1.09-1,1.69-2.34,2-4.55h-.3a6.8,6.8,0,0,0-.89.05v-1.11a5.52,5.52,0,0,0,1,.06h.32c0-.45,0-.57,0-.8s0-.45,0-.64h1.15a6.26,6.26,0,0,0-.09.9c0,.22,0,.27,0,.54Z"/><path class="cls-6" d="M323.32,332.1a7.69,7.69,0,0,0-1.06-.06H320a8.25,8.25,0,0,0-1.12.06V331a5.66,5.66,0,0,0,1.12.07h2.21a5.76,5.76,0,0,0,1.15-.07Zm-4.09,10a9.9,9.9,0,0,0,.09-1.48v-2a8.59,8.59,0,0,0-.07-1.34,6.25,6.25,0,0,0,1,.06H322a7.56,7.56,0,0,0,1,0,11.87,11.87,0,0,0,0,1.26v2c0,.57,0,.89,0,1.25h-1v-.53h-1.77v.84Zm.08-13.2a5.15,5.15,0,0,0,1.05.08H322a5.21,5.21,0,0,0,1.05-.08V330a7.94,7.94,0,0,0-1.05-.06h-1.67a7.83,7.83,0,0,0-1.05.06Zm.05,4.22a6.64,6.64,0,0,0,1.07.06h1.45a7.23,7.23,0,0,0,1.08-.06v1.08a6.86,6.86,0,0,0-1.08-.06h-1.45a6.36,6.36,0,0,0-1.07.06Zm0,2.08a6,6,0,0,0,1.07.06h1.45a6.28,6.28,0,0,0,1.08-.06v1.07a10.45,10.45,0,0,0-1.08-.05h-1.45a10.1,10.1,0,0,0-1.07.05Zm.92,5.15h1.77v-2.1h-1.77ZM331.93,338c-.21.24-.28.33-.49.59a9.66,9.66,0,0,1-1,1.09c.39.62.88,1.1,1.14,1.1s.4-.41.55-1.49a2.81,2.81,0,0,0,.83.6c-.27,1.43-.6,2-1.22,2s-1.36-.56-2-1.59a12,12,0,0,1-2.29,1.45,5.12,5.12,0,0,0-.66-.84,9.63,9.63,0,0,0,2.5-1.44,7.61,7.61,0,0,1-.75-2.22l-2.25,0v1.14c.74-.18.92-.24,1.82-.51v.85c-.33.12-1,.32-1.83.54v1.55c0,.88-.33,1.15-1.41,1.15-.34,0-.58,0-.94,0a3.09,3.09,0,0,0-.21-1,5.48,5.48,0,0,0,1.15.12c.35,0,.45-.09.45-.36v-1.2l-1.75.36-.23-1a14.05,14.05,0,0,0,2-.27v-1.34h-.66a7,7,0,0,0-1.26.09V336.3a5.75,5.75,0,0,0,1,.06h.91v-.82a10.46,10.46,0,0,1-1.38.22,3.06,3.06,0,0,0-.36-.75,13.09,13.09,0,0,0,2-.3,4.74,4.74,0,0,0,1.62-.58l.63.69a11.35,11.35,0,0,1-1.58.51v1l2.1,0c0-.37-.09-.82-.12-1.27s0-.5-.07-.72h1.09a3,3,0,0,0,0,.55,14,14,0,0,0,.1,1.44H331a5.76,5.76,0,0,0,1.34-.11v1.08a6,6,0,0,0-1.1-.07h-1.75a7.58,7.58,0,0,0,.52,1.59,5.31,5.31,0,0,0,1.08-1.41Zm-6-8.32a5.78,5.78,0,0,0-.75-1.19l1-.31a9.94,9.94,0,0,1,.82,1.5h1.61a7.11,7.11,0,0,0,.72-1.49l1.06.29a10,10,0,0,1-.66,1.2h.9a6,6,0,0,0,1.29-.09v1a7.84,7.84,0,0,0-1.29-.07h-2.41v.87h1.92a10.38,10.38,0,0,0,1.23-.06v.93a7.16,7.16,0,0,0-1.23-.08h-1.92v.9h2.67a5.92,5.92,0,0,0,1.35-.09v1a6.91,6.91,0,0,0-1.34-.08h-6.06a10,10,0,0,0-1.33.06v-1a7.48,7.48,0,0,0,1.33.07h2.39v-.9h-1.73a6.51,6.51,0,0,0-1.24.08v-.93a10.45,10.45,0,0,0,1.24.06h1.73v-.87h-2.13a7.77,7.77,0,0,0-1.29.07v-1a6.28,6.28,0,0,0,1.29.09Zm4.31,4.56a11.78,11.78,0,0,1,1.56,1.26l-.75.6a6.86,6.86,0,0,0-1.52-1.35Z"/><path class="cls-6" d="M413.12,304.86a4.2,4.2,0,0,0-.33,1,13,13,0,0,1-3.75,6.54,14.33,14.33,0,0,1-4.74,2.88,3.45,3.45,0,0,0-.9-1.25,11.64,11.64,0,0,0,3.36-1.57,11,11,0,0,0,4.68-7H404a12.69,12.69,0,0,0-1.83.09v-1.42a10.52,10.52,0,0,0,1.86.1h7.14a2.88,2.88,0,0,0,1.14-.12Z"/><path class="cls-6" d="M417.52,313.77v1.05h-1.38a13.39,13.39,0,0,0,.06-1.47v-7.82a11.35,11.35,0,0,0-.06-1.35c.46,0,.81.05,1.5.05h7.57a13.93,13.93,0,0,0,1.49-.06,9.7,9.7,0,0,0-.06,1.36v7.8a11.32,11.32,0,0,0,.06,1.49h-1.38v-1.05Zm7.8-8.36h-7.8v7.17h7.8Z"/><path class="cls-6" d="M430,308.41a16.31,16.31,0,0,0,2.07.09h8.43a11.61,11.61,0,0,0,2-.09v1.49a17.22,17.22,0,0,0-2-.08h-8.4a16,16,0,0,0-2.08.08Z"/><path class="cls-6" d="M455.9,305.31a3.27,3.27,0,0,0-.37.88,23.72,23.72,0,0,1-2,4.07,14.67,14.67,0,0,1-6.69,5.5,3.31,3.31,0,0,0-.88-1.11,15.14,15.14,0,0,0,3.06-1.59,10.63,10.63,0,0,0,2.55-2.31,18.88,18.88,0,0,0-3.29-2.34l.83-.93a21.24,21.24,0,0,1,3.24,2.25,17.93,17.93,0,0,0,1.95-4.09l-5.07.06a15.48,15.48,0,0,1-3.56,4,3.28,3.28,0,0,0-1.05-.85,13.08,13.08,0,0,0,3.81-4.28,8.85,8.85,0,0,0,.89-2.07l1.39.38a8.84,8.84,0,0,0-.49,1c-.17.33-.32.58-.44.79.23,0,.23,0,4.23-.09a3.49,3.49,0,0,0,1-.1Zm-.33-2.75a9.46,9.46,0,0,1,1.37,2l-.86.42a9,9,0,0,0-1.35-2.07Zm1.5-.64a9.69,9.69,0,0,1,1.35,2l-.85.42a9.45,9.45,0,0,0-1.34-2Z"/><path class="cls-6" d="M469.69,303.78a4.17,4.17,0,0,0-.54.51,25.35,25.35,0,0,1-3.6,3.13v6.23a12.64,12.64,0,0,0,.07,1.77h-1.53a9.53,9.53,0,0,0,.09-1.76v-5.4a23.4,23.4,0,0,1-5.67,2.57,3.61,3.61,0,0,0-.7-1.2,21.47,21.47,0,0,0,7.81-3.89,12.19,12.19,0,0,0,2.84-2.83Z"/><path class="cls-6" d="M478.06,306.43a4.93,4.93,0,0,0-.06,1.1c-.06,2.53-.47,4-1.49,5.29a8.48,8.48,0,0,1-3.85,2.63,3.62,3.62,0,0,0-.83-1.22,7.1,7.1,0,0,0,2.7-1.33c1.58-1.28,2.13-2.73,2.13-5.64a3.35,3.35,0,0,0-.06-.83Zm6-1.89a3.42,3.42,0,0,0-.38.63,9.16,9.16,0,0,1-4.35,4.38,3.68,3.68,0,0,0-.91-1,6.7,6.7,0,0,0,2.32-1.41,7.44,7.44,0,0,0,1.61-2.13H474a15.41,15.41,0,0,0-1.85.07v-1.36a12.75,12.75,0,0,0,1.88.1h8a3.51,3.51,0,0,0,1.32-.1Z"/><path class="cls-6" d="M495.77,305.59a1.8,1.8,0,0,0-.25.62,15.41,15.41,0,0,1-3,5.68,14.77,14.77,0,0,1-5.25,3.77,2.7,2.7,0,0,0-.9-1.08,12.68,12.68,0,0,0,5.25-3.71,13.13,13.13,0,0,0,2.57-4.89l-4.91.08a15,15,0,0,1-3.55,3.87,2.85,2.85,0,0,0-1-.92,11.39,11.39,0,0,0,3.79-4.18,6.18,6.18,0,0,0,.9-2.13l1.47.34a2.46,2.46,0,0,0-.33.59,13.9,13.9,0,0,1-.66,1.3,1.31,1.31,0,0,1,.38,0h.18l3.85-.06a1.7,1.7,0,0,0,.65-.08Zm-.34-2.77a9.32,9.32,0,0,1,1.3,2l-.88.42a8.93,8.93,0,0,0-1.28-2.07Zm1.51-.57a9.67,9.67,0,0,1,1.29,2l-.87.44a9.81,9.81,0,0,0-1.27-2.06Z"/><path class="cls-6" d="M499.73,306.94a11,11,0,0,0,1.91.11h7.44a3.35,3.35,0,0,0,1.18-.12l.65.75a3.6,3.6,0,0,0-.42.94,10.15,10.15,0,0,1-3.62,5,13.34,13.34,0,0,1-3.67,1.81,4,4,0,0,0-.8-1.23,9.7,9.7,0,0,0,4.35-2.19,8.61,8.61,0,0,0,2.45-3.82h-7.58a14.81,14.81,0,0,0-1.89.07Zm1.29-3.51a8.35,8.35,0,0,0,1.73.11h4.87a8.89,8.89,0,0,0,1.73-.11v1.35a13.12,13.12,0,0,0-1.71-.07h-4.91a13.67,13.67,0,0,0-1.71.07Z"/><path class="cls-6" d="M518.57,303.3a7.91,7.91,0,0,0-.39,1.06,85.1,85.1,0,0,1-3.07,8.73,69.08,69.08,0,0,0,7-.9,28.28,28.28,0,0,0-2.25-3.85l1.16-.54a38.62,38.62,0,0,1,3.7,6.82l-1.27.68a16.47,16.47,0,0,0-.84-2l-.51.1c-1.73.36-4.67.74-8.66,1.13a7.51,7.51,0,0,0-1.3.18l-.18-1.49a2.64,2.64,0,0,0,.4,0l1.29-.07a60.64,60.64,0,0,0,2.24-6A26.59,26.59,0,0,0,517,303Z"/><path class="cls-6" d="M531,302.67a8.8,8.8,0,0,0-.36.84,21,21,0,0,1-1.08,2.46v8.23a12.17,12.17,0,0,0,.11,1.82h-1.35a14.74,14.74,0,0,0,.1-1.85v-4.78c0-.56,0-.86.06-1.86a12.19,12.19,0,0,1-1.75,2.19,3.42,3.42,0,0,0-.68-1.08,12.33,12.33,0,0,0,3.08-4.4,8.37,8.37,0,0,0,.64-2Zm2.31,3a16,16,0,0,1-2.41,3.65,3.15,3.15,0,0,0-.83-.92,12.29,12.29,0,0,0,2.61-4,9.35,9.35,0,0,0,.65-2.13l1.23.39c-.12.29-.17.41-.3.77-.23.63-.29.81-.48,1.24h4.57a9.32,9.32,0,0,0,1.44-.09v1.19a10.7,10.7,0,0,0-1.44-.08H535V308h2.85a7.8,7.8,0,0,0,1.36-.09v1.21a9.7,9.7,0,0,0-1.36-.09H535v2.28h2.89a8.88,8.88,0,0,0,1.37-.09v1.23a9.35,9.35,0,0,0-1.37-.09H535v2.13a9.34,9.34,0,0,0,.1,1.64h-1.36a10.21,10.21,0,0,0,.09-1.64v-8.76Z"/><path class="cls-6" d="M554.08,307.48c-.11.26-.17.38-.36.84l-.42,1a12.43,12.43,0,0,1-1.64,2.82,5.91,5.91,0,0,0,1.34,1.8,1.72,1.72,0,0,0,.66.4c.21,0,.45-.79.63-2.13a3.65,3.65,0,0,0,1,.75c-.36,1.91-.8,2.66-1.53,2.66a2.9,2.9,0,0,1-1.64-1,7.73,7.73,0,0,1-1.2-1.61,12.87,12.87,0,0,1-4,2.9A3.29,3.29,0,0,0,546,315a11.24,11.24,0,0,0,4.33-3,18.45,18.45,0,0,1-1.24-6.18H544c0,1.21,0,1.66,0,2.32h2.82a6.33,6.33,0,0,0,1.11-.06c0,.36,0,.41-.09,1.34a14.44,14.44,0,0,1-.43,3.61c-.23.59-.6.77-1.58.77a8.74,8.74,0,0,1-1.45-.12,4.2,4.2,0,0,0-.24-1.14,8.24,8.24,0,0,0,1.66.21c.5,0,.62-.12.74-.71a25.2,25.2,0,0,0,.19-2.88H544a22,22,0,0,1-.48,4,7.65,7.65,0,0,1-1.16,2.71,3.09,3.09,0,0,0-.94-.85,6.07,6.07,0,0,0,1.06-2.36,28.71,28.71,0,0,0,.47-6.16,11.61,11.61,0,0,0-.09-1.83,16.43,16.43,0,0,0,1.84.07h4.41a18.56,18.56,0,0,0-.12-2.34h1.32a7.94,7.94,0,0,0-.07,1.34c0,.18,0,.39,0,1h3.2a7.75,7.75,0,0,0,1.6-.09v1.2a13.2,13.2,0,0,0-1.72-.07h-3a18.64,18.64,0,0,0,.9,5.16,11.28,11.28,0,0,0,1.72-4Zm-1-2.79a8.52,8.52,0,0,0-2-1.6l.81-.59a10.6,10.6,0,0,1,2,1.5Z"/><path class="cls-6" d="M441,330.2a5.34,5.34,0,0,0-.19,1.06c-.65,4.37-1.79,7.13-3.93,9.47a4.37,4.37,0,0,0-1.17-.92,11,11,0,0,0,2.68-4.29,17.56,17.56,0,0,0,1.13-5.59Zm4.19-.27a19,19,0,0,0,.66,3.57,13.7,13.7,0,0,0,3.4,6.27,4.42,4.42,0,0,0-1.14,1,14.65,14.65,0,0,1-2.52-4,23.26,23.26,0,0,1-1.53-5.5,5.82,5.82,0,0,0-.19-1Z"/><path class="cls-6" d="M458.08,332.06v-1.41a8,8,0,0,0-.06-1.53h1.39a12.71,12.71,0,0,0-.06,1.42v1.52h1.19a9.44,9.44,0,0,0,1.81-.11v1.35a14.24,14.24,0,0,0-1.78-.07h-1.23a24,24,0,0,1-.12,2.71,5.72,5.72,0,0,1-2.12,4.13,8.05,8.05,0,0,1-2.76,1.47,3.18,3.18,0,0,0-.81-1.13,6.33,6.33,0,0,0,3.12-1.69c1-1,1.29-2,1.38-4.1,0-.33,0-.45,0-1.39H453.7v2.14a11.41,11.41,0,0,0,.06,1.5h-1.43a12,12,0,0,0,.06-1.5v-2.14h-1.17a14.62,14.62,0,0,0-1.78.07V332a9.63,9.63,0,0,0,1.81.11h1.14V330.5a12,12,0,0,0-.07-1.4h1.45a9,9,0,0,0-.07,1.37v1.59ZM460.7,329a10.09,10.09,0,0,1,1.22,2l-.84.41a9.32,9.32,0,0,0-1.2-2.09Zm1.47-.63a9.31,9.31,0,0,1,1.22,2l-.83.4a9.4,9.4,0,0,0-1.2-2.05Z"/><path class="cls-6" d="M464.56,334.41a16.31,16.31,0,0,0,2.07.09h8.43a11.61,11.61,0,0,0,2-.09v1.49a17.22,17.22,0,0,0-2-.08h-8.4a16,16,0,0,0-2.08.08Z"/><path class="cls-6" d="M481.3,341.42a11.26,11.26,0,0,0,.09-1.74v-9.14a8.85,8.85,0,0,0-.09-1.65h1.51a12.26,12.26,0,0,0-.07,1.7v2.67a39.35,39.35,0,0,1,6.7,3.16l-.75,1.31a31.87,31.87,0,0,0-5.52-2.94,3.29,3.29,0,0,1-.49-.26,9.81,9.81,0,0,1,.06,1.23v3.92a13.64,13.64,0,0,0,.07,1.74Zm5.8-11.57a11.07,11.07,0,0,1,1.47,2.18l-.88.46a10.15,10.15,0,0,0-1.46-2.22Zm1.55-.72a10.36,10.36,0,0,1,1.45,2.13l-.87.47a11,11,0,0,0-1.44-2.19Z"/><path class="cls-6" d="M497.86,328.94a3.6,3.6,0,0,0-.42.76,15,15,0,0,1-4.73,5.7,3.84,3.84,0,0,0-.85-1,12.06,12.06,0,0,0,4.06-4.37,5.29,5.29,0,0,0,.62-1.56Zm-1.61,5.86a10.43,10.43,0,0,0-1.47.09v-1.23a12.38,12.38,0,0,0,1.47.08h5.12a11.11,11.11,0,0,0,1.57-.08,6.66,6.66,0,0,0,0,1.1c0,3.09-.29,5.46-.68,6.19-.27.51-.67.68-1.68.68-.45,0-1,0-1.84-.11a5.33,5.33,0,0,0-.3-1.26,10.16,10.16,0,0,0,2,.24c.64,0,.75-.09.91-.87a26.35,26.35,0,0,0,.35-4.83h-3.33a10.1,10.1,0,0,1-.21,1.52A8.16,8.16,0,0,1,493.4,342a3.75,3.75,0,0,0-.78-1,7.42,7.42,0,0,0,3.74-3.2,6.87,6.87,0,0,0,.81-3Zm4.85-6.3a5.2,5.2,0,0,0,.58,1.28,12.31,12.31,0,0,0,4.34,4.57,5.09,5.09,0,0,0-.83,1.11,15.2,15.2,0,0,1-4.95-5.86c-.12-.24-.24-.47-.33-.62Z"/><path class="cls-6" d="M509.93,329.7a5.8,5.8,0,0,0-.09-1.27h1.29a6.91,6.91,0,0,0-.09,1.29v1.6h1a4.73,4.73,0,0,0,1-.07v1.18a4.9,4.9,0,0,0-1-.07h-.94a7.43,7.43,0,0,0,1.92,2.76,4,4,0,0,0-.66,1,9.11,9.11,0,0,1-1.41-2.36c0,.68,0,1.64,0,2.61v4.23a8.52,8.52,0,0,0,.09,1.47h-1.27a9.38,9.38,0,0,0,.09-1.45v-3.89c0-.87,0-1.54.06-2.52a14.24,14.24,0,0,1-2,4.28,3.06,3.06,0,0,0-.78-.93,13.93,13.93,0,0,0,2.58-5.19h-1.11a4,4,0,0,0-.94.07v-1.18a4.65,4.65,0,0,0,1,.07h1.18Zm9.36,3.48a14,14,0,0,0,1.76-.09v1.26a14.79,14.79,0,0,0-1.76-.09h-.63v6.08a14.55,14.55,0,0,0,.09,1.72h-1.33a14.91,14.91,0,0,0,.1-1.72v-6.08h-2.7c-.12,3.84-.66,5.87-2.08,7.74a3.61,3.61,0,0,0-.95-.84,6.19,6.19,0,0,0,1.32-2.44,24,24,0,0,0,.62-6.57,18,18,0,0,0-.09-2.28h.25a15.81,15.81,0,0,0,5.85-1.41l.86,1.05c-.27.07-.27.07-1.67.54a20.23,20.23,0,0,1-4.08.84v1.33c0,.36,0,.54,0,1Z"/><path class="cls-6" d="M435.47,362.62a19.52,19.52,0,0,0,4.29-4.88,2,2,0,0,1,.12-.19c-.22,0-.22,0-8.28,0a16.08,16.08,0,0,0-1.87.07v-1.41a10.53,10.53,0,0,0,1.89.11h8.55a2.48,2.48,0,0,0,1-.11l.75.87a4.09,4.09,0,0,0-.62.83,23.05,23.05,0,0,1-4.93,5.62c.55.62,1.26,1.5,2.14,2.67l-1.11.92a23.21,23.21,0,0,0-2.88-3.69,24.47,24.47,0,0,0-3-2.84l1-.76a26.07,26.07,0,0,1,2.06,1.84Z"/><path class="cls-6" d="M443.72,364a11.85,11.85,0,0,0,1.94.11h8.22a10.8,10.8,0,0,0,2-.11v1.49a16.36,16.36,0,0,0-1.95-.08h-8.25a16.12,16.12,0,0,0-1.92.08Zm1.52-7.17a9.74,9.74,0,0,0,1.83.11h5.46a9.26,9.26,0,0,0,1.8-.11v1.47a14.14,14.14,0,0,0-1.79-.07h-5.49a14.12,14.12,0,0,0-1.81.07Z"/><path class="cls-6" d="M467.11,365.83a7.52,7.52,0,0,0,1.45-.09V367a9.23,9.23,0,0,0-1.45-.07h-7.29a9.37,9.37,0,0,0-1.47.07v-1.27a7.7,7.7,0,0,0,1.47.09h4.41c.31-1.49.66-3.69.79-5.06H461.2a11.64,11.64,0,0,0-1.43.06v-1.24a9.43,9.43,0,0,0,1.46.09h3.85a2.13,2.13,0,0,0,.83-.11l.58.51a3.15,3.15,0,0,0-.28,1.23c-.33,2.33-.45,3-.74,4.52Z"/><path class="cls-6" d="M477.19,358.43a4.93,4.93,0,0,0-.06,1.1c-.06,2.53-.47,4-1.49,5.29a8.48,8.48,0,0,1-3.85,2.63,3.62,3.62,0,0,0-.83-1.22,7.1,7.1,0,0,0,2.7-1.33c1.58-1.28,2.13-2.73,2.13-5.64a3.35,3.35,0,0,0-.06-.83Zm6-1.89a3.42,3.42,0,0,0-.38.63,9.16,9.16,0,0,1-4.35,4.38,3.68,3.68,0,0,0-.91-1,6.7,6.7,0,0,0,2.32-1.41,7.44,7.44,0,0,0,1.61-2.13h-8.34a15.41,15.41,0,0,0-1.85.07v-1.36a12.75,12.75,0,0,0,1.88.1h8a3.51,3.51,0,0,0,1.32-.1Z"/><path class="cls-6" d="M488.14,355.46a7.85,7.85,0,0,0-.09,1.32c-.12,4.16-.24,5.25-.8,6.77a9.31,9.31,0,0,1-2.58,3.78,3.59,3.59,0,0,0-1.08-1,7.21,7.21,0,0,0,2.48-3.43,20.3,20.3,0,0,0,.66-6.32,6.71,6.71,0,0,0-.05-1.18Zm3.81-.18a8.61,8.61,0,0,0-.11,1.56l-.07,8.72a6.73,6.73,0,0,0,2.64-1.74,7.4,7.4,0,0,0,1.69-2.93,5.11,5.11,0,0,0,1,1,8.55,8.55,0,0,1-3.09,3.93,10.64,10.64,0,0,1-2.11,1.08l-.48.18a2.53,2.53,0,0,0-.36.16l-.71-.78a3.42,3.42,0,0,0,.11-1.18l.09-8.49v-.33a6.26,6.26,0,0,0-.08-1.23Z"/><path class="cls-6" d="M503.15,354.67a8.8,8.8,0,0,0-.36.84,21,21,0,0,1-1.08,2.46v8.23a12.17,12.17,0,0,0,.11,1.82h-1.35a14.74,14.74,0,0,0,.1-1.85v-4.78c0-.56,0-.86.06-1.86a12.19,12.19,0,0,1-1.75,2.19,3.42,3.42,0,0,0-.68-1.08,12.33,12.33,0,0,0,3.08-4.4,8.37,8.37,0,0,0,.64-2Zm2.31,3a16,16,0,0,1-2.41,3.65,3.15,3.15,0,0,0-.83-.92,12.29,12.29,0,0,0,2.61-4,9.35,9.35,0,0,0,.65-2.13l1.23.39c-.12.29-.17.41-.3.77-.23.63-.29.81-.48,1.24h4.57a9.32,9.32,0,0,0,1.44-.09v1.19a10.7,10.7,0,0,0-1.44-.08h-3.31V360H510a7.8,7.8,0,0,0,1.36-.09v1.21A9.7,9.7,0,0,0,510,361h-2.85v2.28h2.89a8.88,8.88,0,0,0,1.37-.09v1.23a9.35,9.35,0,0,0-1.37-.09h-2.89v2.13a9.34,9.34,0,0,0,.1,1.64h-1.36a10.21,10.21,0,0,0,.09-1.64v-8.76Z"/><path class="cls-6" d="M526.27,359.48c-.11.26-.17.38-.36.84l-.42,1a12.43,12.43,0,0,1-1.64,2.82,5.91,5.91,0,0,0,1.34,1.8,1.72,1.72,0,0,0,.66.4c.21,0,.45-.79.63-2.13a3.65,3.65,0,0,0,1,.75c-.36,1.91-.8,2.66-1.53,2.66a2.9,2.9,0,0,1-1.64-1,7.73,7.73,0,0,1-1.2-1.61,12.87,12.87,0,0,1-4,2.9,3.29,3.29,0,0,0-.84-.93,11.24,11.24,0,0,0,4.33-3,18.45,18.45,0,0,1-1.24-6.18h-5.09c0,1.21,0,1.66,0,2.32H519a6.33,6.33,0,0,0,1.11-.06c0,.36,0,.41-.09,1.34a14.44,14.44,0,0,1-.43,3.61c-.23.59-.6.77-1.58.77a8.74,8.74,0,0,1-1.45-.12,4.2,4.2,0,0,0-.24-1.14,8.24,8.24,0,0,0,1.66.21c.5,0,.62-.12.74-.71a25.2,25.2,0,0,0,.19-2.88h-2.77a22,22,0,0,1-.48,4,7.65,7.65,0,0,1-1.16,2.71,3.09,3.09,0,0,0-.94-.85,6.07,6.07,0,0,0,1.06-2.36,28.71,28.71,0,0,0,.47-6.16,11.61,11.61,0,0,0-.09-1.83,16.43,16.43,0,0,0,1.84.07h4.41a18.56,18.56,0,0,0-.12-2.34h1.32a7.94,7.94,0,0,0-.07,1.34c0,.18,0,.39,0,1h3.2a7.75,7.75,0,0,0,1.6-.09v1.2a13.2,13.2,0,0,0-1.72-.07h-3a18.64,18.64,0,0,0,.9,5.16,11.28,11.28,0,0,0,1.72-4Zm-1-2.79a8.52,8.52,0,0,0-2-1.6l.81-.59a10.6,10.6,0,0,1,2,1.5Z"/><path class="cls-6" d="M596,310.62a19.52,19.52,0,0,0,4.29-4.88,2,2,0,0,1,.12-.19c-.22,0-.22,0-8.28,0a16.08,16.08,0,0,0-1.87.07v-1.41a10.66,10.66,0,0,0,1.89.11h8.55a2.48,2.48,0,0,0,1-.11l.75.87a4.09,4.09,0,0,0-.62.83,23.05,23.05,0,0,1-4.93,5.62c.55.62,1.26,1.5,2.14,2.67l-1.11.92a23.21,23.21,0,0,0-2.88-3.69,24.47,24.47,0,0,0-3-2.84l1-.76a26.07,26.07,0,0,1,2.06,1.84Z"/><path class="cls-6" d="M604.71,312a11.85,11.85,0,0,0,1.94.11h8.22a10.73,10.73,0,0,0,2-.11v1.49a16.36,16.36,0,0,0-2-.08h-8.25a16.23,16.23,0,0,0-1.92.08Zm1.52-7.17a9.74,9.74,0,0,0,1.83.11h5.46a9.26,9.26,0,0,0,1.8-.11v1.47a14.06,14.06,0,0,0-1.78-.07H608a14.12,14.12,0,0,0-1.81.07Z"/><path class="cls-6" d="M628.55,313.83a7.64,7.64,0,0,0,1.46-.09V315a9.38,9.38,0,0,0-1.46-.07h-7.29a9.45,9.45,0,0,0-1.47.07v-1.27a7.76,7.76,0,0,0,1.47.09h4.41c.32-1.49.66-3.69.8-5.06h-3.83a11.44,11.44,0,0,0-1.42.06v-1.24a9.29,9.29,0,0,0,1.45.09h3.86a2.08,2.08,0,0,0,.82-.11l.59.51a3.28,3.28,0,0,0-.29,1.23c-.33,2.33-.45,3-.73,4.52Z"/><path class="cls-6" d="M639.08,306.43a6.87,6.87,0,0,0-.06,1.1c-.06,2.53-.47,4-1.48,5.29a8.57,8.57,0,0,1-3.86,2.63,3.59,3.59,0,0,0-.82-1.22,7.26,7.26,0,0,0,2.7-1.33c1.57-1.28,2.13-2.73,2.13-5.64a3.35,3.35,0,0,0-.06-.83Zm6-1.89a3.42,3.42,0,0,0-.38.63,9.14,9.14,0,0,1-4.34,4.38,3.72,3.72,0,0,0-.92-1,6.84,6.84,0,0,0,2.33-1.41,7.59,7.59,0,0,0,1.6-2.13H635a15.13,15.13,0,0,0-1.84.07v-1.36a12.59,12.59,0,0,0,1.87.1h8a3.51,3.51,0,0,0,1.32-.1Z"/><path class="cls-6" d="M650.48,303.46a7.85,7.85,0,0,0-.09,1.32c-.12,4.16-.24,5.25-.79,6.77a9.41,9.41,0,0,1-2.58,3.78,3.71,3.71,0,0,0-1.08-1,7.19,7.19,0,0,0,2.47-3.43,20,20,0,0,0,.66-6.32,8.38,8.38,0,0,0,0-1.18Zm3.81-.18a8.87,8.87,0,0,0-.1,1.56l-.08,8.72a6.66,6.66,0,0,0,2.64-1.74,7.54,7.54,0,0,0,1.7-2.93,4.85,4.85,0,0,0,1,1,8.68,8.68,0,0,1-3.09,3.93,11,11,0,0,1-2.12,1.08l-.48.18-.36.16-.7-.78a3.51,3.51,0,0,0,.1-1.18l.09-8.49v-.33a6.44,6.44,0,0,0-.07-1.23Z"/><path class="cls-6" d="M668.83,311.65a6.36,6.36,0,0,0,2,1.83,11.5,11.5,0,0,0,4,1.35,4.46,4.46,0,0,0-.63,1.16c-3.21-.84-5-2-6.44-4.1a5.65,5.65,0,0,1-2.31,2.7A10.17,10.17,0,0,1,662,316a3.75,3.75,0,0,0-.61-1.12,10.09,10.09,0,0,0,3.22-1,4.75,4.75,0,0,0,2.12-2.18H663a10.94,10.94,0,0,0-1.47.09v-1.17a6.85,6.85,0,0,0,1.42.09h4a7.54,7.54,0,0,0,.21-1.29h-2.61a7.28,7.28,0,0,0-1.32.08v-1.08a7.48,7.48,0,0,0,1.32.07h2.67c0-.57.05-.72.06-1.18h-2.76a9.26,9.26,0,0,0-1.42.07v-1.09a8.89,8.89,0,0,0,1.42.07h2.76a4.68,4.68,0,0,0-.08-1.14h1.29a5.83,5.83,0,0,0-.08,1.14h3a9.09,9.09,0,0,0,1.44-.07v1.09a9.62,9.62,0,0,0-1.44-.07h-3c0,.58,0,.85-.06,1.18h2.94a7.35,7.35,0,0,0,1.31-.07v1.08a7.29,7.29,0,0,0-1.31-.08h-3a9,9,0,0,1-.2,1.29h5a7,7,0,0,0,1.43-.09v1.17a11,11,0,0,0-1.47-.09Zm-1.49-8.35a4.86,4.86,0,0,0-.09-.95h1.35a4.73,4.73,0,0,0-.09.93v.51h4.33a13.58,13.58,0,0,0,1.55-.06,6.85,6.85,0,0,0-.06,1v.94a6.58,6.58,0,0,0,.06,1.07h-1.15v-2H662.9v2h-1.17a6.58,6.58,0,0,0,.06-1.07v-.93a7.07,7.07,0,0,0-.06-1,13.87,13.87,0,0,0,1.56.06h4.05Z"/><path class="cls-6" d="M679.37,303.79a8.83,8.83,0,0,0-.09-1.36h1.29a7.66,7.66,0,0,0-.09,1.36v.93h.92a8.8,8.8,0,0,0,1.35-.07v1.15a11.12,11.12,0,0,0-1.35-.06h-1.77c0,.9,0,1.55,0,1.92h1.47a6.49,6.49,0,0,0,1.08-.06c0,.18,0,.57,0,.72v.51a38,38,0,0,1-.34,5.49c-.24,1.14-.51,1.37-1.62,1.37-.18,0-.51,0-1-.06a3.93,3.93,0,0,0-.21-1.14,5.5,5.5,0,0,0,1.16.15c.48,0,.57-.15.7-1.1a41.33,41.33,0,0,0,.26-4.87h-1.53a21,21,0,0,1-.45,3.67,9.43,9.43,0,0,1-1.64,3.56,3.48,3.48,0,0,0-.84-.93,8.41,8.41,0,0,0,1.76-4.68c.1-1.14.16-2.48.19-4.55h-.36a6.57,6.57,0,0,0-1.24.08v-1.19a6.24,6.24,0,0,0,1.32.09h1.09Zm4.1,4.23a10.8,10.8,0,0,0-.06-1.2c-.23.33-.37.53-.77,1a2.5,2.5,0,0,0-.84-.77,11.13,11.13,0,0,0,2.3-3.9,4.75,4.75,0,0,0,.23-.84l1.21.27c-.06.12-.06.12-.3.69s-.29.71-.45,1.07h4.15a10.11,10.11,0,0,0,1.55-.09v1.18c-.41,0-1-.06-1.53-.06h-4.7c-.31.56-.51.89-.84,1.4h1.17a6.84,6.84,0,0,0-.07,1.2v.69l1.52-.47v-1A8.44,8.44,0,0,0,686,306h1.19a6,6,0,0,0-.09,1.22v.76l1.62-.49a4.18,4.18,0,0,0,.54-.18l.32-.11a2.25,2.25,0,0,0,.4-.15c0,.69,0,.74,0,1.17-.13,4-.21,4.32-1.47,4.32-.17,0-.47,0-.8,0a3.68,3.68,0,0,0-.25-1,4.54,4.54,0,0,0,.93.12c.26,0,.37-.12.4-.46a22.68,22.68,0,0,0,.14-2.67l-1.8.57v2.74a8.09,8.09,0,0,0,.06,1.26H686a10.3,10.3,0,0,0,0-1.26v-2.43l-1.52.48V314c0,.6.12.63,2.48.63,1.58,0,2-.06,2.21-.26a4.16,4.16,0,0,0,.29-1.89,3.22,3.22,0,0,0,1.09.39c-.13,1.46-.3,2-.67,2.37s-1,.44-3,.44c-2.94,0-3.46-.2-3.46-1.32v-4.28a5.35,5.35,0,0,0-.92.36l-.16-1.18a6.27,6.27,0,0,0,1.08-.26Z"/><path class="cls-6" d="M698.92,303.72a5.75,5.75,0,0,0-.11-1.31h1.37a5.63,5.63,0,0,0-.1,1.31v.82h4.36a11,11,0,0,0,1.64-.1v1.26a12.43,12.43,0,0,0-1.63-.09h-4.37v2.28h2a6.74,6.74,0,0,0,1.31-.08l.75.75a7.25,7.25,0,0,0-.59.8,13.72,13.72,0,0,1-2.94,3.25,15.87,15.87,0,0,0,5.73,2.13,3.62,3.62,0,0,0-.63,1.2,17,17,0,0,1-6.06-2.61,16.4,16.4,0,0,1-6.12,2.57,3.82,3.82,0,0,0-.61-1.14,15,15,0,0,0,5.79-2.15,10.49,10.49,0,0,1-1.76-1.84,10.66,10.66,0,0,1-1.12-1.86,11.93,11.93,0,0,0-1.65.09v-1.2a11.7,11.7,0,0,0,1.66.09h3v-2.28h-4.16a12.54,12.54,0,0,0-1.63.09v-1.26a11,11,0,0,0,1.65.1h4.14Zm-1.85,5.19a9.43,9.43,0,0,0,2.63,3,10.77,10.77,0,0,0,2.79-3Z"/><path class="cls-6" d="M710.33,304a8.06,8.06,0,0,0-.09-1.53h1.29a9.76,9.76,0,0,0-.09,1.52v1.39h.45a4.78,4.78,0,0,0,.9-.06v1.14a6.27,6.27,0,0,0-.9-.06h-.45v2.52a12.34,12.34,0,0,0,1.2-.57l.05,1.05a13.48,13.48,0,0,1-1.25.6v4.82c0,.91-.33,1.14-1.66,1.14-.33,0-.5,0-.89,0a3.76,3.76,0,0,0-.24-1.1,8.62,8.62,0,0,0,1.31.11c.28,0,.37-.08.37-.33v-4.14c-.37.15-.66.25-1.23.46l-.46.2-.29-1.19a7.56,7.56,0,0,0,2-.58v-3h-.79a8.68,8.68,0,0,0-1,.06v-1.15a5.33,5.33,0,0,0,1,.07h.78Zm4.25,3.63a13.61,13.61,0,0,0-1.4.06v-1.05a7.11,7.11,0,0,0,1.29.08h4.34a10.28,10.28,0,0,0,1.38-2.76l1.09.34a18.46,18.46,0,0,1-1.4,2.42h.61a6.06,6.06,0,0,0,1.27-.09v1.06a14,14,0,0,0-1.41-.06h-4.08c-.07.68-.07.74-.13,1.16h4.21a10.59,10.59,0,0,0,1.66-.09v1.12a12.83,12.83,0,0,0-1.66-.09H716a8.85,8.85,0,0,1-.27,1H719a8.79,8.79,0,0,0,1.26-.06l.57.7a2.64,2.64,0,0,0-.33.45,12.34,12.34,0,0,1-1.82,2,10.63,10.63,0,0,0,3.62,1.17,6.38,6.38,0,0,0-.55,1.11,12.81,12.81,0,0,1-3.93-1.63,12.57,12.57,0,0,1-3.74,1.62,2.94,2.94,0,0,0-.61-1,10.51,10.51,0,0,0,3.43-1.28,9.21,9.21,0,0,1-1.74-1.75,11,11,0,0,1-2.92,3.9,2.7,2.7,0,0,0-.77-.87,8.57,8.57,0,0,0,2.16-2.39,9.78,9.78,0,0,0,1.22-3h-.42a10.13,10.13,0,0,0-1.5.08v-1.1a10.37,10.37,0,0,0,1.51.08h.59c.06-.44.09-.72.12-1.16Zm7-4.29-.73.17a47.77,47.77,0,0,1-7.77.82,2.64,2.64,0,0,0-.38-1h.45a26.83,26.83,0,0,0,7.63-1Zm-7,3.33a6.28,6.28,0,0,0-1-1.86l.91-.33a7.62,7.62,0,0,1,.91,1.8Zm1.46,5a8.89,8.89,0,0,0,1.73,1.57,6.83,6.83,0,0,0,1.52-1.57Zm1-5.13a7.78,7.78,0,0,0-.85-2l.93-.29a9.06,9.06,0,0,1,.84,2Z"/><path class="cls-6" d="M640.62,330.08a2.87,2.87,0,0,0-.51.16,23.78,23.78,0,0,1-3.26.9c0,2.1,0,2.37,0,2.85h3.36a8.57,8.57,0,0,0,1.77-.1v1.33a13.35,13.35,0,0,0-1.76-.07h-3.45a7.34,7.34,0,0,1-1,3.3,8,8,0,0,1-2.41,2.4,15,15,0,0,1-1.35.72,3.13,3.13,0,0,0-1-1.11,7.73,7.73,0,0,0,2.22-1.2,5.35,5.35,0,0,0,2.16-4.11h-3.92a13.59,13.59,0,0,0-1.8.07v-1.33a9,9,0,0,0,1.82.1h4c0-.57,0-1.47,0-2.64a31.17,31.17,0,0,1-4.35.39,3.51,3.51,0,0,0-.42-1.18l.9,0a25,25,0,0,0,6.33-.93,6.07,6.07,0,0,0,1.74-.72Z"/><path class="cls-6" d="M650.53,339.84h3.09a8.8,8.8,0,0,0,1.44-.07V341a9.17,9.17,0,0,0-1.44-.07h-7.26a10.83,10.83,0,0,0-1.44.06v-1.25a7.18,7.18,0,0,0,1.43.09h2.95v-5.07h-2a13.24,13.24,0,0,0-1.42.06V333.6a9.13,9.13,0,0,0,1.42.09h5.45a7.76,7.76,0,0,0,1.42-.1v1.24a11.59,11.59,0,0,0-1.41-.06h-2.19Z"/><path class="cls-6" d="M659.76,332.57a17.16,17.16,0,0,1,1.48,3.39l-1.21.4a12.6,12.6,0,0,0-1.4-3.42Zm8.5,0a5.24,5.24,0,0,0-.19.69,12.58,12.58,0,0,1-2.16,5,11.75,11.75,0,0,1-4.32,3.34,3.83,3.83,0,0,0-.86-1,9.24,9.24,0,0,0,5.67-5.83,8.31,8.31,0,0,0,.54-2.48Zm-5.4-.57a15.92,15.92,0,0,1,1.46,3.28l-1.19.41a13.43,13.43,0,0,0-1.38-3.35Z"/><path class="cls-6" d="M677.4,329a1.87,1.87,0,0,0-.33.59,13.9,13.9,0,0,1-.66,1.3,1.28,1.28,0,0,1,.37,0H677l3.83-.06a2.21,2.21,0,0,0,.87-.12l.73.72a2.21,2.21,0,0,0-.33.78,15.55,15.55,0,0,1-3,5.68,14.77,14.77,0,0,1-5.25,3.77,3.1,3.1,0,0,0-.9-1.1,12.6,12.6,0,0,0,5.25-3.69,13.26,13.26,0,0,0,2.56-4.89l-4.9.08a15.06,15.06,0,0,1-3.56,3.87,2.77,2.77,0,0,0-1-.92,11.5,11.5,0,0,0,3.8-4.18,6.62,6.62,0,0,0,.9-2.13Z"/><path class="cls-6" d="M818.76,305a6.1,6.1,0,0,0,1.2.08h2.67a5.79,5.79,0,0,0,1.2-.08v1.13a10.88,10.88,0,0,0-1.1-.05H820a10,10,0,0,0-1.2.06Zm.52-2.07a5.64,5.64,0,0,0,1.13.08h2a5.59,5.59,0,0,0,1.12-.08V304a9.11,9.11,0,0,0-1.12-.06h-2a8.62,8.62,0,0,0-1.13.06Zm.06,4.22a6.37,6.37,0,0,0,1,.06h2.13a5.65,5.65,0,0,0,1-.06v1.08a5.59,5.59,0,0,0-1-.06h-2.13a5.42,5.42,0,0,0-1,.06Zm0,2.1a8.8,8.8,0,0,0,1,0h2.13a7.72,7.72,0,0,0,1,0v1.06a6.62,6.62,0,0,0-1-.06h-2.13a6.53,6.53,0,0,0-1,.06Zm0,6.79a13.64,13.64,0,0,0,.08-1.45v-2.1a11.45,11.45,0,0,0-.06-1.22,7.75,7.75,0,0,0,1.21.06h1.76a9,9,0,0,0,1.08,0,9.69,9.69,0,0,0,0,1.14v2.2a9.42,9.42,0,0,0,.06,1.22h-1v-.62h-1.93V316Zm1.08-1.74h2v-2.07h-2Zm5.07-3.09a11.48,11.48,0,0,1-1,3.77l-1-.51a7.86,7.86,0,0,0,1-3.47Zm-.52-6.3c.88.32,1.23.45,1.8.69a7.89,7.89,0,0,0,.3-1.48h-1.29a7.6,7.6,0,0,0-1.53.09V303a10.32,10.32,0,0,0,1.54.09h4.64a13.29,13.29,0,0,0,1.41-.06c0,.21,0,.21-.11,1.59a16.62,16.62,0,0,1-.54,3.73c-.25.65-.6.83-1.6.83-.36,0-.84,0-1.19-.06a3.34,3.34,0,0,0-.27-1.11,6.37,6.37,0,0,0,1.35.16c.54,0,.71-.15.84-.79a18.52,18.52,0,0,0,.33-3.3h-2.52a8.21,8.21,0,0,1-.43,1.93c.52.27.81.42,1.54.87l-.57.87a12.73,12.73,0,0,0-1.35-.85,7.33,7.33,0,0,1-2.89,2.92,3.71,3.71,0,0,0-.77-.85,5.77,5.77,0,0,0,2.75-2.54c-.6-.28-1-.43-1.94-.78Zm2.14,9.47c0,.33.14.39.83.39.3,0,1,0,1.12-.05.42-.07.53-.21.62-.81,0-.33.07-.75.1-1.23a3.67,3.67,0,0,0,1,.35,5.46,5.46,0,0,1-.44,2.13c-.25.46-.75.6-2.25.6-1.69,0-2-.17-2-1V312a7.08,7.08,0,0,0-.09-1.18h1.22a5.2,5.2,0,0,0-.08,1.09Zm.12-5.46a11.51,11.51,0,0,1,2.4,2l-.81.72a8.09,8.09,0,0,0-2.34-2.1Zm3.86,1.89a14.73,14.73,0,0,1,1.78,3.25l-.93.59a11.53,11.53,0,0,0-1.72-3.36Z"/><path class="cls-6" d="M835.21,304.92a6.52,6.52,0,0,0,1.2.07h3a7.39,7.39,0,0,0,1.2-.06v1.13a6.46,6.46,0,0,0-1.11-.06h-3.06a8.4,8.4,0,0,0-1.2.06Zm.48,11.13a10.37,10.37,0,0,0,.09-1.46v-2.07a7.83,7.83,0,0,0-.07-1.24,11.22,11.22,0,0,0,1.18.06H839a5.39,5.39,0,0,0,1.07,0,11.32,11.32,0,0,0,0,1.16v2.19a11.15,11.15,0,0,0,0,1.21h-1v-.58H836.8v.78Zm0-13.22a6.43,6.43,0,0,0,1.17.08H839a6.5,6.5,0,0,0,1.17-.08v1.1a8.12,8.12,0,0,0-1.17-.06h-2.13a8.2,8.2,0,0,0-1.17.06Zm.06,4.26a5.77,5.77,0,0,0,1.05.06h2.25a5.4,5.4,0,0,0,1-.06v1.07a6.33,6.33,0,0,0-1-.06h-2.25a6.18,6.18,0,0,0-1.05.06Zm0,2.09a6.87,6.87,0,0,0,1.05.06h2.25a6.72,6.72,0,0,0,1-.06v1.06a7.63,7.63,0,0,0-1-.06h-2.24a7.33,7.33,0,0,0-1.05.06Zm1,5.16H839v-2.07H836.8Zm7.67-10.19h-1.94a11.89,11.89,0,0,0-1.59.09V303a11.28,11.28,0,0,0,1.59.09h4.62a11.18,11.18,0,0,0,1.59-.09v1.23a11.57,11.57,0,0,0-1.57-.09h-1.59v4.11h1.47a9.48,9.48,0,0,0,1.47-.09v1.23a9.66,9.66,0,0,0-1.47-.09h-1.47v5h1.86a11.51,11.51,0,0,0,1.56-.09v1.24a11.62,11.62,0,0,0-1.58-.09h-5.34a11.77,11.77,0,0,0-1.56.08v-1.2a7.63,7.63,0,0,0,1.13.06v-6a10,10,0,0,0-.09-1.56h1.27a10.44,10.44,0,0,0-.09,1.56v6h1.73Z"/><path class="cls-7" d="M123.18,95A78.47,78.47,0,1,1,44.71,173.5,78.47,78.47,0,0,1,123.18,95Zm0,2.58a4.48,4.48,0,1,0,4.47,4.47,4.48,4.48,0,0,0-4.47-4.47Zm0,11.17A64.72,64.72,0,1,0,187.9,173.5a64.71,64.71,0,0,0-64.72-64.72Z"/><path class="cls-8" d="M300.82,95a78.47,78.47,0,1,1-78.47,78.47A78.47,78.47,0,0,1,300.82,95Zm0,2.58a4.48,4.48,0,1,0,4.48,4.47,4.47,4.47,0,0,0-4.48-4.47Zm0,11.17a64.72,64.72,0,1,0,64.72,64.72,64.72,64.72,0,0,0-64.72-64.72Z"/><path class="cls-9" d="M478.47,95A78.47,78.47,0,1,1,400,173.5,78.47,78.47,0,0,1,478.47,95Zm0,2.58a4.48,4.48,0,1,0,4.47,4.47,4.48,4.48,0,0,0-4.47-4.47Zm0,11.17a64.72,64.72,0,1,0,64.72,64.72,64.71,64.71,0,0,0-64.72-64.72Z"/><path class="cls-10" d="M656.11,95a78.47,78.47,0,1,1-78.47,78.47A78.47,78.47,0,0,1,656.11,95Zm0,2.58a4.48,4.48,0,1,0,4.48,4.47,4.47,4.47,0,0,0-4.48-4.47Zm0,11.17a64.72,64.72,0,1,0,64.72,64.72,64.72,64.72,0,0,0-64.72-64.72Z"/><path class="cls-5" d="M833.76,95a78.47,78.47,0,1,1-78.47,78.47A78.47,78.47,0,0,1,833.76,95Zm0,2.58a4.48,4.48,0,1,0,4.47,4.47,4.47,4.47,0,0,0-4.47-4.47Zm0,11.17a64.72,64.72,0,1,0,64.71,64.72,64.71,64.71,0,0,0-64.71-64.72Z"/><path class="cls-11" d="M87.79,28.51a1.72,1.72,0,1,1,0-3.43h3.44a1.72,1.72,0,0,1,0,3.43Zm-68.74,0a1.72,1.72,0,1,1,0-3.43h3.43a1.72,1.72,0,1,1,0,3.43Zm13.75,0a1.72,1.72,0,1,1,0-3.43h3.43a1.72,1.72,0,1,1,0,3.43Zm13.74,0a1.72,1.72,0,0,1,0-3.43H50a1.72,1.72,0,1,1,0,3.43Zm13.75,0a1.72,1.72,0,1,1,0-3.43h3.44a1.72,1.72,0,1,1,0,3.43Zm13.75,0a1.72,1.72,0,1,1,0-3.43h3.44a1.72,1.72,0,1,1,0,3.43Z"/><path class="cls-11" d="M121.46,57.05a1.72,1.72,0,0,1,3.44,0v3.44a1.72,1.72,0,1,1-3.44,0V57.05Zm0,27.5a1.72,1.72,0,1,1,3.44,0V88a1.72,1.72,0,1,1-3.44,0V84.55Zm0-13.75a1.72,1.72,0,1,1,3.44,0v3.44a1.72,1.72,0,1,1-3.44,0V70.8Z"/><polygon class="cls-12" points="0 34.92 8.14 26.78 0 18.64 0 34.92 0 34.92"/><path class="cls-11" d="M264.75,28.51a1.72,1.72,0,1,1,0-3.43h3.43a1.72,1.72,0,1,1,0,3.43Zm-109.91,0a1.72,1.72,0,1,1,0-3.43h3.44a1.72,1.72,0,1,1,0,3.43Zm13.75,0a1.72,1.72,0,1,1,0-3.43H172a1.72,1.72,0,1,1,0,3.43Zm13.75,0a1.72,1.72,0,1,1,0-3.43h3.44a1.72,1.72,0,0,1,0,3.43Zm13.66,0a1.72,1.72,0,0,1,0-3.43h3.44a1.72,1.72,0,1,1,0,3.43Zm13.75,0a1.72,1.72,0,1,1,0-3.43h3.44a1.72,1.72,0,1,1,0,3.43Zm13.75,0a1.72,1.72,0,1,1,0-3.43h3.44a1.72,1.72,0,1,1,0,3.43Zm13.75,0a1.72,1.72,0,1,1,0-3.43h3.44a1.72,1.72,0,1,1,0,3.43Zm13.75,0a1.72,1.72,0,1,1,0-3.43h3.43a1.72,1.72,0,1,1,0,3.43Z"/><path class="cls-11" d="M299.1,57.05a1.72,1.72,0,0,1,3.44,0v3.44a1.72,1.72,0,0,1-3.44,0V57.05Zm0,27.5a1.72,1.72,0,0,1,3.44,0V88a1.72,1.72,0,0,1-3.44,0V84.55Zm0-13.75a1.72,1.72,0,0,1,3.44,0v3.44a1.72,1.72,0,0,1-3.44,0V70.8Z"/><path class="cls-11" d="M476.75,57.05a1.72,1.72,0,0,1,3.44,0v3.44a1.72,1.72,0,1,1-3.44,0V57.05Zm0,27.5a1.72,1.72,0,1,1,3.44,0V88a1.72,1.72,0,1,1-3.44,0V84.55Zm0-13.75a1.72,1.72,0,1,1,3.44,0v3.44a1.72,1.72,0,1,1-3.44,0V70.8Z"/><path class="cls-11" d="M442.45,28.51a1.72,1.72,0,1,1,0-3.43h3.44a1.72,1.72,0,1,1,0,3.43Zm-109.9,0a1.72,1.72,0,1,1,0-3.43H336a1.72,1.72,0,1,1,0,3.43Zm13.75,0a1.72,1.72,0,1,1,0-3.43h3.44a1.72,1.72,0,0,1,0,3.43Zm13.75,0a1.72,1.72,0,1,1,0-3.43h3.43a1.72,1.72,0,1,1,0,3.43Zm13.66,0a1.72,1.72,0,1,1,0-3.43h3.44a1.72,1.72,0,1,1,0,3.43Zm13.75,0a1.72,1.72,0,1,1,0-3.43h3.44a1.72,1.72,0,1,1,0,3.43Zm13.75,0a1.72,1.72,0,1,1,0-3.43h3.44a1.72,1.72,0,0,1,0,3.43Zm13.75,0a1.72,1.72,0,1,1,0-3.43h3.43a1.72,1.72,0,1,1,0,3.43Zm13.75,0a1.72,1.72,0,1,1,0-3.43h3.43a1.72,1.72,0,1,1,0,3.43Z"/><path class="cls-11" d="M654.39,57.05a1.72,1.72,0,0,1,3.44,0v3.44a1.72,1.72,0,1,1-3.44,0V57.05Zm0,27.5a1.72,1.72,0,1,1,3.44,0V88a1.72,1.72,0,1,1-3.44,0V84.55Zm0-13.75a1.72,1.72,0,1,1,3.44,0v3.44a1.72,1.72,0,1,1-3.44,0V70.8Z"/><path class="cls-11" d="M620.27,28.51a1.72,1.72,0,1,1,0-3.43h3.43a1.72,1.72,0,1,1,0,3.43Zm-109.91,0a1.72,1.72,0,1,1,0-3.43h3.44a1.72,1.72,0,1,1,0,3.43Zm13.75,0a1.72,1.72,0,1,1,0-3.43h3.44a1.72,1.72,0,1,1,0,3.43Zm13.75,0a1.72,1.72,0,1,1,0-3.43h3.44a1.72,1.72,0,0,1,0,3.43Zm13.67,0a1.72,1.72,0,1,1,0-3.43H555a1.72,1.72,0,1,1,0,3.43Zm13.74,0a1.72,1.72,0,1,1,0-3.43h3.44a1.72,1.72,0,1,1,0,3.43Zm13.75,0a1.72,1.72,0,1,1,0-3.43h3.44a1.72,1.72,0,1,1,0,3.43Zm13.75,0a1.72,1.72,0,1,1,0-3.43h3.44a1.72,1.72,0,1,1,0,3.43Zm13.75,0a1.72,1.72,0,1,1,0-3.43H610a1.72,1.72,0,0,1,0,3.43Z"/><path class="cls-11" d="M832,57.05a1.72,1.72,0,0,1,3.44,0v3.44a1.72,1.72,0,0,1-3.44,0V57.05Zm0,27.5a1.72,1.72,0,0,1,3.44,0V88A1.72,1.72,0,0,1,832,88V84.55Zm0-13.75a1.72,1.72,0,0,1,3.44,0v3.44a1.72,1.72,0,0,1-3.44,0V70.8Z"/><path class="cls-11" d="M797.69,28.51a1.72,1.72,0,0,1,0-3.43h3.44a1.72,1.72,0,1,1,0,3.43Zm-109.9,0a1.72,1.72,0,1,1,0-3.43h3.44a1.72,1.72,0,1,1,0,3.43Zm13.75,0a1.72,1.72,0,1,1,0-3.43H705a1.72,1.72,0,1,1,0,3.43Zm13.75,0a1.72,1.72,0,1,1,0-3.43h3.43a1.72,1.72,0,1,1,0,3.43Zm13.66,0a1.72,1.72,0,1,1,0-3.43h3.44a1.72,1.72,0,1,1,0,3.43Zm13.75,0a1.72,1.72,0,1,1,0-3.43h3.44a1.72,1.72,0,1,1,0,3.43Zm13.75,0a1.72,1.72,0,1,1,0-3.43h3.44a1.72,1.72,0,0,1,0,3.43Zm13.75,0a1.72,1.72,0,1,1,0-3.43h3.43a1.72,1.72,0,1,1,0,3.43Zm13.75,0a1.72,1.72,0,1,1,0-3.43h3.43a1.72,1.72,0,1,1,0,3.43Z"/><path class="cls-11" d="M936.68,28.51a1.72,1.72,0,1,1,0-3.43h3.43a1.72,1.72,0,1,1,0,3.43Zm-68.74,0a1.72,1.72,0,1,1,0-3.43h3.43a1.72,1.72,0,1,1,0,3.43Zm13.74,0a1.72,1.72,0,1,1,0-3.43h3.44a1.72,1.72,0,1,1,0,3.43Zm13.75,0a1.72,1.72,0,1,1,0-3.43h3.44a1.72,1.72,0,1,1,0,3.43Zm13.75,0a1.72,1.72,0,1,1,0-3.43h3.44a1.72,1.72,0,1,1,0,3.43Zm13.75,0a1.72,1.72,0,1,1,0-3.43h3.43a1.72,1.72,0,1,1,0,3.43Z"/><polygon class="cls-12" points="951.86 34.92 960 26.78 951.86 18.64 951.86 34.92 951.86 34.92"/><path class="cls-13" d="M123.18,4.41a21.7,21.7,0,1,1-21.7,21.7,21.7,21.7,0,0,1,21.7-21.7Z"/><path class="cls-7" d="M123.18,0A26.11,26.11,0,1,1,97.07,26.11,26.11,26.11,0,0,1,123.18,0Zm0,2.58a23.53,23.53,0,1,0,23.53,23.53A23.52,23.52,0,0,0,123.18,2.58Z"/><path class="cls-14" d="M300.82,4.41a21.7,21.7,0,1,1-21.69,21.7,21.71,21.71,0,0,1,21.69-21.7Z"/><path class="cls-8" d="M300.82,0a26.11,26.11,0,1,1-26.11,26.11A26.11,26.11,0,0,1,300.82,0Zm0,2.58a23.53,23.53,0,1,0,23.53,23.53A23.53,23.53,0,0,0,300.82,2.58Z"/><path class="cls-15" d="M478.47,4.41a21.7,21.7,0,1,1-21.7,21.7,21.7,21.7,0,0,1,21.7-21.7Z"/><path class="cls-9" d="M478.47,0a26.11,26.11,0,1,1-26.11,26.11A26.11,26.11,0,0,1,478.47,0Zm0,2.58A23.53,23.53,0,1,0,502,26.11,23.52,23.52,0,0,0,478.47,2.58Z"/><path class="cls-16" d="M656.11,4.41a21.7,21.7,0,1,1-21.69,21.7,21.7,21.7,0,0,1,21.69-21.7Z"/><path class="cls-10" d="M656.11,0A26.11,26.11,0,1,1,630,26.11,26.11,26.11,0,0,1,656.11,0Zm0,2.58a23.53,23.53,0,1,0,23.53,23.53A23.52,23.52,0,0,0,656.11,2.58Z"/><path class="cls-17" d="M833.76,4.41a21.7,21.7,0,1,1-21.7,21.7,21.7,21.7,0,0,1,21.7-21.7Z"/><path class="cls-5" d="M833.76,0a26.11,26.11,0,1,1-26.11,26.11A26.12,26.12,0,0,1,833.76,0Zm0,2.58a23.53,23.53,0,1,0,23.53,23.53A23.52,23.52,0,0,0,833.76,2.58Z"/><path class="cls-13" d="M123.18,275.17a4.48,4.48,0,1,0,4.47,4.47,4.48,4.48,0,0,0-4.47-4.47Z"/><path class="cls-14" d="M300.82,275.17a4.48,4.48,0,1,0,4.48,4.47,4.47,4.47,0,0,0-4.48-4.47Z"/><path class="cls-15" d="M478.47,275.17a4.48,4.48,0,1,0,4.47,4.47,4.48,4.48,0,0,0-4.47-4.47Z"/><path class="cls-16" d="M656.11,275.17a4.48,4.48,0,1,0,4.48,4.47,4.47,4.47,0,0,0-4.48-4.47Z"/><path class="cls-17" d="M833.76,275.17a4.48,4.48,0,1,0,4.47,4.47,4.47,4.47,0,0,0-4.47-4.47Z"/><path class="cls-18" d="M129.36,30.9v3.52H117.55V30.9h4.13V22.08a3.23,3.23,0,0,1-.83.71,11.12,11.12,0,0,1-1.24.68,8.2,8.2,0,0,1-1.38.53,4.94,4.94,0,0,1-1.27.2V20.56a3.39,3.39,0,0,0,1.29-.33,11.25,11.25,0,0,0,1.48-.8,13.14,13.14,0,0,0,1.27-.92,3.43,3.43,0,0,0,.68-.71h4V30.9Z"/><path class="cls-18" d="M293.81,34.56a13.18,13.18,0,0,1,.2-2.37,6.39,6.39,0,0,1,2.11-3.65A12.14,12.14,0,0,1,298.38,27c.79-.43,1.5-.8,2.11-1.12s1.12-.62,1.53-.89a4.07,4.07,0,0,0,.93-.83,1.6,1.6,0,0,0,.32-1,1.94,1.94,0,0,0-.7-1.49,2.92,2.92,0,0,0-2-.63,4,4,0,0,0-1.28.19,4.72,4.72,0,0,0-1.09.51,6,6,0,0,0-.93.71,7.5,7.5,0,0,0-.77.83L294,20.42a6.82,6.82,0,0,1,1.08-.89,10.41,10.41,0,0,1,1.64-.9,12.61,12.61,0,0,1,2.1-.7,10.78,10.78,0,0,1,2.46-.27,9,9,0,0,1,2.65.36,5.69,5.69,0,0,1,2,1,4.34,4.34,0,0,1,1.22,1.57,4.71,4.71,0,0,1,.43,2,4.18,4.18,0,0,1-.38,1.81,5.73,5.73,0,0,1-1,1.39,7.58,7.58,0,0,1-1.27,1.07c-.46.3-.9.56-1.32.8l-1.2.67c-.44.25-.88.52-1.32.82a13.33,13.33,0,0,0-1.21.94A4.15,4.15,0,0,0,299,31h8.82v3.52Z"/><path class="cls-18" d="M481.57,25.48a4.68,4.68,0,0,1,2.92,1.73,5.37,5.37,0,0,1,1.12,3.45,5.6,5.6,0,0,1-.54,2.48A5.36,5.36,0,0,1,483.56,35a7.14,7.14,0,0,1-2.37,1.2,10.92,10.92,0,0,1-3.15.42,10.17,10.17,0,0,1-3.91-.71,7.33,7.33,0,0,1-2.84-2.09l2.21-2.76a5.23,5.23,0,0,0,1.81,1.48,5.82,5.82,0,0,0,2.62.53,4.47,4.47,0,0,0,2.71-.7,2.52,2.52,0,0,0,.93-2.15,2.74,2.74,0,0,0-1.08-2.33,5.39,5.39,0,0,0-3.26-.82h-.81V24.17h.9a4.29,4.29,0,0,0,2.79-.8,2.51,2.51,0,0,0,1-2.05,2,2,0,0,0-.81-1.77,3.6,3.6,0,0,0-2.13-.59A4.72,4.72,0,0,0,474,21.29l-2.45-2.73a4.77,4.77,0,0,1,1.17-1.21,7.86,7.86,0,0,1,1.64-.93,9.94,9.94,0,0,1,2-.61,10.69,10.69,0,0,1,2.21-.22,8.81,8.81,0,0,1,2.7.38,6.82,6.82,0,0,1,2.11,1,4.52,4.52,0,0,1,1.85,3.73A5.39,5.39,0,0,1,485,22.4a4.63,4.63,0,0,1-.76,1.42,4.5,4.5,0,0,1-1.18,1.08,3.93,3.93,0,0,1-1.49.58Z"/><path class="cls-18" d="M655.89,36.26V31.93h-8.5V28.47L657.14,16h2.65V28.44h2.56v3.49h-2.56v4.33Zm-4.6-7.82h5V21.86l-5,6.58Z"/><path class="cls-18" d="M834.16,23a7.54,7.54,0,0,1,2.71.48A6.34,6.34,0,0,1,839,24.8a6.08,6.08,0,0,1,1.41,2.09,7,7,0,0,1,.51,2.71,6.91,6.91,0,0,1-.57,2.85,6.22,6.22,0,0,1-1.58,2.2,7.29,7.29,0,0,1-2.42,1.43,8.7,8.7,0,0,1-3,.5,8.45,8.45,0,0,1-4.06-1A6.65,6.65,0,0,1,826.57,33l2.24-2.33a6,6,0,0,0,2,1.8,5.13,5.13,0,0,0,2.53.67,3.6,3.6,0,0,0,2.57-.94,3.64,3.64,0,0,0,.06-5,3.28,3.28,0,0,0-2.4-.93,3.79,3.79,0,0,0-1.79.44,3.53,3.53,0,0,0-1.32,1.19h-3.41a6.1,6.1,0,0,1,.12-.65c.08-.38.17-.87.29-1.46s.24-1.25.38-2,.28-1.47.43-2.22l1.17-6h10.18v3.55H832.3l-.84,4.63a2.37,2.37,0,0,1,1-.61,5.1,5.1,0,0,1,1.67-.23Z"/><path class="cls-19" d="M87.7,149.25a1.64,1.64,0,0,0-.8-.57,2.79,2.79,0,0,0-1-.18,2.48,2.48,0,0,0-.54.06,1.87,1.87,0,0,0-.53.2,1.07,1.07,0,0,0-.4.36.89.89,0,0,0-.16.54.9.9,0,0,0,.37.79,3.58,3.58,0,0,0,.94.46l1.22.39a4.93,4.93,0,0,1,1.22.54,2.91,2.91,0,0,1,.94.94,3,3,0,0,1,.37,1.59A3.71,3.71,0,0,1,89,156a3.23,3.23,0,0,1-.93,1.16,3.75,3.75,0,0,1-1.35.69,5.71,5.71,0,0,1-1.62.23,5.8,5.8,0,0,1-2-.34,5,5,0,0,1-1.71-1.09l1.72-1.95a2.48,2.48,0,0,0,.94.79,2.58,2.58,0,0,0,1.17.28,2.46,2.46,0,0,0,.6-.07,1.86,1.86,0,0,0,.54-.22,1.12,1.12,0,0,0,.39-.36.94.94,0,0,0,.15-.53,1,1,0,0,0-.38-.81,3.46,3.46,0,0,0-1-.5c-.38-.14-.79-.28-1.24-.42a5.8,5.8,0,0,1-1.24-.56,2.91,2.91,0,0,1-1-.93,2.66,2.66,0,0,1-.38-1.52,3.31,3.31,0,0,1,1.28-2.75,4,4,0,0,1,1.34-.7,5.52,5.52,0,0,1,1.57-.23,6,6,0,0,1,1.8.27,4.13,4.13,0,0,1,1.56.92Z"/><path class="cls-19" d="M94.55,148.69H91.41v-2.21h8.69v2.21H97v9.12H94.55Z"/><path class="cls-19" d="M102.66,146.48h7.47v2.3h-5v2.12h4.76v2.3h-4.76v2.3h5.32v2.31h-7.75Z"/><path class="cls-19" d="M113.59,146.48h4.08a7.67,7.67,0,0,1,1.62.16,3.72,3.72,0,0,1,1.32.55,2.75,2.75,0,0,1,.9,1.06,3.73,3.73,0,0,1,.34,1.67,4,4,0,0,1-.31,1.66,2.81,2.81,0,0,1-.86,1.08,3.44,3.44,0,0,1-1.29.56,6.8,6.8,0,0,1-1.61.17H116v4.42h-2.42Zm2.42,4.8h1.62a3.18,3.18,0,0,0,.62-.06,1.81,1.81,0,0,0,.55-.22,1,1,0,0,0,.38-.42,1.29,1.29,0,0,0,.15-.66,1.16,1.16,0,0,0-.19-.7,1.31,1.31,0,0,0-.5-.4,2.08,2.08,0,0,0-.67-.19c-.25,0-.49,0-.72,0H116Z"/><path class="cls-19" d="M129.85,152.14a6.49,6.49,0,0,1,.45-2.46,5.3,5.3,0,0,1,1.23-1.88,5.38,5.38,0,0,1,1.88-1.19,6.49,6.49,0,0,1,2.37-.42,6.58,6.58,0,0,1,2.38.42A5.48,5.48,0,0,1,140,147.8a5.58,5.58,0,0,1,1.23,1.88,7.12,7.12,0,0,1,0,4.93,5.68,5.68,0,0,1-1.23,1.88,5.48,5.48,0,0,1-1.88,1.19,6.58,6.58,0,0,1-2.38.42,6.49,6.49,0,0,1-2.37-.42,5.27,5.27,0,0,1-3.11-3.07A6.51,6.51,0,0,1,129.85,152.14Zm2.52,0a4.28,4.28,0,0,0,.24,1.47,3.33,3.33,0,0,0,.69,1.15,3.07,3.07,0,0,0,1.08.76,3.79,3.79,0,0,0,2.81,0,3.07,3.07,0,0,0,1.08-.76,3.33,3.33,0,0,0,.69-1.15,4.56,4.56,0,0,0,0-2.92,3.28,3.28,0,0,0-.69-1.16,3.07,3.07,0,0,0-1.08-.76,3.79,3.79,0,0,0-2.81,0,3.07,3.07,0,0,0-1.08.76,3.28,3.28,0,0,0-.69,1.16A4.28,4.28,0,0,0,132.37,152.14Z"/><path class="cls-19" d="M144.6,146.48h3.29l4.67,7.87h0v-7.87H155v11.33h-3.16l-4.8-8.07h0v8.07H144.6Z"/><path class="cls-19" d="M158.58,146.48h7.47v2.3H161v2.12h4.77v2.3H161v2.3h5.33v2.31h-7.75Z"/><path class="cls-19" d="M263.79,149.25a1.64,1.64,0,0,0-.8-.57,2.79,2.79,0,0,0-.95-.18,2.48,2.48,0,0,0-.54.06,1.87,1.87,0,0,0-.53.2,1.19,1.19,0,0,0-.41.36,1,1,0,0,0-.15.54.9.9,0,0,0,.37.79,3.58,3.58,0,0,0,.94.46c.38.13.78.26,1.22.39a4.93,4.93,0,0,1,1.22.54,3,3,0,0,1,.94.94,3.07,3.07,0,0,1,.37,1.59,3.86,3.86,0,0,1-.34,1.65,3.23,3.23,0,0,1-.93,1.16,3.75,3.75,0,0,1-1.35.69,5.71,5.71,0,0,1-1.62.23,5.9,5.9,0,0,1-2-.34,4.92,4.92,0,0,1-1.7-1.09l1.72-1.95a2.48,2.48,0,0,0,.94.79,2.58,2.58,0,0,0,1.17.28,2.46,2.46,0,0,0,.6-.07,1.86,1.86,0,0,0,.54-.22,1.12,1.12,0,0,0,.39-.36.94.94,0,0,0,.15-.53,1,1,0,0,0-.38-.81,3.46,3.46,0,0,0-1-.5c-.38-.14-.79-.28-1.24-.42a5.8,5.8,0,0,1-1.24-.56,3,3,0,0,1-1-.93,2.74,2.74,0,0,1-.38-1.52,3.52,3.52,0,0,1,.35-1.6,3.63,3.63,0,0,1,.93-1.15,4.13,4.13,0,0,1,1.35-.7,5.45,5.45,0,0,1,1.56-.23,6.06,6.06,0,0,1,1.81.27,4.21,4.21,0,0,1,1.56.92Z"/><path class="cls-19" d="M270.64,148.69H267.5v-2.21h8.69v2.21h-3.13v9.12h-2.42Z"/><path class="cls-19" d="M278.75,146.48h7.47v2.3h-5.05v2.12h4.77v2.3h-4.77v2.3h5.33v2.31h-7.75Z"/><path class="cls-19" d="M289.68,146.48h4.08a7.51,7.51,0,0,1,1.61.16,3.7,3.7,0,0,1,1.33.55,2.75,2.75,0,0,1,.9,1.06,3.73,3.73,0,0,1,.34,1.67,3.87,3.87,0,0,1-.32,1.66,2.7,2.7,0,0,1-.85,1.08,3.44,3.44,0,0,1-1.29.56,6.8,6.8,0,0,1-1.61.17H292.1v4.42h-2.42Zm2.42,4.8h1.61a3.21,3.21,0,0,0,.63-.06,1.92,1.92,0,0,0,.55-.22,1.11,1.11,0,0,0,.38-.42,1.29,1.29,0,0,0,.15-.66,1.16,1.16,0,0,0-.19-.7,1.31,1.31,0,0,0-.5-.4,2.08,2.08,0,0,0-.67-.19c-.25,0-.49,0-.72,0H292.1Z"/><path class="cls-19" d="M308.66,148.69h-3.14v-2.21h8.7v2.21h-3.14v9.12h-2.42Z"/><path class="cls-19" d="M315.53,146.48h2.64l1.76,7.26h0l2.29-7.26h2.25l2.29,7.46h0l1.84-7.46h2.46l-3.22,11.33h-2.15L323.33,150h0l-2.42,7.84h-2.08Z"/><path class="cls-19" d="M332.86,152.14a6.49,6.49,0,0,1,.44-2.46,5.3,5.3,0,0,1,1.23-1.88,5.38,5.38,0,0,1,1.88-1.19,6.49,6.49,0,0,1,2.37-.42,6.58,6.58,0,0,1,2.38.42,5.27,5.27,0,0,1,3.11,3.07,7.12,7.12,0,0,1,0,4.93,5.27,5.27,0,0,1-3.11,3.07,6.58,6.58,0,0,1-2.38.42,6.49,6.49,0,0,1-2.37-.42,5.27,5.27,0,0,1-3.11-3.07A6.51,6.51,0,0,1,332.86,152.14Zm2.51,0a4.28,4.28,0,0,0,.24,1.47,3.33,3.33,0,0,0,.69,1.15,3.07,3.07,0,0,0,1.08.76,3.79,3.79,0,0,0,2.81,0,3.07,3.07,0,0,0,1.08-.76,3.33,3.33,0,0,0,.69-1.15,4.56,4.56,0,0,0,0-2.92,3.28,3.28,0,0,0-.69-1.16,3.07,3.07,0,0,0-1.08-.76,3.79,3.79,0,0,0-2.81,0,3.07,3.07,0,0,0-1.08.76,3.28,3.28,0,0,0-.69,1.16A4.28,4.28,0,0,0,335.37,152.14Z"/><path class="cls-19" d="M433.16,149.25a1.68,1.68,0,0,0-.8-.57,2.84,2.84,0,0,0-.95-.18,2.64,2.64,0,0,0-.55.06,1.93,1.93,0,0,0-.52.2,1.19,1.19,0,0,0-.41.36,1,1,0,0,0-.15.54.9.9,0,0,0,.37.79,3.58,3.58,0,0,0,.94.46c.38.13.78.26,1.22.39a4.93,4.93,0,0,1,1.22.54,2.88,2.88,0,0,1,.93.94,3,3,0,0,1,.38,1.59,3.86,3.86,0,0,1-.34,1.65,3.23,3.23,0,0,1-.93,1.16,3.92,3.92,0,0,1-1.35.69,5.71,5.71,0,0,1-1.62.23,5.85,5.85,0,0,1-2-.34,4.83,4.83,0,0,1-1.7-1.09l1.72-1.95a2.48,2.48,0,0,0,.94.79,2.58,2.58,0,0,0,1.17.28,2.46,2.46,0,0,0,.6-.07,1.86,1.86,0,0,0,.54-.22,1.12,1.12,0,0,0,.39-.36.94.94,0,0,0,.15-.53,1,1,0,0,0-.38-.81,3.6,3.6,0,0,0-1-.5c-.38-.14-.8-.28-1.24-.42a5.59,5.59,0,0,1-1.24-.56,2.94,2.94,0,0,1-1-.93,2.74,2.74,0,0,1-.38-1.52,3.52,3.52,0,0,1,.35-1.6,3.63,3.63,0,0,1,.93-1.15,4.13,4.13,0,0,1,1.35-.7,5.45,5.45,0,0,1,1.56-.23,6,6,0,0,1,1.8.27,4.17,4.17,0,0,1,1.57.92Z"/><path class="cls-19" d="M440,148.69h-3.13v-2.21h8.69v2.21h-3.13v9.12H440Z"/><path class="cls-19" d="M448.12,146.48h7.47v2.3h-5v2.12h4.77v2.3h-4.77v2.3h5.33v2.31h-7.75Z"/><path class="cls-19" d="M459.05,146.48h4.08a7.51,7.51,0,0,1,1.61.16,3.7,3.7,0,0,1,1.33.55,2.75,2.75,0,0,1,.9,1.06,3.73,3.73,0,0,1,.33,1.67,3.87,3.87,0,0,1-.31,1.66,2.7,2.7,0,0,1-.85,1.08,3.44,3.44,0,0,1-1.29.56,6.8,6.8,0,0,1-1.61.17h-1.77v4.42h-2.42Zm2.42,4.8h1.61a3.21,3.21,0,0,0,.63-.06,1.86,1.86,0,0,0,.54-.22,1.13,1.13,0,0,0,.39-.42,1.29,1.29,0,0,0,.15-.66,1.23,1.23,0,0,0-.19-.7,1.31,1.31,0,0,0-.5-.4,2.07,2.07,0,0,0-.68-.19c-.24,0-.48,0-.71,0h-1.24Z"/><path class="cls-19" d="M478,148.69h-3.14v-2.21h8.69v2.21h-3.13v9.12H478Z"/><path class="cls-19" d="M486.05,146.48h2.42v4.22h4.71v-4.22h2.42v11.33h-2.42v-4.9h-4.71v4.9h-2.42Z"/><path class="cls-19" d="M499.07,146.48h4.26a7.52,7.52,0,0,1,1.59.17,3.74,3.74,0,0,1,1.32.56,2.89,2.89,0,0,1,.9,1,3.75,3.75,0,0,1,.33,1.66,3.36,3.36,0,0,1-.61,2,2.65,2.65,0,0,1-1.77,1.06l2.8,4.79H505l-2.3-4.53h-1.2v4.53h-2.42Zm2.42,4.69h1.43l.69,0a1.89,1.89,0,0,0,.66-.14,1.15,1.15,0,0,0,.49-.38,1.39,1.39,0,0,0,0-1.4,1.18,1.18,0,0,0-.43-.4,1.89,1.89,0,0,0-.61-.18,5,5,0,0,0-.66,0h-1.59Z"/><path class="cls-19" d="M510.46,146.48h7.47v2.3h-5v2.12h4.77v2.3h-4.77v2.3h5.33v2.31h-7.75Z"/><path class="cls-19" d="M521.48,146.48H529v2.3H523.9v2.12h4.77v2.3H523.9v2.3h5.33v2.31h-7.75Z"/><path class="cls-19" d="M614.18,149.25a1.65,1.65,0,0,0-.79-.57,2.89,2.89,0,0,0-1-.18,2.48,2.48,0,0,0-.54.06,2,2,0,0,0-.53.2,1.07,1.07,0,0,0-.4.36.89.89,0,0,0-.16.54.93.93,0,0,0,.37.79,3.74,3.74,0,0,0,.94.46l1.22.39a4.77,4.77,0,0,1,1.22.54,2.91,2.91,0,0,1,.94.94,3,3,0,0,1,.37,1.59,3.71,3.71,0,0,1-.34,1.65,3.31,3.31,0,0,1-.92,1.16,3.92,3.92,0,0,1-1.35.69,5.92,5.92,0,0,1-3.61-.11,5,5,0,0,1-1.71-1.09l1.72-1.95a2.48,2.48,0,0,0,.94.79,2.58,2.58,0,0,0,1.17.28,2.46,2.46,0,0,0,.6-.07,1.86,1.86,0,0,0,.54-.22,1.12,1.12,0,0,0,.39-.36.94.94,0,0,0,.15-.53,1,1,0,0,0-.38-.81,3.39,3.39,0,0,0-.95-.5c-.39-.14-.8-.28-1.25-.42a5.8,5.8,0,0,1-1.24-.56,2.91,2.91,0,0,1-1-.93,2.66,2.66,0,0,1-.38-1.52,3.38,3.38,0,0,1,1.28-2.75,4.08,4.08,0,0,1,1.34-.7,5.52,5.52,0,0,1,1.57-.23,6,6,0,0,1,1.8.27,4.25,4.25,0,0,1,1.57.92Z"/><path class="cls-19" d="M621,148.69h-3.14v-2.21h8.69v2.21h-3.13v9.12H621Z"/><path class="cls-19" d="M629.15,146.48h7.46v2.3h-5v2.12h4.76v2.3h-4.76v2.3h5.32v2.31h-7.74Z"/><path class="cls-19" d="M640.07,146.48h4.08a7.67,7.67,0,0,1,1.62.16,3.65,3.65,0,0,1,1.32.55,2.75,2.75,0,0,1,.9,1.06,3.6,3.6,0,0,1,.34,1.67,4,4,0,0,1-.31,1.66,2.72,2.72,0,0,1-.86,1.08,3.47,3.47,0,0,1-1.28.56,6.94,6.94,0,0,1-1.62.17h-1.77v4.42h-2.42Zm2.42,4.8h1.62a3.36,3.36,0,0,0,.63-.06,1.86,1.86,0,0,0,.54-.22,1.13,1.13,0,0,0,.39-.42,1.4,1.4,0,0,0,.14-.66,1.16,1.16,0,0,0-.19-.7,1.24,1.24,0,0,0-.5-.4,2,2,0,0,0-.67-.19c-.25,0-.49,0-.72,0h-1.24Z"/><path class="cls-19" d="M657,146.48h7.37v2.3h-4.95v2.31H664v2.3h-4.58v4.42H657Z"/><path class="cls-19" d="M666.78,152.14a6.69,6.69,0,0,1,.44-2.46,5.46,5.46,0,0,1,1.24-1.88,5.34,5.34,0,0,1,1.87-1.19,6.58,6.58,0,0,1,2.38-.42,6.49,6.49,0,0,1,2.37.42A5.38,5.38,0,0,1,677,147.8a5.46,5.46,0,0,1,1.24,1.88,7.12,7.12,0,0,1,0,4.93,5.55,5.55,0,0,1-1.24,1.88,5.38,5.38,0,0,1-1.88,1.19,6.49,6.49,0,0,1-2.37.42,6.58,6.58,0,0,1-2.38-.42,5.34,5.34,0,0,1-1.87-1.19,5.55,5.55,0,0,1-1.24-1.88A6.71,6.71,0,0,1,666.78,152.14Zm2.51,0a4.27,4.27,0,0,0,.25,1.47,3.33,3.33,0,0,0,.69,1.15,3.12,3.12,0,0,0,1.07.76,3.55,3.55,0,0,0,1.41.27,3.46,3.46,0,0,0,1.4-.27,3.07,3.07,0,0,0,1.08-.76,3.33,3.33,0,0,0,.69-1.15,4.56,4.56,0,0,0,0-2.92,3.28,3.28,0,0,0-.69-1.16,3.07,3.07,0,0,0-1.08-.76,3.46,3.46,0,0,0-1.4-.27,3.55,3.55,0,0,0-1.41.27,3.12,3.12,0,0,0-1.07.76,3.28,3.28,0,0,0-.69,1.16A4.29,4.29,0,0,0,669.29,152.14Z"/><path class="cls-19" d="M690.79,153.44a5.85,5.85,0,0,1-.29,1.86,4.21,4.21,0,0,1-.88,1.47,4,4,0,0,1-1.45,1,5.79,5.79,0,0,1-4,0,3.94,3.94,0,0,1-1.45-1,4.21,4.21,0,0,1-.88-1.47,5.58,5.58,0,0,1-.29-1.86v-7H684v6.86a2.8,2.8,0,0,0,.16,1,2.33,2.33,0,0,0,.46.78,2.11,2.11,0,0,0,.7.51,2.23,2.23,0,0,0,.9.18,2.13,2.13,0,0,0,.88-.18,2.22,2.22,0,0,0,.7-.51,2.33,2.33,0,0,0,.46-.78,3.05,3.05,0,0,0,.16-1v-6.86h2.42Z"/><path class="cls-19" d="M694.27,146.48h4.25a7.38,7.38,0,0,1,1.59.17,3.74,3.74,0,0,1,1.32.56,2.72,2.72,0,0,1,.9,1,3.75,3.75,0,0,1,.33,1.66,3.42,3.42,0,0,1-.6,2,2.7,2.7,0,0,1-1.77,1.06l2.79,4.79h-2.9l-2.3-4.53h-1.19v4.53h-2.42Zm2.42,4.69h1.43l.69,0a2,2,0,0,0,.66-.14,1.21,1.21,0,0,0,.49-.38,1.45,1.45,0,0,0,0-1.4,1.3,1.3,0,0,0-.44-.4,1.76,1.76,0,0,0-.6-.18,5.16,5.16,0,0,0-.67,0h-1.58Z"/><path class="cls-19" d="M795.86,149.25a1.68,1.68,0,0,0-.8-.57,2.79,2.79,0,0,0-.95-.18,2.64,2.64,0,0,0-.55.06,1.93,1.93,0,0,0-.52.2,1.19,1.19,0,0,0-.41.36,1,1,0,0,0-.15.54.9.9,0,0,0,.37.79,3.58,3.58,0,0,0,.94.46c.38.13.78.26,1.22.39a4.93,4.93,0,0,1,1.22.54,3,3,0,0,1,.94.94,3.07,3.07,0,0,1,.37,1.59,3.86,3.86,0,0,1-.34,1.65,3.23,3.23,0,0,1-.93,1.16,3.92,3.92,0,0,1-1.35.69,5.71,5.71,0,0,1-1.62.23,5.85,5.85,0,0,1-2-.34,4.83,4.83,0,0,1-1.7-1.09l1.72-1.95a2.48,2.48,0,0,0,.94.79,2.58,2.58,0,0,0,1.17.28,2.46,2.46,0,0,0,.6-.07,1.86,1.86,0,0,0,.54-.22,1.12,1.12,0,0,0,.39-.36.94.94,0,0,0,.15-.53,1,1,0,0,0-.38-.81,3.6,3.6,0,0,0-1-.5c-.38-.14-.8-.28-1.24-.42a5.59,5.59,0,0,1-1.24-.56,3,3,0,0,1-1-.93,2.74,2.74,0,0,1-.38-1.52,3.52,3.52,0,0,1,.35-1.6,3.63,3.63,0,0,1,.93-1.15,4.13,4.13,0,0,1,1.35-.7,5.45,5.45,0,0,1,1.56-.23,6,6,0,0,1,1.8.27,4.17,4.17,0,0,1,1.57.92Z"/><path class="cls-19" d="M802.71,148.69h-3.14v-2.21h8.69v2.21h-3.13v9.12h-2.42Z"/><path class="cls-19" d="M810.82,146.48h7.47v2.3h-5v2.12H818v2.3h-4.77v2.3h5.33v2.31h-7.75Z"/><path class="cls-19" d="M821.75,146.48h4.08a7.51,7.51,0,0,1,1.61.16,3.7,3.7,0,0,1,1.33.55,2.75,2.75,0,0,1,.9,1.06,3.73,3.73,0,0,1,.33,1.67,3.87,3.87,0,0,1-.31,1.66,2.7,2.7,0,0,1-.85,1.08,3.44,3.44,0,0,1-1.29.56,6.8,6.8,0,0,1-1.61.17h-1.77v4.42h-2.42Zm2.42,4.8h1.61a3.21,3.21,0,0,0,.63-.06A1.86,1.86,0,0,0,827,151a1.06,1.06,0,0,0,.39-.42,1.29,1.29,0,0,0,.15-.66,1.23,1.23,0,0,0-.19-.7,1.31,1.31,0,0,0-.5-.4,2.07,2.07,0,0,0-.68-.19c-.24,0-.48,0-.71,0h-1.24Z"/><path class="cls-19" d="M838.7,146.48h7.37v2.3h-5v2.31h4.57v2.3h-4.57v4.42H838.7Z"/><path class="cls-19" d="M849,146.48h2.42v11.33H849Z"/><path class="cls-19" d="M853.8,146.48h2.76l2.71,7.42h0l2.76-7.42h2.59l-4.53,11.33h-1.94Z"/><path class="cls-19" d="M867.14,146.48h7.47v2.3h-5.05v2.12h4.77v2.3h-4.77v2.3h5.33v2.31h-7.75Z"/></g></g></svg>