<svg xmlns="http://www.w3.org/2000/svg" viewBox="0 0 261.38 13.39"><defs><style>.cls-1{fill:#fff;}</style></defs><g id="レイヤー_2" data-name="レイヤー 2"><g id="文字"><path class="cls-1" d="M0,.32H7.9V1.73H1.51V5.94H7.45v1.4H1.51v5.73H0Z"/><path class="cls-1" d="M27.67,8.21a7.57,7.57,0,0,1-.26,2,4.62,4.62,0,0,1-.83,1.64A4,4,0,0,1,25.09,13a5.31,5.31,0,0,1-2.23.42A5.31,5.31,0,0,1,20.63,13a4,4,0,0,1-1.49-1.14,4.6,4.6,0,0,1-.82-1.64,7.17,7.17,0,0,1-.27-2V.32h1.52V8a6.7,6.7,0,0,0,.16,1.5,3.72,3.72,0,0,0,.54,1.27,2.75,2.75,0,0,0,1,.9,3.36,3.36,0,0,0,1.58.33,3.36,3.36,0,0,0,1.58-.33,2.75,2.75,0,0,0,1-.9A3.72,3.72,0,0,0,26,9.49,6.7,6.7,0,0,0,26.15,8V.32h1.52Z"/><path class="cls-1" d="M38.88.32h1.91l7.38,10.59h0V.32h1.52V13.07H47.81L40.43,2.48h0V13.07H38.88Z"/><path class="cls-1" d="M69.91,3a3.7,3.7,0,0,0-1.42-1.16,4.14,4.14,0,0,0-1.76-.39,4.44,4.44,0,0,0-2,.44A4.85,4.85,0,0,0,63.23,3a5.29,5.29,0,0,0-1,1.69,5.68,5.68,0,0,0-.36,2,5.94,5.94,0,0,0,.36,2.08,5.24,5.24,0,0,0,1,1.67,4.73,4.73,0,0,0,1.53,1.12,4.91,4.91,0,0,0,4.06,0,4.83,4.83,0,0,0,1.61-1.32l1.13.95a5.25,5.25,0,0,1-2.08,1.69,6.67,6.67,0,0,1-2.74.54,6.57,6.57,0,0,1-2.56-.5,6.27,6.27,0,0,1-2.06-1.4,6.46,6.46,0,0,1-1.37-2.11,7.1,7.1,0,0,1-.49-2.68,7.1,7.1,0,0,1,.47-2.63,6.48,6.48,0,0,1,1.34-2.13A6.39,6.39,0,0,1,66.73,0a6.84,6.84,0,0,1,2.49.47,4.56,4.56,0,0,1,2,1.53Z"/><path class="cls-1" d="M90.31,1.73H86.09V13.07H84.58V1.73H80.37V.32h9.94Z"/><path class="cls-1" d="M100.19.32h1.51V13.07h-1.51Z"/><path class="cls-1" d="M118.89,13.39a7,7,0,0,1-2.67-.5,6.38,6.38,0,0,1-2.11-1.4,6.3,6.3,0,0,1-1.39-2.12,7.08,7.08,0,0,1-.49-2.67A7.14,7.14,0,0,1,112.72,4a6.3,6.3,0,0,1,1.39-2.12A6.38,6.38,0,0,1,116.22.5a7.38,7.38,0,0,1,5.34,0,6.49,6.49,0,0,1,2.11,1.4A6.27,6.27,0,0,1,125.05,4a7.14,7.14,0,0,1,.5,2.68,7.09,7.09,0,0,1-.5,2.67,6.27,6.27,0,0,1-1.38,2.12,6.49,6.49,0,0,1-2.11,1.4A7,7,0,0,1,118.89,13.39Zm0-1.4a4.9,4.9,0,0,0,2-.42,4.79,4.79,0,0,0,1.6-1.13,5.32,5.32,0,0,0,1-1.68,5.62,5.62,0,0,0,.37-2.06,5.67,5.67,0,0,0-.37-2.07,5.32,5.32,0,0,0-1-1.68,4.79,4.79,0,0,0-1.6-1.13,5.16,5.16,0,0,0-4.08,0A4.79,4.79,0,0,0,115.25,3a5.14,5.14,0,0,0-1,1.68,5.67,5.67,0,0,0-.37,2.07,5.62,5.62,0,0,0,.37,2.06,5.14,5.14,0,0,0,1,1.68,4.79,4.79,0,0,0,1.6,1.13A4.87,4.87,0,0,0,118.89,12Z"/><path class="cls-1" d="M136.08.32H138l7.38,10.59h0V.32h1.52V13.07H145L137.63,2.48h0V13.07h-1.51Z"/><path class="cls-1" d="M169.81.32h1.68l2.89,10.59h0L177.55.32h1.69l3.12,10.59h0l3-10.59h1.58l-3.74,12.75h-1.64L178.4,2.27h0l-3.17,10.8h-1.65Z"/><path class="cls-1" d="M200.43.32h1.42l5.42,12.75h-1.76l-1.3-3.13h-6.37l-1.32,3.13h-1.71Zm.68,2h0l-2.65,6.26h5.2Z"/><path class="cls-1" d="M224,1.73h-4.22V13.07h-1.51V1.73H214V.32H224Z"/><path class="cls-1" d="M233.84.32h8V1.73h-6.5v4h6.07V7.13h-6.07v4.53h6.82v1.41h-8.33Z"/><path class="cls-1" d="M252.61.32h3.26a16,16,0,0,1,1.83.11,5,5,0,0,1,1.63.47,3,3,0,0,1,1.17,1A3.53,3.53,0,0,1,261,3.83a3.11,3.11,0,0,1-.85,2.27,4,4,0,0,1-2.34,1.1l3.62,5.87h-1.86l-3.45-5.73h-1.95v5.73h-1.51Zm1.51,5.62h1.35c.42,0,.86,0,1.31,0A4.4,4.4,0,0,0,258,5.67a2.18,2.18,0,0,0,.94-.62,1.83,1.83,0,0,0,.37-1.22,1.88,1.88,0,0,0-.28-1.09,1.69,1.69,0,0,0-.71-.64,3,3,0,0,0-1-.3,8,8,0,0,0-1.1-.07h-2.13Z"/></g></g></svg>