<svg xmlns="http://www.w3.org/2000/svg" viewBox="0 0 500.18 13.39"><defs><style>.cls-1{fill:#6c8485;}</style></defs><g id="レイヤー_2" data-name="レイヤー 2"><g id="文字"><path class="cls-1" d="M0,.32H1.51v5.4H8.32V.32H9.83V13.07H8.32V7.13H1.51v5.94H0Z"/><path class="cls-1" d="M24.1,7.58,19.35.32h1.92l3.59,5.76L28.55.32h1.81L25.61,7.58v5.49H24.1Z"/><path class="cls-1" d="M50.72,12.2a8.8,8.8,0,0,1-2.31.9,10.21,10.21,0,0,1-2.46.29,7.53,7.53,0,0,1-2.73-.48,6.38,6.38,0,0,1-2.15-1.37,6.13,6.13,0,0,1-1.42-2.12,7.24,7.24,0,0,1-.5-2.72A7,7,0,0,1,39.68,4a6.17,6.17,0,0,1,1.47-2.11A6.67,6.67,0,0,1,43.33.49,7.14,7.14,0,0,1,46,0a7.85,7.85,0,0,1,2.42.38,5.19,5.19,0,0,1,2.08,1.29L49.37,2.86A4.24,4.24,0,0,0,47.8,1.78a5,5,0,0,0-1.9-.38,5.21,5.21,0,0,0-2,.4,4.94,4.94,0,0,0-2.71,2.77,5.68,5.68,0,0,0-.39,2.13,5.6,5.6,0,0,0,.39,2.1,5,5,0,0,0,1.08,1.69,4.77,4.77,0,0,0,1.66,1.1A5.51,5.51,0,0,0,46,12a7.76,7.76,0,0,0,1.62-.19,6.6,6.6,0,0,0,1.55-.55V7.34H46.28V5.94h4.44Z"/><path class="cls-1" d="M62,.32H63.5V13.07H62Z"/><path class="cls-1" d="M74.77.32h8V1.73h-6.5v4h6.07V7.13H76.28v4.53h6.83v1.41H74.77Z"/><path class="cls-1" d="M93.55.32h1.9l7.38,10.59h0V.32h1.51V13.07h-1.91L95.09,2.48h0V13.07H93.55Z"/><path class="cls-1" d="M115.65.32h8V1.73h-6.5v4h6.07V7.13h-6.07v4.53H124v1.41h-8.33Z"/><path class="cls-1" d="M147.53.32h2.25l4.32,10h0l4.36-10h2.2V13.07h-1.52V2.38h0l-4.58,10.69h-.91L149.07,2.38h0V13.07h-1.51Z"/><path class="cls-1" d="M176.09.32h1.43l5.41,12.75h-1.76l-1.3-3.13H173.5l-1.31,3.13h-1.71Zm.69,2h0L174.1,8.53h5.2Z"/><path class="cls-1" d="M192.73.32h1.9L202,10.91h0V.32h1.51V13.07h-1.91L194.27,2.48h0V13.07h-1.51Z"/><path class="cls-1" d="M219,.32h1.42l5.42,12.75H224l-1.29-3.13h-6.37l-1.32,3.13h-1.71Zm.68,2h0L217,8.53h5.2Z"/><path class="cls-1" d="M246.44,12.2a9,9,0,0,1-2.32.9,10.19,10.19,0,0,1-2.45.29,7.54,7.54,0,0,1-2.74-.48,6.48,6.48,0,0,1-2.15-1.37,6,6,0,0,1-1.41-2.12,7,7,0,0,1-.51-2.72A7,7,0,0,1,235.39,4a6.46,6.46,0,0,1,1.47-2.11A6.67,6.67,0,0,1,239,.49,7.17,7.17,0,0,1,241.72,0a7.81,7.81,0,0,1,2.42.38,5.12,5.12,0,0,1,2.08,1.29l-1.13,1.19a4.36,4.36,0,0,0-1.58-1.08,5,5,0,0,0-1.9-.38,5.21,5.21,0,0,0-2,.4A4.84,4.84,0,0,0,238,2.9a5,5,0,0,0-1.08,1.67,5.68,5.68,0,0,0-.39,2.13,5.6,5.6,0,0,0,.39,2.1A5.2,5.2,0,0,0,238,10.49a4.87,4.87,0,0,0,1.66,1.1,5.56,5.56,0,0,0,2.15.4,7.92,7.92,0,0,0,1.62-.19,6.76,6.76,0,0,0,1.55-.55V7.34H242V5.94h4.45Z"/><path class="cls-1" d="M257.7.32h8V1.73h-6.49v4h6.06V7.13h-6.06v4.53H266v1.41H257.7Z"/><path class="cls-1" d="M276.48.32h2.25l4.32,10h0l4.35-10h2.2V13.07h-1.51V2.38h0l-4.57,10.69h-.92L278,2.38h0V13.07h-1.51Z"/><path class="cls-1" d="M300.9.32h8V1.73h-6.49v4h6.06V7.13h-6.06v4.53h6.82v1.41H300.9Z"/><path class="cls-1" d="M319.68.32h1.91L329,10.91h0V.32h1.51V13.07h-1.9L321.23,2.48h0V13.07h-1.51Z"/><path class="cls-1" d="M350.33,1.73h-4.21V13.07h-1.51V1.73H340.4V.32h9.93Z"/><path class="cls-1" d="M379.37,2.57a2.34,2.34,0,0,0-1-.89A3.33,3.33,0,0,0,377,1.4a4.06,4.06,0,0,0-1,.13,2.79,2.79,0,0,0-.88.38,2,2,0,0,0-.62.66,1.92,1.92,0,0,0-.23,1,2,2,0,0,0,.13.76,1.66,1.66,0,0,0,.44.6,3.49,3.49,0,0,0,.83.51,13.46,13.46,0,0,0,1.28.47c.49.15,1,.32,1.43.5a4.94,4.94,0,0,1,1.22.68,3.07,3.07,0,0,1,.85,1,3.41,3.41,0,0,1,.31,1.56,3.46,3.46,0,0,1-.37,1.65,3.52,3.52,0,0,1-1,1.16,4.32,4.32,0,0,1-1.43.69,6.25,6.25,0,0,1-1.68.22,6,6,0,0,1-1.11-.1,5.28,5.28,0,0,1-1.07-.3,4.38,4.38,0,0,1-1-.54,3.35,3.35,0,0,1-.77-.82l1.3-1.06a2.63,2.63,0,0,0,1.15,1.06,3.5,3.5,0,0,0,1.56.36,3.33,3.33,0,0,0,1-.15,2.86,2.86,0,0,0,.9-.42,2.35,2.35,0,0,0,.64-.69,1.81,1.81,0,0,0,.25-1,2.08,2.08,0,0,0-.19-1,2,2,0,0,0-.61-.64,4.69,4.69,0,0,0-1-.48l-1.48-.51a10.33,10.33,0,0,1-1.26-.49,4,4,0,0,1-1-.69A2.76,2.76,0,0,1,373,5a3.48,3.48,0,0,1-.24-1.36,3.4,3.4,0,0,1,.36-1.6,3.25,3.25,0,0,1,1-1.14,4.43,4.43,0,0,1,1.39-.7,5.94,5.94,0,0,1,3.59.1,4,4,0,0,1,1.59,1.16Z"/><path class="cls-1" d="M401,8.21a7.17,7.17,0,0,1-.26,2,4.6,4.6,0,0,1-.82,1.64A4,4,0,0,1,398.41,13,6.13,6.13,0,0,1,394,13a3.91,3.91,0,0,1-1.49-1.14,4.62,4.62,0,0,1-.83-1.64,7.57,7.57,0,0,1-.26-2V.32h1.51V8a6.69,6.69,0,0,0,.17,1.5,3.37,3.37,0,0,0,.54,1.27,2.72,2.72,0,0,0,1,.9,4,4,0,0,0,3.17,0,2.75,2.75,0,0,0,1-.9,3.72,3.72,0,0,0,.54-1.27,6.7,6.7,0,0,0,.16-1.5V.32H401Z"/><path class="cls-1" d="M412.2.32H416a7.59,7.59,0,0,1,1.68.18,4.07,4.07,0,0,1,1.42.57,2.86,2.86,0,0,1,1,1.08,3.41,3.41,0,0,1,.37,1.67,3.42,3.42,0,0,1-.39,1.72,3.12,3.12,0,0,1-1,1.08,4.16,4.16,0,0,1-1.36.56,6.4,6.4,0,0,1-1.4.16h-2.56v5.73H412.2Zm1.51,5.62h2.56a3.08,3.08,0,0,0,1.84-.51,1.86,1.86,0,0,0,.71-1.6,1.83,1.83,0,0,0-.71-1.59,3.08,3.08,0,0,0-1.84-.51h-2.56Z"/><path class="cls-1" d="M431,.32h3.78a7.75,7.75,0,0,1,1.69.18,4.15,4.15,0,0,1,1.42.57,3,3,0,0,1,1,1.08,3.52,3.52,0,0,1,.37,1.67,3.42,3.42,0,0,1-.4,1.72,3,3,0,0,1-1,1.08,4,4,0,0,1-1.36.56,6.4,6.4,0,0,1-1.4.16h-2.56v5.73H431Zm1.51,5.62H435a3.11,3.11,0,0,0,1.85-.51,1.86,1.86,0,0,0,.71-1.6,1.83,1.83,0,0,0-.71-1.59A3.11,3.11,0,0,0,435,1.73h-2.56Z"/><path class="cls-1" d="M455.67,13.39a7.06,7.06,0,0,1-2.68-.5,6.44,6.44,0,0,1-2.1-1.4,6.15,6.15,0,0,1-1.39-2.12A7.08,7.08,0,0,1,449,6.7,7.14,7.14,0,0,1,449.5,4a6.15,6.15,0,0,1,1.39-2.12A6.44,6.44,0,0,1,453,.5a7.41,7.41,0,0,1,5.35,0,6.49,6.49,0,0,1,2.11,1.4A6.27,6.27,0,0,1,461.83,4a7.14,7.14,0,0,1,.5,2.68,7.09,7.09,0,0,1-.5,2.67,6.27,6.27,0,0,1-1.38,2.12,6.49,6.49,0,0,1-2.11,1.4A7,7,0,0,1,455.67,13.39Zm0-1.4a4.9,4.9,0,0,0,2-.42,4.66,4.66,0,0,0,1.59-1.13,5.16,5.16,0,0,0,1-1.68,5.95,5.95,0,0,0,0-4.13,5.16,5.16,0,0,0-1-1.68,4.66,4.66,0,0,0-1.59-1.13A5,5,0,0,0,452,3a5.14,5.14,0,0,0-1,1.68,5.67,5.67,0,0,0-.37,2.07A5.62,5.62,0,0,0,451,8.76a5.14,5.14,0,0,0,1,1.68,4.86,4.86,0,0,0,1.59,1.13A4.91,4.91,0,0,0,455.67,12Z"/><path class="cls-1" d="M472.86.32h3.26a15.74,15.74,0,0,1,1.82.11,4.84,4.84,0,0,1,1.63.47,3,3,0,0,1,1.17,1,3.44,3.44,0,0,1,.45,1.88,3.1,3.1,0,0,1-.84,2.27A4.08,4.08,0,0,1,478,7.2l3.61,5.87h-1.85l-3.46-5.73h-1.94v5.73h-1.51Zm1.51,5.62h1.35c.42,0,.85,0,1.3,0a4.41,4.41,0,0,0,1.25-.23,2.09,2.09,0,0,0,.93-.62,1.78,1.78,0,0,0,.37-1.22,2,2,0,0,0-.27-1.09,1.75,1.75,0,0,0-.71-.64,3,3,0,0,0-1-.3,8.17,8.17,0,0,0-1.11-.07h-2.12Z"/><path class="cls-1" d="M500.18,1.73H496V13.07h-1.51V1.73h-4.21V.32h9.93Z"/></g></g></svg>