<svg xmlns="http://www.w3.org/2000/svg" viewBox="0 0 73.82 13.39"><defs><style>.cls-1{fill:#6c8485;}</style></defs><g id="レイヤー_2" data-name="レイヤー 2"><g id="文字"><path class="cls-1" d="M0,.32H1.91L9.29,10.91h0V.32h1.52V13.07H8.93L1.55,2.48h0V13.07H0Z"/><path class="cls-1" d="M22.1.32h8V1.73H23.62v4h6.06V7.13H23.62v4.53h6.82v1.41H22.1Z"/><path class="cls-1" d="M39.4.32h1.68L44,10.91h0L47.14.32h1.69L52,10.91h0l3-10.59h1.58L52.78,13.07H51.14L48,2.27h0l-3.17,10.8H43.13Z"/><path class="cls-1" d="M72.36,2.57a2.29,2.29,0,0,0-1-.89A3.32,3.32,0,0,0,70,1.4a4.07,4.07,0,0,0-1,.13,2.79,2.79,0,0,0-.88.38,2.06,2.06,0,0,0-.62.66,2,2,0,0,0-.23,1,2,2,0,0,0,.13.76,1.58,1.58,0,0,0,.45.6,3.41,3.41,0,0,0,.82.51c.35.15.78.31,1.28.47s1,.32,1.43.5a5.2,5.2,0,0,1,1.23.68,3.16,3.16,0,0,1,.84,1,3.41,3.41,0,0,1,.32,1.56,3.46,3.46,0,0,1-.38,1.65,3.41,3.41,0,0,1-1,1.16,4.22,4.22,0,0,1-1.43.69,6.22,6.22,0,0,1-1.67.22,6,6,0,0,1-1.12-.1,5.47,5.47,0,0,1-1.07-.3,4.54,4.54,0,0,1-1-.54,3.39,3.39,0,0,1-.78-.82l1.3-1.06a2.68,2.68,0,0,0,1.15,1.06,3.51,3.51,0,0,0,1.57.36,3.38,3.38,0,0,0,1-.15,2.8,2.8,0,0,0,.89-.42,2.38,2.38,0,0,0,.65-.69,1.91,1.91,0,0,0,.25-1,2.07,2.07,0,0,0-.2-1,1.85,1.85,0,0,0-.61-.64,4.69,4.69,0,0,0-1-.48l-1.47-.51a9.19,9.19,0,0,1-1.26-.49,3.86,3.86,0,0,1-1-.69,2.9,2.9,0,0,1-.67-1,3.48,3.48,0,0,1-.24-1.36,3.4,3.4,0,0,1,.36-1.6A3.25,3.25,0,0,1,67,.93a4.43,4.43,0,0,1,1.39-.7A5.71,5.71,0,0,1,70,0a5.66,5.66,0,0,1,2,.33A4,4,0,0,1,73.6,1.49Z"/></g></g></svg>