<svg xmlns="http://www.w3.org/2000/svg" viewBox="0 0 307.31 13.39"><defs><style>.cls-1{fill:#5fc1c7;}</style></defs><g id="レイヤー_2" data-name="レイヤー 2"><g id="画像02"><path class="cls-1" d="M9.67,3A3.73,3.73,0,0,0,8.24,1.79,4.14,4.14,0,0,0,6.48,1.4a4.36,4.36,0,0,0-1.95.44A4.64,4.64,0,0,0,3,3,5.31,5.31,0,0,0,2,4.69a5.68,5.68,0,0,0-.36,2A5.85,5.85,0,0,0,2,8.77a5.14,5.14,0,0,0,1,1.68,4.63,4.63,0,0,0,1.53,1.12,4.55,4.55,0,0,0,2,.42,4.69,4.69,0,0,0,2.09-.46,4.9,4.9,0,0,0,1.6-1.32l1.13.95a5.18,5.18,0,0,1-2.08,1.69,6.63,6.63,0,0,1-2.74.54,6.64,6.64,0,0,1-2.56-.5,6.27,6.27,0,0,1-2.06-1.4A6.46,6.46,0,0,1,.49,9.38,7.1,7.1,0,0,1,0,6.7,7.11,7.11,0,0,1,.48,4.07,6.17,6.17,0,0,1,1.82,1.94,6.34,6.34,0,0,1,6.48,0,6.84,6.84,0,0,1,9,.47,4.56,4.56,0,0,1,11,2Z"/><path class="cls-1" d="M27.43,13.39a7,7,0,0,1-2.67-.5,6.49,6.49,0,0,1-2.11-1.4,6.27,6.27,0,0,1-1.38-2.12,7.09,7.09,0,0,1-.5-2.67A7.14,7.14,0,0,1,21.27,4,6.27,6.27,0,0,1,22.65,1.9,6.49,6.49,0,0,1,24.76.5,7.38,7.38,0,0,1,30.1.5a6.38,6.38,0,0,1,2.11,1.4A6.3,6.3,0,0,1,33.6,4a7.14,7.14,0,0,1,.49,2.68,7.08,7.08,0,0,1-.49,2.67,6.3,6.3,0,0,1-1.39,2.12,6.38,6.38,0,0,1-2.11,1.4A7,7,0,0,1,27.43,13.39Zm0-1.4a4.94,4.94,0,0,0,3.64-1.55,5.14,5.14,0,0,0,1-1.68,5.62,5.62,0,0,0,.37-2.06,5.67,5.67,0,0,0-.37-2.07,5.14,5.14,0,0,0-1-1.68A4.94,4.94,0,0,0,27.43,1.4a4.9,4.9,0,0,0-2,.42A4.66,4.66,0,0,0,23.8,3a5.16,5.16,0,0,0-1,1.68,5.67,5.67,0,0,0-.37,2.07,5.62,5.62,0,0,0,.37,2.06,5.16,5.16,0,0,0,1,1.68,4.66,4.66,0,0,0,1.59,1.13A4.9,4.9,0,0,0,27.43,12Z"/><path class="cls-1" d="M44.62.32h2.25l4.32,10h0l4.35-10h2.2V13.07H56.27V2.38h0L51.66,13.07h-.92L46.17,2.38h0V13.07H44.62Z"/><path class="cls-1" d="M69.05.32h3.78a8.25,8.25,0,0,1,1.68.17,4.29,4.29,0,0,1,1.42.58,2.86,2.86,0,0,1,1,1.08,3.41,3.41,0,0,1,.37,1.67,3.42,3.42,0,0,1-.39,1.72,3.12,3.12,0,0,1-1,1.08,4.16,4.16,0,0,1-1.36.56,6.4,6.4,0,0,1-1.4.16H70.56v5.73H69.05Zm1.51,5.62h2.56A3.08,3.08,0,0,0,75,5.43a1.86,1.86,0,0,0,.71-1.6A1.83,1.83,0,0,0,75,2.24a3.08,3.08,0,0,0-1.84-.51H70.56Z"/><path class="cls-1" d="M90.63.32h1.42l5.42,12.75H95.71l-1.3-3.13H88l-1.32,3.13H85Zm.68,2h0L88.63,8.53h5.2Z"/><path class="cls-1" d="M107.26.32h1.91l7.38,10.59h0V.32h1.51V13.07h-1.91L108.81,2.48h0V13.07h-1.51Z"/><path class="cls-1" d="M132.37,7.58,127.62.32h1.93l3.58,5.76L136.82.32h1.82l-4.76,7.26v5.49h-1.51Z"/><path class="cls-1" d="M167.18,13.39a7,7,0,0,1-2.67-.5,6.49,6.49,0,0,1-2.11-1.4A6.27,6.27,0,0,1,161,9.37a7.09,7.09,0,0,1-.5-2.67A7.14,7.14,0,0,1,161,4,6.27,6.27,0,0,1,162.4,1.9,6.49,6.49,0,0,1,164.51.5a7.41,7.41,0,0,1,5.35,0A6.34,6.34,0,0,1,172,1.9,6.15,6.15,0,0,1,173.35,4a7.14,7.14,0,0,1,.49,2.68,7.08,7.08,0,0,1-.49,2.67A6.15,6.15,0,0,1,172,11.49a6.34,6.34,0,0,1-2.1,1.4A7,7,0,0,1,167.18,13.39Zm0-1.4a4.91,4.91,0,0,0,2-.42,4.75,4.75,0,0,0,1.59-1.13,5.14,5.14,0,0,0,1-1.68,5.62,5.62,0,0,0,.37-2.06,5.67,5.67,0,0,0-.37-2.07,5.14,5.14,0,0,0-1-1.68,4.75,4.75,0,0,0-1.59-1.13,5.19,5.19,0,0,0-4.09,0A4.66,4.66,0,0,0,163.55,3a5.16,5.16,0,0,0-1,1.68,5.95,5.95,0,0,0,0,4.13,5.16,5.16,0,0,0,1,1.68,4.66,4.66,0,0,0,1.59,1.13A4.9,4.9,0,0,0,167.18,12Z"/><path class="cls-1" d="M182.63.32h1.71l3.92,10.48h0l4-10.48H194l-5,12.75h-1.45Z"/><path class="cls-1" d="M203.47.32h8V1.73H205v4h6.07V7.13H205v4.53h6.83v1.41h-8.34Z"/><path class="cls-1" d="M222.25.32h3.25a15.91,15.91,0,0,1,1.83.11A4.84,4.84,0,0,1,229,.9a3,3,0,0,1,1.17,1,3.44,3.44,0,0,1,.45,1.88,3.07,3.07,0,0,1-.85,2.27,4,4,0,0,1-2.34,1.1L231,13.07h-1.85L225.7,7.34h-1.94v5.73h-1.51Zm1.51,5.62h1.35c.42,0,.85,0,1.3,0a4.47,4.47,0,0,0,1.25-.23,2.21,2.21,0,0,0,.93-.62A1.78,1.78,0,0,0,229,3.83a2,2,0,0,0-.27-1.09A1.82,1.82,0,0,0,228,2.1a3.17,3.17,0,0,0-1-.3,8.27,8.27,0,0,0-1.11-.07h-2.12Z"/><path class="cls-1" d="M239.27.32H241l3.93,10.48h0L249,.32h1.61l-5,12.75h-1.46Z"/><path class="cls-1" d="M260.12.32h1.51V13.07h-1.51Z"/><path class="cls-1" d="M272.9.32h8V1.73h-6.5v4h6.07V7.13h-6.07v4.53h6.82v1.41H272.9Z"/><path class="cls-1" d="M290.2.32h1.67l2.9,10.59h0L297.94.32h1.69l3.11,10.59h0l3-10.59h1.58l-3.74,12.75h-1.64l-3.15-10.8h0l-3.17,10.8h-1.66Z"/></g></g></svg>