<svg xmlns="http://www.w3.org/2000/svg" viewBox="0 0 360.44 20.83"><defs><style>.cls-1{fill:#5fc1c7;}</style></defs><g id="レイヤー_2" data-name="レイヤー 2"><g id="画像02"><path class="cls-1" d="M15,4.59a5.68,5.68,0,0,0-2.22-1.8,6.37,6.37,0,0,0-2.74-.61,6.88,6.88,0,0,0-3,.68,7.57,7.57,0,0,0-2.39,1.8A8.4,8.4,0,0,0,3.08,7.29a8.94,8.94,0,0,0-.56,3.13,9.25,9.25,0,0,0,.56,3.23,8,8,0,0,0,1.55,2.6,7.22,7.22,0,0,0,5.45,2.4,7.13,7.13,0,0,0,3.25-.72,7.36,7.36,0,0,0,2.49-2l1.76,1.48A8.06,8.06,0,0,1,14.35,20a10.4,10.4,0,0,1-4.27.84,10.16,10.16,0,0,1-4-.78,9.75,9.75,0,0,1-3.2-2.17A9.93,9.93,0,0,1,.77,14.59,11.09,11.09,0,0,1,0,10.42,11.25,11.25,0,0,1,.74,6.33,10,10,0,0,1,2.83,3,9.86,9.86,0,0,1,6,.81,10,10,0,0,1,10.08,0,10.48,10.48,0,0,1,14,.73a7.12,7.12,0,0,1,3.12,2.38Z"/><path class="cls-1" d="M34.83,20.83a10.81,10.81,0,0,1-4.16-.78,9.94,9.94,0,0,1-3.27-2.17,9.84,9.84,0,0,1-2.16-3.31,11.06,11.06,0,0,1-.77-4.15,11.11,11.11,0,0,1,.77-4.16A9.84,9.84,0,0,1,27.4,3,10.1,10.1,0,0,1,30.67.78,11.48,11.48,0,0,1,39,.78,10.26,10.26,0,0,1,42.27,3a9.81,9.81,0,0,1,2.15,3.31,10.92,10.92,0,0,1,.77,4.16,10.87,10.87,0,0,1-.77,4.15,9.81,9.81,0,0,1-2.15,3.31A10.09,10.09,0,0,1,39,20.05,10.81,10.81,0,0,1,34.83,20.83Zm0-2.18A7.69,7.69,0,0,0,38,18a7.33,7.33,0,0,0,2.48-1.76,8.23,8.23,0,0,0,1.61-2.62,8.91,8.91,0,0,0,.57-3.2,9,9,0,0,0-.57-3.21,8.23,8.23,0,0,0-1.61-2.62A7.61,7.61,0,0,0,38,2.83a8.1,8.1,0,0,0-6.36,0,7.57,7.57,0,0,0-2.47,1.76,8.05,8.05,0,0,0-1.61,2.62A8.75,8.75,0,0,0,27,10.42a8.7,8.7,0,0,0,.58,3.2,8.05,8.05,0,0,0,1.61,2.62A7.29,7.29,0,0,0,31.65,18,7.73,7.73,0,0,0,34.83,18.65Z"/><path class="cls-1" d="M53.73.5h3.5L64,16H64L70.79.5H74.2V20.33H71.85V3.7h-.06L64.68,20.33H63.25L56.14,3.7h-.06V20.33H53.73Z"/><path class="cls-1" d="M83.89.5h5.88a12.38,12.38,0,0,1,2.62.27,6.59,6.59,0,0,1,2.21.9,4.62,4.62,0,0,1,1.54,1.68,5.36,5.36,0,0,1,.57,2.59,5.26,5.26,0,0,1-.61,2.68,4.76,4.76,0,0,1-1.59,1.68,6.45,6.45,0,0,1-2.11.87,10.06,10.06,0,0,1-2.18.25h-4v8.91H83.89Zm2.35,8.74h4a4.82,4.82,0,0,0,2.87-.8A2.87,2.87,0,0,0,94.19,6a2.85,2.85,0,0,0-1.1-2.47,4.75,4.75,0,0,0-2.87-.8h-4Z"/><path class="cls-1" d="M109.62.5h2.21l8.43,19.83h-2.74l-2-4.87h-9.91l-2,4.87h-2.66Zm1.06,3h-.05l-4.12,9.74h8.09Z"/><path class="cls-1" d="M127.65.5h3L142.1,17h.06V.5h2.35V20.33h-3L130.06,3.86H130V20.33h-2.35Z"/><path class="cls-1" d="M158.87,11.79,151.48.5h3l5.57,9,5.74-9h2.83l-7.4,11.29v8.54h-2.35Z"/><path class="cls-1" d="M197.34,20.83a10.76,10.76,0,0,1-4.15-.78,9.73,9.73,0,0,1-5.44-5.48,11.06,11.06,0,0,1-.77-4.15,11.11,11.11,0,0,1,.77-4.16A10,10,0,0,1,189.91,3,10.15,10.15,0,0,1,193.19.78a11.46,11.46,0,0,1,8.31,0A10.26,10.26,0,0,1,204.78,3a9.81,9.81,0,0,1,2.15,3.31,10.92,10.92,0,0,1,.78,4.16,10.87,10.87,0,0,1-.78,4.15,9.81,9.81,0,0,1-2.15,3.31,10.09,10.09,0,0,1-3.28,2.17A10.78,10.78,0,0,1,197.34,20.83Zm0-2.18a7.69,7.69,0,0,0,3.18-.65A7.33,7.33,0,0,0,203,16.24a8.05,8.05,0,0,0,1.61-2.62,8.91,8.91,0,0,0,.57-3.2,9,9,0,0,0-.57-3.21A8.05,8.05,0,0,0,203,4.59a7.61,7.61,0,0,0-2.48-1.76,8.08,8.08,0,0,0-6.35,0,7.61,7.61,0,0,0-2.48,1.76,8.05,8.05,0,0,0-1.61,2.62,9.15,9.15,0,0,0,0,6.41,8.05,8.05,0,0,0,1.61,2.62A7.33,7.33,0,0,0,194.17,18,7.68,7.68,0,0,0,197.34,18.65Z"/><path class="cls-1" d="M213.53.5h2.66l6.1,16.3h.06L228.65.5h2.49l-7.76,19.83h-2.26Z"/><path class="cls-1" d="M238.11.5h12.46V2.69H240.46V8.9h9.44v2.19h-9.44v7.05h10.62v2.19h-13Z"/><path class="cls-1" d="M259.48.5h5.06a24.63,24.63,0,0,1,2.85.17,7.69,7.69,0,0,1,2.53.73A4.55,4.55,0,0,1,271.74,3a5.28,5.28,0,0,1,.7,2.92,4.81,4.81,0,0,1-1.32,3.53,6.23,6.23,0,0,1-3.64,1.71l5.63,9.13h-2.88l-5.38-8.91h-3v8.91h-2.35Zm2.35,8.74h2.1c.65,0,1.33,0,2-.06a6.55,6.55,0,0,0,1.93-.36,3.36,3.36,0,0,0,1.46-1A2.77,2.77,0,0,0,269.92,6a3.06,3.06,0,0,0-.42-1.7,2.89,2.89,0,0,0-1.11-1,4.86,4.86,0,0,0-1.54-.46,14.06,14.06,0,0,0-1.72-.11h-3.3Z"/><path class="cls-1" d="M278.12.5h2.67l6.1,16.3h.05L293.24.5h2.5L288,20.33h-2.27Z"/><path class="cls-1" d="M302.71.5h2.35V20.33h-2.35Z"/><path class="cls-1" d="M314.75.5h12.46V2.69H317.1V8.9h9.44v2.19H317.1v7.05h10.61v2.19h-13Z"/><path class="cls-1" d="M333.82.5h2.6L340.93,17H341L345.86.5h2.63L353.33,17h.06L358,.5h2.46l-5.82,19.83h-2.55l-4.9-16.8h-.05l-4.93,16.8h-2.58Z"/></g></g></svg>