<svg xmlns="http://www.w3.org/2000/svg" viewBox="0 0 61.51 62.53"><defs><style>.cls-1{fill:#5fc1c7;}</style></defs><g id="レイヤー_2" data-name="レイヤー 2"><g id="文字"><path class="cls-1" d="M61.09,30,39.36,7.15a.94.94,0,0,0-.67-.29H28.25a.94.94,0,0,0-.67.29L5.72,30.09a.91.91,0,0,0-.18,1,.92.92,0,0,0,.85.56H9.54V48.23a2.4,2.4,0,0,0,2.4,2.4H40.17c1.65-.89,3.09-2.75,3.09-4.41a2.71,2.71,0,0,1,0-.4H28.09V31.68a.46.46,0,0,0-.46-.46H20.42a.46.46,0,0,0-.46.46V45.82H14.34V29.56h0L29.71,13.41h7.52L52.6,29.55h0V45.82H49.69c0,.14,0,.26,0,.4,0,1.66,1.44,3.52,3.1,4.41H55a2.4,2.4,0,0,0,2.4-2.4V31.65h3.19a.93.93,0,0,0,.5-1.7ZM25.68,38.41a1.07,1.07,0,1,1-1.07,1.07A1.07,1.07,0,0,1,25.68,38.41Z"/><path class="cls-1" d="M47.85,42.53V31.68a.46.46,0,0,0-.46-.46H41.54V43h5.85A.46.46,0,0,0,47.85,42.53Z"/><path class="cls-1" d="M33.57,31.68V42.53A.47.47,0,0,0,34,43h5.85V31.22H34A.47.47,0,0,0,33.57,31.68Z"/><path class="cls-1" d="M39.59,17.9a.46.46,0,0,0-.46-.46H34.35v4.33h5.24Z"/><path class="cls-1" d="M32.68,17.44H27.89a.47.47,0,0,0-.46.46v3.87h5.25Z"/><path class="cls-1" d="M27.43,27.1a.47.47,0,0,0,.46.46h4.79V23.31H27.43Z"/><path class="cls-1" d="M34.35,27.56h4.78a.46.46,0,0,0,.46-.46V23.31H34.35Z"/><path class="cls-1" d="M8.45,20.05h3.14c0-4.11,4.35-8.46,8.46-8.46V8.45c-4.11,0-8.46-4.34-8.46-8.45H8.45C8.45,4.11,4.11,8.45,0,8.45v3.14C4.11,11.59,8.45,15.94,8.45,20.05ZM10,5.39A13.38,13.38,0,0,0,14.67,10,13.44,13.44,0,0,0,10,14.67,13.33,13.33,0,0,0,5.38,10,13.27,13.27,0,0,0,10,5.39Z"/><path class="cls-1" d="M47.88,46.22H45.11c0,3.29-3.48,6.77-6.77,6.77v2.77c3.29,0,6.77,3.48,6.77,6.77h2.77c0-3.29,3.48-6.77,6.77-6.77V53C51.36,53,47.88,49.51,47.88,46.22ZM46.49,58a10.88,10.88,0,0,0-3.57-3.57,11.07,11.07,0,0,0,3.57-3.57,11.27,11.27,0,0,0,3.57,3.57A11.07,11.07,0,0,0,46.49,58Z"/></g></g></svg>