<svg xmlns="http://www.w3.org/2000/svg" viewBox="0 0 56.46 55.12"><defs><style>.cls-1{fill:#5fc1c7;}</style></defs><g id="レイヤー_2" data-name="レイヤー 2"><g id="文字"><path class="cls-1" d="M56.4,50.68l-1.74-2-5,4.35,1.73,2a.26.26,0,0,0,.2.1.27.27,0,0,0,.21-.07l4.57-4a.26.26,0,0,0,.1-.19A.25.25,0,0,0,56.4,50.68Zm-27.78-27a.57.57,0,0,0-.17.62l2,6,4.44-3.86-5.66-2.85A.58.58,0,0,0,28.62,23.71Zm12.92,9.83V1.73A1.73,1.73,0,0,0,41,.51,1.76,1.76,0,0,0,39.8,0H1.73A1.73,1.73,0,0,0,.51.51,1.69,1.69,0,0,0,0,1.73v50A1.71,1.71,0,0,0,.51,53a1.73,1.73,0,0,0,1.22.51H39.8a1.74,1.74,0,0,0,1.74-1.73V43.67l6.6,7.62,5-4.35Zm-3.47-4L36.71,28l-5,4.35.06.07H16.54v2.31H33.76l4.31,5V50H3.46V3.46H38.07ZM35.38,21H16.54v2.31H35.38Zm0-11.44H16.54v2.31H35.38ZM11.32,44.89h0L14.6,41.6l-1.29-1.3L9.73,43.88,6.06,41.52l3.37,5.26Zm0-34.32h0L14.6,7.27,13.31,6,9.73,9.55,6.06,7.2l3.37,5.26ZM35.38,43.84H16.54v2.31H35.38ZM11.32,33.45h0l3.29-3.3-1.29-1.29L9.73,32.43,6.06,30.08l3.37,5.26Zm0-11.44h0l3.29-3.3-1.29-1.29L9.73,21,6.06,18.64,9.43,23.9Z"/></g></g></svg>