<svg xmlns="http://www.w3.org/2000/svg" viewBox="0 0 70.22 56.51"><defs><style>.cls-1{fill:#5fc1c7;}</style></defs><g id="レイヤー_2" data-name="レイヤー 2"><g id="文字"><path class="cls-1" d="M67.75,17.31H43.21L36.73,10A2.2,2.2,0,0,0,36,9.49V.93a.93.93,0,0,0-1.86,0V9.49a2.2,2.2,0,0,0-.69.52L27,17.31H2.47L0,26.9H2.54V53.21a1.24,1.24,0,0,0,.36.87,1.26,1.26,0,0,0,.88.37H20.57v.82a1.23,1.23,0,0,0,.36.87,1.26,1.26,0,0,0,.88.37h26.6a1.26,1.26,0,0,0,.88-.37,1.23,1.23,0,0,0,.36-.87v-.82H66.44a1.26,1.26,0,0,0,.88-.37,1.24,1.24,0,0,0,.36-.87V26.9h2.54ZM20.57,52h-2V48H13.41v4H12.17V48H7.07v4H5V26.9H19.25a2.07,2.07,0,0,0,1.32,2ZM47.18,54H43.33V38.87h0a7.94,7.94,0,0,0-15.83,0h0V54H23V28.32L35.11,14.71,47.18,28.32ZM65.2,52H63.07V48H58v4H56.73V48H51.61v4h-2V28.89a2.21,2.21,0,0,0,.6-.37A2.14,2.14,0,0,0,51,26.9H65.2ZM29.78,25a5.27,5.27,0,0,0,10.54,0h0a5.27,5.27,0,1,0-10.54,0Zm9.31,0h0a4,4,0,1,1-4-4A4,4,0,0,1,39.08,25ZM18.51,34.41h-5.1v5h5.1ZM7.07,46.71h5.1V41.87H7.07Zm11.44-4.84h-5.1v4.84h5.12V42h0ZM7.07,39.39h5.1v-5H7.07Zm0-6.21h5.07V27.91A5.67,5.67,0,0,0,7.1,33.18Zm6.31-5.27v5.27h5.08A5.68,5.68,0,0,0,13.41,27.91Zm49.66,14H58v4.84h5.11Zm0-9h0A5.69,5.69,0,0,0,58,27.59v5.59h5.1Zm-6.33,1.5H51.62v5h5.11Zm0,7.46H51.61v4.84h5.12Zm6.33-7.46H58v5h5.1Zm-6.33-6.82a5.69,5.69,0,0,0-5.09,5.32h0v.27h5.11ZM34.49,22.68v2.24a.63.63,0,0,0,.23.48l2.42,2a.6.6,0,0,0,.39.14.65.65,0,0,0,.49-.23.63.63,0,0,0-.09-.87l-2.2-1.79V22.68a.62.62,0,0,0-1.24,0Zm6-14.56a18.74,18.74,0,0,0,3.36,1.55,8.25,8.25,0,0,0,4.5.2l0,0a8.61,8.61,0,0,0,1.35-.47V1.26L46.77,2.57a1.11,1.11,0,0,1-.25.09,1.29,1.29,0,0,1-.71-.07,14.3,14.3,0,0,1-2.07-1A9.62,9.62,0,0,0,37.09.66V8.45l1.64-.56A2.9,2.9,0,0,1,40.45,8.12Z"/></g></g></svg>