<svg xmlns="http://www.w3.org/2000/svg" viewBox="0 0 58.5 65.06"><defs><style>.cls-1{fill:#5fc1c7;}</style></defs><g id="レイヤー_2" data-name="レイヤー 2"><g id="文字"><rect class="cls-1" y="11.57" width="6.48" height="2.84"/><rect class="cls-1" x="10.27" y="11.57" width="6.63" height="2.84"/><rect class="cls-1" x="3.27" y="22.03" width="5.65" height="2.84" transform="translate(-9.74 5.11) rotate(-26.24)"/><rect class="cls-1" x="11.69" y="17.64" width="6.63" height="2.84" transform="translate(-6.89 8.61) rotate(-26.26)"/><rect class="cls-1" x="13.58" y="3.6" width="2.84" height="6.63" transform="translate(2.16 17.31) rotate(-63.75)"/><rect class="cls-1" x="4.68" y="-0.3" width="2.84" height="5.65" transform="translate(1.13 6.87) rotate(-63.72)"/><polygon class="cls-1" points="26.7 11.1 22 8.78 20.74 11.33 20.68 11.57 20.68 14.41 20.76 14.63 20.74 14.64 20.79 14.76 21.99 17.19 26.7 14.87 26.7 11.1"/><path class="cls-1" d="M58.15,38.38,51.61,27.53a2.41,2.41,0,0,0-.66-.69V20a2.45,2.45,0,0,0-1.58-2.29l.74-1.36a1,1,0,0,0,.11-.45V10.62a1,1,0,0,0-.94-.95H28.82a1,1,0,0,0-.93.84v4.93a.94.94,0,0,0,.93.83h2.72C31,19.2,29,27.9,22.33,31.27a.47.47,0,0,0,.08.88l2.67.78.14,0,.14,0c.36-.12,8.66-3,11.86-16.65h3.42v1.37A2.42,2.42,0,0,0,38.48,20v6.8a2.41,2.41,0,0,0-.66.69L31.28,38.38a2.45,2.45,0,0,0-.35,1.27v23a2.46,2.46,0,0,0,2.46,2.46H56A2.46,2.46,0,0,0,58.5,62.6v-23A2.45,2.45,0,0,0,58.15,38.38ZM43.4,22.5H46v3.84H43.4ZM53.58,60.14H35.85V40.33l5.47-9.07h2V44.33H37.54V58.84H51.9V44.33H46.14V31.26h2l5.47,9.07Z"/></g></g></svg>