<svg xmlns="http://www.w3.org/2000/svg" viewBox="0 0 960 394.08"><defs><style>.cls-1,.cls-10,.cls-17{fill:#f9c270;}.cls-1{stroke:#f9c270;}.cls-1,.cls-3,.cls-5{stroke-linecap:round;}.cls-1,.cls-2,.cls-4{stroke-miterlimit:10;}.cls-1,.cls-5{stroke-width:0.57px;}.cls-14,.cls-2,.cls-7{fill:#ef845d;}.cls-2,.cls-3,.cls-4{stroke:#ef845d;}.cls-2{stroke-width:0.43px;}.cls-16,.cls-3,.cls-9{fill:#ef858c;}.cls-3,.cls-5{stroke-linejoin:round;}.cls-3{stroke-width:0.85px;}.cls-15,.cls-4,.cls-8{fill:#bc7960;}.cls-4{stroke-width:0.28px;}.cls-11,.cls-18,.cls-5{fill:#d6c677;}.cls-5{stroke:#d6c677;}.cls-6{fill:#443b38;}.cls-12,.cls-13{fill:#cacaca;}.cls-13,.cls-14,.cls-15,.cls-16,.cls-17,.cls-18{fill-rule:evenodd;}.cls-19{fill:#fff;}.cls-20{fill:#231815;}</style></defs><g id="レイヤー_2" data-name="レイヤー 2"><g id="文字"><path class="cls-1" d="M648.7,187.42a.87.87,0,0,0,.27-1.21.89.89,0,0,0-1.22-.27,12.57,12.57,0,0,0-3.67,17.59.88.88,0,0,0,1.22.24.88.88,0,0,0,.24-1.22,10.81,10.81,0,0,1,3.16-15.13Z"/><path class="cls-1" d="M643.42,210.23a.86.86,0,0,0,.52.18.89.89,0,0,0,.71-.36.88.88,0,0,0-.18-1.23,15.79,15.79,0,0,1-5.9-12.78,14.59,14.59,0,0,1,9.3-14,.88.88,0,0,0,.48-1.15.87.87,0,0,0-1.14-.48,16.5,16.5,0,0,0-10.4,15.6C636.81,201.86,639.28,207.16,643.42,210.23Z"/><path class="cls-1" d="M651.48,190l-1.58.35a.87.87,0,0,0-.55.38.88.88,0,0,0-.12.67l.65,2.83a.88.88,0,0,0,.85.68l.19,0,4.94-1.08.8,4a.88.88,0,0,0,.38.56.84.84,0,0,0,.48.14.62.62,0,0,0,.19,0l4.74-1A.9.9,0,0,0,663,197a.92.92,0,0,0,.11-.67l-.91-3.93,4.12-.89a.9.9,0,0,0,.56-.39.92.92,0,0,0,.11-.67l-.64-2.82a.89.89,0,0,0-1.05-.67l-1.91.42-2.73-12.57a.88.88,0,0,0-1-.67l-1.21.26L657.19,172l-1-4.13-.55-2.76a.85.85,0,0,0-.38-.56.89.89,0,0,0-.67-.13l-4.74,1a.9.9,0,0,0-.56.39,1,1,0,0,0-.11.68l.68,2.73.85,4.15-.09,2.71-1.22.27a.87.87,0,0,0-.67,1Zm6.73,6.54-.56-2.75,2.92-.63.64,2.73Zm6.88-6.53-13.69,3-.26-1.11,13.69-3Zm-3.55-2.91-8.49,1.85-2.4-11,.92-.2h.11l6.44-1.4a.32.32,0,0,1,.09,0l.93-.21Zm-9.24-14.81-.53-2.55,1.3-.29,1.62-.35.6,2.54-1.85.4Zm1.81-6,.21,1.05-1.34.29-1.6.35-.25-1ZM652.47,174l1.7-.37,1.71-.37.75,1.51-4.22.92Z"/><path class="cls-1" d="M674.74,216.77h-18.5l0-1.15h.87a.89.89,0,0,0,.88-.88V204.28h10.62a.89.89,0,0,0,.88-.88v-2.2a.88.88,0,0,0-.88-.88h-21a.88.88,0,0,0-.88.88v2.2a.89.89,0,0,0,.88.88h1v3.62c-1.43,2.69-3.32,6.52-4.47,8.87h-3.79a.87.87,0,0,0-.88.88v3.71a.88.88,0,0,0,.88.88h34.5a.88.88,0,0,0,.88-.88v-3.71A.87.87,0,0,0,674.74,216.77Zm-26.33-14.25v-.44h19.28v.44H657.07a.87.87,0,0,0-.88.88v10.46h-5.93V203.4a.88.88,0,0,0-.88-.88Zm25.45,18H641.12v-1.95h3.45a.88.88,0,0,0,.79-.5c.76-1.54,2-4,3.14-6.3v3a.88.88,0,0,0,.88.88h5.06l.08,2.06a.87.87,0,0,0,.87.85h18.47Z"/><path class="cls-1" d="M653.36,209.16a2.37,2.37,0,1,0-2.36-2.37A2.37,2.37,0,0,0,653.36,209.16Zm0-3a.61.61,0,0,1,0,1.21.61.61,0,1,1,0-1.21Z"/><path class="cls-2" d="M141.55,212.78l-4.47,5.33-1.72-1.93a.61.61,0,0,0-.91.81l2.18,2.46a.61.61,0,0,0,.46.2h0a.64.64,0,0,0,.46-.21l4.93-5.87a.61.61,0,0,0-.08-.86A.61.61,0,0,0,141.55,212.78Z"/><path class="cls-2" d="M138.58,208.1a8.12,8.12,0,1,0,8.12,8.12A8.13,8.13,0,0,0,138.58,208.1Zm0,15a6.9,6.9,0,1,1,6.9-6.89A6.9,6.9,0,0,1,138.58,223.11Z"/><path class="cls-2" d="M137.6,206.26a.61.61,0,0,0,.61-.61V178.48a.62.62,0,0,0-.61-.61h-5.53v-1.62a.59.59,0,0,0-.17-.43.6.6,0,0,0-.44-.18H130v-.43a.81.81,0,0,0-.92-.92H116.49a.79.79,0,0,0-.86.84v.51h-1.48a.61.61,0,0,0-.61.61v1.62h-5.62a.61.61,0,0,0-.61.61V217.2a.61.61,0,0,0,.61.61h20.42a.61.61,0,0,0,0-1.22H108.53v-37.5h5v0a.79.79,0,0,0,.19.65.87.87,0,0,0,.68.25h7.12a2.31,2.31,0,0,0,.56.54,1.31,1.31,0,0,0,.71.2,1.74,1.74,0,0,0,.5-.08,1.57,1.57,0,0,0,.94-.71h7a.92.92,0,0,0,.7-.26.85.85,0,0,0,.19-.65H137v26.56A.61.61,0,0,0,137.6,206.26Zm-20.75-30.53v-.21h12v1.35h-12v-1.14Zm11.34,3.05h-4.06a1,1,0,0,0-.94.6c0,.13-.34.21-.42.2a1,1,0,0,1-.25-.25,1,1,0,0,0-.89-.5h-6.87c0-.5,0-1.31,0-2h.87v.39a.76.76,0,0,0,.85.85h12.69a.78.78,0,0,0,.86-.86v-.38h.82v1.92Z"/><path class="cls-2" d="M128.47,219.54H106v-46h33.52V205.8a.61.61,0,0,0,.61.61.61.61,0,0,0,.61-.61V173a.61.61,0,0,0-.61-.61H105.39a.61.61,0,0,0-.61.61v47.2a.61.61,0,0,0,.61.61h23.08a.61.61,0,0,0,.61-.61A.61.61,0,0,0,128.47,219.54Z"/><path class="cls-2" d="M133.25,204.23a.61.61,0,0,0-.61-.61H117.42a.61.61,0,1,0,0,1.22h15.22A.61.61,0,0,0,133.25,204.23Z"/><path class="cls-2" d="M132.64,199H117.42a.61.61,0,1,0,0,1.22h15.22a.61.61,0,1,0,0-1.22Z"/><path class="cls-2" d="M132.64,194.4H117.42a.62.62,0,0,0-.62.61.61.61,0,0,0,.62.61h15.22a.61.61,0,0,0,.61-.61A.61.61,0,0,0,132.64,194.4Z"/><path class="cls-2" d="M132.64,189.79H117.42a.62.62,0,1,0,0,1.23h15.22a.62.62,0,0,0,0-1.23Z"/><path class="cls-2" d="M132.64,185.19H117.42a.61.61,0,0,0-.62.61.62.62,0,0,0,.62.61h15.22a.61.61,0,0,0,.61-.61A.61.61,0,0,0,132.64,185.19Z"/><path class="cls-2" d="M117.54,209.45a.61.61,0,0,0,0,1.22h10.62a.61.61,0,1,0,0-1.22Z"/><path class="cls-2" d="M115.43,183.57a.61.61,0,0,0-.61-.61h-3.58a.61.61,0,0,0-.61.61v3.58a.61.61,0,0,0,.61.61h3.58a.61.61,0,0,0,.61-.61Zm-1.22,3h-2.36v-2.36h2.36Z"/><path class="cls-2" d="M115.43,189.68a.61.61,0,0,0-.61-.61h-3.58a.61.61,0,0,0-.61.61v3.59a.61.61,0,0,0,.61.61h3.58a.61.61,0,0,0,.61-.61Zm-1.22,3h-2.36v-2.37h2.36Z"/><path class="cls-2" d="M115.43,195.8a.61.61,0,0,0-.61-.61h-3.58a.61.61,0,0,0-.61.61v3.58a.61.61,0,0,0,.61.61h3.58a.61.61,0,0,0,.61-.61Zm-1.22,3h-2.36v-2.36h2.36Z"/><path class="cls-2" d="M115.43,201.91a.61.61,0,0,0-.61-.61h-3.58a.61.61,0,0,0-.61.61v3.58a.61.61,0,0,0,.61.61h3.58a.61.61,0,0,0,.61-.61Zm-1.22,3h-2.36v-2.36h2.36Z"/><path class="cls-2" d="M114.82,207.42h-3.58a.61.61,0,0,0-.61.61v3.58a.61.61,0,0,0,.61.61h3.58a.61.61,0,0,0,.61-.61V208A.61.61,0,0,0,114.82,207.42Zm-.61,3.58h-2.36v-2.36h2.36Z"/><path class="cls-3" d="M464,198.64a.7.7,0,0,0-.51-.45.93.93,0,0,0-.29,0l-8.8-2.17-.11-5.64,4.24,3.43a.68.68,0,0,0,.75.07l6.92-3.56a2.71,2.71,0,0,0,1.17-3.66,2.67,2.67,0,0,0-1.58-1.35,2.73,2.73,0,0,0-2.08.17l-4.13,2.13-7.09-5.69a6.28,6.28,0,0,0-4.63-1.94,6.23,6.23,0,0,0-6.1,6.35l.23,12.17a6.25,6.25,0,0,0,6.17,6.11h.13l10.3.14,5.3,10.52,0,.05a3.57,3.57,0,0,0,2.21,1.77,2.39,2.39,0,0,0,.53.06,3,3,0,0,0,1.65-.55c1-.68,1.88-2,.47-4.23Zm3.54,16.85a1.4,1.4,0,0,1-1.12.28,2.27,2.27,0,0,1-1.32-1.12l-5.47-10.87a.71.71,0,0,0-.6-.38l-10.57-.13a.44.44,0,0,0-.16,0,4.88,4.88,0,0,1-4.94-4.77l-.23-12.17a4.81,4.81,0,0,1,1.35-3.46,4.85,4.85,0,0,1,7,.05l.07.07,7.48,6a.69.69,0,0,0,.74.08l4.52-2.33a1.37,1.37,0,0,1,1.83.59,1.36,1.36,0,0,1-.59,1.82L459,192.47l-5-4.07a.67.67,0,0,0-.73-.08.66.66,0,0,0-.38.63l.14,7.64a.69.69,0,0,0,.52.65l9.3,2.28,4.66,13.4a.42.42,0,0,0,.06.14C468.5,214.53,468.09,215.1,467.52,215.49Z"/><path class="cls-3" d="M448.31,178.65a5,5,0,0,0,2.42-.62,5.26,5.26,0,0,0,1.89-7.19,5.41,5.41,0,0,0-3.14-2.58,5,5,0,0,0-6.38,3.54,5.49,5.49,0,0,0,5.21,6.85Zm-3.89-6.5a3.6,3.6,0,0,1,3.52-2.76,4,4,0,0,1,1.13.17,4.12,4.12,0,0,1,2.36,1.94,3.79,3.79,0,1,1-6.61,3.67A4.1,4.1,0,0,1,444.42,172.15Z"/><path class="cls-3" d="M455.7,206.44h-8a7.26,7.26,0,0,1-7.25-7.25v-12a.68.68,0,0,0-.68-.68.69.69,0,0,0-.69.68v12a8.63,8.63,0,0,0,7.93,8.59v8.09a.69.69,0,0,0,.69.68.68.68,0,0,0,.68-.68v-8.06h7.28a.69.69,0,0,0,0-1.37Z"/><path class="cls-3" d="M506.9,204.62a6.25,6.25,0,0,0,6.18-6.11l.23-12.17a6.22,6.22,0,0,0-10.73-4.41l-7.09,5.69-4.13-2.13a2.73,2.73,0,0,0-2.08-.17,2.67,2.67,0,0,0-1.58,1.35,2.71,2.71,0,0,0,1.17,3.66l6.92,3.56a.68.68,0,0,0,.75-.07l4.24-3.43-.11,5.64-8.8,2.17a.93.93,0,0,0-.29,0,.7.7,0,0,0-.51.45l-4.78,13.75c-1.41,2.27-.53,3.55.47,4.23a3,3,0,0,0,1.65.55,2.24,2.24,0,0,0,.52-.06,3.57,3.57,0,0,0,2.22-1.77l0-.05,5.3-10.52,10.29-.14Zm-.29-1.35L496,203.4a.69.69,0,0,0-.6.38L490,214.65a2.27,2.27,0,0,1-1.32,1.12,1.4,1.4,0,0,1-1.12-.28c-.57-.39-1-1,0-2.43a.84.84,0,0,0,.06-.14l4.66-13.4,9.3-2.28a.69.69,0,0,0,.52-.65l.14-7.64a.66.66,0,0,0-.38-.63.67.67,0,0,0-.73.08l-5,4.07-6.52-3.35a1.35,1.35,0,0,1-.58-1.82,1.29,1.29,0,0,1,.78-.67,1.34,1.34,0,0,1,1,.08l4.52,2.33A.69.69,0,0,0,496,189l7.48-6a.46.46,0,0,1,.07-.07,4.91,4.91,0,0,1,3.63-1.54h0a4.87,4.87,0,0,1,3.41,1.49,4.81,4.81,0,0,1,1.35,3.46l-.23,12.17a4.88,4.88,0,0,1-4.94,4.77A.47.47,0,0,0,506.61,203.27Z"/><path class="cls-3" d="M504.32,178a5,5,0,0,0,2.42.62,5.15,5.15,0,0,0,1.54-.24A5.51,5.51,0,0,0,512,171.8a5,5,0,0,0-6.38-3.54,5.53,5.53,0,0,0-3.67,6.61A5,5,0,0,0,504.32,178Zm-.7-6.53a4.12,4.12,0,0,1,2.36-1.94,4,4,0,0,1,1.13-.17,3.6,3.6,0,0,1,3.52,2.76,4.16,4.16,0,0,1-2.76,5,3.61,3.61,0,0,1-2.88-.28,3.67,3.67,0,0,1-1.77-2.31A4.1,4.1,0,0,1,503.62,171.5Z"/><path class="cls-3" d="M515.24,186.49a.68.68,0,0,0-.68.68v12a7.26,7.26,0,0,1-7.25,7.25h-8a.69.69,0,0,0,0,1.37h7.28v8.06a.68.68,0,0,0,.68.68.69.69,0,0,0,.69-.68v-8.09a8.63,8.63,0,0,0,7.93-8.59v-12A.69.69,0,0,0,515.24,186.49Z"/><path class="cls-3" d="M489.43,195.73a.69.69,0,0,0,0-1.37H463.51a.69.69,0,1,0,0,1.37h12.83v20.52a.68.68,0,0,0,.68.69.69.69,0,0,0,.69-.69V195.73Z"/><path class="cls-3" d="M457,173.38a.59.59,0,0,0,.23,0l5.47-2a.68.68,0,1,0-.48-1.28l-5.46,2a.68.68,0,0,0-.41.88A.7.7,0,0,0,457,173.38Z"/><path class="cls-3" d="M456.74,176l5.46,2a.67.67,0,0,0,.24,0,.68.68,0,0,0,.24-1.32l-5.47-2a.69.69,0,0,0-.88.4A.68.68,0,0,0,456.74,176Z"/><path class="cls-4" d="M333.9,184.9v-8.41a3.46,3.46,0,0,0-3.46-3.45H271.9a3.47,3.47,0,0,0-3.46,3.45v33.9a3.47,3.47,0,0,0,3.46,3.46H296l-.39,3H282.72a2.13,2.13,0,0,0-2.13,2.13v1.37a2.12,2.12,0,0,0,2.13,2.12h36.91a2.12,2.12,0,0,0,2.12-2.12V219a2.13,2.13,0,0,0-2.12-2.13H306.75l-.38-3h24.07a3.47,3.47,0,0,0,3.46-3.46V186.28a.72.72,0,0,1,0-1.38Zm-28.49,32.78a.71.71,0,0,0,.71.63h13.51a.69.69,0,0,1,.69.69v1.37a.69.69,0,0,1-.69.69H282.72a.69.69,0,0,1-.69-.69V219a.69.69,0,0,1,.69-.69h13.5a.71.71,0,0,0,.71-.63l.49-3.83h7.5Zm27-31.4v24.11a2,2,0,0,1-2,2H271.9a2,2,0,0,1-2-2v-33.9a2,2,0,0,1,2-2h58.54a2,2,0,0,1,2,2v8.41a.72.72,0,0,1,0,1.38Z"/><path class="cls-4" d="M275.76,178.13a2,2,0,0,0,3.88,0,2,2,0,1,0,0-.87,2,2,0,0,0-3.88,0,2,2,0,1,0,0,.87Zm5.82-1a.57.57,0,0,1,.56.56.56.56,0,0,1-1.12,0A.57.57,0,0,1,281.58,177.13Zm-3.88,0a.57.57,0,0,1,.56.56.56.56,0,0,1-1.12,0A.57.57,0,0,1,277.7,177.13Zm-4.43.56a.56.56,0,1,1,1.11,0,.56.56,0,1,1-1.11,0Z"/><path class="cls-4" d="M327.6,181.83H279.46a.72.72,0,0,0,0,1.43H327.6a.49.49,0,0,1,.49.49V208a.49.49,0,0,1-.49.48H274.7a.49.49,0,0,1-.49-.48V183.75a.49.49,0,0,1,.49-.49h2.91a.72.72,0,1,0,0-1.43H274.7a1.92,1.92,0,0,0-1.92,1.92V208a1.93,1.93,0,0,0,1.92,1.92h52.9a1.93,1.93,0,0,0,1.92-1.92V183.75A1.92,1.92,0,0,0,327.6,181.83Z"/><path class="cls-4" d="M288.27,187.46a.69.69,0,0,0-1,.09l-4.18,5-1.54-1.73a.72.72,0,0,0-1-.06.71.71,0,0,0-.06,1l2.09,2.35a.68.68,0,0,0,.53.24h0a.69.69,0,0,0,.54-.25l4.71-5.61A.71.71,0,0,0,288.27,187.46Z"/><path class="cls-4" d="M287.27,196.74l-4.18,5L281.55,200a.72.72,0,0,0-1-.06.71.71,0,0,0-.06,1l2.09,2.35a.71.71,0,0,0,.53.24h0a.69.69,0,0,0,.54-.25l4.71-5.61a.72.72,0,0,0-1.09-.93Z"/><path class="cls-4" d="M292.67,201.19h10a.72.72,0,1,0,0-1.43h-10a.72.72,0,1,0,0,1.43Z"/><path class="cls-4" d="M304.08,200.47a.72.72,0,0,0,.72.72h15.66a.72.72,0,1,0,0-1.43H304.8A.71.71,0,0,0,304.08,200.47Z"/><path class="cls-4" d="M320.46,192.22a.72.72,0,0,0,0-1.44H314a.72.72,0,1,0,0,1.44Z"/><path class="cls-4" d="M311.45,190.78H292.67a.72.72,0,1,0,0,1.44h18.78a.72.72,0,0,0,0-1.44Z"/><path class="cls-5" d="M845.35,194.82a1.45,1.45,0,0,0,1.13-.53l2.1,1a1.55,1.55,0,0,0,0,.31,1.48,1.48,0,1,0,2.61-.94l3-4a1.47,1.47,0,0,0,.56.11,1.45,1.45,0,0,0,1.09-.49l2.16,1.15a1.34,1.34,0,0,0-.05.35,1.48,1.48,0,1,0,.38-1l-2.15-1.14a1.47,1.47,0,1,0-2.9-.36,1.43,1.43,0,0,0,.34.94l-3,4a1.56,1.56,0,0,0-.57-.11,1.46,1.46,0,0,0-1.13.54l-2.1-1a1.45,1.45,0,0,0,0-.3,1.47,1.47,0,1,0-1.47,1.47Zm14-3.84a.76.76,0,0,1,.76.76.77.77,0,1,1-.76-.76Zm-4.68-2.48a.76.76,0,1,1-.76.76A.76.76,0,0,1,854.7,188.5ZM850,194.84a.77.77,0,1,1-.76.77A.76.76,0,0,1,850,194.84Zm-4.67-2.25a.76.76,0,0,1,0,1.52.76.76,0,1,1,0-1.52Z"/><path class="cls-5" d="M851.14,198.23h-2.23a.38.38,0,0,0-.38.38v4.51a.38.38,0,0,0,.76,0V199h1.46v4.13a.39.39,0,0,0,.39.38.38.38,0,0,0,.38-.38v-4.51A.38.38,0,0,0,851.14,198.23Z"/><path class="cls-5" d="M860.49,194.31h-2.23a.38.38,0,0,0-.38.38v8.43a.38.38,0,0,0,.76,0v-8h1.47v8a.38.38,0,0,0,.76,0v-8.43A.38.38,0,0,0,860.49,194.31Z"/><path class="cls-5" d="M846.46,195.93h-2.22a.39.39,0,0,0-.39.39v6.8a.39.39,0,0,0,.77,0V196.7h1.46v6.42a.38.38,0,0,0,.76,0v-6.8A.39.39,0,0,0,846.46,195.93Z"/><path class="cls-5" d="M855.81,192.48h-2.22a.38.38,0,0,0-.38.38v10.26a.38.38,0,0,0,.76,0v-9.88h1.46v9.88a.38.38,0,1,0,.76,0V192.86A.38.38,0,0,0,855.81,192.48Z"/><path class="cls-5" d="M825.5,209.58H809.63a.41.41,0,0,0-.41.41.42.42,0,0,0,.41.42H825.5a.42.42,0,0,0,.42-.42A.41.41,0,0,0,825.5,209.58Z"/><path class="cls-5" d="M808,209.58h-2.34a.41.41,0,0,0-.41.41.42.42,0,0,0,.41.42H808a.42.42,0,0,0,.42-.42A.41.41,0,0,0,808,209.58Z"/><path class="cls-5" d="M825.5,205.17H813.18a.41.41,0,0,0-.42.41.42.42,0,0,0,.42.42H825.5a.42.42,0,0,0,.42-.42A.41.41,0,0,0,825.5,205.17Z"/><path class="cls-5" d="M805.64,206h5.71a.42.42,0,0,0,.42-.42.41.41,0,0,0-.42-.41h-5.71a.41.41,0,0,0-.41.41A.42.42,0,0,0,805.64,206Z"/><path class="cls-5" d="M825.5,200.76h-4a.41.41,0,0,0-.41.41.41.41,0,0,0,.41.42h4a.42.42,0,0,0,.42-.42A.41.41,0,0,0,825.5,200.76Z"/><path class="cls-5" d="M805.64,201.59H820a.41.41,0,0,0,.41-.42.41.41,0,0,0-.41-.41H805.64a.41.41,0,0,0-.41.41A.42.42,0,0,0,805.64,201.59Z"/><path class="cls-5" d="M825.5,196.35h-4.59a.41.41,0,0,0-.41.41.41.41,0,0,0,.41.42h4.59a.42.42,0,0,0,.42-.42A.41.41,0,0,0,825.5,196.35Z"/><path class="cls-5" d="M805.64,197.18h13.42a.42.42,0,0,0,.42-.42.41.41,0,0,0-.42-.41H805.64a.41.41,0,0,0-.41.41A.42.42,0,0,0,805.64,197.18Z"/><path class="cls-5" d="M825.5,191.94H810.12a.41.41,0,0,0-.42.41.42.42,0,0,0,.42.42H825.5a.42.42,0,0,0,.42-.42A.41.41,0,0,0,825.5,191.94Z"/><path class="cls-5" d="M805.64,192.77h2.63a.41.41,0,0,0,.41-.42.41.41,0,0,0-.41-.41h-2.63a.41.41,0,0,0-.41.41A.42.42,0,0,0,805.64,192.77Z"/><path class="cls-5" d="M830.19,186.58s0,0,0-.05v0s0,0,0,0l0,0,0,0,0,0,0,0L824,180.09h0l-.09-.07h0a.41.41,0,0,0-.19,0H801.37a.42.42,0,0,0-.41.42v37.81a.42.42,0,0,0,.41.42h28.4a.42.42,0,0,0,.42-.42V186.58Zm-28.4,31.2v-37h21.48v5.82a.41.41,0,0,0,.42.41h3.42a.41.41,0,0,0,.41-.41.41.41,0,0,0-.41-.42h-3V181.4l5.26,5.38v31Z"/><path class="cls-5" d="M862,209.58H846.13a.41.41,0,0,0-.42.41.42.42,0,0,0,.42.42H862a.41.41,0,0,0,.41-.42A.41.41,0,0,0,862,209.58Z"/><path class="cls-5" d="M844.47,209.58h-2.33a.41.41,0,0,0-.42.41.42.42,0,0,0,.42.42h2.33a.42.42,0,0,0,.42-.42A.41.41,0,0,0,844.47,209.58Z"/><path class="cls-5" d="M862,205.17H849.67a.41.41,0,0,0-.42.41.42.42,0,0,0,.42.42H862a.41.41,0,0,0,.41-.42A.41.41,0,0,0,862,205.17Z"/><path class="cls-5" d="M842.14,206h5.71a.42.42,0,0,0,.41-.42.41.41,0,0,0-.41-.41h-5.71a.41.41,0,0,0-.42.41A.42.42,0,0,0,842.14,206Z"/><path class="cls-5" d="M866.68,186.58v-.05s0,0,0,0v0l0,0a.05.05,0,0,0,0,0l0,0v0l-6.09-6.23h0l-.09-.07h0a.41.41,0,0,0-.19,0H837.87a.42.42,0,0,0-.42.42v37.81a.42.42,0,0,0,.42.42h28.4a.41.41,0,0,0,.41-.42V186.58Zm-28.4,31.2v-37h21.49v5.82a.41.41,0,0,0,.41.41h3.42a.41.41,0,0,0,.42-.41.42.42,0,0,0-.42-.42h-3V181.4l5.25,5.38v31Z"/><path class="cls-6" d="M62.65,310.62a19.52,19.52,0,0,0,4.29-4.88,2,2,0,0,1,.12-.19c-.22,0-.22,0-8.28,0a16.08,16.08,0,0,0-1.87.07v-1.41a10.53,10.53,0,0,0,1.89.11h8.55a2.48,2.48,0,0,0,1-.11l.75.87a4.09,4.09,0,0,0-.62.83,23.05,23.05,0,0,1-4.93,5.62c.55.62,1.26,1.5,2.14,2.67l-1.11.92a23.21,23.21,0,0,0-2.88-3.69,24.47,24.47,0,0,0-3-2.84l1-.76a26.07,26.07,0,0,1,2.06,1.84Z"/><path class="cls-6" d="M72.1,312a11.85,11.85,0,0,0,1.94.11h8.22a10.8,10.8,0,0,0,2-.11v1.49a16.36,16.36,0,0,0-2-.08H74a16.12,16.12,0,0,0-1.92.08Zm1.52-7.17a9.74,9.74,0,0,0,1.83.11h5.46a9.26,9.26,0,0,0,1.8-.11v1.47a14.14,14.14,0,0,0-1.79-.07H75.43a14.12,14.12,0,0,0-1.81.07Z"/><path class="cls-6" d="M96.69,313.83a7.64,7.64,0,0,0,1.46-.09V315a9.45,9.45,0,0,0-1.46-.07H89.4a9.45,9.45,0,0,0-1.47.07v-1.27a7.76,7.76,0,0,0,1.47.09h4.41c.32-1.49.66-3.69.8-5.06H90.78a11.44,11.44,0,0,0-1.42.06v-1.24a9.29,9.29,0,0,0,1.45.09h3.86a2.11,2.11,0,0,0,.82-.11l.58.51a3.15,3.15,0,0,0-.28,1.23c-.33,2.33-.45,3-.73,4.52Z"/><path class="cls-6" d="M108,306.43a4.93,4.93,0,0,0-.06,1.1c-.06,2.53-.47,4-1.49,5.29a8.48,8.48,0,0,1-3.85,2.63,3.62,3.62,0,0,0-.83-1.22,7.1,7.1,0,0,0,2.7-1.33c1.58-1.28,2.13-2.73,2.13-5.64a3.35,3.35,0,0,0-.06-.83Zm6-1.89a3.42,3.42,0,0,0-.38.63,9.16,9.16,0,0,1-4.35,4.38,3.68,3.68,0,0,0-.91-1,6.7,6.7,0,0,0,2.32-1.41,7.44,7.44,0,0,0,1.61-2.13h-8.34a15.41,15.41,0,0,0-1.85.07v-1.36a12.75,12.75,0,0,0,1.88.1h8a3.51,3.51,0,0,0,1.32-.1Z"/><path class="cls-6" d="M120.12,303.46a7.85,7.85,0,0,0-.09,1.32c-.12,4.16-.24,5.25-.8,6.77a9.28,9.28,0,0,1-2.57,3.78,3.71,3.71,0,0,0-1.08-1,7.19,7.19,0,0,0,2.47-3.43,20,20,0,0,0,.66-6.32,8.38,8.38,0,0,0,0-1.18Zm3.81-.18a9.66,9.66,0,0,0-.11,1.56l-.07,8.72a6.73,6.73,0,0,0,2.64-1.74,7.4,7.4,0,0,0,1.69-2.93,5.11,5.11,0,0,0,1,1,8.55,8.55,0,0,1-3.09,3.93,10.64,10.64,0,0,1-2.11,1.08l-.48.18-.36.16-.71-.78a3.18,3.18,0,0,0,.11-1.18l.09-8.49v-.33a6.26,6.26,0,0,0-.08-1.23Z"/><path class="cls-6" d="M133.74,312.93a13.14,13.14,0,0,1,.87-2.75l.9.42a12.21,12.21,0,0,0-1.26,4.23c0,.06,0,.17,0,.29l-1.3.09c0-.24-.05-.33-.09-.63a22.26,22.26,0,0,1-.39-4.28,25.75,25.75,0,0,1,.66-5.94,9.29,9.29,0,0,0,.21-1.27l1.42.19a18.45,18.45,0,0,0-.75,3,28.39,28.39,0,0,0-.34,4.59c0,.3,0,1,0,1.42s0,.39,0,.65Zm4.92-3.54a3.39,3.39,0,0,0-1.13,2.2c0,1,.93,1.53,2.75,1.53a10.36,10.36,0,0,0,3.49-.52l.14,1.36-.54.09a16.78,16.78,0,0,1-3.09.29c-1.77,0-2.9-.38-3.53-1.19a2.44,2.44,0,0,1-.45-1.44,4.39,4.39,0,0,1,1.34-2.83Zm-2.07-4.58a10.06,10.06,0,0,0,2.53.23,16.27,16.27,0,0,0,4.11-.41l.08,1.28-1,.13a25.72,25.72,0,0,1-3.19.2,16.81,16.81,0,0,1-2-.11l-.27,0-.24,0Z"/><path class="cls-6" d="M150.14,303.67a6.27,6.27,0,0,0-.09-1.21h1.27a7.44,7.44,0,0,0-.07,1.21v.12h5.09v-.12a6.06,6.06,0,0,0-.09-1.21h1.29a7.13,7.13,0,0,0-.08,1.21v.12h1.27a10.82,10.82,0,0,0,1.56-.09v1.14c-.5,0-1-.07-1.56-.07h-1.27v4.63H159a11.94,11.94,0,0,0,1.58-.09v1.13a11,11,0,0,0-1.55-.09h-2.07a8.68,8.68,0,0,0,4,2,4.28,4.28,0,0,0-.59,1.1,11.56,11.56,0,0,1-2.78-1.32v1a10.07,10.07,0,0,0-1.34-.06h-2v1.48h4a8.58,8.58,0,0,0,1.59-.09v1.17a12.88,12.88,0,0,0-1.65-.09h-8.54a13.27,13.27,0,0,0-1.68.09v-1.15a14.61,14.61,0,0,0,1.63.07h3.59v-1.48h-1.74a9.75,9.75,0,0,0-1.32.06v-1a10.91,10.91,0,0,1-2.78,1.36,3.22,3.22,0,0,0-.58-1.08,7.71,7.71,0,0,0,3.9-2h-2a10.74,10.74,0,0,0-1.53.09v-1.13a10.36,10.36,0,0,0,1.53.09h1.5v-4.63h-1c-.58,0-1.06,0-1.54.07V303.7a10.42,10.42,0,0,0,1.54.09h1Zm1.83,6.68a8.23,8.23,0,0,1-1.79,1.68c.3,0,.69,0,1.25,0h1.74V312a6.89,6.89,0,0,0-.08-1.14h1.23a5.94,5.94,0,0,0-.07,1.14v.1h2c.59,0,.88,0,1.21,0a8.8,8.8,0,0,1-1.9-1.68Zm4.37-4.64v-.94h-5.09v.94Zm0,1.83v-.93h-5.09v.93Zm0,1.86v-1h-5.09v1Z"/><path class="cls-6" d="M163.38,306.24a22.61,22.61,0,0,0,3.2-.65,20.11,20.11,0,0,1,4.3-.54c2.86,0,4.65,1.49,4.65,3.89a5,5,0,0,1-3.18,4.53,13,13,0,0,1-5.06,1.17,3.67,3.67,0,0,0-.54-1.34,13.48,13.48,0,0,0,4.11-.66c2.1-.72,3.27-2,3.27-3.7s-1.21-2.63-3.21-2.63a23.45,23.45,0,0,0-6.09,1.07,6.41,6.41,0,0,0-1.12.37ZM174.11,303a10.86,10.86,0,0,1,1.48,2l-.89.45a9.27,9.27,0,0,0-1.48-2.06Zm1.48-.75a9.49,9.49,0,0,1,1.48,2l-.88.45a9.33,9.33,0,0,0-1.46-2Z"/><path class="cls-6" d="M187.76,303.64c-.21.15-.39.32-1.85,1.7a42,42,0,0,1-3.49,2.86c-.51.39-.63.53-.63.71s.09.34,1.33,1.3a45,45,0,0,1,4.79,4c.22.21.25.24.43.39l-1.12,1.11a12.52,12.52,0,0,0-1.94-2.06c-1-.94-1.59-1.42-3.82-3.16-.87-.69-1.13-1-1.13-1.61a1.58,1.58,0,0,1,.45-1.05,9.26,9.26,0,0,1,1.29-1,23.93,23.93,0,0,0,4.44-4.14Z"/><path class="cls-6" d="M79.12,334.29a6,6,0,0,0,1.16.08h.85a6.65,6.65,0,0,0,1.14-.08,11.94,11.94,0,0,0-.06,1.61V339a2.2,2.2,0,0,0,1.22,1.23,8,8,0,0,0,3.39.45A47.38,47.38,0,0,0,93,340.4a4.78,4.78,0,0,0-.37,1.21c-2,.08-3.23.11-4.68.11a16.23,16.23,0,0,1-4.19-.29,3.8,3.8,0,0,1-2.1-1.59,12,12,0,0,1-1.68,1.46,7.24,7.24,0,0,0-.58.49l-.57-1.2a9.19,9.19,0,0,0,2.32-1.69v-3.51h-.91a5.82,5.82,0,0,0-1.07.07Zm1.07-5.62a18.43,18.43,0,0,1,2.19,2.68l-.87.87a12.72,12.72,0,0,0-2.19-2.8Zm4.86,3.13a6.24,6.24,0,0,0-1.16.08v-.39H82.78a5.37,5.37,0,0,0,.08-.93v-.71a8,8,0,0,0-.06-.94,13.4,13.4,0,0,0,1.39.06h6.86c.58,0,1,0,1.41-.06a4.93,4.93,0,0,0-.06.93v.69a5.28,5.28,0,0,0,.06,1H91.35v.39a6.08,6.08,0,0,0-1.14-.08H88v.9h2.44a7.49,7.49,0,0,0,1.17-.06,8.37,8.37,0,0,0,0,1v2.41a8,8,0,0,0,0,1,10.82,10.82,0,0,0-1.18-.06H88V338h3.15a7.09,7.09,0,0,0,1.26-.08V339a8.06,8.06,0,0,0-1.29-.07H88V339a11.64,11.64,0,0,0,.07,1.26H86.89A8.58,8.58,0,0,0,87,339v-.13H84.12a7.28,7.28,0,0,0-1.23.07v-1.05a7.44,7.44,0,0,0,1.21.08H87v-.95H84.79a9.76,9.76,0,0,0-1.17.06,5.73,5.73,0,0,0,.06-1v-2.41a6.12,6.12,0,0,0-.06-1,7.8,7.8,0,0,0,1.17.06H87v-.9Zm1.92-.87a3.34,3.34,0,0,0-.06-.69h1.15a2.57,2.57,0,0,0-.07.69h2.29a5.59,5.59,0,0,0,1-.06v-1H83.91v1a5.6,5.6,0,0,0,1.11.07Zm-2.27,2.58v1H87v-1Zm0,1.76v1H87v-1Zm3.29-.8h2.53v-1H88Zm0,1.76h2.53v-1H88Z"/><path class="cls-6" d="M102.81,339.86a11.77,11.77,0,0,0,.07,1.68h-1.26a11.69,11.69,0,0,0,.08-1.67v-2.74h-4A9.64,9.64,0,0,1,96.18,342a5,5,0,0,0-1-.79c1.37-1.86,1.63-3.47,1.63-10.44,0-.8,0-1.25-.06-1.79a14.65,14.65,0,0,0,1.66.06h8.16a14.16,14.16,0,0,0,1.64-.06,12.7,12.7,0,0,0-.06,1.53v10c0,1-.36,1.27-2,1.27-.48,0-1.17,0-1.76-.07a4,4,0,0,0-.27-1.14,18.44,18.44,0,0,0,2,.16c.69,0,.81-.07.81-.43v-3.18h-4.18Zm-4.92-6.26c0,.42,0,.77,0,1,0,.81,0,.81,0,1.48h3.87V333.6Zm3.81-3.48H97.92v1.73l0,.7h3.8Zm5.29,2.43v-2.43h-4.18v2.43Zm-4.18,3.51H107V333.6h-4.18Z"/><path class="cls-6" d="M122.86,330.08a2.87,2.87,0,0,0-.51.16,23.25,23.25,0,0,1-3.25.9c0,2.1,0,2.37,0,2.85h3.36a8.51,8.51,0,0,0,1.77-.1v1.33a13.18,13.18,0,0,0-1.75-.07H119a7.6,7.6,0,0,1-1,3.3,8,8,0,0,1-2.41,2.4c-.43.25-.7.4-1.35.72a3.13,3.13,0,0,0-1-1.11,7.53,7.53,0,0,0,2.21-1.2,5.36,5.36,0,0,0,2.17-4.11h-3.92a13.5,13.5,0,0,0-1.8.07v-1.33a9,9,0,0,0,1.82.1h4c0-.57,0-1.47,0-2.64a31.33,31.33,0,0,1-4.35.39,3.51,3.51,0,0,0-.42-1.18l.9,0a25,25,0,0,0,6.33-.93,6.07,6.07,0,0,0,1.74-.72Z"/><path class="cls-6" d="M133.53,339.84h3.09a9,9,0,0,0,1.44-.07V341a9.24,9.24,0,0,0-1.44-.07h-7.26a10.83,10.83,0,0,0-1.44.06v-1.25a7.18,7.18,0,0,0,1.43.09h3v-5.07h-2a13.58,13.58,0,0,0-1.43.06V333.6a9.36,9.36,0,0,0,1.43.09h5.44a8,8,0,0,0,1.43-.1v1.24a11.59,11.59,0,0,0-1.41-.06h-2.19Z"/><path class="cls-6" d="M143.5,332.57A17.11,17.11,0,0,1,145,336l-1.22.4a12.91,12.91,0,0,0-1.39-3.42Zm8.51,0c-.09.27-.12.37-.2.69a12.3,12.3,0,0,1-2.16,5,11.66,11.66,0,0,1-4.32,3.34,4,4,0,0,0-.85-1,9.28,9.28,0,0,0,5.67-5.83,8.64,8.64,0,0,0,.54-2.48Zm-5.4-.57a16.38,16.38,0,0,1,1.45,3.28l-1.18.41a14.23,14.23,0,0,0-1.38-3.35Z"/><path class="cls-6" d="M161.89,329a2.1,2.1,0,0,0-.33.59,13.9,13.9,0,0,1-.66,1.3,1.31,1.31,0,0,1,.38,0h.18l3.82-.06a2.21,2.21,0,0,0,.87-.12l.74.72a2,2,0,0,0-.33.78,15.57,15.57,0,0,1-3,5.68,14.77,14.77,0,0,1-5.25,3.77,3,3,0,0,0-.89-1.1,12.5,12.5,0,0,0,5.24-3.69,13.13,13.13,0,0,0,2.57-4.89l-4.91.08a15.2,15.2,0,0,1-3.55,3.87,2.85,2.85,0,0,0-1-.92,11.39,11.39,0,0,0,3.79-4.18,6.18,6.18,0,0,0,.9-2.13Z"/><path class="cls-6" d="M261.6,308.55a12.65,12.65,0,0,1-.2,1.72,6,6,0,0,1-2,3.8,9,9,0,0,1-2.64,1.48,3.48,3.48,0,0,0-.86-1.17,5.72,5.72,0,0,0,3.74-2.83,8.15,8.15,0,0,0,.61-3h-3.9a14.85,14.85,0,0,0-1.83.07v-1.35a11.71,11.71,0,0,0,1.86.11H265a11.15,11.15,0,0,0,1.86-.11v1.35c-.48,0-1.05-.07-1.84-.07Zm-5.58-5a9.35,9.35,0,0,0,1.84.11h4.55a9.46,9.46,0,0,0,1.86-.11v1.35c-.42,0-1.07-.07-1.85-.07h-4.57a14.2,14.2,0,0,0-1.83.07Zm9.55,3a8.93,8.93,0,0,0-1.12-2.17l.88-.35a8.78,8.78,0,0,1,1.14,2.15Zm1.53-.63a8.47,8.47,0,0,0-1.11-2.13l.87-.33a9.54,9.54,0,0,1,1.14,2.09Z"/><path class="cls-6" d="M270.85,308.41a16.42,16.42,0,0,0,2.07.09h8.43a11.82,11.82,0,0,0,2-.09v1.49a17.33,17.33,0,0,0-2-.08h-8.4a16.18,16.18,0,0,0-2.09.08Z"/><path class="cls-6" d="M293,302.83a6.79,6.79,0,0,0-.5,1c-.16.33-.31.59-.43.8a39,39,0,0,1,4.42-.09,2.68,2.68,0,0,0,1-.15l.77.76a3.26,3.26,0,0,0-.44,1,24.21,24.21,0,0,1-2,4.14,14.74,14.74,0,0,1-6.69,5.51,3.46,3.46,0,0,0-.89-1.11,14.88,14.88,0,0,0,3.06-1.59,10.81,10.81,0,0,0,2.55-2.3,17.41,17.41,0,0,0-3.28-2.35l.82-.92a20.68,20.68,0,0,1,3.24,2.24,17.22,17.22,0,0,0,1.95-4.1l-5.07.06a15.5,15.5,0,0,1-3.55,4,3.3,3.3,0,0,0-1.05-.86,13.16,13.16,0,0,0,3.81-4.27,9.25,9.25,0,0,0,.88-2.06Z"/><path class="cls-6" d="M310.36,313.09a4.39,4.39,0,0,0,2.37-4,3.87,3.87,0,0,0-2.22-3.65,3.92,3.92,0,0,0-1.68-.4,21.5,21.5,0,0,1-1.5,6c-.85,2-1.75,2.86-2.88,2.86-1.51,0-2.62-1.6-2.62-3.79a6.26,6.26,0,0,1,1.6-4.2,6.41,6.41,0,0,1,4.94-2c3.4,0,5.67,2.1,5.67,5.27a5.55,5.55,0,0,1-3.29,5.19,10.15,10.15,0,0,1-2.5.78,3,3,0,0,0-.65-1.22A8.13,8.13,0,0,0,310.36,313.09Zm-5-7.32a5.12,5.12,0,0,0-2.34,4.35c0,1.37.6,2.45,1.38,2.45.58,0,1.15-.69,1.77-2.1a20.34,20.34,0,0,0,1.33-5.4A4.22,4.22,0,0,0,305.4,305.77Z"/><path class="cls-6" d="M317.37,305a6.45,6.45,0,0,0,1.2.07H322a6,6,0,0,0,1.2-.07v1.14a6.27,6.27,0,0,0-1.1-.06h-3.55a8.32,8.32,0,0,0-1.2.06Zm.52-2.1a6.54,6.54,0,0,0,1.17.07h2.42a6.61,6.61,0,0,0,1.17-.07V304a7.8,7.8,0,0,0-1.17-.06h-2.42a8,8,0,0,0-1.17.06Zm.06,4.26a7.24,7.24,0,0,0,1.05.06h2.67a6.63,6.63,0,0,0,1-.06v1.08a6.48,6.48,0,0,0-1-.06H319a6.18,6.18,0,0,0-1.05.06Zm0,2.07a7.24,7.24,0,0,0,1.05.06h2.67a6.72,6.72,0,0,0,1-.06v1.08a6.61,6.61,0,0,0-1-.06H319a6.39,6.39,0,0,0-1.05.06Zm.05,6.9a10.08,10.08,0,0,0,.09-1.46v-2.08a7.46,7.46,0,0,0-.08-1.23,10.93,10.93,0,0,0,1.2.06h2.46a5.39,5.39,0,0,0,1.07,0,11.17,11.17,0,0,0-.05,1.16v2.25a10,10,0,0,0,.06,1.15h-1.09v-.7h-2.51v.9Zm1.14-1.85h2.52v-1.95h-2.52ZM325,314c0,.3.08.39.36.45a7.38,7.38,0,0,0,1.65.11c1.46,0,1.95-.08,2.22-.33s.36-1,.42-2.43a5.7,5.7,0,0,0,1.19.48,5.42,5.42,0,0,1-.68,2.74c-.34.47-1.12.63-3.07.63a12.62,12.62,0,0,1-2.3-.13c-.73-.14-.94-.41-.94-1.19v-5.11a9.46,9.46,0,0,0-.08-1.46,12.6,12.6,0,0,0,1.47.06h3.66v-3.67H325a9.7,9.7,0,0,0-1.44.07V303A10.38,10.38,0,0,0,325,303h3.62a11.56,11.56,0,0,0,1.45-.06c0,.42,0,.71,0,1.49v3a12.08,12.08,0,0,0,.06,1.43,12.7,12.7,0,0,0-1.47-.06H325Z"/><path class="cls-6" d="M336,307.06a7.46,7.46,0,0,0-1,.06v-.84c-.27.27-.39.36-.73.66a2.52,2.52,0,0,0-.59-.93,7.46,7.46,0,0,0,2.67-3.48h1.25a6.49,6.49,0,0,0,2.16,2.7,3.73,3.73,0,0,0-.65.95,9.05,9.05,0,0,1-2.08-2.73,9.39,9.39,0,0,1-1.85,2.65c.24,0,.48,0,.8,0h2a5.41,5.41,0,0,0,1-.06v1a9.2,9.2,0,0,0-1-.05h-.48v1.4h.61a7.64,7.64,0,0,0,1.28-.08v1.11a7.58,7.58,0,0,0-1.28-.07h-.61v4.24a15.45,15.45,0,0,0,1.71-.6l0,1a31.23,31.23,0,0,1-4,1.23c-.56.13-.69.16-1,.25l-.21-1.18a12,12,0,0,0,2.49-.44v-4.51h-1a9.58,9.58,0,0,0-1.41.07v-1.11a10.43,10.43,0,0,0,1.43.08h1v-1.4Zm-1,6.39a14.86,14.86,0,0,0-.64-3l.85-.27a16.84,16.84,0,0,1,.69,3Zm3-.88a10.57,10.57,0,0,0,.63-2.55l.85.3a13.16,13.16,0,0,1-.72,2.52Zm5.92-4.38a9,9,0,0,0,.93,2.65,8,8,0,0,0,1.62-2l.9.6a16,16,0,0,1-2,2.29,7.81,7.81,0,0,0,2.59,2.52,4.69,4.69,0,0,0-.72,1,8.45,8.45,0,0,1-2.29-2.46,9,9,0,0,1-1.14-2.55c.06,1.23.09,1.84.09,2.46v2.16c0,1-.33,1.2-1.58,1.2a11.62,11.62,0,0,1-1.21-.08,3.06,3.06,0,0,0-.24-1.09,8.84,8.84,0,0,0,1.39.13c.5,0,.62-.07.62-.37v-2.06c-.6.5-.74.6-1.14.89l-1.29.85-.51.35-.53-1a16.15,16.15,0,0,0,3.47-2.22v-3.24h-2.07a8.83,8.83,0,0,0-1.4.07v-1.11a8.85,8.85,0,0,0,1.4.09h4.09c0-.18,0-.18.05-.51,0-.1,0-.16.06-.7h-3.21a9.4,9.4,0,0,0-1.32.06V305a7.28,7.28,0,0,0,1.32.08h3.27c0-.48,0-.57.06-1.16h-3.63a13.32,13.32,0,0,0-1.43.06v-1.09a9.61,9.61,0,0,0,1.46.07h3.31a11.29,11.29,0,0,0,1.44-.06,10.08,10.08,0,0,0-.12,1.52c-.06,1-.07,1.12-.19,2.8h.25a9.27,9.27,0,0,0,1.43-.09v1.11a9.66,9.66,0,0,0-1.41-.07h-2.3Zm-3.12.6A12.21,12.21,0,0,1,342,311.1l-.85.54a10.49,10.49,0,0,0-1.28-2.42Z"/><path class="cls-6" d="M287.48,335.58c0-.55,0-1.12,0-1.75a8.91,8.91,0,0,1-1.46,1.95,2.55,2.55,0,0,0-.1-.24,3.85,3.85,0,0,0-.54-.89,12.16,12.16,0,0,0,3.39-6.4l1.21.39a7.92,7.92,0,0,0-.28.82,17.82,17.82,0,0,1-1.17,2.76v8a14.06,14.06,0,0,0,.08,1.76h-1.27a15,15,0,0,0,.1-1.79Zm6.26-1.87h-1.6a13.73,13.73,0,0,0-1.58.06,11.11,11.11,0,0,0,.06-1.38v-2a10.71,10.71,0,0,0-.06-1.34,11.11,11.11,0,0,0,1.65.08h4.52a11.38,11.38,0,0,0,1.65-.08,11.11,11.11,0,0,0-.06,1.38v2a10.06,10.06,0,0,0,.06,1.35c-.27,0-1-.06-1.56-.06h-2v1.51h3a11.67,11.67,0,0,0,1.53-.09v1.22a13.51,13.51,0,0,0-1.5-.09h-2.58a10,10,0,0,0,1.88,2,11.06,11.06,0,0,0,2.64,1.65A6.25,6.25,0,0,0,299,341a15.56,15.56,0,0,1-2.25-1.62,9.21,9.21,0,0,1-2-2.29c0,.54.06,1,.06,1.62v1.87a10.38,10.38,0,0,0,.09,1.44h-1.28a11.06,11.06,0,0,0,.09-1.45v-1.86c0-.59,0-1,.06-1.62a9.66,9.66,0,0,1-2.14,2.55,12.24,12.24,0,0,1-2,1.42,3.35,3.35,0,0,0-.77-1,11.83,11.83,0,0,0,2.84-1.92,7.93,7.93,0,0,0,1.59-1.87H291a11.67,11.67,0,0,0-1.55.09v-1.22a11.36,11.36,0,0,0,1.55.09h2.74Zm-2-1h5.45v-2.55h-5.45Z"/><path class="cls-6" d="M304.63,330.41a9.74,9.74,0,0,1-1.4,1.47,2.92,2.92,0,0,0-.86-.75,6.49,6.49,0,0,0,2.37-2.94l1.14.3c-.24.43-.35.61-.57,1h2.38a7,7,0,0,0,1.29-.07v1.06a10.5,10.5,0,0,0-1.11,0h-1.11a9,9,0,0,1,.6,1.2l-1,.39a8,8,0,0,0-.68-1.59Zm9.29,1.84a13.46,13.46,0,0,0,1.56-.06,5.16,5.16,0,0,0-.05.95V334a6.44,6.44,0,0,0,.06,1h-1.15v-1.8H304.06V335h-1.15a8.37,8.37,0,0,0,.06-1v-.86a5.47,5.47,0,0,0-.06-1,12,12,0,0,0,1.51.06h4V332a4.87,4.87,0,0,0-.06-.81h1.21a.46.46,0,0,0,0,.1,2.66,2.66,0,0,0-.05.71v.22ZM304.81,342a10.41,10.41,0,0,0,.09-1.56v-5.4a6.57,6.57,0,0,0-.06-1.08,10.21,10.21,0,0,0,1.44.08h5.55a9.76,9.76,0,0,0,1.44-.08,10.35,10.35,0,0,0,0,1.08V336a9.26,9.26,0,0,0,0,1.15,13.83,13.83,0,0,0-1.41-.06H306v1h6.51a11.09,11.09,0,0,0,1.33-.06,12,12,0,0,0-.06,1.32v1.29a9.92,9.92,0,0,0,.08,1.39h-1.17v-.72H306V342Zm1.19-5.82h6.16V335H306Zm0,4.19h6.69V339H306Zm4.48-10a6.31,6.31,0,0,1-.76.9,2.88,2.88,0,0,0-.86-.61,5,5,0,0,0,1.61-2.48l1.09.23c-.16.39-.24.52-.49,1h3.42a8,8,0,0,0,1.36-.08v1.1a7.84,7.84,0,0,0-1.33-.08h-1.8a10.56,10.56,0,0,1,.67,1.19l-1,.39a8.58,8.58,0,0,0-.77-1.58Z"/><path class="cls-6" d="M284.2,356.08a2.87,2.87,0,0,0-.51.16,23.64,23.64,0,0,1-3.25.9c0,2.1,0,2.37-.05,2.85h3.36a8.51,8.51,0,0,0,1.77-.1v1.33a13.18,13.18,0,0,0-1.75-.07h-3.45a7.6,7.6,0,0,1-1,3.3,7.91,7.91,0,0,1-2.42,2.4,15,15,0,0,1-1.35.72,3.11,3.11,0,0,0-.95-1.11,7.53,7.53,0,0,0,2.21-1.2,5.32,5.32,0,0,0,2.16-4.11h-3.91a13.41,13.41,0,0,0-1.8.07v-1.33a8.9,8.9,0,0,0,1.81.1h4c0-.57.05-1.47.05-2.64a31.33,31.33,0,0,1-4.35.39,3.51,3.51,0,0,0-.42-1.18l.9,0a25,25,0,0,0,6.33-.93,6.07,6.07,0,0,0,1.74-.72Z"/><path class="cls-6" d="M294.87,365.84H298a9,9,0,0,0,1.44-.07V367a9.24,9.24,0,0,0-1.44-.07H290.7a10.83,10.83,0,0,0-1.44.06v-1.25a7.18,7.18,0,0,0,1.43.09h2.95v-5.07h-2a13.45,13.45,0,0,0-1.43.06V359.6a9.36,9.36,0,0,0,1.43.09H297a8,8,0,0,0,1.43-.1v1.24a11.59,11.59,0,0,0-1.41-.06h-2.19Z"/><path class="cls-6" d="M304.85,358.57a17.16,17.16,0,0,1,1.48,3.39l-1.21.4a12.92,12.92,0,0,0-1.4-3.42Zm8.5,0c-.09.27-.12.37-.2.69a12.3,12.3,0,0,1-2.16,5,11.66,11.66,0,0,1-4.32,3.34,4,4,0,0,0-.85-1,9.28,9.28,0,0,0,5.67-5.83,8.64,8.64,0,0,0,.54-2.48ZM308,358a15.31,15.31,0,0,1,1.45,3.28l-1.18.41a13.82,13.82,0,0,0-1.38-3.35Z"/><path class="cls-6" d="M323.23,355a2.1,2.1,0,0,0-.33.59c-.36.76-.48,1-.65,1.3a1.18,1.18,0,0,1,.37,0h.18l3.83-.06a2.19,2.19,0,0,0,.86-.12l.74.72a2,2,0,0,0-.33.78,15.57,15.57,0,0,1-3,5.68,14.73,14.73,0,0,1-5.24,3.77,3.1,3.1,0,0,0-.9-1.1,12.5,12.5,0,0,0,5.24-3.69,13.13,13.13,0,0,0,2.57-4.89l-4.9.08a15.06,15.06,0,0,1-3.56,3.87,2.77,2.77,0,0,0-1-.92,11.5,11.5,0,0,0,3.8-4.18,6.62,6.62,0,0,0,.9-2.13Z"/><path class="cls-6" d="M452,305.64c.16-.45.22-.63.37-1.16h-.25a8.15,8.15,0,0,0-1.22.08v-1a7.75,7.75,0,0,0,1.25.07h.46a7.51,7.51,0,0,0,.24-1.27l1.1.15a2.22,2.22,0,0,0-.12.45c0,.13-.05.18-.18.67h1.14c.6,0,1,0,1.27,0,0,.31,0,.66,0,1.06v1a5.07,5.07,0,0,0,.93-.08v.89a5.65,5.65,0,0,0,.82,0h1.8a5,5,0,0,0,1.08-.07v1.15a5.45,5.45,0,0,0-1.08-.07h-.19v7c0,1.08-.29,1.29-1.74,1.29l-1,0a3.29,3.29,0,0,0-.23-1.13,9.71,9.71,0,0,0,1.41.14c.35,0,.44-.08.44-.32v-7h-.5a3.86,3.86,0,0,0-.9.07v-1a7.52,7.52,0,0,0-1-.06h-4.16a7,7,0,0,0-1.24.08v0l-.41.69a11.64,11.64,0,0,1-.67,1v5.9a9.6,9.6,0,0,0,.09,1.72h-1.25a10.25,10.25,0,0,0,.09-1.75V311c0-.55,0-1,.05-1.6a9.38,9.38,0,0,1-1.14,1.2,3.55,3.55,0,0,0-.56-1.07,8.57,8.57,0,0,0,2.25-2.43,4.89,4.89,0,0,0,.65-1.29l.9.53v-.74a6,6,0,0,0,1.21.08ZM450.49,303c-.18.21-.18.21-.57.72a13,13,0,0,1-2.5,2.52,3.3,3.3,0,0,0-.63-.94,8,8,0,0,0,2.68-2.93Zm1.74,7.11c-.58,0-.94,0-1.33.05a8.31,8.31,0,0,0,0-1v-.9a7.21,7.21,0,0,0,0-.89,10.45,10.45,0,0,0,1.12.05h3.05c.58,0,.94,0,1.27-.05a9,9,0,0,0,0,1v.78a8.75,8.75,0,0,0,0,1c-.28,0-.75-.05-1.29-.05h-.28V311h.61c.54,0,.89,0,1.35-.06v1a13.25,13.25,0,0,0-1.35-.06h-.61v1.19h.88a10.52,10.52,0,0,0,1.43-.08v1.05a12.43,12.43,0,0,0-1.26-.07h-1.05v.64a8.83,8.83,0,0,0,.09,1.34h-1.19a8.83,8.83,0,0,0,.09-1.34V314h-2.34a10.22,10.22,0,0,0-1.41.07v-1a9,9,0,0,0,1.19.06v-1.19l-.84.06v-1c.48,0,.85.06,1.35.06h2.05v-.92Zm-.25-.82h3.3v-1H452Zm.19,3.81h1.59v-1.19h-1.59Zm2.85-7.44v-1.16h-1.63c-.15.51-.23.71-.39,1.16Zm5.33-1.26a4.92,4.92,0,0,0-1-.08h-1.62a6.06,6.06,0,0,0-.79.06v-1.14a5.53,5.53,0,0,0,1,.08h1.41a5.49,5.49,0,0,0,1-.08Z"/><path class="cls-6" d="M466.47,306.55a14.75,14.75,0,0,1-2,3.17,3.45,3.45,0,0,0-1-.8,12.09,12.09,0,0,0,2.64-4.56,4.58,4.58,0,0,0,.33-1.41l1.29.35a8.56,8.56,0,0,0-.28.82c-.08.24-.33.92-.5,1.35h2.93V304a10.62,10.62,0,0,0-.11-1.65h1.4a10,10,0,0,0-.09,1.65v1.45h3.54a15.76,15.76,0,0,0,1.8-.09v1.26a16.91,16.91,0,0,0-1.77-.09h-3.57v3.06H474a12,12,0,0,0,1.68-.09v1.25a12.63,12.63,0,0,0-1.68-.09h-2.92v3.69h4a12.22,12.22,0,0,0,1.86-.11v1.29a14.74,14.74,0,0,0-1.83-.1h-9.51a15.53,15.53,0,0,0-1.87.1v-1.29a12.63,12.63,0,0,0,1.84.11h4.28v-3.69h-2.61a11.93,11.93,0,0,0-1.65.09v-1.25a11.13,11.13,0,0,0,1.63.09h2.63v-3.06Z"/><path class="cls-6" d="M482.23,303.91a9.81,9.81,0,0,0-.1-1.53h1.33a11,11,0,0,0-.09,1.5v1.43h.48a7.55,7.55,0,0,0,1.2-.08v1.17a8.19,8.19,0,0,0-1.21-.07h-.47v2.86c.53-.16.81-.25,1.7-.58v1c-.67.29-.85.35-1.71.65v4.47c0,.9-.39,1.14-1.77,1.14-.4,0-.63,0-1.12,0a3.41,3.41,0,0,0-.24-1.15,9.41,9.41,0,0,0,1.5.13c.39,0,.49-.09.49-.4v-3.77c-.52.17-.57.18-1.18.35a6.91,6.91,0,0,0-.77.25L480,310a11.79,11.79,0,0,0,2.2-.5v-3.19h-.87a8,8,0,0,0-1.2.07v-1.18a7.33,7.33,0,0,0,1.2.09h.87Zm4.58.42a14.91,14.91,0,0,0,5.25-1.5l.88,1a25.81,25.81,0,0,1-6.13,1.47v.95c0,.58.24.64,2.74.64s2.63,0,2.75-1.87a4.35,4.35,0,0,0,1.09.42c-.13,1.29-.33,1.8-.79,2.1s-1.16.37-3.6.37c-2.76,0-3.32-.22-3.32-1.35V303.9a9.66,9.66,0,0,0-.09-1.47h1.29a9,9,0,0,0-.07,1.41Zm-1.1,5.87a7.61,7.61,0,0,0-.06-1.2,11.51,11.51,0,0,0,1.34.06h4.29a10.86,10.86,0,0,0,1.33-.06,9.14,9.14,0,0,0-.06,1.21v4.31a8.69,8.69,0,0,0,.08,1.5h-1.19v-.78h-4.62V316h-1.18a9.29,9.29,0,0,0,.07-1.48Zm1.11,1.38h4.62v-1.53h-4.62Zm0,2.67h4.62v-1.68h-4.62Z"/><path class="cls-6" d="M504.66,311.62a12.51,12.51,0,0,1-3.92-.33,2.58,2.58,0,0,1-1.35-1,21.25,21.25,0,0,1-2.32,1.54l-.51-1.06a10.79,10.79,0,0,0,2.28-1.26V307.3h-1a7.32,7.32,0,0,0-1.08.06v-1.05a6,6,0,0,0,1.17.08h.93a8.67,8.67,0,0,0,1.12-.06,10.12,10.12,0,0,0-.06,1.36v1.76c.59,1.05,1.32,1.29,4,1.29s5.16-.08,6.33-.21a2.42,2.42,0,0,0-.36,1l-2.7,0v.77h1a11.17,11.17,0,0,0,1.62-.09v1.12a11.52,11.52,0,0,0-1.63-.09h-1v1.59c0,.95-.28,1.11-2,1.11-.38,0-.63,0-1.16,0a3,3,0,0,0-.34-1.09,12.84,12.84,0,0,0,1.71.12c.57,0,.67-.06.67-.38V313.3h-5.55a12,12,0,0,1,2.09,1.73l-.87.78a8.8,8.8,0,0,0-2.06-1.89l.8-.62h-2.15a11.81,11.81,0,0,0-1.63.09v-1.12a11.17,11.17,0,0,0,1.62.09h7.75v-.75Zm-6.92-9.12a13,13,0,0,1,2.21,2l-.78.79a11.2,11.2,0,0,0-2.19-2.1Zm5.12,1.1a6.25,6.25,0,0,0-.84-1.16l1.09-.25a9,9,0,0,1,.89,1.41h1.71a9,9,0,0,0,.94-1.38l1.11.3c-.34.46-.57.76-.84,1.08h1.32a8.84,8.84,0,0,0,1.5-.08v1a13.76,13.76,0,0,0-1.5-.06h-2.8c-.14.3-.23.47-.36.72h2.14c.75,0,1.13,0,1.44,0a10.1,10.1,0,0,0-.06,1.24v2.43a10.6,10.6,0,0,0,.06,1.31c-.31,0-.69-.05-1.24-.05h-4.64c-.58,0-1,0-1.47.05a10.55,10.55,0,0,0,.05-1.2v-2.57a8.83,8.83,0,0,0-.06-1.21c.34,0,.76,0,1.56,0h1.06c.2-.34.24-.45.38-.72h-2.39a15.07,15.07,0,0,0-1.53.06v-1a8.81,8.81,0,0,0,1.47.08Zm-.5,3h5.22V306h-5.22Zm0,1.35h5.22v-.6h-5.22Zm0,1.38h5.22v-.64h-5.22Z"/><path class="cls-6" d="M442.13,337.61c0-.36,0-.59,0-.93-.84.34-1.11.45-2,.76a3,3,0,0,0-.56-1.11,18.33,18.33,0,0,0,6.05-2.67,11.37,11.37,0,0,1-2.06-2.14,12.33,12.33,0,0,1-2.89,2.29,3.1,3.1,0,0,0-.74-.9,11.18,11.18,0,0,0,3.81-3.22,6.39,6.39,0,0,0,.92-1.52l1.24.29c-.51.78-.51.79-.79,1.2h3.4a8.58,8.58,0,0,0,1.38-.08l.62.77c-.21.24-.23.27-.69.85a15.36,15.36,0,0,1-2.37,2.43,13.24,13.24,0,0,0,2.07,1.13,21.74,21.74,0,0,0,3.73,1.29,3.82,3.82,0,0,0-.52,1.17,19.46,19.46,0,0,1-1.94-.68c0,.35,0,.65,0,1.07v3.07a9.69,9.69,0,0,0,.09,1.38h-1.23v-.88h-6.29v.88H442a10.1,10.1,0,0,0,.09-1.38Zm7.5-1.2c.3,0,.45,0,.74,0a19.66,19.66,0,0,1-3.89-2,16.73,16.73,0,0,1-3.72,2.06h6.87Zm-6.36,3.76h6.29V337.4h-6.29Zm.93-9.43a10.55,10.55,0,0,0,2.27,2.26,12.23,12.23,0,0,0,2.31-2.38h-4.47Z"/><path class="cls-6" d="M458.12,330.17c-.64.16-.91.21-1.65.34a3.33,3.33,0,0,0-.46-1,12.74,12.74,0,0,0,3.66-.92,3.49,3.49,0,0,0,.52-.28l.66.91c-.15.05-.15.05-.79.32-.32.12-.57.21-.89.31v2.39h.41a6.53,6.53,0,0,0,1-.06v1.11a6,6,0,0,0-1-.06h-.34a7.19,7.19,0,0,0,1.45,2.5,3.59,3.59,0,0,0-.57,1,8.68,8.68,0,0,1-1-2.1c0,.48,0,.65,0,1.08,0,.27,0,.47,0,.57,0,.29,0,.48,0,.57v3.5a13.77,13.77,0,0,0,.08,1.72H458a14.19,14.19,0,0,0,.09-1.72V337.2c0-1.2.05-2,.08-2.32a11.13,11.13,0,0,1-1.86,4,3.77,3.77,0,0,0-.62-1,12.45,12.45,0,0,0,2.27-4.56h-.72a10.26,10.26,0,0,0-1.14.07v-1.14a8.27,8.27,0,0,0,1.17.08h.82Zm6.17-.06c-1.11.07-1.68.1-2.91.12a3.44,3.44,0,0,0-.44-1c.42,0,.74,0,.95,0a23.42,23.42,0,0,0,6.37-.8l.77.95a3.44,3.44,0,0,0-.57.12c-.8.16-2,.34-3.17.46v1h2.76a9.94,9.94,0,0,0,1.47-.09V332a11.1,11.1,0,0,0-1.39-.08h-2.84v.9h2.07c.63,0,1,0,1.4,0a7.81,7.81,0,0,0-.05,1.24v2.22a10.05,10.05,0,0,0,.05,1.41c-.36,0-.69,0-1.34,0h-2.13v1h2.15a8.91,8.91,0,0,0,1.5-.08v1.08c-.44,0-.95-.07-1.5-.07h-2.15v1.08h2.78a13.22,13.22,0,0,0,1.57-.08v1.1a11.54,11.54,0,0,0-1.6-.09h-6.33a10.84,10.84,0,0,0-1.59.07V340.5a10.24,10.24,0,0,0,1.57.08h2.6V339.5h-2.16a11.2,11.2,0,0,0-1.44.06v-1.05a12.53,12.53,0,0,0,1.44.06h2.16v-1h-2c-.63,0-1,0-1.32,0,0-.43.05-.82.05-1.42V334c0-.6,0-.92-.05-1.26.39,0,.77,0,1.4,0h1.89v-.9h-2.42a12.49,12.49,0,0,0-1.42.06v-1.05a9.33,9.33,0,0,0,1.41.08h2.43ZM462,333.69v1.07h2.25v-1.07Zm0,1.92v1.11h2.25v-1.11Zm3.25-.85h2.42v-1.07h-2.42Zm0,2h2.42v-1.11h-2.42Z"/><path class="cls-6" d="M483.11,340.32a4.72,4.72,0,0,0-.54.08,26.4,26.4,0,0,1-4,.34,10.17,10.17,0,0,1-3.56-.48,2.41,2.41,0,0,1-1.77-2.32c0-1,.56-1.95,1.79-3l.91.69c-1,.79-1.41,1.48-1.41,2.16s.42,1.12,1.23,1.38a9.89,9.89,0,0,0,2.72.28,14.14,14.14,0,0,0,4.53-.6Zm-9-10.38a24.24,24.24,0,0,0,8,.06l.07,1.2a22.75,22.75,0,0,0-3.84,2.34l-.91-.73c1-.65,1.24-.81,1.84-1.16l.39-.21.29-.15a14.63,14.63,0,0,1-2.24.17,26.65,26.65,0,0,1-3.16-.2l-.51,0Zm7.44,2.52a9.32,9.32,0,0,1,1.44,2l-.84.48a8.39,8.39,0,0,0-1.42-2Zm1.43-.79a9.35,9.35,0,0,1,1.44,1.92l-.83.48a9.26,9.26,0,0,0-1.42-1.95Z"/><path class="cls-6" d="M491.05,332.25a9,9,0,0,0,2.11,3.3,4.44,4.44,0,0,0-.61,1.05,10.77,10.77,0,0,1-1.65-3c0,1.29.06,1.85.06,2.31v4.37a13.1,13.1,0,0,0,.09,1.77h-1.29a13.51,13.51,0,0,0,.09-1.77v-3.92c0-.6,0-1,.09-2.43a13.6,13.6,0,0,1-2.1,4.53,4.52,4.52,0,0,0-.66-1.09,13,13,0,0,0,2.5-5.15h-1a7.61,7.61,0,0,0-1.08.06v-1.14a6.2,6.2,0,0,0,1.1.06h1.14v-1.38a7.69,7.69,0,0,0-.09-1.54H491a13.39,13.39,0,0,0-.07,1.54v1.38h1a5.58,5.58,0,0,0,1-.06v1.13a9.71,9.71,0,0,0-1-.05Zm2.4,9.77c0-.54.07-1.11.07-1.88v-9.51c0-.49,0-.91-.06-1.6.38,0,.54,0,1.22,0h4.45a10.34,10.34,0,0,0,1.19-.05c0,.35-.05.75-.05,1.5v9.62a15.79,15.79,0,0,0,.08,1.83h-1.2v-1h-4.5v1Zm1.2-9.41h4.5v-2.49h-4.5Zm0,3.6h4.5v-2.55h-4.5Zm0,3.72h4.5v-2.67h-4.5Z"/><path class="cls-6" d="M503.86,330.92a6.45,6.45,0,0,0,1.2.07h2.8a7.1,7.1,0,0,0,1.2-.06v1.13A6.55,6.55,0,0,0,508,332h-2.91a8.57,8.57,0,0,0-1.2.06Zm.58,11a14.17,14.17,0,0,0,.08-1.47v-2.1a11.32,11.32,0,0,0-.06-1.22,4.89,4.89,0,0,0,1,.06h2.27a5.15,5.15,0,0,0,.91,0,10.78,10.78,0,0,0,0,1.14v2.4a9.06,9.06,0,0,0,0,1h-1v-.62h-2V342Zm.06-8.88a6.37,6.37,0,0,0,1,.06h2.08a5.62,5.62,0,0,0,1-.06v1.06a6.29,6.29,0,0,0-1-.06h-2.08a6.55,6.55,0,0,0-1,.06Zm0,2.08a8.38,8.38,0,0,0,1,0h2.08a7.47,7.47,0,0,0,1,0v1a6.17,6.17,0,0,0-1-.06h-2.09a6.44,6.44,0,0,0-1,.06Zm0-6.33a5.53,5.53,0,0,0,1.12.08h1.85a5.72,5.72,0,0,0,1.12-.08v1.1a7.33,7.33,0,0,0-1.12-.06h-1.85a7.25,7.25,0,0,0-1.12.06Zm1,11.33h2v-2h-2Zm8.2-5.69a6.61,6.61,0,0,0-.06.93,5.19,5.19,0,0,0,1,3.36,6.8,6.8,0,0,0,3.06,2.24,4.14,4.14,0,0,0-.66,1.12,8.56,8.56,0,0,1-2.68-2.07,5.86,5.86,0,0,1-1.22-2.1,5,5,0,0,1-1.14,2.24,6.68,6.68,0,0,1-2.71,1.95,3.45,3.45,0,0,0-.66-1,5.42,5.42,0,0,0,3-2.09,5.78,5.78,0,0,0,.94-3.54,6.22,6.22,0,0,0-.06-1Zm0-5.94a7.85,7.85,0,0,0-.06.92,4.74,4.74,0,0,0,.8,2.88,5.52,5.52,0,0,0,1.48,1.35,6.23,6.23,0,0,0,1.5.7,5,5,0,0,0-.63,1.05,7.36,7.36,0,0,1-2.8-2.14,4.91,4.91,0,0,1-.87-1.52,4.73,4.73,0,0,1-.87,1.65,6.4,6.4,0,0,1-2.79,2,2.77,2.77,0,0,0-.68-1,5.24,5.24,0,0,0,2.24-1.16,4.62,4.62,0,0,0,1.53-3.82,4.87,4.87,0,0,0-.08-1Zm-2.47,7.41a8.38,8.38,0,0,1-1.2,2.73l-1-.45a5.19,5.19,0,0,0,1.17-2.58Zm.13-6.42a8.16,8.16,0,0,1-1.17,2.75l-1-.44a5.38,5.38,0,0,0,1.11-2.56Zm5.78.08a11.7,11.7,0,0,1-1.77,2.46,5.85,5.85,0,0,0-.89-.57,7.12,7.12,0,0,0,1.61-2.36Zm-.05,6.48a12,12,0,0,1-1.63,2.41,5.05,5.05,0,0,0-.89-.58,6.78,6.78,0,0,0,1.49-2.3Z"/><path class="cls-6" d="M630.9,306.27a13.5,13.5,0,0,1-1.62,1.15,5.05,5.05,0,0,0-.69-.91l.4-.23c-.28,0-.48,0-.75,0h-.49a8.79,8.79,0,0,0,1.71,2.91,3.66,3.66,0,0,0-.6.95,12.88,12.88,0,0,1-1.25-2.46c0,.54.08,1.54.08,2.29v4.37a13,13,0,0,0,.09,1.77h-1.25a13.3,13.3,0,0,0,.09-1.77v-3.92c0-.64,0-1.36.08-2.25l-.18.62a13.44,13.44,0,0,1-1.5,3.67,3.59,3.59,0,0,0-.68-1.06,14.12,14.12,0,0,0,2.13-5.12h-.75a6.69,6.69,0,0,0-1,.06v-1.15a6.69,6.69,0,0,0,1,.06h.89v-1.35a9,9,0,0,0-.08-1.55h1.23a10,10,0,0,0-.07,1.53v1.37h.54a5.58,5.58,0,0,0,.91-.06v1a9.66,9.66,0,0,0,3.54-3.67h1.22a7.55,7.55,0,0,0,1.71,2,10.34,10.34,0,0,0,2.94,1.85,4.06,4.06,0,0,0-.63,1.05,15.22,15.22,0,0,1-1.89-1.19v.86c-.39,0-.72-.05-1.31-.05h-.85v.66a5.34,5.34,0,0,1,0,.54h2.09c.61,0,1,0,1.35,0,0,.4,0,.73,0,1.09v1.58a6.94,6.94,0,0,0,0,1.12,14,14,0,0,0-1.46-.06h-1.72a6.66,6.66,0,0,0,4.29,3,4.44,4.44,0,0,0-.63,1.11,7.7,7.7,0,0,1-4.44-3.65c-.63,1.73-1.83,2.76-4.22,3.65a3.05,3.05,0,0,0-.69-1,6.85,6.85,0,0,0,2.51-1.09,3.89,3.89,0,0,0,1.47-2H631a13.18,13.18,0,0,0-1.36.06,9,9,0,0,0,0-.93v-1.87a9.21,9.21,0,0,0,0-1,10.58,10.58,0,0,0,1.3,0h1.94V307h-.65c-.61,0-.85,0-1.3.05Zm-.21,2.88V311h1.95a16.39,16.39,0,0,0,.18-1.81Zm4-3.12a10.41,10.41,0,0,0,1,0,10.61,10.61,0,0,1-2.44-2.55,10.8,10.8,0,0,1-2.15,2.55c.33,0,.57,0,1,0Zm-.88,3.12a12.83,12.83,0,0,1-.17,1.81h2.54v-1.81Z"/><path class="cls-6" d="M643.63,314.34a14.94,14.94,0,0,0,.08,1.75h-1.28a15.1,15.1,0,0,0,.09-1.86v-4.78c0-.87,0-1.1.05-1.8a10.1,10.1,0,0,1-1.26,2,3.57,3.57,0,0,0-.65-1.08,12.92,12.92,0,0,0,2.45-4.24,10.14,10.14,0,0,0,.57-2.12l1.17.36c-.09.24-.18.5-.29.87a20.77,20.77,0,0,1-.93,2.43Zm2.76-10.14a9.66,9.66,0,0,0-1.41.07V303.1a11,11,0,0,0,1.53.09h6.59a11.72,11.72,0,0,0,1.56-.09v1.17a9.78,9.78,0,0,0-1.44-.07H650v1.36h2.52a8.51,8.51,0,0,0,1.34-.07,12.18,12.18,0,0,0-.06,1.56v2.55a12.56,12.56,0,0,0,.06,1.56,7.16,7.16,0,0,0-1.23-.08h-2.94a5.48,5.48,0,0,1-.84,2.12,13,13,0,0,0,6,1.32,4.47,4.47,0,0,0-.45,1.18,13.06,13.06,0,0,1-6.22-1.68,8.79,8.79,0,0,1-3.47,1.85,3.79,3.79,0,0,0-.52-1,7.72,7.72,0,0,0,3.09-1.43,5.2,5.2,0,0,1-.59-.46l-.48-.42a4.1,4.1,0,0,0-.48-.42l.95-.63a8.44,8.44,0,0,0,1.33,1.17,3.94,3.94,0,0,0,.63-1.58H646.3a6.06,6.06,0,0,0-1.09.08,14.3,14.3,0,0,0,.06-1.47V307c0-.67,0-1-.06-1.48a12.31,12.31,0,0,0,1.36.07H649V304.2Zm-.06,2.29v1.28h2.6c0-.5,0-.59,0-1.28Zm0,2.21v1.45h2.46c.06-.48.08-.78.11-1.45Zm3.62,0c0,.67-.05,1-.11,1.45h2.9V308.7Zm.07-2.21c0,.53,0,.66,0,1.28h2.75v-1.28Z"/><path class="cls-6" d="M663.9,306.27a13.5,13.5,0,0,1-1.62,1.15,5.05,5.05,0,0,0-.69-.91l.4-.23c-.28,0-.48,0-.75,0h-.49a8.79,8.79,0,0,0,1.71,2.91,3.66,3.66,0,0,0-.6.95,12.88,12.88,0,0,1-1.25-2.46c0,.54.08,1.54.08,2.29v4.37a13,13,0,0,0,.09,1.77h-1.25a13.3,13.3,0,0,0,.09-1.77v-3.92c0-.64,0-1.36.08-2.25l-.18.62a13.44,13.44,0,0,1-1.5,3.67,3.59,3.59,0,0,0-.68-1.06,14.12,14.12,0,0,0,2.13-5.12h-.75a6.69,6.69,0,0,0-1,.06v-1.15a6.69,6.69,0,0,0,1,.06h.89v-1.35a9,9,0,0,0-.08-1.55h1.23a10,10,0,0,0-.07,1.53v1.37h.54a5.58,5.58,0,0,0,.91-.06v1a9.66,9.66,0,0,0,3.54-3.67h1.22a7.55,7.55,0,0,0,1.71,2,10.34,10.34,0,0,0,2.94,1.85,4.06,4.06,0,0,0-.63,1.05,15.22,15.22,0,0,1-1.89-1.19v.86c-.39,0-.72-.05-1.31-.05h-.85v.66a5.34,5.34,0,0,1,0,.54h2.09c.61,0,1,0,1.35,0,0,.4,0,.73,0,1.09v1.58a6.94,6.94,0,0,0,0,1.12,14,14,0,0,0-1.46-.06h-1.72a6.66,6.66,0,0,0,4.29,3,4.44,4.44,0,0,0-.63,1.11,7.7,7.7,0,0,1-4.44-3.65c-.63,1.73-1.83,2.76-4.22,3.65a3.05,3.05,0,0,0-.69-1,6.85,6.85,0,0,0,2.51-1.09,3.89,3.89,0,0,0,1.47-2H664a13.18,13.18,0,0,0-1.36.06,9,9,0,0,0,0-.93v-1.87a9.21,9.21,0,0,0,0-1,10.58,10.58,0,0,0,1.3,0h1.94V307h-.65c-.61,0-.85,0-1.3.05Zm-.21,2.88V311h1.95a16.39,16.39,0,0,0,.18-1.81Zm4-3.12a10.41,10.41,0,0,0,1,0,10.61,10.61,0,0,1-2.44-2.55,10.8,10.8,0,0,1-2.15,2.55c.33,0,.57,0,1,0Zm-.88,3.12a12.83,12.83,0,0,1-.17,1.81h2.54v-1.81Z"/><path class="cls-6" d="M680.25,303.57a5.94,5.94,0,0,0-.09-1.19h1.26a4.91,4.91,0,0,0-.09,1.17v.32h4.47a11.07,11.07,0,0,0,1.57-.09V305a12,12,0,0,0-1.57-.09h-3.51a11.36,11.36,0,0,0,5.64,3.08,5.11,5.11,0,0,0-.68,1.12,15.13,15.13,0,0,1-2.19-.93c0,.32,0,.93,0,1.5v4.82h1a9.43,9.43,0,0,0,1.58-.09v1.2a12.24,12.24,0,0,0-1.65-.09H675.87a12.67,12.67,0,0,0-1.67.09v-1.2a11.11,11.11,0,0,0,1.61.09h.93v-5c0-.6,0-1,0-1.39a14.19,14.19,0,0,1-2.07,1,3.7,3.7,0,0,0-.67-1,12.75,12.75,0,0,0,5.29-3.18H676a11.72,11.72,0,0,0-1.56.09v-1.18a11.07,11.07,0,0,0,1.62.09h4.19Zm0,2.44c0-.25,0-.6,0-.9a11.92,11.92,0,0,1-3.41,2.88c.36,0,.92,0,1.43,0h5.11c.54,0,.75,0,1.38,0a10.62,10.62,0,0,1-3.51-2.88c0,.09,0,.39.05.9v.63a4.53,4.53,0,0,0,.07,1h-1.23a5.1,5.1,0,0,0,.08-1Zm-2.4,4.16h6.06V309h-6.06Zm0,2.11h6.06v-1.17h-6.06Zm0,2.18h6.06v-1.23h-6.06Z"/><path class="cls-6" d="M607.75,329.85a6.68,6.68,0,0,0-.52,1.23,18,18,0,0,1-4.1,6.47,18.47,18.47,0,0,1-4.93,3.39,4.2,4.2,0,0,0-.92-1.28,14.18,14.18,0,0,0,7.43-6.48,13.82,13.82,0,0,0,1.56-3.82Z"/><path class="cls-6" d="M613.63,339.77v1.05h-1.38a11.25,11.25,0,0,0,.06-1.47v-7.82a9.54,9.54,0,0,0-.06-1.35c.47,0,.81.05,1.5.05h7.58a13.72,13.72,0,0,0,1.48-.06,11.54,11.54,0,0,0-.06,1.36v7.8a13.43,13.43,0,0,0,.06,1.49h-1.38v-1.05Zm7.8-8.36h-7.8v7.17h7.8Z"/><path class="cls-6" d="M636.45,331.23a3.44,3.44,0,0,0,1.32-.1l.69.67c-.14.26-.14.26-.35,1.62-.64,4-3,6.56-7.23,8a3.56,3.56,0,0,0-.82-1.25,9.58,9.58,0,0,0,3.28-1.39c2.12-1.41,3.21-3.39,3.51-6.38h-8v2c0,.51,0,1,.05,1.27h-1.46a9.6,9.6,0,0,0,.06-1.3v-1.92c0-.53,0-.9,0-1.28a11.48,11.48,0,0,0,1.44.06h3.12v-1.29a6,6,0,0,0-.08-1.15h1.52a5.9,5.9,0,0,0-.09,1.14v1.3Z"/><path class="cls-6" d="M651.81,332.28a3.43,3.43,0,0,0-.48.48,24,24,0,0,1-2.87,2.51v5a8.7,8.7,0,0,0,.08,1.44h-1.4a8.41,8.41,0,0,0,.08-1.43V336a18.59,18.59,0,0,1-4.5,2,4,4,0,0,0-.65-1.09,15.05,15.05,0,0,0,3.53-1.34,17.28,17.28,0,0,0,4.26-3.09,4.56,4.56,0,0,0,.85-1Z"/><path class="cls-6" d="M659.05,329.46a7.85,7.85,0,0,0-.09,1.32c-.12,4.16-.24,5.25-.79,6.77a9.41,9.41,0,0,1-2.58,3.78,3.71,3.71,0,0,0-1.08-1,7.19,7.19,0,0,0,2.47-3.43,20,20,0,0,0,.66-6.32,8.38,8.38,0,0,0,0-1.18Zm3.81-.18a8.87,8.87,0,0,0-.1,1.56l-.08,8.72a6.59,6.59,0,0,0,2.64-1.74,7.3,7.3,0,0,0,1.7-2.93,5.11,5.11,0,0,0,1,1,8.68,8.68,0,0,1-3.09,3.93,11,11,0,0,1-2.12,1.08l-.48.18-.36.16-.7-.78a3.51,3.51,0,0,0,.1-1.18l.09-8.49v-.33a6.44,6.44,0,0,0-.07-1.23Z"/><path class="cls-6" d="M681.25,341.18a29.93,29.93,0,0,0-4.72-4.58,16.24,16.24,0,0,1-2.85,2.64,19.82,19.82,0,0,1-2.93,1.79,3.84,3.84,0,0,0-.87-1.19,14.58,14.58,0,0,0,5-3.36,15.64,15.64,0,0,0,3.33-4.92.67.67,0,0,1,.09-.19c0-.05,0-.06,0-.12l-5.1.09a11.05,11.05,0,0,0-1.72.12l0-1.43a7.4,7.4,0,0,0,1.43.09h.33l5.19-.06a2.82,2.82,0,0,0,1.06-.13l.74.75a2.43,2.43,0,0,0-.44.75,19.52,19.52,0,0,1-2.41,4.17,37.83,37.83,0,0,1,5,4.41Z"/><path class="cls-6" d="M691.5,332.27a13.5,13.5,0,0,1-1.62,1.15,5.05,5.05,0,0,0-.69-.91l.4-.23c-.28,0-.48,0-.75,0h-.49a8.79,8.79,0,0,0,1.71,2.91,3.66,3.66,0,0,0-.6.95,12.88,12.88,0,0,1-1.25-2.46c0,.54.08,1.54.08,2.29v4.37a13,13,0,0,0,.09,1.77h-1.25a13.3,13.3,0,0,0,.09-1.77v-3.92c0-.64,0-1.36.08-2.25l-.18.62a13.44,13.44,0,0,1-1.5,3.67,3.59,3.59,0,0,0-.68-1.06,14.12,14.12,0,0,0,2.13-5.12h-.75a6.69,6.69,0,0,0-1,.06v-1.15a6.69,6.69,0,0,0,1,.06h.89v-1.35a9,9,0,0,0-.08-1.55h1.23a10,10,0,0,0-.07,1.53v1.37h.54a5.58,5.58,0,0,0,.91-.06v1a9.66,9.66,0,0,0,3.54-3.67h1.22a7.55,7.55,0,0,0,1.71,2,10.34,10.34,0,0,0,2.94,1.85,4.06,4.06,0,0,0-.63,1.05,15.22,15.22,0,0,1-1.89-1.19v.86c-.39,0-.72-.05-1.31-.05h-.85v.66a5.34,5.34,0,0,1,0,.54h2.09c.61,0,1,0,1.35,0,0,.4,0,.73,0,1.09v1.58a6.94,6.94,0,0,0,0,1.12,14,14,0,0,0-1.46-.06h-1.72a6.66,6.66,0,0,0,4.29,3,4.44,4.44,0,0,0-.63,1.11,7.7,7.7,0,0,1-4.44-3.65c-.63,1.73-1.83,2.76-4.22,3.65a3.05,3.05,0,0,0-.69-1,6.85,6.85,0,0,0,2.51-1.09,3.89,3.89,0,0,0,1.47-2h-1.43a13.18,13.18,0,0,0-1.36.06,9,9,0,0,0,0-.93v-1.87a9.21,9.21,0,0,0,0-1,10.58,10.58,0,0,0,1.3,0h1.94V333h-.65c-.61,0-.85,0-1.3.05Zm-.21,2.88V337h2a16.39,16.39,0,0,0,.18-1.81Zm4-3.12a10.41,10.41,0,0,0,1,0,10.61,10.61,0,0,1-2.44-2.55,10.8,10.8,0,0,1-2.15,2.55c.33,0,.57,0,1,0Zm-.88,3.12a12.83,12.83,0,0,1-.17,1.81h2.54v-1.81Z"/><path class="cls-6" d="M707.85,329.57a5.94,5.94,0,0,0-.09-1.19H709a4.91,4.91,0,0,0-.09,1.17v.32h4.47a11.07,11.07,0,0,0,1.57-.09V331a12,12,0,0,0-1.57-.09h-3.51a11.36,11.36,0,0,0,5.64,3.08,5.11,5.11,0,0,0-.68,1.12,15.13,15.13,0,0,1-2.19-.93c0,.32,0,.93,0,1.5v4.82h1a9.43,9.43,0,0,0,1.58-.09v1.2a12.24,12.24,0,0,0-1.65-.09H703.47a12.67,12.67,0,0,0-1.67.09v-1.2a11.11,11.11,0,0,0,1.61.09h.93v-5c0-.6,0-1-.05-1.39a14.19,14.19,0,0,1-2.07,1,3.7,3.7,0,0,0-.67-1,12.75,12.75,0,0,0,5.29-3.18H703.6A11.72,11.72,0,0,0,702,331v-1.18a11.07,11.07,0,0,0,1.62.09h4.19Zm0,2.44c0-.25,0-.6,0-.9a11.92,11.92,0,0,1-3.41,2.88c.36,0,.92,0,1.43,0H711c.54,0,.75,0,1.38,0a10.62,10.62,0,0,1-3.51-2.88c0,.09,0,.39,0,.9v.63a4.53,4.53,0,0,0,.07,1h-1.23a5.1,5.1,0,0,0,.08-1Zm-2.4,4.16h6.06V335h-6.06Zm0,2.11h6.06v-1.17h-6.06Zm0,2.18h6.06v-1.23h-6.06Z"/><path class="cls-6" d="M632.59,366.89a10.22,10.22,0,0,0-.45-1.54l-.73-1.86h-5.12l-.72,1.86a7.55,7.55,0,0,0-.46,1.54h-1.82a12.72,12.72,0,0,0,.8-1.74l3.34-8.4a7.72,7.72,0,0,0,.48-1.42h1.83a11.17,11.17,0,0,0,.51,1.42l3.36,8.4a13.73,13.73,0,0,0,.8,1.74Zm-3.43-9.43-.32-.93-.16.49c-.08.21-.12.36-.15.44l-1.82,4.8H631Z"/><path class="cls-6" d="M640.26,365.12a10.11,10.11,0,0,0,.12,1.77h-1.65a11.48,11.48,0,0,0,.12-1.77v-8.53H636.6a12.65,12.65,0,0,0-1.82.1v-1.47a11.46,11.46,0,0,0,1.8.11h5.87a10.92,10.92,0,0,0,1.9-.11v1.47a13,13,0,0,0-1.9-.1h-2.19Z"/><path class="cls-6" d="M647.17,366.89a10,10,0,0,0,.12-1.75v-8.09a11.61,11.61,0,0,0-.12-1.77c.54,0,1,.05,1.71.05H652c2.42,0,3.75,1.21,3.75,3.37s-1.39,3.59-3.82,3.59h-3.21v2.83a10,10,0,0,0,.12,1.77Zm4.73-5.83a2.12,2.12,0,0,0,2.37-2.3c0-1.44-.81-2.2-2.37-2.2h-3.21v4.5Z"/><path class="cls-6" d="M664.69,358.27a12.74,12.74,0,0,1-1.62,1.15,4.63,4.63,0,0,0-.69-.91l.41-.23c-.29,0-.48,0-.75,0h-.5a8.79,8.79,0,0,0,1.71,2.91,3.94,3.94,0,0,0-.6.95,12.31,12.31,0,0,1-1.24-2.46c0,.54.07,1.54.07,2.29v4.37a13,13,0,0,0,.09,1.77h-1.24a13.3,13.3,0,0,0,.09-1.77v-3.92c0-.64,0-1.36.07-2.25-.07.27-.13.48-.18.62a12.84,12.84,0,0,1-1.5,3.67,3.4,3.4,0,0,0-.67-1.06,14.29,14.29,0,0,0,2.13-5.12h-.75a6.6,6.6,0,0,0-1,.06v-1.15a6.6,6.6,0,0,0,1,.06h.88v-1.35a9.33,9.33,0,0,0-.07-1.55h1.23a9.73,9.73,0,0,0-.08,1.53v1.37H662a5.8,5.8,0,0,0,.92-.06v1a9.73,9.73,0,0,0,3.54-3.67h1.21a7.75,7.75,0,0,0,1.71,2,10.49,10.49,0,0,0,2.94,1.85,4.06,4.06,0,0,0-.63,1.05,16,16,0,0,1-1.89-1.19v.86c-.39,0-.72-.05-1.3-.05h-.86v.66c0,.23,0,.26,0,.54h2.08c.62,0,1,0,1.35,0,0,.4,0,.73,0,1.09v1.58a8.66,8.66,0,0,0,0,1.12,13.61,13.61,0,0,0-1.45-.06H667.9a6.69,6.69,0,0,0,4.29,3,4.77,4.77,0,0,0-.63,1.11,7.77,7.77,0,0,1-4.44-3.65c-.63,1.73-1.83,2.76-4.21,3.65a3.05,3.05,0,0,0-.69-1,6.79,6.79,0,0,0,2.5-1.09,3.78,3.78,0,0,0,1.47-2h-1.42a13.39,13.39,0,0,0-1.37.06,8.85,8.85,0,0,0,.05-.93v-1.87a8.89,8.89,0,0,0-.05-1,10.77,10.77,0,0,0,1.31,0h1.93V359H666c-.62,0-.86,0-1.31.05Zm-.21,2.88V363h1.95a14.27,14.27,0,0,0,.18-1.81Zm4-3.12c.48,0,.73,0,1.05,0a10.46,10.46,0,0,1-2.45-2.55A10.54,10.54,0,0,1,665,358c.33,0,.57,0,1,0Zm-.89,3.12a13,13,0,0,1-.16,1.81H670v-1.81Z"/><path class="cls-6" d="M681,355.57a5.28,5.28,0,0,0-.09-1.19h1.26a5.5,5.5,0,0,0-.09,1.17v.32h4.47a11.22,11.22,0,0,0,1.58-.09V357a12.15,12.15,0,0,0-1.58-.09h-3.51a11.41,11.41,0,0,0,5.64,3.08,4.74,4.74,0,0,0-.67,1.12,14.66,14.66,0,0,1-2.19-.93c0,.32-.05.93-.05,1.5v4.82h1a9.3,9.3,0,0,0,1.57-.09v1.2a12.14,12.14,0,0,0-1.65-.09H676.66a12.51,12.51,0,0,0-1.66.09v-1.2a11,11,0,0,0,1.6.09h.93v-5c0-.6,0-1,0-1.39a14.69,14.69,0,0,1-2.07,1,3.74,3.74,0,0,0-.68-1,12.72,12.72,0,0,0,5.3-3.18H676.8a11.62,11.62,0,0,0-1.56.09v-1.18a10.89,10.89,0,0,0,1.62.09H681Zm0,2.44c0-.25,0-.6,0-.9a11.74,11.74,0,0,1-3.4,2.88c.36,0,.91,0,1.42,0h5.12c.54,0,.75,0,1.38,0a10.52,10.52,0,0,1-3.51-2.88c0,.09,0,.39,0,.9v.63a4.47,4.47,0,0,0,.08,1H681a6.25,6.25,0,0,0,.07-1Zm-2.4,4.16h6.06V361h-6.06Zm0,2.11h6.06v-1.17h-6.06Zm0,2.18h6.06v-1.23h-6.06Z"/><path class="cls-6" d="M611.46,384.4a9,9,0,0,0-1.2.08v-1.19a7.42,7.42,0,0,0,1.2.09h.77v-1.33a9.67,9.67,0,0,0-.1-1.52h1.32a9.15,9.15,0,0,0-.1,1.5v1.35h.24a6.53,6.53,0,0,0,1-.06v1.14a8.57,8.57,0,0,0-1-.06h-.21v2.93c.44-.17.66-.27,1.31-.56v1.07l-1.31.57v4.29c0,.9-.4,1.18-1.66,1.18a10,10,0,0,1-1.19-.07,3.74,3.74,0,0,0-.25-1.11,8.54,8.54,0,0,0,1.39.13c.47,0,.59-.07.59-.42v-3.58l-.77.27a5.12,5.12,0,0,0-.52.18l-.28.09-.3.13-.23-1.2a9.69,9.69,0,0,0,2.1-.57V384.4Zm4.7,3a8.72,8.72,0,0,0-1.07.06v-1.12a6.35,6.35,0,0,0,1.17.07h2a6.77,6.77,0,0,0,1.09-.06v1.1a7.69,7.69,0,0,0-1-.05h-.71V391c.76-.21,1-.29,2-.6v1a41.14,41.14,0,0,1-4.53,1.26c-.33.08-.49.11-.7.18l-.24-1.21a13.49,13.49,0,0,0,2.34-.38v-3.9Zm.39-3.1c-.6,0-1.08,0-1.53.07v-1.2a14.31,14.31,0,0,0,1.53.08h3c0-.33,0-.33,0-1.61a6.32,6.32,0,0,0-.08-1.05h1.29a7.73,7.73,0,0,0-.07,1.56c0,.54,0,.56,0,1.1h1.49a8.64,8.64,0,0,0,1.41-.09v1.23a11.78,11.78,0,0,0-1.53-.09h-1.35a23.69,23.69,0,0,0,.82,5.94,7.17,7.17,0,0,0,.9,2c.09.1.15.16.18.16a6.18,6.18,0,0,0,.24-2.25,3.1,3.1,0,0,0,1,.63,8.8,8.8,0,0,1-.3,2.15c-.2.63-.45.91-.84.91-.71,0-1.44-.91-2-2.59a22.94,22.94,0,0,1-1.08-6.93Zm5.44-3.63a10.49,10.49,0,0,1,1.28,1.83l-.84.58a8.6,8.6,0,0,0-1.25-1.89Z"/><path class="cls-6" d="M627.47,383c.38,0,.66,0,1.22,0a28.55,28.55,0,0,0,3.42-.19c-.32-.8-.74-1.76-.86-2l1.33-.21a11.83,11.83,0,0,0,.74,2,19.51,19.51,0,0,0,4-1l.11,1.17c-1.15.3-3,.69-3.74.81a17.07,17.07,0,0,0,.78,1.55,16.53,16.53,0,0,0,3.45-.92l.14,1.22c-.33.06-.33.06-2,.46-.23.06-.49.11-1.14.24a16.24,16.24,0,0,0,2.13,2.91l-1,.72a7.27,7.27,0,0,0-3.58-.67c-2.11,0-3.43.61-3.43,1.59s1.09,1.44,3.07,1.44a10.59,10.59,0,0,0,4.5-1l.24,1.35-.93.25a13.65,13.65,0,0,1-3.84.54,6.09,6.09,0,0,1-3.25-.66,2.2,2.2,0,0,1-1.14-1.92,2.26,2.26,0,0,1,1.23-1.93,6.62,6.62,0,0,1,3.42-.72,9.26,9.26,0,0,1,2.89.4,13.09,13.09,0,0,1-1.47-2.13,35,35,0,0,1-5.26.44,5.93,5.93,0,0,0-1.1.06l0-1.22a8.3,8.3,0,0,0,1.29.06,32.15,32.15,0,0,0,4.59-.34c-.33-.62-.33-.62-.76-1.56a35.54,35.54,0,0,1-4,.25,7,7,0,0,0-1,0Z"/><path class="cls-6" d="M642.77,382a6.69,6.69,0,0,0-1.15.07v-1.17a8.77,8.77,0,0,0,1.21.08h4.67a9.83,9.83,0,0,0,1.2-.06v1c.28,0,.55,0,.91,0h4.08a9.14,9.14,0,0,0,1.15-.06c0,.15-.07.41-.13.87a17.91,17.91,0,0,1-2.31,6.93,9.06,9.06,0,0,0,3.15,2.87,5.36,5.36,0,0,0-.67,1.21,11.53,11.53,0,0,1-3.16-3,12,12,0,0,1-3.22,3.06,3.94,3.94,0,0,0-.69-1.13,10,10,0,0,0,3.27-3,14.68,14.68,0,0,1-1.32-3.19,18.92,18.92,0,0,1-.64-3.5,5.83,5.83,0,0,0-.82.08V382h-.66V392.5a9.24,9.24,0,0,0,.1,1.58h-1.28a12.71,12.71,0,0,0,.09-1.58v-1.66c-.92.28-2.37.66-3.31.85a14.5,14.5,0,0,0-1.45.35l-.33-1.25a7.79,7.79,0,0,0,1.31-.16Zm1.11,2.05h2.67V382h-2.67Zm0,3h2.67v-2h-2.67Zm0,3.42a26.72,26.72,0,0,0,2.67-.63V388h-2.67ZM650.2,383a17.43,17.43,0,0,0,.59,3.2,13.09,13.09,0,0,0,1,2.43,15.18,15.18,0,0,0,1.77-5.63Z"/><path class="cls-6" d="M660.58,386c0-.11,0-.11.1-.41a6.42,6.42,0,0,1,.9-2.1,3.59,3.59,0,0,1,3-1.81A2.91,2.91,0,0,1,667,383a7.09,7.09,0,0,1-2.64,9.72,12,12,0,0,1-2.74.87,3.92,3.92,0,0,0-.68-1.23,8,8,0,0,0,3.12-.91c1.76-1,2.56-2.51,2.56-4.88s-.8-3.67-2.21-3.67c-1.07,0-2,.84-2.85,2.5a7.31,7.31,0,0,0-.83,3.35v.36l-1.29,0a1.31,1.31,0,0,0,0-.17s0-.13,0-.28,0-1.76,0-1.94a36.41,36.41,0,0,1,.5-5.55,2.8,2.8,0,0,0,0-.48l1.38.11a16.63,16.63,0,0,0-.6,3.36c-.14.94-.17,1.27-.21,1.8Z"/><path class="cls-6" d="M678.37,384.27a14.35,14.35,0,0,1-1.62,1.15,5.05,5.05,0,0,0-.69-.91l.4-.23c-.28,0-.48,0-.75,0h-.49a8.79,8.79,0,0,0,1.71,2.91,3.66,3.66,0,0,0-.6.95,12.88,12.88,0,0,1-1.25-2.46c0,.54.08,1.54.08,2.29v4.37a13,13,0,0,0,.09,1.77H674a13.3,13.3,0,0,0,.09-1.77v-3.92c0-.64,0-1.36.08-2.25l-.18.62a13.44,13.44,0,0,1-1.5,3.67,3.59,3.59,0,0,0-.68-1.06,14.12,14.12,0,0,0,2.13-5.12h-.75a6.69,6.69,0,0,0-1,.06v-1.15a6.69,6.69,0,0,0,1,.06h.89v-1.35a9,9,0,0,0-.08-1.55h1.23a10,10,0,0,0-.07,1.53v1.37h.54a5.58,5.58,0,0,0,.91-.06v1a9.73,9.73,0,0,0,3.54-3.67h1.22a7.37,7.37,0,0,0,1.71,2,10.43,10.43,0,0,0,2.93,1.85,4.36,4.36,0,0,0-.63,1.05,15.85,15.85,0,0,1-1.88-1.19v.86c-.39,0-.72-.05-1.31-.05h-.86v.66c0,.23,0,.26,0,.54h2.09c.61,0,1,0,1.34,0,0,.4,0,.73,0,1.09v1.58a8.66,8.66,0,0,0,0,1.12,13.61,13.61,0,0,0-1.45-.06h-1.72a6.66,6.66,0,0,0,4.29,3,4.15,4.15,0,0,0-.63,1.11,7.76,7.76,0,0,1-4.45-3.65c-.62,1.73-1.83,2.76-4.21,3.65a3.05,3.05,0,0,0-.69-1,6.85,6.85,0,0,0,2.51-1.09,3.89,3.89,0,0,0,1.47-2h-1.43a13.18,13.18,0,0,0-1.36.06,9,9,0,0,0,0-.93v-1.87a9.21,9.21,0,0,0,0-1,10.58,10.58,0,0,0,1.3,0h1.94V385h-.65c-.61,0-.85,0-1.3.05Zm-.21,2.88V389h2a16.39,16.39,0,0,0,.18-1.81Zm4-3.12c.48,0,.73,0,1,0a10.84,10.84,0,0,1-2.45-2.55,10.54,10.54,0,0,1-2.14,2.55c.33,0,.57,0,1,0Zm-.88,3.12a12.83,12.83,0,0,1-.17,1.81h2.53v-1.81Z"/><path class="cls-6" d="M694.71,381.57a6,6,0,0,0-.08-1.19h1.26a4.85,4.85,0,0,0-.1,1.17v.32h4.47a11.12,11.12,0,0,0,1.58-.09V383a12,12,0,0,0-1.58-.09h-3.51a11.45,11.45,0,0,0,5.64,3.08,4.74,4.74,0,0,0-.67,1.12,15.13,15.13,0,0,1-2.19-.93c0,.32,0,.93,0,1.5v4.82h1a9.5,9.5,0,0,0,1.58-.09v1.2a12.24,12.24,0,0,0-1.65-.09H690.34a12.67,12.67,0,0,0-1.67.09v-1.2a11.11,11.11,0,0,0,1.61.09h.93v-5c0-.6,0-1-.05-1.39a14.19,14.19,0,0,1-2.07,1,3.7,3.7,0,0,0-.67-1,12.75,12.75,0,0,0,5.29-3.18h-3.24a11.72,11.72,0,0,0-1.56.09v-1.18a11.07,11.07,0,0,0,1.62.09h4.18Zm0,2.44c0-.25,0-.6,0-.9a11.92,11.92,0,0,1-3.41,2.88c.36,0,.92,0,1.43,0h5.11c.54,0,.75,0,1.38,0a10.62,10.62,0,0,1-3.51-2.88,8.3,8.3,0,0,1,0,.9v.63a4.47,4.47,0,0,0,.08,1h-1.23a5.21,5.21,0,0,0,.07-1Zm-2.39,4.16h6.06V387h-6.06Zm0,2.11h6.06v-1.17h-6.06Zm0,2.18h6.06v-1.23h-6.06Z"/><path class="cls-6" d="M791.86,303.3a9.09,9.09,0,0,0-.08,1.54l-.06,8.75A11,11,0,0,0,796,312a8.92,8.92,0,0,0,3.28-3.55,4.29,4.29,0,0,0,1,1.12c-2,3.09-4.35,4.53-8.41,5.33a3.69,3.69,0,0,0-.89.22l-.7-.87a3.82,3.82,0,0,0,.12-1.12l0-8.3a8.66,8.66,0,0,0-.06-1.57Z"/><path class="cls-6" d="M807.14,308.32a4.33,4.33,0,0,0-.13.42,14.45,14.45,0,0,1-2.67,5.72,4,4,0,0,0-1.22-.74A9.88,9.88,0,0,0,805.3,310a8.14,8.14,0,0,0,.51-2Zm1.94-3.78A8.28,8.28,0,0,0,809,303h1.47a10.07,10.07,0,0,0-.08,1.57v.93H814a12.23,12.23,0,0,0,1.84-.1v1.35a15.05,15.05,0,0,0-1.81-.08h-3.65V314a11.39,11.39,0,0,0,.08,1.69H809a10.09,10.09,0,0,0,.09-1.69v-7.34h-3.56a14.66,14.66,0,0,0-1.8.08V305.4a12.38,12.38,0,0,0,1.82.1h3.54Zm4.47,3.44a11.22,11.22,0,0,0,.55,1.69,12.94,12.94,0,0,0,2.27,4,4.86,4.86,0,0,0-1.17.8,17.81,17.81,0,0,1-2.3-4.46l-.31-.93q0-.11-.12-.36a2.39,2.39,0,0,0-.17-.43Zm3-4.5a1.57,1.57,0,1,1-1.56-1.56A1.57,1.57,0,0,1,816.56,303.48Zm-2.47,0a.9.9,0,0,0,.91.9.9.9,0,1,0-.91-.9Z"/><path class="cls-6" d="M819.71,308.41a16.42,16.42,0,0,0,2.07.09h8.43a11.82,11.82,0,0,0,2-.09v1.49a17.33,17.33,0,0,0-2-.08h-8.4a16.18,16.18,0,0,0-2.09.08Z"/><path class="cls-6" d="M837.71,315.42a10.12,10.12,0,0,0,.09-1.74v-9.14a8,8,0,0,0-.09-1.65h1.52a11.9,11.9,0,0,0-.08,1.7v2.67a39.41,39.41,0,0,1,6.71,3.16l-.75,1.31a32,32,0,0,0-5.53-2.94,3.29,3.29,0,0,1-.49-.26,8.2,8.2,0,0,1,.06,1.23v3.92a13.31,13.31,0,0,0,.08,1.74Z"/><path class="cls-6" d="M857.71,310h-2.63a9.28,9.28,0,0,0-1.2.06v-.76c-.69.34-.81.39-1.42.66v4.8c0,.91-.36,1.18-1.58,1.18-.27,0-.7,0-1.2-.06a3.75,3.75,0,0,0-.24-1.12,8.92,8.92,0,0,0,1.37.12c.42,0,.54-.09.54-.44v-4c-1.29.5-1.29.5-1.74.71l-.27-1.2a8.32,8.32,0,0,0,2-.63v-3h-.8a7.27,7.27,0,0,0-1.11.07v-1.18a7.08,7.08,0,0,0,1.13.09h.78V304a8.72,8.72,0,0,0-.09-1.52h1.29a7.6,7.6,0,0,0-.09,1.5v1.34h.61a6.64,6.64,0,0,0,1-.06v1.12a9,9,0,0,0-1,0h-.63v2.56c.69-.3.9-.39,1.53-.7V309a9.94,9.94,0,0,0,1.18.06h6.24a8.12,8.12,0,0,0,1.34-.09v1.14a8.76,8.76,0,0,0-1.34-.08H858.8v1.59h2a7.41,7.41,0,0,0,1.32-.07v1.09a7.82,7.82,0,0,0-1.32-.07h-2v2a11.57,11.57,0,0,0,1.85.12c.78,0,1.54,0,2.41-.11a3.7,3.7,0,0,0-.31,1.16h-1.43c-3.43,0-4.72-.45-6.07-2.12a9.67,9.67,0,0,1-1.7,2.49,3.11,3.11,0,0,0-.9-.73,7.29,7.29,0,0,0,1.94-2.85,6.28,6.28,0,0,0,.46-1.85l1.14.27c-.1.3-.1.3-.18.56-.15.52-.24.81-.34,1.09a4,4,0,0,0,2,1.68Zm-1.65-2c-.56,0-.95,0-1.32,0,0-.43,0-.43,0-1.45v-2.25c0-.54,0-1,0-1.38a13.69,13.69,0,0,0,1.41.06h4.2a13.24,13.24,0,0,0,1.42-.06,9.7,9.7,0,0,0-.06,1.23v2.46a12.43,12.43,0,0,0,.06,1.39c-.4,0-.85,0-1.45,0Zm-.21-3h4.78V304h-4.78Zm0,2h4.78V306h-4.78Z"/><path class="cls-6" d="M871.61,303.85a6.73,6.73,0,0,0-.1-1.39h1.41a6.48,6.48,0,0,0-.11,1.39v3.66h3.74v-2.74a9.53,9.53,0,0,0-.06-1.11h1.32a7.71,7.71,0,0,0-.08,1.18v3c0,.33,0,.57,0,.81l-1,0h-4V314h4.25v-2.76a7.72,7.72,0,0,0-.08-1.28h1.34a8.61,8.61,0,0,0-.08,1.37v3.34a7.7,7.7,0,0,0,.09,1.32h-1.27v-.85h-9.51v.85h-1.28a8.2,8.2,0,0,0,.09-1.32v-3.27a8.87,8.87,0,0,0-.07-1.36h1.33a7.57,7.57,0,0,0-.07,1.29V314h4.06v-5.33h-3.7c-.33,0-.6,0-1,0,0-.31,0-.55,0-.81v-3a11.76,11.76,0,0,0-.07-1.21h1.32a7.3,7.3,0,0,0-.06,1.14v2.71h3.46Z"/><path class="cls-7" d="M123.18,95A78.47,78.47,0,1,1,44.71,173.5,78.47,78.47,0,0,1,123.18,95Zm0,2.58a4.48,4.48,0,1,0,4.47,4.47,4.48,4.48,0,0,0-4.47-4.47Zm0,11.17A64.72,64.72,0,1,0,187.9,173.5a64.71,64.71,0,0,0-64.72-64.72Z"/><path class="cls-8" d="M300.82,95a78.47,78.47,0,1,1-78.47,78.47A78.47,78.47,0,0,1,300.82,95Zm0,2.58a4.48,4.48,0,1,0,4.48,4.47,4.47,4.47,0,0,0-4.48-4.47Zm0,11.17a64.72,64.72,0,1,0,64.72,64.72,64.72,64.72,0,0,0-64.72-64.72Z"/><path class="cls-9" d="M478.47,95A78.47,78.47,0,1,1,400,173.5,78.47,78.47,0,0,1,478.47,95Zm0,2.58a4.48,4.48,0,1,0,4.47,4.47,4.48,4.48,0,0,0-4.47-4.47Zm0,11.17a64.72,64.72,0,1,0,64.72,64.72,64.71,64.71,0,0,0-64.72-64.72Z"/><path class="cls-10" d="M656.11,95a78.47,78.47,0,1,1-78.47,78.47A78.47,78.47,0,0,1,656.11,95Zm0,2.58a4.48,4.48,0,1,0,4.48,4.47,4.47,4.47,0,0,0-4.48-4.47Zm0,11.17a64.72,64.72,0,1,0,64.72,64.72,64.72,64.72,0,0,0-64.72-64.72Z"/><path class="cls-11" d="M833.76,95a78.47,78.47,0,1,1-78.47,78.47A78.47,78.47,0,0,1,833.76,95Zm0,2.58a4.48,4.48,0,1,0,4.47,4.47,4.47,4.47,0,0,0-4.47-4.47Zm0,11.17a64.72,64.72,0,1,0,64.71,64.72,64.71,64.71,0,0,0-64.71-64.72Z"/><path class="cls-12" d="M87.79,28.51a1.72,1.72,0,1,1,0-3.43h3.44a1.72,1.72,0,0,1,0,3.43Zm-68.74,0a1.72,1.72,0,1,1,0-3.43h3.43a1.72,1.72,0,1,1,0,3.43Zm13.75,0a1.72,1.72,0,1,1,0-3.43h3.43a1.72,1.72,0,1,1,0,3.43Zm13.74,0a1.72,1.72,0,0,1,0-3.43H50a1.72,1.72,0,1,1,0,3.43Zm13.75,0a1.72,1.72,0,1,1,0-3.43h3.44a1.72,1.72,0,1,1,0,3.43Zm13.75,0a1.72,1.72,0,1,1,0-3.43h3.44a1.72,1.72,0,1,1,0,3.43Z"/><path class="cls-12" d="M121.46,57.05a1.72,1.72,0,0,1,3.44,0v3.44a1.72,1.72,0,1,1-3.44,0V57.05Zm0,27.5a1.72,1.72,0,1,1,3.44,0V88a1.72,1.72,0,1,1-3.44,0V84.55Zm0-13.75a1.72,1.72,0,1,1,3.44,0v3.44a1.72,1.72,0,1,1-3.44,0V70.8Z"/><polygon class="cls-13" points="0 34.92 8.14 26.78 0 18.64 0 34.92 0 34.92"/><path class="cls-12" d="M264.75,28.51a1.72,1.72,0,1,1,0-3.43h3.43a1.72,1.72,0,1,1,0,3.43Zm-109.91,0a1.72,1.72,0,1,1,0-3.43h3.44a1.72,1.72,0,1,1,0,3.43Zm13.75,0a1.72,1.72,0,1,1,0-3.43H172a1.72,1.72,0,1,1,0,3.43Zm13.75,0a1.72,1.72,0,1,1,0-3.43h3.44a1.72,1.72,0,0,1,0,3.43Zm13.66,0a1.72,1.72,0,0,1,0-3.43h3.44a1.72,1.72,0,1,1,0,3.43Zm13.75,0a1.72,1.72,0,1,1,0-3.43h3.44a1.72,1.72,0,1,1,0,3.43Zm13.75,0a1.72,1.72,0,1,1,0-3.43h3.44a1.72,1.72,0,1,1,0,3.43Zm13.75,0a1.72,1.72,0,1,1,0-3.43h3.44a1.72,1.72,0,1,1,0,3.43Zm13.75,0a1.72,1.72,0,1,1,0-3.43h3.43a1.72,1.72,0,1,1,0,3.43Z"/><path class="cls-12" d="M299.1,57.05a1.72,1.72,0,0,1,3.44,0v3.44a1.72,1.72,0,0,1-3.44,0V57.05Zm0,27.5a1.72,1.72,0,0,1,3.44,0V88a1.72,1.72,0,0,1-3.44,0V84.55Zm0-13.75a1.72,1.72,0,0,1,3.44,0v3.44a1.72,1.72,0,0,1-3.44,0V70.8Z"/><path class="cls-12" d="M476.75,57.05a1.72,1.72,0,0,1,3.44,0v3.44a1.72,1.72,0,1,1-3.44,0V57.05Zm0,27.5a1.72,1.72,0,1,1,3.44,0V88a1.72,1.72,0,1,1-3.44,0V84.55Zm0-13.75a1.72,1.72,0,1,1,3.44,0v3.44a1.72,1.72,0,1,1-3.44,0V70.8Z"/><path class="cls-12" d="M442.45,28.51a1.72,1.72,0,1,1,0-3.43h3.44a1.72,1.72,0,1,1,0,3.43Zm-109.9,0a1.72,1.72,0,1,1,0-3.43H336a1.72,1.72,0,1,1,0,3.43Zm13.75,0a1.72,1.72,0,1,1,0-3.43h3.44a1.72,1.72,0,0,1,0,3.43Zm13.75,0a1.72,1.72,0,1,1,0-3.43h3.43a1.72,1.72,0,1,1,0,3.43Zm13.66,0a1.72,1.72,0,1,1,0-3.43h3.44a1.72,1.72,0,1,1,0,3.43Zm13.75,0a1.72,1.72,0,1,1,0-3.43h3.44a1.72,1.72,0,1,1,0,3.43Zm13.75,0a1.72,1.72,0,1,1,0-3.43h3.44a1.72,1.72,0,0,1,0,3.43Zm13.75,0a1.72,1.72,0,1,1,0-3.43h3.43a1.72,1.72,0,1,1,0,3.43Zm13.75,0a1.72,1.72,0,1,1,0-3.43h3.43a1.72,1.72,0,1,1,0,3.43Z"/><path class="cls-12" d="M654.39,57.05a1.72,1.72,0,0,1,3.44,0v3.44a1.72,1.72,0,1,1-3.44,0V57.05Zm0,27.5a1.72,1.72,0,1,1,3.44,0V88a1.72,1.72,0,1,1-3.44,0V84.55Zm0-13.75a1.72,1.72,0,1,1,3.44,0v3.44a1.72,1.72,0,1,1-3.44,0V70.8Z"/><path class="cls-12" d="M620.27,28.51a1.72,1.72,0,1,1,0-3.43h3.43a1.72,1.72,0,1,1,0,3.43Zm-109.91,0a1.72,1.72,0,1,1,0-3.43h3.44a1.72,1.72,0,1,1,0,3.43Zm13.75,0a1.72,1.72,0,1,1,0-3.43h3.44a1.72,1.72,0,1,1,0,3.43Zm13.75,0a1.72,1.72,0,1,1,0-3.43h3.44a1.72,1.72,0,0,1,0,3.43Zm13.67,0a1.72,1.72,0,1,1,0-3.43H555a1.72,1.72,0,1,1,0,3.43Zm13.74,0a1.72,1.72,0,1,1,0-3.43h3.44a1.72,1.72,0,1,1,0,3.43Zm13.75,0a1.72,1.72,0,1,1,0-3.43h3.44a1.72,1.72,0,1,1,0,3.43Zm13.75,0a1.72,1.72,0,1,1,0-3.43h3.44a1.72,1.72,0,1,1,0,3.43Zm13.75,0a1.72,1.72,0,1,1,0-3.43H610a1.72,1.72,0,0,1,0,3.43Z"/><path class="cls-12" d="M832,57.05a1.72,1.72,0,0,1,3.44,0v3.44a1.72,1.72,0,0,1-3.44,0V57.05Zm0,27.5a1.72,1.72,0,0,1,3.44,0V88A1.72,1.72,0,0,1,832,88V84.55Zm0-13.75a1.72,1.72,0,0,1,3.44,0v3.44a1.72,1.72,0,0,1-3.44,0V70.8Z"/><path class="cls-12" d="M797.69,28.51a1.72,1.72,0,0,1,0-3.43h3.44a1.72,1.72,0,1,1,0,3.43Zm-109.9,0a1.72,1.72,0,1,1,0-3.43h3.44a1.72,1.72,0,1,1,0,3.43Zm13.75,0a1.72,1.72,0,1,1,0-3.43H705a1.72,1.72,0,1,1,0,3.43Zm13.75,0a1.72,1.72,0,1,1,0-3.43h3.43a1.72,1.72,0,1,1,0,3.43Zm13.66,0a1.72,1.72,0,1,1,0-3.43h3.44a1.72,1.72,0,1,1,0,3.43Zm13.75,0a1.72,1.72,0,1,1,0-3.43h3.44a1.72,1.72,0,1,1,0,3.43Zm13.75,0a1.72,1.72,0,1,1,0-3.43h3.44a1.72,1.72,0,0,1,0,3.43Zm13.75,0a1.72,1.72,0,1,1,0-3.43h3.43a1.72,1.72,0,1,1,0,3.43Zm13.75,0a1.72,1.72,0,1,1,0-3.43h3.43a1.72,1.72,0,1,1,0,3.43Z"/><path class="cls-12" d="M936.68,28.51a1.72,1.72,0,1,1,0-3.43h3.43a1.72,1.72,0,1,1,0,3.43Zm-68.74,0a1.72,1.72,0,1,1,0-3.43h3.43a1.72,1.72,0,1,1,0,3.43Zm13.74,0a1.72,1.72,0,1,1,0-3.43h3.44a1.72,1.72,0,1,1,0,3.43Zm13.75,0a1.72,1.72,0,1,1,0-3.43h3.44a1.72,1.72,0,1,1,0,3.43Zm13.75,0a1.72,1.72,0,1,1,0-3.43h3.44a1.72,1.72,0,1,1,0,3.43Zm13.75,0a1.72,1.72,0,1,1,0-3.43h3.43a1.72,1.72,0,1,1,0,3.43Z"/><polygon class="cls-13" points="951.86 34.92 960 26.78 951.86 18.64 951.86 34.92 951.86 34.92"/><path class="cls-14" d="M123.18,4.41a21.7,21.7,0,1,1-21.7,21.7,21.7,21.7,0,0,1,21.7-21.7Z"/><path class="cls-7" d="M123.18,0A26.11,26.11,0,1,1,97.07,26.11,26.11,26.11,0,0,1,123.18,0Zm0,2.58a23.53,23.53,0,1,0,23.53,23.53A23.52,23.52,0,0,0,123.18,2.58Z"/><path class="cls-15" d="M300.82,4.41a21.7,21.7,0,1,1-21.69,21.7,21.71,21.71,0,0,1,21.69-21.7Z"/><path class="cls-8" d="M300.82,0a26.11,26.11,0,1,1-26.11,26.11A26.11,26.11,0,0,1,300.82,0Zm0,2.58a23.53,23.53,0,1,0,23.53,23.53A23.53,23.53,0,0,0,300.82,2.58Z"/><path class="cls-16" d="M478.47,4.41a21.7,21.7,0,1,1-21.7,21.7,21.7,21.7,0,0,1,21.7-21.7Z"/><path class="cls-9" d="M478.47,0a26.11,26.11,0,1,1-26.11,26.11A26.11,26.11,0,0,1,478.47,0Zm0,2.58A23.53,23.53,0,1,0,502,26.11,23.52,23.52,0,0,0,478.47,2.58Z"/><path class="cls-17" d="M656.11,4.41a21.7,21.7,0,1,1-21.69,21.7,21.7,21.7,0,0,1,21.69-21.7Z"/><path class="cls-10" d="M656.11,0A26.11,26.11,0,1,1,630,26.11,26.11,26.11,0,0,1,656.11,0Zm0,2.58a23.53,23.53,0,1,0,23.53,23.53A23.52,23.52,0,0,0,656.11,2.58Z"/><path class="cls-18" d="M833.76,4.41a21.7,21.7,0,1,1-21.7,21.7,21.7,21.7,0,0,1,21.7-21.7Z"/><path class="cls-11" d="M833.76,0a26.11,26.11,0,1,1-26.11,26.11A26.12,26.12,0,0,1,833.76,0Zm0,2.58a23.53,23.53,0,1,0,23.53,23.53A23.52,23.52,0,0,0,833.76,2.58Z"/><path class="cls-14" d="M123.18,275.17a4.48,4.48,0,1,0,4.47,4.47,4.48,4.48,0,0,0-4.47-4.47Z"/><path class="cls-15" d="M300.82,275.17a4.48,4.48,0,1,0,4.48,4.47,4.47,4.47,0,0,0-4.48-4.47Z"/><path class="cls-16" d="M478.47,275.17a4.48,4.48,0,1,0,4.47,4.47,4.48,4.48,0,0,0-4.47-4.47Z"/><path class="cls-17" d="M656.11,275.17a4.48,4.48,0,1,0,4.48,4.47,4.47,4.47,0,0,0-4.48-4.47Z"/><path class="cls-18" d="M833.76,275.17a4.48,4.48,0,1,0,4.47,4.47,4.47,4.47,0,0,0-4.47-4.47Z"/><path class="cls-19" d="M129.36,30.9v3.52H117.55V30.9h4.13V22.08a3.23,3.23,0,0,1-.83.71,11.12,11.12,0,0,1-1.24.68,8.2,8.2,0,0,1-1.38.53,4.94,4.94,0,0,1-1.27.2V20.57a3.43,3.43,0,0,0,1.29-.34,11.25,11.25,0,0,0,1.48-.8,13.14,13.14,0,0,0,1.27-.92,3.43,3.43,0,0,0,.68-.71h4V30.9Z"/><path class="cls-19" d="M293.81,34.56a13.18,13.18,0,0,1,.2-2.37,6.39,6.39,0,0,1,2.11-3.65A12.14,12.14,0,0,1,298.38,27c.79-.43,1.5-.8,2.11-1.12s1.12-.62,1.53-.89a4.07,4.07,0,0,0,.93-.83,1.6,1.6,0,0,0,.32-1,1.94,1.94,0,0,0-.7-1.49,2.92,2.92,0,0,0-2-.63,4,4,0,0,0-1.28.19,4.72,4.72,0,0,0-1.09.51,6,6,0,0,0-.93.71,7.5,7.5,0,0,0-.77.83L294,20.42a6.82,6.82,0,0,1,1.08-.89,10.41,10.41,0,0,1,1.64-.9,12.61,12.61,0,0,1,2.1-.7,10.78,10.78,0,0,1,2.46-.27,9,9,0,0,1,2.65.36,5.69,5.69,0,0,1,2,1,4.34,4.34,0,0,1,1.22,1.57,4.71,4.71,0,0,1,.43,2,4.18,4.18,0,0,1-.38,1.81,5.73,5.73,0,0,1-1,1.39,7.14,7.14,0,0,1-1.27,1.07c-.46.3-.9.56-1.32.8l-1.2.67c-.44.25-.88.52-1.32.82a13.33,13.33,0,0,0-1.21.94A4.15,4.15,0,0,0,299,31h8.82v3.52Z"/><path class="cls-19" d="M481.57,25.48a4.68,4.68,0,0,1,2.92,1.73,5.37,5.37,0,0,1,1.12,3.45,5.6,5.6,0,0,1-.54,2.48A5.36,5.36,0,0,1,483.56,35a7.14,7.14,0,0,1-2.37,1.2,10.92,10.92,0,0,1-3.15.42,10.17,10.17,0,0,1-3.91-.71,7.33,7.33,0,0,1-2.84-2.09l2.21-2.76a5.23,5.23,0,0,0,1.81,1.48,5.82,5.82,0,0,0,2.62.53,4.47,4.47,0,0,0,2.71-.7,2.52,2.52,0,0,0,.93-2.15,2.74,2.74,0,0,0-1.08-2.33,5.39,5.39,0,0,0-3.26-.82h-.81V24.17h.9a4.29,4.29,0,0,0,2.79-.8,2.51,2.51,0,0,0,1-2.05,2,2,0,0,0-.81-1.77,3.6,3.6,0,0,0-2.13-.59A4.72,4.72,0,0,0,474,21.29l-2.45-2.73a4.77,4.77,0,0,1,1.17-1.21,7.86,7.86,0,0,1,1.64-.93,9.94,9.94,0,0,1,2-.61,10.69,10.69,0,0,1,2.21-.22,8.81,8.81,0,0,1,2.7.38,6.82,6.82,0,0,1,2.11,1,4.52,4.52,0,0,1,1.85,3.73A5.39,5.39,0,0,1,485,22.4a4.63,4.63,0,0,1-.76,1.42,4.5,4.5,0,0,1-1.18,1.08,3.93,3.93,0,0,1-1.49.58Z"/><path class="cls-19" d="M655.89,36.26V31.93h-8.5V28.47L657.14,16h2.65V28.44h2.56v3.49h-2.56v4.33Zm-4.6-7.82h5V21.86l-5,6.58Z"/><path class="cls-19" d="M834.16,23a7.54,7.54,0,0,1,2.71.48A6.34,6.34,0,0,1,839,24.8a6.08,6.08,0,0,1,1.41,2.09,7,7,0,0,1,.51,2.71,6.91,6.91,0,0,1-.57,2.85,6.22,6.22,0,0,1-1.58,2.2,7.29,7.29,0,0,1-2.42,1.43,8.7,8.7,0,0,1-3,.5,8.45,8.45,0,0,1-4.06-1A6.65,6.65,0,0,1,826.57,33l2.24-2.33a6,6,0,0,0,2,1.8,5.13,5.13,0,0,0,2.53.67,3.6,3.6,0,0,0,2.57-.94,3.64,3.64,0,0,0,.06-5,3.28,3.28,0,0,0-2.4-.93,3.79,3.79,0,0,0-1.79.44,3.53,3.53,0,0,0-1.32,1.19h-3.41a6.1,6.1,0,0,1,.12-.65c.08-.38.17-.87.29-1.46s.24-1.25.38-2,.28-1.47.43-2.22l1.17-6h10.18v3.55H832.3l-.84,4.63a2.37,2.37,0,0,1,1-.61,5.1,5.1,0,0,1,1.67-.23Z"/><path class="cls-20" d="M87.7,149.25a1.64,1.64,0,0,0-.8-.57,2.79,2.79,0,0,0-1-.18,2.48,2.48,0,0,0-.54.06,1.87,1.87,0,0,0-.53.2,1.07,1.07,0,0,0-.4.36.89.89,0,0,0-.16.54.9.9,0,0,0,.37.79,3.58,3.58,0,0,0,.94.46l1.22.39a4.93,4.93,0,0,1,1.22.54,2.91,2.91,0,0,1,.94.94,3,3,0,0,1,.37,1.59A3.71,3.71,0,0,1,89,156a3.23,3.23,0,0,1-.93,1.16,3.75,3.75,0,0,1-1.35.69,5.71,5.71,0,0,1-1.62.23,5.8,5.8,0,0,1-2-.34,5,5,0,0,1-1.71-1.09l1.72-1.95a2.48,2.48,0,0,0,.94.79,2.58,2.58,0,0,0,1.17.28,2.46,2.46,0,0,0,.6-.07,1.86,1.86,0,0,0,.54-.22,1.12,1.12,0,0,0,.39-.36.94.94,0,0,0,.15-.53,1,1,0,0,0-.38-.81,3.46,3.46,0,0,0-1-.5c-.38-.14-.79-.28-1.24-.42a5.8,5.8,0,0,1-1.24-.56,2.91,2.91,0,0,1-1-.93,2.66,2.66,0,0,1-.38-1.52,3.31,3.31,0,0,1,1.28-2.75,4,4,0,0,1,1.34-.7,5.52,5.52,0,0,1,1.57-.23,6,6,0,0,1,1.8.27,4.13,4.13,0,0,1,1.56.92Z"/><path class="cls-20" d="M94.55,148.69H91.41v-2.21h8.69v2.21H97v9.12H94.55Z"/><path class="cls-20" d="M102.66,146.48h7.47v2.3h-5v2.12h4.76v2.3h-4.76v2.3h5.32v2.31h-7.75Z"/><path class="cls-20" d="M113.59,146.48h4.08a7.67,7.67,0,0,1,1.62.16,3.72,3.72,0,0,1,1.32.55,2.75,2.75,0,0,1,.9,1.06,3.73,3.73,0,0,1,.34,1.67,4,4,0,0,1-.31,1.66,2.81,2.81,0,0,1-.86,1.08,3.44,3.44,0,0,1-1.29.56,6.8,6.8,0,0,1-1.61.17H116v4.42h-2.42Zm2.42,4.8h1.62a3.18,3.18,0,0,0,.62-.06,1.81,1.81,0,0,0,.55-.22,1,1,0,0,0,.38-.42,1.29,1.29,0,0,0,.15-.66,1.16,1.16,0,0,0-.19-.7,1.31,1.31,0,0,0-.5-.4,2.08,2.08,0,0,0-.67-.19c-.25,0-.49,0-.72,0H116Z"/><path class="cls-20" d="M129.85,152.14a6.49,6.49,0,0,1,.45-2.46,5.3,5.3,0,0,1,1.23-1.88,5.38,5.38,0,0,1,1.88-1.19,6.49,6.49,0,0,1,2.37-.42,6.58,6.58,0,0,1,2.38.42A5.48,5.48,0,0,1,140,147.8a5.58,5.58,0,0,1,1.23,1.88,7.12,7.12,0,0,1,0,4.93,5.68,5.68,0,0,1-1.23,1.88,5.48,5.48,0,0,1-1.88,1.19,6.58,6.58,0,0,1-2.38.42,6.49,6.49,0,0,1-2.37-.42,5.27,5.27,0,0,1-3.11-3.07A6.51,6.51,0,0,1,129.85,152.14Zm2.52,0a4.28,4.28,0,0,0,.24,1.47,3.33,3.33,0,0,0,.69,1.15,3.07,3.07,0,0,0,1.08.76,3.79,3.79,0,0,0,2.81,0,3.07,3.07,0,0,0,1.08-.76,3.33,3.33,0,0,0,.69-1.15,4.56,4.56,0,0,0,0-2.92,3.28,3.28,0,0,0-.69-1.16,3.07,3.07,0,0,0-1.08-.76,3.79,3.79,0,0,0-2.81,0,3.07,3.07,0,0,0-1.08.76,3.28,3.28,0,0,0-.69,1.16A4.28,4.28,0,0,0,132.37,152.14Z"/><path class="cls-20" d="M144.6,146.48h3.29l4.67,7.87h0v-7.87H155v11.33h-3.16l-4.8-8.07h0v8.07H144.6Z"/><path class="cls-20" d="M158.58,146.48h7.47v2.3H161v2.12h4.77v2.3H161v2.3h5.33v2.31h-7.75Z"/><path class="cls-20" d="M263.79,149.25a1.64,1.64,0,0,0-.8-.57,2.79,2.79,0,0,0-.95-.18,2.48,2.48,0,0,0-.54.06,1.87,1.87,0,0,0-.53.2,1.19,1.19,0,0,0-.41.36,1,1,0,0,0-.15.54.9.9,0,0,0,.37.79,3.58,3.58,0,0,0,.94.46c.38.13.78.26,1.22.39a4.93,4.93,0,0,1,1.22.54,3,3,0,0,1,.94.94,3.07,3.07,0,0,1,.37,1.59,3.86,3.86,0,0,1-.34,1.65,3.23,3.23,0,0,1-.93,1.16,3.75,3.75,0,0,1-1.35.69,5.71,5.71,0,0,1-1.62.23,5.9,5.9,0,0,1-2-.34,4.92,4.92,0,0,1-1.7-1.09l1.72-1.95a2.48,2.48,0,0,0,.94.79,2.58,2.58,0,0,0,1.17.28,2.46,2.46,0,0,0,.6-.07,1.86,1.86,0,0,0,.54-.22,1.12,1.12,0,0,0,.39-.36.94.94,0,0,0,.15-.53,1,1,0,0,0-.38-.81,3.46,3.46,0,0,0-1-.5c-.38-.14-.79-.28-1.24-.42a5.8,5.8,0,0,1-1.24-.56,3,3,0,0,1-1-.93,2.74,2.74,0,0,1-.38-1.52,3.52,3.52,0,0,1,.35-1.6,3.63,3.63,0,0,1,.93-1.15,4.13,4.13,0,0,1,1.35-.7,5.45,5.45,0,0,1,1.56-.23,6.06,6.06,0,0,1,1.81.27,4.21,4.21,0,0,1,1.56.92Z"/><path class="cls-20" d="M270.64,148.69H267.5v-2.21h8.69v2.21h-3.13v9.12h-2.42Z"/><path class="cls-20" d="M278.75,146.48h7.47v2.3h-5.05v2.12h4.77v2.3h-4.77v2.3h5.33v2.31h-7.75Z"/><path class="cls-20" d="M289.68,146.48h4.08a7.51,7.51,0,0,1,1.61.16,3.7,3.7,0,0,1,1.33.55,2.75,2.75,0,0,1,.9,1.06,3.73,3.73,0,0,1,.34,1.67,3.87,3.87,0,0,1-.32,1.66,2.7,2.7,0,0,1-.85,1.08,3.44,3.44,0,0,1-1.29.56,6.8,6.8,0,0,1-1.61.17H292.1v4.42h-2.42Zm2.42,4.8h1.61a3.21,3.21,0,0,0,.63-.06,1.92,1.92,0,0,0,.55-.22,1.11,1.11,0,0,0,.38-.42,1.29,1.29,0,0,0,.15-.66,1.16,1.16,0,0,0-.19-.7,1.31,1.31,0,0,0-.5-.4,2.08,2.08,0,0,0-.67-.19c-.25,0-.49,0-.72,0H292.1Z"/><path class="cls-20" d="M308.66,148.69h-3.14v-2.21h8.7v2.21h-3.14v9.12h-2.42Z"/><path class="cls-20" d="M315.53,146.48h2.64l1.76,7.26h0l2.29-7.26h2.25l2.29,7.46h0l1.84-7.46h2.46l-3.22,11.33h-2.15L323.33,150h0l-2.42,7.84h-2.08Z"/><path class="cls-20" d="M332.86,152.14a6.49,6.49,0,0,1,.44-2.46,5.3,5.3,0,0,1,1.23-1.88,5.38,5.38,0,0,1,1.88-1.19,6.49,6.49,0,0,1,2.37-.42,6.58,6.58,0,0,1,2.38.42,5.27,5.27,0,0,1,3.11,3.07,7.12,7.12,0,0,1,0,4.93,5.27,5.27,0,0,1-3.11,3.07,6.58,6.58,0,0,1-2.38.42,6.49,6.49,0,0,1-2.37-.42,5.27,5.27,0,0,1-3.11-3.07A6.51,6.51,0,0,1,332.86,152.14Zm2.51,0a4.28,4.28,0,0,0,.24,1.47,3.33,3.33,0,0,0,.69,1.15,3.07,3.07,0,0,0,1.08.76,3.79,3.79,0,0,0,2.81,0,3.07,3.07,0,0,0,1.08-.76,3.33,3.33,0,0,0,.69-1.15,4.56,4.56,0,0,0,0-2.92,3.28,3.28,0,0,0-.69-1.16,3.07,3.07,0,0,0-1.08-.76,3.79,3.79,0,0,0-2.81,0,3.07,3.07,0,0,0-1.08.76,3.28,3.28,0,0,0-.69,1.16A4.28,4.28,0,0,0,335.37,152.14Z"/><path class="cls-20" d="M433.16,149.25a1.68,1.68,0,0,0-.8-.57,2.84,2.84,0,0,0-.95-.18,2.64,2.64,0,0,0-.55.06,1.93,1.93,0,0,0-.52.2,1.19,1.19,0,0,0-.41.36,1,1,0,0,0-.15.54.9.9,0,0,0,.37.79,3.58,3.58,0,0,0,.94.46c.38.13.78.26,1.22.39a4.93,4.93,0,0,1,1.22.54,2.88,2.88,0,0,1,.93.94,3,3,0,0,1,.38,1.59,3.86,3.86,0,0,1-.34,1.65,3.23,3.23,0,0,1-.93,1.16,3.92,3.92,0,0,1-1.35.69,5.71,5.71,0,0,1-1.62.23,5.85,5.85,0,0,1-2-.34,4.83,4.83,0,0,1-1.7-1.09l1.72-1.95a2.48,2.48,0,0,0,.94.79,2.58,2.58,0,0,0,1.17.28,2.46,2.46,0,0,0,.6-.07,1.86,1.86,0,0,0,.54-.22,1.12,1.12,0,0,0,.39-.36.94.94,0,0,0,.15-.53,1,1,0,0,0-.38-.81,3.6,3.6,0,0,0-1-.5c-.38-.14-.8-.28-1.24-.42a5.59,5.59,0,0,1-1.24-.56,2.94,2.94,0,0,1-1-.93,2.74,2.74,0,0,1-.38-1.52,3.52,3.52,0,0,1,.35-1.6,3.63,3.63,0,0,1,.93-1.15,4.13,4.13,0,0,1,1.35-.7,5.45,5.45,0,0,1,1.56-.23,6,6,0,0,1,1.8.27,4.17,4.17,0,0,1,1.57.92Z"/><path class="cls-20" d="M440,148.69h-3.13v-2.21h8.69v2.21h-3.13v9.12H440Z"/><path class="cls-20" d="M448.12,146.48h7.47v2.3h-5v2.12h4.77v2.3h-4.77v2.3h5.33v2.31h-7.75Z"/><path class="cls-20" d="M459.05,146.48h4.08a7.51,7.51,0,0,1,1.61.16,3.7,3.7,0,0,1,1.33.55,2.75,2.75,0,0,1,.9,1.06,3.73,3.73,0,0,1,.33,1.67,3.87,3.87,0,0,1-.31,1.66,2.7,2.7,0,0,1-.85,1.08,3.44,3.44,0,0,1-1.29.56,6.8,6.8,0,0,1-1.61.17h-1.77v4.42h-2.42Zm2.42,4.8h1.61a3.21,3.21,0,0,0,.63-.06,1.86,1.86,0,0,0,.54-.22,1.13,1.13,0,0,0,.39-.42,1.29,1.29,0,0,0,.15-.66,1.23,1.23,0,0,0-.19-.7,1.31,1.31,0,0,0-.5-.4,2.07,2.07,0,0,0-.68-.19c-.24,0-.48,0-.71,0h-1.24Z"/><path class="cls-20" d="M478,148.69h-3.14v-2.21h8.69v2.21h-3.13v9.12H478Z"/><path class="cls-20" d="M486.05,146.48h2.42v4.22h4.71v-4.22h2.42v11.33h-2.42v-4.9h-4.71v4.9h-2.42Z"/><path class="cls-20" d="M499.07,146.48h4.26a7.52,7.52,0,0,1,1.59.17,3.74,3.74,0,0,1,1.32.56,2.89,2.89,0,0,1,.9,1,3.75,3.75,0,0,1,.33,1.66,3.36,3.36,0,0,1-.61,2,2.65,2.65,0,0,1-1.77,1.06l2.8,4.79H505l-2.3-4.53h-1.2v4.53h-2.42Zm2.42,4.69h1.43l.69,0a1.89,1.89,0,0,0,.66-.14,1.15,1.15,0,0,0,.49-.38,1.39,1.39,0,0,0,0-1.4,1.18,1.18,0,0,0-.43-.4,1.89,1.89,0,0,0-.61-.18,5,5,0,0,0-.66,0h-1.59Z"/><path class="cls-20" d="M510.46,146.48h7.47v2.3h-5v2.12h4.77v2.3h-4.77v2.3h5.33v2.31h-7.75Z"/><path class="cls-20" d="M521.48,146.48H529v2.3H523.9v2.12h4.77v2.3H523.9v2.3h5.33v2.31h-7.75Z"/><path class="cls-20" d="M614.18,149.25a1.65,1.65,0,0,0-.79-.57,2.89,2.89,0,0,0-1-.18,2.48,2.48,0,0,0-.54.06,2,2,0,0,0-.53.2,1.07,1.07,0,0,0-.4.36.89.89,0,0,0-.16.54.93.93,0,0,0,.37.79,3.74,3.74,0,0,0,.94.46l1.22.39a4.77,4.77,0,0,1,1.22.54,2.91,2.91,0,0,1,.94.94,3,3,0,0,1,.37,1.59,3.71,3.71,0,0,1-.34,1.65,3.31,3.31,0,0,1-.92,1.16,3.92,3.92,0,0,1-1.35.69,5.92,5.92,0,0,1-3.61-.11,5,5,0,0,1-1.71-1.09l1.72-1.95a2.48,2.48,0,0,0,.94.79,2.58,2.58,0,0,0,1.17.28,2.46,2.46,0,0,0,.6-.07,1.86,1.86,0,0,0,.54-.22,1.12,1.12,0,0,0,.39-.36.94.94,0,0,0,.15-.53,1,1,0,0,0-.38-.81,3.39,3.39,0,0,0-.95-.5c-.39-.14-.8-.28-1.25-.42a5.8,5.8,0,0,1-1.24-.56,2.91,2.91,0,0,1-1-.93,2.66,2.66,0,0,1-.38-1.52,3.38,3.38,0,0,1,1.28-2.75,4.08,4.08,0,0,1,1.34-.7,5.52,5.52,0,0,1,1.57-.23,6,6,0,0,1,1.8.27,4.25,4.25,0,0,1,1.57.92Z"/><path class="cls-20" d="M621,148.69h-3.14v-2.21h8.69v2.21h-3.13v9.12H621Z"/><path class="cls-20" d="M629.15,146.48h7.46v2.3h-5v2.12h4.76v2.3h-4.76v2.3h5.32v2.31h-7.74Z"/><path class="cls-20" d="M640.07,146.48h4.08a7.67,7.67,0,0,1,1.62.16,3.65,3.65,0,0,1,1.32.55,2.75,2.75,0,0,1,.9,1.06,3.6,3.6,0,0,1,.34,1.67,4,4,0,0,1-.31,1.66,2.72,2.72,0,0,1-.86,1.08,3.47,3.47,0,0,1-1.28.56,6.94,6.94,0,0,1-1.62.17h-1.77v4.42h-2.42Zm2.42,4.8h1.62a3.36,3.36,0,0,0,.63-.06,1.86,1.86,0,0,0,.54-.22,1.13,1.13,0,0,0,.39-.42,1.4,1.4,0,0,0,.14-.66,1.16,1.16,0,0,0-.19-.7,1.24,1.24,0,0,0-.5-.4,2,2,0,0,0-.67-.19c-.25,0-.49,0-.72,0h-1.24Z"/><path class="cls-20" d="M657,146.48h7.37v2.3h-4.95v2.31H664v2.3h-4.58v4.42H657Z"/><path class="cls-20" d="M666.78,152.14a6.69,6.69,0,0,1,.44-2.46,5.46,5.46,0,0,1,1.24-1.88,5.34,5.34,0,0,1,1.87-1.19,6.58,6.58,0,0,1,2.38-.42,6.49,6.49,0,0,1,2.37.42A5.38,5.38,0,0,1,677,147.8a5.46,5.46,0,0,1,1.24,1.88,7.12,7.12,0,0,1,0,4.93,5.55,5.55,0,0,1-1.24,1.88,5.38,5.38,0,0,1-1.88,1.19,6.49,6.49,0,0,1-2.37.42,6.58,6.58,0,0,1-2.38-.42,5.34,5.34,0,0,1-1.87-1.19,5.55,5.55,0,0,1-1.24-1.88A6.71,6.71,0,0,1,666.78,152.14Zm2.51,0a4.27,4.27,0,0,0,.25,1.47,3.33,3.33,0,0,0,.69,1.15,3.12,3.12,0,0,0,1.07.76,3.55,3.55,0,0,0,1.41.27,3.46,3.46,0,0,0,1.4-.27,3.07,3.07,0,0,0,1.08-.76,3.33,3.33,0,0,0,.69-1.15,4.56,4.56,0,0,0,0-2.92,3.28,3.28,0,0,0-.69-1.16,3.07,3.07,0,0,0-1.08-.76,3.46,3.46,0,0,0-1.4-.27,3.55,3.55,0,0,0-1.41.27,3.12,3.12,0,0,0-1.07.76,3.28,3.28,0,0,0-.69,1.16A4.29,4.29,0,0,0,669.29,152.14Z"/><path class="cls-20" d="M690.79,153.44a5.85,5.85,0,0,1-.29,1.86,4.21,4.21,0,0,1-.88,1.47,4,4,0,0,1-1.45,1,5.79,5.79,0,0,1-4,0,3.94,3.94,0,0,1-1.45-1,4.21,4.21,0,0,1-.88-1.47,5.58,5.58,0,0,1-.29-1.86v-7H684v6.86a2.8,2.8,0,0,0,.16,1,2.33,2.33,0,0,0,.46.78,2.11,2.11,0,0,0,.7.51,2.23,2.23,0,0,0,.9.18,2.13,2.13,0,0,0,.88-.18,2.22,2.22,0,0,0,.7-.51,2.33,2.33,0,0,0,.46-.78,3.05,3.05,0,0,0,.16-1v-6.86h2.42Z"/><path class="cls-20" d="M694.27,146.48h4.25a7.38,7.38,0,0,1,1.59.17,3.74,3.74,0,0,1,1.32.56,2.72,2.72,0,0,1,.9,1,3.75,3.75,0,0,1,.33,1.66,3.42,3.42,0,0,1-.6,2,2.7,2.7,0,0,1-1.77,1.06l2.79,4.79h-2.9l-2.3-4.53h-1.19v4.53h-2.42Zm2.42,4.69h1.43l.69,0a2,2,0,0,0,.66-.14,1.21,1.21,0,0,0,.49-.38,1.45,1.45,0,0,0,0-1.4,1.3,1.3,0,0,0-.44-.4,1.76,1.76,0,0,0-.6-.18,5.16,5.16,0,0,0-.67,0h-1.58Z"/><path class="cls-20" d="M795.86,149.25a1.68,1.68,0,0,0-.8-.57,2.79,2.79,0,0,0-.95-.18,2.64,2.64,0,0,0-.55.06,1.93,1.93,0,0,0-.52.2,1.19,1.19,0,0,0-.41.36,1,1,0,0,0-.15.54.9.9,0,0,0,.37.79,3.58,3.58,0,0,0,.94.46c.38.13.78.26,1.22.39a4.93,4.93,0,0,1,1.22.54,3,3,0,0,1,.94.94,3.07,3.07,0,0,1,.37,1.59,3.86,3.86,0,0,1-.34,1.65,3.23,3.23,0,0,1-.93,1.16,3.92,3.92,0,0,1-1.35.69,5.71,5.71,0,0,1-1.62.23,5.85,5.85,0,0,1-2-.34,4.83,4.83,0,0,1-1.7-1.09l1.72-1.95a2.48,2.48,0,0,0,.94.79,2.58,2.58,0,0,0,1.17.28,2.46,2.46,0,0,0,.6-.07,1.86,1.86,0,0,0,.54-.22,1.12,1.12,0,0,0,.39-.36.94.94,0,0,0,.15-.53,1,1,0,0,0-.38-.81,3.6,3.6,0,0,0-1-.5c-.38-.14-.8-.28-1.24-.42a5.59,5.59,0,0,1-1.24-.56,3,3,0,0,1-1-.93,2.74,2.74,0,0,1-.38-1.52,3.52,3.52,0,0,1,.35-1.6,3.63,3.63,0,0,1,.93-1.15,4.13,4.13,0,0,1,1.35-.7,5.45,5.45,0,0,1,1.56-.23,6,6,0,0,1,1.8.27,4.17,4.17,0,0,1,1.57.92Z"/><path class="cls-20" d="M802.71,148.69h-3.14v-2.21h8.69v2.21h-3.13v9.12h-2.42Z"/><path class="cls-20" d="M810.82,146.48h7.47v2.3h-5v2.12H818v2.3h-4.77v2.3h5.33v2.31h-7.75Z"/><path class="cls-20" d="M821.75,146.48h4.08a7.51,7.51,0,0,1,1.61.16,3.7,3.7,0,0,1,1.33.55,2.75,2.75,0,0,1,.9,1.06,3.73,3.73,0,0,1,.33,1.67,3.87,3.87,0,0,1-.31,1.66,2.7,2.7,0,0,1-.85,1.08,3.44,3.44,0,0,1-1.29.56,6.8,6.8,0,0,1-1.61.17h-1.77v4.42h-2.42Zm2.42,4.8h1.61a3.21,3.21,0,0,0,.63-.06A1.86,1.86,0,0,0,827,151a1.06,1.06,0,0,0,.39-.42,1.29,1.29,0,0,0,.15-.66,1.23,1.23,0,0,0-.19-.7,1.31,1.31,0,0,0-.5-.4,2.07,2.07,0,0,0-.68-.19c-.24,0-.48,0-.71,0h-1.24Z"/><path class="cls-20" d="M838.7,146.48h7.37v2.3h-5v2.31h4.57v2.3h-4.57v4.42H838.7Z"/><path class="cls-20" d="M849,146.48h2.42v11.33H849Z"/><path class="cls-20" d="M853.8,146.48h2.76l2.71,7.42h0l2.76-7.42h2.59l-4.53,11.33h-1.94Z"/><path class="cls-20" d="M867.14,146.48h7.47v2.3h-5.05v2.12h4.77v2.3h-4.77v2.3h5.33v2.31h-7.75Z"/></g></g></svg>