<svg xmlns="http://www.w3.org/2000/svg" viewBox="0 0 534.77 1104"><defs><style>.cls-1,.cls-15{fill:#d6c677;}.cls-14,.cls-2{fill:#f9c270;}.cls-13,.cls-3,.cls-8{fill:#ef858c;}.cls-12,.cls-4{fill:#bc7960;}.cls-10,.cls-5{fill:#ef845d;}.cls-6,.cls-7{fill:#cacaca;}.cls-7,.cls-8{fill-rule:evenodd;}.cls-9{fill:#fff;}.cls-10,.cls-12,.cls-13{stroke:#ef845d;}.cls-10,.cls-12,.cls-14{stroke-miterlimit:10;}.cls-10{stroke-width:0.49px;}.cls-11{fill:#231815;}.cls-12{stroke-width:0.33px;}.cls-13,.cls-14,.cls-15{stroke-linecap:round;}.cls-13,.cls-15{stroke-linejoin:round;}.cls-13{stroke-width:0.98px;}.cls-14{stroke:#f9c270;}.cls-14,.cls-15{stroke-width:0.65px;}.cls-15{stroke:#d6c677;}.cls-16{fill:#443b38;}</style></defs><g id="レイヤー_2" data-name="レイヤー 2"><g id="文字"><path class="cls-1" d="M109.29,962.34a90.24,90.24,0,1,1,90.23,90.24,90.24,90.24,0,0,1-90.23-90.24Zm3,0a5.15,5.15,0,1,0,5.14-5.14,5.14,5.14,0,0,0-5.14,5.14Zm12.85,0a74.43,74.43,0,1,0,74.43-74.42,74.42,74.42,0,0,0-74.43,74.42Z"/><path class="cls-2" d="M109.29,758.05a90.24,90.24,0,1,1,90.24,90.24,90.24,90.24,0,0,1-90.24-90.24Zm3,0a5.15,5.15,0,1,0,5.14-5.14,5.14,5.14,0,0,0-5.14,5.14Zm12.85,0a74.43,74.43,0,1,0,74.43-74.42,74.43,74.43,0,0,0-74.43,74.42Z"/><path class="cls-3" d="M109.29,553.76A90.24,90.24,0,1,1,199.53,644a90.24,90.24,0,0,1-90.24-90.24Zm3,0a5.15,5.15,0,1,0,5.14-5.14,5.14,5.14,0,0,0-5.14,5.14Zm12.85,0a74.43,74.43,0,1,0,74.43-74.43,74.43,74.43,0,0,0-74.43,74.43Z"/><path class="cls-4" d="M109.29,349.47a90.24,90.24,0,1,1,90.24,90.24,90.24,90.24,0,0,1-90.24-90.24Zm3,0a5.15,5.15,0,1,0,5.14-5.14,5.15,5.15,0,0,0-5.14,5.14Zm12.85,0A74.43,74.43,0,1,0,199.53,275a74.43,74.43,0,0,0-74.43,74.43Z"/><path class="cls-5" d="M109.29,145.18a90.24,90.24,0,1,1,90.24,90.24,90.24,90.24,0,0,1-90.24-90.24Zm3,0a5.15,5.15,0,1,0,5.14-5.15,5.15,5.15,0,0,0-5.14,5.15Zm12.85,0a74.43,74.43,0,1,0,74.43-74.43,74.43,74.43,0,0,0-74.43,74.43Z"/><path class="cls-6" d="M32.79,1003a2,2,0,1,1-3.95,0v-3.95a2,2,0,1,1,3.95,0V1003Zm0,79a2,2,0,1,1-3.95,0v-3.95a2,2,0,0,1,3.95,0v3.95Zm0-15.81a2,2,0,1,1-3.95,0v-4a2,2,0,0,1,3.95,0v4Zm0-15.81a2,2,0,1,1-3.95,0v-4a2,2,0,1,1,3.95,0v4Zm0-15.81a2,2,0,1,1-3.95,0v-4a2,2,0,0,1,3.95,0v4Zm0-15.81a2,2,0,1,1-3.95,0v-4a2,2,0,1,1,3.95,0v4Z"/><path class="cls-6" d="M65.61,964.32a2,2,0,0,1,0-4h4a2,2,0,0,1,0,4Zm31.62,0a2,2,0,0,1,0-4h4a2,2,0,0,1,0,4Zm-15.81,0a2,2,0,0,1,0-4h4a2,2,0,0,1,0,4Z"/><polygon class="cls-7" points="21.43 1094.63 30.8 1104 40.16 1094.63 21.43 1094.63 21.43 1094.63"/><path class="cls-6" d="M32.79,799.54a2,2,0,1,1-3.95,0v-3.95a2,2,0,1,1,3.95,0v3.95Zm0,126.39a2,2,0,1,1-3.95,0V922a2,2,0,1,1,3.95,0v3.95Zm0-15.81a2,2,0,1,1-3.95,0v-4a2,2,0,1,1,3.95,0v4Zm0-15.81a2,2,0,1,1-3.95,0v-3.95a2,2,0,1,1,3.95,0v3.95Zm0-15.72a2,2,0,1,1-3.95,0v-4a2,2,0,0,1,3.95,0v4Zm0-15.81a2,2,0,1,1-3.95,0v-3.95a2,2,0,0,1,3.95,0v3.95Zm0-15.81a2,2,0,1,1-3.95,0v-4a2,2,0,0,1,3.95,0v4Zm0-15.81a2,2,0,1,1-3.95,0v-3.95a2,2,0,1,1,3.95,0v3.95Zm0-15.81a2,2,0,1,1-3.95,0v-4a2,2,0,1,1,3.95,0v4Z"/><path class="cls-6" d="M65.61,760a2,2,0,0,1,0-3.95h4a2,2,0,0,1,0,3.95Zm31.62,0a2,2,0,0,1,0-3.95h4a2,2,0,0,1,0,3.95Zm-15.81,0a2,2,0,0,1,0-3.95h4a2,2,0,0,1,0,3.95Z"/><path class="cls-6" d="M65.61,555.74a2,2,0,0,1,0-4h4a2,2,0,0,1,0,4Zm31.62,0a2,2,0,0,1,0-4h4a2,2,0,0,1,0,4Zm-15.81,0a2,2,0,0,1,0-4h4a2,2,0,0,1,0,4Z"/><path class="cls-6" d="M32.79,595.18a2,2,0,1,1-3.95,0v-3.95a2,2,0,1,1,3.95,0v3.95Zm0,126.39a2,2,0,0,1-3.95,0v-4a2,2,0,1,1,3.95,0v4Zm0-15.81a2,2,0,0,1-3.95,0v-4a2,2,0,0,1,3.95,0v4Zm0-15.81a2,2,0,0,1-3.95,0v-4a2,2,0,1,1,3.95,0v4Zm0-15.72a2,2,0,1,1-3.95,0v-4a2,2,0,1,1,3.95,0v4Zm0-15.81a2,2,0,1,1-3.95,0v-3.95a2,2,0,1,1,3.95,0v3.95Zm0-15.81a2,2,0,1,1-3.95,0v-4a2,2,0,1,1,3.95,0v4Zm0-15.81a2,2,0,1,1-3.95,0v-3.95a2,2,0,1,1,3.95,0v3.95Zm0-15.81a2,2,0,1,1-3.95,0v-4a2,2,0,1,1,3.95,0v4Z"/><path class="cls-6" d="M65.61,351.45a2,2,0,0,1,0-3.95h4a2,2,0,0,1,0,3.95Zm31.62,0a2,2,0,0,1,0-3.95h4a2,2,0,0,1,0,3.95Zm-15.81,0a2,2,0,0,1,0-3.95h4a2,2,0,0,1,0,3.95Z"/><path class="cls-6" d="M32.79,390.69a2,2,0,1,1-3.95,0v-3.95a2,2,0,0,1,3.95,0v3.95Zm0,126.39a2,2,0,1,1-3.95,0v-4a2,2,0,1,1,3.95,0v4Zm0-15.81a2,2,0,1,1-3.95,0v-3.95a2,2,0,1,1,3.95,0v3.95Zm0-15.81a2,2,0,1,1-3.95,0v-3.95a2,2,0,1,1,3.95,0v3.95Zm0-15.71a2,2,0,0,1-3.95,0v-4a2,2,0,0,1,3.95,0v4Zm0-15.81a2,2,0,0,1-3.95,0v-4a2,2,0,0,1,3.95,0v4Zm0-15.81a2,2,0,0,1-3.95,0v-4a2,2,0,1,1,3.95,0v4Zm0-15.82a2,2,0,1,1-3.95,0v-3.95a2,2,0,0,1,3.95,0v3.95Zm0-15.81a2,2,0,1,1-3.95,0v-3.95a2,2,0,0,1,3.95,0v3.95Z"/><path class="cls-6" d="M65.61,147.16a2,2,0,0,1,0-4h4a2,2,0,0,1,0,4Zm31.62,0a2,2,0,0,1,0-4h4a2,2,0,0,1,0,4Zm-15.81,0a2,2,0,0,1,0-4h4a2,2,0,0,1,0,4Z"/><path class="cls-6" d="M32.79,186.65a2,2,0,1,1-3.95,0v-4a2,2,0,1,1,3.95,0v4Zm0,126.39a2,2,0,1,1-3.95,0v-4a2,2,0,1,1,3.95,0v4Zm0-15.81a2,2,0,1,1-3.95,0v-4a2,2,0,1,1,3.95,0v4Zm0-15.81a2,2,0,1,1-3.95,0v-3.95a2,2,0,1,1,3.95,0v3.95Zm0-15.72a2,2,0,1,1-3.95,0v-3.95a2,2,0,1,1,3.95,0v3.95Zm0-15.81a2,2,0,1,1-3.95,0v-3.95a2,2,0,0,1,3.95,0v3.95Zm0-15.81a2,2,0,1,1-3.95,0v-4a2,2,0,0,1,3.95,0v4Zm0-15.81a2,2,0,1,1-3.95,0v-4a2,2,0,1,1,3.95,0v4Zm0-15.81a2,2,0,1,1-3.95,0v-4a2,2,0,1,1,3.95,0v4Z"/><path class="cls-6" d="M32.79,26.82a2,2,0,1,1-3.95,0V22.87a2,2,0,1,1,3.95,0v3.95Zm0,79.05a2,2,0,1,1-3.95,0v-4a2,2,0,1,1,3.95,0v4Zm0-15.81a2,2,0,1,1-3.95,0v-4a2,2,0,0,1,3.95,0v4Zm0-15.81a2,2,0,1,1-3.95,0v-4a2,2,0,0,1,3.95,0v4Zm0-15.81a2,2,0,1,1-3.95,0V54.49a2,2,0,1,1,3.95,0v3.95Zm0-15.81a2,2,0,1,1-3.95,0v-4a2,2,0,1,1,3.95,0v4Z"/><polygon class="cls-7" points="21.43 0 30.8 9.37 40.16 0 21.43 0 21.43 0"/><path class="cls-1" d="M5.08,962.34a24.95,24.95,0,1,1,25,24.95,24.95,24.95,0,0,1-25-24.95Z"/><path class="cls-1" d="M0,962.34a30,30,0,1,1,30,30,30,30,0,0,1-30-30Zm3,0A27.07,27.07,0,1,0,30,935.29,27.07,27.07,0,0,0,3,962.34Z"/><path class="cls-2" d="M5.08,758.05a24.95,24.95,0,1,1,25,25,25,25,0,0,1-25-25Z"/><path class="cls-2" d="M0,758.05a30,30,0,1,1,30,30,30,30,0,0,1-30-30Zm3,0A27.07,27.07,0,1,0,30,731,27.07,27.07,0,0,0,3,758.05Z"/><path class="cls-8" d="M5.08,553.76a24.95,24.95,0,1,1,25,25,25,25,0,0,1-25-25Z"/><path class="cls-3" d="M0,553.76a30,30,0,1,1,30,30,30,30,0,0,1-30-30Zm3,0A27.07,27.07,0,1,0,30,526.7,27.06,27.06,0,0,0,3,553.76Z"/><path class="cls-4" d="M5.08,349.47a24.95,24.95,0,1,1,25,24.95,24.95,24.95,0,0,1-25-24.95Z"/><path class="cls-4" d="M0,349.47a30,30,0,1,1,30,30,30,30,0,0,1-30-30Zm3,0A27.07,27.07,0,1,0,30,322.41,27.06,27.06,0,0,0,3,349.47Z"/><path class="cls-5" d="M5.08,145.18a24.95,24.95,0,1,1,25,24.95,24.95,24.95,0,0,1-25-24.95Z"/><path class="cls-5" d="M0,145.18a30,30,0,1,1,30,30,30,30,0,0,1-30-30Zm3,0A27.07,27.07,0,1,0,30,118.12,27.06,27.06,0,0,0,3,145.18Z"/><path class="cls-1" d="M316.44,962.34a5.15,5.15,0,1,0,5.15-5.14,5.15,5.15,0,0,0-5.15,5.14Z"/><path class="cls-2" d="M316.44,758.05a5.15,5.15,0,1,0,5.15-5.14,5.15,5.15,0,0,0-5.15,5.14Z"/><path class="cls-3" d="M316.44,553.76a5.15,5.15,0,1,0,5.15-5.14,5.15,5.15,0,0,0-5.15,5.14Z"/><path class="cls-4" d="M316.44,349.47a5.15,5.15,0,1,0,5.15-5.14,5.16,5.16,0,0,0-5.15,5.14Z"/><path class="cls-5" d="M316.44,145.18a5.15,5.15,0,1,0,5.15-5.15,5.16,5.16,0,0,0-5.15,5.15Z"/><path class="cls-9" d="M37.15,148.19v4.05H23.57v-4.05h4.75V138.05a3.57,3.57,0,0,1-1,.82,12.58,12.58,0,0,1-1.42.79,9.81,9.81,0,0,1-1.59.6,5.21,5.21,0,0,1-1.45.24v-4.19a3.89,3.89,0,0,0,1.47-.38,14.18,14.18,0,0,0,1.71-.92A14.4,14.4,0,0,0,27.53,134a3.51,3.51,0,0,0,.79-.82H32.9v15.06Z"/><path class="cls-9" d="M22,358.66a15,15,0,0,1,.23-2.72,7.44,7.44,0,0,1,.82-2.26,7.59,7.59,0,0,1,1.61-1.94A14.38,14.38,0,0,1,27.21,350l2.43-1.29a17,17,0,0,0,1.76-1,4.44,4.44,0,0,0,1.07-.95,1.84,1.84,0,0,0,.37-1.12,2.22,2.22,0,0,0-.81-1.72,3.33,3.33,0,0,0-2.31-.72,4.93,4.93,0,0,0-1.47.21,5.51,5.51,0,0,0-1.25.59,6.73,6.73,0,0,0-1.07.82,8.8,8.8,0,0,0-.89.95l-2.88-3.31a7.57,7.57,0,0,1,1.24-1,11.79,11.79,0,0,1,1.89-1,13.9,13.9,0,0,1,2.41-.8,12.14,12.14,0,0,1,2.83-.32,10.15,10.15,0,0,1,3,.42,6.71,6.71,0,0,1,2.26,1.17,5.08,5.08,0,0,1,1.41,1.81,5.43,5.43,0,0,1,.48,2.29,4.7,4.7,0,0,1-.43,2.07,6.07,6.07,0,0,1-1.11,1.61,8,8,0,0,1-1.45,1.22c-.53.35-1,.65-1.53.92l-1.37.77c-.51.29-1,.61-1.52,1a14.14,14.14,0,0,0-1.39,1.07,4.94,4.94,0,0,0-1,1.08H38.09v4.05Z"/><path class="cls-9" d="M33.61,553.06a5.38,5.38,0,0,1,3.36,2,6.19,6.19,0,0,1,1.29,4,6.43,6.43,0,0,1-.62,2.84A6.07,6.07,0,0,1,35.9,564a8.14,8.14,0,0,1-2.73,1.37,12.22,12.22,0,0,1-3.61.49,11.65,11.65,0,0,1-4.5-.82,8.39,8.39,0,0,1-3.27-2.4l2.55-3.17a6.13,6.13,0,0,0,2.07,1.7,6.72,6.72,0,0,0,3,.61,5.13,5.13,0,0,0,3.12-.81,2.89,2.89,0,0,0,1.07-2.47,3.16,3.16,0,0,0-1.24-2.68,6.17,6.17,0,0,0-3.75-.94h-.94v-3.35h1a5,5,0,0,0,3.21-.92,2.89,2.89,0,0,0,1.14-2.36,2.34,2.34,0,0,0-.94-2,4.14,4.14,0,0,0-2.44-.67,5.4,5.4,0,0,0-2.76.71,5.52,5.52,0,0,0-2,2l-2.81-3.14a5.18,5.18,0,0,1,1.34-1.39,8.61,8.61,0,0,1,1.89-1.07,11.8,11.8,0,0,1,2.29-.71,13.26,13.26,0,0,1,2.54-.25,10.43,10.43,0,0,1,3.11.44,7.89,7.89,0,0,1,2.43,1.2,5.13,5.13,0,0,1,2.12,4.29,6.29,6.29,0,0,1-.29,1.9,5.63,5.63,0,0,1-.88,1.64,5.31,5.31,0,0,1-1.35,1.24,4.58,4.58,0,0,1-1.72.67Z"/><path class="cls-9" d="M31.2,771.69v-5H21.42v-4l11.22-14.39h3v14.36h2.94v4H35.68v5Zm-5.29-9H31.7v-7.56l-5.79,7.56Z"/><path class="cls-9" d="M30.49,961.24a8.82,8.82,0,0,1,3.12.55,7.22,7.22,0,0,1,2.47,1.56,7.13,7.13,0,0,1,1.63,2.41,8.61,8.61,0,0,1-.07,6.39,7.59,7.59,0,0,1-1.82,2.53A8.56,8.56,0,0,1,33,976.32a10.09,10.09,0,0,1-3.48.58,9.79,9.79,0,0,1-4.67-1.1,7.64,7.64,0,0,1-3.13-3l2.58-2.68a6.85,6.85,0,0,0,2.34,2.07,5.9,5.9,0,0,0,2.91.77,4.17,4.17,0,0,0,3-1.08,3.89,3.89,0,0,0-2.69-6.78,4.39,4.39,0,0,0-2.06.5A4,4,0,0,0,26.28,967H22.36c0-.06.05-.31.13-.75s.21-1,.34-1.67.28-1.44.44-2.28.32-1.69.5-2.56c.4-2.05.84-4.35,1.34-6.89H36.82v4.08H28.35l-1,5.32a2.89,2.89,0,0,1,1.19-.7,5.92,5.92,0,0,1,1.92-.27Z"/><path class="cls-10" d="M221.16,189.37,216,195.49l-2-2.22a.7.7,0,0,0-1,.94L215.5,197a.69.69,0,0,0,.52.24h0a.74.74,0,0,0,.53-.25l5.67-6.75a.71.71,0,0,0-.08-1A.7.7,0,0,0,221.16,189.37Z"/><path class="cls-10" d="M217.74,184a9.34,9.34,0,1,0,9.33,9.33A9.34,9.34,0,0,0,217.74,184Zm0,17.27a7.94,7.94,0,1,1,7.93-7.94A7.95,7.95,0,0,1,217.74,201.25Z"/><path class="cls-10" d="M216.61,181.87a.7.7,0,0,0,.7-.7V149.92a.7.7,0,0,0-.7-.7h-6.36c0-.57,0-1.23,0-1.86a.67.67,0,0,0-.21-.5.71.71,0,0,0-.49-.21h-1.51l-.14,0v-.5a.93.93,0,0,0-1.06-1.06H192.33a.92.92,0,0,0-.71.25,1,1,0,0,0-.28.72v.59l-.13,0h-1.56a.72.72,0,0,0-.71.71c0,.63,0,1.29,0,1.86h-6.47a.7.7,0,0,0-.7.7v44.52a.7.7,0,0,0,.7.71H206a.71.71,0,0,0,0-1.41H183.18V150.62h5.76v.06a.92.92,0,0,0,.23.75,1,1,0,0,0,.77.29h8.19a2.47,2.47,0,0,0,.65.62,1.46,1.46,0,0,0,.82.23,1.93,1.93,0,0,0,.57-.09,1.81,1.81,0,0,0,1.08-.81h8a1,1,0,0,0,.8-.3.93.93,0,0,0,.22-.75h5.65v30.55A.7.7,0,0,0,216.61,181.87Zm-23.86-35.12v-.24H206.5v1.56H192.75v-1.32Zm13,3.51h-4.67a1.09,1.09,0,0,0-1.07.68.63.63,0,0,1-.49.23,1.13,1.13,0,0,1-.29-.29,1.12,1.12,0,0,0-1-.57h-7.89c0-.58,0-1.51,0-2.26h1v.46a.88.88,0,0,0,1,1h14.59a.9.9,0,0,0,1-1V148h.94v2.21Z"/><path class="cls-10" d="M206.12,197.13H180.27V144.26h38.55v37.08a.7.7,0,0,0,1.4,0V143.56a.7.7,0,0,0-.7-.7h-40a.7.7,0,0,0-.7.7v54.27a.7.7,0,0,0,.7.7h26.55a.7.7,0,1,0,0-1.4Z"/><path class="cls-10" d="M211.61,179.53a.7.7,0,0,0-.7-.7H193.4a.7.7,0,1,0,0,1.4h17.51A.7.7,0,0,0,211.61,179.53Z"/><path class="cls-10" d="M210.91,173.53H193.4a.7.7,0,0,0,0,1.4h17.51a.7.7,0,0,0,0-1.4Z"/><path class="cls-10" d="M210.91,168.23H193.4a.7.7,0,1,0,0,1.4h17.51a.7.7,0,0,0,0-1.4Z"/><path class="cls-10" d="M210.91,162.93H193.4a.7.7,0,0,0,0,1.4h17.51a.7.7,0,0,0,0-1.4Z"/><path class="cls-10" d="M210.91,157.63H193.4a.7.7,0,1,0,0,1.4h17.51a.7.7,0,0,0,0-1.4Z"/><path class="cls-10" d="M193.54,185.53a.71.71,0,0,0,0,1.41h12.21a.71.71,0,0,0,0-1.41Z"/><path class="cls-10" d="M191.12,155.77a.7.7,0,0,0-.7-.7H186.3a.7.7,0,0,0-.71.7v4.12a.7.7,0,0,0,.71.7h4.12a.7.7,0,0,0,.7-.7Zm-1.4,3.42H187v-2.72h2.72Z"/><path class="cls-10" d="M191.12,162.8a.71.71,0,0,0-.7-.7H186.3a.71.71,0,0,0-.71.7v4.12a.7.7,0,0,0,.71.7h4.12a.7.7,0,0,0,.7-.7Zm-1.4,3.42H187V163.5h2.72Z"/><path class="cls-10" d="M191.12,169.83a.71.71,0,0,0-.7-.7H186.3a.71.71,0,0,0-.71.7V174a.7.7,0,0,0,.71.7h4.12a.7.7,0,0,0,.7-.7Zm-1.4,3.42H187v-2.71h2.72Z"/><path class="cls-10" d="M191.12,176.86a.71.71,0,0,0-.7-.7H186.3a.71.71,0,0,0-.71.7V181a.71.71,0,0,0,.71.71h4.12a.71.71,0,0,0,.7-.71Zm-1.4,3.42H187v-2.71h2.72Z"/><path class="cls-10" d="M190.42,183.19H186.3a.71.71,0,0,0-.71.7V188a.71.71,0,0,0,.71.71h4.12a.71.71,0,0,0,.7-.71v-4.12A.71.71,0,0,0,190.42,183.19Zm-.7,4.12H187V184.6h2.72Z"/><path class="cls-11" d="M159.23,116.3a2,2,0,0,0-.92-.65,3.18,3.18,0,0,0-1.09-.21,2.76,2.76,0,0,0-.63.07,2.64,2.64,0,0,0-.61.23,1.3,1.3,0,0,0-.46.41,1.09,1.09,0,0,0-.18.63,1.07,1.07,0,0,0,.43.9,3.88,3.88,0,0,0,1.08.53c.43.15.9.3,1.4.45a5.34,5.34,0,0,1,1.4.62,3.22,3.22,0,0,1,1.08,1.09,3.34,3.34,0,0,1,.43,1.82,4.31,4.31,0,0,1-.39,1.89,3.93,3.93,0,0,1-1.06,1.35,4.59,4.59,0,0,1-1.56.79,6.69,6.69,0,0,1-1.86.26,6.59,6.59,0,0,1-2.29-.39,5.72,5.72,0,0,1-2-1.25l2-2.25a2.87,2.87,0,0,0,1.08.91,3,3,0,0,0,1.35.33,2.84,2.84,0,0,0,.69-.09,2,2,0,0,0,.62-.24,1.54,1.54,0,0,0,.45-.43,1.18,1.18,0,0,0-.27-1.53,3.92,3.92,0,0,0-1.1-.58c-.44-.16-.92-.32-1.43-.48a6.32,6.32,0,0,1-1.42-.65,3.38,3.38,0,0,1-1.1-1.06,3.17,3.17,0,0,1-.44-1.75,4,4,0,0,1,.4-1.84,4.11,4.11,0,0,1,1.07-1.33,4.75,4.75,0,0,1,1.55-.8,6.37,6.37,0,0,1,1.8-.26,6.88,6.88,0,0,1,2.07.31,4.69,4.69,0,0,1,1.8,1.05Z"/><path class="cls-11" d="M167.1,115.66h-3.6v-2.54h10v2.54h-3.6v10.48H167.1Z"/><path class="cls-11" d="M176.44,113.12H185v2.65h-5.8v2.43h5.48v2.65h-5.48v2.65h6.12v2.64h-8.9Z"/><path class="cls-11" d="M189,113.12h4.7a9.14,9.14,0,0,1,1.85.18,4.2,4.2,0,0,1,1.53.64,3.13,3.13,0,0,1,1,1.21,4.21,4.21,0,0,1,.39,1.92,4.57,4.57,0,0,1-.36,1.92,3.15,3.15,0,0,1-1,1.23,3.91,3.91,0,0,1-1.48.65,8.35,8.35,0,0,1-1.86.2h-2v5.07H189Zm2.79,5.52h1.85a3.55,3.55,0,0,0,.73-.08,2,2,0,0,0,.62-.24,1.48,1.48,0,0,0,.45-.48,1.62,1.62,0,0,0,.17-.77,1.33,1.33,0,0,0-.23-.8,1.53,1.53,0,0,0-.57-.47,2.37,2.37,0,0,0-.77-.21,7.94,7.94,0,0,0-.83,0h-1.42Z"/><path class="cls-11" d="M207.71,119.63a7.51,7.51,0,0,1,.51-2.83,6.11,6.11,0,0,1,3.57-3.54,8.19,8.19,0,0,1,5.47,0,6.25,6.25,0,0,1,2.16,1.38,6.09,6.09,0,0,1,1.41,2.16,8.11,8.11,0,0,1,0,5.66,6.22,6.22,0,0,1-1.41,2.17,6.37,6.37,0,0,1-2.16,1.37,8,8,0,0,1-5.47,0,6,6,0,0,1-3.57-3.54A7.51,7.51,0,0,1,207.71,119.63Zm2.89,0a5,5,0,0,0,.27,1.68,3.87,3.87,0,0,0,.8,1.33,3.66,3.66,0,0,0,1.24.87,4.24,4.24,0,0,0,3.23,0,3.66,3.66,0,0,0,1.24-.87,3.7,3.7,0,0,0,.79-1.33,5.15,5.15,0,0,0,0-3.35,3.75,3.75,0,0,0-.79-1.34,3.66,3.66,0,0,0-1.24-.87,4.36,4.36,0,0,0-3.23,0,3.66,3.66,0,0,0-1.24.87,3.92,3.92,0,0,0-.8,1.34A5,5,0,0,0,210.6,119.63Z"/><path class="cls-11" d="M224.66,113.12h3.79l5.37,9h0v-9h2.79v13H233l-5.52-9.27h0v9.27h-2.79Z"/><path class="cls-11" d="M240.74,113.12h8.59v2.65h-5.8v2.43H249v2.65h-5.48v2.65h6.12v2.64h-8.91Z"/><path class="cls-12" d="M238.7,359.47V349.8a4,4,0,0,0-4-4H167.41a4,4,0,0,0-4,4v39a4,4,0,0,0,4,4h27.68l-.44,3.48H179.84a2.45,2.45,0,0,0-2.44,2.44v1.58a2.44,2.44,0,0,0,2.44,2.44h42.45a2.44,2.44,0,0,0,2.44-2.44v-1.58a2.44,2.44,0,0,0-2.44-2.44H207.48l-.44-3.48h27.69a4,4,0,0,0,4-4V361.05a.82.82,0,0,0-.59-.79A.83.83,0,0,0,238.7,359.47Zm-32.76,37.69a.82.82,0,0,0,.82.72h15.53a.79.79,0,0,1,.79.79v1.58a.79.79,0,0,1-.79.79H179.84a.79.79,0,0,1-.79-.79v-1.58a.79.79,0,0,1,.79-.79h15.54a.82.82,0,0,0,.81-.72l.56-4.41h8.63Zm31.11-36.11v27.72a2.32,2.32,0,0,1-2.32,2.33H167.41a2.33,2.33,0,0,1-2.33-2.33v-39a2.33,2.33,0,0,1,2.33-2.33h67.32a2.32,2.32,0,0,1,2.32,2.33v9.67a.82.82,0,0,0,.6.79A.82.82,0,0,0,237.05,361.05Z"/><path class="cls-12" d="M171.85,351.68a2.29,2.29,0,0,0,4.46,0,2.29,2.29,0,1,0,0-1,2.29,2.29,0,0,0-4.46,0,2.29,2.29,0,1,0,0,1Zm6.69-1.15a.64.64,0,0,1,.64.64.65.65,0,0,1-1.29,0A.65.65,0,0,1,178.54,350.53Zm-4.46,0a.64.64,0,0,1,.64.64.64.64,0,1,1-.64-.64Zm-5.1.64a.64.64,0,0,1,1.28,0,.64.64,0,1,1-1.28,0Z"/><path class="cls-12" d="M231.46,355.93H176.1a.83.83,0,0,0,0,1.65h55.36a.56.56,0,0,1,.56.56V386a.56.56,0,0,1-.56.56H170.62a.56.56,0,0,1-.56-.56v-27.9a.56.56,0,0,1,.56-.56H174a.83.83,0,0,0,0-1.65h-3.36a2.22,2.22,0,0,0-2.21,2.21V386a2.22,2.22,0,0,0,2.21,2.21h60.84a2.21,2.21,0,0,0,2.21-2.21v-27.9A2.21,2.21,0,0,0,231.46,355.93Z"/><path class="cls-12" d="M186.24,362.4a.82.82,0,0,0-1.16.11l-4.81,5.72-1.77-2a.82.82,0,0,0-1.23,1.09l2.4,2.7a.82.82,0,0,0,.62.28h0a.83.83,0,0,0,.62-.29l5.42-6.46A.83.83,0,0,0,186.24,362.4Z"/><path class="cls-12" d="M185.08,373.08l-4.81,5.72-1.77-2a.81.81,0,0,0-1.16-.07.82.82,0,0,0-.07,1.16l2.4,2.7a.82.82,0,0,0,.62.28h0a.84.84,0,0,0,.62-.3l5.42-6.45a.83.83,0,0,0-.1-1.16A.82.82,0,0,0,185.08,373.08Z"/><path class="cls-12" d="M191.29,378.2h11.47a.83.83,0,0,0,0-1.65H191.29a.83.83,0,0,0,0,1.65Z"/><path class="cls-12" d="M204.41,377.37a.83.83,0,0,0,.83.83h18a.83.83,0,0,0,0-1.65h-18A.83.83,0,0,0,204.41,377.37Z"/><path class="cls-12" d="M223.25,367.88a.83.83,0,0,0,0-1.65h-7.39a.83.83,0,0,0,0,1.65Z"/><path class="cls-12" d="M212.88,366.23H191.29a.83.83,0,0,0,0,1.65h21.59a.83.83,0,1,0,0-1.65Z"/><path class="cls-11" d="M158.08,318.46a2,2,0,0,0-.92-.65,3.19,3.19,0,0,0-1.1-.21,2.68,2.68,0,0,0-.62.07,2.64,2.64,0,0,0-.61.23,1.4,1.4,0,0,0-.46.41,1.11,1.11,0,0,0-.18.63,1,1,0,0,0,.43.9,3.88,3.88,0,0,0,1.08.54l1.4.44a5.34,5.34,0,0,1,1.4.62,3.14,3.14,0,0,1,1.51,2.91,4.36,4.36,0,0,1-.39,1.9,3.92,3.92,0,0,1-1.07,1.34,4.46,4.46,0,0,1-1.55.79,6.69,6.69,0,0,1-1.86.26,6.55,6.55,0,0,1-2.29-.39,5.72,5.72,0,0,1-2-1.25l2-2.24A3,3,0,0,0,155.3,326a2.71,2.71,0,0,0,.68-.09,2.06,2.06,0,0,0,.63-.24,1.42,1.42,0,0,0,.45-.43,1.08,1.08,0,0,0,.16-.6,1.1,1.1,0,0,0-.43-.93,3.92,3.92,0,0,0-1.1-.58c-.44-.16-.92-.32-1.43-.48a6,6,0,0,1-1.43-.65,3.34,3.34,0,0,1-1.09-1.06,3.15,3.15,0,0,1-.44-1.75,3.87,3.87,0,0,1,1.47-3.16,4.58,4.58,0,0,1,1.55-.81,6.37,6.37,0,0,1,1.8-.26,6.88,6.88,0,0,1,2.07.31,4.69,4.69,0,0,1,1.8,1.05Z"/><path class="cls-11" d="M166,317.82h-3.6v-2.54h10v2.54h-3.6v10.49H166Z"/><path class="cls-11" d="M175.29,315.28h8.58v2.65h-5.8v2.43h5.48V323h-5.48v2.65h6.12v2.65h-8.9Z"/><path class="cls-11" d="M187.85,315.28h4.69a9.17,9.17,0,0,1,1.86.18,4.38,4.38,0,0,1,1.53.64,3.13,3.13,0,0,1,1,1.21,4.21,4.21,0,0,1,.39,1.92,4.54,4.54,0,0,1-.36,1.92,3.25,3.25,0,0,1-1,1.23,3.76,3.76,0,0,1-1.48.65,8.42,8.42,0,0,1-1.86.2h-2v5.08h-2.78Zm2.78,5.52h1.86a4.18,4.18,0,0,0,.72-.07,2.08,2.08,0,0,0,.63-.25,1.48,1.48,0,0,0,.45-.48,1.6,1.6,0,0,0,.16-.77,1.33,1.33,0,0,0-.22-.8,1.51,1.51,0,0,0-.57-.46,2.36,2.36,0,0,0-.78-.22,7.75,7.75,0,0,0-.82,0h-1.43Z"/><path class="cls-11" d="M209.68,317.82h-3.61v-2.54h10v2.54h-3.61v10.49h-2.78Z"/><path class="cls-11" d="M217.58,315.28h3l2,8.35h0l2.64-8.35h2.59l2.63,8.57h0l2.12-8.57h2.82l-3.69,13h-2.48l-2.79-9h0l-2.78,9h-2.4Z"/><path class="cls-11" d="M237.5,321.79A7.54,7.54,0,0,1,238,319a6.11,6.11,0,0,1,1.42-2.16,6.22,6.22,0,0,1,2.16-1.37,8,8,0,0,1,5.46,0,6.22,6.22,0,0,1,2.16,1.37,6.11,6.11,0,0,1,1.42,2.16,8.13,8.13,0,0,1,0,5.67,6.3,6.3,0,0,1-1.42,2.16,6.37,6.37,0,0,1-2.16,1.37,8,8,0,0,1-5.46,0,6.37,6.37,0,0,1-2.16-1.37,6.3,6.3,0,0,1-1.42-2.16A7.56,7.56,0,0,1,237.5,321.79Zm2.89,0a5,5,0,0,0,.28,1.69,3.93,3.93,0,0,0,.8,1.32,3.46,3.46,0,0,0,1.24.88,4.36,4.36,0,0,0,3.23,0,3.64,3.64,0,0,0,1.24-.88,3.9,3.9,0,0,0,.79-1.32,5.18,5.18,0,0,0,0-3.36,3.9,3.9,0,0,0-.79-1.34,3.76,3.76,0,0,0-1.24-.87,4.36,4.36,0,0,0-3.23,0,3.56,3.56,0,0,0-1.24.87,3.92,3.92,0,0,0-.8,1.34A5,5,0,0,0,240.39,321.79Z"/><path class="cls-13" d="M184.64,583.67a.77.77,0,0,0-.59-.51.86.86,0,0,0-.32,0l-10.12-2.49-.13-6.49,4.88,3.94a.78.78,0,0,0,.85.09l8-4.09a3.13,3.13,0,1,0-2.86-5.57L179.56,571l-8.16-6.54a7.18,7.18,0,0,0-5.31-2.22,7.14,7.14,0,0,0-7,7.3l.26,14a7.19,7.19,0,0,0,7.1,7h.15l11.85.16,6.09,12.1,0,.06a4.08,4.08,0,0,0,2.55,2,2.46,2.46,0,0,0,.6.07,3.34,3.34,0,0,0,1.9-.63c1.15-.78,2.16-2.26.54-4.86Zm4.07,19.38a1.63,1.63,0,0,1-1.28.32,2.62,2.62,0,0,1-1.52-1.29l-6.29-12.5a.78.78,0,0,0-.7-.43L166.78,589l-.2,0a5.6,5.6,0,0,1-5.67-5.48l-.27-14a5.58,5.58,0,0,1,5.48-5.7,5.65,5.65,0,0,1,4.18,1.77l.08.08,8.59,6.89a.79.79,0,0,0,.86.09L185,570a1.53,1.53,0,0,1,2.09.68,1.56,1.56,0,0,1-.67,2.09l-7.5,3.86-5.79-4.69a.8.8,0,0,0-1.29.63l.17,8.79a.8.8,0,0,0,.6.75l10.69,2.63,5.36,15.4a.77.77,0,0,0,.07.16C189.84,601.94,189.38,602.6,188.71,603.05Z"/><path class="cls-13" d="M166.63,560.68a5.71,5.71,0,0,0,2.77-.71,6,6,0,0,0,2.18-8.27,6.24,6.24,0,0,0-3.61-3,5.75,5.75,0,0,0-7.34,4.08,6.31,6.31,0,0,0,6,7.87Zm-4.48-7.48a4.17,4.17,0,0,1,4-3.17,4.53,4.53,0,0,1,1.31.2,4.7,4.7,0,0,1,2.71,2.23,4.35,4.35,0,1,1-7.6,4.22A4.71,4.71,0,0,1,162.15,553.2Z"/><path class="cls-13" d="M175.12,592.64H166a8.35,8.35,0,0,1-8.34-8.33V570.49a.79.79,0,1,0-1.57,0v13.82a9.92,9.92,0,0,0,9.12,9.87v9.3a.79.79,0,1,0,1.57,0v-9.27h8.37a.79.79,0,1,0,0-1.57Z"/><path class="cls-13" d="M234,590.55a7.19,7.19,0,0,0,7.1-7l.27-14a7.18,7.18,0,0,0-2-5.11,7.16,7.16,0,0,0-10.34,0L220.88,571l-4.75-2.44a3.13,3.13,0,0,0-2.86,5.57l8,4.09a.78.78,0,0,0,.85-.09l4.88-3.94-.12,6.49-10.13,2.49a.86.86,0,0,0-.32,0,.77.77,0,0,0-.59.51l-5.5,15.82c-1.62,2.6-.6,4.08.54,4.86a3.34,3.34,0,0,0,1.9.63,2.46,2.46,0,0,0,.6-.07,4.08,4.08,0,0,0,2.55-2l0-.06,6.09-12.1,11.85-.16Zm-.34-1.56-12.15.16a.78.78,0,0,0-.7.43l-6.29,12.5a2.62,2.62,0,0,1-1.52,1.29,1.63,1.63,0,0,1-1.28-.32c-.66-.45-1.13-1.11,0-2.8a.77.77,0,0,0,.07-.16l5.36-15.4,10.69-2.63a.79.79,0,0,0,.6-.75l.17-8.79a.8.8,0,0,0-.44-.72.82.82,0,0,0-.85.09l-5.79,4.69-7.5-3.86a1.56,1.56,0,1,1,1.42-2.77l5.21,2.68a.78.78,0,0,0,.85-.09l8.59-6.89.09-.08a5.65,5.65,0,0,1,4.17-1.77h0a5.58,5.58,0,0,1,5.48,5.7l-.27,14a5.6,5.6,0,0,1-5.67,5.48Z"/><path class="cls-13" d="M231,560a5.78,5.78,0,0,0,2.77.72,6.12,6.12,0,0,0,1.78-.28,6.34,6.34,0,0,0,4.22-7.6,5.75,5.75,0,0,0-7.34-4.08,6.37,6.37,0,0,0-4.22,7.6A5.78,5.78,0,0,0,231,560Zm-.81-7.51a4.7,4.7,0,0,1,2.71-2.23,4.53,4.53,0,0,1,1.31-.2,4.17,4.17,0,0,1,4,3.17,4.79,4.79,0,0,1-3.17,5.71,4.18,4.18,0,0,1-5.35-3A4.72,4.72,0,0,1,230.23,552.46Z"/><path class="cls-13" d="M243.6,569.7a.79.79,0,0,0-.79.79v13.82a8.34,8.34,0,0,1-8.33,8.33h-9.16a.79.79,0,1,0,0,1.57h8.37v9.27a.79.79,0,1,0,1.57,0v-9.3a9.92,9.92,0,0,0,9.12-9.87V570.49A.78.78,0,0,0,243.6,569.7Z"/><path class="cls-13" d="M213.91,580.32a.79.79,0,0,0,0-1.57H184.1a.79.79,0,1,0,0,1.57h14.75v23.61a.79.79,0,0,0,1.58,0V580.32Z"/><path class="cls-13" d="M176.59,554.62a.65.65,0,0,0,.27,0l6.29-2.34a.78.78,0,0,0,.46-1,.77.77,0,0,0-1-.46l-6.29,2.34a.78.78,0,0,0,.28,1.52Z"/><path class="cls-13" d="M176.31,557.64,182.6,560a.65.65,0,0,0,.27,0,.78.78,0,0,0,.28-1.52l-6.29-2.35a.79.79,0,0,0-.55,1.48Z"/><path class="cls-11" d="M149.2,526.87a2,2,0,0,0-.92-.65,3.21,3.21,0,0,0-1.09-.22,2.79,2.79,0,0,0-.63.08,2.64,2.64,0,0,0-.61.23,1.3,1.3,0,0,0-.46.41,1.17,1.17,0,0,0,.25,1.53,3.88,3.88,0,0,0,1.08.53c.43.15.9.3,1.4.44a5.71,5.71,0,0,1,1.4.63,3.22,3.22,0,0,1,1.08,1.09,3.34,3.34,0,0,1,.43,1.82,4.31,4.31,0,0,1-.39,1.89,3.93,3.93,0,0,1-1.06,1.35,4.59,4.59,0,0,1-1.56.79,6.68,6.68,0,0,1-1.86.25,6.55,6.55,0,0,1-2.29-.38,5.87,5.87,0,0,1-2-1.25l2-2.25a2.87,2.87,0,0,0,1.08.91,2.93,2.93,0,0,0,1.35.33,2.84,2.84,0,0,0,.69-.09,2,2,0,0,0,.62-.25,1.51,1.51,0,0,0,.45-.42,1.09,1.09,0,0,0,.17-.61,1.13,1.13,0,0,0-.44-.93,3.91,3.91,0,0,0-1.1-.57c-.44-.16-.92-.32-1.43-.48a6.32,6.32,0,0,1-1.42-.65,3.38,3.38,0,0,1-1.1-1.06,3.17,3.17,0,0,1-.44-1.75,4,4,0,0,1,.4-1.84,4.11,4.11,0,0,1,1.07-1.33,4.75,4.75,0,0,1,1.55-.8,6,6,0,0,1,1.8-.26,6.88,6.88,0,0,1,2.07.31,4.69,4.69,0,0,1,1.8,1.05Z"/><path class="cls-11" d="M157.07,526.23h-3.6v-2.54h10v2.54h-3.6v10.48h-2.79Z"/><path class="cls-11" d="M166.41,523.69H175v2.65h-5.8v2.42h5.48v2.66h-5.48v2.64h6.12v2.65h-8.9Z"/><path class="cls-11" d="M179,523.69h4.7a9.14,9.14,0,0,1,1.85.18,4.2,4.2,0,0,1,1.53.64,3.13,3.13,0,0,1,1,1.21,4.21,4.21,0,0,1,.39,1.92,4.57,4.57,0,0,1-.36,1.92,3.25,3.25,0,0,1-1,1.23,3.91,3.91,0,0,1-1.48.65,8.35,8.35,0,0,1-1.86.2h-2v5.07H179Zm2.79,5.52h1.85a3.38,3.38,0,0,0,.72-.08,1.77,1.77,0,0,0,.63-.25,1.36,1.36,0,0,0,.45-.47,1.62,1.62,0,0,0,.17-.77,1.31,1.31,0,0,0-.23-.8,1.53,1.53,0,0,0-.57-.47,2.36,2.36,0,0,0-.78-.21,7.63,7.63,0,0,0-.82,0h-1.42Z"/><path class="cls-11" d="M200.8,526.23h-3.6v-2.54h10v2.54h-3.61v10.48H200.8Z"/><path class="cls-11" d="M210,523.69h2.78v4.85h5.41v-4.85H221v13h-2.78v-5.63h-5.41v5.63H210Z"/><path class="cls-11" d="M225,523.69h4.89a8.29,8.29,0,0,1,1.83.19,4.33,4.33,0,0,1,1.52.64,3.16,3.16,0,0,1,1,1.22,4.15,4.15,0,0,1,.39,1.9A3.89,3.89,0,0,1,234,530a3.11,3.11,0,0,1-2,1.22l3.21,5.5H231.8l-2.64-5.2h-1.37v5.2H225Zm2.79,5.39h1.64l.79,0a2.29,2.29,0,0,0,.76-.17,1.25,1.25,0,0,0,.56-.43,1.32,1.32,0,0,0,.23-.83,1.42,1.42,0,0,0-.2-.79,1.44,1.44,0,0,0-.5-.45,2.3,2.3,0,0,0-.7-.21,4.93,4.93,0,0,0-.76,0h-1.82Z"/><path class="cls-11" d="M238.1,523.69h8.59v2.65h-5.8v2.42h5.48v2.66h-5.48v2.64H247v2.65H238.1Z"/><path class="cls-11" d="M250.77,523.69h8.59v2.65h-5.8v2.42H259v2.66h-5.48v2.64h6.12v2.65h-8.91Z"/><path class="cls-14" d="M193.42,770.52a1,1,0,1,0-1.09-1.71A14.45,14.45,0,0,0,188.11,789a1,1,0,0,0,.84.45,1,1,0,0,0,.56-.18,1,1,0,0,0,.28-1.4,12.41,12.41,0,0,1,3.63-17.39Z"/><path class="cls-14" d="M187.35,796.75a1,1,0,0,0,.6.2,1,1,0,0,0,.6-1.82c-4.24-3.16-6.78-8.65-6.78-14.7a16.79,16.79,0,0,1,10.69-16.07,1,1,0,1,0-.76-1.87,19,19,0,0,0-11.95,17.94C179.75,787.12,182.59,793.22,187.35,796.75Z"/><path class="cls-14" d="M196.62,773.44l-1.82.39a1,1,0,0,0-.64.45,1,1,0,0,0-.13.77l.74,3.25a1,1,0,0,0,1,.78.75.75,0,0,0,.21,0l5.69-1.24.91,4.55a1.05,1.05,0,0,0,.44.65,1,1,0,0,0,.55.16l.22,0,5.45-1.19a1,1,0,0,0,.77-1.22L209,776.23l4.74-1a1,1,0,0,0,.64-.44,1,1,0,0,0,.14-.77l-.75-3.25a1,1,0,0,0-1.2-.76l-2.19.47L207.18,756a1,1,0,0,0-1.2-.77l-1.4.31-1.4-2.8L202.05,748l-.63-3.17a1,1,0,0,0-.43-.65,1.05,1.05,0,0,0-.77-.15l-5.45,1.19a1,1,0,0,0-.65.45,1,1,0,0,0-.12.78l.77,3.15,1,4.77-.11,3.12-1.4.3a1.07,1.07,0,0,0-.64.44,1,1,0,0,0-.13.77Zm7.73,7.52-.64-3.16,3.36-.73.73,3.14Zm7.92-7.52-15.75,3.43-.29-1.28L212,772.17Zm-4.09-3.34-9.75,2.13-2.76-12.69,1.05-.23h.13l7.4-1.61.11,0,1.06-.23Zm-10.62-17-.61-2.94,1.49-.32,1.87-.41.69,2.92-2.13.46Zm2.08-6.85.24,1.21-1.53.33-1.84.4-.3-1.19Zm-1.88,8.88,2-.43,1.95-.43.87,1.74-4.85,1Z"/><path class="cls-14" d="M223.37,804.26H202.09l0-1.32h1a1,1,0,0,0,1-1v-12h12.22a1,1,0,0,0,1-1v-2.53a1,1,0,0,0-1-1H192.08a1,1,0,0,0-1,1v2.53a1,1,0,0,0,1,1h1.11v4.16c-1.64,3.1-3.82,7.51-5.15,10.2h-4.35a1,1,0,0,0-1,1v4.27a1,1,0,0,0,1,1h39.68a1,1,0,0,0,1-1v-4.27A1,1,0,0,0,223.37,804.26Zm-30.28-16.38v-.51h22.17v.51H203a1,1,0,0,0-1,1v12h-6.82v-12a1,1,0,0,0-1-1Zm29.27,20.65H184.7v-2.24h4a1,1,0,0,0,.91-.57c.87-1.78,2.26-4.59,3.61-7.25v3.46a1,1,0,0,0,1,1H200l.09,2.37a1,1,0,0,0,1,1h21.24Z"/><path class="cls-14" d="M198.78,795.51a2.72,2.72,0,1,0-2.72-2.72A2.72,2.72,0,0,0,198.78,795.51Zm0-3.41a.7.7,0,1,1-.7.69A.69.69,0,0,1,198.78,792.1Z"/><path class="cls-11" d="M153.73,726.62a2,2,0,0,0-.92-.66,3.28,3.28,0,0,0-1.1-.21,2.7,2.7,0,0,0-.62.08,2.14,2.14,0,0,0-.61.23,1.33,1.33,0,0,0-.47.41,1.14,1.14,0,0,0-.17.63,1.06,1.06,0,0,0,.42.9,4.18,4.18,0,0,0,1.08.53c.44.15.91.3,1.41.44a5.89,5.89,0,0,1,1.4.63,3.08,3.08,0,0,1,1.5,2.9,4.33,4.33,0,0,1-.39,1.9,3.7,3.7,0,0,1-1.06,1.34,4.38,4.38,0,0,1-1.55.79,6.36,6.36,0,0,1-1.87.26,6.73,6.73,0,0,1-2.28-.38,5.56,5.56,0,0,1-2-1.26l2-2.24a2.81,2.81,0,0,0,1.08.91,2.9,2.9,0,0,0,1.34.32,2.71,2.71,0,0,0,.69-.08,2.3,2.3,0,0,0,.62-.25,1.3,1.3,0,0,0,.45-.42,1.12,1.12,0,0,0,.17-.61,1.13,1.13,0,0,0-.44-.93,4.12,4.12,0,0,0-1.09-.58c-.45-.16-.92-.32-1.43-.48a6.37,6.37,0,0,1-1.43-.64,3.51,3.51,0,0,1-1.1-1.07,3.13,3.13,0,0,1-.43-1.75,4,4,0,0,1,.4-1.84,3.92,3.92,0,0,1,1.07-1.32,4.52,4.52,0,0,1,1.54-.8,6,6,0,0,1,1.8-.27,6.79,6.79,0,0,1,2.07.32,4.65,4.65,0,0,1,1.81,1Z"/><path class="cls-11" d="M161.6,726H158v-2.54h10V726h-3.61v10.49H161.6Z"/><path class="cls-11" d="M170.93,723.43h8.59v2.65h-5.8v2.43h5.48v2.65h-5.48v2.65h6.12v2.65h-8.91Z"/><path class="cls-11" d="M183.5,723.43h4.69a9.23,9.23,0,0,1,1.86.19,4.07,4.07,0,0,1,1.52.63,3.19,3.19,0,0,1,1,1.22,4.21,4.21,0,0,1,.38,1.92,4.66,4.66,0,0,1-.35,1.91,3.14,3.14,0,0,1-1,1.24,4,4,0,0,1-1.48.65,8.34,8.34,0,0,1-1.85.19h-2v5.08H183.5Zm2.78,5.52h1.86a3.38,3.38,0,0,0,.72-.07,1.93,1.93,0,0,0,.63-.25,1.21,1.21,0,0,0,.44-.48,1.55,1.55,0,0,0,.17-.76,1.31,1.31,0,0,0-.22-.8,1.53,1.53,0,0,0-.57-.47,2.36,2.36,0,0,0-.78-.21,7.83,7.83,0,0,0-.82,0h-1.43Z"/><path class="cls-11" d="M203,723.43h8.47v2.65h-5.69v2.65H211v2.65h-5.27v5.08H203Z"/><path class="cls-11" d="M214.21,730a7.6,7.6,0,0,1,.51-2.84,6.3,6.3,0,0,1,1.42-2.16,6.37,6.37,0,0,1,2.16-1.37,8,8,0,0,1,5.46,0,6.37,6.37,0,0,1,2.16,1.37,6.3,6.3,0,0,1,1.42,2.16,8.13,8.13,0,0,1,0,5.67,6.11,6.11,0,0,1-3.58,3.53,8,8,0,0,1-5.46,0,6.11,6.11,0,0,1-3.58-3.53A7.54,7.54,0,0,1,214.21,730Zm2.89,0a5,5,0,0,0,.28,1.68,4,4,0,0,0,.79,1.33,3.7,3.7,0,0,0,1.25.87,4,4,0,0,0,1.61.31,4.07,4.07,0,0,0,1.62-.31,3.76,3.76,0,0,0,1.24-.87,4,4,0,0,0,.79-1.33A4.78,4.78,0,0,0,225,730a4.86,4.86,0,0,0-.28-1.68,3.85,3.85,0,0,0-.79-1.33,3.64,3.64,0,0,0-1.24-.88,4.25,4.25,0,0,0-1.62-.31,4.16,4.16,0,0,0-1.61.31,3.59,3.59,0,0,0-1.25.88,3.85,3.85,0,0,0-.79,1.33A5.1,5.1,0,0,0,217.1,730Z"/><path class="cls-11" d="M241.82,731.44a6.34,6.34,0,0,1-.34,2.13,4.63,4.63,0,0,1-1,1.69,4.7,4.7,0,0,1-1.67,1.13,6.9,6.9,0,0,1-4.63,0,4.57,4.57,0,0,1-1.66-1.13,4.51,4.51,0,0,1-1-1.69,6.34,6.34,0,0,1-.34-2.13v-8H234v7.9a3.37,3.37,0,0,0,.19,1.12,2.73,2.73,0,0,0,.53.89,2.29,2.29,0,0,0,.81.59,2.48,2.48,0,0,0,1,.21,2.45,2.45,0,0,0,1-.21,2.49,2.49,0,0,0,.81-.59,2.71,2.71,0,0,0,.52-.89,3.14,3.14,0,0,0,.19-1.12v-7.9h2.78Z"/><path class="cls-11" d="M245.82,723.43h4.89a8.34,8.34,0,0,1,1.83.2,4.33,4.33,0,0,1,1.52.64,3.16,3.16,0,0,1,1,1.22,4.12,4.12,0,0,1,.39,1.9,3.89,3.89,0,0,1-.7,2.35,3.11,3.11,0,0,1-2,1.22l3.21,5.5h-3.34L250,731.25h-1.37v5.21h-2.79Zm2.79,5.4h1.64l.79,0a2.56,2.56,0,0,0,.76-.17,1.25,1.25,0,0,0,.56-.43,1.34,1.34,0,0,0,.23-.83,1.42,1.42,0,0,0-.2-.79,1.27,1.27,0,0,0-.5-.45,2.05,2.05,0,0,0-.7-.21,5,5,0,0,0-.76-.06h-1.82Z"/><path class="cls-15" d="M215.91,979.72a1.68,1.68,0,0,0,1.3-.62l2.42,1.17a1.34,1.34,0,0,0,0,.35,1.7,1.7,0,1,0,3-1.08l3.43-4.66a1.56,1.56,0,0,0,.64.13,1.71,1.71,0,0,0,1.26-.56l2.48,1.31a1.44,1.44,0,0,0-.05.41,1.68,1.68,0,1,0,.43-1.13l-2.47-1.31a1.84,1.84,0,0,0,.05-.41,1.7,1.7,0,1,0-3,1.08l-3.43,4.65a1.68,1.68,0,0,0-2,.49l-2.41-1.17a2,2,0,0,0,0-.35,1.69,1.69,0,1,0-1.69,1.7ZM232,975.29a.88.88,0,1,1-.88.88A.89.89,0,0,1,232,975.29Zm-5.38-2.85a.88.88,0,1,1-.87.88A.87.87,0,0,1,226.66,972.44Zm-5.37,7.3a.88.88,0,1,1-.88.88A.88.88,0,0,1,221.29,979.74Zm-5.38-2.59a.88.88,0,1,1-.88.87A.87.87,0,0,1,215.91,977.15Z"/><path class="cls-15" d="M222.57,983.63H220a.44.44,0,0,0-.44.44v5.19a.44.44,0,0,0,.44.44.44.44,0,0,0,.44-.44v-4.75h1.68v4.75a.44.44,0,0,0,.44.44.44.44,0,0,0,.43-.44v-5.19A.44.44,0,0,0,222.57,983.63Z"/><path class="cls-15" d="M233.32,979.13h-2.56a.44.44,0,0,0-.44.44v9.69a.44.44,0,1,0,.88,0V980h1.68v9.25a.44.44,0,1,0,.88,0v-9.69A.44.44,0,0,0,233.32,979.13Z"/><path class="cls-15" d="M217.19,981h-2.56a.44.44,0,0,0-.44.44v7.83a.44.44,0,1,0,.88,0v-7.39h1.68v7.39a.44.44,0,1,0,.88,0v-7.83A.44.44,0,0,0,217.19,981Z"/><path class="cls-15" d="M227.94,977h-2.56a.44.44,0,0,0-.43.44v11.8a.44.44,0,1,0,.87,0V977.9h1.68v11.36a.44.44,0,0,0,.44.44.44.44,0,0,0,.44-.44v-11.8A.44.44,0,0,0,227.94,977Z"/><path class="cls-15" d="M193.09,996.68H174.84a.49.49,0,0,0-.48.48.48.48,0,0,0,.48.48h18.25a.48.48,0,0,0,.48-.48A.49.49,0,0,0,193.09,996.68Z"/><path class="cls-15" d="M172.94,996.68h-2.69a.49.49,0,0,0-.48.48.48.48,0,0,0,.48.48h2.69a.47.47,0,0,0,.47-.48A.48.48,0,0,0,172.94,996.68Z"/><path class="cls-15" d="M193.09,991.61H178.91a.48.48,0,0,0,0,1h14.18a.48.48,0,0,0,0-1Z"/><path class="cls-15" d="M170.25,992.57h6.56a.48.48,0,0,0,0-1h-6.56a.48.48,0,1,0,0,1Z"/><path class="cls-15" d="M193.09,986.54h-4.57a.48.48,0,1,0,0,1h4.57a.48.48,0,0,0,0-1Z"/><path class="cls-15" d="M170.25,987.5h16.49a.48.48,0,0,0,0-1H170.25a.48.48,0,1,0,0,1Z"/><path class="cls-15" d="M193.09,981.47h-5.28a.48.48,0,0,0-.48.48.49.49,0,0,0,.48.48h5.28a.49.49,0,0,0,.48-.48A.48.48,0,0,0,193.09,981.47Z"/><path class="cls-15" d="M170.25,982.43h15.43a.49.49,0,0,0,.48-.48.48.48,0,0,0-.48-.48H170.25a.48.48,0,0,0-.48.48A.49.49,0,0,0,170.25,982.43Z"/><path class="cls-15" d="M193.09,976.4H175.4a.48.48,0,1,0,0,1h17.69a.48.48,0,1,0,0-1Z"/><path class="cls-15" d="M170.25,977.35h3a.48.48,0,0,0,0-1h-3a.48.48,0,1,0,0,1Z"/><path class="cls-15" d="M198.47,970.24v-.06a.08.08,0,0,1,0,0s0,0,0,0a.08.08,0,0,0,0,0l0,0,0,0,0,0-7-7.17h0l-.1-.07,0,0a.54.54,0,0,0-.22,0H165.34a.48.48,0,0,0-.48.48v43.48a.48.48,0,0,0,.48.48H198a.48.48,0,0,0,.48-.48V970.24Zm-32.65,35.88V963.58h24.7v6.69a.49.49,0,0,0,.48.48h3.93a.48.48,0,0,0,0-1h-3.45v-5.51l6,6.18v35.66Z"/><path class="cls-15" d="M235.06,996.68H216.81a.48.48,0,0,0-.48.48.47.47,0,0,0,.48.48h18.25a.48.48,0,0,0,.48-.48A.49.49,0,0,0,235.06,996.68Z"/><path class="cls-15" d="M214.9,996.68h-2.68a.48.48,0,0,0-.48.48.47.47,0,0,0,.48.48h2.68a.47.47,0,0,0,.48-.48A.48.48,0,0,0,214.9,996.68Z"/><path class="cls-15" d="M235.06,991.61H220.88a.48.48,0,1,0,0,1h14.18a.48.48,0,0,0,0-1Z"/><path class="cls-15" d="M212.22,992.57h6.56a.48.48,0,0,0,0-1h-6.56a.48.48,0,1,0,0,1Z"/><path class="cls-15" d="M240.44,970.24v-.06l0,0v0l0,0,0,0s0,0,0,0l0,0-7-7.17h0l-.1-.07,0,0a.46.46,0,0,0-.21,0H207.31a.47.47,0,0,0-.48.48v43.48a.47.47,0,0,0,.48.48H240a.47.47,0,0,0,.47-.48V970.24Zm-32.66,35.88V963.58h24.71v6.69a.49.49,0,0,0,.48.48h3.93a.48.48,0,0,0,0-1h-3.45v-5.51l6,6.18v35.66Z"/><path class="cls-11" d="M159,927.3a2,2,0,0,0-.92-.65,3.19,3.19,0,0,0-1.1-.21,2.68,2.68,0,0,0-.62.07,2.64,2.64,0,0,0-.61.23,1.43,1.43,0,0,0-.46.42,1.05,1.05,0,0,0-.18.62,1,1,0,0,0,.43.9,3.88,3.88,0,0,0,1.08.54c.43.15.9.29,1.4.44a5.71,5.71,0,0,1,1.4.63,3.48,3.48,0,0,1,1.08,1.08,3.36,3.36,0,0,1,.43,1.82,4.33,4.33,0,0,1-.39,1.9,3.83,3.83,0,0,1-1.07,1.34,4.29,4.29,0,0,1-1.55.79,6.69,6.69,0,0,1-1.86.26,6.55,6.55,0,0,1-2.29-.39,5.48,5.48,0,0,1-2-1.25l2-2.24a3,3,0,0,0,1.08.91,3,3,0,0,0,1.35.32,3.23,3.23,0,0,0,.68-.08,2.37,2.37,0,0,0,.63-.25,1.36,1.36,0,0,0,.44-.42,1.06,1.06,0,0,0,.17-.61,1.12,1.12,0,0,0-.43-.93,3.92,3.92,0,0,0-1.1-.58c-.44-.16-.92-.32-1.43-.48a6.37,6.37,0,0,1-1.43-.64,3.48,3.48,0,0,1-1.09-1.07,3,3,0,0,1-.44-1.75,3.87,3.87,0,0,1,1.47-3.16,4.39,4.39,0,0,1,1.55-.8,6,6,0,0,1,1.8-.27,6.88,6.88,0,0,1,2.07.31,4.84,4.84,0,0,1,1.8,1Z"/><path class="cls-11" d="M166.87,926.66h-3.6v-2.54h10v2.54h-3.6v10.49h-2.79Z"/><path class="cls-11" d="M176.21,924.12h8.58v2.65H179v2.43h5.48v2.65H179v2.65h6.12v2.65h-8.9Z"/><path class="cls-11" d="M188.77,924.12h4.69a8.5,8.5,0,0,1,1.86.19,4.19,4.19,0,0,1,1.53.63,3.2,3.2,0,0,1,1,1.21,4.22,4.22,0,0,1,.39,1.93,4.49,4.49,0,0,1-.36,1.91,3.1,3.1,0,0,1-1,1.23,3.92,3.92,0,0,1-1.48.66,8.43,8.43,0,0,1-1.86.19h-2v5.08h-2.79Zm2.79,5.52h1.85a3.38,3.38,0,0,0,.72-.07,1.85,1.85,0,0,0,.63-.25,1.48,1.48,0,0,0,.45-.48,1.58,1.58,0,0,0,.16-.76,1.31,1.31,0,0,0-.22-.8,1.44,1.44,0,0,0-.57-.47,2.36,2.36,0,0,0-.78-.21,7.67,7.67,0,0,0-.82-.05h-1.42Z"/><path class="cls-11" d="M208.26,924.12h8.48v2.65H211v2.65h5.27v2.65H211v5.08h-2.78Z"/><path class="cls-11" d="M220.13,924.12h2.78v13h-2.78Z"/><path class="cls-11" d="M225.63,924.12h3.17l3.13,8.54h0l3.18-8.54h3l-5.21,13h-2.23Z"/><path class="cls-11" d="M241,924.12h8.58v2.65h-5.8v2.43h5.48v2.65h-5.48v2.65h6.12v2.65H241Z"/></g><g id="枠"><path class="cls-16" d="M360.45,130.32a29.87,29.87,0,0,0,6.57-7.48,2.4,2.4,0,0,1,.19-.29c-.35,0-.35,0-12.69,0a22.68,22.68,0,0,0-2.88.12v-2.17a16.07,16.07,0,0,0,2.9.17h13.11a3.74,3.74,0,0,0,1.47-.17l1.15,1.34a6.31,6.31,0,0,0-.95,1.26,35.49,35.49,0,0,1-7.56,8.63c.85.94,1.93,2.3,3.29,4.09l-1.7,1.4a36,36,0,0,0-4.42-5.65,37.57,37.57,0,0,0-4.58-4.35l1.54-1.17a34.11,34.11,0,0,1,3.15,2.83Z"/><path class="cls-16" d="M372.64,132.46a19.86,19.86,0,0,0,3,.16h12.6a17.56,17.56,0,0,0,3-.16v2.27a26.07,26.07,0,0,0-3-.11H375.58a25.63,25.63,0,0,0-2.94.11Zm2.32-11a14.86,14.86,0,0,0,2.81.17h8.37a14,14,0,0,0,2.76-.17v2.26a21.53,21.53,0,0,0-2.74-.12h-8.41a21.72,21.72,0,0,0-2.79.12Z"/><path class="cls-16" d="M408,135.24a10.52,10.52,0,0,0,2.23-.14v2a13,13,0,0,0-2.23-.12H396.86a13.11,13.11,0,0,0-2.25.12v-2a10.79,10.79,0,0,0,2.25.14h6.76c.48-2.28,1-5.66,1.22-7.75H399a16.07,16.07,0,0,0-2.18.09v-1.91a14.53,14.53,0,0,0,2.23.14h5.91a3.27,3.27,0,0,0,1.27-.16l.89.78a4.84,4.84,0,0,0-.44,1.89c-.5,3.56-.69,4.64-1.12,6.92Z"/><path class="cls-16" d="M423,123.9a8.59,8.59,0,0,0-.09,1.68c-.09,3.89-.71,6.12-2.28,8.12a13,13,0,0,1-5.91,4,5.62,5.62,0,0,0-1.26-1.86,10.77,10.77,0,0,0,4.14-2.05c2.41-1.95,3.26-4.18,3.26-8.64a5.19,5.19,0,0,0-.09-1.27Zm9.15-2.9a5.39,5.39,0,0,0-.57,1,14.17,14.17,0,0,1-6.67,6.72,6.08,6.08,0,0,0-1.4-1.55A10.15,10.15,0,0,0,427.1,125a11.21,11.21,0,0,0,2.46-3.26H416.78a23.74,23.74,0,0,0-2.83.11v-2.09a17.58,17.58,0,0,0,2.87.16h12.24a5.16,5.16,0,0,0,2-.16Z"/><path class="cls-16" d="M439.36,119.35a12.52,12.52,0,0,0-.14,2c-.18,6.37-.36,8-1.21,10.37a14.36,14.36,0,0,1-4,5.8A5.63,5.63,0,0,0,432.4,136a11.08,11.08,0,0,0,3.79-5.27c.71-2,1-5,1-9.68a11.4,11.4,0,0,0-.07-1.82Zm5.84-.28a14.62,14.62,0,0,0-.16,2.39l-.11,13.36a10,10,0,0,0,4-2.66,11.22,11.22,0,0,0,2.6-4.49,7.61,7.61,0,0,0,1.52,1.59,13.18,13.18,0,0,1-4.74,6,15.31,15.31,0,0,1-3.24,1.66c-.27.09-.5.18-.73.28a3.32,3.32,0,0,0-.56.25l-1.08-1.2a5.25,5.25,0,0,0,.16-1.81l.14-13v-.5a10.07,10.07,0,0,0-.11-1.89Z"/><path class="cls-16" d="M458,133.86a20.3,20.3,0,0,1,1.33-4.21l1.38.64a18.71,18.71,0,0,0-1.93,6.49,4.07,4.07,0,0,0,0,.44l-2,.13c0-.36-.07-.5-.14-1a35.29,35.29,0,0,1-.59-6.56,39.22,39.22,0,0,1,1-9.1,14.58,14.58,0,0,0,.32-2l2.19.3a28.18,28.18,0,0,0-1.16,4.58,43.16,43.16,0,0,0-.52,7c0,.46,0,1.56,0,2.18s0,.6,0,1Zm7.54-5.43a5.19,5.19,0,0,0-1.72,3.38c0,1.57,1.42,2.35,4.2,2.35a15.83,15.83,0,0,0,5.36-.81l.21,2.1c-.3,0-.35,0-.83.13A26.3,26.3,0,0,1,468,136c-2.71,0-4.43-.57-5.4-1.82a3.67,3.67,0,0,1-.69-2.2c0-1.36.62-2.69,2.05-4.35Zm-3.17-7a16,16,0,0,0,3.88.34,25.5,25.5,0,0,0,6.3-.62l.12,2-1.59.2a38.47,38.47,0,0,1-4.9.3,26.59,26.59,0,0,1-3.08-.16l-.41,0a2.78,2.78,0,0,0-.37-.05Z"/><path class="cls-16" d="M480.79,119.67a9.83,9.83,0,0,0-.14-1.86h2a11.63,11.63,0,0,0-.11,1.86v.19h7.82v-.19a9.54,9.54,0,0,0-.14-1.86h2a10,10,0,0,0-.14,1.86v.19H494a16.74,16.74,0,0,0,2.39-.14v1.74c-.75-.06-1.49-.11-2.39-.11H492v7.11h2.34a18.58,18.58,0,0,0,2.42-.14V130a17.13,17.13,0,0,0-2.37-.14h-3.17a13.16,13.16,0,0,0,6.18,3,6.33,6.33,0,0,0-.89,1.67,17.32,17.32,0,0,1-4.28-2v1.56a18.73,18.73,0,0,0-2.05-.09h-3.1v2.28h6.11a13.52,13.52,0,0,0,2.44-.14V138a20.4,20.4,0,0,0-2.53-.13H480a20.88,20.88,0,0,0-2.57.13V136.2a19.86,19.86,0,0,0,2.51.12h5.49V134h-2.67a18.51,18.51,0,0,0-2,.09v-1.56a16.35,16.35,0,0,1-4.25,2.09,4.9,4.9,0,0,0-.9-1.65,11.78,11.78,0,0,0,6-3.11h-3.08a16.82,16.82,0,0,0-2.35.14v-1.72a16.32,16.32,0,0,0,2.35.14h2.3v-7.11H479.2c-.9,0-1.63.05-2.37.11v-1.74a16.43,16.43,0,0,0,2.37.14h1.59Zm2.8,10.23a12.25,12.25,0,0,1-2.73,2.58c.46,0,1.05.07,1.9.07h2.67v-.16a13.18,13.18,0,0,0-.11-1.75h1.88a9.31,9.31,0,0,0-.11,1.75v.16h3.1c.9,0,1.36,0,1.86-.07a13.47,13.47,0,0,1-2.92-2.58Zm6.72-7.1v-1.45h-7.82v1.45Zm0,2.8v-1.42h-7.82v1.42Zm0,2.86V127h-7.82v1.48Z"/><path class="cls-16" d="M498.8,123.6c.64,0,.64,0,4.89-1a30.77,30.77,0,0,1,6.6-.82c4.4,0,7.13,2.27,7.13,5.95,0,3-1.75,5.43-4.87,7-2.12,1-4,1.47-7.75,1.79a6.27,6.27,0,0,0-.83-2,21,21,0,0,0,6.3-1c3.22-1.1,5-3.13,5-5.68s-1.86-4-4.92-4a35.89,35.89,0,0,0-9.33,1.63,8.91,8.91,0,0,0-1.73.58Zm16.44-5a16.16,16.16,0,0,1,2.27,3.13l-1.35.69a14.29,14.29,0,0,0-2.28-3.15Zm2.27-1.15a15,15,0,0,1,2.28,3.08l-1.36.69a13.69,13.69,0,0,0-2.23-3.1Z"/><path class="cls-16" d="M533.87,119.63a36.6,36.6,0,0,0-2.83,2.59,65.92,65.92,0,0,1-5.36,4.4c-.78.59-1,.8-1,1.08s.13.53,2,2a68.54,68.54,0,0,1,7.34,6.18c.34.32.39.37.67.6l-1.73,1.7a19.09,19.09,0,0,0-3-3.15,72.8,72.8,0,0,0-5.86-4.85c-1.33-1.06-1.72-1.59-1.72-2.46a2.35,2.35,0,0,1,.69-1.61,12.35,12.35,0,0,1,2-1.59c3.22-2.48,6-5,6.81-6.34Z"/><path class="cls-16" d="M351.57,163.75a8.63,8.63,0,0,0,1.77.12h1.31a9.5,9.5,0,0,0,1.75-.12,18.65,18.65,0,0,0-.09,2.46V171a3.35,3.35,0,0,0,1.86,1.89c1.11.5,2.44.69,5.2.69a70.7,70.7,0,0,0,9.4-.42,7.39,7.39,0,0,0-.57,1.86c-3,.12-4.95.17-7.18.17-3.79,0-5.28-.12-6.41-.44a5.82,5.82,0,0,1-3.22-2.44,19.29,19.29,0,0,1-2.58,2.23,10.72,10.72,0,0,0-.89.76l-.88-1.84a14.18,14.18,0,0,0,3.57-2.6v-5.38h-1.4a9,9,0,0,0-1.64.12Zm1.64-8.62a28.19,28.19,0,0,1,3.35,4.12l-1.33,1.33a19.16,19.16,0,0,0-3.36-4.3Zm7.45,4.81a10,10,0,0,0-1.78.11v-.6h-1.7a8.75,8.75,0,0,0,.12-1.42V157a14,14,0,0,0-.09-1.45,18.37,18.37,0,0,0,2.13.09h10.51a19.71,19.71,0,0,0,2.16-.09,9.4,9.4,0,0,0-.09,1.42V158a9.75,9.75,0,0,0,.09,1.47h-1.7v.6a9.51,9.51,0,0,0-1.74-.11h-3.41v1.38h3.75a12.2,12.2,0,0,0,1.79-.1,11.28,11.28,0,0,0-.07,1.59v3.7a10.85,10.85,0,0,0,.07,1.57,14.63,14.63,0,0,0-1.81-.1h-3.73v1.45H370a11.17,11.17,0,0,0,1.93-.11v1.61a12.28,12.28,0,0,0-2-.12h-4.79V171a15.58,15.58,0,0,0,.12,1.93h-1.8a14,14,0,0,0,.14-1.91v-.21h-4.39a11.38,11.38,0,0,0-1.89.12v-1.61a11.91,11.91,0,0,0,1.87.11h4.41V168h-3.36a13.15,13.15,0,0,0-1.79.1,9.67,9.67,0,0,0,.09-1.57v-3.7a10.18,10.18,0,0,0-.09-1.59,12.66,12.66,0,0,0,1.79.1h3.36v-1.38Zm2.94-1.34a4.65,4.65,0,0,0-.09-1.06h1.77a4.05,4.05,0,0,0-.12,1.06h3.52a9.2,9.2,0,0,0,1.59-.09V157H358.91v1.5a8.73,8.73,0,0,0,1.7.11Zm-3.47,4V164h3.49v-1.47Zm0,2.69v1.47h3.49v-1.47Zm5-1.22h3.89v-1.47h-3.89Zm0,2.69h3.89v-1.47h-3.89Z"/><path class="cls-16" d="M385.59,172.28a18.26,18.26,0,0,0,.11,2.58h-1.93a18.47,18.47,0,0,0,.11-2.55V168.1h-6a14.72,14.72,0,0,1-2.42,7.47,7.49,7.49,0,0,0-1.58-1.22c2.11-2.85,2.5-5.31,2.5-16,0-1.22,0-1.91-.09-2.74a23.75,23.75,0,0,0,2.55.1h12.51a22.79,22.79,0,0,0,2.51-.1,21.18,21.18,0,0,0-.09,2.35V173.3c0,1.58-.55,1.95-3,1.95-.74,0-1.8-.05-2.69-.11a6.6,6.6,0,0,0-.42-1.75,26.91,26.91,0,0,0,3.13.25c1.06,0,1.24-.11,1.24-.67V168.1h-6.41ZM378,162.7c0,.64,0,1.17,0,1.49,0,1.24,0,1.24-.07,2.28h5.93V162.7Zm5.84-5.34h-5.79V160l0,1.09h5.81Zm8.12,3.73v-3.73h-6.41v3.73Zm-6.41,5.38H392V162.7h-6.41Z"/><path class="cls-16" d="M414,157.29a6.12,6.12,0,0,0-.79.25,34.91,34.91,0,0,1-5,1.38c0,3.22,0,3.64-.07,4.37h5.15a12.78,12.78,0,0,0,2.71-.16v2.05a20.17,20.17,0,0,0-2.69-.12h-5.29a11.44,11.44,0,0,1-1.52,5.06,11.81,11.81,0,0,1-3.7,3.68,20.92,20.92,0,0,1-2.07,1.11,4.77,4.77,0,0,0-1.47-1.71,11,11,0,0,0,3.4-1.84,8.11,8.11,0,0,0,3.31-6.3h-6a20.51,20.51,0,0,0-2.76.12v-2.05a13.55,13.55,0,0,0,2.79.16h6.11c.05-.87.07-2.25.07-4a47.88,47.88,0,0,1-6.67.59,5.34,5.34,0,0,0-.64-1.81c.69,0,1,0,1.38,0a37.92,37.92,0,0,0,9.7-1.42,9.39,9.39,0,0,0,2.67-1.11Z"/><path class="cls-16" d="M428.09,172.26h4.74a13.85,13.85,0,0,0,2.21-.11v1.91a13,13,0,0,0-2.21-.12H421.7a18,18,0,0,0-2.21.09v-1.91a11.17,11.17,0,0,0,2.19.14h4.53v-7.77h-3.13a18.53,18.53,0,0,0-2.19.09V162.7a14.6,14.6,0,0,0,2.19.13h8.35a10.9,10.9,0,0,0,2.18-.16v1.91a16.2,16.2,0,0,0-2.16-.09h-3.36Z"/><path class="cls-16" d="M441.09,161.11a26.22,26.22,0,0,1,2.27,5.2l-1.86.62a19.41,19.41,0,0,0-2.14-5.25Zm13-.05a9,9,0,0,0-.3,1.06,19.06,19.06,0,0,1-3.31,7.68,17.89,17.89,0,0,1-6.63,5.13,5.7,5.7,0,0,0-1.31-1.56c4.53-1.91,7.2-4.65,8.69-9a12.85,12.85,0,0,0,.83-3.79Zm-8.28-.87a24.42,24.42,0,0,1,2.23,5l-1.82.62a21.75,21.75,0,0,0-2.11-5.13Z"/><path class="cls-16" d="M467,155.61a3.22,3.22,0,0,0-.5.9,22.34,22.34,0,0,1-1,2,1.86,1.86,0,0,1,.57-.07h.28l5.86-.09a3.4,3.4,0,0,0,1.34-.18l1.12,1.1a3.41,3.41,0,0,0-.5,1.19,24,24,0,0,1-4.63,8.72,22.61,22.61,0,0,1-8,5.77,4.76,4.76,0,0,0-1.38-1.68,19.25,19.25,0,0,0,8-5.65,20.35,20.35,0,0,0,3.94-7.5l-7.52.11a23.16,23.16,0,0,1-5.45,5.94,4.2,4.2,0,0,0-1.57-1.4,17.52,17.52,0,0,0,5.82-6.42,9.61,9.61,0,0,0,1.38-3.27Z"/><path class="cls-16" d="M362.59,328.14a19.87,19.87,0,0,1-.3,2.65,9.24,9.24,0,0,1-3.11,5.82,13.9,13.9,0,0,1-4,2.27,5.41,5.41,0,0,0-1.31-1.79c2.94-.94,4.76-2.35,5.72-4.35a12.44,12.44,0,0,0,.94-4.6h-6a22.79,22.79,0,0,0-2.81.12v-2.07a19.77,19.77,0,0,0,2.85.16h13.25a19,19,0,0,0,2.85-.16v2.07c-.74-.07-1.61-.12-2.83-.12ZM354,320.49a14.41,14.41,0,0,0,2.83.16h7a14.47,14.47,0,0,0,2.85-.16v2.07a28,28,0,0,0-2.83-.12h-7a20.16,20.16,0,0,0-2.81.12ZM368.68,325a13.84,13.84,0,0,0-1.72-3.33l1.35-.53a14,14,0,0,1,1.75,3.28Zm2.35-1a13,13,0,0,0-1.71-3.26l1.34-.51a15.4,15.4,0,0,1,1.75,3.2Z"/><path class="cls-16" d="M374.48,327.94a25.43,25.43,0,0,0,3.17.14h12.93a19.22,19.22,0,0,0,3.1-.14v2.27a27.56,27.56,0,0,0-3.13-.11H377.68a25.92,25.92,0,0,0-3.2.11Z"/><path class="cls-16" d="M406.2,319.38a10.62,10.62,0,0,0-.76,1.48c-.26.5-.49.89-.67,1.21.34-.07.34-.07,6.78-.13a4,4,0,0,0,1.52-.23l1.17,1.17a5.06,5.06,0,0,0-.66,1.52,37.46,37.46,0,0,1-3.06,6.34c-2.32,3.64-5.43,6.19-10.26,8.44a5.4,5.4,0,0,0-1.35-1.7A23.19,23.19,0,0,0,403.6,335a16.6,16.6,0,0,0,3.91-3.52,27.57,27.57,0,0,0-5-3.61l1.26-1.4a31.81,31.81,0,0,1,5,3.43,26.94,26.94,0,0,0,3-6.28l-7.77.09a24,24,0,0,1-5.45,6.1,5,5,0,0,0-1.61-1.31A20.09,20.09,0,0,0,402.7,322a14.37,14.37,0,0,0,1.36-3.15Z"/><path class="cls-16" d="M430.46,335.11a6.75,6.75,0,0,0,3.63-6.14,6,6,0,0,0-3.4-5.59,6.13,6.13,0,0,0-2.58-.62,33.46,33.46,0,0,1-2.3,9.2c-1.31,3-2.69,4.39-4.41,4.39-2.32,0-4-2.46-4-5.81a9.54,9.54,0,0,1,2.47-6.44A9.8,9.8,0,0,1,427.4,321c5.22,0,8.69,3.22,8.69,8.07a8.48,8.48,0,0,1-5,8,15.32,15.32,0,0,1-3.84,1.2,4.58,4.58,0,0,0-1-1.87A12.51,12.51,0,0,0,430.46,335.11Zm-7.61-11.22a7.85,7.85,0,0,0-3.59,6.67c0,2.09.92,3.75,2.12,3.75.89,0,1.77-1.06,2.71-3.22a31.47,31.47,0,0,0,2.05-8.28A6.41,6.41,0,0,0,422.85,323.89Z"/><path class="cls-16" d="M438.9,322.67a10,10,0,0,0,1.84.12H446a9.17,9.17,0,0,0,1.84-.12v1.75a10.26,10.26,0,0,0-1.68-.09h-5.45a13.93,13.93,0,0,0-1.84.09Zm.81-3.22a10,10,0,0,0,1.79.12h3.7a10.25,10.25,0,0,0,1.8-.12v1.7a13,13,0,0,0-1.8-.09h-3.7a13,13,0,0,0-1.79.09Zm.09,6.53a10.06,10.06,0,0,0,1.61.09h4.09a9.2,9.2,0,0,0,1.59-.09v1.66a10.67,10.67,0,0,0-1.59-.09h-4.09a10.22,10.22,0,0,0-1.61.09Zm0,3.18a10.06,10.06,0,0,0,1.61.09h4.09a9.27,9.27,0,0,0,1.59-.09v1.65a11,11,0,0,0-1.61-.09h-4.07a10.62,10.62,0,0,0-1.61.09Zm.07,10.57a15.59,15.59,0,0,0,.14-2.23v-3.19a11.69,11.69,0,0,0-.12-1.89,14.71,14.71,0,0,0,1.84.09h3.77a8.84,8.84,0,0,0,1.63-.07c0,.53-.06.9-.06,1.77v3.45a13.66,13.66,0,0,0,.09,1.77h-1.68v-1.08h-3.84v1.38Zm1.75-2.82h3.86v-3h-3.86Zm9-.46c0,.46.11.59.55.69a12.33,12.33,0,0,0,2.53.16c2.23,0,3-.12,3.4-.51s.55-1.49.65-3.73a8.33,8.33,0,0,0,1.81.74c-.2,2.35-.5,3.52-1,4.21s-1.73,1-4.72,1a18.54,18.54,0,0,1-3.51-.2c-1.13-.21-1.45-.62-1.45-1.82v-7.84a14.77,14.77,0,0,0-.12-2.23A20.78,20.78,0,0,0,451,327h5.62v-5.63h-6a15,15,0,0,0-2.21.11v-1.88a16.11,16.11,0,0,0,2.21.14h5.54a18.93,18.93,0,0,0,2.23-.1c-.05.65-.07,1.08-.07,2.28v4.58a19.87,19.87,0,0,0,.09,2.18,20.9,20.9,0,0,0-2.25-.09h-5.54Z"/><path class="cls-16" d="M465.12,325.87a9.91,9.91,0,0,0-1.45.09v-1.29a14.93,14.93,0,0,1-1.12,1,4.07,4.07,0,0,0-.9-1.42,11.53,11.53,0,0,0,4.09-5.34h1.91a10,10,0,0,0,3.31,4.14,6.32,6.32,0,0,0-1,1.45,14,14,0,0,1-3.19-4.18A14.76,14.76,0,0,1,464,324.4c.37,0,.74,0,1.22,0h3a9,9,0,0,0,1.47-.09v1.59a13.31,13.31,0,0,0-1.49-.07h-.74V328h.95a11.93,11.93,0,0,0,1.95-.12v1.7a11.64,11.64,0,0,0-1.95-.11h-.95V336a23.79,23.79,0,0,0,2.62-.92l0,1.54a47,47,0,0,1-6.21,1.88c-.85.21-1.06.26-1.52.39l-.32-1.81a18.32,18.32,0,0,0,3.82-.67v-6.92h-1.5a14.94,14.94,0,0,0-2.16.11v-1.7a17.17,17.17,0,0,0,2.19.12h1.47v-2.14Zm-1.58,9.79a23,23,0,0,0-1-4.64l1.31-.42a27.08,27.08,0,0,1,1.06,4.63Zm4.53-1.35a16,16,0,0,0,1-3.91l1.31.46a20,20,0,0,1-1.1,3.86Zm9.08-6.72a13.83,13.83,0,0,0,1.42,4.07,12.84,12.84,0,0,0,2.49-3.15l1.38.92a24.46,24.46,0,0,1-3.11,3.52,12,12,0,0,0,4,3.86,6.42,6.42,0,0,0-1.1,1.54,12.81,12.81,0,0,1-3.52-3.77,13.83,13.83,0,0,1-1.75-3.91c.09,1.89.14,2.83.14,3.77v3.32c0,1.47-.51,1.84-2.42,1.84-.5,0-1.17-.05-1.86-.12a4.61,4.61,0,0,0-.37-1.68,13.75,13.75,0,0,0,2.14.21c.76,0,.95-.12.95-.58v-3.15c-.92.76-1.13.92-1.75,1.36-.39.28-.39.28-2,1.31-.39.25-.39.25-.78.53l-.81-1.56a24.58,24.58,0,0,0,5.32-3.41v-5h-3.18a13.7,13.7,0,0,0-2.14.11V326a13.8,13.8,0,0,0,2.14.14h6.28c0-.28,0-.28.07-.78,0-.17,0-.26.09-1.09h-4.92a15.09,15.09,0,0,0-2,.1v-1.64a10.46,10.46,0,0,0,2,.12h5c.05-.74.05-.87.09-1.77H473.4a18,18,0,0,0-2.18.09v-1.68a14.52,14.52,0,0,0,2.23.12h5.08a21.42,21.42,0,0,0,2.21-.09,13.15,13.15,0,0,0-.19,2.32c-.09,1.54-.11,1.72-.3,4.3h.39a14.42,14.42,0,0,0,2.19-.14v1.7a14.94,14.94,0,0,0-2.16-.11h-3.52Zm-4.78.92a20.53,20.53,0,0,1,2,3.54l-1.31.83a16.21,16.21,0,0,0-1.95-3.7Z"/><path class="cls-16" d="M487.25,329.73c0-.85,0-1.72.07-2.69a14,14,0,0,1-2.23,3c-.07-.16-.14-.3-.16-.37a6.16,6.16,0,0,0-.83-1.35,18.58,18.58,0,0,0,4.3-6.65,17.23,17.23,0,0,0,.89-3.17l1.87.59a11.18,11.18,0,0,0-.44,1.27,28.73,28.73,0,0,1-1.79,4.23v12.33a25.58,25.58,0,0,0,.11,2.69h-1.93a23.84,23.84,0,0,0,.14-2.74Zm9.61-2.87H494.4A22.51,22.51,0,0,0,492,327a21.12,21.12,0,0,0,.09-2.12v-3.08a20,20,0,0,0-.09-2,17.55,17.55,0,0,0,2.52.11h6.93a18.14,18.14,0,0,0,2.53-.11,18,18,0,0,0-.1,2.11v3.06A16.36,16.36,0,0,0,504,327c-.42-.05-1.57-.09-2.4-.09h-3v2.32h4.53a18.17,18.17,0,0,0,2.34-.14v1.86a21.1,21.1,0,0,0-2.29-.13h-4a15.42,15.42,0,0,0,2.87,3.05,16.8,16.8,0,0,0,4.05,2.53,9.74,9.74,0,0,0-1.19,1.71,23.67,23.67,0,0,1-3.45-2.49,14.48,14.48,0,0,1-3-3.52c.07.83.09,1.61.09,2.49v2.87a14.85,14.85,0,0,0,.14,2.21h-2a17.44,17.44,0,0,0,.14-2.23v-2.85c0-.9,0-1.57.09-2.49a14.31,14.31,0,0,1-3.29,3.91,17.69,17.69,0,0,1-3.08,2.19,5.37,5.37,0,0,0-1.17-1.57,18.81,18.81,0,0,0,4.35-2.94,12.06,12.06,0,0,0,2.43-2.87h-3.54a18.36,18.36,0,0,0-2.37.13V329a17.66,17.66,0,0,0,2.37.14h4.21Zm-3.08-1.57h8.35v-3.91h-8.35Z"/><path class="cls-16" d="M511.26,321.8a14.38,14.38,0,0,1-2.16,2.25,4.43,4.43,0,0,0-1.31-1.15,9.83,9.83,0,0,0,3.63-4.51l1.75.46c-.37.67-.53.95-.88,1.5H516a10,10,0,0,0,2-.12v1.64a14.77,14.77,0,0,0-1.7-.07h-1.7a15,15,0,0,1,.92,1.84l-1.52.59a11.12,11.12,0,0,0-1-2.43Zm14.23,2.83a22,22,0,0,0,2.4-.1,8.57,8.57,0,0,0-.07,1.45v1.31a9,9,0,0,0,.09,1.52h-1.77v-2.76H510.39v2.76h-1.77a14.52,14.52,0,0,0,.09-1.49V326a10.38,10.38,0,0,0-.09-1.48,19.39,19.39,0,0,0,2.32.1h6.14v-.35A7.76,7.76,0,0,0,517,323h1.86a.6.6,0,0,0,0,.16,4.43,4.43,0,0,0-.07,1.08v.35Zm-13.95,15a18.91,18.91,0,0,0,.13-2.39V329a10.92,10.92,0,0,0-.09-1.66,14.47,14.47,0,0,0,2.21.12h8.51a14.17,14.17,0,0,0,2.21-.12,14.45,14.45,0,0,0-.07,1.66v1.45a12.6,12.6,0,0,0,.07,1.77,19.23,19.23,0,0,0-2.17-.09h-9v1.49h10a15.53,15.53,0,0,0,2-.09,16.38,16.38,0,0,0-.09,2v2a15.75,15.75,0,0,0,.11,2.14h-1.79v-1.1H513.35v1.1Zm1.81-8.92h9.45v-1.89h-9.45Zm0,6.41h10.26V335H513.35Zm6.88-15.29a10.32,10.32,0,0,1-1.17,1.38,4.49,4.49,0,0,0-1.32-.94,7.77,7.77,0,0,0,2.47-3.8l1.67.35a15.38,15.38,0,0,1-.76,1.56h5.25a12.85,12.85,0,0,0,2.09-.11v1.68a11.39,11.39,0,0,0-2.05-.12h-2.76a16.85,16.85,0,0,1,1,1.82l-1.59.59a12.82,12.82,0,0,0-1.17-2.41Z"/><path class="cls-16" d="M368.63,358.29a6.7,6.7,0,0,0-.78.25,34.68,34.68,0,0,1-5,1.38c0,3.22,0,3.64-.07,4.37h5.15a12.89,12.89,0,0,0,2.72-.16v2.05a20.17,20.17,0,0,0-2.69-.12h-5.29a11.44,11.44,0,0,1-1.52,5.06,12,12,0,0,1-3.7,3.68,22.14,22.14,0,0,1-2.07,1.11,4.87,4.87,0,0,0-1.47-1.71,11,11,0,0,0,3.4-1.84,8.14,8.14,0,0,0,3.31-6.3h-6a20.51,20.51,0,0,0-2.76.12v-2.05a13.49,13.49,0,0,0,2.78.16h6.12c.05-.87.07-2.25.07-4a48,48,0,0,1-6.67.59,5.57,5.57,0,0,0-.64-1.81c.69,0,1,0,1.38,0a38,38,0,0,0,9.7-1.42,9.39,9.39,0,0,0,2.67-1.11Z"/><path class="cls-16" d="M382.69,373.26h4.74a13.63,13.63,0,0,0,2.2-.11v1.91a12.81,12.81,0,0,0-2.2-.12H376.3a18,18,0,0,0-2.21.09v-1.91a11.12,11.12,0,0,0,2.18.14h4.53v-7.77h-3.12a18.53,18.53,0,0,0-2.19.09V363.7a14.6,14.6,0,0,0,2.19.13H386a11,11,0,0,0,2.19-.16v1.91a16.29,16.29,0,0,0-2.16-.09h-3.36Z"/><path class="cls-16" d="M395.69,362.11a26.82,26.82,0,0,1,2.27,5.2l-1.86.62a19.41,19.41,0,0,0-2.14-5.25Zm13-.05c-.13.42-.18.58-.3,1.06a18.92,18.92,0,0,1-3.31,7.68,17.85,17.85,0,0,1-6.62,5.13,5.7,5.7,0,0,0-1.31-1.56c4.53-1.91,7.2-4.65,8.69-8.95a12.85,12.85,0,0,0,.83-3.79Zm-8.27-.87a25,25,0,0,1,2.23,5l-1.82.62a21.39,21.39,0,0,0-2.12-5.13Z"/><path class="cls-16" d="M421.58,356.61a3,3,0,0,0-.5.9,19.19,19.19,0,0,1-1,2,2,2,0,0,1,.58-.07h.28l5.86-.09a3.3,3.3,0,0,0,1.33-.18l1.13,1.1a3.35,3.35,0,0,0-.51,1.19,23.8,23.8,0,0,1-4.62,8.72,22.56,22.56,0,0,1-8.05,5.77,4.55,4.55,0,0,0-1.38-1.68,19.22,19.22,0,0,0,8.05-5.65,20.19,20.19,0,0,0,3.93-7.5l-7.52.11a23.13,23.13,0,0,1-5.44,5.94,4.2,4.2,0,0,0-1.57-1.4,17.52,17.52,0,0,0,5.82-6.42,9.82,9.82,0,0,0,1.38-3.27Z"/><path class="cls-16" d="M359.23,528.68c.25-.69.34-1,.57-1.77h-.39a12.82,12.82,0,0,0-1.86.12v-1.57a10.76,10.76,0,0,0,1.91.12h.71a12.27,12.27,0,0,0,.37-2l1.68.22a5.29,5.29,0,0,0-.18.69c-.05.21-.07.28-.28,1h1.75a18.77,18.77,0,0,0,1.95-.07,15.8,15.8,0,0,0-.07,1.63v1.54a7.23,7.23,0,0,0,1.43-.11v1.35a8,8,0,0,0,1.26.07h2.76a7.88,7.88,0,0,0,1.66-.11v1.77a8.59,8.59,0,0,0-1.66-.11h-.3V542.3c0,1.65-.43,2-2.67,2-.48,0-.8,0-1.51,0a5.11,5.11,0,0,0-.35-1.73,15.2,15.2,0,0,0,2.16.21c.53,0,.67-.11.67-.48V531.54h-.76a6,6,0,0,0-1.38.11v-1.52a10.28,10.28,0,0,0-1.58-.09h-6.37a11.19,11.19,0,0,0-1.91.11v0l-.62,1.06c-.26.41-.62,1-1,1.52v9a16.15,16.15,0,0,0,.14,2.65h-1.91a16.09,16.09,0,0,0,.14-2.69v-4.85c0-.85,0-1.47.07-2.46a14.72,14.72,0,0,1-1.75,1.84,5.47,5.47,0,0,0-.85-1.64,13.12,13.12,0,0,0,3.45-3.72,8.13,8.13,0,0,0,1-2l1.38.81v-1.13a9.71,9.71,0,0,0,1.86.11ZM357,524.61c-.27.33-.27.33-.87,1.11a20.34,20.34,0,0,1-3.84,3.86,4.79,4.79,0,0,0-1-1.45,12.26,12.26,0,0,0,4.12-4.48Zm2.67,10.9c-.9,0-1.45,0-2.05.07a11.65,11.65,0,0,0,.07-1.52v-1.38a9.9,9.9,0,0,0-.07-1.35c.42,0,1,.07,1.73.07H364c.89,0,1.44,0,1.95-.07a12.42,12.42,0,0,0-.07,1.54v1.19a12.07,12.07,0,0,0,.07,1.52c-.44,0-1.15-.07-2-.07h-.43v1.41h.94a18.89,18.89,0,0,0,2.07-.1v1.54a18.23,18.23,0,0,0-2.07-.09h-.94v1.82h1.35a15,15,0,0,0,2.19-.12v1.61a16.73,16.73,0,0,0-1.93-.11h-1.61v1a13.63,13.63,0,0,0,.13,2h-1.81a13.52,13.52,0,0,0,.14-2v-1h-3.59a15.79,15.79,0,0,0-2.16.11V540a14.89,14.89,0,0,0,1.81.09v-1.82c-.43,0-.62,0-1.28.09v-1.54a20.07,20.07,0,0,0,2.07.1H362v-1.41Zm-.39-1.26h5.06v-1.59h-5.06Zm.3,5.84H362v-1.82h-2.44Zm4.37-11.41v-1.77h-2.51c-.23.78-.34,1.08-.6,1.77Zm8.16-1.93a7.71,7.71,0,0,0-1.54-.11H368a8.7,8.7,0,0,0-1.22.09V525a9.16,9.16,0,0,0,1.54.12h2.16a9,9,0,0,0,1.54-.12Z"/><path class="cls-16" d="M379.15,530.09a23.09,23.09,0,0,1-3.11,4.85,5.32,5.32,0,0,0-1.51-1.22,18.64,18.64,0,0,0,4-7,7.36,7.36,0,0,0,.51-2.16l2,.53a10.63,10.63,0,0,0-.44,1.26c-.12.37-.51,1.4-.76,2.07h4.48V526.2a16.66,16.66,0,0,0-.16-2.53h2.14a16.83,16.83,0,0,0-.14,2.53v2.23h5.43a24.35,24.35,0,0,0,2.76-.14v1.93a26.32,26.32,0,0,0-2.71-.13h-5.48v4.69h4.49a18.7,18.7,0,0,0,2.57-.14v1.91a19.65,19.65,0,0,0-2.57-.14h-4.49v5.66h6.19a20.64,20.64,0,0,0,2.85-.16v2a22,22,0,0,0-2.8-.16H377.84a23.35,23.35,0,0,0-2.88.16v-2a21.54,21.54,0,0,0,2.83.16h6.55v-5.66h-4a18.77,18.77,0,0,0-2.53.14v-1.91a17.53,17.53,0,0,0,2.51.14h4v-4.69Z"/><path class="cls-16" d="M401,526a14.7,14.7,0,0,0-.16-2.35h2.05a15.58,15.58,0,0,0-.14,2.3v2.19h.73a11.69,11.69,0,0,0,1.84-.12v1.8a11.55,11.55,0,0,0-1.86-.12h-.71v4.39c.8-.25,1.24-.39,2.6-.89l0,1.58c-1,.44-1.31.53-2.62,1v6.85c0,1.38-.6,1.75-2.71,1.75-.63,0-1,0-1.73-.07a5.16,5.16,0,0,0-.37-1.77,14.52,14.52,0,0,0,2.3.21c.6,0,.76-.14.76-.62v-5.77c-.8.25-.87.27-1.81.53a9.59,9.59,0,0,0-1.18.39l-.39-1.91a17.57,17.57,0,0,0,3.38-.76v-4.9h-1.33a11.16,11.16,0,0,0-1.84.12V528a11.21,11.21,0,0,0,1.84.14H401Zm7,.64c3.74-.55,6.78-1.42,8-2.3l1.36,1.52a40,40,0,0,1-9.4,2.25v1.45c0,.9.36,1,4.2,1s4-.07,4.21-2.87a6.71,6.71,0,0,0,1.68.64c-.21,2-.51,2.76-1.22,3.22s-1.77.58-5.52.58c-4.23,0-5.08-.35-5.08-2.07V526a15.16,15.16,0,0,0-.14-2.26h2a14.06,14.06,0,0,0-.11,2.16Zm-1.68,9a12.41,12.41,0,0,0-.1-1.84,15.49,15.49,0,0,0,2.05.1h6.58a14.83,14.83,0,0,0,2-.1,14.51,14.51,0,0,0-.09,1.87v6.6a13.61,13.61,0,0,0,.12,2.3h-1.82v-1.2h-7.08v1.22h-1.82a14.34,14.34,0,0,0,.12-2.28Zm1.7,2.12h7.08v-2.35h-7.08Zm0,4.09h7.08v-2.57h-7.08Z"/><path class="cls-16" d="M433.1,537.86c-3.35,0-4.92-.12-6-.51a4,4,0,0,1-2.07-1.58,34,34,0,0,1-3.56,2.36l-.78-1.63a16,16,0,0,0,3.49-1.93v-3.33h-1.56a10.36,10.36,0,0,0-1.66.09v-1.61a9.57,9.57,0,0,0,1.8.11h1.42a12.12,12.12,0,0,0,1.73-.09,14,14,0,0,0-.1,2.09v2.69c.9,1.61,2,2,6.17,2,4.32,0,7.91-.11,9.7-.32a3.58,3.58,0,0,0-.55,1.56c-.74,0-.78,0-4.14.07V539h1.56a17.88,17.88,0,0,0,2.49-.13v1.72a18.24,18.24,0,0,0-2.51-.14H437v2.44c0,1.45-.44,1.7-3,1.7-.58,0-1,0-1.77,0a4.42,4.42,0,0,0-.53-1.68,19.38,19.38,0,0,0,2.62.18c.87,0,1-.09,1-.57v-2h-8.5a18.87,18.87,0,0,1,3.19,2.65l-1.33,1.19a13.72,13.72,0,0,0-3.15-2.89l1.22-1h-3.29a18.76,18.76,0,0,0-2.51.14v-1.72a17.88,17.88,0,0,0,2.49.13h11.88v-1.15Zm-10.6-14a18.76,18.76,0,0,1,3.38,3.06l-1.19,1.21a17.07,17.07,0,0,0-3.36-3.21Zm7.84,1.68a8.94,8.94,0,0,0-1.28-1.77l1.68-.4a14.8,14.8,0,0,1,1.35,2.17h2.62a13.14,13.14,0,0,0,1.45-2.12l1.7.46c-.52.71-.87,1.17-1.28,1.66h2a13.92,13.92,0,0,0,2.3-.12V527a21.52,21.52,0,0,0-2.3-.09h-4.3c-.21.46-.34.72-.55,1.11H437c1.15,0,1.72,0,2.2-.07a14,14,0,0,0-.09,1.91v3.72a14.51,14.51,0,0,0,.09,2c-.48,0-1.05-.07-1.9-.07h-7.11c-.9,0-1.56,0-2.25.07,0-.46.06-.87.06-1.84v-3.93A12.3,12.3,0,0,0,428,528c.53,0,1.18.07,2.39.07H432c.3-.53.37-.69.57-1.11H428.9c-1,0-1.75,0-2.35.09v-1.56a13.76,13.76,0,0,0,2.25.12Zm-.75,4.57h8v-.92h-8Zm0,2.07h8v-.92h-8Zm0,2.12h8v-1h-8Z"/><path class="cls-16" d="M355.5,574.83c0-.55,0-.89-.06-1.42-1.29.53-1.71.69-3.09,1.17a4.46,4.46,0,0,0-.85-1.7,27.93,27.93,0,0,0,9.27-4.09,18,18,0,0,1-3.15-3.29,19,19,0,0,1-4.44,3.52,4.26,4.26,0,0,0-1.13-1.38,17.2,17.2,0,0,0,5.85-4.95,10.17,10.17,0,0,0,1.4-2.32l1.91.44c-.78,1.19-.78,1.22-1.22,1.84h5.22a12.27,12.27,0,0,0,2.11-.12l.95,1.18c-.33.36-.35.41-1.06,1.31a24.23,24.23,0,0,1-3.63,3.72,21.39,21.39,0,0,0,3.17,1.73,32.79,32.79,0,0,0,5.72,2,6.53,6.53,0,0,0-.8,1.8c-1.5-.46-2-.65-3-1,0,.53-.07,1-.07,1.63v4.72a15,15,0,0,0,.14,2.11h-1.88v-1.35h-9.64v1.35h-1.88a15.83,15.83,0,0,0,.13-2.11ZM367,573c.46,0,.69,0,1.13,0a31.34,31.34,0,0,1-6-3.12,25.71,25.71,0,0,1-5.7,3.15H367Zm-9.75,5.77h9.64v-4.26h-9.64Zm1.43-14.47a16.12,16.12,0,0,0,3.47,3.48,18.52,18.52,0,0,0,3.54-3.66h-6.85Z"/><path class="cls-16" d="M377.72,563.43c-1,.25-1.4.32-2.53.53a4.81,4.81,0,0,0-.71-1.5,18.87,18.87,0,0,0,5.61-1.4,5.41,5.41,0,0,0,.81-.43l1,1.4a11.63,11.63,0,0,0-1.22.48c-.48.18-.88.32-1.36.48v3.66H380a9,9,0,0,0,1.52-.09v1.7a9.81,9.81,0,0,0-1.54-.09h-.53a11.19,11.19,0,0,0,2.23,3.84,5,5,0,0,0-.87,1.47,13,13,0,0,1-1.54-3.22c0,.74,0,1,.07,1.66,0,.41,0,.71,0,.87,0,.44,0,.73,0,.87V579a21.5,21.5,0,0,0,.12,2.64h-1.87a20.21,20.21,0,0,0,.14-2.64v-4.81c0-1.83.07-3,.12-3.56a17.07,17.07,0,0,1-2.85,6.09,5.63,5.63,0,0,0-.95-1.58,19.29,19.29,0,0,0,3.48-7h-1.11a14.17,14.17,0,0,0-1.75.11v-1.75a14,14,0,0,0,1.8.12h1.26Zm9.45-.09c-1.7.11-2.57.16-4.46.18a4.92,4.92,0,0,0-.67-1.45c.65,0,1.13,0,1.45,0,3.59,0,8.17-.58,9.78-1.22l1.17,1.45a7.91,7.91,0,0,0-.87.18c-1.22.25-3,.53-4.86.71v1.5H393a15.59,15.59,0,0,0,2.25-.14v1.65c-.62-.06-1.31-.11-2.14-.11h-4.35v1.38h3.18c1,0,1.54,0,2.14-.07a13.29,13.29,0,0,0-.07,1.91v3.4a16.77,16.77,0,0,0,.07,2.16c-.56,0-1.06-.07-2-.07h-3.27v1.48H392a13.92,13.92,0,0,0,2.3-.12v1.66a22.24,22.24,0,0,0-2.3-.12h-3.29v1.66H393a22,22,0,0,0,2.41-.12V581a18,18,0,0,0-2.46-.14h-9.7a16.56,16.56,0,0,0-2.44.12v-1.66a15,15,0,0,0,2.42.12h4v-1.66h-3.31a21.28,21.28,0,0,0-2.21.09v-1.61a17.15,17.15,0,0,0,2.21.1h3.31v-1.48h-3c-1,0-1.59,0-2,.07,0-.66.07-1.26.07-2.18v-3.36c0-.92,0-1.4-.07-1.93.6.05,1.17.07,2.14.07h2.89v-1.38h-3.7a17.42,17.42,0,0,0-2.18.09V564.6a14.69,14.69,0,0,0,2.16.12h3.72Zm-3.45,5.49v1.64h3.45v-1.64Zm0,2.95v1.7h3.45v-1.7Zm5-1.31h3.71v-1.64h-3.71Zm0,3h3.71v-1.7h-3.71Z"/><path class="cls-16" d="M413.74,579a6.15,6.15,0,0,0-.83.11,39,39,0,0,1-6.19.53,15.85,15.85,0,0,1-5.45-.73,3.72,3.72,0,0,1-2.71-3.57c0-1.56.85-3,2.74-4.6l1.4,1.06c-1.49,1.22-2.16,2.28-2.16,3.31s.64,1.73,1.88,2.12a15.44,15.44,0,0,0,4.17.43,21.41,21.41,0,0,0,6.94-.92ZM400,563.08a36.83,36.83,0,0,0,12.21.1l.11,1.84a33.49,33.49,0,0,0-5.88,3.58L405,567.48c1.5-1,1.91-1.25,2.83-1.77l.6-.33.44-.23a21.7,21.7,0,0,1-3.43.26,41.82,41.82,0,0,1-4.85-.3c-.42-.05-.49-.05-.78-.07Zm11.4,3.87a14.33,14.33,0,0,1,2.21,3l-1.29.74a13.44,13.44,0,0,0-2.18-3Zm2.19-1.22a14,14,0,0,1,2.2,2.94l-1.26.74a14.09,14.09,0,0,0-2.19-3Z"/><path class="cls-16" d="M423.61,566.63a13.89,13.89,0,0,0,3.24,5.06,6.93,6.93,0,0,0-.94,1.6,16.2,16.2,0,0,1-2.53-4.55c.07,2,.09,2.83.09,3.54V579a20.48,20.48,0,0,0,.14,2.72h-2a20.91,20.91,0,0,0,.14-2.72v-6c0-.92,0-1.54.14-3.72a21.07,21.07,0,0,1-3.22,6.94,6.39,6.39,0,0,0-1-1.68,19.69,19.69,0,0,0,3.84-7.88H420a10.52,10.52,0,0,0-1.66.09V565a10.11,10.11,0,0,0,1.68.09h1.75V563a11.62,11.62,0,0,0-.14-2.37h1.95a20.91,20.91,0,0,0-.11,2.37v2.11h1.59a9.14,9.14,0,0,0,1.49-.09v1.73a13.68,13.68,0,0,0-1.49-.07Zm3.68,15c.07-.83.11-1.71.11-2.88V564.14c0-.76,0-1.4-.09-2.46a17.89,17.89,0,0,0,1.86.05H436a15.33,15.33,0,0,0,1.82-.07c-.05.53-.07,1.15-.07,2.3V578.7a26.35,26.35,0,0,0,.11,2.8H436V580h-6.89v1.59Zm1.84-14.42H436v-3.82h-6.89Zm0,5.52H436v-3.91h-6.89Zm0,5.7H436v-4.09h-6.89Z"/><path class="cls-16" d="M441,564.58a10.12,10.12,0,0,0,1.84.11h4.3a11.84,11.84,0,0,0,1.84-.09v1.73a10.77,10.77,0,0,0-1.68-.1h-4.46a14.15,14.15,0,0,0-1.84.1Zm.9,16.92c.07-.66.11-1.54.11-2.25V576a15.35,15.35,0,0,0-.09-1.86,8.26,8.26,0,0,0,1.5.09h3.47a7,7,0,0,0,1.4-.07,15.18,15.18,0,0,0-.07,1.75v3.68a12.88,12.88,0,0,0,.05,1.52h-1.59v-.95h-3.06v1.31Zm.09-13.61a8.76,8.76,0,0,0,1.54.09h3.2a7.67,7.67,0,0,0,1.49-.09v1.63a9.77,9.77,0,0,0-1.49-.09h-3.2a10.05,10.05,0,0,0-1.54.09Zm0,3.2a14.48,14.48,0,0,0,1.54.07h3.2a12.76,12.76,0,0,0,1.49-.07v1.61a8.25,8.25,0,0,0-1.52-.1h-3.19a8.62,8.62,0,0,0-1.52.1Zm0-9.71a8.81,8.81,0,0,0,1.73.12h2.83a9,9,0,0,0,1.72-.12v1.68a12.23,12.23,0,0,0-1.72-.09h-2.83a12.29,12.29,0,0,0-1.73.09Zm1.57,17.36h3.1v-3.12h-3.1ZM456.1,570a10.33,10.33,0,0,0-.09,1.43,8,8,0,0,0,1.52,5.15,10.26,10.26,0,0,0,4.69,3.42,6.36,6.36,0,0,0-1,1.73,13.24,13.24,0,0,1-4.12-3.18,9,9,0,0,1-1.86-3.22,7.78,7.78,0,0,1-1.75,3.43,10.11,10.11,0,0,1-4.16,3,5.12,5.12,0,0,0-1-1.56,8.22,8.22,0,0,0,4.55-3.2,8.89,8.89,0,0,0,1.45-5.43,10.25,10.25,0,0,0-.09-1.56Zm0-9.11a10.36,10.36,0,0,0-.09,1.41,7.24,7.24,0,0,0,1.22,4.41,8.25,8.25,0,0,0,2.27,2.07,9.37,9.37,0,0,0,2.3,1.08,7.13,7.13,0,0,0-1,1.61,11.08,11.08,0,0,1-4.3-3.29,7.32,7.32,0,0,1-1.34-2.32,7.11,7.11,0,0,1-1.33,2.53,9.71,9.71,0,0,1-4.28,3.08,4.4,4.4,0,0,0-1-1.49,8.13,8.13,0,0,0,3.42-1.77,7.1,7.1,0,0,0,2.35-5.87,6.82,6.82,0,0,0-.12-1.45Zm-3.79,11.36a12.73,12.73,0,0,1-1.84,4.19l-1.57-.69a8.14,8.14,0,0,0,1.8-4Zm.2-9.84a12.57,12.57,0,0,1-1.79,4.21l-1.54-.67a8.06,8.06,0,0,0,1.7-3.93Zm8.86.12a17.58,17.58,0,0,1-2.72,3.77,9.18,9.18,0,0,0-1.35-.88,11.06,11.06,0,0,0,2.46-3.61Zm-.07,9.93a18.8,18.8,0,0,1-2.51,3.7,8.91,8.91,0,0,0-1.36-.9,10.21,10.21,0,0,0,2.28-3.51Z"/><path class="cls-16" d="M361.18,699.65a19.46,19.46,0,0,1-2.48,1.77,7.35,7.35,0,0,0-1.06-1.4l.62-.35c-.43,0-.73,0-1.15,0h-.75a13.47,13.47,0,0,0,2.62,4.46,5.6,5.6,0,0,0-.92,1.45,18.58,18.58,0,0,1-1.91-3.78c.07.83.11,2.37.11,3.52V712a20.16,20.16,0,0,0,.14,2.72h-1.91a20.69,20.69,0,0,0,.14-2.72v-6c0-1,.05-2.09.12-3.45-.12.42-.21.74-.28,1a20.32,20.32,0,0,1-2.3,5.63,5.09,5.09,0,0,0-1-1.63,21.63,21.63,0,0,0,3.27-7.84h-1.15a9.09,9.09,0,0,0-1.56.09V698a9.17,9.17,0,0,0,1.56.09h1.36V696a14.05,14.05,0,0,0-.12-2.37h1.89a15.2,15.2,0,0,0-.12,2.35V698h.83a7.79,7.79,0,0,0,1.4-.09v1.58a14.81,14.81,0,0,0,5.43-5.63h1.86a12,12,0,0,0,2.62,3,15.82,15.82,0,0,0,4.51,2.83,6.53,6.53,0,0,0-1,1.61,24.25,24.25,0,0,1-2.9-1.82v1.31c-.6,0-1.11-.06-2-.06h-1.31v1c0,.34,0,.39,0,.83h3.2c.94,0,1.49,0,2.07-.07-.05.62-.07,1.12-.07,1.67v2.42a11.63,11.63,0,0,0,.07,1.72,19.07,19.07,0,0,0-2.23-.09h-2.64a10.21,10.21,0,0,0,6.57,4.58,7,7,0,0,0-1,1.7,11.85,11.85,0,0,1-6.81-5.59c-1,2.65-2.81,4.23-6.46,5.59a4.62,4.62,0,0,0-1.06-1.59,10.48,10.48,0,0,0,3.84-1.67,5.8,5.8,0,0,0,2.25-3H361.3a18.06,18.06,0,0,0-2.09.09c0-.43.07-.92.07-1.42v-2.88c0-.66,0-1-.07-1.51a14.28,14.28,0,0,0,2,.07h3v-1.84h-1c-.94,0-1.31,0-2,.06Zm-.32,4.41v2.79h3a23.45,23.45,0,0,0,.28-2.79Zm6.19-4.78a14.89,14.89,0,0,0,1.61,0,15.86,15.86,0,0,1-3.75-3.9,16,16,0,0,1-3.29,3.9,14.47,14.47,0,0,0,1.56,0Zm-1.36,4.78a20.51,20.51,0,0,1-.25,2.79h3.88v-2.79Z"/><path class="cls-16" d="M379.56,712a21.5,21.5,0,0,0,.12,2.69h-2a23.57,23.57,0,0,0,.14-2.85v-7.34c0-1.33,0-1.67.07-2.76a15.81,15.81,0,0,1-1.93,3.11,5.26,5.26,0,0,0-1-1.66,19.81,19.81,0,0,0,3.75-6.5,14.73,14.73,0,0,0,.87-3.25l1.79.56c-.13.36-.27.75-.43,1.33a34.42,34.42,0,0,1-1.43,3.72Zm4.23-15.54a14.94,14.94,0,0,0-2.16.11V694.8a17.34,17.34,0,0,0,2.35.14h10.09a18.09,18.09,0,0,0,2.39-.14v1.79a15,15,0,0,0-2.2-.11h-4.9v2.09h3.86a13,13,0,0,0,2-.12,20.33,20.33,0,0,0-.09,2.39v3.91a20.85,20.85,0,0,0,.09,2.4,10.26,10.26,0,0,0-1.89-.12h-4.51a8.31,8.31,0,0,1-1.28,3.24,19.82,19.82,0,0,0,9.17,2,6.77,6.77,0,0,0-.69,1.81,20.17,20.17,0,0,1-9.54-2.57,13.41,13.41,0,0,1-5.31,2.83,5.73,5.73,0,0,0-.81-1.57,11.8,11.8,0,0,0,4.74-2.18,8.6,8.6,0,0,1-.9-.72c-.16-.13-.16-.13-.73-.64a7.89,7.89,0,0,0-.74-.64l1.45-1a13.12,13.12,0,0,0,2,1.8,6.23,6.23,0,0,0,1-2.42h-3.58a8.67,8.67,0,0,0-1.68.12c.06-.65.09-1.25.09-2.26v-4.16c0-1,0-1.52-.09-2.28a16.6,16.6,0,0,0,2.09.12h3.66v-2.09ZM383.7,700v2h4c0-.76,0-.9,0-2Zm0,3.38v2.23h3.77c.09-.73.12-1.19.16-2.23Zm5.54,0c0,1-.07,1.5-.16,2.23h4.44v-2.23Zm.12-3.38c0,.81,0,1-.05,2h4.21v-2Z"/><path class="cls-16" d="M409.48,699.65a19.46,19.46,0,0,1-2.48,1.77,7.35,7.35,0,0,0-1.06-1.4l.62-.35c-.43,0-.73,0-1.15,0h-.76a13.68,13.68,0,0,0,2.63,4.46,5.6,5.6,0,0,0-.92,1.45,19.1,19.1,0,0,1-1.91-3.78c.07.83.11,2.37.11,3.52V712a20.16,20.16,0,0,0,.14,2.72h-1.91a20.69,20.69,0,0,0,.14-2.72v-6c0-1,.05-2.09.11-3.45-.11.42-.2.74-.27,1a20.32,20.32,0,0,1-2.3,5.63,5.45,5.45,0,0,0-1-1.63,22,22,0,0,0,3.26-7.84h-1.15a9.17,9.17,0,0,0-1.56.09V698a9.17,9.17,0,0,0,1.56.09h1.36V696a14.05,14.05,0,0,0-.12-2.37h1.89a15.2,15.2,0,0,0-.12,2.35V698h.83a7.73,7.73,0,0,0,1.4-.09v1.58a14.73,14.73,0,0,0,5.43-5.63h1.86a11.76,11.76,0,0,0,2.62,3,15.82,15.82,0,0,0,4.51,2.83,6.53,6.53,0,0,0-1,1.61,24.25,24.25,0,0,1-2.9-1.82v1.31c-.6,0-1.11-.06-2-.06H414v1c0,.34,0,.39,0,.83h3.2c.94,0,1.5,0,2.07-.07,0,.62-.07,1.12-.07,1.67v2.42a11.63,11.63,0,0,0,.07,1.72,19.07,19.07,0,0,0-2.23-.09H414.4a10.26,10.26,0,0,0,6.58,4.58,7,7,0,0,0-1,1.7,11.85,11.85,0,0,1-6.81-5.59c-1,2.65-2.81,4.23-6.46,5.59a4.48,4.48,0,0,0-1.06-1.59,10.48,10.48,0,0,0,3.84-1.67,5.8,5.8,0,0,0,2.25-3H409.6a18.06,18.06,0,0,0-2.09.09c0-.43.07-.92.07-1.42v-2.88c0-.66,0-1-.07-1.51a14.28,14.28,0,0,0,2,.07h3v-1.84h-1c-.94,0-1.31,0-2,.06Zm-.32,4.41v2.79h3a23.45,23.45,0,0,0,.28-2.79Zm6.19-4.78a14.89,14.89,0,0,0,1.61,0,15.86,15.86,0,0,1-3.75-3.9,16,16,0,0,1-3.29,3.9,14.47,14.47,0,0,0,1.56,0ZM414,704.06a20.51,20.51,0,0,1-.25,2.79h3.88v-2.79Z"/><path class="cls-16" d="M433.4,695.51a8.92,8.92,0,0,0-.13-1.82h1.93a7.62,7.62,0,0,0-.14,1.8V696h6.85a17.41,17.41,0,0,0,2.42-.14v1.82a18.92,18.92,0,0,0-2.42-.14h-5.38a17.46,17.46,0,0,0,8.65,4.71,7.62,7.62,0,0,0-1,1.73,23.11,23.11,0,0,1-3.35-1.43c-.05.49-.07,1.43-.07,2.3v7.38h1.54a14.23,14.23,0,0,0,2.41-.13v1.84a17.33,17.33,0,0,0-2.53-.14H426.69a17.91,17.91,0,0,0-2.55.14v-1.84a17.31,17.31,0,0,0,2.46.13H428v-7.61c0-.92,0-1.49-.06-2.13a22.28,22.28,0,0,1-3.18,1.47,5.66,5.66,0,0,0-1-1.55,19.51,19.51,0,0,0,8.11-4.87h-5a18.09,18.09,0,0,0-2.39.14v-1.82A17,17,0,0,0,427,696h6.41Zm0,3.75c0-.39,0-.92.05-1.38a18.19,18.19,0,0,1-5.22,4.41c.55,0,1.4.05,2.18.05h7.85c.82,0,1.15,0,2.11-.05a16.18,16.18,0,0,1-5.38-4.41c0,.14.05.6.07,1.38v1a7.2,7.2,0,0,0,.11,1.48h-1.88a8.86,8.86,0,0,0,.11-1.5Zm-3.68,6.37H439v-1.77h-9.3Zm0,3.24H439v-1.79h-9.3Zm0,3.33H439v-1.88h-9.3Z"/><path class="cls-16" d="M368,733a9.75,9.75,0,0,0-.8,1.88,27.53,27.53,0,0,1-6.28,9.91,28,28,0,0,1-7.56,5.2,6.19,6.19,0,0,0-1.41-2,21.8,21.8,0,0,0,11.39-9.94,21.17,21.17,0,0,0,2.39-5.86Z"/><path class="cls-16" d="M375.88,748.15v1.61h-2.11a18.69,18.69,0,0,0,.09-2.26v-12a15.78,15.78,0,0,0-.09-2.07c.71,0,1.24.07,2.3.07h11.61a19.27,19.27,0,0,0,2.28-.09,15.77,15.77,0,0,0-.1,2.09v12a18.1,18.1,0,0,0,.1,2.28h-2.12v-1.61Zm12-12.81h-12v11h12Z"/><path class="cls-16" d="M409.71,735.06a5.07,5.07,0,0,0,2-.16l1.05,1c-.2.39-.2.39-.52,2.48-1,6.16-4.53,10.05-11.09,12.26a5.47,5.47,0,0,0-1.26-1.91,14.8,14.8,0,0,0,5-2.14c3.25-2.16,4.92-5.2,5.38-9.77H398.15v3c0,.79,0,1.48.06,2H396a15.78,15.78,0,0,0,.1-2v-3c0-.8,0-1.38-.07-1.95a19,19,0,0,0,2.2.09H403v-2a9.47,9.47,0,0,0-.12-1.77h2.33a8.52,8.52,0,0,0-.14,1.75v2Z"/><path class="cls-16" d="M432.12,736.67a4.9,4.9,0,0,0-.74.74,37.16,37.16,0,0,1-4.39,3.84v7.63a13.77,13.77,0,0,0,.11,2.21H425a12,12,0,0,0,.12-2.18V742.4a28.4,28.4,0,0,1-6.9,3.1,6.12,6.12,0,0,0-1-1.68,23.1,23.1,0,0,0,5.41-2,26.65,26.65,0,0,0,6.53-4.74,7.34,7.34,0,0,0,1.31-1.54Z"/><path class="cls-16" d="M442.08,732.35a10.42,10.42,0,0,0-.14,2c-.19,6.37-.37,8-1.22,10.37a14.33,14.33,0,0,1-4,5.8,5.67,5.67,0,0,0-1.66-1.54,11.08,11.08,0,0,0,3.79-5.27c.72-2,1-5,1-9.68a11.4,11.4,0,0,0-.07-1.82Zm5.84-.28a12.62,12.62,0,0,0-.16,2.39l-.12,13.36a10.05,10.05,0,0,0,4.05-2.66,11.22,11.22,0,0,0,2.6-4.49,7.56,7.56,0,0,0,1.51,1.59,13.31,13.31,0,0,1-4.73,6,16.32,16.32,0,0,1-3.24,1.65,7.71,7.71,0,0,0-.74.28,3.19,3.19,0,0,0-.55.25l-1.08-1.2a5.25,5.25,0,0,0,.16-1.81l.14-13v-.5a9.88,9.88,0,0,0-.12-1.89Z"/><path class="cls-16" d="M475,750.31a46.25,46.25,0,0,0-7.24-7,25.28,25.28,0,0,1-4.37,4.05,28.92,28.92,0,0,1-4.48,2.74,6.18,6.18,0,0,0-1.33-1.82,22.36,22.36,0,0,0,7.61-5.15,24,24,0,0,0,5.1-7.54,1.71,1.71,0,0,1,.14-.3c0-.07,0-.09.07-.18-.28,0-.28,0-7.82.13a19.23,19.23,0,0,0-2.64.19l-.07-2.19a11.36,11.36,0,0,0,2.18.14h.51l7.95-.09a4.3,4.3,0,0,0,1.64-.21l1.12,1.15a4.1,4.1,0,0,0-.67,1.15,29.08,29.08,0,0,1-3.7,6.39,59.39,59.39,0,0,1,7.64,6.76Z"/><path class="cls-16" d="M489.53,736.65a20.31,20.31,0,0,1-2.49,1.77A7.35,7.35,0,0,0,486,737l.63-.35c-.44,0-.74,0-1.15,0h-.76a13.47,13.47,0,0,0,2.62,4.46,5.6,5.6,0,0,0-.92,1.45,19.1,19.1,0,0,1-1.91-3.78c.07.83.12,2.37.12,3.52V749a20.52,20.52,0,0,0,.13,2.72h-1.91A19.07,19.07,0,0,0,483,749v-6c0-1,0-2.09.12-3.45-.12.42-.21.74-.28,1a20.32,20.32,0,0,1-2.3,5.63,5.26,5.26,0,0,0-1-1.63,21.8,21.8,0,0,0,3.26-7.84h-1.15a9.24,9.24,0,0,0-1.56.09V735a9.17,9.17,0,0,0,1.56.09H483V733a13,13,0,0,0-.12-2.37h1.89a15.5,15.5,0,0,0-.11,2.35V735h.82a7.92,7.92,0,0,0,1.41-.09v1.58a14.78,14.78,0,0,0,5.42-5.63h1.86a11.81,11.81,0,0,0,2.63,3,15.63,15.63,0,0,0,4.5,2.83,6.53,6.53,0,0,0-1,1.61,24.25,24.25,0,0,1-2.9-1.82v1.31c-.6,0-1.1-.06-2-.06h-1.31v1c0,.34,0,.39,0,.83h3.19c.95,0,1.5,0,2.07-.07,0,.62-.07,1.12-.07,1.67v2.42a11.63,11.63,0,0,0,.07,1.72,19.07,19.07,0,0,0-2.23-.09h-2.64a10.21,10.21,0,0,0,6.57,4.58,7.68,7.68,0,0,0-1,1.7,11.88,11.88,0,0,1-6.81-5.59c-1,2.65-2.8,4.23-6.46,5.59a4.48,4.48,0,0,0-1.06-1.59,10.48,10.48,0,0,0,3.84-1.67,5.87,5.87,0,0,0,2.26-3h-2.19a18.06,18.06,0,0,0-2.09.09c0-.43.07-.92.07-1.42v-2.88c0-.66,0-1-.07-1.51a14.36,14.36,0,0,0,2,.07h3v-1.84h-1c-.95,0-1.31,0-2,.06Zm-.33,4.41v2.79h3a23.45,23.45,0,0,0,.28-2.79Zm6.19-4.78a14.79,14.79,0,0,0,1.61,0,15.86,15.86,0,0,1-3.75-3.9,16,16,0,0,1-3.29,3.9,14.67,14.67,0,0,0,1.57,0ZM494,741.06a20.51,20.51,0,0,1-.25,2.79h3.89v-2.79Z"/><path class="cls-16" d="M513.45,732.51a8.85,8.85,0,0,0-.14-1.82h1.93a7.62,7.62,0,0,0-.14,1.8V733H522a17.41,17.41,0,0,0,2.42-.14v1.82a18.92,18.92,0,0,0-2.42-.14h-5.38a17.46,17.46,0,0,0,8.65,4.71,8,8,0,0,0-1,1.73,23.11,23.11,0,0,1-3.35-1.43c-.05.49-.07,1.43-.07,2.3v7.38h1.54a14.09,14.09,0,0,0,2.41-.13v1.84a17.33,17.33,0,0,0-2.53-.14H506.73a17.91,17.91,0,0,0-2.55.14v-1.84a17.4,17.4,0,0,0,2.46.13h1.42v-7.61c0-.92,0-1.49-.06-2.13a22.28,22.28,0,0,1-3.18,1.47,5.66,5.66,0,0,0-1-1.55,19.61,19.61,0,0,0,8.12-4.87h-5a18.09,18.09,0,0,0-2.39.14v-1.82A17,17,0,0,0,507,733h6.42Zm0,3.75c0-.39,0-.92,0-1.38a18.19,18.19,0,0,1-5.22,4.41c.55,0,1.4.05,2.19.05h7.84c.82,0,1.15,0,2.11-.05a16.28,16.28,0,0,1-5.38-4.41c0,.14.05.6.07,1.38v1a6.51,6.51,0,0,0,.12,1.48h-1.89a8.74,8.74,0,0,0,.12-1.5Zm-3.68,6.37h9.29v-1.77h-9.29Zm0,3.24h9.29v-1.79h-9.29Zm0,3.33h9.29v-1.88h-9.29Z"/><path class="cls-16" d="M365,786.87a18.22,18.22,0,0,0-.69-2.37l-1.13-2.85h-7.84l-1.1,2.85a12.23,12.23,0,0,0-.71,2.37h-2.79A19,19,0,0,0,352,784.2l5.13-12.87a13.8,13.8,0,0,0,.74-2.19h2.8a16.72,16.72,0,0,0,.78,2.19l5.15,12.87a23.19,23.19,0,0,0,1.22,2.67Zm-5.26-14.46-.49-1.43c-.11.32-.21.6-.25.76-.12.32-.18.55-.23.67L356,779.77h6.55Z"/><path class="cls-16" d="M375.61,784.16a15.34,15.34,0,0,0,.18,2.71h-2.53a17.29,17.29,0,0,0,.18-2.71V771.07H370a18.81,18.81,0,0,0-2.78.16V769a18,18,0,0,0,2.76.16h9a17.42,17.42,0,0,0,2.92-.16v2.25a19.28,19.28,0,0,0-2.92-.16h-3.35Z"/><path class="cls-16" d="M385.06,786.87a15.24,15.24,0,0,0,.18-2.69V771.79a17.51,17.51,0,0,0-.18-2.72c.83,0,1.54.07,2.62.07h4.74c3.7,0,5.75,1.86,5.75,5.18,0,3.49-2.14,5.49-5.87,5.49h-4.92v4.35a15.1,15.1,0,0,0,.19,2.71Zm7.24-8.94c2.32,0,3.64-1.27,3.64-3.52S394.69,771,392.3,771h-4.92v6.9Z"/><path class="cls-16" d="M410.77,773.65a19.46,19.46,0,0,1-2.48,1.77,7.35,7.35,0,0,0-1.06-1.4l.62-.35c-.44,0-.73,0-1.15,0h-.76a13.64,13.64,0,0,0,2.62,4.46,5.88,5.88,0,0,0-.92,1.45,19.08,19.08,0,0,1-1.9-3.78c.06.83.11,2.37.11,3.52V786a20.16,20.16,0,0,0,.14,2.72h-1.91a20.69,20.69,0,0,0,.14-2.72v-6c0-1,0-2.09.11-3.45-.11.42-.2.74-.27,1a20.32,20.32,0,0,1-2.3,5.63,5.27,5.27,0,0,0-1-1.63,21.81,21.81,0,0,0,3.27-7.84h-1.15a9.3,9.3,0,0,0-1.57.09V772a9.3,9.3,0,0,0,1.57.09h1.36V770a14.05,14.05,0,0,0-.12-2.37H406a15.5,15.5,0,0,0-.11,2.35V772h.83a7.86,7.86,0,0,0,1.4-.09v1.58a14.81,14.81,0,0,0,5.43-5.63h1.86a11.76,11.76,0,0,0,2.62,3,15.69,15.69,0,0,0,4.51,2.83,6.55,6.55,0,0,0-1,1.61,23.34,23.34,0,0,1-2.89-1.82v1.31c-.6,0-1.11-.06-2-.06h-1.31v1c0,.34,0,.39,0,.83h3.2c.94,0,1.49,0,2.07-.07-.05.62-.07,1.12-.07,1.67v2.42a11.63,11.63,0,0,0,.07,1.72,19.07,19.07,0,0,0-2.23-.09h-2.65a10.23,10.23,0,0,0,6.58,4.58,7.31,7.31,0,0,0-1,1.7,11.85,11.85,0,0,1-6.8-5.59c-1,2.65-2.81,4.23-6.46,5.59A4.76,4.76,0,0,0,407,787a10.56,10.56,0,0,0,3.84-1.67,5.85,5.85,0,0,0,2.25-3h-2.18a18.35,18.35,0,0,0-2.1.09,12.61,12.61,0,0,0,.07-1.42v-2.88a13,13,0,0,0-.07-1.51,14.36,14.36,0,0,0,2,.07h3v-1.84h-1c-.94,0-1.31,0-2,.06Zm-.32,4.41v2.79h3a21.76,21.76,0,0,0,.27-2.79Zm6.18-4.78a14.7,14.7,0,0,0,1.61,0,16,16,0,0,1-3.74-3.9,16,16,0,0,1-3.29,3.9,14.38,14.38,0,0,0,1.56,0Zm-1.35,4.78a20.51,20.51,0,0,1-.25,2.79h3.88v-2.79Z"/><path class="cls-16" d="M434.69,769.51a8.2,8.2,0,0,0-.14-1.82h1.93a8.28,8.28,0,0,0-.13,1.8V770h6.85a17.25,17.25,0,0,0,2.41-.14v1.82a18.75,18.75,0,0,0-2.41-.14h-5.38a17.47,17.47,0,0,0,8.64,4.71,7.61,7.61,0,0,0-1,1.73,23.79,23.79,0,0,1-3.36-1.43c0,.49-.07,1.43-.07,2.3v7.38h1.54a14.29,14.29,0,0,0,2.42-.13v1.84a17.52,17.52,0,0,0-2.53-.14H428a18.07,18.07,0,0,0-2.56.14v-1.84a17.5,17.5,0,0,0,2.46.13h1.43v-7.61c0-.92,0-1.49-.07-2.13a21.65,21.65,0,0,1-3.17,1.47,5.48,5.48,0,0,0-1-1.55,19.55,19.55,0,0,0,8.12-4.87h-5a18.2,18.2,0,0,0-2.39.14v-1.82a17.22,17.22,0,0,0,2.49.14h6.41Zm0,3.75c0-.39,0-.92.05-1.38a18.19,18.19,0,0,1-5.22,4.41c.55,0,1.4.05,2.18.05h7.84c.83,0,1.15,0,2.12-.05a16.18,16.18,0,0,1-5.38-4.41c0,.14,0,.6.07,1.38v1a7.2,7.2,0,0,0,.11,1.48h-1.88a8.86,8.86,0,0,0,.11-1.5ZM431,779.63h9.29v-1.77H431Zm0,3.24h9.29v-1.79H431Zm0,3.33h9.29v-1.88H431Z"/><path class="cls-16" d="M353.57,810.86a14.8,14.8,0,0,0-1.84.11v-1.82a10.35,10.35,0,0,0,1.84.14h1.18v-2a13.29,13.29,0,0,0-.17-2.33h2a16.56,16.56,0,0,0-.14,2.3v2.07h.37a10.73,10.73,0,0,0,1.54-.09V811a11.45,11.45,0,0,0-1.59-.09h-.32v4.48c.67-.25,1-.41,2-.85v1.63c-1,.44-1.26.58-2,.88v6.57c0,1.38-.62,1.82-2.55,1.82a14.15,14.15,0,0,1-1.82-.12,6.63,6.63,0,0,0-.39-1.7,13.12,13.12,0,0,0,2.14.21c.71,0,.9-.12.9-.65v-5.49l-1.18.41a6,6,0,0,0-.8.28l-.44.14-.46.2-.34-1.84a14.92,14.92,0,0,0,3.22-.87v-5.1Zm7.2,4.55a11.59,11.59,0,0,0-1.63.09v-1.72a9.78,9.78,0,0,0,1.79.11H364a11.23,11.23,0,0,0,1.67-.09v1.68a11.4,11.4,0,0,0-1.47-.07h-1.1V821c1.17-.33,1.56-.44,3.13-.92v1.54a71.51,71.51,0,0,1-6.95,1.93,7.47,7.47,0,0,0-1.08.28l-.37-1.87a20,20,0,0,0,3.59-.57v-6Zm.6-4.76c-.92,0-1.66.05-2.35.11v-1.84c.74.07,1.47.12,2.35.12H366c0-.51,0-.51,0-2.46a10.29,10.29,0,0,0-.12-1.61h2a10.6,10.6,0,0,0-.12,2.39c0,.83,0,.85,0,1.68H370a13.5,13.5,0,0,0,2.17-.14v1.89a18.34,18.34,0,0,0-2.35-.14h-2.07a35.8,35.8,0,0,0,1.27,9.1,10.6,10.6,0,0,0,1.37,3c.14.16.23.25.28.25s.37-1.7.37-3.45a4.83,4.83,0,0,0,1.54,1,13.32,13.32,0,0,1-.46,3.29c-.3,1-.69,1.4-1.29,1.4-1.08,0-2.21-1.4-3.13-4s-1.44-5.81-1.65-10.62Zm8.34-5.57a16.18,16.18,0,0,1,2,2.81l-1.29.9a13,13,0,0,0-1.91-2.9Z"/><path class="cls-16" d="M377,808.72c.58,0,1,.07,1.87.07a43.51,43.51,0,0,0,5.24-.3c-.48-1.22-1.13-2.69-1.31-3l2-.32a17.45,17.45,0,0,0,1.13,3.11,29.8,29.8,0,0,0,6.16-1.5l.17,1.8c-1.75.46-4.56,1.05-5.73,1.24.39.85.85,1.77,1.2,2.37a25.14,25.14,0,0,0,5.28-1.41l.21,1.87c-.51.09-.51.09-3,.71-.35.09-.76.16-1.75.37a25.46,25.46,0,0,0,3.27,4.46l-1.54,1.1a11.29,11.29,0,0,0-5.5-1c-3.24,0-5.27.94-5.27,2.43s1.68,2.21,4.72,2.21a16.35,16.35,0,0,0,6.9-1.51l.36,2.06-1.42.4a21,21,0,0,1-5.89.82,9.52,9.52,0,0,1-5-1,3.37,3.37,0,0,1-1.75-2.94,3.5,3.5,0,0,1,1.89-3,10.25,10.25,0,0,1,5.24-1.1,13.9,13.9,0,0,1,4.44.62,19.42,19.42,0,0,1-2.25-3.27,54,54,0,0,1-8.07.67,10.23,10.23,0,0,0-1.68.09l-.05-1.86a13.83,13.83,0,0,0,2,.09,48.15,48.15,0,0,0,7-.53c-.51-.94-.51-.94-1.18-2.39a51.85,51.85,0,0,1-6.21.39,9.93,9.93,0,0,0-1.47,0Z"/><path class="cls-16" d="M399.27,807.11a10.7,10.7,0,0,0-1.77.11v-1.79a15,15,0,0,0,1.87.11h7.15a13.56,13.56,0,0,0,1.84-.09V807c.43,0,.85,0,1.4,0H416a15.72,15.72,0,0,0,1.78-.09c-.05.23-.12.62-.21,1.33A27.39,27.39,0,0,1,414,818.9a13.68,13.68,0,0,0,4.83,4.4,9.26,9.26,0,0,0-1,1.86,17.87,17.87,0,0,1-4.83-4.67,18.25,18.25,0,0,1-4.94,4.69,6,6,0,0,0-1.06-1.72,15.29,15.29,0,0,0,5-4.56,22.88,22.88,0,0,1-2-4.89,28.74,28.74,0,0,1-1-5.36,8.39,8.39,0,0,0-1.24.11v-1.63c-.39,0-.67,0-1,0v16.16a16.78,16.78,0,0,0,.13,2.42h-1.95a19.74,19.74,0,0,0,.14-2.42v-2.55c-1.4.44-3.63,1-5.08,1.31a20.4,20.4,0,0,0-2.21.53l-.51-1.91a12.46,12.46,0,0,0,2-.25Zm1.7,3.15h4.1v-3.15H401Zm0,4.57h4.1v-3.1H401Zm0,5.25c1.68-.33,2.26-.46,4.1-1v-2.78H401Zm9.69-11.43a26.21,26.21,0,0,0,.92,4.9,18.14,18.14,0,0,0,1.47,3.72,23.78,23.78,0,0,0,2.71-8.62Z"/><path class="cls-16" d="M425.42,813.22c.05-.16.05-.16.16-.62a9.84,9.84,0,0,1,1.38-3.22c1.27-1.84,2.79-2.78,4.53-2.78a4.43,4.43,0,0,1,3.8,2,10.89,10.89,0,0,1-4.05,14.9,18.52,18.52,0,0,1-4.21,1.33,5.57,5.57,0,0,0-1-1.88,12.25,12.25,0,0,0,4.78-1.41c2.69-1.49,3.93-3.84,3.93-7.47s-1.24-5.63-3.4-5.63c-1.63,0-3.1,1.29-4.37,3.84a11.26,11.26,0,0,0-1.26,5.13V818l-2,0a1.34,1.34,0,0,0,0-.25c0-.07,0-.21,0-.44s-.05-2.69-.05-3a55.2,55.2,0,0,1,.76-8.51,4,4,0,0,0,0-.74l2.11.16c-.27.81-.34,1.13-.92,5.15-.2,1.45-.25,2-.32,2.76Z"/><path class="cls-16" d="M451.55,810.65a19.46,19.46,0,0,1-2.48,1.77A7.35,7.35,0,0,0,448,811l.62-.35c-.44,0-.74,0-1.15,0h-.76a13.64,13.64,0,0,0,2.62,4.46,5.88,5.88,0,0,0-.92,1.45,19.08,19.08,0,0,1-1.9-3.78c.06.83.11,2.37.11,3.52V823a20.16,20.16,0,0,0,.14,2.72h-1.91A20.69,20.69,0,0,0,445,823v-6c0-1,0-2.09.11-3.45-.11.42-.2.74-.27,1a20.32,20.32,0,0,1-2.3,5.63,5.27,5.27,0,0,0-1-1.63,21.81,21.81,0,0,0,3.27-7.84h-1.15a9.3,9.3,0,0,0-1.57.09V809a9.37,9.37,0,0,0,1.57.09H445V807a14.39,14.39,0,0,0-.11-2.37h1.89a14,14,0,0,0-.12,2.35V809h.83a7.86,7.86,0,0,0,1.4-.09v1.58a14.81,14.81,0,0,0,5.43-5.63h1.86a11.76,11.76,0,0,0,2.62,3,15.69,15.69,0,0,0,4.51,2.83,6.55,6.55,0,0,0-1,1.61,23.34,23.34,0,0,1-2.89-1.82v1.31c-.6,0-1.11-.06-2-.06H456.1v1c0,.34,0,.39,0,.83h3.2c.94,0,1.49,0,2.07-.07-.05.62-.07,1.12-.07,1.67v2.42a11.63,11.63,0,0,0,.07,1.72,19.07,19.07,0,0,0-2.23-.09h-2.65a10.23,10.23,0,0,0,6.58,4.58,7.31,7.31,0,0,0-1,1.7,11.85,11.85,0,0,1-6.8-5.59c-1,2.65-2.81,4.23-6.47,5.59a4.6,4.6,0,0,0-1.05-1.59,10.56,10.56,0,0,0,3.84-1.67,5.85,5.85,0,0,0,2.25-3h-2.18a18.35,18.35,0,0,0-2.1.09,12.61,12.61,0,0,0,.07-1.42v-2.88a13,13,0,0,0-.07-1.51,14.36,14.36,0,0,0,2,.07h3v-1.84h-1c-.94,0-1.31,0-2,.06Zm-.32,4.41v2.79h3a21.76,21.76,0,0,0,.27-2.79Zm6.18-4.78a14.7,14.7,0,0,0,1.61,0,16,16,0,0,1-3.74-3.9,16,16,0,0,1-3.29,3.9,14.38,14.38,0,0,0,1.56,0Zm-1.35,4.78a18.83,18.83,0,0,1-.26,2.79h3.89v-2.79Z"/><path class="cls-16" d="M475.47,806.51a8.2,8.2,0,0,0-.14-1.82h1.93a8.28,8.28,0,0,0-.13,1.8V807H484a17.25,17.25,0,0,0,2.41-.14v1.82a18.64,18.64,0,0,0-2.41-.14H478.6a17.47,17.47,0,0,0,8.64,4.71,8,8,0,0,0-1,1.73,23.79,23.79,0,0,1-3.36-1.43c0,.49-.07,1.43-.07,2.3v7.38h1.54a14.29,14.29,0,0,0,2.42-.13v1.84a17.52,17.52,0,0,0-2.53-.14H468.76a18.07,18.07,0,0,0-2.56.14v-1.84a17.5,17.5,0,0,0,2.46.13h1.43v-7.61c0-.92,0-1.49-.07-2.13a21.65,21.65,0,0,1-3.17,1.47,5.48,5.48,0,0,0-1-1.55,19.55,19.55,0,0,0,8.12-4.87h-5a18.31,18.31,0,0,0-2.39.14v-1.82a17.12,17.12,0,0,0,2.49.14h6.41Zm0,3.75c0-.39,0-.92,0-1.38a18.19,18.19,0,0,1-5.22,4.41c.55,0,1.4.05,2.18.05h7.84c.83,0,1.15,0,2.12-.05a16.18,16.18,0,0,1-5.38-4.41c0,.14,0,.6.07,1.38v1a7.2,7.2,0,0,0,.11,1.48h-1.88a8.86,8.86,0,0,0,.11-1.5Zm-3.68,6.37h9.29v-1.77h-9.29Zm0,3.24h9.29v-1.79h-9.29Zm0,3.33h9.29v-1.88h-9.29Z"/><path class="cls-16" d="M356.24,952.1a14.22,14.22,0,0,0-.12,2.36L356,967.87a17.26,17.26,0,0,0,6.51-2.37,13.53,13.53,0,0,0,5-5.45,7,7,0,0,0,1.54,1.73c-3.15,4.73-6.66,6.94-12.9,8.16a5.32,5.32,0,0,0-1.35.35L353.76,969a5.84,5.84,0,0,0,.18-1.72l.05-12.72a12.25,12.25,0,0,0-.1-2.41Z"/><path class="cls-16" d="M377.38,959.8a5.35,5.35,0,0,0-.21.64,22,22,0,0,1-4.09,8.76,6.37,6.37,0,0,0-1.87-1.12,15.1,15.1,0,0,0,3.34-5.77,12.35,12.35,0,0,0,.78-3.06Zm3-5.8a12.6,12.6,0,0,0-.13-2.36h2.25a15.85,15.85,0,0,0-.12,2.41v1.43h5.55a18.24,18.24,0,0,0,2.82-.16v2.06a23.93,23.93,0,0,0-2.78-.11h-5.59v11.24a18,18,0,0,0,.12,2.6h-2.25a15.5,15.5,0,0,0,.13-2.6V957.27h-5.45a23.16,23.16,0,0,0-2.76.11v-2.06a18.5,18.5,0,0,0,2.79.16h5.42Zm6.86,5.27a16.31,16.31,0,0,0,.85,2.6,19.67,19.67,0,0,0,3.47,6.16,7.67,7.67,0,0,0-1.79,1.22,26.91,26.91,0,0,1-3.52-6.83l-.49-1.42a4.66,4.66,0,0,0-.18-.56,4.22,4.22,0,0,0-.25-.66Zm4.62-6.9a2.4,2.4,0,0,1-2.39,2.39,2.39,2.39,0,1,1,0-4.78A2.4,2.4,0,0,1,391.82,952.37Zm-3.8,0a1.39,1.39,0,0,0,1.41,1.38,1.38,1.38,0,1,0-1.41-1.38Z"/><path class="cls-16" d="M394.35,959.94a25.5,25.5,0,0,0,3.18.14h12.92a19.22,19.22,0,0,0,3.1-.14v2.27a27.47,27.47,0,0,0-3.12-.11H397.55a25.92,25.92,0,0,0-3.2.11Z"/><path class="cls-16" d="M419.65,970.68a15.69,15.69,0,0,0,.14-2.67V954a12.54,12.54,0,0,0-.14-2.53H422a18.94,18.94,0,0,0-.11,2.6v4.1A60.58,60.58,0,0,1,432.14,963L431,965a49,49,0,0,0-8.46-4.51,4.19,4.19,0,0,1-.76-.39,13.63,13.63,0,0,1,.09,1.89v6a21.14,21.14,0,0,0,.11,2.67Z"/><path class="cls-16" d="M448,962.38h-4a12.85,12.85,0,0,0-1.84.09v-1.18c-1.05.53-1.24.6-2.18,1v7.35c0,1.41-.55,1.82-2.41,1.82-.42,0-1.09-.05-1.84-.09a6,6,0,0,0-.37-1.73,13.32,13.32,0,0,0,2.09.19c.64,0,.83-.14.83-.67V963c-2,.76-2,.76-2.67,1.08l-.41-1.84a12.06,12.06,0,0,0,3.08-1V956.7H437a11.35,11.35,0,0,0-1.7.11V955a9.82,9.82,0,0,0,1.72.14h1.2v-2a12.1,12.1,0,0,0-.14-2.32h2a11.64,11.64,0,0,0-.14,2.29v2h.94a9.05,9.05,0,0,0,1.54-.09v1.72c-.46,0-.82-.06-1.51-.06h-1v3.93c1.06-.46,1.38-.6,2.35-1.08v1.24a13.54,13.54,0,0,0,1.81.09h9.57a12.51,12.51,0,0,0,2-.14v1.75a13.69,13.69,0,0,0-2-.11h-4v2.43h3a11.56,11.56,0,0,0,2-.11v1.68a11.09,11.09,0,0,0-2-.12h-3v3a18.71,18.71,0,0,0,2.83.18c1.19,0,2.36-.05,3.7-.16a5.71,5.71,0,0,0-.49,1.77h-2.18c-5.26,0-7.24-.69-9.31-3.24a15,15,0,0,1-2.6,3.81,5,5,0,0,0-1.38-1.12,11.1,11.1,0,0,0,3-4.37,10.14,10.14,0,0,0,.71-2.83l1.75.41c-.16.46-.16.46-.28.86-.23.8-.37,1.24-.53,1.67a6.16,6.16,0,0,0,3.13,2.58Zm-2.53-3.06c-.85,0-1.45,0-2,.06,0-.66,0-.66.06-2.23v-3.44c0-.83,0-1.54-.06-2.12a18.93,18.93,0,0,0,2.16.09h6.44a18.45,18.45,0,0,0,2.18-.09,13.54,13.54,0,0,0-.09,1.89v3.77a19.4,19.4,0,0,0,.09,2.13c-.62,0-1.31-.06-2.23-.06Zm-.32-4.56h7.33v-1.63h-7.33Zm0,3.15h7.33v-1.72h-7.33Z"/><path class="cls-16" d="M467,953a10.1,10.1,0,0,0-.16-2.14H469a11,11,0,0,0-.16,2.14v5.61h5.73v-4.21a12.86,12.86,0,0,0-.1-1.7h2a12.05,12.05,0,0,0-.12,1.81v4.6c0,.51,0,.88,0,1.24-.55,0-1,0-1.47,0h-6.12v8.16h6.51v-4.23a12,12,0,0,0-.12-2h2.05a13.27,13.27,0,0,0-.12,2.09v5.13a12.07,12.07,0,0,0,.14,2h-1.95v-1.31H460.8v1.31h-2a11.76,11.76,0,0,0,.14-2v-5a13.92,13.92,0,0,0-.11-2.09h2a11.88,11.88,0,0,0-.11,2v4.09H467v-8.16h-5.68c-.51,0-.92,0-1.49,0,0-.48,0-.84,0-1.24v-4.55a15.9,15.9,0,0,0-.11-1.86h2a12.16,12.16,0,0,0-.09,1.75v4.16H467Z"/></g></g></svg>