<svg xmlns="http://www.w3.org/2000/svg" viewBox="0 0 281.13 23.1"><defs><style>.cls-1{fill:#5fc1c7;}</style></defs><g id="レイヤー_2" data-name="レイヤー 2"><g id="文字"><path class="cls-1" d="M0,16.32H4.29a2.51,2.51,0,0,0,.93,2.09,3.38,3.38,0,0,0,2.16.73,2.9,2.9,0,0,0,2-.79,2.62,2.62,0,0,0,.85-2,2.75,2.75,0,0,0-1-2.4A8.66,8.66,0,0,0,6.9,12.78l-.25-.1-.26-.08-.16-.06-.17-.06a17.57,17.57,0,0,1-1.86-.73A5.79,5.79,0,0,1,1.43,8.91,6.66,6.66,0,0,1,.84,7c0-.12,0-.23,0-.34a2,2,0,0,1,0-.35A5.85,5.85,0,0,1,2.76,1.79,6.58,6.58,0,0,1,7.35,0,6.47,6.47,0,0,1,11.9,1.85,5.81,5.81,0,0,1,13.83,6.3l-4.23,0a2.14,2.14,0,0,0-.78-1.65A2.58,2.58,0,0,0,7.11,4a2,2,0,0,0-1.59.66,2.32,2.32,0,0,0-.6,1.62v.06A1.88,1.88,0,0,0,5.64,8a6.29,6.29,0,0,0,1.65.9L7.5,9,7.71,9l.3.11.3.1c.68.22,1.34.47,2,.74A6.71,6.71,0,0,1,12,11.07a5.82,5.82,0,0,1,1.77,2.18,6.79,6.79,0,0,1,.57,2.86,6.57,6.57,0,0,1-2.13,5,7.13,7.13,0,0,1-5.07,2,7.3,7.3,0,0,1-5-1.92A6.14,6.14,0,0,1,0,16.35Z"/><path class="cls-1" d="M31.23.39V14.85q0,.63.06,1.23a3.17,3.17,0,0,0,.36,1.17,3.81,3.81,0,0,0,1.21,1.37,3,3,0,0,0,1.73.52h.18a3.46,3.46,0,0,0,1.48-.46,3.14,3.14,0,0,0,1.13-1.1,3.45,3.45,0,0,0,.52-1.53C38,15.51,38,15,38,14.4V.39h4.11V14.22a18.25,18.25,0,0,1-.27,3.2,6.13,6.13,0,0,1-1.35,2.83,8.15,8.15,0,0,1-2.64,2.07,7.16,7.16,0,0,1-3.24.78l-.32,0H34a7.44,7.44,0,0,1-2.78-.87,8.15,8.15,0,0,1-2.26-1.77,6.27,6.27,0,0,1-1.5-2.91,17,17,0,0,1-.3-3.27V.39Z"/><path class="cls-1" d="M54.6,16.32h4.29a2.51,2.51,0,0,0,.93,2.09,3.38,3.38,0,0,0,2.16.73,2.86,2.86,0,0,0,2-.79,2.62,2.62,0,0,0,.86-2,2.75,2.75,0,0,0-1-2.4,8.66,8.66,0,0,0-2.31-1.17l-.26-.1L61,12.6l-.17-.06-.16-.06a17.57,17.57,0,0,1-1.86-.73,5.84,5.84,0,0,1-1.65-1.19A6.12,6.12,0,0,1,56,8.91,7,7,0,0,1,55.44,7c0-.12,0-.23,0-.34s0-.23,0-.35a5.85,5.85,0,0,1,2-4.51A6.58,6.58,0,0,1,62,0a6.43,6.43,0,0,1,4.54,1.85A5.79,5.79,0,0,1,68.43,6.3l-4.23,0a2.14,2.14,0,0,0-.78-1.65A2.58,2.58,0,0,0,61.71,4a2,2,0,0,0-1.59.66,2.32,2.32,0,0,0-.6,1.62v.06A1.88,1.88,0,0,0,60.24,8a6.29,6.29,0,0,0,1.65.9L62.1,9l.21.07.3.11.3.1c.68.22,1.33.47,2,.74a6.88,6.88,0,0,1,1.76,1.09,5.82,5.82,0,0,1,1.77,2.18A6.79,6.79,0,0,1,69,16.11a6.57,6.57,0,0,1-2.13,5,7.13,7.13,0,0,1-5.07,2,7.34,7.34,0,0,1-5-1.92,6.17,6.17,0,0,1-2.17-4.83Z"/><path class="cls-1" d="M84,4.38H79.89v-4H92.22v4H88.08V22.56H84Z"/><path class="cls-1" d="M111.63.39h3.21l9.33,22.17h-4.53l-2.4-5.73h-7.86l-2.46,5.73h-4.53Zm4,12.45-2.37-6.72-2.37,6.72Z"/><path class="cls-1" d="M136.32.39h4.11V22.56h-4.11Z"/><path class="cls-1" d="M154.62.39h4.62l9.24,16.2V.39h4.11V22.56H168l-9.3-16.14V22.56h-4.11Z"/><path class="cls-1" d="M194.13.39h3.21l9.33,22.17h-4.53l-2.4-5.73h-7.86l-2.46,5.73h-4.53Zm4,12.45-2.37-6.72-2.37,6.72Z"/><path class="cls-1" d="M218.82.39h4a1,1,0,0,0,.24,0h.63c.86,0,1.71,0,2.56.12a7,7,0,0,1,2.48.72A5.63,5.63,0,0,1,231,3.32a5.34,5.34,0,0,1,.27,5.38,3.93,3.93,0,0,1-1.83,1.77,5.06,5.06,0,0,1,2.8,2,5.86,5.86,0,0,1,1,3.34,6.32,6.32,0,0,1-.71,3,6.75,6.75,0,0,1-2,2.31,6.1,6.1,0,0,1-2.31,1.07,14.61,14.61,0,0,1-2.55.34l-.65,0h-6.19Zm4.89,8.52.1,0h.59l.54,0a3.74,3.74,0,0,0,.82-.08,2.78,2.78,0,0,0,.74-.22,2,2,0,0,0,.93-.84,2.36,2.36,0,0,0,.33-1.2,1.92,1.92,0,0,0-.39-1.2,2.3,2.3,0,0,0-1-.75,1.79,1.79,0,0,0-.54-.16l-.63-.08h-.93a1.53,1.53,0,0,1-.3,0h-1v4.5Zm.93,9.66a9.94,9.94,0,0,0,1.74-.09,4,4,0,0,0,1.65-.66,2.33,2.33,0,0,0,.82-.93,2.85,2.85,0,0,0,.26-1.23,2.31,2.31,0,0,0-.38-1.35,3.07,3.07,0,0,0-1.09-.93,3.72,3.72,0,0,0-1.35-.39q-.69-.06-1.41-.06h-1.95v5.64Z"/><path class="cls-1" d="M246.12.39h4.11V18.57H257v4H246.12Z"/><path class="cls-1" d="M269.22.39h11.91v4h-7.8v5.1h7.47v4h-7.47v5.1h7.8v4H269.22Z"/></g></g></svg>