<svg xmlns="http://www.w3.org/2000/svg" viewBox="0 0 36.85 40.98"><defs><style>.cls-1{fill:#5fc1c7;}</style></defs><g id="レイヤー_2" data-name="レイヤー 2"><g id="文字"><path class="cls-1" d="M15.79,22.88c2.93,3.69,5.34,8,6.12,8.83s1.46.22,1.57-.76a9.52,9.52,0,0,1,2.07-4.28c1.21-1.59,2.24-1.08,3.24-.41s6.29,4.36,7.19,5.15c2.24,1.89-.35,4.25-1.86,5.45s-8.71,4.7-10.61,4C20.91,40,13.2,32.08,9.73,27.69S.33,14,0,11.26c-.22-2,4.83-8.2,6.35-9.41s4.4-3.18,5.72-.56c.57,1,3,7,3.39,8.17s.68,2.24-1.14,3.07a9.83,9.83,0,0,1-4.65,1c-1-.12-1.77.38-1.09,1.34S12.87,19.2,15.79,22.88Z"/></g></g></svg>