<svg id="time" xmlns="http://www.w3.org/2000/svg" width="15.155" height="15.155" viewBox="0 0 15.155 15.155">
  <path id="パス_7" data-name="パス 7" d="M7.577,0a7.577,7.577,0,1,0,7.577,7.577A7.586,7.586,0,0,0,7.577,0Zm0,13.351a5.773,5.773,0,1,1,5.773-5.773A5.78,5.78,0,0,1,7.577,13.351Z" fill="#333"/>
  <path id="パス_8" data-name="パス 8" d="M157.476,115.758a.687.687,0,0,0-.687.687v3.108l-2.192,2.192a.687.687,0,1,0,.971.971l2.594-2.594v-3.677A.687.687,0,0,0,157.476,115.758Z" transform="translate(-149.826 -112.332)" fill="#333"/>
</svg>
