<svg xmlns="http://www.w3.org/2000/svg" viewBox="0 0 527.31 13.39"><defs><style>.cls-1{fill:#6c8485;}</style></defs><g id="レイヤー_2" data-name="レイヤー 2"><g id="文字"><path class="cls-1" d="M0,.32H7.9V1.73H1.51V5.94H7.45v1.4H1.51v5.73H0Z"/><path class="cls-1" d="M21.26.32h1.42L28.1,13.07H26.33L25,9.94H18.67l-1.32,3.13H15.64Zm.68,2h0L19.26,8.53h5.2Z"/><path class="cls-1" d="M46.82,3A3.78,3.78,0,0,0,45.4,1.79a4.22,4.22,0,0,0-1.77-.39,4.36,4.36,0,0,0-2,.44A4.64,4.64,0,0,0,40.14,3a5.31,5.31,0,0,0-1,1.69,5.68,5.68,0,0,0-.36,2,5.94,5.94,0,0,0,.36,2.08,5.27,5.27,0,0,0,1,1.67,4.73,4.73,0,0,0,1.53,1.12,4.58,4.58,0,0,0,2,.42,4.69,4.69,0,0,0,2.09-.46,4.8,4.8,0,0,0,1.6-1.32l1.14.95a5.25,5.25,0,0,1-2.08,1.69,6.71,6.71,0,0,1-2.75.54,6.55,6.55,0,0,1-2.55-.5A6.17,6.17,0,0,1,39,11.49a6.31,6.31,0,0,1-1.37-2.11,7.1,7.1,0,0,1-.5-2.68,7.11,7.11,0,0,1,.48-2.63A6.32,6.32,0,0,1,39,1.94,6.44,6.44,0,0,1,41,.52,6.37,6.37,0,0,1,43.63,0a6.76,6.76,0,0,1,2.49.47,4.56,4.56,0,0,1,2,1.53Z"/><path class="cls-1" d="M58.66.32h1.51V13.07H58.66Z"/><path class="cls-1" d="M71.44.32H73V11.66h5.84v1.41H71.44Z"/><path class="cls-1" d="M88.54.32h1.51V13.07H88.54Z"/><path class="cls-1" d="M109.87,1.73h-4.21V13.07h-1.51V1.73H99.94V.32h9.93Z"/><path class="cls-1" d="M122.76,7.58,118,.32h1.92l3.59,5.76L127.21.32H129l-4.75,7.26v5.49h-1.51Z"/><path class="cls-1" d="M151.65.32h1.51V13.07h-1.51Z"/><path class="cls-1" d="M164.43.32h1.91l7.38,10.59h0V.32h1.51V13.07h-1.9L166,2.48h0V13.07h-1.51Z"/><path class="cls-1" d="M195.08,1.73h-4.21V13.07h-1.51V1.73h-4.21V.32h9.93Z"/><path class="cls-1" d="M205,.32h3.26a16,16,0,0,1,1.83.11,4.84,4.84,0,0,1,1.63.47,3,3,0,0,1,1.17,1,3.44,3.44,0,0,1,.45,1.88,3.07,3.07,0,0,1-.85,2.27,4,4,0,0,1-2.34,1.1l3.62,5.87h-1.85l-3.46-5.73h-1.94v5.73H205Zm1.52,5.62h1.35c.42,0,.85,0,1.3,0a4.34,4.34,0,0,0,1.24-.23,2.18,2.18,0,0,0,.94-.62,1.78,1.78,0,0,0,.37-1.22,2,2,0,0,0-.27-1.09,1.82,1.82,0,0,0-.71-.64,3.17,3.17,0,0,0-1-.3,8.27,8.27,0,0,0-1.11-.07h-2.12Z"/><path class="cls-1" d="M230,13.39a7,7,0,0,1-2.67-.5,6.34,6.34,0,0,1-2.1-1.4,6.15,6.15,0,0,1-1.39-2.12,7.09,7.09,0,0,1-.5-2.67,7.14,7.14,0,0,1,.5-2.68,6.15,6.15,0,0,1,1.39-2.12,6.34,6.34,0,0,1,2.1-1.4,7.41,7.41,0,0,1,5.35,0,6.34,6.34,0,0,1,2.1,1.4A6.15,6.15,0,0,1,236.15,4a7.14,7.14,0,0,1,.49,2.68,7.08,7.08,0,0,1-.49,2.67,6.15,6.15,0,0,1-1.39,2.12,6.34,6.34,0,0,1-2.1,1.4A7,7,0,0,1,230,13.39Zm0-1.4a4.91,4.91,0,0,0,2.05-.42,4.66,4.66,0,0,0,1.59-1.13,5.34,5.34,0,0,0,1-1.68A5.83,5.83,0,0,0,235,6.7a5.89,5.89,0,0,0-.36-2.07,5.34,5.34,0,0,0-1-1.68A4.66,4.66,0,0,0,232,1.82a5.19,5.19,0,0,0-4.09,0A4.66,4.66,0,0,0,226.35,3a5.16,5.16,0,0,0-1,1.68,5.95,5.95,0,0,0,0,4.13,5.16,5.16,0,0,0,1,1.68,4.66,4.66,0,0,0,1.59,1.13A4.9,4.9,0,0,0,230,12Z"/><path class="cls-1" d="M246.94.32h4.9a6.38,6.38,0,0,1,1.33.15,6.12,6.12,0,0,1,1.39.46,6.27,6.27,0,0,1,1.34.82A5.41,5.41,0,0,1,257,3a6.2,6.2,0,0,1,.77,1.64,6.84,6.84,0,0,1,.29,2.1,6.77,6.77,0,0,1-.29,2.09,6.06,6.06,0,0,1-.77,1.64,5.46,5.46,0,0,1-1.12,1.22,6.65,6.65,0,0,1-1.34.81,6.12,6.12,0,0,1-1.39.46,6.38,6.38,0,0,1-1.33.15h-4.9Zm1.51,11.34h2.88a7,7,0,0,0,2-.28,4.56,4.56,0,0,0,1.62-.89A4.45,4.45,0,0,0,256.07,9a5.88,5.88,0,0,0,.39-2.25,5.81,5.81,0,0,0-.39-2.25A4.12,4.12,0,0,0,253.37,2a6.71,6.71,0,0,0-2-.29h-2.88Z"/><path class="cls-1" d="M278.17,8.21a7.57,7.57,0,0,1-.26,2,4.46,4.46,0,0,1-.83,1.64A4,4,0,0,1,275.6,13a6.16,6.16,0,0,1-4.47,0,4,4,0,0,1-1.48-1.14,4.46,4.46,0,0,1-.83-1.64,7.57,7.57,0,0,1-.26-2V.32h1.51V8a6.7,6.7,0,0,0,.16,1.5,3.72,3.72,0,0,0,.54,1.27,2.75,2.75,0,0,0,1,.9,4,4,0,0,0,3.17,0,2.83,2.83,0,0,0,1-.9,3.72,3.72,0,0,0,.54-1.27,7.33,7.33,0,0,0,.16-1.5V.32h1.51Z"/><path class="cls-1" d="M298.31,3a3.63,3.63,0,0,0-1.42-1.16,4.14,4.14,0,0,0-1.76-.39,4.44,4.44,0,0,0-2,.44A4.7,4.7,0,0,0,291.64,3a5.14,5.14,0,0,0-1,1.69,5.68,5.68,0,0,0-.36,2,5.94,5.94,0,0,0,.36,2.08,5.09,5.09,0,0,0,1,1.67,4.67,4.67,0,0,0,3.5,1.54,4.72,4.72,0,0,0,2.09-.46,4.9,4.9,0,0,0,1.6-1.32l1.13.95a5.18,5.18,0,0,1-2.08,1.69,7,7,0,0,1-5.3,0,6.27,6.27,0,0,1-2.06-1.4,6.46,6.46,0,0,1-1.37-2.11,7.1,7.1,0,0,1-.49-2.68,7.31,7.31,0,0,1,.47-2.63,6.33,6.33,0,0,1,6-4.07,6.84,6.84,0,0,1,2.49.47,4.56,4.56,0,0,1,2,1.53Z"/><path class="cls-1" d="M318.71,1.73h-4.22V13.07H313V1.73h-4.21V.32h9.94Z"/><path class="cls-1" d="M328.59.32h1.51V13.07h-1.51Z"/><path class="cls-1" d="M347.29,13.39a7,7,0,0,1-2.67-.5,6.49,6.49,0,0,1-2.11-1.4,6.27,6.27,0,0,1-1.38-2.12,7.09,7.09,0,0,1-.5-2.67,7.14,7.14,0,0,1,.5-2.68,6.27,6.27,0,0,1,1.38-2.12A6.49,6.49,0,0,1,344.62.5,7.38,7.38,0,0,1,350,.5a6.38,6.38,0,0,1,2.11,1.4A6.3,6.3,0,0,1,353.46,4,7.14,7.14,0,0,1,354,6.7a7.08,7.08,0,0,1-.49,2.67,6.3,6.3,0,0,1-1.39,2.12,6.38,6.38,0,0,1-2.11,1.4A7,7,0,0,1,347.29,13.39Zm0-1.4a4.87,4.87,0,0,0,2-.42,4.79,4.79,0,0,0,1.6-1.13,5.14,5.14,0,0,0,1-1.68,5.62,5.62,0,0,0,.37-2.06A5.67,5.67,0,0,0,352,4.63a5.14,5.14,0,0,0-1-1.68,4.79,4.79,0,0,0-1.6-1.13,5.16,5.16,0,0,0-4.08,0A4.79,4.79,0,0,0,343.65,3a5.32,5.32,0,0,0-1,1.68,5.67,5.67,0,0,0-.37,2.07,5.62,5.62,0,0,0,.37,2.06,5.32,5.32,0,0,0,1,1.68,4.79,4.79,0,0,0,1.6,1.13A4.9,4.9,0,0,0,347.29,12Z"/><path class="cls-1" d="M364.48.32h1.91l7.38,10.59h0V.32h1.51V13.07h-1.91L366,2.48h0V13.07h-1.51Z"/><path class="cls-1" d="M399.69.32h8V1.73h-6.5v4h6.07V7.13H401.2v4.53H408v1.41h-8.33Z"/><path class="cls-1" d="M421.47,6.35l-4.29-6h1.95l3.44,5,3.4-5h1.89l-4.29,6,4.7,6.72h-2l-3.78-5.65-3.79,5.65h-1.88Z"/><path class="cls-1" d="M442,.32h1.43l5.41,12.75h-1.76l-1.3-3.13h-6.37l-1.31,3.13h-1.71Zm.69,2h0L440,8.53h5.21Z"/><path class="cls-1" d="M458.67.32h2.25l4.32,10h0l4.36-10h2.19V13.07h-1.51V2.38h0l-4.57,10.69h-.92L460.22,2.38h0V13.07h-1.52Z"/><path class="cls-1" d="M483.1.32h3.78a7.59,7.59,0,0,1,1.68.18,4,4,0,0,1,1.42.57,2.86,2.86,0,0,1,1,1.08,3.41,3.41,0,0,1,.37,1.67A3.42,3.42,0,0,1,491,5.54a3.12,3.12,0,0,1-1,1.08,4.07,4.07,0,0,1-1.36.56,6.4,6.4,0,0,1-1.4.16h-2.56v5.73H483.1Zm1.51,5.62h2.56A3.08,3.08,0,0,0,489,5.43a1.84,1.84,0,0,0,.71-1.6A1.81,1.81,0,0,0,489,2.24a3.08,3.08,0,0,0-1.84-.51h-2.56Z"/><path class="cls-1" d="M501.87.32h1.52V11.66h5.83v1.41h-7.35Z"/><path class="cls-1" d="M519,.32h8V1.73h-6.5v4h6.07V7.13h-6.07v4.53h6.83v1.41H519Z"/></g></g></svg>