<svg xmlns="http://www.w3.org/2000/svg" viewBox="0 0 421.42 56.33"><defs><style>.cls-1{fill:#6c8485;}</style></defs><g id="レイヤー_2" data-name="レイヤー 2"><g id="文字"><path class="cls-1" d="M0,.5H12.29V2.69H2.35V9.24h9.24v2.18H2.35v8.91H0Z"/><path class="cls-1" d="M25,.5h2.21l8.43,19.83H32.84l-2-4.87H20.92l-2.05,4.87H16.21Zm1.06,3H26l-4.12,9.74h8.09Z"/><path class="cls-1" d="M56.59,4.59a5.72,5.72,0,0,0-2.21-1.8,6.44,6.44,0,0,0-2.75-.61,6.88,6.88,0,0,0-3,.68,7.57,7.57,0,0,0-2.39,1.8,8.4,8.4,0,0,0-1.57,2.63,8.94,8.94,0,0,0-.56,3.13,9.25,9.25,0,0,0,.56,3.23,7.81,7.81,0,0,0,1.56,2.6A7,7,0,0,0,48.57,18a7.61,7.61,0,0,0,6.31-.07,7.36,7.36,0,0,0,2.49-2l1.77,1.48A8.15,8.15,0,0,1,55.9,20a10.4,10.4,0,0,1-4.27.84,10.08,10.08,0,0,1-4-.78,9.69,9.69,0,0,1-3.21-2.17,9.93,9.93,0,0,1-2.13-3.29,11.09,11.09,0,0,1-.77-4.17,11.25,11.25,0,0,1,.74-4.09A9.84,9.84,0,0,1,51.63,0a10.45,10.45,0,0,1,3.88.73,7.12,7.12,0,0,1,3.12,2.38Z"/><path class="cls-1" d="M66.89.5h2.35V20.33H66.89Z"/><path class="cls-1" d="M78.65.5H81V18.14h9.08v2.19H78.65Z"/><path class="cls-1" d="M97.13.5h2.35V20.33H97.13Z"/><path class="cls-1" d="M122.19,2.69h-6.55V20.33h-2.35V2.69h-6.55V.5h15.45Z"/><path class="cls-1" d="M134.12,11.79,126.73.5h3l5.58,9L141,.5h2.82l-7.39,11.29v8.54h-2.35Z"/><path class="cls-1" d="M162.82.5h2.35V20.33h-2.35Z"/><path class="cls-1" d="M174.58.5h3L189,17h.05V.5h2.35V20.33h-3L177,3.86h-.06V20.33h-2.35Z"/><path class="cls-1" d="M214.14,2.69h-6.55V20.33h-2.35V2.69h-6.55V.5h15.45Z"/><path class="cls-1" d="M221.4.5h5.06a24.63,24.63,0,0,1,2.85.17,7.69,7.69,0,0,1,2.53.73A4.62,4.62,0,0,1,233.66,3a5.28,5.28,0,0,1,.7,2.92A4.81,4.81,0,0,1,233,9.49a6.23,6.23,0,0,1-3.64,1.71L235,20.33h-2.88l-5.38-8.91h-3v8.91H221.4Zm2.35,8.74h2.1c.65,0,1.33,0,2-.06a6.55,6.55,0,0,0,1.93-.36,3.35,3.35,0,0,0,1.45-1A2.72,2.72,0,0,0,231.84,6a3.06,3.06,0,0,0-.42-1.7,2.89,2.89,0,0,0-1.11-1,4.86,4.86,0,0,0-1.54-.46,14.06,14.06,0,0,0-1.72-.11h-3.3Z"/><path class="cls-1" d="M252.19,20.83a10.76,10.76,0,0,1-4.15-.78,9.73,9.73,0,0,1-5.44-5.48,11.06,11.06,0,0,1-.77-4.15,11.11,11.11,0,0,1,.77-4.16A10,10,0,0,1,244.76,3,10.15,10.15,0,0,1,248,.78a11.46,11.46,0,0,1,8.31,0A10.26,10.26,0,0,1,259.63,3a9.81,9.81,0,0,1,2.15,3.31,10.92,10.92,0,0,1,.78,4.16,10.87,10.87,0,0,1-.78,4.15,9.81,9.81,0,0,1-2.15,3.31,10.09,10.09,0,0,1-3.28,2.17A10.78,10.78,0,0,1,252.19,20.83Zm0-2.18a7.69,7.69,0,0,0,3.18-.65,7.33,7.33,0,0,0,2.48-1.76,8.05,8.05,0,0,0,1.61-2.62,8.91,8.91,0,0,0,.57-3.2,9,9,0,0,0-.57-3.21,8.05,8.05,0,0,0-1.61-2.62,7.61,7.61,0,0,0-2.48-1.76,8.08,8.08,0,0,0-6.35,0,7.61,7.61,0,0,0-2.48,1.76,8.05,8.05,0,0,0-1.61,2.62,9.15,9.15,0,0,0,0,6.41,8.05,8.05,0,0,0,1.61,2.62A7.33,7.33,0,0,0,249,18,7.68,7.68,0,0,0,252.19,18.65Z"/><path class="cls-1" d="M270.45.5h7.62a10.32,10.32,0,0,1,2.07.23,10.58,10.58,0,0,1,2.17.71,9.83,9.83,0,0,1,2.07,1.28,8.33,8.33,0,0,1,1.75,1.89,8.9,8.9,0,0,1,1.2,2.54,11,11,0,0,1,.45,3.27,10.93,10.93,0,0,1-.45,3.26,9.09,9.09,0,0,1-1.2,2.55,8.78,8.78,0,0,1-1.75,1.89,10.2,10.2,0,0,1-2.07,1.27,9.49,9.49,0,0,1-2.17.71,10.32,10.32,0,0,1-2.07.23h-7.62Zm2.35,17.64h4.48a10.7,10.7,0,0,0,3.17-.44A6.74,6.74,0,0,0,283,16.31a6.53,6.53,0,0,0,1.68-2.39,9,9,0,0,0,.61-3.5,9,9,0,0,0-.61-3.5A6.57,6.57,0,0,0,283,4.52a6.72,6.72,0,0,0-2.52-1.38,10.7,10.7,0,0,0-3.17-.45H272.8Z"/><path class="cls-1" d="M310.91,12.77a11.46,11.46,0,0,1-.41,3.08,7.25,7.25,0,0,1-1.28,2.56,6.13,6.13,0,0,1-2.31,1.76,9.48,9.48,0,0,1-7,0,6.13,6.13,0,0,1-2.31-1.76,7.44,7.44,0,0,1-1.29-2.56,11.45,11.45,0,0,1-.4-3.08V.5h2.35V12.43a11.09,11.09,0,0,0,.25,2.33,5.78,5.78,0,0,0,.84,2A4.23,4.23,0,0,0,301,18.13a6.1,6.1,0,0,0,4.93,0,4.23,4.23,0,0,0,1.57-1.39,5.78,5.78,0,0,0,.84-2,10.47,10.47,0,0,0,.25-2.33V.5h2.35Z"/><path class="cls-1" d="M334.12,4.59a5.65,5.65,0,0,0-2.21-1.8,6.4,6.4,0,0,0-2.74-.61,6.82,6.82,0,0,0-3,.68,7.61,7.61,0,0,0-2.4,1.8,8.37,8.37,0,0,0-1.56,2.63,8.72,8.72,0,0,0-.56,3.13,9,9,0,0,0,.56,3.23,8,8,0,0,0,1.55,2.6,7.48,7.48,0,0,0,8.69,1.68,7.3,7.3,0,0,0,2.5-2l1.76,1.48A8.12,8.12,0,0,1,333.44,20a10.43,10.43,0,0,1-4.27.84,10.13,10.13,0,0,1-4-.78A9.9,9.9,0,0,1,322,17.88a10.07,10.07,0,0,1-2.12-3.29,10.9,10.9,0,0,1-.77-4.17,11,11,0,0,1,.74-4.09A10,10,0,0,1,321.91,3a9.92,9.92,0,0,1,7.26-3A10.43,10.43,0,0,1,333,.73a7.09,7.09,0,0,1,3.13,2.38Z"/><path class="cls-1" d="M357.73,2.69h-6.56V20.33h-2.35V2.69h-6.55V.5h15.46Z"/><path class="cls-1" d="M365,.5h2.35V20.33H365Z"/><path class="cls-1" d="M386,20.83a10.81,10.81,0,0,1-4.16-.78,9.94,9.94,0,0,1-3.27-2.17,9.69,9.69,0,0,1-2.16-3.31,11.06,11.06,0,0,1-.77-4.15,11.11,11.11,0,0,1,.77-4.16A9.69,9.69,0,0,1,378.52,3,10.1,10.1,0,0,1,381.79.78a11.48,11.48,0,0,1,8.32,0A10.1,10.1,0,0,1,393.38,3a9.69,9.69,0,0,1,2.16,3.31,11.11,11.11,0,0,1,.77,4.16,11.06,11.06,0,0,1-.77,4.15,9.69,9.69,0,0,1-2.16,3.31,9.94,9.94,0,0,1-3.27,2.17A10.81,10.81,0,0,1,386,20.83Zm0-2.18a7.69,7.69,0,0,0,3.18-.65,7.33,7.33,0,0,0,2.48-1.76,8.23,8.23,0,0,0,1.61-2.62,8.91,8.91,0,0,0,.57-3.2,9,9,0,0,0-.57-3.21,8.23,8.23,0,0,0-1.61-2.62,7.61,7.61,0,0,0-2.48-1.76,8.1,8.1,0,0,0-6.36,0,7.61,7.61,0,0,0-2.48,1.76,8.23,8.23,0,0,0-1.61,2.62,9,9,0,0,0-.57,3.21,8.91,8.91,0,0,0,.57,3.2,8.23,8.23,0,0,0,1.61,2.62A7.33,7.33,0,0,0,382.77,18,7.69,7.69,0,0,0,386,18.65Z"/><path class="cls-1" d="M404.57.5h3L419,17h.05V.5h2.35V20.33h-3L407,3.86h-.06V20.33h-2.35Z"/><path class="cls-1" d="M136.46,36.5h12.46v2.19H138.81V44.9h9.44v2.19h-9.44v7h10.61v2.19h-13Z"/><path class="cls-1" d="M162.22,45.88l-6.67-9.38h3l5.34,7.76,5.3-7.76h2.94l-6.67,9.38,7.31,10.45h-3.11l-5.88-8.79-5.9,8.79H155Z"/><path class="cls-1" d="M186.1,36.5h2.21l8.43,19.83H194l-2-4.87h-9.91l-2,4.87h-2.66Zm1.07,3h-.06L183,49.27h8.09Z"/><path class="cls-1" d="M203.85,36.5h3.5L214.07,52h.06l6.78-15.54h3.41V56.33H222V39.7h-.06L214.8,56.33h-1.43L206.26,39.7h-.06V56.33h-2.35Z"/><path class="cls-1" d="M233.73,36.5h5.88a12.38,12.38,0,0,1,2.62.27,6.59,6.59,0,0,1,2.21.9A4.7,4.7,0,0,1,246,39.35a5.36,5.36,0,0,1,.57,2.59,5.26,5.26,0,0,1-.61,2.68,4.85,4.85,0,0,1-1.59,1.68,6.54,6.54,0,0,1-2.11.87,10.06,10.06,0,0,1-2.18.25h-4v8.91h-2.35Zm2.35,8.74h4a4.82,4.82,0,0,0,2.87-.8A2.87,2.87,0,0,0,244,42a2.85,2.85,0,0,0-1.1-2.47,4.75,4.75,0,0,0-2.87-.8h-4Z"/><path class="cls-1" d="M254.81,36.5h2.36V54.14h9.07v2.19H254.81Z"/><path class="cls-1" d="M273.29,36.5h12.46v2.19H275.64V44.9h9.44v2.19h-9.44v7h10.61v2.19h-13Z"/></g></g></svg>