<svg xmlns="http://www.w3.org/2000/svg" viewBox="0 0 491.06 20.83"><defs><style>.cls-1{fill:#6c8485;}</style></defs><g id="レイヤー_2" data-name="レイヤー 2"><g id="レイヤー_1-2" data-name="レイヤー 1"><path class="cls-1" d="M0,.5H2.35V8.9H12.94V.5h2.35V20.33H12.94V11.09H2.35v9.24H0Z"/><path class="cls-1" d="M26,11.79,18.62.5h3l5.57,9,5.74-9h2.83l-7.4,11.29v8.54H26Z"/><path class="cls-1" d="M55.94,19a13.46,13.46,0,0,1-3.59,1.4,16.5,16.5,0,0,1-3.83.45,11.64,11.64,0,0,1-4.25-.75A10.1,10.1,0,0,1,40.92,18a9.75,9.75,0,0,1-2.2-3.29,11.15,11.15,0,0,1-.78-4.24,10.53,10.53,0,0,1,.83-4.27,9.67,9.67,0,0,1,2.28-3.28A10.37,10.37,0,0,1,44.44.76,11.16,11.16,0,0,1,48.61,0a12.12,12.12,0,0,1,3.76.59,8,8,0,0,1,3.24,2L53.84,4.45a6.62,6.62,0,0,0-2.45-1.68,7.76,7.76,0,0,0-3-.59,8,8,0,0,0-3.16.62,7.66,7.66,0,0,0-4.22,4.31,8.9,8.9,0,0,0-.6,3.31,8.8,8.8,0,0,0,.6,3.27,7.85,7.85,0,0,0,1.68,2.62A7.48,7.48,0,0,0,45.33,18a8.77,8.77,0,0,0,3.33.62,11.24,11.24,0,0,0,2.52-.3,10,10,0,0,0,2.41-.85V11.42H49V9.24h6.91Z"/><path class="cls-1" d="M62,.5h2.35V20.33H62Z"/><path class="cls-1" d="M70.39.5H82.85V2.69H72.74V8.9h9.44v2.19H72.74v7.05H83.36v2.19h-13Z"/><path class="cls-1" d="M88.12.5h3L102.56,17h.06V.5H105V20.33h-3L90.52,3.87h0V20.33H88.12Z"/><path class="cls-1" d="M111,.5h12.46V2.69H113.37V8.9h9.44v2.19h-9.44v7.05H124v2.19H111Z"/><path class="cls-1" d="M137.65.5h3.5L147.87,16h0L154.7.5h3.42V20.33h-2.36V3.7h0L148.6,20.33h-1.43L140.05,3.7H140V20.33h-2.35Z"/><path class="cls-1" d="M170.6.5h2.22l8.42,19.83H178.5l-2-4.87h-9.91l-2,4.87h-2.66Zm1.07,3h-.06l-4.11,9.74h8.09Z"/><path class="cls-1" d="M185,.5h3L199.44,17h.06V.5h2.35V20.33h-3L187.4,3.87h-.05V20.33H185Z"/><path class="cls-1" d="M214.34.5h2.21L225,20.33h-2.75l-2-4.87h-9.91l-2.05,4.87H205.6Zm1.06,3h-.05l-4.12,9.74h8.09Z"/><path class="cls-1" d="M245.59,19a13.52,13.52,0,0,1-3.6,1.4,16.42,16.42,0,0,1-3.82.45,11.69,11.69,0,0,1-4.26-.75A10.2,10.2,0,0,1,230.56,18a9.58,9.58,0,0,1-2.19-3.29,11,11,0,0,1-.79-4.24,10.7,10.7,0,0,1,.83-4.27,9.67,9.67,0,0,1,2.28-3.28A10.37,10.37,0,0,1,234.08.76,11.24,11.24,0,0,1,238.25,0,12.19,12.19,0,0,1,242,.59a8.05,8.05,0,0,1,3.23,2l-1.76,1.85A6.79,6.79,0,0,0,241,2.77a7.81,7.81,0,0,0-3-.59,8,8,0,0,0-3.16.62,7.6,7.6,0,0,0-4.21,4.31,8.7,8.7,0,0,0-.61,3.31,8.61,8.61,0,0,0,.61,3.27,8,8,0,0,0,1.67,2.62A7.58,7.58,0,0,0,235,18a8.79,8.79,0,0,0,3.34.62,11.38,11.38,0,0,0,2.52-.3,9.87,9.87,0,0,0,2.4-.85V11.42h-4.56V9.24h6.92Z"/><path class="cls-1" d="M251.63.5H264.1V2.69H254V8.9h9.43v2.19H254v7.05H264.6v2.19h-13Z"/><path class="cls-1" d="M269.36.5h3.5L279.58,16h.05L286.41.5h3.42V20.33h-2.36V3.7h-.05l-7.11,16.63h-1.43L271.77,3.7h-.06V20.33h-2.35Z"/><path class="cls-1" d="M295.87.5h12.46V2.69h-10.1V8.9h9.43v2.19h-9.43v7.05h10.61v2.19h-13Z"/><path class="cls-1" d="M313.6.5h3L328.05,17h.05V.5h2.35V20.33h-3L316,3.87H316V20.33H313.6Z"/><path class="cls-1" d="M349.8,2.69h-6.55V20.33H340.9V2.69h-6.55V.5H349.8Z"/><path class="cls-1" d="M372,4a3.54,3.54,0,0,0-1.57-1.38,5,5,0,0,0-2.05-.44,6.2,6.2,0,0,0-1.54.2A4.57,4.57,0,0,0,365.5,3a2.9,2.9,0,0,0-1,1,3.08,3.08,0,0,0-.36,1.52,3.19,3.19,0,0,0,.21,1.19,2.4,2.4,0,0,0,.68.93,5.11,5.11,0,0,0,1.29.79,19.4,19.4,0,0,0,2,.73q1.14.36,2.22.78A7.79,7.79,0,0,1,372.47,11a4.62,4.62,0,0,1,1.31,1.62,5.27,5.27,0,0,1,.49,2.42,5.36,5.36,0,0,1-.58,2.57,5.46,5.46,0,0,1-1.56,1.81,6.72,6.72,0,0,1-2.22,1.06,9.45,9.45,0,0,1-2.61.35,10,10,0,0,1-1.73-.15,7.82,7.82,0,0,1-1.67-.48,6.53,6.53,0,0,1-1.5-.84,4.85,4.85,0,0,1-1.2-1.27l2-1.65a4.23,4.23,0,0,0,1.8,1.65,5.41,5.41,0,0,0,4,.33,4.38,4.38,0,0,0,1.38-.65,3.59,3.59,0,0,0,1-1.08,2.82,2.82,0,0,0,.39-1.48,3.22,3.22,0,0,0-.3-1.5,2.77,2.77,0,0,0-1-1,7.22,7.22,0,0,0-1.62-.75l-2.3-.79a14,14,0,0,1-2-.77,6.16,6.16,0,0,1-1.55-1.06,4.73,4.73,0,0,1-1-1.51,5.43,5.43,0,0,1-.37-2.12,5.12,5.12,0,0,1,2.07-4.27A6.88,6.88,0,0,1,365.87.37,8.49,8.49,0,0,1,368.39,0a8.6,8.6,0,0,1,3.07.52,6.06,6.06,0,0,1,2.48,1.8Z"/><path class="cls-1" d="M394.15,12.77a11.45,11.45,0,0,1-.4,3.08,7.11,7.11,0,0,1-1.29,2.56,6.13,6.13,0,0,1-2.31,1.76,9.45,9.45,0,0,1-6.94,0,6,6,0,0,1-2.31-1.76,7.11,7.11,0,0,1-1.29-2.56,11.46,11.46,0,0,1-.41-3.08V.5h2.35V12.43a10.46,10.46,0,0,0,.26,2.33,5.42,5.42,0,0,0,.84,2,4.2,4.2,0,0,0,1.56,1.39,5.22,5.22,0,0,0,2.47.52,5.15,5.15,0,0,0,2.46-.52,4.15,4.15,0,0,0,1.57-1.39,5.78,5.78,0,0,0,.84-2,10.47,10.47,0,0,0,.25-2.33V.5h2.35Z"/><path class="cls-1" d="M400.12.5H406a12.45,12.45,0,0,1,2.62.27,6.59,6.59,0,0,1,2.21.9,4.7,4.7,0,0,1,1.54,1.68,5.36,5.36,0,0,1,.57,2.59,5.26,5.26,0,0,1-.61,2.68,4.85,4.85,0,0,1-1.59,1.68,6.54,6.54,0,0,1-2.11.87,10.06,10.06,0,0,1-2.18.25h-4v8.91h-2.35Zm2.35,8.74h4a4.82,4.82,0,0,0,2.87-.8A2.87,2.87,0,0,0,410.42,6a2.85,2.85,0,0,0-1.1-2.47,4.82,4.82,0,0,0-2.87-.8h-4Z"/><path class="cls-1" d="M417.84.5h5.88a12.31,12.31,0,0,1,2.62.27,6.51,6.51,0,0,1,2.21.9,4.53,4.53,0,0,1,1.54,1.68,5.36,5.36,0,0,1,.58,2.59,5.26,5.26,0,0,1-.62,2.68,4.82,4.82,0,0,1-1.58,1.68,6.59,6.59,0,0,1-2.12.87,10,10,0,0,1-2.18.25h-4v8.91h-2.35Zm2.35,8.74h4a4.82,4.82,0,0,0,2.87-.8A2.84,2.84,0,0,0,428.14,6,2.82,2.82,0,0,0,427,3.49a4.82,4.82,0,0,0-2.87-.8h-4Z"/><path class="cls-1" d="M444.78,20.83a10.78,10.78,0,0,1-4.16-.78,10.09,10.09,0,0,1-3.28-2.17,9.72,9.72,0,0,1-2.15-3.31,10.87,10.87,0,0,1-.77-4.15,10.92,10.92,0,0,1,.77-4.16A9.67,9.67,0,0,1,437.34,3,9.94,9.94,0,0,1,440.62.79a11.32,11.32,0,0,1,8.31,0,9.75,9.75,0,0,1,5.44,5.47,11.11,11.11,0,0,1,.77,4.16,11.06,11.06,0,0,1-.77,4.15,9.89,9.89,0,0,1-2.16,3.31,10,10,0,0,1-3.28,2.17A10.76,10.76,0,0,1,444.78,20.83Zm0-2.18A7.68,7.68,0,0,0,448,18a7.23,7.23,0,0,0,2.48-1.76A8.05,8.05,0,0,0,452,13.62a9.15,9.15,0,0,0,0-6.41,8.05,8.05,0,0,0-1.61-2.62A7.51,7.51,0,0,0,448,2.83a7.78,7.78,0,0,0-8.83,1.76,8.05,8.05,0,0,0-1.61,2.62,9,9,0,0,0-.57,3.21,8.91,8.91,0,0,0,.57,3.2,8.05,8.05,0,0,0,1.61,2.62A7.33,7.33,0,0,0,441.6,18,7.69,7.69,0,0,0,444.78,18.65Z"/><path class="cls-1" d="M460,.5h5.06A24.63,24.63,0,0,1,468,.67a7.94,7.94,0,0,1,2.53.73A4.55,4.55,0,0,1,472.3,3,5.28,5.28,0,0,1,473,6a4.81,4.81,0,0,1-1.32,3.53A6.23,6.23,0,0,1,468,11.2l5.63,9.13h-2.88l-5.38-8.91h-3v8.91H460Zm2.35,8.74h2.1c.65,0,1.33,0,2-.06a6.55,6.55,0,0,0,1.93-.36,3.36,3.36,0,0,0,1.46-1A2.77,2.77,0,0,0,470.48,6a3.08,3.08,0,0,0-.42-1.7,2.89,2.89,0,0,0-1.11-1,4.86,4.86,0,0,0-1.54-.46,14.06,14.06,0,0,0-1.72-.11h-3.3Z"/><path class="cls-1" d="M491.06,2.69h-6.55V20.33h-2.35V2.69H475.6V.5h15.46Z"/></g></g></svg>